<svg id="player" xmlns="http://www.w3.org/2000/svg" viewBox="0 0 800 800"><defs><style>.cls-1{fill:#ac8457}.cls-2{fill:#58595b}.cls-4{fill:#fff}.cls-5{fill:#024f9e}.cls-6{fill:#fed519}.cls-7{fill:#009d5c}</style></defs><g id="skin"><path id="arm-l" class="cls-1" d="M305.93 387.93h36.78v72.38a18.39 18.39 0 01-18.39 18.39 18.39 18.39 0 01-18.39-18.39v-72.38z"/><path id="arm-r" class="cls-1" d="M457.19 387.93H494v72.38a18.39 18.39 0 01-18.39 18.39 18.39 18.39 0 01-18.39-18.39v-72.38h-.03z"/><path id="leg-l" class="cls-1" d="M349.88 497.94h45.67v45.67h-45.67z"/><path id="leg-r" class="cls-1" d="M404.78 497.94h45.67v45.67h-45.67z"/></g><g id="boots"><path id="left" class="cls-2" d="M395.54 564.03h-22.83L349.88 566h-12.5l-7.5 2.53-5.25 8.5v9.84l1.91 4.16 3.84 4.06 6.33 1.94h58.83v-33z"/><path id="boot" class="cls-2" d="M404.67 564.03h22.83l22.83 1.97h12.5l7.5 2.53 5.25 8.5v9.84l-1.91 4.16-3.84 4.06-6.33 1.94h-58.83v-33z"/><path d="M382.45 562.06s-21.5 18.27-21.83 36.27h20.83s17-10.17 13.71-36.83zm35.46 0s21.5 18.27 21.83 36.27h-20.83s-17-10.17-13.71-36.83z" fill="#a7a9ac"/></g><g id="socks"><g id="socks-2" data-name="socks"><path id="left-2" data-name="left" class="cls-4" d="M349.88 516.85h45.67v48.04h-45.67z"/><path id="right" class="cls-4" d="M404.38 516.85h45.67v48.04h-45.67z"/></g><g id="details"><g id="l"><path id="stripe" class="cls-5" d="M349.91 528.28h45.67v13.98h-45.67z"/></g><g id="r"><path id="stripe-2" data-name="stripe" class="cls-5" d="M404.78 528.28h45.67v13.98h-45.67z"/></g></g></g><g id="shorts"><path id="shorts-2" data-name="shorts" class="cls-5" d="M341.67 447.72h116.49v45.55a9.8 9.8 0 01-9.8 9.8h-96.88a9.8 9.8 0 01-9.8-9.8v-45.55h-.01z"/><g id="details-2" data-name="details"><path id="stripe-l" class="cls-4" d="M345.41 450.76h6.5v51.26h-6.5z"/><path id="stripe-r" class="cls-4" d="M448.09 450.76h6.5v51.26h-6.5z"/></g></g><g id="shirt"><path id="shirt-2" data-name="shirt" class="cls-6" d="M369.5 320.72l-48.29 2.98-11.36 6.25-6.83 10.1-3.31 40.74 5.17 7.66 7.66 4.67h29.5l.17 54h114.83v-53.5l29.34-.17 7.01-4 6.99-10.5-3.4-37.33-6.83-11.83-9.77-6.09-49.84-2.98-1 21.23-6.5 6.5-11.16 3.49-11.88 2.01-15.46-3.16-11-5.67-3.66-3.83-.38-20.57z"/><g id="details-3" data-name="details"><path class="cls-7" d="M311.77 391.55c-4.38-.4-8.56-5.62-10.67-8.06s-1.26-9.78-1.07-13.88l1-20.73a25.25 25.25 0 015.42-13.22l3.28-3.74c2.79-3.17 4.85-2.42 4.59 1.67L312 369.31c-.26 4.1-1.46 12.76 2.94 12.76l25.83.31c4.4 0 2.71 10.58-1.67 10.18z" id="stripe-l-2" data-name="stripe-l"/><path class="cls-7" d="M488.31 391.55c4.38-.4 8.56-5.62 10.67-8.06s1.26-9.78 1.07-13.88l-1-20.73a25.25 25.25 0 00-5.42-13.22l-3.28-3.74c-2.79-3.17-4.85-2.42-4.59 1.67l2.29 35.71c.26 4.1 1.46 12.76-2.94 12.76l-25.83.31c-4.4 0-2.71 10.58 1.67 10.18z" id="stripe-r-2" data-name="stripe-r"/><path class="cls-7" d="M433.81 322.48c-2.52 1.63-7 3.25-10 6.49l-18.37 20a7.23 7.23 0 01-10.82 0l-18.37-20a55.58 55.58 0 00-10-8c-2.52-1.63-4.6-.22-4.6 4.18v16.58a13.74 13.74 0 007.25 11.39l23.86 11.14a19.51 19.51 0 0014.5 0l23.86-11.14a13.74 13.74 0 007.25-11.39v-16.57c-1-2.79-2.04-4.3-4.56-2.68z" id="neck"/><g id="brazil-crest-1998"><path class="cls-7" d="M442.17 387.37a.94.94 0 01-1 .89h-7a.89.89 0 110-1.78h7a.94.94 0 011 .89z"/><ellipse class="cls-7" cx="431.97" cy="365.25" rx=".92" ry=".95"/><ellipse class="cls-7" cx="435.78" cy="364.22" rx=".92" ry=".95"/><ellipse class="cls-7" cx="439.58" cy="364.22" rx=".92" ry=".95"/><ellipse class="cls-7" cx="443.39" cy="365.25" rx=".92" ry=".95"/><path class="cls-5" d="M440.07 366.72c-.41-.42-2.39-.47-2.39-.47s-2 0-2.39.47c-1.85 1.91-3.88 1.79-4.55 3.14a1.91 1.91 0 00-.17 1l1 10.37a2.46 2.46 0 001.52 2.27l2.3.75 2.32.93 2.32-.93 2.3-.75a2.46 2.46 0 001.52-2.27l1-10.37a1.91 1.91 0 00-.17-1c-.73-1.35-2.76-1.23-4.61-3.14z"/><rect class="cls-7" x="436.96" y="368.44" width="1.45" height="14.58" rx=".57" ry=".57"/><rect class="cls-7" x="432.41" y="374" width="10.48" height="1.45" rx=".57" ry=".57"/><path class="cls-6" d="M437.68 383.52a.41.41 0 01-.15 0l-1.81-.72-1.77-.57a2.32 2.32 0 01-1.43-2.12l-.75-8.07a1.9 1.9 0 01.17-1 3 3 0 011.61-1.24 6.1 6.1 0 002-1.3 5 5 0 014.31 0 6.09 6.09 0 002 1.3 3 3 0 011.61 1.24 1.89 1.89 0 01.17 1l-.75 8.07a2.32 2.32 0 01-1.43 2.12l-1.8.58-1.78.72a.41.41 0 01-.2-.01zm-3.46-2.1l1.78.58 1.68.67 1.66-.66 1.8-.59a1.5 1.5 0 00.92-1.39l.75-8.08a1.08 1.08 0 00-.09-.58c-.2-.4-.63-.59-1.22-.87a6.87 6.87 0 01-2.24-1.47 4.55 4.55 0 00-1.58-.25 4.44 4.44 0 00-1.57.25 6.85 6.85 0 01-2.24 1.47c-.6.27-1 .47-1.22.87a1.09 1.09 0 00-.09.58l.75 8.08a1.5 1.5 0 00.91 1.39zm5-12.43zm0 0z"/><path class="cls-4" d="M440.27 373.54l-1.71.31.31-1.71a.53.53 0 00-.52-.62H437a.53.53 0 00-.52.62l.31 1.71-1.71-.31a.53.53 0 00-.62.52v1.35a.53.53 0 00.62.52l1.71-.31-.31 1.71a.53.53 0 00.52.62h1.35a.53.53 0 00.52-.62l-.31-1.71 1.71.31a.53.53 0 00.62-.52v-1.35a.53.53 0 00-.62-.52z"/></g><path id="nike" class="cls-7" d="M371.91 376.78c0 1.19-1.57 2.17-3.49 2.17h-9.26c-1.92 0-3.49-1-3.49-2.17s1.57-2.17 3.49-2.17h9.26c1.92 0 3.49.98 3.49 2.17z"/><path class="cls-7" d="M400.42 412.5c-6.22 0-8.82-4.78-8.82-10.54 0-6.19 3.49-10.57 9.53-10.57 2 0 4.56.58 5.33 1.93a1.84 1.84 0 01.21.83 2 2 0 01-2 1.9 1.82 1.82 0 01-.89-.21 5.62 5.62 0 00-2.67-.58c-3 0-5.12 2.54-5.12 5.79a2 2 0 000 .43 6.65 6.65 0 015.24-2.64c3.68 0 7 2.3 7 6.65.01 3.98-3.15 7.01-7.81 7.01zm-.4-9.93a5.11 5.11 0 00-4 1.93c.18 2 1.29 4.14 4.14 4.14 2.36 0 3.65-1.56 3.65-3 .01-2.15-1.81-3.06-3.81-3.06z" id="number-6"/></g></g><path id="neck-2" data-name="neck" d="M430.54 343s-14.09 11-30.54 11-30.5-11-30.5-11v-22.28h61z" fill="#89694b"/><path d="M502.88 374.34L500.41 344c-1.19-11.87-11.83-22.25-23.72-23.14l-37.14-2.71c-4.07-.45-20.52-.09-39.55.53-19-.62-35.48-1-39.55-.53l-37.14 2.71c-11.89.89-22.53 11.27-23.72 23.14l-2.47 30.36a20.15 20.15 0 005 15.74 19.92 19.92 0 001.69 1.64v66.36c0 12.81 9.32 23.22 20.78 23.22a19.8 19.8 0 0015.21-7.42v19.57a12.23 12.23 0 007.74 11.36v58.26h-5.93c-10.93 0-19.83 5.8-19.83 17.11 0 8.06 0 17 11.72 19.7v1.6a1.38 1.38 0 001.38 1.38h1.63a1.38 1.38 0 001.38-1.37v-.95c1.16.09 2.39.15 3.73.15h1.89v.8a1.38 1.38 0 001.38 1.38h1.63a1.38 1.38 0 001.38-1.37v-.8h5.62v.8a1.38 1.38 0 001.38 1.38h1.63a1.38 1.38 0 001.38-1.37v-.8h5.62v.8a1.38 1.38 0 001.38 1.38h1.63a1.38 1.38 0 001.38-1.37v-.8h5.62v.8a1.38 1.38 0 001.38 1.38h1.63a1.38 1.38 0 001.38-1.37v-.8h5.62v.8a1.38 1.38 0 001.38 1.38h1.63a1.38 1.38 0 001.38-1.37v-.8h5.62v.8a1.38 1.38 0 001.38 1.38h1.63a1.38 1.38 0 001.38-1.37v-.81l.06-55.45v-39.59h4v39.49l.06 54.67v1.6a1.38 1.38 0 001.38 1.38h1.63a1.38 1.38 0 001.38-1.37v-.8h5.62v.8a1.38 1.38 0 001.38 1.38h1.63a1.38 1.38 0 001.38-1.37v-.8h5.62v.8a1.38 1.38 0 001.38 1.38h1.63a1.38 1.38 0 001.38-1.37v-.8h5.62v.8a1.38 1.38 0 001.38 1.38h1.63a1.38 1.38 0 001.38-1.37v-.8h5.62v.8a1.38 1.38 0 001.38 1.38h1.63a1.38 1.38 0 001.38-1.37v-.8h5.62v.8a1.38 1.38 0 001.38 1.38h1.63a1.38 1.38 0 001.38-1.37v-.8h1.89c1.33 0 2.57-.05 3.72-.15v.95a1.38 1.38 0 001.38 1.38h1.63a1.38 1.38 0 001.38-1.37v-1.6c11.71-2.68 11.72-11.64 11.72-19.7 0-11.3-8.89-17.11-19.83-17.11h-5.93v-58.33a12.23 12.23 0 007.74-11.36v-19.56a19.8 19.8 0 0015.21 7.42c11.46 0 20.78-10.42 20.78-23.22v-66.36a19.92 19.92 0 001.69-1.64 20.15 20.15 0 004.99-15.75zm-130.49-46.17C375.85 330 388 330.24 400 330c12 .28 24.15 0 27.61-1.79v11.78c0 4.8-22.42 12-27.23 12l-.38-.08-.38.08c-4.8 0-27.23-7.19-27.23-12zm-33 75.43v55c0 9.5-6.63 17.22-14.78 17.22s-14.78-7.73-14.78-17.22v-62.78a21.08 21.08 0 007.47 1.36h22.09zm52.9 191.48h-50.64c-14.22 0-14.22-5-14.22-14.89 0-8.21 6.38-11.5 14.22-11.5h11.67l38.93-2.69.06 15.37zm-38.74-76.4h38.67v41.71l-38.67 2.68h-.26v-44.4zm-.26-5.74v-7.26h38.94v7.21h-38.91zm104.77 55.75h.26c7.84 0 14.22 3.29 14.22 11.5 0 9.91 0 14.89-14.22 14.89h-50.64v-13.7l.06-15.37 38.93 2.69h11.42zm-11.67-50h.26v44.4h-.26l-38.67-2.68v-41.74zm-38.67-5.74v-7.21h38.98V513h-38.95zm46.84-61.84h-.07v42.35a6.6 6.6 0 01-6.58 6.58h-1.26L403 500s-.11-3.73-.16-8.75v-2.79c0-3.51-1.41-5.09-2.82-5-1.41-.09-2.82 1.49-2.82 5v2.79c0 5-.16 8.75-.16 8.75H352.1a6.6 6.6 0 01-6.58-6.58V451.1h-.07v-.33l30.24.33h48.69l30.24-.33zm35.57 7.51c0 9.5-6.63 17.22-14.78 17.22s-14.78-7.73-14.78-17.22v-61.44h22.09a21.08 21.08 0 007.47-1.36zm6-77.21a13.53 13.53 0 01-6 7.29 14.69 14.69 0 01-7.47 2l-22.09.09v-20.15c0-5.56-6.07-5.94-6.07 0s.07 14.37.07 14.37v59.59H345.41V385s.07-8.46.07-14.37-6.07-5.54-6.07 0v20.11l-22.09-.09a14.69 14.69 0 01-7.47-2 13.53 13.53 0 01-6-7.29 14.89 14.89 0 01-.75-6.46l2.47-30.36c.89-9 9.23-17.08 18.2-17.75l11.12-.83 32.22-2.29c.68.54.48 17.49.48 17.49 0 8.43 23.34 15.29 31.77 15.29h1.3c8.43 0 31.77-6.86 31.77-15.29 0 0-.2-16.95.48-17.49l32.21 2.33 11.12.83c9 .67 17.3 8.8 18.2 17.75l2.47 30.36a14.89 14.89 0 01-.76 6.45z" id="border"/><g id="head"><path id="skin-2" data-name="skin" class="cls-1" d="M446.38 259c0-.91.08-1.81.08-2.73 0-30.51-21.06-55.25-47-55.25s-47 24.74-47 55.25c0 1.11 0 2.21.1 3.31-4 2.46-6.9 8.44-6.9 15.43 0 9.19 4.93 16.64 11 16.64a7.47 7.47 0 002.1-.31c.82 24.5 18.74 44.08 40.73 44.08s40.12-19.81 40.74-44.5a7.65 7.65 0 003.25.74c6.08 0 11-7.45 11-16.64-.05-7.63-3.48-14.02-8.1-16.02z"/><path id="hair" d="M399.17 200.76c-44.42 3.5-45.58 44.42-45.58 44.42s6.57-21 19.22-23.92c6.72-1.58 17.48 4.21 26.35 5.06 8.87-.85 19.64-6.63 26.35-5.06 12.65 3 19.22 23.92 19.22 23.92s-1.14-40.92-45.56-44.42z" fill="#8c715d" opacity=".7"/><path id="border-2" data-name="border" d="M446.38 259c0-.91.08-1.81.08-2.73 0-30.51-21.06-55.25-47-55.25s-47 24.74-47 55.25c0 1.11 0 2.21.1 3.31-4 2.46-6.9 8.44-6.9 15.43 0 9.19 4.93 16.64 11 16.64a7.47 7.47 0 002.1-.31c.82 24.5 18.74 44.08 40.73 44.08s40.12-19.81 40.74-44.5a7.65 7.65 0 003.25.74c6.08 0 11-7.45 11-16.64-.05-7.63-3.48-14.02-8.1-16.02z" fill="none" stroke="#231f20" stroke-linecap="round" stroke-linejoin="round" stroke-width="6"/></g></svg>