<svg id="player" xmlns="http://www.w3.org/2000/svg" viewBox="0 0 800 800"><defs><pattern id="New_Pattern_Swatch_5" data-name="New Pattern Swatch 5" width="33" height="33" patternTransform="translate(2.42 24.25)" patternUnits="userSpaceOnUse"><path class="cls-1" d="M0 0h33v33H0z"/><path class="cls-2" d="M0 0h16.5v16.5H0z"/><path class="cls-3" d="M16.5 0H33v16.5H16.5zM0 16.5h16.5V33H0z"/><path class="cls-2" d="M16.5 16.5H33V33H16.5z"/></pattern><pattern id="New_Pattern_Swatch_5-3" data-name="New Pattern Swatch 5" width="33" height="33" patternTransform="matrix(.63 0 0 .77 5.08 45.57)" patternUnits="userSpaceOnUse"><path class="cls-1" d="M0 0h33v33H0z"/><path class="cls-2" d="M0 0h16.5v16.5H0z"/><path class="cls-3" d="M16.5 0H33v16.5H16.5zM0 16.5h16.5V33H0z"/><path class="cls-2" d="M16.5 16.5H33V33H16.5z"/></pattern><pattern id="New_Pattern_Swatch_5-5" data-name="New Pattern Swatch 5" width="33" height="33" patternTransform="matrix(-.63 0 0 .77 30.49 45.57)" patternUnits="userSpaceOnUse"><path class="cls-1" d="M0 0h33v33H0z"/><path class="cls-2" d="M0 0h16.5v16.5H0z"/><path class="cls-3" d="M16.5 0H33v16.5H16.5zM0 16.5h16.5V33H0z"/><path class="cls-2" d="M16.5 16.5H33V33H16.5z"/></pattern><style>.cls-1{fill:none}.cls-2{fill:#314a9f}.cls-3{fill:#3451a0}.cls-4{fill:#ecc19c}.cls-5{fill:#414042}.cls-6{fill:#e8e62a}.cls-7{fill:#fff}.cls-9{fill:#3eb549}.cls-10{fill:#e01f26}.cls-11{fill:#fed519}.cls-15{fill:#231f20}.cls-18{fill:#3a2924}</style></defs><g id="skin"><path id="arm-left" class="cls-4" d="M305.93 385h36.78v72.4a18.39 18.39 0 01-18.39 18.39 18.39 18.39 0 01-18.39-18.39V385z"/><path id="arm-right" class="cls-4" d="M457.19 385H494v72.4a18.39 18.39 0 01-18.39 18.39 18.39 18.39 0 01-18.39-18.39V385h-.03z"/><path id="leg-left" class="cls-4" d="M349.88 495.02h45.67v45.67h-45.67z"/><path id="leg-right" class="cls-4" d="M404.78 495.02h45.67v45.67h-45.67z"/></g><g id="boots"><path id="left" class="cls-5" d="M395.33 573.04H372.5l-22.83 1.97h-12.5l-7.5 2.53-5.25 8.5v9.83l1.91 4.17 3.84 4.05 6.33 1.95h58.83v-33z"/><path id="right" class="cls-5" d="M404.61 573.27h22.83l22.83 1.97h12.5l7.5 2.53 5.25 8.5v9.83l-1.91 4.17-3.84 4.05-6.33 1.95h-58.83v-33z"/><g id="details"><path id="left-2" data-name="left" class="cls-6" d="M345.54 579.92l-.11-.19a3 3 0 012.71-4.53h.06a3 3 0 012.24 1.06c2.78 3.25 13.57 10.19 41.81 10.6 1.62 0 3 4.31 3 5.93v1.08h-1.26l-.22 3.8c-40.75-1.38-50.28 3-52.5 6.2a3.07 3.07 0 01-2.73 1.35h-.32a3.07 3.07 0 01-2.15-5 19.59 19.59 0 015.15-4.07 11.76 11.76 0 004.32-16.23z"/><path id="right-2" data-name="right" class="cls-6" d="M454.36 580l.11-.19a3.07 3.07 0 00-2.74-4.6 3 3 0 00-2.23 1.06c-2.78 3.25-13.57 10.19-41.81 10.6-1.62 0-3 4.31-3 5.93v1.08h1.26l.22 3.8c40.75-1.38 50.28 3 52.5 6.2a3.07 3.07 0 002.73 1.35h.32a3.07 3.07 0 002.15-5 19.68 19.68 0 00-5.21-4.11 11.66 11.66 0 01-4.3-16.12z"/></g></g><g id="socks"><g id="socks-2" data-name="socks"><path id="left-3" data-name="left" class="cls-2" d="M349.88 525h45.67v48.04h-45.67z"/><path id="right-3" data-name="right" class="cls-2" d="M404.38 525h45.67v48.04h-45.67z"/></g></g><g id="shorts"><path id="shorts-2" data-name="shorts" class="cls-7" d="M341.67 445.54h116.49v47a9.95 9.95 0 01-9.95 9.95h-96.6a9.95 9.95 0 01-9.95-9.95v-47z"/></g><g id="shirt"><path id="shirt-2" data-name="shirt" fill="url(#New_Pattern_Swatch_5)" d="M369.5 317.8l-48.29 2.99-11.36 6.25-6.83 10.1-3.31 40.73 5.17 7.67 7.66 4.67h29.5l.17 54h114.83v-53.5l29.34-.17 7.01-4 6.99-10.5-3.4-37.33-6.83-11.84-9.77-6.08-49.84-2.99-1 21.24-6.5 6.5-11.16 3.48-11.88 2.02-15.46-3.17-11-5.66-3.66-3.84-.38-20.57z"/><g id="details-2" data-name="details"><g id="arm-l"><circle class="cls-9" cx="303.51" cy="378.03" r="2.24"/><circle class="cls-9" cx="333.18" cy="387.26" r="2.24"/><circle class="cls-7" cx="308.03" cy="384.46" r="2.24"/><circle class="cls-7" cx="324.45" cy="387.26" r="2.24"/><circle class="cls-10" cx="316.01" cy="387.26" r="2.24"/></g><g id="arm-r"><circle class="cls-9" cx="496.49" cy="378.03" r="2.24"/><circle class="cls-9" cx="466.82" cy="387.26" r="2.24"/><circle class="cls-7" cx="491.97" cy="384.46" r="2.24"/><circle class="cls-7" cx="475.55" cy="387.26" r="2.24"/><circle class="cls-10" cx="483.99" cy="387.26" r="2.24"/></g><path class="cls-7" d="M394.18 413.88a2.18 2.18 0 01-2.15-2.15v-12.9l-2.3 2.37a1.67 1.67 0 01-1.2.49 1.8 1.8 0 01-1.26-3.1l4.73-4.79a2.62 2.62 0 011.84-.74 2.53 2.53 0 012.55 2.49v16.19a2.19 2.19 0 01-2.21 2.14zm13.76.19c-5.87 0-8.48-5.32-8.48-10.6s2.61-10.57 8.48-10.57 8.48 5.28 8.48 10.57-2.64 10.6-8.48 10.6zm0-17.3c-3 0-4.06 2.92-4.06 6.7s1.11 6.73 4.06 6.73 4-2.95 4-6.73-1.08-6.7-4-6.7z" id="number-10"/><g id="italy-crest-1994"><path class="cls-7" d="M437.15 384.22h-6.62a1.53 1.53 0 01-1.46-2l2.24-6.78a1.53 1.53 0 011.46-1.05h6.62a1.53 1.53 0 011.46 2l-2.24 6.78a1.53 1.53 0 01-1.46 1.05z"/><path class="cls-11" d="M439.39 374.37a1.53 1.53 0 011.46 2l-2.24 6.78a1.53 1.53 0 01-1.46 1.05h-6.62a1.53 1.53 0 01-1.46-2l2.24-6.78a1.53 1.53 0 011.46-1.05h6.62m0-.81h-6.62a2.34 2.34 0 00-2.23 1.61L428.3 382a2.34 2.34 0 002.23 3.08h6.62a2.34 2.34 0 002.23-1.61l2.24-6.78a2.34 2.34 0 00-2.23-3.08z"/><circle class="cls-2" cx="432.37" cy="370.56" r="3.38"/><path class="cls-11" d="M432.37 367.19a3.38 3.38 0 11-3.38 3.38 3.38 3.38 0 013.38-3.38m0-.81a4.19 4.19 0 104.19 4.19 4.19 4.19 0 00-4.19-4.19z"/><path d="M429.49 380.93l-.42 1.27a1.53 1.53 0 001.46 2h1.15l1.09-3.28z" fill="#009d5c"/><path class="cls-10" d="M436.06 380.93l-1.06 3.29h2.18a1.53 1.53 0 001.46-1.05l.74-2.23z"/><path class="cls-7" d="M432.77 380.93l-1.09 3.29h3.29l1.09-3.29h-3.29z"/><path class="cls-3" d="M440.84 376.38a1.53 1.53 0 00-1.46-2h-6.62a1.53 1.53 0 00-1.46 1.05l-.74 2.23h9.85z"/><path class="cls-2" d="M437.53 379.73h-5c-.52 0-.89-.39-.72-.76a.77.77 0 01.72-.4h5c.52 0 .89.39.72.76a.77.77 0 01-.72.4z"/><rect class="cls-11" x="432.63" y="375.45" width="1.16" height="1.16" rx=".48" ry=".48"/><rect class="cls-11" x="435.36" y="375.45" width="1.16" height="1.16" rx=".48" ry=".48"/><rect class="cls-11" x="438.08" y="375.45" width="1.16" height="1.16" rx=".48" ry=".48"/></g></g></g><path id="neck" fill="#dfb28b" d="M427.63 343.26l-27.59 8.62-28.6-9.62-1.92-23.62h61.04l-2.93 24.62z"/><path d="M502.88 371.43l-2.47-30.36c-1.19-11.87-11.83-22.25-23.72-23.14l-37.14-2.71c-4.07-.45-20.52-.09-39.55.53-19-.62-35.48-1-39.55-.53l-37.14 2.71c-11.89.89-22.53 11.27-23.72 23.14l-2.47 30.36a20.15 20.15 0 005 15.74 19.92 19.92 0 001.69 1.64v66.36c0 12.81 9.32 23.22 20.78 23.22a19.8 19.8 0 0015.25-7.39v21.79a12.23 12.23 0 007.74 11.36v68h-5.93c-10.93 0-19.83 5.8-19.83 17.11 0 8.06 0 17 11.72 19.7v1.6a1.38 1.38 0 001.38 1.38h1.63a1.38 1.38 0 001.38-1.37v-.95c1.16.09 2.39.15 3.73.15h1.89v.8a1.38 1.38 0 001.38 1.38h1.63a1.38 1.38 0 001.38-1.37v-.8h5.62v.8a1.38 1.38 0 001.38 1.38h1.63a1.38 1.38 0 001.38-1.37v-.8h5.62v.8a1.38 1.38 0 001.38 1.38h1.63a1.38 1.38 0 001.38-1.37v-.8h5.62v.8a1.38 1.38 0 001.38 1.38h1.63a1.38 1.38 0 001.38-1.37v-.8h5.62v.8a1.38 1.38 0 001.38 1.38h1.63a1.38 1.38 0 001.38-1.37v-.8h5.62v.8a1.38 1.38 0 001.38 1.38h1.63a1.38 1.38 0 001.38-1.37v-.81l.06-55.45V505h4v49.21l.06 54.67v1.6a1.38 1.38 0 001.38 1.38h1.63a1.38 1.38 0 001.38-1.37v-.8h5.62v.8a1.38 1.38 0 001.38 1.38h1.63a1.38 1.38 0 001.38-1.37v-.8h5.62v.8a1.38 1.38 0 001.38 1.38h1.63a1.38 1.38 0 001.38-1.37v-.8h5.62v.8a1.38 1.38 0 001.38 1.38h1.63a1.38 1.38 0 001.38-1.37v-.8h5.62v.8a1.38 1.38 0 001.38 1.38h1.63a1.38 1.38 0 001.38-1.37v-.8h5.62v.8a1.38 1.38 0 001.38 1.38h1.63a1.38 1.38 0 001.38-1.37v-.8h1.89c1.33 0 2.57-.05 3.72-.15v.95a1.38 1.38 0 001.38 1.38h1.63a1.38 1.38 0 001.38-1.37v-1.6c11.71-2.68 11.72-11.64 11.72-19.7 0-11.3-8.89-17.11-19.83-17.11h-5.93v-68a12.23 12.23 0 007.74-11.36V471a19.8 19.8 0 0015.21 7.42c11.46 0 20.78-10.42 20.78-23.22v-66.39a19.92 19.92 0 001.69-1.64 20.15 20.15 0 004.95-15.74zm-130.49-46.18c3.46 1.84 15.64 2.07 27.61 1.79 12 .28 24.15 0 27.61-1.79V337c0 4.8-22.42 12-27.23 12l-.38-.08-.38.08c-4.8 0-27.23-7.19-27.23-12zm-33 75.43v55c0 9.5-6.63 17.22-14.78 17.22s-14.78-7.73-14.78-17.22V392.9a21.08 21.08 0 007.47 1.36h22.09zm52.9 203.42h-50.64c-14.22 0-14.22-5-14.22-14.89 0-8.21 6.38-11.5 14.22-11.5h11.67l38.93-2.71.06 15.37zm-38.74-76.4h38.67v41.7l-38.67 2.68h-.26V527.7zm-.26-5.74V505h38.94v17h-38.91zm104.77 55.75h.26c7.84 0 14.22 3.29 14.22 11.5 0 9.91 0 14.89-14.22 14.89h-50.64v-13.7l.06-15.37 38.93 2.69h11.42zm-11.67-50h.26v44.4h-.26l-38.67-2.68V527.7zM407.75 522v-17h38.95v17h-38.95zm46.84-73.77h-.07v44.58a6.6 6.6 0 01-6.58 6.58H403s-.11-3.73-.16-8.75v-2.79c0-3.51-1.41-5.09-2.82-5-1.41-.09-2.82 1.49-2.82 5v2.79c0 5-.16 8.75-.16 8.75H352.1a6.6 6.6 0 01-6.58-6.58v-44.63h-.07v-.33l30.24.33h48.69l30.24-.33zm35.57 7.51c0 9.5-6.63 17.22-14.78 17.22s-14.78-7.73-14.78-17.22v-61.48h22.09a21.08 21.08 0 007.47-1.36zm6-77.21a13.53 13.53 0 01-6 7.29 14.69 14.69 0 01-7.47 2l-22.09.09v-20.19c0-5.56-6.07-5.94-6.07 0s.07 14.37.07 14.37v59.59H345.41v-59.61s.07-8.46.07-14.37-6.07-5.54-6.07 0v20.11l-22.09-.09a14.69 14.69 0 01-7.47-2 13.53 13.53 0 01-6-7.29 14.89 14.89 0 01-.75-6.46l2.47-30.36c.89-9 9.23-17.08 18.2-17.75l11.12-.83 32.22-2.29c.68.54.48 17.49.48 17.49 0 8.43 23.34 15.29 31.77 15.29h1.3c8.43 0 31.77-6.86 31.77-15.29 0 0-.2-16.95.48-17.49l32.22 2.29 11.12.83c9 .67 17.3 8.8 18.2 17.75L496.9 372a14.89 14.89 0 01-.75 6.48z" id="border"/><g id="shirt-collars"><path d="M380 343.47l-8.52 8.72s-13.48-4.45-12.37-19.86.31-12.55.31-12.55l8 .36z" fill="url(#New_Pattern_Swatch_5-3)"/><circle class="cls-9" cx="362.23" cy="331.6" r="2.17"/><circle class="cls-7" cx="363.02" cy="339.48" r="2.17"/><circle class="cls-10" cx="367.36" cy="346.05" r="2.17"/><path class="cls-15" d="M371.48 354.49a2.3 2.3 0 01-.72-.12c-.15 0-15.17-5.21-13.95-22.22.52-7.2.6-10.12.58-11.29a2.31 2.31 0 01-.19-1.72 2.41 2.41 0 012.74-1.86 2.64 2.64 0 01.73.23l6.88.31a2.31 2.31 0 011.93 1.21L382 342.37a2.31 2.31 0 01-.38 2.71l-8.52 8.72a2.31 2.31 0 01-1.62.69zM362 322.2c-.05 2.19-.25 5.65-.58 10.29-.41 5.66 1.29 10.33 5 13.86a18.58 18.58 0 004.47 3.09l6.23-6.38L366 322.38z"/><path d="M420 343.47l8.52 8.72s13.48-4.45 12.37-19.86-.31-12.55-.31-12.55l-8 .36z" fill="url(#New_Pattern_Swatch_5-5)"/><circle class="cls-9" cx="437.82" cy="331.6" r="2.17"/><circle class="cls-7" cx="437.02" cy="339.48" r="2.17"/><circle class="cls-10" cx="432.68" cy="346.05" r="2.17"/><path class="cls-15" d="M426.91 353.8l-8.52-8.72a2.31 2.31 0 01-.38-2.71L430.57 319a2.31 2.31 0 011.93-1.21l6.88-.31a2.64 2.64 0 01.73-.23 2.41 2.41 0 012.74 1.86 2.31 2.31 0 01-.19 1.72c0 1.16.07 4.08.58 11.29 1.23 17-13.8 22.17-13.95 22.22a2.31 2.31 0 01-2.37-.58zm7.1-31.41l-11.14 20.68 6.23 6.38a18.58 18.58 0 004.47-3.09c3.76-3.53 5.46-8.2 5-13.86-.33-4.64-.53-8.1-.58-10.29z"/></g><g id="head"><path d="M432.59 295.91s18.12 6 16.74 18.33c0 0 3.46 11.91-1.38 17 0 0-13.44 3.46-16.4-11.59-.01.01-8.27-15.24 1.04-23.74z" stroke="#231f20" stroke-linecap="round" stroke-linejoin="round" stroke-width="6" fill="#3a2924"/><path class="cls-18" d="M450.71 258.16a3 3 0 01-1.37-.33l-4.34-2.25a3 3 0 01-1.62-2.43l-.64-7.95-4.23-14.69-11.78-9.13L400 208.26l-26.6 13.13-11.78 9.13-4.23 14.69-.64 8a3 3 0 01-1.62 2.43l-4.37 2.25a3 3 0 01-4.17-1.58c-.59-1.53-3.24-8.89-1.25-13.63-.22-2.37-.33-8.21 3.1-12.77-.2-2.69.29-8.06 6-13.49.44-2.17 2-6.18 7.66-9.67A20.89 20.89 0 01372 198c1.44-1.83 5.06-4.54 14.06-5.52a57.81 57.81 0 0111.21-1.66 11.82 11.82 0 012.8.28 11.77 11.77 0 012.79-.28 57 57 0 0111.14 1.63c9 1 12.62 3.69 14.06 5.52a20.9 20.9 0 019.92 8.71c5.64 3.5 7.23 7.5 7.66 9.67 5.7 5.43 6.19 10.8 6 13.49 3.43 4.56 3.31 10.4 3.09 12.77 2 4.74-.66 12.1-1.25 13.63a3 3 0 01-2.8 1.92z"/><path class="cls-15" d="M402.88 193.79a56 56 0 0110.62 1.62c11.17 1.17 12.58 5 12.58 5a17.59 17.59 0 019.67 8.42c7.2 4.13 7.08 9 7.08 9 7.55 6.6 5.67 12.92 5.67 12.92 4.5 4.75 3.17 12.42 3.17 12.42 2.32 3.55-1 12-1 12l-4.37-2.25-.67-8.25-4.58-15.92-12.79-9.92L400 204.91l-28.2 13.92-12.8 9.92-4.58 15.92-.67 8.25-4.37 2.25s-3.27-8.45-1-12c0 0-1.33-7.67 3.17-12.42 0 0-1.89-6.32 5.67-12.92 0 0-.11-4.87 7.08-9a17.59 17.59 0 019.67-8.42s1.42-3.83 12.58-5a56.88 56.88 0 0110.7-1.62 6.44 6.44 0 012.8.46 6.41 6.41 0 012.79-.46m0-6a16 16 0 00-2.79.22 16.11 16.11 0 00-2.8-.22 59.1 59.1 0 00-11.73 1.7c-8.83 1-13.2 3.68-15.35 6a23.77 23.77 0 00-10.33 9.06 20 20 0 00-7.13 7.65 14.84 14.84 0 00-1 2.63c-5.34 5.4-6.36 10.76-6.33 14.15-3.12 4.78-3.29 10.29-3.09 13.23-1.82 5.37.35 12.18 1.5 15.14a6 6 0 008.34 3.17l4.38-2.25a6 6 0 003.24-4.85l.62-7.65 3.87-13.46 10.76-8.36 25-12.34 25 12.34 10.77 8.35 3.88 13.46.62 7.65a6 6 0 003.24 4.85l4.49 2.24a6 6 0 008.34-3.17c1.15-3 3.32-9.77 1.5-15.14.19-2.94 0-8.45-3.09-13.23 0-3.4-1-8.77-6.36-14.19-.79-2.74-2.83-6.75-8.12-10.24a23.77 23.77 0 00-10.34-9.06c-2.15-2.31-6.52-5-15.35-6a58.29 58.29 0 00-11.67-1.7z"/><path id="skin-2" data-name="skin" class="cls-4" d="M446.38 256.1c0-.91.08-1.81.08-2.73 0-30.51-21.06-55.25-47-55.25s-47 24.74-47 55.25c0 1.11 0 2.21.1 3.31-4 2.46-6.9 8.44-6.9 15.43 0 9.19 4.93 16.64 11 16.64a7.47 7.47 0 002.1-.31c.82 24.5 18.74 44.08 40.73 44.08s40.12-19.81 40.74-44.5a7.65 7.65 0 003.25.74c6.08 0 11-7.45 11-16.64-.05-7.65-3.48-14.06-8.1-16.02z"/><path d="M420.86 310.32c1.57-12.43-20.81-15.58-20.81-15.58s-22.49 3.15-20.92 15.58c0 0-1.39 16.4 13.84 20.92h14c16.38-5.97 13.89-20.92 13.89-20.92zM400 319c-4.88-.58-14.31 1.68-14.63-7.92s14.63-9.72 14.63-9.72c10.38.47 12.75 2.67 12.75 10.42s-7.82 7.83-12.75 7.22z" opacity=".1" fill="#3a2924"/><path id="border-2" data-name="border" d="M446.38 256.1c0-.91.08-1.81.08-2.73 0-30.51-21.06-55.25-47-55.25s-47 24.74-47 55.25c0 1.11 0 2.21.1 3.31-4 2.46-6.9 8.44-6.9 15.43 0 9.19 4.93 16.64 11 16.64a7.47 7.47 0 002.1-.31c.82 24.5 18.74 44.08 40.73 44.08s40.12-19.81 40.74-44.5a7.65 7.65 0 003.25.74c6.08 0 11-7.45 11-16.64-.05-7.65-3.48-14.06-8.1-16.02z" stroke="#231f20" stroke-linecap="round" stroke-linejoin="round" stroke-width="6" fill="none"/><path class="cls-18" d="M450.41 246.54a64.78 64.78 0 00-7.92-25.37s-5.62-9.37-11.62-14.33c-7-6.83-10.87-7.46-14.92-9-5.42-3.29-15.87-2.67-15.87-2.67s-10.54-.62-16 2.67c-4 1.58-7.87 2.21-14.92 9-6 5-11.62 14.33-11.62 14.33a64.78 64.78 0 00-7.92 25.38 54.11 54.11 0 00-.29 8.63l5.71 2.08S365.75 228 366.42 226c0 0 21.74-2.52 33.62-2.52s33.62 2.52 33.62 2.52c.67 2 11.34 31.25 11.34 31.25l5.71-2.08a54.11 54.11 0 00-.3-8.63z"/><path class="cls-18" d="M451.66 243.16s1.33-7.67-3.17-12.42c0 0 1.89-6.32-5.67-12.92 0 0 .11-4.87-7.08-9a17.59 17.59 0 00-9.67-8.42s-1.42-3.83-12.58-5c0 0-10.58-2.67-13.41-1.17-2.83-1.5-13.5 1.17-13.5 1.17-11.17 1.17-12.58 5-12.58 5a17.59 17.59 0 00-9.67 8.42c-7.2 4.13-7.08 9-7.08 9-7.55 6.6-5.67 12.92-5.67 12.92-4.5 4.75-3.17 12.42-3.17 12.42-2.32 3.55 1 12 1 12l4.38-2.25.67-8.25 4.54-15.91 12.79-9.92L400 204.91l28.24 13.92 12.79 9.92 4.58 15.92.67 8.25 4.38 2.25s3.34-8.45 1-12.01z"/><path class="cls-18" d="M363.34 223.58s2.42 4.92 9.5 3.58 8.9-1.76 9.33-2.25a22.55 22.55 0 0011.33-.44s13.75 3.42 17.5 1c0 0 12.84 3.61 16.25 1.91 0 0 5.34.82 6.41-1.37s-5.33-4.86-5.33-4.86l-13-3.25-26.67-3.67-18.74 1.77z"/></g></svg>