<svg id="player" xmlns="http://www.w3.org/2000/svg" viewBox="0 0 800 800"><defs><style>.cls-1{fill:#bc876d}.cls-2{fill:#f0552f}.cls-4{fill:#ed1e24}.cls-5{fill:#fff}.cls-6{fill:#231f20}.cls-10{fill:#ad7b6a}</style></defs><g id="skin"><path id="arm-left" class="cls-1" d="M306.43 383h36.78v72.38a18.39 18.39 0 01-18.39 18.39 18.39 18.39 0 01-18.39-18.39V383z"/><path id="arm-right" class="cls-1" d="M457.69 383h36.78v72.38a18.39 18.39 0 01-18.39 18.39 18.39 18.39 0 01-18.39-18.39V383z"/><path id="leg-left" class="cls-1" d="M350.38 492.97h45.67v45.67h-45.67z"/><path id="leg-right" class="cls-1" d="M405.28 492.97h45.67v45.67h-45.67z"/></g><g id="boots"><path id="left" class="cls-2" d="M395.83 570.99H373l-22.83 1.98h-12.5l-7.5 2.52-5.25 8.5v9.83l1.91 4.17 3.84 4.06 6.33 1.94h58.83v-33z"/><path id="right" class="cls-2" d="M405.11 571.22h22.83l22.83 1.97h12.5l7.5 2.53 5.25 8.5v9.83l-1.91 4.17-3.84 4.05-6.33 1.95h-58.83v-33z"/><path d="M395.3 577.18s-45.14-1.2-45.14 27h22.57s2.64-15.47 23.1-15.47zm10.34 0s45.13-1.2 45.13 27h-22.56s-2.64-15.47-23.1-15.47z" fill="#d23227"/></g><g id="socks"><g id="socks-2" data-name="socks"><path id="left-2" data-name="left" class="cls-4" d="M350.38 522.95h45.67v48.04h-45.67z"/><path id="right-2" data-name="right" class="cls-4" d="M404.88 522.95h45.67v48.04h-45.67z"/></g></g><g id="shorts"><path id="shorts-2" data-name="shorts" class="cls-4" d="M342.17 443.49h116.49v47a9.95 9.95 0 01-9.95 9.95h-96.6a9.95 9.95 0 01-9.95-9.95v-47h.01z"/></g><g id="shirt"><path id="shirt-2" data-name="shirt" class="cls-4" d="M370 315.75l-48.29 2.99-11.36 6.25-6.83 10.1-3.31 40.73 5.17 7.67 7.66 4.67h29.5l.17 54h114.83v-53.5l29.34-.17 7.01-4 6.99-10.5-3.4-37.33-6.83-11.84-9.77-6.08-49.84-2.99-1 21.24-6.5 6.5-11.16 3.48-11.88 2.02-15.46-3.17-11-5.66-3.66-3.84-.38-20.57z"/><path class="cls-5" d="M343.07 379.18s-32.69-1.84-39.55 1.55l4.54 5.55 17.07 3h18.08zM430 315.75v17.46l-4 7-6.57 4.38-10 4.27-9.36 1-9.36-1-10-4.27-6.71-4.43-4-7V315.7l-5.82 1.89v22.18a3 3 0 001.11 2.37c4.15 3.42 19.26 14.94 34.71 14.94s30.56-11.52 34.71-14.94a3 3 0 001.11-2.37v-22.13zm26.93 63.43s32.69-1.84 39.55 1.55l-4.54 5.55-17.07 3h-18.08z"/><rect class="cls-5" x="343.07" y="404.33" width="10.61" height="2.94" rx="1.39" ry="1.39"/><rect class="cls-5" x="343.07" y="388.58" width="10.61" height="2.94" rx="1.39" ry="1.39"/><rect class="cls-5" x="343.07" y="392.52" width="10.61" height="2.94" rx="1.39" ry="1.39"/><rect class="cls-5" x="343.07" y="400.4" width="10.61" height="2.94" rx="1.39" ry="1.39"/><rect class="cls-5" x="343.07" y="416.14" width="10.61" height="2.94" rx="1.39" ry="1.39"/><rect class="cls-5" x="343.07" y="408.27" width="10.61" height="2.94" rx="1.39" ry="1.39"/><rect class="cls-5" x="343.07" y="412.21" width="10.61" height="2.94" rx="1.39" ry="1.39"/><rect class="cls-5" x="343.07" y="372.84" width="10.61" height="2.94" rx="1.39" ry="1.39"/><rect class="cls-5" x="343.07" y="384.65" width="10.61" height="2.94" rx="1.39" ry="1.39"/><rect class="cls-5" x="343.07" y="368.9" width="10.61" height="2.94" rx="1.39" ry="1.39"/><rect class="cls-5" x="343.07" y="361.03" width="10.61" height="2.94" rx="1.39" ry="1.39"/><rect class="cls-5" x="343.07" y="364.96" width="10.61" height="2.94" rx="1.39" ry="1.39"/><rect class="cls-5" x="343.07" y="380.71" width="10.61" height="2.94" rx="1.39" ry="1.39"/><rect class="cls-5" x="343.07" y="420.08" width="10.61" height="2.94" rx="1.39" ry="1.39"/><rect class="cls-5" x="343.07" y="376.77" width="10.61" height="2.94" rx="1.39" ry="1.39"/><rect class="cls-5" x="343.07" y="396.46" width="10.61" height="2.94" rx="1.39" ry="1.39"/><rect class="cls-5" x="343.07" y="424.02" width="10.61" height="2.94" rx="1.39" ry="1.39"/><rect class="cls-5" x="343.07" y="435.83" width="10.61" height="2.78" rx="1.39" ry="1.39"/><rect class="cls-5" x="343.07" y="431.89" width="10.61" height="2.94" rx="1.39" ry="1.39"/><rect class="cls-5" x="343.07" y="427.95" width="10.61" height="2.94" rx="1.39" ry="1.39"/><rect class="cls-5" x="447.47" y="404.33" width="10.61" height="2.94" rx="1.39" ry="1.39"/><rect class="cls-5" x="447.47" y="388.58" width="10.61" height="2.94" rx="1.39" ry="1.39"/><rect class="cls-5" x="447.47" y="392.52" width="10.61" height="2.94" rx="1.39" ry="1.39"/><rect class="cls-5" x="447.47" y="400.4" width="10.61" height="2.94" rx="1.39" ry="1.39"/><rect class="cls-5" x="447.47" y="416.14" width="10.61" height="2.94" rx="1.39" ry="1.39"/><rect class="cls-5" x="447.47" y="408.27" width="10.61" height="2.94" rx="1.39" ry="1.39"/><rect class="cls-5" x="447.47" y="412.21" width="10.61" height="2.94" rx="1.39" ry="1.39"/><rect class="cls-5" x="447.47" y="372.84" width="10.61" height="2.94" rx="1.39" ry="1.39"/><rect class="cls-5" x="447.47" y="384.65" width="10.61" height="2.94" rx="1.39" ry="1.39"/><rect class="cls-5" x="447.47" y="368.9" width="10.61" height="2.94" rx="1.39" ry="1.39"/><rect class="cls-5" x="447.47" y="361.03" width="10.61" height="2.94" rx="1.39" ry="1.39"/><rect class="cls-5" x="447.47" y="364.96" width="10.61" height="2.94" rx="1.39" ry="1.39"/><rect class="cls-5" x="447.47" y="380.71" width="10.61" height="2.94" rx="1.39" ry="1.39"/><rect class="cls-5" x="447.47" y="420.08" width="10.61" height="2.94" rx="1.39" ry="1.39"/><rect class="cls-5" x="447.47" y="376.77" width="10.61" height="2.94" rx="1.39" ry="1.39"/><rect class="cls-5" x="447.47" y="396.46" width="10.61" height="2.94" rx="1.39" ry="1.39"/><rect class="cls-5" x="447.47" y="424.02" width="10.61" height="2.94" rx="1.39" ry="1.39"/><rect class="cls-5" x="447.47" y="435.83" width="10.61" height="2.78" rx="1.39" ry="1.39"/><rect class="cls-5" x="447.47" y="431.89" width="10.61" height="2.94" rx="1.39" ry="1.39"/><rect class="cls-5" x="447.47" y="427.95" width="10.61" height="2.94" rx="1.39" ry="1.39"/><circle class="cls-5" cx="427.35" cy="370.93" r="9.23"/><path class="cls-4" d="M427.35 380.88a9.95 9.95 0 119.94-9.95 10 10 0 01-9.94 9.95zm0-18.47a8.53 8.53 0 108.52 8.52 8.53 8.53 0 00-8.52-8.52z"/><path class="cls-5" d="M428.41 370.17c2.33-1.51 6.56-4.41 8.17-6.39a1.14 1.14 0 011.63-.12 1.3 1.3 0 01.09 2c-2 1.71-6.36 5.16-9.38 5.77a.7.7 0 01-.51-1.26z"/><path class="cls-6" d="M429 371.65a.91.91 0 01-1-.58.88.88 0 01.3-1.11c2.35-1.53 6.54-4.39 8.12-6.34a1.37 1.37 0 012-.15 1.61 1.61 0 01.6 1.18 1.41 1.41 0 01-.48 1.16 37.66 37.66 0 01-6.78 4.79 10.56 10.56 0 01-2.76 1.05zm7.76-7.7c-1.62 2-5.84 4.88-8.22 6.43a.4.4 0 00-.14.52.43.43 0 00.48.27 9.75 9.75 0 002.53-1 40.52 40.52 0 006.76-4.77 1 1 0 00.33-.78 1.14 1.14 0 00-.41-.8 1 1 0 00-1-.13.86.86 0 00-.33.31z"/><path class="cls-5" d="M428.9 371.16c2.17-1.29 6.14-3.79 7.65-5.59a1 1 0 011.51 0 1.32 1.32 0 01.08 1.93c-1.89 1.52-6 4.55-8.77 4.9-.63.1-1.03-.91-.47-1.24z"/><path class="cls-6" d="M429.43 372.66a.93.93 0 01-1-.65.84.84 0 01.3-1.06c2.2-1.31 6.11-3.78 7.6-5.55a1.12 1.12 0 01.85-.41 1.39 1.39 0 011 .41 1.71 1.71 0 01.54 1.25 1.34 1.34 0 01-.46 1.05 34.89 34.89 0 01-5.58 3.77 10.19 10.19 0 01-3.25 1.19zm7.3-6.92c-1.53 1.82-5.48 4.31-7.71 5.64a.38.38 0 00-.12.48.43.43 0 00.44.32c2.81-.35 7-3.51 8.67-4.86a.84.84 0 00.3-.68 1.2 1.2 0 00-.38-.87.94.94 0 00-.66-.27.65.65 0 00-.31.08.63.63 0 00-.23.16z"/><path class="cls-5" d="M429.39 372c2.06-.89 5.84-2.64 7.35-4.13a.89.89 0 011.36.27 1.36 1.36 0 01-.09 1.88c-1.83 1.16-5.74 3.4-8.31 3.27-.57.02-.84-1.02-.31-1.29z"/><path class="cls-6" d="M429.73 373.59a1 1 0 01-.83-.81.8.8 0 01.39-1c2.08-.9 5.8-2.63 7.28-4.09a.92.92 0 01.79-.27 1.38 1.38 0 01.92.57 1.86 1.86 0 01.37 1.37 1.15 1.15 0 01-.5.86c-1 .62-1.86 1.13-2.66 1.54-3.08 1.66-4.88 1.87-5.76 1.83zm7.17-5.5c-1.53 1.52-5.3 3.27-7.41 4.18-.16.06-.17.27-.14.43s.18.39.37.4c2.55.13 6.57-2.22 8.18-3.24a.75.75 0 00.31-.54 1.4 1.4 0 00-.27-1 .86.86 0 00-.58-.38.6.6 0 00-.3.05.71.71 0 00-.16.1z"/><path class="cls-5" d="M430.06 373.27c1.79-.49 5.08-1.5 6.46-2.68.34-.29.83-.08 1.11.5.33.7.22 1.59-.25 1.81-1.61.79-5.05 2.27-7.17 1.68-.47-.12-.6-1.18-.15-1.31z"/><path class="cls-6" d="M437.5 373.14c-1.81.89-5.18 2.29-7.32 1.69a1 1 0 01-.63-1c0-.43.15-.74.44-.82 1.8-.5 5-1.5 6.38-2.64a.72.72 0 01.67-.16 1.35 1.35 0 01.79.76 1.67 1.67 0 01-.32 2.12zm-.83-2.36c-1.41 1.2-4.7 2.22-6.53 2.73-.09 0-.14.16-.13.35s.13.47.26.5c2.07.58 5.6-1 7-1.66.32-.15.45-.87.15-1.49a.88.88 0 00-.47-.48.26.26 0 00-.21 0z"/><path class="cls-5" d="M426.28 370.17c-2.32-1.51-6.56-4.41-8.17-6.39a1.14 1.14 0 00-1.63-.12 1.3 1.3 0 00-.09 2c2 1.71 6.36 5.16 9.38 5.77a.69.69 0 00.51-1.26z"/><path class="cls-6" d="M423 370.62a37.32 37.32 0 01-6.77-4.79 1.42 1.42 0 01-.49-1.16 1.64 1.64 0 01.6-1.18 1.36 1.36 0 011.94.15c1.59 1.95 5.77 4.81 8.12 6.34a.88.88 0 01.3 1.11.91.91 0 01-1 .58 10.84 10.84 0 01-2.7-1.05zm-5.34-6.9a.94.94 0 00-1 .13 1.09 1.09 0 00-.4.8.94.94 0 00.32.78 41 41 0 006.76 4.77 9.88 9.88 0 002.53 1 .42.42 0 00.48-.27.4.4 0 00-.14-.52c-2.37-1.55-6.6-4.44-8.22-6.43a.86.86 0 00-.34-.26z"/><path class="cls-5" d="M425.79 371.16c-2.17-1.29-6.13-3.79-7.64-5.59a1 1 0 00-1.52 0 1.32 1.32 0 00-.07 1.93c1.89 1.52 5.95 4.55 8.77 4.9.67.1 1.02-.91.46-1.24z"/><path class="cls-6" d="M422 371.49a34.45 34.45 0 01-5.57-3.77 1.32 1.32 0 01-.47-1.05 1.75 1.75 0 01.54-1.25 1.41 1.41 0 011-.41 1.11 1.11 0 01.85.41c1.49 1.77 5.4 4.24 7.6 5.55a.84.84 0 01.3 1.06.92.92 0 01-1 .65 10.35 10.35 0 01-3.25-1.19zm-4.22-5.93a.65.65 0 00-.31-.08.9.9 0 00-.65.27 1.19 1.19 0 00-.37.87.83.83 0 00.29.68c1.67 1.35 5.86 4.51 8.67 4.86a.43.43 0 00.44-.32.38.38 0 00-.12-.48c-2.22-1.33-6.18-3.82-7.7-5.64a.66.66 0 00-.29-.16z"/><path class="cls-5" d="M425.31 372c-2.07-.89-5.84-2.64-7.35-4.13-.38-.37-1-.26-1.37.27a1.35 1.35 0 00.08 1.88c1.83 1.16 5.74 3.4 8.31 3.27.58.02.85-1.02.33-1.29z"/><path class="cls-6" d="M419.2 371.82c-.8-.41-1.69-.92-2.66-1.54a1.13 1.13 0 01-.51-.86 1.86 1.86 0 01.37-1.37 1.38 1.38 0 01.92-.57.92.92 0 01.79.27c1.48 1.46 5.2 3.19 7.29 4.09a.79.79 0 01.38 1 1 1 0 01-.83.81c-.86-.02-2.66-.23-5.75-1.83zm-1.54-3.82a.65.65 0 00-.31-.05.86.86 0 00-.58.38 1.31 1.31 0 00-.27 1 .71.71 0 00.3.54c1.61 1 5.63 3.37 8.18 3.24.19 0 .33-.22.37-.4s0-.37-.13-.43c-2.12-.91-5.89-2.66-7.42-4.18z"/><path class="cls-5" d="M424.63 373.27c-1.79-.49-5.07-1.5-6.46-2.68-.34-.29-.82-.08-1.1.5-.34.7-.22 1.59.24 1.81 1.62.79 5.06 2.27 7.17 1.68.52-.12.61-1.18.15-1.31z"/><path class="cls-6" d="M417.18 373.14a1.65 1.65 0 01-.33-2.12 1.35 1.35 0 01.79-.76.73.73 0 01.68.16c1.35 1.14 4.57 2.14 6.37 2.64.3.08.47.39.44.82a1 1 0 01-.63 1c-2.14.6-5.5-.8-7.32-1.69zm.77-2.4a.26.26 0 00-.21 0 .88.88 0 00-.47.48c-.3.62-.17 1.34.15 1.49 1.42.69 4.94 2.24 7 1.66.13 0 .24-.26.26-.5s0-.33-.12-.35c-1.84-.51-5.13-1.53-6.54-2.73z"/><path class="cls-5" d="M430.2 368.2s.61-8.15-2.38-8.67-3.92 2.6-3.63 3a4.36 4.36 0 002.25 1.31c.7 0-2.56 5.22-2.56 5.22z"/><path class="cls-6" d="M423.27 369.45l.35-.56a30.7 30.7 0 002.59-4.77 5 5 0 01-2.27-1.41c-.27-.37 0-1.31.42-2a3.29 3.29 0 013.51-1.52c1.39.25 2.26 1.86 2.57 4.81a27.36 27.36 0 01.07 4.19v.25zm1.18-7.08a4.28 4.28 0 002 1.16.37.37 0 01.34.21c.1.19.25.48-1.22 3.08-.4.7-.81 1.39-1.09 1.84l5.43-.73c.14-2.35 0-7.73-2.14-8.1a2.67 2.67 0 00-2.61.86 2.72 2.72 0 00-.71 1.68z"/><path class="cls-6" d="M425.23 362s-2.66-.25-2.66 2.3l3.87-.42s.29-1.88-1.21-1.88z"/><circle class="cls-4" cx="427.35" cy="374.02" r="6.43"/><rect class="cls-5" x="363.69" y="367.47" width="17.74" height="4.37" rx="2.18" ry="2.18"/><path class="cls-5" d="M392.37 394.64v-10.3l-1.77 1.84a1.44 1.44 0 01-2.47-1 1.52 1.52 0 01.41-1l3.88-3.87a2 2 0 013.46 1.42v12.95a1.76 1.76 0 01-3.51 0zm12.73-15.04c4.66 0 6.77 4.22 6.77 8.44s-2.11 8.46-6.77 8.46-6.77-4.24-6.77-8.46 2.09-8.44 6.77-8.44zm0 3.09c-2.35 0-3.23 2.33-3.23 5.35s.88 5.37 3.23 5.37 3.22-2.35 3.22-5.37-.89-5.35-3.22-5.35z"/><g id="asset-captain-band-two-colour"><g id="asset-captain-band-two-colour-2" data-name="asset-captain-band-two-colour"><path fill="#7cccbf" d="M457.93 364.3h42.82v10.26h-42.82z"/><path d="M462.64 354h38.11v10.3h-42.82v-5.55a4.71 4.71 0 014.71-4.75z" fill="#76c9b6"/></g></g></g><path id="neck" fill="#936857" d="M428.13 341.21l-27.59 8.62-28.6-9.62-1.92-23.62h61.04l-2.93 24.62z"/><path d="M503.38 369.38L500.91 339c-1.19-11.87-11.83-22.25-23.72-23.14l-37.14-2.7c-4.07-.45-20.52-.09-39.55.53-19-.62-35.48-1-39.55-.53l-37.14 2.7c-11.89.89-22.53 11.27-23.72 23.14l-2.47 30.36a20.14 20.14 0 005 15.74 18.65 18.65 0 001.69 1.64v66.36c0 12.81 9.32 23.23 20.78 23.23a19.8 19.8 0 0015.21-7.43v21.79a12.24 12.24 0 007.74 11.36v68h-5.93c-10.93 0-19.83 5.8-19.83 17.11 0 8.06 0 17 11.72 19.7v1.6a1.37 1.37 0 001.38 1.37h1.63a1.37 1.37 0 001.38-1.37v-1q1.72.15 3.72.15H344v.8a1.37 1.37 0 001.38 1.37h1.63a1.37 1.37 0 001.38-1.37v-.8H354v.8a1.37 1.37 0 001.38 1.37h1.63a1.37 1.37 0 001.38-1.37v-.8H364v.8a1.37 1.37 0 001.38 1.37h1.63a1.37 1.37 0 001.38-1.37v-.8H374v.8a1.37 1.37 0 001.38 1.37h1.63a1.37 1.37 0 001.38-1.37v-.8H384v.8a1.37 1.37 0 001.38 1.37h1.63a1.37 1.37 0 001.38-1.37v-.8H394v.8a1.37 1.37 0 001.38 1.37h1.63a1.37 1.37 0 001.38-1.37v-.81l.06-55.46V503h4v49.21l.06 54.67v1.6a1.37 1.37 0 001.38 1.37h1.63a1.37 1.37 0 001.38-1.37v-.8h5.61v.8a1.37 1.37 0 001.38 1.37h1.63a1.37 1.37 0 001.38-1.37v-.8h5.61v.8a1.37 1.37 0 001.38 1.37h1.63a1.37 1.37 0 001.38-1.37v-.8h5.61v.8a1.37 1.37 0 001.38 1.37h1.63a1.37 1.37 0 001.38-1.37v-.8h5.61v.8a1.37 1.37 0 001.38 1.37h1.63a1.37 1.37 0 001.38-1.37v-.8h5.61v.8a1.37 1.37 0 001.38 1.37h1.63a1.37 1.37 0 001.38-1.37v-.8h1.89c1.33 0 2.56 0 3.72-.15v1a1.37 1.37 0 001.38 1.37h1.63a1.37 1.37 0 001.38-1.37v-1.6c11.71-2.68 11.72-11.64 11.72-19.7 0-11.31-8.9-17.11-19.83-17.11h-5.93v-68a12.24 12.24 0 007.74-11.36v-21.84a19.8 19.8 0 0015.21 7.43c11.46 0 20.78-10.42 20.78-23.23v-66.36a18.65 18.65 0 001.69-1.64 20.14 20.14 0 005.1-15.74zM372.89 323.2c3.46 1.85 15.64 2.08 27.61 1.8 12 .28 24.15.05 27.61-1.8V335c0 4.81-22.42 12-27.23 12l-.38-.07-.38.07c-4.81 0-27.23-7.18-27.23-12zm-33 75.43v55c0 9.5-6.63 17.23-14.78 17.23s-14.78-7.73-14.78-17.23v-62.78a21.07 21.07 0 007.47 1.36h22.09zm52.91 203.42h-50.65c-14.21 0-14.21-5-14.21-14.89 0-8.22 6.37-11.5 14.21-11.5h11.67l38.93-2.7.07 15.37zm-38.74-76.4h38.67v41.7L354.08 570h-.26v-44.4zm-.26-5.74v-17h38.93v16.93h-38.91zm104.77 55.75h.26c7.84 0 14.21 3.28 14.21 11.5 0 9.91 0 14.89-14.21 14.89h-50.65v-13.7l.07-15.37 38.93 2.7h11.41zm-11.67-50h.26v44.4h-.26l-38.67-2.68v-41.7zm-38.67-5.74V503h38.93v17h-38.91zm46.84-73.78H455v44.58a6.6 6.6 0 01-6.58 6.58h-1.26l-43.68-.05s-.11-3.72-.16-8.75v-2.8c0-3.52-1.41-5.09-2.82-5-1.41-.08-2.82 1.49-2.82 5v2.79c-.05 5-.16 8.75-.16 8.75l-43.68.05h-1.26a6.6 6.6 0 01-6.58-6.58v-44.58h-.07v-.33l30.25.33h48.68l30.25-.33zm35.56 7.51c0 9.5-6.63 17.23-14.78 17.23s-14.78-7.73-14.78-17.23v-61.44h22.09a21.07 21.07 0 007.47-1.36zm6-77.21a13.55 13.55 0 01-2.76 4.66 13.85 13.85 0 01-3.24 2.63 14.72 14.72 0 01-7.47 2l-22.09.09v-20.15c0-5.56-6.08-5.93-6.08 0s.08 14.37.08 14.37v59.59H345.91V380s.08-8.45.08-14.37-6.08-5.54-6.08 0v20.11l-22.09-.09a14.72 14.72 0 01-7.47-2 13.85 13.85 0 01-3.24-2.63 13.55 13.55 0 01-2.76-4.66 14.79 14.79 0 01-.75-6.46l2.46-30.35c.9-8.95 9.23-17.08 18.2-17.75l11.12-.84 32.21-2.29c.68.55.49 17.49.49 17.49 0 8.43 23.34 15.29 31.77 15.29h1.3c8.43 0 31.77-6.86 31.77-15.29 0 0-.19-16.94.49-17.49l32.21 2.33 11.12.84c9 .67 17.3 8.8 18.2 17.75L497.4 370a14.79 14.79 0 01-.75 6.43z" id="border"/><g id="head"><path id="skin-2" data-name="skin" class="cls-1" d="M446.88 254.05c0-.91.08-1.81.08-2.73 0-30.51-21.06-55.25-47-55.25s-47 24.74-47 55.25c0 1.11 0 2.22.1 3.31-4.05 2.46-6.91 8.44-6.91 15.43 0 9.19 4.93 16.64 11 16.64a7.48 7.48 0 002.1-.32c.82 24.5 18.73 44.08 40.73 44.08S440 310.65 440.66 286a7.65 7.65 0 003.25.74c6.09 0 11-7.45 11-16.64.02-7.67-3.39-14.1-8.03-16.05z"/><path class="cls-10" d="M400 195.07s-50.59 2.78-44 58.41c0 0 11.26-12.63 11.17-21.93s.39-12.39 5.42-10.84 27.41 4.62 27.41 4.62 22.42-3.08 27.44-4.62 5.52 1.54 5.42 10.84S444 253.48 444 253.48c6.59-55.63-44-58.41-44-58.41z"/><path class="cls-10" d="M400 315.75s-16.33.35-14.62 11.71c0 0 12.34 3.11 14.62 3 2.28.11 14.62-3 14.62-3 1.71-11.36-14.62-11.71-14.62-11.71zm0-14.4s-9.13-.54-10 1.16c0 0-1 3.87.7 3.95s5.34-2.06 9.29-2.06a12.09 12.09 0 015.41 1.54 3.16 3.16 0 004.34-1.38c.41-.87.56-1.65-.08-1.9a52 52 0 00-9.66-1.31z" opacity=".7"/><path class="cls-6" d="M399.92 333.46c-22.68 0-41.28-19-43.53-43.79-7.52-.49-13.32-8.93-13.32-19.61 0-7 2.64-13.45 6.84-16.92v-1.82c0-32.12 22.45-58.25 50-58.25s50 26.13 50 58.25v1c4.85 3.18 8 10 8 17.76 0 11-6.16 19.64-14 19.64h-.46c-2.25 24.79-20.78 43.74-43.53 43.74zm-40.73-50.08a3 3 0 013 2.9c.77 23.09 17.34 41.18 37.73 41.18 20.58 0 37.15-18.26 37.74-41.58a3 3 0 014.27-2.64 4.73 4.73 0 002 .46c4.35 0 8-6.25 8-13.64 0-7-3.13-11.94-6.22-13.25a3 3 0 01-1.83-2.89v-.18c0-.8.07-1.6.07-2.42 0-28.81-19.76-52.25-44-52.25s-44 23.44-44 52.25c0 .92 0 1.89.09 3.16a3 3 0 01-1.43 2.71c-3.27 2-5.47 7.16-5.47 12.87 0 7.39 3.67 13.64 8 13.64a4.69 4.69 0 001.25-.19 2.74 2.74 0 01.8-.13z"/></g></svg>