<svg id="player" xmlns="http://www.w3.org/2000/svg" viewBox="0 0 800 800"><defs><style>.cls-1{fill:#6e402b}.cls-2{fill:#f99f1d}.cls-4{fill:#024f9e}.cls-5{fill:#009d5c}.cls-6{fill:#fff}.cls-7{fill:#085aa0}.cls-8{fill:#fed519}.cls-10{fill:#231f20}.cls-11{fill:#231917}</style></defs><g id="skin"><path id="arm-left" class="cls-1" d="M306.43 383h36.78v72.38a18.39 18.39 0 01-18.39 18.39 18.39 18.39 0 01-18.39-18.39V383z"/><path id="arm-right" class="cls-1" d="M457.69 383h36.78v72.38a18.39 18.39 0 01-18.39 18.39 18.39 18.39 0 01-18.39-18.39V383z"/><path id="leg-left" class="cls-1" d="M350.38 492.97h45.67v45.67h-45.67z"/><path id="leg-right" class="cls-1" d="M405.28 492.97h45.67v45.67h-45.67z"/></g><g id="boots"><path id="left" class="cls-2" d="M395.83 570.99H373l-22.83 1.98h-12.5l-7.5 2.52-5.25 8.5v9.83l1.91 4.17 3.84 4.06 6.33 1.94h58.83v-33z"/><path id="right" class="cls-2" d="M405.11 571.22h22.83l22.83 1.97h12.5l7.5 2.53 5.25 8.5v9.83l-1.91 4.17-3.84 4.05-6.33 1.95h-58.83v-33z"/><path d="M385.44 571.22s-13.5 9.34-23.88 16.27c-6.74 4.5-20.82 16.21-7.95 17s42-.55 42-.55l.21-33zm30.41 0s13.49 9.34 23.87 16.27c6.75 4.5 20.82 16.21 7.95 17s-42-.55-42-.55l-.22-33z" fill="#181227"/></g><g id="socks"><g id="socks-2" data-name="socks"><path id="left-2" data-name="left" class="cls-4" d="M350.38 522.95h45.67v48.04h-45.67z"/><path id="right-2" data-name="right" class="cls-4" d="M404.88 522.95h45.67v48.04h-45.67z"/></g><path class="cls-5" d="M351.46 540.8h44.52v9.39h-44.52zm53.99 0h44.52v9.39h-44.52z"/></g><g id="shorts"><path id="shorts-2" data-name="shorts" class="cls-6" d="M342.17 443.49h116.49v47a9.95 9.95 0 01-9.95 9.95h-96.6a9.95 9.95 0 01-9.95-9.95v-47h.01z"/></g><g id="shirt"><path id="shirt-2" data-name="shirt" class="cls-4" d="M370 315.75l-48.29 2.99-11.36 6.25-6.83 10.1-3.31 40.73 5.17 7.67 7.66 4.67h29.5l.17 54h114.83v-53.5l29.34-.17 7.01-4 6.99-10.5-3.4-37.33-6.83-11.84-9.77-6.08-49.84-2.99-1 21.24-6.5 6.5-11.16 3.48-11.88 2.02-15.46-3.17-11-5.66-3.66-3.84-.38-20.57z"/><path class="cls-7" d="M458.66 403.49l-115.59 40v-15.14a26.11 26.11 0 0117.57-24.67l82.64-28.6a11.59 11.59 0 0115.38 11zm-88.77-82.24c-32 12.45-27.15 43.71-27.15 43.71l-.2 23.2s1.76 1.2-19.48.83-22.85-13.17-22.85-13.17 1.84-22.72 2-35.77 17.91-21.31 17.91-21.31l48.57-3.36z"/><path class="cls-7" d="M431.06 321.25c32 12.45 27.15 43.71 27.15 43.71l.2 23.2s-1.75 1.2 19.48.83 22.85-13.17 22.85-13.17-1.84-22.72-2-35.77-17.91-21.31-17.91-21.31l-48.57-3.36zm-69.9-5.03s-7.47 29.54 19.34 30.38l-10.15-10.53 1.14-20.69z"/><path class="cls-7" d="M439.84 316.22s7.47 29.54-19.34 30.38l10.15-10.53-1.14-20.69z"/><g id="brand-nike"><path id="nike" class="cls-8" d="M373.82 364.69c0 1.2-1.57 2.17-3.49 2.17h-9.25c-1.92 0-3.5-1-3.5-2.17s1.58-2.16 3.5-2.16h9.25c1.92 0 3.49.97 3.49 2.16z"/></g><path class="cls-8" d="M391.24 388.9v-12l-2.06 2.1a1.75 1.75 0 01-1.21.51 1.69 1.69 0 01-1.69-1.69 1.73 1.73 0 01.49-1.2l4.53-4.54a2.4 2.4 0 011.69-.69 2.36 2.36 0 012.36 2.36v15.15a2.06 2.06 0 01-4.11 0zm8.33-.49a1.76 1.76 0 011.75-1.75 1.57 1.57 0 01.81.2 5.1 5.1 0 002.67.63c3.07 0 4.79-2.61 4.79-5.51v-.4a6.34 6.34 0 01-4.94 2.47c-3.44 0-6.54-2.12-6.54-6.2 0-3.73 3-6.57 7.35-6.57 5.8 0 8.24 4.47 8.24 9.9 0 5.77-3.25 9.87-8.9 9.87a8.46 8.46 0 01-4.25-1.09 1.73 1.73 0 01-.98-1.55zm6.06-13.6a3.09 3.09 0 00-3.36 2.87c0 2 1.7 2.93 3.53 2.93a4.83 4.83 0 003.73-1.78c-.14-1.83-1.17-4.02-3.9-4.02z"/><g id="crest-brazil-98"><g id="brazil-crest-1998"><ellipse class="cls-8" cx="426.06" cy="356.27" rx="1.31" ry="1.35"/><ellipse class="cls-8" cx="430.47" cy="354.12" rx="1.31" ry="1.35"/><ellipse class="cls-8" cx="434.87" cy="353.01" rx="1.31" ry="1.35"/><ellipse class="cls-8" cx="439.27" cy="354.12" rx="1.31" ry="1.35"/><ellipse class="cls-8" cx="443.68" cy="356.27" rx="1.31" ry="1.35"/><path class="cls-7" d="M438.27 356.69c-.58-.59-3.4-.66-3.4-.66s-2.82.07-3.4.66c-2.63 2.72-5.51 2.55-6.46 4.47a2.6 2.6 0 00-.24 1.46l1.37 14.74a3.51 3.51 0 002.15 3.23l3.28 1.06 3.3 1.32 3.3-1.32 3.28-1.06a3.51 3.51 0 002.15-3.23l1.4-14.74a2.6 2.6 0 00-.24-1.46c-.98-1.92-3.86-1.75-6.49-4.47z"/><rect class="cls-5" x="433.84" y="359.14" width="2.06" height="20.73" rx=".57" ry=".57"/><rect class="cls-5" x="427.37" y="367.05" width="14.9" height="2.06" rx=".57" ry=".57"/><path class="cls-8" d="M434.87 380.58a.85.85 0 01-.22 0l-2.57-1-2.51-.82h-.05a3.29 3.29 0 01-2-3l-1.07-11.46a2.77 2.77 0 01.24-1.45A4.24 4.24 0 01429 361a8.77 8.77 0 002.85-1.85c.53-.56 2.14-.68 3.05-.7s2.54.14 3.07.69a8.77 8.77 0 002.85 1.85 4.18 4.18 0 012.29 1.77 2.67 2.67 0 01.25 1.45l-1.07 11.46a3.29 3.29 0 01-2 3h-.05l-2.55.83-2.53 1a.85.85 0 01-.29.08zm-4.92-3l2.53.82 2.39 1 2.36-.95 2.56-.83a2.14 2.14 0 001.3-2v-.06l1.07-11.49a1.59 1.59 0 00-.13-.83c-.28-.56-.89-.84-1.74-1.23a9.84 9.84 0 01-3.19-2.09 6.44 6.44 0 00-2.25-.35 6.3 6.3 0 00-2.23.35 9.84 9.84 0 01-3.19 2.09c-.85.39-1.46.67-1.74 1.23a1.59 1.59 0 00-.13.83l1.07 11.49v.06a2.14 2.14 0 001.37 1.98zm7.16-17.67zm0 0z"/><path class="cls-6" d="M438.55 366.39l-2.43.44.44-2.43a.74.74 0 00-.73-.88h-1.92a.74.74 0 00-.73.88l.44 2.43-2.43-.44a.75.75 0 00-.88.74V369a.74.74 0 00.88.73l2.43-.44-.44 2.43a.74.74 0 00.73.88h1.92a.74.74 0 00.73-.88l-.44-2.43 2.43.44a.74.74 0 00.88-.73v-1.91a.75.75 0 00-.88-.7z"/></g></g><path class="cls-7" d="M427.93 443.34l-84.86-50 8.71-7.55a18.53 18.53 0 0122.43-1.4l43 28.78a21.75 21.75 0 0110.71 18.73z"/></g><path id="neck" fill="#593325" d="M428.13 341.21l-27.59 8.62-28.6-9.62-1.92-23.62h61.04l-2.93 24.62z"/><path d="M503.38 369.38L500.91 339c-1.19-11.87-11.83-22.25-23.72-23.14l-37.14-2.7c-4.07-.45-20.52-.09-39.55.53-19-.62-35.48-1-39.55-.53l-37.14 2.7c-11.89.89-22.53 11.27-23.72 23.14l-2.47 30.36a20.14 20.14 0 005 15.74 18.65 18.65 0 001.69 1.64v66.36c0 12.81 9.32 23.23 20.78 23.23a19.8 19.8 0 0015.21-7.43v21.79a12.24 12.24 0 007.74 11.36v68h-5.93c-10.93 0-19.83 5.8-19.83 17.11 0 8.06 0 17 11.72 19.7v1.6a1.37 1.37 0 001.38 1.37h1.63a1.37 1.37 0 001.38-1.37v-1q1.72.15 3.72.15H344v.8a1.37 1.37 0 001.38 1.37h1.63a1.37 1.37 0 001.38-1.37v-.8H354v.8a1.37 1.37 0 001.38 1.37h1.63a1.37 1.37 0 001.38-1.37v-.8H364v.8a1.37 1.37 0 001.38 1.37h1.63a1.37 1.37 0 001.38-1.37v-.8H374v.8a1.37 1.37 0 001.38 1.37h1.63a1.37 1.37 0 001.38-1.37v-.8H384v.8a1.37 1.37 0 001.38 1.37h1.63a1.37 1.37 0 001.38-1.37v-.8H394v.8a1.37 1.37 0 001.38 1.37h1.63a1.37 1.37 0 001.38-1.37v-.81l.06-55.46V503h4v49.21l.06 54.67v1.6a1.37 1.37 0 001.38 1.37h1.63a1.37 1.37 0 001.38-1.37v-.8h5.61v.8a1.37 1.37 0 001.38 1.37h1.63a1.37 1.37 0 001.38-1.37v-.8h5.61v.8a1.37 1.37 0 001.38 1.37h1.63a1.37 1.37 0 001.38-1.37v-.8h5.61v.8a1.37 1.37 0 001.38 1.37h1.63a1.37 1.37 0 001.38-1.37v-.8h5.61v.8a1.37 1.37 0 001.38 1.37h1.63a1.37 1.37 0 001.38-1.37v-.8h5.61v.8a1.37 1.37 0 001.38 1.37h1.63a1.37 1.37 0 001.38-1.37v-.8h1.89c1.33 0 2.56 0 3.72-.15v1a1.37 1.37 0 001.38 1.37h1.63a1.37 1.37 0 001.38-1.37v-1.6c11.71-2.68 11.72-11.64 11.72-19.7 0-11.31-8.9-17.11-19.83-17.11h-5.93v-68a12.24 12.24 0 007.74-11.36v-21.84a19.8 19.8 0 0015.21 7.43c11.46 0 20.78-10.42 20.78-23.23v-66.36a18.65 18.65 0 001.69-1.64 20.14 20.14 0 005.1-15.74zM372.89 323.2c3.46 1.85 15.64 2.08 27.61 1.8 12 .28 24.15.05 27.61-1.8V335c0 4.81-22.42 12-27.23 12l-.38-.07-.38.07c-4.81 0-27.23-7.18-27.23-12zm-33 75.43v55c0 9.5-6.63 17.23-14.78 17.23s-14.78-7.73-14.78-17.23v-62.78a21.07 21.07 0 007.47 1.36h22.09zm52.91 203.42h-50.65c-14.21 0-14.21-5-14.21-14.89 0-8.22 6.37-11.5 14.21-11.5h11.67l38.93-2.7.07 15.37zm-38.74-76.4h38.67v41.7L354.08 570h-.26v-44.4zm-.26-5.74v-17h38.93v16.93h-38.91zm104.77 55.75h.26c7.84 0 14.21 3.28 14.21 11.5 0 9.91 0 14.89-14.21 14.89h-50.65v-13.7l.07-15.37 38.93 2.7h11.41zm-11.67-50h.26v44.4h-.26l-38.67-2.68v-41.7zm-38.67-5.74V503h38.93v17h-38.91zm46.84-73.78H455v44.58a6.6 6.6 0 01-6.58 6.58h-1.26l-43.68-.05s-.11-3.72-.16-8.75v-2.8c0-3.52-1.41-5.09-2.82-5-1.41-.08-2.82 1.49-2.82 5v2.79c-.05 5-.16 8.75-.16 8.75l-43.68.05h-1.26a6.6 6.6 0 01-6.58-6.58v-44.58h-.07v-.33l30.25.33h48.68l30.25-.33zm35.56 7.51c0 9.5-6.63 17.23-14.78 17.23s-14.78-7.73-14.78-17.23v-61.44h22.09a21.07 21.07 0 007.47-1.36zm6-77.21a13.55 13.55 0 01-2.76 4.66 13.85 13.85 0 01-3.24 2.63 14.72 14.72 0 01-7.47 2l-22.09.09v-20.15c0-5.56-6.08-5.93-6.08 0s.08 14.37.08 14.37v59.59H345.91V380s.08-8.45.08-14.37-6.08-5.54-6.08 0v20.11l-22.09-.09a14.72 14.72 0 01-7.47-2 13.85 13.85 0 01-3.24-2.63 13.55 13.55 0 01-2.76-4.66 14.79 14.79 0 01-.75-6.46l2.46-30.35c.9-8.95 9.23-17.08 18.2-17.75l11.12-.84 32.21-2.29c.68.55.49 17.49.49 17.49 0 8.43 23.34 15.29 31.77 15.29h1.3c8.43 0 31.77-6.86 31.77-15.29 0 0-.19-16.94.49-17.49l32.21 2.33 11.12.84c9 .67 17.3 8.8 18.2 17.75L497.4 370a14.79 14.79 0 01-.75 6.43z" id="border"/><g id="head"><path class="cls-10" d="M397 164.88c1.12 0 2.25 0 3.37.12 62 4.23 65.54 35.06 65.54 35.06 23.55 23.4.23 63.21.23 63.21 1.12 6.71.55 14-4.5 19.59 0 0-1.24 15-16.41 15a27.71 27.71 0 01-4.61-.41s-62.2-34.49 2.74-49.9a25.81 25.81 0 01-3.16-11.17c-1.32-15.32-14.68-25.09-14.68-25.09L400 205.71l-25.51 5.56s-13.37 9.77-14.68 25.09a26.09 26.09 0 01-3.16 11.17c64.93 15.41 2.74 49.9 2.74 49.9a27.89 27.89 0 01-4.61.41c-15.18 0-16.41-15-16.41-15-5.06-5.59-5.63-12.88-4.5-19.59 0 0-17.72-40.8 5.83-64.2 0 0 12.46-28.13 49.67-33.62a51.13 51.13 0 017.62-.57m0-5a57.44 57.44 0 00-8.35.62c-36.14 5.34-50.49 30.48-53.09 35.65-10.3 10.66-14.65 26-12.57 44.35a97.5 97.5 0 005.74 23.38c-1.11 8.36.57 15.59 4.88 21.08 1.22 7 6.76 17.88 21.18 17.88a32.78 32.78 0 005.45-.48 5.23 5.23 0 001.58-.56c3.26-1.8 31.74-18.16 29.27-36.1-1.31-9.53-10.36-16.61-27.61-21.56a38 38 0 001.32-7.35c.93-10.86 9.32-18.71 11.9-20.89l23.31-5.05 23.3 5.07c2.57 2.17 11 10 11.9 20.89a38 38 0 001.32 7.35c-17.24 5-26.3 12-27.61 21.56-2.46 17.94 26 34.3 29.27 36.1a5.29 5.29 0 001.59.56 32.69 32.69 0 005.45.48c14.42 0 20-10.88 21.17-17.88 4.26-5.42 5.94-12.54 4.93-20.75a95.15 95.15 0 008.4-22.68c4-18 .85-33.12-9.21-43.9-1.84-7.37-12.4-33.71-69.81-37.62-1.22-.09-2.47-.13-3.71-.13z"/><path class="cls-11" d="M459 244.58c-89.72 13.32-18.43 52.85-18.43 52.85 19.54 3.33 21-14.57 21-14.57C474.2 269 459 244.58 459 244.58zm-118 0s-15.16 24.37-2.58 38.28c0 0 1.47 17.9 21 14.57-.03 0 71.25-39.53-18.42-52.85z"/><path id="skin-2" data-name="skin" class="cls-1" d="M446.88 254.05c0-.91.08-1.81.08-2.73 0-30.51-21.06-55.25-47-55.25s-47 24.74-47 55.25c0 1.11 0 2.22.1 3.31-4.05 2.46-6.91 8.44-6.91 15.43 0 9.19 4.93 16.64 11 16.64a7.48 7.48 0 002.1-.32c.82 24.5 18.73 44.08 40.73 44.08S440 310.65 440.66 286a7.65 7.65 0 003.25.74c6.09 0 11-7.45 11-16.64.02-7.67-3.39-14.1-8.03-16.05z"/><path class="cls-11" d="M441.27 223.26c-4.88-24.87-41.2-27.19-41.2-27.19l-.07 13.28-.08-13.28s-36.32 2.32-41.2 27.19c-4.11 20.89-6.75 23.46-4.28 31.84a2 2 0 003.73 0c3-9.71 9-29.25 9.65-34.08.86-6.51 11.28-11.11 32.18-11.11s31.31 4.6 32.17 11.11c.64 4.83 6.62 24.37 9.65 34.08a2 2 0 003.73 0c2.45-8.38-.17-10.95-4.28-31.84z"/><path class="cls-10" d="M399.92 333.46c-22.68 0-41.28-19-43.53-43.79-7.52-.49-13.32-8.93-13.32-19.61 0-7 2.64-13.45 6.84-16.92v-1.82c0-32.12 22.45-58.25 50-58.25s50 26.13 50 58.25v1c4.85 3.18 8 10 8 17.76 0 11-6.16 19.64-14 19.64h-.46c-2.25 24.79-20.78 43.74-43.53 43.74zm-40.73-50.08a3 3 0 013 2.9c.77 23.09 17.34 41.18 37.73 41.18 20.58 0 37.15-18.26 37.74-41.58a3 3 0 014.27-2.64 4.73 4.73 0 002 .46c4.35 0 8-6.25 8-13.64 0-7-3.13-11.94-6.22-13.25a3 3 0 01-1.83-2.89v-.18c0-.8.07-1.6.07-2.42 0-28.81-19.76-52.25-44-52.25s-44 23.44-44 52.25c0 .92 0 1.89.09 3.16a3 3 0 01-1.43 2.71c-3.27 2-5.47 7.16-5.47 12.87 0 7.39 3.67 13.64 8 13.64a4.69 4.69 0 001.25-.19 2.74 2.74 0 01.8-.13z"/><path class="cls-11" d="M465.9 200.06s-3.5-30.83-65.54-35.06a51.19 51.19 0 00-11 .45c-37.21 5.49-49.67 33.62-49.67 33.62-23.55 23.4-5.83 64.2-5.83 64.2l16-10.13s8.59-1.46 9.9-16.78 14.68-25.09 14.68-25.09l25.56-5.56 25.51 5.56s13.36 9.77 14.68 25.09 9.89 16.78 9.89 16.78l16.05 10.13s23.32-39.81-.23-63.21z"/></g></svg>