<svg id="player" xmlns="http://www.w3.org/2000/svg" viewBox="0 0 800 800"><defs><style>.cls-1{fill:#e7bba6}.cls-2{fill:#ded6b6}.cls-4{fill:#fff}.cls-6{fill:#e41e26}.cls-7{fill:#ed1e24}.cls-10{fill:#231f20}.cls-12{fill:#56331d}</style></defs><g id="skin"><path id="arm-left" class="cls-1" d="M306.43 383h36.78v72.38a18.39 18.39 0 01-18.39 18.39 18.39 18.39 0 01-18.39-18.39V383z"/><path id="arm-right" class="cls-1" d="M457.69 383h36.78v72.38a18.39 18.39 0 01-18.39 18.39 18.39 18.39 0 01-18.39-18.39V383z"/><path id="leg-left" class="cls-1" d="M350.38 492.97h45.67v45.67h-45.67z"/><path id="leg-right" class="cls-1" d="M405.28 492.97h45.67v45.67h-45.67z"/></g><g id="boots"><path id="left" class="cls-2" d="M395.83 570.99H373l-22.83 1.98h-12.5l-7.5 2.52-5.25 8.5v9.83l1.91 4.17 3.84 4.06 6.33 1.94h58.83v-33z"/><path id="right" class="cls-2" d="M405.11 571.22h22.83l22.83 1.97h12.5l7.5 2.53 5.25 8.5v9.83l-1.91 4.17-3.84 4.05-6.33 1.95h-58.83v-33z"/><path d="M395.83 594.42s-55.78-20.42-48.39 9.52l40.44.28 7.74-.23zm9.45 0s55.78-20.42 48.39 9.52l-40.45.28-7.73-.23z" fill="#b72025"/></g><g id="socks"><g id="socks-2" data-name="socks"><path id="left-2" data-name="left" class="cls-4" d="M350.38 522.95h45.67v48.04h-45.67z"/><path id="right-2" data-name="right" class="cls-4" d="M404.88 522.95h45.67v48.04h-45.67z"/></g><path d="M350.95 529.09h44.88v6.67h-44.88zm54.32 0h44.88v6.67h-44.88z" fill="#f2f2f3"/></g><g id="shorts"><path id="shorts-2" data-name="shorts" class="cls-4" d="M342.17 443.49h116.49v47a9.95 9.95 0 01-9.95 9.95h-96.6a9.95 9.95 0 01-9.95-9.95v-47h.01z"/></g><g id="shirt"><path id="shirt-2" data-name="shirt" class="cls-6" d="M370 315.75l-48.29 2.99-11.36 6.25-6.83 10.1-3.31 40.73 5.17 7.67 7.66 4.67h29.5l.17 54h114.83v-53.5l29.34-.17 7.01-4 6.99-10.5-3.4-37.33-6.83-11.84-9.77-6.08-49.84-2.99-1 21.24-6.5 6.5-11.16 3.48-11.88 2.02-15.46-3.17-11-5.66-3.66-3.84-.38-20.57z"/><path class="cls-7" d="M380.42 373.8a7.7 7.7 0 002.49.05c16.61-2.45 17.8-16.19 17.86-21.47a1 1 0 00-1-1 1 1 0 00-1 1c0 4.54-.93 13.8-12.81 18.6a12.44 12.44 0 01-6.54.64 25 25 0 00-8.59.15 1.19 1.19 0 00-.26-.05c-10.34.05-17.2-2.41-20.41-7.3-3.67-5.59-1.42-13.26-.46-15.91a7.82 7.82 0 00.46-2.45c.34-16.78-22.88-21.9-28.08-22.83a1 1 0 00-1.16.85 1 1 0 00.82 1.12c4.47.79 23.32 4.86 26.08 17.37a12.51 12.51 0 01-.44 6.56c-1.14 3.47-2.69 10.6 1.1 16.38 3.08 4.7 9 7.4 17.55 8.05a13.74 13.74 0 00-2.58 1.87c-4.64 4.3-6.19 11.68-4.62 22a57.41 57.41 0 00-15.75-5.64 1 1 0 00-1.18.83 1 1 0 00.8 1.13c4.45.88 23.22 5.31 25.74 17.87a12.5 12.5 0 01-.57 6.55c-1.2 3.45-2.89 10.54.79 16.4 3.49 5.56 10.87 8.46 21.94 8.63a1 1 0 001-1 1 1 0 00-1-1c-10.34-.15-17.16-2.74-20.27-7.69-3.57-5.66-1.17-13.29-.16-15.91a7.6 7.6 0 00.51-2.44c.3-7.55-4.22-12.82-9.75-16.44a.92.92 0 000-.44c-1.76-10.18-.48-17.36 3.81-21.34 4.97-4.6 12.91-3.64 15.68-3.14zm44.35 35.57a7.7 7.7 0 00-2.49 0c-16.6 2.45-17.8 26.19-17.86 31.47a1 1 0 001 1 1 1 0 001-1c0-4.54.93-23.8 12.81-28.6a12.54 12.54 0 016.54-.65 25 25 0 008.59-.14 1.19 1.19 0 00.26.05c10.34-.05 17.2 2.41 20.41 7.29 3.67 5.6 1.42 13.27.46 15.91a7.93 7.93 0 00-.46 2.45c-.34 16.79 5.1 16 2.34 3.49a12.43 12.43 0 01.45-6.56c1.13-3.46 2.68-10.59-1.11-16.37-3.08-4.71-9-7.4-17.55-8.05a13.74 13.74 0 002.58-1.87c4.64-4.3 6.19-11.69 4.62-22a57.11 57.11 0 0015.76 5.65 1 1 0 001.17-.83 1 1 0 00-.79-1.13c-4.46-.88-23.22-5.32-25.75-17.87a12.55 12.55 0 01.57-6.56c1.2-3.44 2.93-10.56-.79-16.39-7.12-11.17-4.81-3.9-1.7 1 3.57 5.67 1.17 13.3.16 15.92a7.81 7.81 0 00-.51 2.44c-.29 7.55 4.22 12.82 9.75 16.43a1.08 1.08 0 000 .44c1.76 10.19.48 17.37-3.81 21.34-4.94 4.6-12.88 3.65-15.65 3.14z"/><path class="cls-4" d="M435.45 314.83a3.08 3.08 0 00-3.56 2.8l-1.38 17.49a3.1 3.1 0 01-.49 1.44l-2.86 4.44a3 3 0 01-1.4 1.17l-14.31 5.95a3.27 3.27 0 01-.53.17l-10.27 2.24a2.94 2.94 0 01-1.32 0l-10.28-2.24a3.16 3.16 0 01-.52-.17l-14.32-5.95a3.13 3.13 0 01-1.4-1.17l-2.81-4.44a3 3 0 01-.49-1.44l-1.39-17.49a3.08 3.08 0 00-3.55-2.8 3.08 3.08 0 00-2.6 2.81c-.46 6.45-1.18 23.64 4.05 26.62 6.31 3.58 23.37 14.15 33.29 12.06a3.49 3.49 0 011.44 0c9.92 2.09 27-8.48 33.28-12.06 5.24-3 4.52-20.17 4.05-26.62a3.06 3.06 0 00-2.63-2.81z"/><g id="brand-puma"><rect class="cls-4" x="397.03" y="364.37" width="6.25" height="16.01" rx="3.13" ry="3.13" transform="rotate(-63.52 400.188 372.387)" id="brand-puma-2" data-name="brand-puma"/></g><path class="cls-6" d="M428.28 363h14.78v14.78h-14.78z"/><path d="M440.93 363a2.13 2.13 0 012.13 2.13v10.52a2.13 2.13 0 01-2.13 2.13h-10.52a2.13 2.13 0 01-2.13-2.13v-10.52a2.14 2.14 0 012.13-2.13h10.52m0-1.28h-10.52a3.41 3.41 0 00-3.41 3.41v10.52a3.42 3.42 0 003.41 3.42h10.52a3.42 3.42 0 003.42-3.42v-10.52a3.42 3.42 0 00-3.42-3.41z" fill="#e2d7aa"/><path class="cls-4" d="M439.66 369h-2.36a.22.22 0 01-.23-.22v-2.38a.55.55 0 00-.56-.55h-1.68a.55.55 0 00-.56.55v2.37a.22.22 0 01-.22.22h-2.37a.55.55 0 00-.55.56v1.68a.55.55 0 00.55.56h2.37a.22.22 0 01.22.22v2.37a.56.56 0 00.56.56h1.68a.56.56 0 00.56-.56V372a.22.22 0 01.23-.22h2.36a.56.56 0 00.56-.56v-1.68a.56.56 0 00-.56-.54zm-61.26-5.66c-4.54 0-6.76 1.76-7.8 3.13a8.66 8.66 0 00-6.64-3.13c-5.08 0-8.08 4.25-8.2 4.43a1 1 0 101.64 1.14s2.55-3.57 6.56-3.57a7 7 0 015.88 3.47l.49.26.93-.1.42-.36c0-.14 1-3.27 6.72-3.27a1 1 0 000-2zm-3.22 4a1 1 0 00-.94 1.06s.2 3.8-1.93 5-4.77-1.14-4.8-1.17h-.6l-.81.53-.19.57a4.08 4.08 0 01-2.17 4.83 1 1 0 00.49 1.87 1 1 0 00.48-.12 6 6 0 003.32-4.94 5.59 5.59 0 005.25.22c3.25-1.8 3-6.65 3-6.86a1 1 0 00-1.1-.99z"/><path class="cls-4" d="M362.81 374.32l.62-.18.55-.82-.07-.64s-2.25-2.19-1.1-3.74a1 1 0 00-1.6-1.2 3.87 3.87 0 00-.35 4 3.41 3.41 0 00-3.4 1.06c-1.57 2.09.79 5.49 1.27 6.15a1 1 0 00.81.4 1 1 0 00.59-.19 1 1 0 00.21-1.4c-.83-1.13-1.77-3.12-1.28-3.77s2.51-.21 3.75.33zm-3.27 4.5z"/><path class="cls-7" d="M365.31 319s-22.37 14.45-22.24 48.32l-.53 20.82H313s-10.52-5.22-11.67-8.84.82-42.26 3.42-46.11 8.23-13.93 21.55-14.76 36.95-4 39.01.57zm70.36 0s22.38 14.45 22.24 48.32l.53 20.82h29.5s10.53-5.22 11.68-8.84-.82-42.26-3.42-46.11-8.23-13.93-21.56-14.76-36.91-4-38.97.57z"/><path class="cls-4" d="M387.27 403.15a2.14 2.14 0 01.75-1.63c6.17-5.1 8-6.92 8-9.12a2.42 2.42 0 00-2.65-2.4 5.37 5.37 0 00-3.43 1.24 1.38 1.38 0 01-.85.3 1.65 1.65 0 01-1.55-1.73 1.89 1.89 0 01.65-1.41 7.86 7.86 0 015.13-1.87c3.45 0 6.19 2.2 6.19 5.87 0 3.14-2.28 5.87-6.63 9.35h5.4a1.73 1.73 0 010 3.44h-9.22a1.94 1.94 0 01-1.79-2.04zm14.9.5a1.87 1.87 0 01-.63-1.38 1.63 1.63 0 011.53-1.71 1.33 1.33 0 01.8.3 5.94 5.94 0 003.55 1.24c2 0 3.06-1 3.06-2.37s-1-2.18-3.26-2.18h-.67a1.69 1.69 0 010-3.36h.7c1.8 0 3-.66 3-2s-1.31-2.2-3-2.2a5.25 5.25 0 00-3.26 1.15 1.23 1.23 0 01-.77.28 1.57 1.57 0 01-1.44-1.63 1.75 1.75 0 01.59-1.29 7.69 7.69 0 015.25-1.93c3.79 0 6.12 1.93 6.12 5a4.3 4.3 0 01-3.55 4.19 4.36 4.36 0 013.79 4.41c0 3.17-2.5 5.4-6.39 5.4a8.09 8.09 0 01-5.42-1.92z"/></g><path id="neck" fill="#b28e7f" d="M428.13 341.21l-27.59 8.62-28.6-9.62-1.92-23.62h61.04l-2.93 24.62z"/><path d="M503.38 369.38L500.91 339c-1.19-11.87-11.83-22.25-23.72-23.14l-37.14-2.7c-4.07-.45-20.52-.09-39.55.53-19-.62-35.48-1-39.55-.53l-37.14 2.7c-11.89.89-22.53 11.27-23.72 23.14l-2.47 30.36a20.14 20.14 0 005 15.74 18.65 18.65 0 001.69 1.64v66.36c0 12.81 9.32 23.23 20.78 23.23a19.8 19.8 0 0015.21-7.43v21.79a12.24 12.24 0 007.74 11.36v68h-5.93c-10.93 0-19.83 5.8-19.83 17.11 0 8.06 0 17 11.72 19.7v1.6a1.37 1.37 0 001.38 1.37h1.63a1.37 1.37 0 001.38-1.37v-1q1.72.15 3.72.15H344v.8a1.37 1.37 0 001.38 1.37h1.63a1.37 1.37 0 001.38-1.37v-.8H354v.8a1.37 1.37 0 001.38 1.37h1.63a1.37 1.37 0 001.38-1.37v-.8H364v.8a1.37 1.37 0 001.38 1.37h1.63a1.37 1.37 0 001.38-1.37v-.8H374v.8a1.37 1.37 0 001.38 1.37h1.63a1.37 1.37 0 001.38-1.37v-.8H384v.8a1.37 1.37 0 001.38 1.37h1.63a1.37 1.37 0 001.38-1.37v-.8H394v.8a1.37 1.37 0 001.38 1.37h1.63a1.37 1.37 0 001.38-1.37v-.81l.06-55.46V503h4v49.21l.06 54.67v1.6a1.37 1.37 0 001.38 1.37h1.63a1.37 1.37 0 001.38-1.37v-.8h5.61v.8a1.37 1.37 0 001.38 1.37h1.63a1.37 1.37 0 001.38-1.37v-.8h5.61v.8a1.37 1.37 0 001.38 1.37h1.63a1.37 1.37 0 001.38-1.37v-.8h5.61v.8a1.37 1.37 0 001.38 1.37h1.63a1.37 1.37 0 001.38-1.37v-.8h5.61v.8a1.37 1.37 0 001.38 1.37h1.63a1.37 1.37 0 001.38-1.37v-.8h5.61v.8a1.37 1.37 0 001.38 1.37h1.63a1.37 1.37 0 001.38-1.37v-.8h1.89c1.33 0 2.56 0 3.72-.15v1a1.37 1.37 0 001.38 1.37h1.63a1.37 1.37 0 001.38-1.37v-1.6c11.71-2.68 11.72-11.64 11.72-19.7 0-11.31-8.9-17.11-19.83-17.11h-5.93v-68a12.24 12.24 0 007.74-11.36v-21.84a19.8 19.8 0 0015.21 7.43c11.46 0 20.78-10.42 20.78-23.23v-66.36a18.65 18.65 0 001.69-1.64 20.14 20.14 0 005.1-15.74zM372.89 323.2c3.46 1.85 15.64 2.08 27.61 1.8 12 .28 24.15.05 27.61-1.8V335c0 4.81-22.42 12-27.23 12l-.38-.07-.38.07c-4.81 0-27.23-7.18-27.23-12zm-33 75.43v55c0 9.5-6.63 17.23-14.78 17.23s-14.78-7.73-14.78-17.23v-62.78a21.07 21.07 0 007.47 1.36h22.09zm52.91 203.42h-50.65c-14.21 0-14.21-5-14.21-14.89 0-8.22 6.37-11.5 14.21-11.5h11.67l38.93-2.7.07 15.37zm-38.74-76.4h38.67v41.7L354.08 570h-.26v-44.4zm-.26-5.74v-17h38.93v16.93h-38.91zm104.77 55.75h.26c7.84 0 14.21 3.28 14.21 11.5 0 9.91 0 14.89-14.21 14.89h-50.65v-13.7l.07-15.37 38.93 2.7h11.41zm-11.67-50h.26v44.4h-.26l-38.67-2.68v-41.7zm-38.67-5.74V503h38.93v17h-38.91zm46.84-73.78H455v44.58a6.6 6.6 0 01-6.58 6.58h-1.26l-43.68-.05s-.11-3.72-.16-8.75v-2.8c0-3.52-1.41-5.09-2.82-5-1.41-.08-2.82 1.49-2.82 5v2.79c-.05 5-.16 8.75-.16 8.75l-43.68.05h-1.26a6.6 6.6 0 01-6.58-6.58v-44.58h-.07v-.33l30.25.33h48.68l30.25-.33zm35.56 7.51c0 9.5-6.63 17.23-14.78 17.23s-14.78-7.73-14.78-17.23v-61.44h22.09a21.07 21.07 0 007.47-1.36zm6-77.21a13.55 13.55 0 01-2.76 4.66 13.85 13.85 0 01-3.24 2.63 14.72 14.72 0 01-7.47 2l-22.09.09v-20.15c0-5.56-6.08-5.93-6.08 0s.08 14.37.08 14.37v59.59H345.91V380s.08-8.45.08-14.37-6.08-5.54-6.08 0v20.11l-22.09-.09a14.72 14.72 0 01-7.47-2 13.85 13.85 0 01-3.24-2.63 13.55 13.55 0 01-2.76-4.66 14.79 14.79 0 01-.75-6.46l2.46-30.35c.9-8.95 9.23-17.08 18.2-17.75l11.12-.84 32.21-2.29c.68.55.49 17.49.49 17.49 0 8.43 23.34 15.29 31.77 15.29h1.3c8.43 0 31.77-6.86 31.77-15.29 0 0-.19-16.94.49-17.49l32.21 2.33 11.12.84c9 .67 17.3 8.8 18.2 17.75L497.4 370a14.79 14.79 0 01-.75 6.43z" id="border"/><g id="head"><path class="cls-10" d="M400.5 187.23s19.13.75 23.88 5.13 23.66 19.75 23.08 32.87.42 23.42-1 24.75a.47.47 0 01-.33.16c-1.25 0-2.29-6.41-2.29-6.41l-4.75-11.87-3-14-8.63-6.75-11.87 2-8.88 2.5-6.25-7.25-6.25 7.25-8.87-2.5-11.88-2-8.62 6.75-3 14-4.75 11.87s-1.05 6.41-2.3 6.41a.47.47 0 01-.33-.16c-1.38-1.33-.37-11.62-1-24.75s18.34-28.5 23.09-32.87 23.87-5.13 23.87-5.13m0-6c-.37 0-5.47.23-11 1-11.31 1.55-15.1 4-17 5.74l-1.64 1.47C359 200 347 212.52 347.55 225.5c.23 5.19.2 10 .18 13.89 0 8.72-.06 12.33 2.6 14.9a6.42 6.42 0 004.5 1.85c6 0 7.45-6.89 8.11-10.78l4.51-11.27a6.74 6.74 0 00.29-1l2.55-11.88 4.82-3.77 8.95 1.5 8.56 2.41a5.73 5.73 0 001.63.23 6 6 0 004.54-2.08l1.71-2 1.71 2a6 6 0 004.54 2.08 5.73 5.73 0 001.63-.23l8.56-2.41 8.95-1.5 4.82 3.77 2.55 11.88a6.74 6.74 0 00.29 1l4.51 11.27c.66 3.89 2.12 10.78 8.11 10.78a6.42 6.42 0 004.5-1.85c2.66-2.57 2.64-6.18 2.6-14.9 0-3.87 0-8.7.18-13.89.58-13-11.49-25.52-23.37-36.08l-1.64-1.42c-5.75-5.3-21.29-6.46-27.7-6.71z"/><path id="skin-2" data-name="skin" class="cls-1" d="M446.88 254.05c0-.91.08-1.81.08-2.73 0-30.51-21.06-55.25-47-55.25s-47 24.74-47 55.25c0 1.11 0 2.22.1 3.31-4.05 2.46-6.91 8.44-6.91 15.43 0 9.19 4.93 16.64 11 16.64a7.85 7.85 0 002.1-.31c.82 24.49 18.73 44.07 40.73 44.07S440 310.65 440.66 286a7.65 7.65 0 003.25.74c6.09 0 11-7.45 11-16.64.02-7.67-3.39-14.1-8.03-16.05z"/><path class="cls-12" d="M400.54 307.92s13.63-.25 14.75-.87c.54-.3.56-1.12.45-1.89a2.43 2.43 0 00-2.24-2c-3.58-.23-11.06 1-12.67 1.31a1.62 1.62 0 01-.62 0c-1.57-.29-8.81-1.56-12.67-1.31a2.41 2.41 0 00-2.23 2c-.12.77-.09 1.59.44 1.89 1.06.58 13.36.84 14.79.87zm18.4 9.37a2 2 0 00-3.29-1.42c-8.09 6.27-15.11 6.95-15.11 6.95s-7-.68-15.11-6.95a2 2 0 00-3.29 1.42c-.35 4.12.41 10.49 7.9 12.19h21c7.49-1.7 8.25-8.07 7.9-12.19z" opacity=".1"/><path class="cls-12" d="M437.75 215.86c-4.13-9.88-17.94-16.13-17.94-16.13l-19.31-2.5-19.31 2.5s-13.81 6.25-17.94 16.13-12.12 15.75-9 36.12c0 0 10.63-18 10.38-24.5s9.12-12.87 11.37-12.62 4 6.25 24.5 6.25 22.25-6 24.5-6.25 11.62 6.12 11.38 12.62S446.75 252 446.75 252c3.13-20.39-4.87-26.27-9-36.14z"/><path class="cls-10" d="M399.92 333.46c-22.68 0-41.28-19-43.53-43.79-7.52-.49-13.32-8.93-13.32-19.61 0-7 2.64-13.45 6.84-16.92v-1.82c0-32.12 22.45-58.25 50-58.25s50 26.13 50 58.25v1c4.85 3.18 8 10 8 17.76 0 11-6.16 19.64-14 19.64h-.46c-2.25 24.79-20.78 43.74-43.53 43.74zm-40.73-50.07a3 3 0 011.81.61 3 3 0 011.24 2.32c.77 23.09 17.34 41.18 37.73 41.18 20.58 0 37.15-18.26 37.74-41.58a3 3 0 014.27-2.64 4.73 4.73 0 002 .46c4.35 0 8-6.25 8-13.64 0-7-3.13-11.94-6.22-13.25a3 3 0 01-1.83-2.89v-.18c0-.8.07-1.6.07-2.42 0-28.81-19.76-52.25-44-52.25s-44 23.44-44 52.25c0 .92 0 1.89.09 3.16a3 3 0 01-1.43 2.71c-3.27 2-5.47 7.16-5.47 12.87 0 7.39 3.67 13.64 8 13.64a4.82 4.82 0 001.26-.19 2.67 2.67 0 01.74-.16z"/><path class="cls-12" d="M447.46 225.23c.58-13.12-18.33-28.5-23.08-32.87s-23.88-5.13-23.88-5.13-19.12.75-23.87 5.13-23.63 19.75-23.09 32.87-.42 23.42 1 24.75 2.63-6.25 2.63-6.25l4.75-11.87.7-3.29a30.2 30.2 0 0110.92-17.46l11.88 2 8.87 2.5 6.25-7.25 6.25 7.25 8.88-2.5 11.87-2a82.24 82.24 0 0110.92 17.46l.71 3.29 4.75 11.87s1.24 7.59 2.62 6.25.34-11.62.92-24.75z"/></g></svg>