<svg id="player" xmlns="http://www.w3.org/2000/svg" viewBox="0 0 800 800"><defs><style>.cls-1{fill:#7d4921}.cls-2{fill:#f1f2f2}.cls-3{fill:#d1d3d4}.cls-4{fill:#ef6824}.cls-5{fill:#fff}.cls-7{fill:#231f20}</style></defs><g id="skin"><path id="arm-left" class="cls-1" d="M305.93 383h36.78v72.4a18.39 18.39 0 01-18.39 18.39 18.39 18.39 0 01-18.39-18.39V383z"/><path id="arm-right" class="cls-1" d="M457.19 383H494v72.4a18.39 18.39 0 01-18.39 18.39 18.39 18.39 0 01-18.39-18.39V383h-.03z"/><path id="leg-left" class="cls-1" d="M349.88 493.02h45.67v45.67h-45.67z"/><path id="leg-right" class="cls-1" d="M404.78 493.02h45.67v45.67h-45.67z"/></g><g id="boots"><path id="left" class="cls-2" d="M395.33 571.04H372.5l-22.83 1.97h-12.5l-7.5 2.53-5.25 8.5v9.83l1.91 4.17 3.84 4.05 6.33 1.95h58.83v-33z"/><path id="right" class="cls-2" d="M404.61 571.27h22.83l22.83 1.97h12.5l7.5 2.53 5.25 8.5v9.83l-1.91 4.17-3.84 4.05-6.33 1.95h-58.83v-33z"/><g id="details"><path class="cls-3" d="M394.8 589s-77.84-.12-67.36 11.63c0 0 5.48 3.5 17.11 3.5s50.79-.08 50.79-.08z" id="left-2" data-name="left"/><path class="cls-3" d="M405.14 589s77.84-.12 67.36 11.63c0 0-5.48 3.5-17.11 3.5s-50.79-.08-50.79-.08z" id="right-2" data-name="right"/></g></g><g id="socks"><g id="socks-2" data-name="socks"><path id="left-3" data-name="left" class="cls-4" d="M349.88 523h45.67v48.04h-45.67z"/><path id="right-3" data-name="right" class="cls-4" d="M404.38 523h45.67v48.04h-45.67z"/></g></g><g id="shorts"><path id="shorts-2" data-name="shorts" class="cls-5" d="M341.67 443.54h116.49v47a9.95 9.95 0 01-9.95 9.95h-96.6a9.95 9.95 0 01-9.95-9.95v-47h.01z"/></g><g id="shirt"><path id="shirt-2" data-name="shirt" class="cls-4" d="M369.5 315.8l-48.29 2.99-11.36 6.25-6.83 10.1-3.31 40.73 5.17 7.67 7.66 4.67h29.5l.17 54h114.83v-53.5l29.34-.17 7.01-4 6.99-10.5-3.4-37.33-6.83-11.84-9.77-6.08-49.84-2.99-1 21.24-6.5 6.5-11.16 3.48-11.88 2.02-15.46-3.17-11-5.66-3.66-3.84-.38-20.57z"/><g id="details-2" data-name="details"><path id="nike" class="cls-5" d="M371.65 365.5c0 1.19-1.57 2.17-3.49 2.17h-9.26c-1.92 0-3.49-1-3.49-2.17s1.57-2.17 3.49-2.17h9.26c1.92 0 3.49.97 3.49 2.17z"/><path id="neck" class="cls-5" d="M430.4 317.82l-1.32 20.26-10.33 7L400 349l-18.75-4-10.33-7-1.32-20.26-6-.57v18.3c0 5.41 4.18 9.08 8.85 11.8 6.15 3.57 15.73 6.78 27.56 8.49 11.83-1.71 21.41-4.92 27.56-8.49 4.67-2.72 8.85-6.39 8.85-11.8v-18.3z"/><path id="chest-line" class="cls-5" d="M432.6 328.09l-.21 3c.34 0 34.25 2.68 33.94 24.32-.17 12-3 17.21-5.29 19.43a5.74 5.74 0 01-3.43 1.75 9.42 9.42 0 00-8 1.15c-4.22 2.89-6.32 9.41-6.25 19.37.13 19 .16 40.48.17 44.39h-86.94c0-3.9 0-25.41.17-44.39.07-10-2-16.48-6.25-19.37a9.42 9.42 0 00-8-1.15 5.74 5.74 0 01-3.43-1.75c-2.32-2.22-5.12-7.4-5.29-19.43-.31-21.64 33.6-24.29 33.94-24.32l-.21-3c-.37 0-37.08 2.88-36.73 27.35.15 10.64 2.3 17.94 6.37 21.7a8.08 8.08 0 005.68 2.44h.23l.22-.09a6.39 6.39 0 015.55.72c2.3 1.58 5 5.79 4.95 16.88-.17 23.73-.17 45.79-.17 45.91v1.5h92.88V443c0-.12 0-22.18-.17-45.91-.08-11.09 2.65-15.3 4.95-16.87a6.39 6.39 0 015.55-.72l.22.09h.23a8.08 8.08 0 005.68-2.44c4.08-3.76 6.22-11.06 6.37-21.7.35-24.45-36.33-27.34-36.73-27.36z"/><path id="arm-l" class="cls-5" d="M308.43 379.85l2.34-12.12a.72.72 0 00-1.18-.67l-9.51 8.43 2.93 3.83-1-.1 4 7.25 33.48.83v-4.46z"/><path id="arm-r" class="cls-5" d="M491.57 379.85l-2.34-12.12a.72.72 0 011.18-.67l9.51 8.43-2.92 3.84 1-.1-4 7.25-33.48.83v-4.46z"/><g id="number-8"><path id="circle" class="cls-5" d="M400 428.42a22.14 22.14 0 1122.14-22.14A22.17 22.17 0 01400 428.42zm0-41a18.88 18.88 0 1018.88 18.88A18.9 18.9 0 00400 387.4z"/><path class="cls-5" d="M400 413.78c-3 0-5.83-1.31-5.83-4a4.16 4.16 0 013.11-3.72c-1.61-.56-2.87-1.61-2.87-3.41 0-2.72 2.89-3.83 5.59-3.83s5.59 1.11 5.59 3.83c0 1.81-1.28 2.85-2.89 3.41a4.19 4.19 0 013.13 3.72c.04 2.67-2.74 4-5.83 4zm0-6.35c-.91.13-2.7.72-2.7 1.94 0 1.07 1.17 1.76 2.7 1.76s2.7-.7 2.7-1.76c.04-1.23-1.77-1.81-2.7-1.95zm0-6c-1.44 0-2.46.61-2.46 1.65s1.57 1.59 2.46 1.72c.89-.13 2.44-.63 2.44-1.72s-.98-1.64-2.44-1.64z" id="number"/></g><g id="netherlands-crest-2004"><path class="cls-5" d="M399.53 365c-.11 0-.21.11-.32.11-.54 0-2.21.15-2.29 1.48a.59.59 0 01-.5.53c-.79.13-2.1.59-1.37 2.16 0 0 .07.8.76.59s2.72-.59 3.54.82a.57.57 0 01-.31.82c-.82.29-2.26.9-2.19 1.52 0 0 0 2.32.87 1.53s5.2-.17 5.79-3.16 2.71-7.27-3.98-6.4zm-1.21 2.2a.54.54 0 01-.54-.54c0-.3.24-.21.54-.21s.54-.09.54.21a.54.54 0 01-.53.59z"/><rect class="cls-5" x="395.64" y="376.23" width="8.62" height="1.61" rx=".74" ry=".74"/></g></g></g><path id="neck-2" data-name="neck" fill="#663819" d="M427.63 341.26l-27.59 8.62-28.6-9.62-1.92-23.62h61.04l-2.93 24.62z"/><path d="M502.88 369.43l-2.47-30.36c-1.19-11.87-11.83-22.25-23.72-23.14l-37.14-2.71c-4.07-.45-20.52-.09-39.55.53-19-.62-35.48-1-39.55-.53l-37.14 2.71c-11.89.89-22.53 11.27-23.72 23.14l-2.47 30.36a20.15 20.15 0 005 15.74 19.92 19.92 0 001.69 1.64v66.36c0 12.81 9.32 23.22 20.78 23.22a19.8 19.8 0 0015.25-7.39v21.79a12.23 12.23 0 007.74 11.36v68h-5.93c-10.93 0-19.83 5.8-19.83 17.11 0 8.06 0 17 11.72 19.7v1.6a1.38 1.38 0 001.38 1.38h1.63a1.38 1.38 0 001.38-1.37v-.95c1.16.09 2.39.15 3.73.15h1.89v.8a1.38 1.38 0 001.38 1.38h1.63a1.38 1.38 0 001.38-1.37v-.8h5.62v.8a1.38 1.38 0 001.38 1.38h1.63a1.38 1.38 0 001.38-1.37v-.8h5.62v.8a1.38 1.38 0 001.38 1.38h1.63a1.38 1.38 0 001.38-1.37v-.8h5.62v.8a1.38 1.38 0 001.38 1.38h1.63a1.38 1.38 0 001.38-1.37v-.8h5.62v.8a1.38 1.38 0 001.38 1.38h1.63a1.38 1.38 0 001.38-1.37v-.8h5.62v.8a1.38 1.38 0 001.38 1.38h1.63a1.38 1.38 0 001.38-1.37v-.81l.06-55.45V503h4v49.21l.06 54.67v1.6a1.38 1.38 0 001.38 1.38h1.63a1.38 1.38 0 001.38-1.37v-.8h5.62v.8a1.38 1.38 0 001.38 1.38h1.63a1.38 1.38 0 001.38-1.37v-.8h5.62v.8a1.38 1.38 0 001.38 1.38h1.63a1.38 1.38 0 001.38-1.37v-.8h5.62v.8a1.38 1.38 0 001.38 1.38h1.63a1.38 1.38 0 001.38-1.37v-.8h5.62v.8a1.38 1.38 0 001.38 1.38h1.63a1.38 1.38 0 001.38-1.37v-.8h5.62v.8a1.38 1.38 0 001.38 1.38h1.63a1.38 1.38 0 001.38-1.37v-.8h1.89c1.33 0 2.57-.05 3.72-.15v.95a1.38 1.38 0 001.38 1.38h1.63a1.38 1.38 0 001.38-1.37v-1.6c11.71-2.68 11.72-11.64 11.72-19.7 0-11.3-8.89-17.11-19.83-17.11h-5.93v-68a12.23 12.23 0 007.74-11.36V469a19.8 19.8 0 0015.21 7.42c11.46 0 20.78-10.42 20.78-23.22v-66.39a19.92 19.92 0 001.69-1.64 20.15 20.15 0 004.95-15.74zm-130.49-46.18c3.46 1.84 15.64 2.07 27.61 1.79 12 .28 24.15 0 27.61-1.79V335c0 4.8-22.42 12-27.23 12l-.38-.08-.38.08c-4.8 0-27.23-7.19-27.23-12zm-33 75.43v55c0 9.5-6.63 17.22-14.78 17.22s-14.78-7.73-14.78-17.22V390.9a21.08 21.08 0 007.47 1.36h22.09zm52.9 203.42h-50.64c-14.22 0-14.22-5-14.22-14.89 0-8.21 6.38-11.5 14.22-11.5h11.67l38.93-2.71.06 15.37zm-38.74-76.4h38.67v41.7l-38.67 2.68h-.26V525.7zm-.26-5.74V503h38.94v17h-38.91zm104.77 55.75h.26c7.84 0 14.22 3.29 14.22 11.5 0 9.91 0 14.89-14.22 14.89h-50.64v-13.7l.06-15.37 38.93 2.69h11.42zm-11.67-50h.26v44.4h-.26l-38.67-2.68V525.7zM407.75 520v-17h38.95v17h-38.95zm46.84-73.77h-.07v44.58a6.6 6.6 0 01-6.58 6.58H403s-.11-3.73-.16-8.75v-2.79c0-3.51-1.41-5.09-2.82-5-1.41-.09-2.82 1.49-2.82 5v2.79c0 5-.16 8.75-.16 8.75H352.1a6.6 6.6 0 01-6.58-6.58v-44.63h-.07v-.33l30.24.33h48.69l30.24-.33zm35.57 7.51c0 9.5-6.63 17.22-14.78 17.22s-14.78-7.73-14.78-17.22v-61.48h22.09a21.08 21.08 0 007.47-1.36zm6-77.21a13.53 13.53 0 01-6 7.29 14.69 14.69 0 01-7.47 2l-22.09.09v-20.19c0-5.56-6.07-5.94-6.07 0s.07 14.37.07 14.37v59.59H345.41v-59.61s.07-8.46.07-14.37-6.07-5.54-6.07 0v20.11l-22.09-.09a14.69 14.69 0 01-7.47-2 13.53 13.53 0 01-6-7.29 14.89 14.89 0 01-.75-6.46l2.47-30.36c.89-9 9.23-17.08 18.2-17.75l11.12-.83 32.22-2.29c.68.54.48 17.49.48 17.49 0 8.43 23.34 15.29 31.77 15.29h1.3c8.43 0 31.77-6.86 31.77-15.29 0 0-.2-16.95.48-17.49l32.22 2.29 11.12.83c9 .67 17.3 8.8 18.2 17.75L496.9 370a14.89 14.89 0 01-.75 6.48z" id="border"/><g id="head"><path class="cls-7" d="M440.18 262.43a8.52 8.52 0 00.43-2.79c0-2.37-.79-4.29-1.76-4.29s-1.76 1.92-1.76 4.29a8.52 8.52 0 00.43 2.79 9.19 9.19 0 000 5.58 9.19 9.19 0 000 5.58 9.19 9.19 0 000 5.58 9.19 9.19 0 000 5.58 9.19 9.19 0 000 5.58 8.52 8.52 0 00-.43 2.79c0 2.37.79 8.22 1.76 8.22s1.76-5.85 1.76-8.22a8.52 8.52 0 00-.43-2.79 9.19 9.19 0 000-5.58 9.2 9.2 0 000-5.58 9.19 9.19 0 000-5.58 9.2 9.2 0 000-5.58 9.19 9.19 0 000-5.58z"/><path class="cls-7" d="M417 240.37a19.51 19.51 0 00-2.62-4.37c-2.63-3.39-5.65-5.45-6.73-4.61s.18 4.27 2.81 7.66a19.51 19.51 0 003.58 3.62 21.22 21.22 0 006.21 8 21.23 21.23 0 006.21 8 21.22 21.22 0 006.21 8 21.23 21.23 0 006.21 8 21.22 21.22 0 006.21 8 19.51 19.51 0 002.62 4.37c2.63 3.39 10 11.07 11.1 10.23s-4.55-9.89-7.18-13.28a19.51 19.51 0 00-3.58-3.62 21.23 21.23 0 00-6.21-8 21.23 21.23 0 00-6.21-8 21.23 21.23 0 00-6.21-8 21.23 21.23 0 00-6.21-8 21.23 21.23 0 00-6.21-8z"/><path class="cls-7" d="M449.16 261.89a21.41 21.41 0 001.18-4.95c.53-4.26 0-7.84-1.27-8s-2.66 3.17-3.2 7.43a21.41 21.41 0 00-.08 5.08 23.35 23.35 0 00-1.25 10 23.35 23.35 0 00-1.25 10 23.35 23.35 0 00-1.25 10 23.35 23.35 0 00-1.25 10 23.35 23.35 0 00-1.25 10 21.41 21.41 0 00-1.18 4.95c-.53 4.26-.85 14.9.39 15.05s3.55-10.24 4.08-14.5a21.41 21.41 0 00.08-5.08 23.35 23.35 0 001.25-10 23.35 23.35 0 001.25-10 23.35 23.35 0 001.25-10 23.35 23.35 0 001.25-10 23.35 23.35 0 001.25-10z"/><path class="cls-7" d="M439 273.41a14.26 14.26 0 00-.53-4.7c-1-3.83-3.16-6.58-4.73-6.16s-2 3.88-1 7.7a14.26 14.26 0 001.93 4.32 15.39 15.39 0 002.45 9 15.39 15.39 0 002.45 9 15.39 15.39 0 002.45 9 15.39 15.39 0 002.45 9 15.39 15.39 0 002.45 9 14.26 14.26 0 00.53 4.7c1 3.83 4.88 12.93 6.46 12.5s.28-10.22-.76-14.05a14.26 14.26 0 00-1.93-4.32 15.39 15.39 0 00-2.45-9 15.39 15.39 0 00-2.45-9 15.39 15.39 0 00-2.45-9 15.39 15.39 0 00-2.45-9 15.39 15.39 0 00-2.45-9z"/><path class="cls-7" d="M437.28 248a19.51 19.51 0 00.61-5.05c0-4.29-1.11-7.77-2.48-7.77s-2.48 3.48-2.48 7.77a19.51 19.51 0 00.61 5.05 21.22 21.22 0 000 10.11 21.23 21.23 0 000 10.11 21.22 21.22 0 000 10.11 21.23 21.23 0 000 10.11 21.22 21.22 0 000 10.11 19.51 19.51 0 00-.61 5.05c0 4.29 1.11 14.89 2.48 14.89s2.48-10.6 2.48-14.89a19.51 19.51 0 00-.61-5.05 21.23 21.23 0 000-10.11 21.23 21.23 0 000-10.11 21.23 21.23 0 000-10.11 21.23 21.23 0 000-10.11 21.23 21.23 0 000-10.11z"/><path class="cls-7" d="M425.65 255.34a21.41 21.41 0 00-2.16-4.6c-2.24-3.66-4.91-6.11-6-5.46s-.1 4.14 2.13 7.8a21.41 21.41 0 003.11 4 23.35 23.35 0 005.27 8.62 23.35 23.35 0 005.27 8.63 23.35 23.35 0 005.27 8.62 23.35 23.35 0 005.27 8.63 23.35 23.35 0 005.27 8.62 21.41 21.41 0 002.16 4.6c2.24 3.66 8.63 12.18 9.69 11.53s-3.61-10.21-5.85-13.88a21.41 21.41 0 00-3.11-4 23.35 23.35 0 00-5.27-8.62 23.35 23.35 0 00-5.27-8.63 23.35 23.35 0 00-5.27-8.62 23.35 23.35 0 00-5.27-8.63 23.35 23.35 0 00-5.27-8.62zm-72.51 9.2a21.45 21.45 0 01-1.18-5c-.53-4.27 0-7.85 1.27-8s2.67 3.18 3.2 7.45a21.45 21.45 0 01.08 5.09 23.39 23.39 0 011.25 10 23.39 23.39 0 011.25 10 23.39 23.39 0 011.25 10 23.39 23.39 0 011.25 10 23.39 23.39 0 011.25 10 21.45 21.45 0 011.18 5c.53 4.27.85 14.93-.39 15.08s-3.55-10.26-4.08-14.52a21.45 21.45 0 01-.08-5.09 23.39 23.39 0 01-1.25-10 23.39 23.39 0 01-1.25-10 23.39 23.39 0 01-1.25-10 23.39 23.39 0 01-1.25-10 23.39 23.39 0 01-1.25-10z"/><path class="cls-7" d="M361.85 262.1a14.29 14.29 0 01.53-4.71c1-3.83 3.16-6.6 4.74-6.17s2 3.88 1 7.72a14.29 14.29 0 01-1.93 4.32 15.42 15.42 0 01-2.46 9 15.42 15.42 0 01-2.46 9 15.42 15.42 0 01-2.46 9 15.42 15.42 0 01-2.46 9 15.42 15.42 0 01-2.46 9 14.29 14.29 0 01-.53 4.71c-1 3.83-4.89 13-6.47 12.53s-.28-10.24.77-14.08a14.29 14.29 0 011.93-4.32 15.42 15.42 0 012.46-9 15.42 15.42 0 012.46-9 15.42 15.42 0 012.46-9 15.42 15.42 0 012.46-9 15.42 15.42 0 012.46-9z"/><path class="cls-7" d="M365.13 243.67a21.45 21.45 0 011.5-4.87c1.71-3.95 4-6.74 5.16-6.25s.68 4.09-1 8a21.45 21.45 0 01-2.52 4.43 23.39 23.39 0 01-4 9.29 23.39 23.39 0 01-4 9.29 23.39 23.39 0 01-4 9.29 23.39 23.39 0 01-4 9.29 23.39 23.39 0 01-4 9.29 21.45 21.45 0 01-1.5 4.87c-1.71 3.95-6.85 13.29-8 12.79s2.15-10.64 3.85-14.58a21.45 21.45 0 012.52-4.43 23.39 23.39 0 014-9.29 23.39 23.39 0 014-9.29 23.39 23.39 0 014-9.29 23.39 23.39 0 014-9.29 23.39 23.39 0 014-9.29z"/><path class="cls-7" d="M359.22 259.23a11.66 11.66 0 00.36-3c0-2.56-.66-4.64-1.48-4.64s-1.48 2.08-1.48 4.64a11.66 11.66 0 00.36 3 12.68 12.68 0 000 6 12.68 12.68 0 000 6 12.68 12.68 0 000 6 12.68 12.68 0 000 6 12.68 12.68 0 000 6 11.66 11.66 0 00-.36 3c0 2.56.66 8.9 1.48 8.9s1.48-6.33 1.48-8.9a11.66 11.66 0 00-.36-3 12.68 12.68 0 000-6 12.68 12.68 0 000-6 12.68 12.68 0 000-6 12.68 12.68 0 000-6 12.68 12.68 0 000-6z"/><path class="cls-7" d="M361.8 262.53a12.79 12.79 0 00.33-3c0-2.56-.6-4.64-1.34-4.64s-1.34 2.08-1.34 4.64a12.79 12.79 0 00.33 3 13.95 13.95 0 000 6 13.95 13.95 0 000 6 13.95 13.95 0 000 6 13.95 13.95 0 000 6 13.95 13.95 0 000 6 12.79 12.79 0 00-.33 3c0 2.56.6 8.9 1.34 8.9s1.34-6.33 1.34-8.9a12.79 12.79 0 00-.33-3 13.95 13.95 0 000-6 13.95 13.95 0 000-6 13.95 13.95 0 000-6 13.95 13.95 0 000-6 13.95 13.95 0 000-6z"/><path id="skin-2" data-name="skin" class="cls-1" d="M446.38 254.1c0-.91.08-1.81.08-2.73 0-30.51-21.06-55.25-47-55.25s-47 24.74-47 55.25c0 1.11 0 2.21.1 3.31-4 2.46-6.9 8.44-6.9 15.43 0 9.19 4.93 16.64 11 16.64a7.47 7.47 0 002.1-.31c.82 24.5 18.74 44.08 40.73 44.08s40.12-19.81 40.74-44.5a7.65 7.65 0 003.25.74c6.08 0 11-7.45 11-16.64-.05-7.65-3.48-14.06-8.1-16.02z"/><path id="border-2" data-name="border" d="M446.38 254.1c0-.91.08-1.81.08-2.73 0-30.51-21.06-55.25-47-55.25s-47 24.74-47 55.25c0 1.11 0 2.21.1 3.31-4 2.46-6.9 8.44-6.9 15.43 0 9.19 4.93 16.64 11 16.64a7.47 7.47 0 002.1-.31c.82 24.5 18.74 44.08 40.73 44.08s40.12-19.81 40.74-44.5a7.65 7.65 0 003.25.74c6.08 0 11-7.45 11-16.64-.05-7.65-3.48-14.06-8.1-16.02z" stroke="#231f20" stroke-linecap="round" stroke-linejoin="round" stroke-width="6" fill="#7d4921"/><path class="cls-7" d="M437.58 217.19c-10.57-11.56-18.43-20-29.81-20.44l-7.77.75-7.73-.75c-11.39.41-19.25 8.88-29.81 20.44s-8.91 39.31-8.91 39.31 12.38-11.62 11.38-28.25c-.49-8.11 6.25-18.12 11.75-14.12s23.32 1.62 23.32 1.62 17.87 2.38 23.37-1.62 12.24 6 11.75 14.13c-1 16.63 11.38 28.25 11.38 28.25s1.65-27.76-8.92-39.32z"/><path class="cls-7" d="M451.42 248.89a2.29 2.29 0 00-.37-3.49 2.29 2.29 0 00-.37-3.49 2.29 2.29 0 00-.37-3.49 2.28 2.28 0 00-.63-3.63 2.27 2.27 0 00-.75-3.5 2.27 2.27 0 00-1.17-3.64 2.26 2.26 0 00-1.34-3.11 2.31 2.31 0 000-.44 2.26 2.26 0 00-1.68-2.19 2.29 2.29 0 00.26-.91 2.26 2.26 0 00-1.7-2.2v-.07a2.27 2.27 0 00-1.32-2.07v-.21a2.27 2.27 0 00-1.31-2.06v-.21a2.27 2.27 0 00-1.32-2.07 2.24 2.24 0 00-2.21-2h-.18a2.26 2.26 0 00-2.24-2.27h-.18a2.26 2.26 0 00-2.24-2.27h-.18a2.26 2.26 0 00-2.24-2.27h-.18a2.26 2.26 0 00-2.24-2.27h-.18a2.26 2.26 0 00-2.24-2.27 2.2 2.2 0 00-.39 0 2.24 2.24 0 00-2.2-1.91 2.19 2.19 0 00-.79.15 2.25 2.25 0 00-2.2-1.86 2.19 2.19 0 00-.94.22 2.24 2.24 0 00-2.14-1.64 2.19 2.19 0 00-1 .27 2.22 2.22 0 00-1.92-1.12 2.19 2.19 0 00-1.11.31 2.23 2.23 0 00-2-1.29 2.17 2.17 0 01-2.92 0 2.17 2.17 0 01-2.75 0 2.17 2.17 0 01-2.79 0 2.24 2.24 0 00-2.05 1.37 2.24 2.24 0 00-2-1.37 2.15 2.15 0 01-2.79 0 2.15 2.15 0 01-2.75 0 2.16 2.16 0 01-2.92 0 2.23 2.23 0 00-2 1.31 2.17 2.17 0 00-1.11-.32 2.22 2.22 0 00-1.92 1.13 2.17 2.17 0 00-1-.27 2.24 2.24 0 00-2.14 1.66 2.17 2.17 0 00-.94-.22 2.25 2.25 0 00-2.2 1.88 2.17 2.17 0 00-.79-.16 2.25 2.25 0 00-2.2 1.93 2.17 2.17 0 00-.39 0 2.27 2.27 0 00-2.24 2.3h-.18a2.27 2.27 0 00-2.24 2.3h-.18a2.27 2.27 0 00-2.24 2.3h-.18a2.27 2.27 0 00-2.24 2.3h-.18a2.27 2.27 0 00-2.24 2.3h-.18a2.25 2.25 0 00-2.21 2 2.3 2.3 0 00-1.32 2.09v.21a2.3 2.3 0 00-1.31 2.08v.21a2.3 2.3 0 00-1.32 2.09v.08a2.28 2.28 0 00-1.7 2.22 2.34 2.34 0 00.19.92 2.28 2.28 0 00-1.68 2.22 2.36 2.36 0 000 .45 2.28 2.28 0 00-1.56 2.18 2.33 2.33 0 00.21 1 2.28 2.28 0 00-1.69 2.22 2.31 2.31 0 00.52 1.46 2.31 2.31 0 00-.75 3.54 2.3 2.3 0 00-1.27 2.06 2.32 2.32 0 00.64 1.61 2.33 2.33 0 00-.37 3.53 2.33 2.33 0 00-.37 3.53 2.33 2.33 0 00-.37 3.53 2.31 2.31 0 00-1 1.92 2.24 2.24 0 104.48 0 2.32 2.32 0 00-.64-1.61 2.33 2.33 0 00.38-3.53 2.33 2.33 0 00.38-3.53 2.33 2.33 0 00.38-3.53 2.32 2.32 0 00.49-3.39 2.31 2.31 0 00.75-3.52 2.3 2.3 0 001.28-2.07 2.33 2.33 0 00-.21-1 2.28 2.28 0 001.69-2.22 2.37 2.37 0 000-.45 2.28 2.28 0 001.56-2.18 2.34 2.34 0 00-.19-.92 2.28 2.28 0 001.68-2.22v-.08a2.28 2.28 0 001.7-2.22v-.21a2.3 2.3 0 001.32-2.09v-.21a49.39 49.39 0 002.6-3.92h.18a2.27 2.27 0 002.24-2.3h.18a2.27 2.27 0 002.24-2.3h.18a2.27 2.27 0 002.24-2.3h.18a2.27 2.27 0 002.24-2.3h.18a2.25 2.25 0 002.2-1.93 2.18 2.18 0 00.39 0 2.25 2.25 0 002.2-1.88 2.17 2.17 0 00.79.16 2.24 2.24 0 002.14-1.66 2.17 2.17 0 00.94.22 2.22 2.22 0 001.92-1.13 2.17 2.17 0 001 .27 2.23 2.23 0 002-1.31 4.47 4.47 0 014 .32 2.15 2.15 0 012.75 0 2.15 2.15 0 012.79 0 2.24 2.24 0 002.06-1.4 2.23 2.23 0 002 1.35 2.17 2.17 0 012.79 0 2.17 2.17 0 012.75 0 2.17 2.17 0 012.92 0 2.19 2.19 0 001.11-.31 2.23 2.23 0 002 1.29 2.19 2.19 0 001-.27 2.22 2.22 0 001.92 1.12 2.19 2.19 0 00.94-.22 2.24 2.24 0 002.14 1.64 2.19 2.19 0 00.79-.15 2.25 2.25 0 002.2 1.86 2.2 2.2 0 00.39 0 2.24 2.24 0 002.2 1.91h.18a2.26 2.26 0 002.24 2.27h.18a2.26 2.26 0 002.24 2.27h.18a2.26 2.26 0 002.24 2.27h.18a2.26 2.26 0 002.24 2.27h.18a48.78 48.78 0 002.6 3.88v.21a2.27 2.27 0 001.32 2.07v.21a2.26 2.26 0 001.7 2.2v.07a2.26 2.26 0 001.68 2.19 2.29 2.29 0 00-.19.91 2.26 2.26 0 001.56 2.15 2.31 2.31 0 000 .44 2.26 2.26 0 001.69 2.2 2.27 2.27 0 001.07 3 2.27 2.27 0 00.75 3.48 2.27 2.27 0 00.49 3.35 2.29 2.29 0 00.38 3.49 2.29 2.29 0 00.38 3.49 2.29 2.29 0 00.38 3.49 2.28 2.28 0 00-.64 1.59 2.24 2.24 0 103.46-1.9z"/><path d="M438 263.31c-1.14 9.32-1.32 13.14-20.83 13.52-11.46.22-17.17-11.52-17.17-21s5.61-6.41 17.07-6.41S440 247.66 438 263.31zm-76.18 0c1.14 9.32 1.32 13.14 20.83 13.52 11.46.22 17.17-11.52 17.17-21s-5.61-6.41-17.07-6.41-22.85-1.76-20.93 13.89z" fill="#8c371e"/><path d="M446.53 257.12a18.12 18.12 0 00-3.29-4.75L429 249.6v.06a43.85 43.85 0 00-5.68-.29c-2 0-4.12.06-6.22.06h-1.59a102.89 102.89 0 00-30.93 0h-1.86c-2.1 0-4.21-.06-6.22-.06a46.68 46.68 0 00-5.2.24 18.67 18.67 0 00-3.25.63l-11 2.14a18.12 18.12 0 00-3.29 4.75c-.63 1.33 3.66.82 8.06 0a20.56 20.56 0 000 6.21c1.14 9.32 1.32 13.14 20.83 13.52h.35c11.25 0 16.85-11.61 16.85-21v-.16h.15v.16c0 9.39 5.6 21 16.85 21h.32c19.51-.37 19.69-4.2 20.83-13.52a20.36 20.36 0 000-6.34c4.54.9 9.18 1.5 8.53.12zm-55.87 9.33a9.08 9.08 0 01-7.7 4.38h-.2c-9.34-.18-12.54-1.19-13.57-2-.72-.57-1-3-1.37-5.82l-.05-.41c-.52-4.25.29-5.54.55-5.84 1.22-1.38 6.46-1.38 8.19-1.38h6.26c2.51 0 4.68-.13 6.62-.26 1.39.14 2.88.26 4.45.34v.32a19.4 19.4 0 01-3.18 10.67zm41.42-3.87l-.08.42c-.34 2.82-.64 5.25-1.37 5.82-1 .82-4.23 1.83-13.57 2h-.2a9.08 9.08 0 01-7.7-4.38 19.4 19.4 0 01-3.16-10.61v-.31c1.62-.08 3.15-.2 4.59-.34 1.91.13 4 .25 6.48.25h6.26c1.72 0 7 0 8.19 1.38.27.19 1.08 1.52.56 5.77z" fill="#a7a9ac"/></g></svg>