<svg id="player" xmlns="http://www.w3.org/2000/svg" viewBox="0 0 800 800"><defs><style>.cls-1{fill:#c0a58d}.cls-2{fill:#4153a4}.cls-3{fill:#27387f}.cls-4{fill:#fff}.cls-5{fill:#f9ed32}.cls-7{fill:#231f20}</style></defs><g id="skin"><path id="arm-left" class="cls-1" d="M305.93 388h36.78v72.4a18.39 18.39 0 01-18.39 18.39 18.39 18.39 0 01-18.39-18.39V388z"/><path id="arm-right" class="cls-1" d="M457.19 388H494v72.4a18.39 18.39 0 01-18.39 18.39 18.39 18.39 0 01-18.39-18.39V388h-.03z"/><path id="leg-left" class="cls-1" d="M349.88 498.02h45.67v45.67h-45.67z"/><path id="leg-right" class="cls-1" d="M404.78 498.02h45.67v45.67h-45.67z"/></g><g id="boots"><path id="left" class="cls-2" d="M395.33 576.04H372.5l-22.83 1.97h-12.5l-7.5 2.53-5.25 8.5v9.83l1.91 4.17 3.84 4.05 6.33 1.95h58.83v-33z"/><path id="right" class="cls-2" d="M404.61 576.27h22.83l22.83 1.97h12.5l7.5 2.53 5.25 8.5v9.83l-1.91 4.17-3.84 4.05-6.33 1.95h-58.83v-33z"/><path class="cls-3" d="M395 587.94s-82-3.8-68.67 15.06l3.4 5.08 16.27 1.79h49zm10 0s82-3.8 68.69 15.06l-3.4 5.08-16.29 1.79h-49z"/></g><g id="socks"><g id="socks-2" data-name="socks"><path id="left-2" data-name="left" class="cls-3" d="M349.88 528h45.67v48.04h-45.67z"/><path id="right-2" data-name="right" class="cls-3" d="M404.38 528h45.67v48.04h-45.67z"/></g><g id="details"><path id="left-3" data-name="left" class="cls-4" d="M349.88 565.12h45.71v10.92h-45.71z"/><path id="right-3" data-name="right" class="cls-4" d="M404.75 565.12h45.71v10.92h-45.71z"/></g></g><g id="shorts"><path id="shorts-2" data-name="shorts" class="cls-4" d="M341.67 448.54h116.49v47a9.95 9.95 0 01-9.95 9.95h-96.6a9.95 9.95 0 01-9.95-9.95v-47h.01z"/><g id="details-2" data-name="details"><path class="cls-3" d="M348.41 450.87h2.83v44a1.41 1.41 0 01-1.41 1.41 1.41 1.41 0 01-1.41-1.41v-44zm5.83 0h2.83v44a1.41 1.41 0 01-1.41 1.41 1.41 1.41 0 01-1.41-1.41v-44z" id="left-4" data-name="left"/><path class="cls-3" d="M443.11 450.87h2.83v44a1.41 1.41 0 01-1.41 1.41 1.41 1.41 0 01-1.41-1.41v-44zm5.83 0h2.83v44a1.41 1.41 0 01-1.41 1.41 1.41 1.41 0 01-1.41-1.41v-44h-.01z" id="right-4" data-name="right"/></g></g><g id="shirt"><path id="shirt-2" data-name="shirt" class="cls-3" d="M369.5 320.8l-48.29 2.99-11.36 6.25-6.83 10.1-3.31 40.73 5.17 7.67 7.66 4.67h29.5l.17 54h114.83v-53.5l29.34-.17 7.01-4 6.99-10.5-3.4-37.33-6.83-11.84-9.77-6.08-49.84-2.99-1 21.24-6.5 6.5-11.16 3.48-11.88 2.02-15.46-3.17-11-5.66-3.66-3.84-.38-20.57z"/><g id="details-3" data-name="details"><g id="adidas"><rect id="bottom" class="cls-4" x="354.29" y="372.5" width="13.39" height="1.89" rx=".94" ry=".94"/><g id="stripes"><path id="stripe-3" class="cls-4" d="M361 364.83a1.18 1.18 0 00-.43 1.6l2.75 4.78a1.18 1.18 0 001 .59h2.06l-3.78-6.54a1.18 1.18 0 00-1.6-.43z"/><path id="stripe-2" class="cls-4" d="M358.69 367.2a1.18 1.18 0 00-.43 1.59l1.35 2.4a1.18 1.18 0 001 .6h2l-2.37-4.16a1.18 1.18 0 00-1.55-.43z"/><path id="stripe-1" class="cls-4" d="M356.11 369.27a1.18 1.18 0 00-.44 1.59l.18.33a1.18 1.18 0 001 .61h2l-1.2-2.09a1.18 1.18 0 00-1.54-.44z"/></g></g><g id="japan-crest-2002"><path class="cls-4" d="M439.31 358.28h-5.51a4.27 4.27 0 00-4.27 4.27v6.7a5.23 5.23 0 001.34 3.53 6.2 6.2 0 001.69 1.31l3.11 1.9a1.7 1.7 0 001.78 0l3.11-1.9a6.2 6.2 0 001.69-1.31 5.23 5.23 0 001.34-3.53v-6.7a4.27 4.27 0 00-4.28-4.27z"/><path class="cls-5" d="M434.07 359.16a3.85 3.85 0 00-3.85 3.85v6a4.71 4.71 0 001.2 3.18 5.6 5.6 0 001.53 1.18l1.49.91v-15.12z"/><path d="M436.55 359.16h-2.11v15.17l1.31.8a1.53 1.53 0 001.6 0l1.31-.8v-15.17z" fill="#ed1c24"/><path class="cls-5" d="M439 359.16h-.37v15.17l1.49-.91a5.6 5.6 0 001.53-1.18 4.71 4.71 0 001.2-3.18v-6a3.85 3.85 0 00-3.85-3.9z"/><path class="cls-7" d="M435 362.93l-2 1.16a1.07 1.07 0 00-.55.91l-.09 4.67a1.07 1.07 0 001.37 1l3.24-1a.77.77 0 00.47-1.08 2 2 0 01.33-2.57l3.86-1.44a.35.35 0 00.09-.63c-.49-.32-.48-.68-2-.55l-2.2.25-1.48-.81a1.07 1.07 0 00-1.04.09z"/><circle class="cls-4" cx="435.76" cy="364.59" r=".64"/><rect class="cls-4" x="429.53" y="378.56" width="14.04" height="2.22" rx="1.11" ry="1.11"/></g><path class="cls-4" d="M404.43 399.47L398.5 413a1.86 1.86 0 01-1.71 1.1 1.8 1.8 0 01-1.82-1.79 1.67 1.67 0 01.15-.69l5.09-11.53h-7.16a1.6 1.6 0 01-1.59-1.64 1.59 1.59 0 011.59-1.56h9.77a1.82 1.82 0 011.76 1.84 1.62 1.62 0 01-.15.74z" id="number-7"/><g id="arm-l"><path class="cls-4" d="M367.43 326.17l-43.67 3.59a17.24 17.24 0 00-14.58 10.33 16.11 16.11 0 00-1 3.41c-1.23 7-2.81 22.21-3.18 27.4a1.73 1.73 0 01-1.73 1.6h-2.87l2.6-31.88 5.53-10.37 9-5.75 33.38-2.86 17.84-1.77z"/><path class="cls-4" d="M308 373.15h-.09a1 1 0 01-.91-1.08c0-.18 1.57-17.85 3.3-27.68a16.52 16.52 0 012.5-6.39 14.94 14.94 0 0111.35-6.36l45.3-3.26a1 1 0 11.14 2l-45.3 3.26a12.92 12.92 0 00-9.83 5.48 14.54 14.54 0 00-2.19 5.62c-1.71 9.74-3.26 27.33-3.28 27.51a1 1 0 01-.99.9z"/></g><g id="arm-r"><path class="cls-4" d="M432.55 326.17l43.67 3.59a17.24 17.24 0 0114.58 10.33 16.11 16.11 0 011 3.41c1.23 7 2.81 22.21 3.18 27.4a1.73 1.73 0 001.73 1.6h2.86L497 340.62l-5.53-10.37-9-5.75-33.37-2.86-17.84-1.77z"/><path class="cls-4" d="M492 373.15h.09a1 1 0 00.91-1.08c0-.18-1.57-17.85-3.3-27.68a16.52 16.52 0 00-2.5-6.39 14.94 14.94 0 00-11.35-6.36l-45.3-3.26a1 1 0 10-.14 2l45.3 3.26a12.92 12.92 0 019.83 5.48 14.54 14.54 0 012.19 5.62c1.71 9.74 3.26 27.33 3.28 27.51a1 1 0 00.99.9z"/></g></g></g><path id="neck" fill="#b19177" d="M427.63 346.26l-27.59 8.62-28.6-9.62-1.92-23.62h61.04l-2.93 24.62z"/><path d="M502.88 374.43l-2.47-30.36c-1.19-11.87-11.83-22.25-23.72-23.14l-37.14-2.71c-4.07-.45-20.52-.09-39.55.53-19-.62-35.48-1-39.55-.53l-37.14 2.71c-11.89.89-22.53 11.27-23.72 23.14l-2.47 30.36a20.15 20.15 0 005 15.74 19.92 19.92 0 001.69 1.64v66.36c0 12.81 9.32 23.22 20.78 23.22a19.8 19.8 0 0015.25-7.39v21.79a12.23 12.23 0 007.74 11.36v68h-5.93c-10.93 0-19.83 5.8-19.83 17.11 0 8.06 0 17 11.72 19.7v1.6a1.38 1.38 0 001.38 1.38h1.63a1.38 1.38 0 001.38-1.37v-.95c1.16.09 2.39.15 3.73.15h1.89v.8a1.38 1.38 0 001.38 1.38h1.63a1.38 1.38 0 001.38-1.37v-.8h5.62v.8a1.38 1.38 0 001.38 1.38h1.63a1.38 1.38 0 001.38-1.37v-.8h5.62v.8a1.38 1.38 0 001.38 1.38h1.63a1.38 1.38 0 001.38-1.37v-.8h5.62v.8a1.38 1.38 0 001.38 1.38h1.63a1.38 1.38 0 001.38-1.37v-.8h5.62v.8a1.38 1.38 0 001.38 1.38h1.63a1.38 1.38 0 001.38-1.37v-.8h5.62v.8a1.38 1.38 0 001.38 1.38h1.63a1.38 1.38 0 001.38-1.37v-.81l.06-55.45V508h4v49.21l.06 54.67v1.6a1.38 1.38 0 001.38 1.38h1.63a1.38 1.38 0 001.38-1.37v-.8h5.62v.8a1.38 1.38 0 001.38 1.38h1.63a1.38 1.38 0 001.38-1.37v-.8h5.62v.8a1.38 1.38 0 001.38 1.38h1.63a1.38 1.38 0 001.38-1.37v-.8h5.62v.8a1.38 1.38 0 001.38 1.38h1.63a1.38 1.38 0 001.38-1.37v-.8h5.62v.8a1.38 1.38 0 001.38 1.38h1.63a1.38 1.38 0 001.38-1.37v-.8h5.62v.8a1.38 1.38 0 001.38 1.38h1.63a1.38 1.38 0 001.38-1.37v-.8h1.89c1.33 0 2.57-.05 3.72-.15v.95a1.38 1.38 0 001.38 1.38h1.63a1.38 1.38 0 001.38-1.37v-1.6c11.71-2.68 11.72-11.64 11.72-19.7 0-11.3-8.89-17.11-19.83-17.11h-5.93v-68a12.23 12.23 0 007.74-11.36V474a19.8 19.8 0 0015.21 7.42c11.46 0 20.78-10.42 20.78-23.22v-66.39a19.92 19.92 0 001.69-1.64 20.15 20.15 0 004.95-15.74zm-130.49-46.18c3.46 1.84 15.64 2.07 27.61 1.79 12 .28 24.15 0 27.61-1.79V340c0 4.8-22.42 12-27.23 12l-.38-.08-.38.08c-4.8 0-27.23-7.19-27.23-12zm-33 75.43v55c0 9.5-6.63 17.22-14.78 17.22s-14.78-7.73-14.78-17.22V395.9a21.08 21.08 0 007.47 1.36h22.09zm52.9 203.42h-50.64c-14.22 0-14.22-5-14.22-14.89 0-8.21 6.38-11.5 14.22-11.5h11.67l38.93-2.71.06 15.37zm-38.74-76.4h38.67v41.7l-38.67 2.68h-.26V530.7zm-.26-5.74V508h38.94v17h-38.91zm104.77 55.75h.26c7.84 0 14.22 3.29 14.22 11.5 0 9.91 0 14.89-14.22 14.89h-50.64v-13.7l.06-15.37 38.93 2.69h11.42zm-11.67-50h.26v44.4h-.26l-38.67-2.68V530.7zM407.75 525v-17h38.95v17h-38.95zm46.84-73.77h-.07v44.58a6.6 6.6 0 01-6.58 6.58H403s-.11-3.73-.16-8.75v-2.79c0-3.51-1.41-5.09-2.82-5-1.41-.09-2.82 1.49-2.82 5v2.79c0 5-.16 8.75-.16 8.75H352.1a6.6 6.6 0 01-6.58-6.58v-44.63h-.07v-.33l30.24.33h48.69l30.24-.33zm35.57 7.51c0 9.5-6.63 17.22-14.78 17.22s-14.78-7.73-14.78-17.22v-61.48h22.09a21.08 21.08 0 007.47-1.36zm6-77.21a13.53 13.53 0 01-6 7.29 14.69 14.69 0 01-7.47 2l-22.09.09v-20.19c0-5.56-6.07-5.94-6.07 0s.07 14.37.07 14.37v59.59H345.41v-59.61s.07-8.46.07-14.37-6.07-5.54-6.07 0v20.11l-22.09-.09a14.69 14.69 0 01-7.47-2 13.53 13.53 0 01-6-7.29 14.89 14.89 0 01-.75-6.46l2.47-30.36c.89-9 9.23-17.08 18.2-17.75l11.12-.83 32.22-2.29c.68.54.48 17.49.48 17.49 0 8.43 23.34 15.29 31.77 15.29h1.3c8.43 0 31.77-6.86 31.77-15.29 0 0-.2-16.95.48-17.49l32.22 2.29 11.12.83c9 .67 17.3 8.8 18.2 17.75L496.9 375a14.89 14.89 0 01-.75 6.48z" id="border"/><g id="head"><path class="cls-7" d="M400 192a3.94 3.94 0 011.52.31c4.83 2 19.81 4.92 24.48 8.78 5.58 4.62 13.34 17.35 13.34 17.35a44.48 44.48 0 015.79 10.12l2.58 6c1 1.77.64 4.09 1.12 6.07 1.69 7 1.53 13.85 1.76 17.43l-7 2.38s-9.3-32.25-10.63-35.42c-.58-1.39-5.24-1.75-11.05-1.75-6.47 0-14.36.45-19.62.45h-4.48c-5.26 0-13.15-.45-19.62-.45-5.81 0-10.47.36-11.05 1.75-1.33 3.17-11.67 35.42-11.67 35.42l-6-2.37c.23-3.58.07-10.42 1.76-17.43.48-2 .1-4.3 1.12-6.07l2.58-6a44.48 44.48 0 015.79-10.12s7.76-12.73 13.34-17.35c4.66-3.86 19.64-6.76 24.48-8.78A3.94 3.94 0 01400 192m0-6a9.9 9.9 0 00-3.83.77c-1.29.54-4.13 1.34-6.88 2.11-8.81 2.47-15.33 4.46-19.11 7.59-6 4.92-13.23 16.55-14.52 18.65a50.53 50.53 0 00-6.34 11.18l-2.43 5.7a14.42 14.42 0 00-1.39 5.88 11.78 11.78 0 01-.15 1.39 78 78 0 00-1.81 15.9c0 1-.06 1.88-.11 2.56a6 6 0 003.78 6l6 2.38a6 6 0 007.92-3.75c4.14-12.92 8.8-27.23 10.7-32.75a59.24 59.24 0 016.31-.25c3.3 0 7 .12 10.6.24 3.31.11 6.43.21 9 .21h4.48c2.59 0 5.71-.1 9-.21 3.59-.12 7.29-.24 10.6-.24a59.92 59.92 0 016.26.25c1.77 5.53 6 19.78 9.66 32.58a6 6 0 007.68 4l7-2.37a6 6 0 004.07-6.07c0-.68-.07-1.55-.11-2.56a78 78 0 00-1.81-15.9 11.78 11.78 0 01-.15-1.39 14.42 14.42 0 00-1.39-5.88l-2.43-5.68a50.53 50.53 0 00-6.34-11.18c-1.29-2.1-8.57-13.73-14.52-18.65-3.78-3.13-10.3-5.12-19.11-7.59-2.75-.77-5.59-1.57-6.88-2.11A9.9 9.9 0 00400 186z"/><path id="skin-2" data-name="skin" class="cls-1" d="M446.38 259.1c0-.91.08-1.81.08-2.73 0-30.51-21.06-55.25-47-55.25s-47 24.74-47 55.25c0 1.11 0 2.21.1 3.31-4 2.46-6.9 8.44-6.9 15.43 0 9.19 4.93 16.64 11 16.64a7.47 7.47 0 002.1-.31c.82 24.5 18.74 44.08 40.73 44.08s40.12-19.81 40.74-44.5a7.65 7.65 0 003.25.74c6.08 0 11-7.45 11-16.64-.05-7.65-3.48-14.06-8.1-16.02z"/><path id="border-2" data-name="border" d="M446.38 259.1c0-.91.08-1.81.08-2.73 0-30.51-21.06-55.25-47-55.25s-47 24.74-47 55.25c0 1.11 0 2.21.1 3.31-4 2.46-6.9 8.44-6.9 15.43 0 9.19 4.93 16.64 11 16.64a7.47 7.47 0 002.1-.31c.82 24.5 18.74 44.08 40.73 44.08s40.12-19.81 40.74-44.5a7.65 7.65 0 003.25.74c6.08 0 11-7.45 11-16.64-.05-7.65-3.48-14.06-8.1-16.02z" stroke="#231f20" stroke-linecap="round" stroke-linejoin="round" stroke-width="6" fill="#c0a58d"/><path d="M448.82 240.69c-.48-2-.1-4.3-1.12-6.07l-2.58-6a44.48 44.48 0 00-5.79-10.12s-7.76-12.73-13.34-17.35c-4.66-3.86-19.64-6.76-24.48-8.78a3.93 3.93 0 00-3 0c-4.83 2-19.81 4.92-24.48 8.78-5.58 4.62-13.34 17.35-13.34 17.35a44.48 44.48 0 00-5.79 10.12l-2.58 6c-1 1.77-.64 4.09-1.12 6.07-1.69 7-1.53 13.85-1.76 17.43l6 2.38s10.33-37.25 11.67-40.42 24 4 32.91 3.67c8.92.33 31.58-6.83 32.91-3.67s10.63 40.42 10.63 40.42l7-2.37c-.21-3.59-.05-10.43-1.74-17.44z" fill="#702e1d"/></g></svg>