<svg id="player" xmlns="http://www.w3.org/2000/svg" viewBox="0 0 800 800"><defs><style>.cls-1{fill:#e4b69d}.cls-2{fill:#414042}.cls-3{fill:#fff}.cls-4{fill:#363436}</style></defs><g id="skin"><path id="arm-left" class="cls-1" d="M305.93 386h36.78v72.4a18.39 18.39 0 01-18.39 18.39 18.39 18.39 0 01-18.39-18.39V386z"/><path id="arm-right" class="cls-1" d="M457.19 386H494v72.4a18.39 18.39 0 01-18.39 18.39 18.39 18.39 0 01-18.39-18.39V386z"/><path id="leg-left" class="cls-1" d="M349.88 478.02h45.67v63.67h-45.67z"/><path id="leg-right" class="cls-1" d="M404.78 478.02h45.67v63.67h-45.67z"/></g><g id="boots"><path id="left" class="cls-2" d="M395.33 574.04H372.5l-22.83 1.97h-12.5l-7.5 2.53-5.25 8.5v9.83l1.91 4.17 3.84 4.05 6.33 1.95h58.83v-33z"/><path id="right" class="cls-2" d="M404.61 574.27h22.83l22.83 1.97h12.5l7.5 2.53 5.25 8.5v9.83l-1.91 4.17-3.84 4.05-6.33 1.95h-58.83v-33z"/></g><g id="socks"><g id="socks-2" data-name="socks"><path id="left-2" data-name="left" class="cls-3" d="M349.88 526h45.67v48.04h-45.67z"/><path id="right-2" data-name="right" class="cls-3" d="M404.38 526h45.67v48.04h-45.67z"/></g></g><g id="shorts"><path id="shorts-2" data-name="shorts" class="cls-4" d="M341.67 438.54h116.49v37a9.95 9.95 0 01-9.95 9.95h-96.6a9.95 9.95 0 01-9.95-9.95v-37h.01z"/></g><g id="shirt"><path id="shirt-2" data-name="shirt" class="cls-3" d="M369.5 318.8l-48.29 2.99-11.36 6.25-6.83 10.1-3.31 40.73 5.17 7.67 7.66 4.67h29.5l.17 47h114.83v-46.5l29.34-.17 7.01-4 6.99-10.5-3.4-37.33-6.83-11.84-9.77-6.08-49.84-2.99-1 21.24-6.5 6.5-11.16 3.48-11.88 2.02-15.46-3.17-11-5.66-3.66-3.84-.38-20.57z"/><g id="details"><path id="arm-l" class="cls-4" d="M301.67 381.5h41.04v10.42h-29.79l-8.04-5.38-3.21-5.04z"/><path id="arm-r" class="cls-4" d="M498.23 381.5h-41.04v10.42h29.79l8.04-5.38 3.21-5.04z"/><path id="neck" class="cls-4" d="M434.84 317l-10.41 22.19L400 349.7l-24.38-10.49L365.25 317l-7.58 1v11.39A31.34 31.34 0 00380 359.62a73.48 73.48 0 0040 0 31.34 31.34 0 0022.35-30.2V318z"/><g id="duetschland-crest-1970"><circle class="cls-3" cx="431.12" cy="377.29" r="9.63"/><path class="cls-4" d="M431.12 367.66a9.63 9.63 0 11-9.63 9.63 9.63 9.63 0 019.63-9.63m0-1.17a10.8 10.8 0 1010.8 10.8 10.81 10.81 0 00-10.8-10.8z"/><circle class="cls-3" cx="431.12" cy="377.29" r="6.37"/><path class="cls-4" d="M431.12 370.92a6.37 6.37 0 11-6.37 6.37 6.37 6.37 0 016.37-6.37m0-1.17a7.54 7.54 0 107.54 7.54 7.55 7.55 0 00-7.54-7.54z"/><path class="cls-4" d="M434.87 375.89a1.36 1.36 0 00-1.32-1.05H432v-1.76a.52.52 0 00-.52-.52h-.71c-.39 0-.52.52-.52.52a1.67 1.67 0 00-1.34 1.07.2.2 0 00.18.27h.91l-.08.43h-1.22a1.36 1.36 0 00-1.32 1.05l-1.16 5h.7a.62.62 0 00.61-.48l.05-.23a.62.62 0 01.61-.48h.21a.62.62 0 00.61-.48.62.62 0 01.61-.48h.05l1.12 1.12a.47.47 0 00.67 0l1.12-1.12h.05a.62.62 0 01.61.48.62.62 0 00.61.48h.21a.62.62 0 01.61.48l.05.23a.62.62 0 00.61.48h.7z"/></g></g></g><path id="neck-2" data-name="neck" fill="#cea28b" d="M427.63 344.26l-27.59 8.62-28.6-9.62-1.92-23.62h61.04l-2.93 24.62z"/><path d="M502.88 372.43l-2.47-30.36c-1.19-11.87-11.83-22.25-23.72-23.14l-37.14-2.71c-4.07-.45-20.52-.09-39.55.53-19-.62-35.48-1-39.55-.53l-37.14 2.71c-11.89.89-22.53 11.27-23.72 23.14l-2.47 30.36a20.15 20.15 0 005 15.74 19.92 19.92 0 001.69 1.64v66.36c0 12.81 9.32 23.22 20.78 23.22a19.8 19.8 0 0015.25-7.39v3.79a12.23 12.23 0 007.74 11.36v86h-5.93c-10.93 0-19.83 5.8-19.83 17.11 0 8.06 0 17 11.72 19.7v1.6a1.38 1.38 0 001.38 1.38h1.63a1.38 1.38 0 001.38-1.37v-.95c1.16.09 2.39.15 3.73.15h1.89v.8a1.38 1.38 0 001.38 1.38h1.63a1.38 1.38 0 001.38-1.37v-.8h5.62v.8a1.38 1.38 0 001.38 1.38h1.63a1.38 1.38 0 001.38-1.37v-.8h5.62v.8a1.38 1.38 0 001.38 1.38h1.63a1.38 1.38 0 001.38-1.37v-.8h5.62v.8a1.38 1.38 0 001.38 1.38h1.63a1.38 1.38 0 001.38-1.37v-.8h5.62v.8a1.38 1.38 0 001.38 1.38h1.63a1.38 1.38 0 001.38-1.37v-.8h5.62v.8a1.38 1.38 0 001.38 1.38h1.63a1.38 1.38 0 001.38-1.37v-.81l.06-55.45V488h4v67.21l.06 54.67v1.6a1.38 1.38 0 001.38 1.38h1.63a1.38 1.38 0 001.38-1.37v-.8h5.62v.8a1.38 1.38 0 001.38 1.38h1.63a1.38 1.38 0 001.38-1.37v-.8h5.62v.8a1.38 1.38 0 001.38 1.38h1.63a1.38 1.38 0 001.38-1.37v-.8h5.62v.8a1.38 1.38 0 001.38 1.38h1.63a1.38 1.38 0 001.38-1.37v-.8h5.62v.8a1.38 1.38 0 001.38 1.38h1.63a1.38 1.38 0 001.38-1.37v-.8h5.62v.8a1.38 1.38 0 001.38 1.38h1.63a1.38 1.38 0 001.38-1.37v-.8h1.89c1.33 0 2.57-.05 3.72-.15v.95a1.38 1.38 0 001.38 1.38h1.63a1.38 1.38 0 001.38-1.37v-1.6c11.71-2.68 11.72-11.64 11.72-19.7 0-11.3-8.89-17.11-19.83-17.11h-5.93v-86a12.23 12.23 0 007.74-11.36V472a19.8 19.8 0 0015.21 7.42c11.46 0 20.78-10.42 20.78-23.22v-66.39a19.92 19.92 0 001.69-1.64 20.15 20.15 0 004.95-15.74zm-130.49-46.18c3.46 1.84 15.64 2.07 27.61 1.79 12 .28 24.15 0 27.61-1.79V338c0 4.8-22.42 12-27.23 12l-.38-.08-.38.08c-4.8 0-27.23-7.19-27.23-12zm-33 67.43v55c0 17.5-6.63 25.22-14.78 25.22s-14.78-7.73-14.78-17.22V393.9a21.08 21.08 0 007.47 1.36h22.09zm52.9 211.42h-50.64c-14.22 0-14.22-5-14.22-14.89 0-8.21 6.38-11.5 14.22-11.5h11.67l38.93-2.71.06 15.37zm-38.74-76.4h38.67v41.7l-38.67 2.68h-.26V528.7zm-.26-5.74V488h38.94v35h-38.91zm104.77 55.75h.26c7.84 0 14.22 3.29 14.22 11.5 0 9.91 0 14.89-14.22 14.89h-50.64v-13.7l.06-15.37 38.93 2.69h11.42zm-11.67-50h.26v44.4h-.26l-38.67-2.68V528.7zM407.75 523v-35h38.95v35h-38.95zm46.84-81.77h-.07v34.58a6.6 6.6 0 01-6.58 6.58H403s-.11-3.73-.16-8.75v-2.79c0-3.51-1.41-5.09-2.82-5-1.41-.09-2.82 1.49-2.82 5v2.79c0 5-.16 8.75-.16 8.75H352.1a6.6 6.6 0 01-6.58-6.58v-34.63h-.07v-.33l30.24.33h48.69l30.24-.33zm35.57 15.51c0 9.5-6.63 17.22-14.78 17.22s-14.78-7.73-14.78-25.22v-53.48h22.09a21.08 21.08 0 007.47-1.36zm6-77.21a13.53 13.53 0 01-6 7.29 14.69 14.69 0 01-7.47 2l-22.09.09v-20.19c0-5.56-6.07-5.94-6.07 0s.07 14.37.07 14.37v51.59H345.41v-51.61s.07-8.46.07-14.37-6.07-5.54-6.07 0v20.11l-22.09-.09a14.69 14.69 0 01-7.47-2 13.53 13.53 0 01-6-7.29 14.89 14.89 0 01-.75-6.46l2.47-30.36c.89-9 9.23-17.08 18.2-17.75l11.12-.83 32.22-2.29c.68.54.48 17.49.48 17.49 0 8.43 23.34 15.29 31.77 15.29h1.3c8.43 0 31.77-6.86 31.77-15.29 0 0-.2-16.95.48-17.49l32.22 2.29 11.12.83c9 .67 17.3 8.8 18.2 17.75L496.9 373a14.89 14.89 0 01-.75 6.48z" id="border"/><g id="head"><path d="M411.6 193.36c7 0 20.11 10.26 20.11 10.26 7 .88 13.25 15.75 13.25 15.75 3.63 2.63 5.5 10 5.88 21.13s-4.62 15-4.62 15H446c-10.35 0-13.44-30.54-14.31-36-.64-4-10.62-9.27-15.95-9.27-1.94 0-3.27.7-3.3 2.4-.12 6.38-12.45 9.25-12.45 9.25s-12.33-2.87-12.45-9.25c0-1.7-1.36-2.4-3.3-2.4-5.33 0-15.31 5.24-15.95 9.27-.87 5.47-4 36-14.31 36h-.19s-5-3.87-4.62-15 2.25-18.5 5.88-21.12c0 0 6.25-14.87 13.25-15.75 0 0 13.13-10.26 20.11-10.26a5.66 5.66 0 011.27.13h.73c2.07 0 7.92.08 9.6 1 1.67-.92 7.52-1 9.6-1h.73a5.65 5.65 0 011.27-.13m0-6a12.09 12.09 0 00-1.79.13h-.22a47.59 47.59 0 00-9.6.71 47.59 47.59 0 00-9.6-.71h-.22a12.1 12.1 0 00-1.78-.13c-7.67 0-18.3 7.37-22.72 10.7-7.85 2.36-13.38 12.78-15.59 17.66-4.29 4.2-6.5 12.09-6.92 24.57a29.68 29.68 0 002.83 14.6 16 16 0 004.12 5.34 6 6 0 003.46 1.25h.4c12.85 0 17.29-19.69 19.94-39 .08-.6.15-1.13.22-1.56 1.17-1.44 5.17-3.64 8.15-4.45 3 7.66 13.9 10.61 16.35 11.18a6 6 0 002.73 0c2.45-.57 13.39-3.52 16.35-11.18 3 .81 7 3 8.15 4.45.06.43.13 1 .22 1.56 2.65 19.26 7.09 39 19.94 39h.4a6 6 0 003.46-1.25c.76-.59 7.41-6.15 6.95-19.94-.42-12.48-2.63-20.37-6.92-24.57-2.21-4.88-7.74-15.3-15.59-17.66-4.42-3.34-15.05-10.7-22.72-10.7z" fill="#231f20"/><path id="skin-2" data-name="skin" class="cls-1" d="M446.38 257.1c0-.91.08-1.81.08-2.73 0-30.51-21.06-55.25-47-55.25s-47 24.74-47 55.25c0 1.11 0 2.21.1 3.31-4 2.46-6.9 8.44-6.9 15.43 0 9.19 4.93 16.64 11 16.64a7.47 7.47 0 002.1-.31c.82 24.5 18.74 44.08 40.73 44.08s40.12-19.81 40.74-44.5a7.65 7.65 0 003.25.74c6.08 0 11-7.45 11-16.64-.05-7.65-3.48-14.06-8.1-16.02z"/><path id="border-2" data-name="border" d="M446.38 257.1c0-.91.08-1.81.08-2.73 0-30.51-21.06-55.25-47-55.25s-47 24.74-47 55.25c0 1.11 0 2.21.1 3.31-4 2.46-6.9 8.44-6.9 15.43 0 9.19 4.93 16.64 11 16.64a7.47 7.47 0 002.1-.31c.82 24.5 18.74 44.08 40.73 44.08s40.12-19.81 40.74-44.5a7.65 7.65 0 003.25.74c6.08 0 11-7.45 11-16.64-.05-7.65-3.48-14.06-8.1-16.02z" stroke="#231f20" stroke-linecap="round" stroke-linejoin="round" stroke-width="6" fill="#e4b69d"/><path d="M450.83 240.5c-.37-11.12-2.25-18.5-5.87-21.12 0 0-6.25-14.87-13.25-15.75 0 0-14.87-11.62-21.37-10.12 0 0-8.28-.12-10.33 1-2-1.12-10.33-1-10.33-1-6.5-1.5-21.37 10.13-21.37 10.13-7 .88-13.25 15.75-13.25 15.75-3.62 2.63-5.5 10-5.87 21.13s4.63 15 4.63 15c10.5.38 13.63-30.5 14.5-36s19.13-13.25 19.25-6.87 12.43 9.22 12.43 9.22 12.33-2.87 12.45-9.25 18.38 1.38 19.25 6.88 4 36.38 14.5 36c0 0 5-3.88 4.63-15z" fill="#47322d"/></g></svg>