<svg id="player" xmlns="http://www.w3.org/2000/svg" viewBox="0 0 800 800"><defs><style>.cls-1{fill:#68452b}.cls-2{fill:#232323}.cls-3{fill:#58595b}.cls-4{fill:#009974}.cls-5{fill:#fff}.cls-6{fill:#e41e25}.cls-9{fill:#231f20}</style></defs><g id="skin"><path id="arm-left" class="cls-1" d="M305.93 383h36.78v72.4a18.39 18.39 0 01-18.39 18.39 18.39 18.39 0 01-18.39-18.39V383z"/><path id="arm-right" class="cls-1" d="M457.19 383H494v72.4a18.39 18.39 0 01-18.39 18.39 18.39 18.39 0 01-18.39-18.39V383h-.03z"/><path id="leg-left" class="cls-1" d="M349.88 493.02h45.67v45.67h-45.67z"/><path id="leg-right" class="cls-1" d="M404.78 493.02h45.67v45.67h-45.67z"/></g><g id="boots"><path id="left" class="cls-2" d="M395.33 571.04H372.5l-22.83 1.97h-12.5l-7.5 2.53-5.25 8.5v9.83l1.91 4.17 3.84 4.05 6.33 1.95h58.83v-33z"/><path id="right" class="cls-2" d="M404.61 571.27h22.83l22.83 1.97h12.5l7.5 2.53 5.25 8.5v9.83l-1.91 4.17-3.84 4.05-6.33 1.95h-58.83v-33z"/><path class="cls-3" d="M393.44 571.88s-26.5 14.75-24.87 33.25h24.88zM361.19 573s-17.71 37.1-33.6 27.61c0 0-7.52-20.48.6-24.61zm45.37-1.12s26.5 14.75 24.88 33.25h-24.88zm32.25 1.12s17.71 37.1 33.6 27.61c0 0 7.52-20.48-.6-24.61z" id="details"/></g><g id="socks"><g id="socks-2" data-name="socks"><path id="left-2" data-name="left" class="cls-4" d="M349.88 523h45.67v48.04h-45.67z"/><path id="right-2" data-name="right" class="cls-4" d="M404.38 523h45.67v48.04h-45.67z"/></g><path class="cls-5" d="M349.88 556.25h45.46v6.88h-45.46zm54.16 0h45.46v6.88h-45.46z" id="details-2" data-name="details"/></g><g id="shorts"><path id="shorts-2" data-name="shorts" class="cls-4" d="M341.67 443.54h116.49v47a9.95 9.95 0 01-9.95 9.95h-96.6a9.95 9.95 0 01-9.95-9.95v-47h.01z"/></g><g id="shirt"><path id="shirt-2" data-name="shirt" class="cls-4" d="M369.5 315.8l-48.29 2.99-11.36 6.25-6.83 10.1-3.31 40.73 5.17 7.67 7.66 4.67h29.5l.17 54h114.83v-53.5l29.34-.17 7.01-4 6.99-10.5-3.4-37.33-6.83-11.84-9.77-6.08-49.84-2.99-1 21.24-6.5 6.5-11.16 3.48-11.88 2.02-15.46-3.17-11-5.66-3.66-3.84-.38-20.57z"/><g id="details-3" data-name="details"><g id="arm-l"><rect class="cls-5" x="311.76" y="353.25" width="4.67" height="34.96" rx="2.33" ry="2.33"/><rect class="cls-5" x="303.1" y="353.25" width="4.67" height="32.79" rx="2.33" ry="2.33"/></g><g id="arm-r"><rect class="cls-5" x="483.65" y="353.25" width="4.67" height="34.96" rx="2.33" ry="2.33" transform="rotate(180 485.985 370.725)"/><rect class="cls-5" x="492.32" y="353.25" width="4.67" height="32.79" rx="2.33" ry="2.33" transform="rotate(-180 494.65 369.645)"/></g><g id="adidas"><rect id="bottom" class="cls-5" x="355.49" y="368.97" width="11.28" height="1.59" rx=".62" ry=".62"/><path class="cls-5" d="M361.19 362.51a1 1 0 00-.36 1.35l2.31 4a1 1 0 00.86.5h1.73l-3.19-5.51a1 1 0 00-1.35-.34zm-1.98 2a1 1 0 00-.36 1.34l1.14 2a1 1 0 00.87.51h1.73l-2-3.51a1 1 0 00-1.38-.34zm-2.21 1.74a1 1 0 00-.37 1.34l.15.28a1 1 0 00.87.51h1.72l-1-1.76a1 1 0 00-1.37-.37z"/></g><g id="crest-nigeria"><circle class="cls-5" cx="435.45" cy="367.11" r="8.24"/><path class="cls-6" d="M435.45 375.94a8.83 8.83 0 118.83-8.83 8.84 8.84 0 01-8.83 8.83zm0-16.48a7.65 7.65 0 107.65 7.65 7.66 7.66 0 00-7.65-7.64z"/><path class="cls-6" d="M435.45 373.11a6 6 0 116-6 6 6 0 01-6 6zm0-11.28a5.28 5.28 0 105.28 5.28 5.29 5.29 0 00-5.28-5.28z"/><path class="cls-4" d="M436.18 366l.13-1.82a.64.64 0 00-.48-.66 1.12 1.12 0 00-1.19.25.08.08 0 01-.06 0 .83.83 0 00-.3.06c-.24.09-.66.29-.76.56a.08.08 0 00.08.11h1s.37 0 .31.43a3.07 3.07 0 01-.43.88c-.83-.64-2.15-1.41-2.07.24.12 2.39 0 4.22.23 4.26a3.67 3.67 0 001.32-1.26 2.69 2.69 0 001.38.31 2.55 2.55 0 001.46-.36 3.78 3.78 0 001.36 1.31c.24 0 .12-1.87.23-4.26.16-1.79-1.39-.71-2.21-.05z"/></g><path class="cls-5" d="M393.19 410a2 2 0 01-2-2v-11.7l-2.1 2.15a1.52 1.52 0 01-1.09.45 1.64 1.64 0 01-1.15-2.83l4.31-4.36a2.39 2.39 0 011.68-.67 2.3 2.3 0 012.32 2.27V408a2 2 0 01-1.97 2zm12.54.18c-5.34 0-7.72-4.84-7.72-9.65s2.38-9.62 7.72-9.62 7.72 4.81 7.72 9.62-2.45 9.65-7.72 9.65zm0-15.75c-2.69 0-3.69 2.66-3.69 6.1s1 6.13 3.69 6.13 3.67-2.69 3.67-6.13-1.02-6.11-3.67-6.11z" id="number-10"/><g id="asset-captain-band-two-colour"><path class="cls-3" d="M457.19 368.74h42.82V379h-42.82z"/><path class="cls-5" d="M461.9 358.47H500v10.26h-42.81v-5.55a4.71 4.71 0 014.71-4.71z"/></g></g></g><path id="neck" fill="#513623" d="M427.63 341.26l-27.59 8.62-28.6-9.62-1.92-23.62h61.04l-2.93 24.62z"/><path d="M502.88 369.43l-2.47-30.36c-1.19-11.87-11.83-22.25-23.72-23.14l-37.14-2.71c-4.07-.45-20.52-.09-39.55.53-19-.62-35.48-1-39.55-.53l-37.14 2.71c-11.89.89-22.53 11.27-23.72 23.14l-2.47 30.36a20.15 20.15 0 005 15.74 19.92 19.92 0 001.69 1.64v66.36c0 12.81 9.32 23.22 20.78 23.22a19.8 19.8 0 0015.25-7.39v21.79a12.23 12.23 0 007.74 11.36v68h-5.93c-10.93 0-19.83 5.8-19.83 17.11 0 8.06 0 17 11.72 19.7v1.6a1.38 1.38 0 001.38 1.38h1.63a1.38 1.38 0 001.38-1.37v-.95c1.16.09 2.39.15 3.73.15h1.89v.8a1.38 1.38 0 001.38 1.38h1.63a1.38 1.38 0 001.38-1.37v-.8h5.62v.8a1.38 1.38 0 001.38 1.38h1.63a1.38 1.38 0 001.38-1.37v-.8h5.62v.8a1.38 1.38 0 001.38 1.38h1.63a1.38 1.38 0 001.38-1.37v-.8h5.62v.8a1.38 1.38 0 001.38 1.38h1.63a1.38 1.38 0 001.38-1.37v-.8h5.62v.8a1.38 1.38 0 001.38 1.38h1.63a1.38 1.38 0 001.38-1.37v-.8h5.62v.8a1.38 1.38 0 001.38 1.38h1.63a1.38 1.38 0 001.38-1.37v-.81l.06-55.45V503h4v49.21l.06 54.67v1.6a1.38 1.38 0 001.38 1.38h1.63a1.38 1.38 0 001.38-1.37v-.8h5.62v.8a1.38 1.38 0 001.38 1.38h1.63a1.38 1.38 0 001.38-1.37v-.8h5.62v.8a1.38 1.38 0 001.38 1.38h1.63a1.38 1.38 0 001.38-1.37v-.8h5.62v.8a1.38 1.38 0 001.38 1.38h1.63a1.38 1.38 0 001.38-1.37v-.8h5.62v.8a1.38 1.38 0 001.38 1.38h1.63a1.38 1.38 0 001.38-1.37v-.8h5.62v.8a1.38 1.38 0 001.38 1.38h1.63a1.38 1.38 0 001.38-1.37v-.8h1.89c1.33 0 2.57-.05 3.72-.15v.95a1.38 1.38 0 001.38 1.38h1.63a1.38 1.38 0 001.38-1.37v-1.6c11.71-2.68 11.72-11.64 11.72-19.7 0-11.3-8.89-17.11-19.83-17.11h-5.93v-68a12.23 12.23 0 007.74-11.36V469a19.8 19.8 0 0015.21 7.42c11.46 0 20.78-10.42 20.78-23.22v-66.39a19.92 19.92 0 001.69-1.64 20.15 20.15 0 004.95-15.74zm-130.49-46.18c3.46 1.84 15.64 2.07 27.61 1.79 12 .28 24.15 0 27.61-1.79V335c0 4.8-22.42 12-27.23 12l-.38-.08-.38.08c-4.8 0-27.23-7.19-27.23-12zm-33 75.43v55c0 9.5-6.63 17.22-14.78 17.22s-14.78-7.73-14.78-17.22V390.9a21.08 21.08 0 007.47 1.36h22.09zm52.9 203.42h-50.64c-14.22 0-14.22-5-14.22-14.89 0-8.21 6.38-11.5 14.22-11.5h11.67l38.93-2.71.06 15.37zm-38.74-76.4h38.67v41.7l-38.67 2.68h-.26V525.7zm-.26-5.74V503h38.94v17h-38.91zm104.77 55.75h.26c7.84 0 14.22 3.29 14.22 11.5 0 9.91 0 14.89-14.22 14.89h-50.64v-13.7l.06-15.37 38.93 2.69h11.42zm-11.67-50h.26v44.4h-.26l-38.67-2.68V525.7zM407.75 520v-17h38.95v17h-38.95zm46.84-73.77h-.07v44.58a6.6 6.6 0 01-6.58 6.58H403s-.11-3.73-.16-8.75v-2.79c0-3.51-1.41-5.09-2.82-5-1.41-.09-2.82 1.49-2.82 5v2.79c0 5-.16 8.75-.16 8.75H352.1a6.6 6.6 0 01-6.58-6.58v-44.63h-.07v-.33l30.24.33h48.69l30.24-.33zm35.57 7.51c0 9.5-6.63 17.22-14.78 17.22s-14.78-7.73-14.78-17.22v-61.48h22.09a21.08 21.08 0 007.47-1.36zm6-77.21a13.53 13.53 0 01-6 7.29 14.69 14.69 0 01-7.47 2l-22.09.09v-20.19c0-5.56-6.07-5.94-6.07 0s.07 14.37.07 14.37v59.59H345.41v-59.61s.07-8.46.07-14.37-6.07-5.54-6.07 0v20.11l-22.09-.09a14.69 14.69 0 01-7.47-2 13.53 13.53 0 01-6-7.29 14.89 14.89 0 01-.75-6.46l2.47-30.36c.89-9 9.23-17.08 18.2-17.75l11.12-.83 32.22-2.29c.68.54.48 17.49.48 17.49 0 8.43 23.34 15.29 31.77 15.29h1.3c8.43 0 31.77-6.86 31.77-15.29 0 0-.2-16.95.48-17.49l32.22 2.29 11.12.83c9 .67 17.3 8.8 18.2 17.75L496.9 370a14.89 14.89 0 01-.75 6.48z" id="border"/><g id="head"><path id="skin-2" data-name="skin" class="cls-1" d="M446.38 254.1c0-.91.08-1.81.08-2.73 0-30.51-21.06-55.25-47-55.25s-47 24.74-47 55.25c0 1.11 0 2.21.1 3.31-4 2.46-6.9 8.44-6.9 15.43 0 9.19 4.93 16.64 11 16.64a7.47 7.47 0 002.1-.31c.82 24.5 18.74 44.08 40.73 44.08s40.12-19.81 40.74-44.5a7.65 7.65 0 003.25.74c6.08 0 11-7.45 11-16.64-.05-7.65-3.48-14.06-8.1-16.02z"/><path id="border-2" data-name="border" d="M446.38 254.1c0-.91.08-1.81.08-2.73 0-30.51-21.06-55.25-47-55.25s-47 24.74-47 55.25c0 1.11 0 2.21.1 3.31-4 2.46-6.9 8.44-6.9 15.43 0 9.19 4.93 16.64 11 16.64a7.47 7.47 0 002.1-.31c.82 24.5 18.74 44.08 40.73 44.08s40.12-19.81 40.74-44.5a7.65 7.65 0 003.25.74c6.08 0 11-7.45 11-16.64-.05-7.65-3.48-14.06-8.1-16.02z" fill="none" stroke="#231f20" stroke-linecap="round" stroke-linejoin="round" stroke-width="6"/><path class="cls-9" d="M438.13 218l-12.56-13.5-12.45-6.78h-26.2l-12.45 6.78-12.56 13.5-8.12 17.09V247s13.88-18.83 14.38-23 21.5-7.4 31.54-7.28h.29c10-.13 31.38 3.17 31.87 7.28s14.38 23 14.38 23v-11.88z"/><path class="cls-9" d="M393.58 191.22c-.26.06-.5.13-.74.21a11.39 11.39 0 00-4.17.32 7.81 7.81 0 00-5 3.64 9.61 9.61 0 00-5.45 1.17 8.43 8.43 0 00-4.34 4.58c-.59 0-2.63.44-5.41 3.42a9.79 9.79 0 00-2.54 4.9c-.57.15-2.53.88-4.89 4.34a10.22 10.22 0 00-1.86 5.47 12 12 0 00-4 4 10.39 10.39 0 00-1.8 4.67c-.43.37-2 2-2.86 6.35a10.74 10.74 0 00.27 5.71c-.39.4-1.82 2.16-2.36 6.63-.62 5.19 2 7.65 2 7.65l2-13.85-.16-.05 2.56-11.15 6.51-9-.54-.66 6.37-8.77-.12-.15 7.88-8-.44-.74 10.34-4.51-.28-1.25 3.64-.75a4.76 4.76 0 00-.21.52l12-2.45v-1.9s-1.98-1.42-6.4-.35z"/><path class="cls-9" d="M451.1 246.6c-.54-4.48-2-6.23-2.36-6.63a10.74 10.74 0 00.27-5.71c-.88-4.37-2.43-6-2.86-6.35a10.39 10.39 0 00-1.8-4.67 12 12 0 00-4-4 10.22 10.22 0 00-1.86-5.47c-2.36-3.46-4.32-4.19-4.89-4.34a9.79 9.79 0 00-2.54-4.9c-2.78-3-4.81-3.37-5.41-3.42a8.43 8.43 0 00-4.34-4.58 9.61 9.61 0 00-5.45-1.17 7.81 7.81 0 00-5-3.64 11.39 11.39 0 00-4.17-.32c-.24-.08-.48-.15-.74-.21-4.45-1.07-6.47.4-6.47.4v1.9l12 2.45a4.76 4.76 0 00-.21-.52l3.64.75-.28 1.25L425 202l-.44.74 7.88 8-.12.15 6.37 8.77-.54.66 6.51 9 2.56 11.15-.16.05 2 13.85s2.67-2.57 2.04-7.77z"/></g></svg>