<svg id="player" xmlns="http://www.w3.org/2000/svg" viewBox="0 0 800 800"><defs><style>.cls-1{fill:#efc7b0}.cls-2{fill:#414042}.cls-3{fill:#f1f2f2}.cls-4{fill:#232323}.cls-5{fill:#fff}.cls-6{fill:#563e8e}.cls-8{fill:#a7a9ac}.cls-9{fill:#00a79d}.cls-10{fill:#3d55a5}</style></defs><g id="skin"><path id="arm-left" class="cls-1" d="M305.93 382h36.78v72.4a18.39 18.39 0 01-18.39 18.39 18.39 18.39 0 01-18.39-18.39V382z"/><path id="arm-right" class="cls-1" d="M457.19 382H494v72.4a18.39 18.39 0 01-18.39 18.39 18.39 18.39 0 01-18.39-18.39V382h-.03z"/><path id="leg-left" class="cls-1" d="M349.88 492.02h45.67v45.67h-45.67z"/><path id="leg-right" class="cls-1" d="M404.78 492.02h45.67v45.67h-45.67z"/></g><g id="boots"><path id="left" class="cls-2" d="M395.33 570.04H372.5l-22.83 1.97h-12.5l-7.5 2.53-5.25 8.5v9.83l1.91 4.17 3.84 4.05 6.33 1.95h58.83v-33z"/><path id="right" class="cls-2" d="M404.61 570.27h22.83l22.83 1.97h12.5l7.5 2.53 5.25 8.5v9.83l-1.91 4.17-3.84 4.05-6.33 1.95h-58.83v-33z"/><path class="cls-3" d="M368.13 572s-18 17.4-18.25 31.25h17.38s-.62-11.14 15-31.25zm63.68 0s18 17.4 18.25 31.25h-17.38s.63-11.14-15-31.25z" id="details"/></g><g id="socks"><g id="socks-2" data-name="socks"><path id="left-2" data-name="left" class="cls-4" d="M349.88 522h45.67v48.04h-45.67z"/><path id="right-2" data-name="right" class="cls-4" d="M404.38 522h45.67v48.04h-45.67z"/></g><g id="details-2" data-name="details"><path class="cls-5" d="M349.92 522.25h45.41v7.13h-45.41zm0 11.68h45.41v4.56h-45.41z" id="left-3" data-name="left"/><path class="cls-5" d="M404.51 522.25h45.41v7.13h-45.41zm0 11.68h45.41v4.56h-45.41z" id="right-3" data-name="right"/></g></g><g id="shorts"><path id="shorts-2" data-name="shorts" class="cls-4" d="M341.67 442.54h116.49v47a9.95 9.95 0 01-9.95 9.95h-96.6a9.95 9.95 0 01-9.95-9.95v-47h.01z"/><g id="details-3" data-name="details"><path class="cls-5" d="M449.17 442.54h3.42v54.38h-3.42zm-6.83 0h3.42v54.38h-3.42z" id="right-4" data-name="right"/><path class="cls-5" d="M354.24 442.54h3.42v54.38h-3.42zm-6.83 0h3.42v54.38h-3.42z" id="left-4" data-name="left"/></g></g><g id="shirt"><path id="shirt-2" data-name="shirt" class="cls-4" d="M369.5 314.8l-48.29 2.99-11.36 6.25-6.83 10.1-3.31 40.73 5.17 7.67 7.66 4.67h29.5l.17 54h114.83v-53.5l29.34-.17 7.01-4 6.99-10.5-3.4-37.33-6.83-11.84-9.77-6.08-49.84-2.99-1 21.24-6.5 6.5-11.16 3.48-11.88 2.02-15.46-3.17-11-5.66-3.66-3.84-.38-20.57z"/><g id="details-4" data-name="details"><g id="arm-l"><path class="cls-5" d="M341.66 377.12s-41.79 3-42.21-5.87c0 0-.29 16.21 17.46 16.31h24.75z"/><path class="cls-5" d="M364.15 316.16V321l-39.74 2.43a16.17 16.17 0 00-10.1 4.23 20 20 0 00-6.24 15.18L305.85 378l-5.2-3 2.15-38.89 6-12.36 11.73-6 37.52-3.38h6.08z"/><path class="cls-5" d="M310.65 378.85l2.25-34.17c0-8.28 3.7-12.37 6.85-14.35a12.62 12.62 0 016.09-1.85l38.39-2-.15-3-40.49 2.1c-.14 0-13.68 2.4-13.68 19l-2.25 34.07z"/></g><g id="arm-r"><path class="cls-5" d="M458.16 377.12s41.79 3 42.21-5.87c0 0 .29 16.21-17.46 16.31h-24.75z"/><path class="cls-5" d="M435.67 316.16V321l39.74 2.43a16.17 16.17 0 0110.1 4.23 20 20 0 016.24 15.18L494 378l5.2-3-2.2-38.89-6-12.36-11.73-6-37.52-3.38h-6.08z"/><path class="cls-5" d="M489.17 378.85l-2.25-34.17c0-8.28-3.7-12.37-6.85-14.35a12.62 12.62 0 00-6.09-1.85l-38.39-2 .15-3 40.49 2.1c.14 0 13.68 2.4 13.68 19l2.25 34.07z"/></g><path class="cls-5" d="M388.71 441.25H366l-9.62-99.14a3.59 3.59 0 013.57-3.93h28.72zm45.29 0h-22.62V338.18h28.72a3.59 3.59 0 013.57 3.93zm22.55-64s-9.12-1.37-9.12 24.75v39.25h10.74zm-113.27 0s9.13-1.37 9.13 24.75v39.25h-10.75z" id="chest"/><g id="neck"><path class="cls-4" d="M430.4 314.8v22.11l-11 6-19.4 5.83-19.4-5.84-11-6v-22.11h-7.27v23.51c0 14.32 37.67 20.34 37.67 20.34s37.67-6 37.67-20.34v-23.5z"/><path class="cls-5" d="M427.48 314.34v19.94l-9.9 5.41L400 345l-17.54-5.26-9.9-5.41v-19.94H366v21.2c0 12.91 34 18.45 34 18.45s34-5.54 34-18.45v-21.2z"/></g><g id="adidas"><rect id="bottom" class="cls-4" x="368.24" y="370.96" width="12.21" height="1.72" rx=".62" ry=".62"/><path class="cls-4" d="M374.41 364a1.07 1.07 0 00-.39 1.46l2.5 4.36a1.07 1.07 0 00.93.54h1.88l-3.45-6a1.07 1.07 0 00-1.47-.36zm-2.15 2.13a1.07 1.07 0 00-.39 1.45l1.23 2.19a1.07 1.07 0 00.94.55h1.87l-2.16-3.8a1.07 1.07 0 00-1.49-.39zm-2.35 1.87a1.08 1.08 0 00-.4 1.45l.17.3a1.08 1.08 0 00.94.55h1.86l-1.09-1.91a1.08 1.08 0 00-1.48-.39z"/></g><g id="sponsor-ntl"><rect class="cls-6" x="368.08" y="395.23" width="19.15" height="20.26" rx="3.59" ry="3.59"/><rect x="391.64" y="395.23" width="26.27" height="20.26" rx="3.46" ry="3.46" fill="#8ebd40"/><circle class="cls-6" cx="427.04" cy="399.94" r="4.72"/><circle class="cls-6" cx="427.04" cy="410.77" r="4.72"/></g><g id="epl-logo-r"><path class="cls-3" d="M500 353a3.57 3.57 0 01-2.66 4.23 4.8 4.8 0 01-4.67-3L487.59 342a2.83 2.83 0 012.3-4.06l3.92-.58a3.81 3.81 0 014.31 3.2z"/><path class="cls-8" d="M496.88 357.75a5.47 5.47 0 01-4.69-3.37l-5.06-12.21a3.32 3.32 0 012.69-4.75l3.92-.58a4.3 4.3 0 014.88 3.62l1.85 12.45a4.06 4.06 0 01-3.08 4.8 3.49 3.49 0 01-.51.04zm-2.51-20a3.3 3.3 0 00-.49 0l-3.92.58a2.33 2.33 0 00-1.91 3.38l5.06 12.29a4.33 4.33 0 004.13 2.72 3.06 3.06 0 002.24-3.67l-1.85-12.45a3.3 3.3 0 00-3.26-2.8z"/><path class="cls-9" d="M499.65 350.76c.31 2.06-.58 3.92-2 4.13s-3.19-1.2-4-3.13l-3.3-7.89a2.82 2.82 0 012.29-4.06l1.47-.22a3.81 3.81 0 014.31 3.2z"/><path class="cls-10" d="M498.6 348c.31 2.06-.16 3.86-1 4s-2.25-1.34-3.05-3.26l-1-2.36c-.81-1.93-.19-3.69 1.36-3.92s3.08 1.27 3.38 3.33z"/></g><g id="epl-logo-r-2" data-name="epl-logo-r"><path class="cls-3" d="M300 352.93a3.57 3.57 0 002.66 4.23 4.8 4.8 0 004.67-3l5.06-12.2a2.83 2.83 0 00-2.3-4.06l-3.92-.58a3.81 3.81 0 00-4.31 3.2z"/><path class="cls-8" d="M302.59 357.66a4.06 4.06 0 01-3.08-4.8l1.85-12.45a4.3 4.3 0 014.88-3.62l3.92.58a3.32 3.32 0 012.69 4.75l-5.06 12.21a5.47 5.47 0 01-4.69 3.37 3.49 3.49 0 01-.51-.04zm-.24-17.11L300.5 353a3.06 3.06 0 002.24 3.67 4.33 4.33 0 004.13-2.72l5.06-12.21a2.33 2.33 0 00-1.91-3.38l-3.92-.58a3.3 3.3 0 00-3.75 2.77z"/><path class="cls-9" d="M300.34 350.7c-.31 2.06.58 3.92 2 4.13s3.19-1.2 4-3.13l3.3-7.89a2.82 2.82 0 00-2.29-4.06l-1.47-.22a3.81 3.81 0 00-4.31 3.2z"/><path class="cls-10" d="M301.38 347.92c-.31 2.06.16 3.86 1 4s2.25-1.34 3.05-3.26l1-2.36c.81-1.93.19-3.69-1.36-3.92s-3.08 1.27-3.38 3.33z"/></g><g id="asset-captain-band-two-colour"><path class="cls-2" d="M457.19 366.2h42.82v10.26h-42.82z"/><path class="cls-5" d="M461.9 355.94H500v10.26h-42.81v-5.55a4.71 4.71 0 014.71-4.71z"/></g><g id="crest-newcastle"><path d="M426.62 362.47c-.14 0-.25-.05-.25-.12v-2.05c0-.06.11-.12.25-.12s.25.05.25.12v2.05c0 .07-.11.12-.25.12z" fill="#bcbec0"/><path d="M426.36 361.53v-1.44a.11.11 0 01.14-.11l2.48.66a.11.11 0 010 .22l-2.48.78a.11.11 0 01-.14-.11z" fill="#ef3e25"/><path class="cls-5" d="M423.26 363.26a1.32 1.32 0 00-1.32 1.32v3.37a6.53 6.53 0 002.62 5.23l1.6 1a.82.82 0 00.43.12v-11z"/><path class="cls-4" d="M429.93 363.26h-3.33v11a.82.82 0 00.43-.12l1.6-1a6.53 6.53 0 002.62-5.23v-3.37a1.32 1.32 0 00-1.32-1.28z"/><path d="M429.93 363.26a1.32 1.32 0 011.32 1.32v3.37a6.53 6.53 0 01-2.62 5.23l-1.6 1a.82.82 0 01-.86 0l-1.6-1a6.53 6.53 0 01-2.62-5.23v-3.37a1.32 1.32 0 011.32-1.32h6.67m0-1.12h-6.67a2.44 2.44 0 00-2.44 2.44v3.37a7.67 7.67 0 003.08 6.14l1.6 1a1.94 1.94 0 002 0l1.6-1a7.67 7.67 0 003.08-6.14v-3.37a2.44 2.44 0 00-2.44-2.44z" fill="#f1b927"/><rect x="421.77" y="376.19" width="9.65" height="2.12" rx="1.06" ry="1.06" fill="#1eb2e8"/><path d="M428.14 365.4h-.23a.39.39 0 00-.39.39.06.06 0 01-.06.06H427l-.06-.18a.77.77 0 00-.73 0s0 .18-.06.18h-.43a.06.06 0 01-.06-.06.39.39 0 00-.39-.39h-.23a.38.38 0 00-.38.38v.35a.38.38 0 00.08.23l.71.91a.38.38 0 00.3.15.22.22 0 100 .44.22.22 0 00-.22.19l-.17 1.58a.22.22 0 00.22.24h-.08a.22.22 0 00-.21.16l-.1.35a.22.22 0 00.21.28h-.16a.26.26 0 00-.21.1l-.05.07a.26.26 0 00.21.42H428a.26.26 0 00.21-.42l-.05-.07a.26.26 0 00-.21-.1h-.16a.22.22 0 00.21-.28l-.1-.35a.22.22 0 00-.21-.16h-.08a.22.22 0 00.22-.24l-.17-1.58a.22.22 0 00-.22-.19.22.22 0 100-.44.38.38 0 00.3-.15l.71-.91a.38.38 0 00.08-.23v-.35a.38.38 0 00-.39-.38z" fill="#d1d3d4"/></g></g></g><path id="neck-2" data-name="neck" fill="#cea28b" d="M427.63 340.26l-27.59 8.62-28.6-9.62-1.92-23.62h61.04l-2.93 24.62z"/><path d="M502.88 368.43l-2.47-30.36c-1.19-11.87-11.83-22.25-23.72-23.14l-37.14-2.71c-4.07-.45-20.52-.09-39.55.53-19-.62-35.48-1-39.55-.53l-37.14 2.71c-11.89.89-22.53 11.27-23.72 23.14l-2.47 30.36a20.15 20.15 0 005 15.74 19.92 19.92 0 001.69 1.64v66.36c0 12.81 9.32 23.22 20.78 23.22a19.8 19.8 0 0015.25-7.39v21.79a12.23 12.23 0 007.74 11.36v68h-5.93c-10.93 0-19.83 5.8-19.83 17.11 0 8.06 0 17 11.72 19.7v1.6a1.38 1.38 0 001.38 1.38h1.63a1.38 1.38 0 001.38-1.37v-.95c1.16.09 2.39.15 3.73.15h1.89v.8a1.38 1.38 0 001.38 1.38h1.63a1.38 1.38 0 001.38-1.37v-.8h5.62v.8a1.38 1.38 0 001.38 1.38h1.63a1.38 1.38 0 001.38-1.37v-.8h5.62v.8a1.38 1.38 0 001.38 1.38h1.63a1.38 1.38 0 001.38-1.37v-.8h5.62v.8a1.38 1.38 0 001.38 1.38h1.63a1.38 1.38 0 001.38-1.37v-.8h5.62v.8a1.38 1.38 0 001.38 1.38h1.63a1.38 1.38 0 001.38-1.37v-.8h5.62v.8a1.38 1.38 0 001.38 1.38h1.63a1.38 1.38 0 001.38-1.37v-.81l.06-55.45V502h4v49.21l.06 54.67v1.6a1.38 1.38 0 001.38 1.38h1.63a1.38 1.38 0 001.38-1.37v-.8h5.62v.8a1.38 1.38 0 001.38 1.38h1.63a1.38 1.38 0 001.38-1.37v-.8h5.62v.8a1.38 1.38 0 001.38 1.38h1.63a1.38 1.38 0 001.38-1.37v-.8h5.62v.8a1.38 1.38 0 001.38 1.38h1.63a1.38 1.38 0 001.38-1.37v-.8h5.62v.8a1.38 1.38 0 001.38 1.38h1.63a1.38 1.38 0 001.38-1.37v-.8h5.62v.8a1.38 1.38 0 001.38 1.38h1.63a1.38 1.38 0 001.38-1.37v-.8h1.89c1.33 0 2.57-.05 3.72-.15v.95a1.38 1.38 0 001.38 1.38h1.63a1.38 1.38 0 001.38-1.37v-1.6c11.71-2.68 11.72-11.64 11.72-19.7 0-11.3-8.89-17.11-19.83-17.11h-5.93v-68a12.23 12.23 0 007.74-11.36V468a19.8 19.8 0 0015.21 7.42c11.46 0 20.78-10.42 20.78-23.22v-66.39a19.92 19.92 0 001.69-1.64 20.15 20.15 0 004.95-15.74zm-130.49-46.18c3.46 1.84 15.64 2.07 27.61 1.79 12 .28 24.15 0 27.61-1.79V334c0 4.8-22.42 12-27.23 12l-.38-.08-.38.08c-4.8 0-27.23-7.19-27.23-12zm-33 75.43v55c0 9.5-6.63 17.22-14.78 17.22s-14.78-7.73-14.78-17.22V389.9a21.08 21.08 0 007.47 1.36h22.09zm52.9 203.42h-50.64c-14.22 0-14.22-5-14.22-14.89 0-8.21 6.38-11.5 14.22-11.5h11.67l38.93-2.71.06 15.37zm-38.74-76.4h38.67v41.7l-38.67 2.68h-.26V524.7zm-.26-5.74V502h38.94v17h-38.91zm104.77 55.75h.26c7.84 0 14.22 3.29 14.22 11.5 0 9.91 0 14.89-14.22 14.89h-50.64v-13.7l.06-15.37 38.93 2.69h11.42zm-11.67-50h.26v44.4h-.26l-38.67-2.68V524.7zM407.75 519v-17h38.95v17h-38.95zm46.84-73.77h-.07v44.58a6.6 6.6 0 01-6.58 6.58H403s-.11-3.73-.16-8.75v-2.79c0-3.51-1.41-5.09-2.82-5-1.41-.09-2.82 1.49-2.82 5v2.79c0 5-.16 8.75-.16 8.75H352.1a6.6 6.6 0 01-6.58-6.58v-44.63h-.07v-.33l30.24.33h48.69l30.24-.33zm35.57 7.51c0 9.5-6.63 17.22-14.78 17.22s-14.78-7.73-14.78-17.22v-61.48h22.09a21.08 21.08 0 007.47-1.36zm6-77.21a13.53 13.53 0 01-6 7.29 14.69 14.69 0 01-7.47 2l-22.09.09v-20.19c0-5.56-6.07-5.94-6.07 0s.07 14.37.07 14.37v59.59H345.41v-59.61s.07-8.46.07-14.37-6.07-5.54-6.07 0v20.11l-22.09-.09a14.69 14.69 0 01-7.47-2 13.53 13.53 0 01-6-7.29 14.89 14.89 0 01-.75-6.46l2.47-30.36c.89-9 9.23-17.08 18.2-17.75l11.12-.83 32.22-2.29c.68.54.48 17.49.48 17.49 0 8.43 23.34 15.29 31.77 15.29h1.3c8.43 0 31.77-6.86 31.77-15.29 0 0-.2-16.95.48-17.49l32.22 2.29 11.12.83c9 .67 17.3 8.8 18.2 17.75L496.9 369a14.89 14.89 0 01-.75 6.48z" id="border"/><g id="head"><path id="skin-2" data-name="skin" class="cls-1" d="M446.38 253.1c0-.91.08-1.81.08-2.73 0-30.51-21.06-55.25-47-55.25s-47 24.74-47 55.25c0 1.11 0 2.21.1 3.31-4 2.46-6.9 8.44-6.9 15.43 0 9.19 4.93 16.64 11 16.64a7.47 7.47 0 002.1-.31c.82 24.5 18.74 44.08 40.73 44.08s40.12-19.81 40.74-44.5a7.65 7.65 0 003.25.74c6.08 0 11-7.45 11-16.64-.05-7.65-3.48-14.06-8.1-16.02z"/><path d="M445.71 235a2.23 2.23 0 00-.17-.69l-8.06-19.18a2.23 2.23 0 00-.6-.83l-18-15.46a2.23 2.23 0 00-1.21-.52l-18-1.92-18 1.92a2.23 2.23 0 00-1.21.52l-18 15.46a2.23 2.23 0 00-.6.83l-8.06 19.18a2.23 2.23 0 00-.17.69l-1.29 16.56a2.17 2.17 0 001.42 2.21 2.23 2.23 0 011.43 1.67c.48 2.51 2 1.71 5.6-2.17 4.24-4.52-3.56-22.43 14.61-43.76.83-1 4 0 4 0 7.38 2.43 14.39 13 14.64 13.22 2.22 1.54 3.94 2.32 5.66 2.32s3.44-.78 5.66-2.32c.25-.17 7.26-10.79 14.64-13.22 0 0 3.2-1 4 0 18.17 21.34 10.37 39.25 14.61 43.76 3.64 3.87 5.12 4.68 5.6 2.17a2.23 2.23 0 011.43-1.67 2.17 2.17 0 001.42-2.21z" fill="#c49a6c"/><path d="M399.42 332.51c-22.68 0-41.28-19-43.53-43.79-7.52-.49-13.31-8.93-13.31-19.61 0-7 2.64-13.45 6.84-16.92v-1.82c0-32.12 22.45-58.25 50-58.25s50 26.13 50 58.25v1c4.85 3.17 8 10 8 17.76 0 11-6.15 19.64-14 19.64h-.46c-2.26 24.79-20.79 43.74-43.54 43.74zm-40.73-50.08a3 3 0 013 2.9c.77 23.09 17.35 41.18 37.73 41.18 20.58 0 37.15-18.26 37.74-41.58a3 3 0 014.27-2.64 4.68 4.68 0 002 .46c4.34 0 8-6.24 8-13.64 0-7-3.13-11.94-6.21-13.25a3 3 0 01-1.83-2.89v-.18c0-.8.07-1.61.07-2.42 0-28.81-19.75-52.25-44-52.25s-44 23.44-44 52.25c0 .92 0 1.89.09 3.16a3 3 0 01-1.44 2.71c-3.27 2-5.46 7.16-5.46 12.87 0 7.39 3.67 13.64 8 13.64a4.45 4.45 0 001.26-.19 3 3 0 01.78-.13z" fill="#231f20"/></g></svg>