<svg id="player" xmlns="http://www.w3.org/2000/svg" viewBox="0 0 800 800"><defs><style>.cls-1{fill:#e2afa6}.cls-2{fill:#282828}.cls-3{fill:#fff}.cls-4{fill:#221f1f}.cls-5{fill:#e01f26}.cls-6{fill:#f1f2f2}.cls-7{fill:#00a79d}.cls-8{fill:#3d55a5}.cls-9{fill:#ead12a}</style></defs><g id="skin"><path id="arm-left" class="cls-1" d="M305.93 386h36.78v72.4a18.39 18.39 0 01-18.39 18.39 18.39 18.39 0 01-18.39-18.39V386z"/><path id="arm-right" class="cls-1" d="M457.19 386H494v72.4a18.39 18.39 0 01-18.39 18.39 18.39 18.39 0 01-18.39-18.39V386z"/><path id="leg-left" class="cls-1" d="M349.88 496.02h45.67v45.67h-45.67z"/><path id="leg-right" class="cls-1" d="M404.78 496.02h45.67v45.67h-45.67z"/></g><g id="boots"><path id="left" class="cls-2" d="M395.33 574.04H372.5l-22.83 1.97h-12.5l-7.5 2.53-5.25 8.5v9.83l1.91 4.17 3.84 4.05 6.33 1.95h58.83v-33z"/><path id="right" class="cls-2" d="M404.61 574.27h22.83l22.83 1.97h12.5l7.5 2.53 5.25 8.5v9.83l-1.91 4.17-3.84 4.05-6.33 1.95h-58.83v-33z"/><g id="details"><path class="cls-3" d="M395 581.68s-25.4 23.42-39.75 23.42l40.1 2.17z" id="left-2" data-name="left"/><path class="cls-3" d="M405 581.68s25.4 23.42 39.75 23.42l-40.1 2.17z" id="right-2" data-name="right"/></g></g><g id="socks"><g id="socks-2" data-name="socks"><path id="left-3" data-name="left" class="cls-4" d="M349.88 526h45.67v48.04h-45.67z"/><path id="right-3" data-name="right" class="cls-4" d="M404.38 526h45.67v48.04h-45.67z"/></g><g id="details-2" data-name="details"><path id="stripe-l" class="cls-5" d="M353.21 534.7h38.99v5h-38.99z"/><path id="stripe-r" class="cls-5" d="M407.72 534.7h38.99v5h-38.99z"/></g></g><g id="shorts"><path id="shorts-2" data-name="shorts" class="cls-3" d="M341.67 446.54h116.49v47a9.95 9.95 0 01-9.95 9.95h-96.6a9.95 9.95 0 01-9.95-9.95v-47z"/><g id="details-3" data-name="details"><rect id="stripe-r-2" data-name="stripe-r" class="cls-4" x="360.51" y="434.98" width="9.33" height="27.74" rx="4.67" ry="4.67"/><rect id="stripe-r-3" data-name="stripe-r" class="cls-4" x="430.24" y="434.98" width="9.33" height="27.74" rx="4.67" ry="4.67"/></g></g><g id="shirt"><path id="shirt-2" data-name="shirt" class="cls-5" d="M369.38 319.05l-48.3 2.99-11.36 6.25-6.83 10.09-3.31 40.74 5.17 7.67 7.67 4.66h29.5l.16 54h114.84v-53.5l29.33-.16 7.01-4 6.99-10.5-3.39-37.34-6.83-11.83-9.78-6.08-49.83-2.99-1 21.24-6.5 6.5-11.17 3.48-11.87 2.02-15.46-3.17-11-5.67-3.67-3.83-.37-20.57z"/><g id="details-4" data-name="details"><path id="nike" class="cls-6" d="M371.17 370.81c0 1.19-1.57 2.17-3.49 2.17h-9.26c-1.92 0-3.49-1-3.49-2.17s1.57-2.17 3.49-2.17h9.26c1.92 0 3.49.98 3.49 2.17z"/><path class="cls-6" d="M409.93 386.29a1 1 0 00-1.37.22l-2.35 3a1 1 0 00.26 1.5c3.4 2.12 3.16 4.06 2.44 8a9.63 9.63 0 11-7.72-11.23h.11a1 1 0 001-.39l2.44-3.26a1 1 0 00-.5-1.58A15.44 15.44 0 10414.62 400c1.14-6.07.48-10.27-4.69-13.71zm9 35.39c0 1.52-1.6 2.76-3.57 2.76h-31.65c-2 0-3.57-1.24-3.57-2.76s1.6-2.76 3.57-2.76h31.65c1.97 0 3.57 1.24 3.57 2.76z" id="vodafone-logo"/><g id="epl-logo-l"><path class="cls-6" d="M301.18 364.49a3.57 3.57 0 002.66 4.23 4.8 4.8 0 004.67-3l5.06-12.2a2.83 2.83 0 00-2.3-4.06l-3.92-.58A3.81 3.81 0 00303 352z"/><path class="cls-7" d="M301.51 362.26c-.31 2.06.58 3.92 2 4.13s3.19-1.2 4-3.13l3.3-7.89a2.82 2.82 0 00-2.29-4.06l-1.52-.21a3.81 3.81 0 00-4.31 3.2z"/><path class="cls-8" d="M302.56 359.48c-.31 2.06.16 3.86 1 4s2.25-1.34 3.05-3.26l1-2.36c.81-1.93.19-3.69-1.36-3.92s-3.08 1.27-3.38 3.33z"/></g><g id="epl-logo-r"><path class="cls-6" d="M498.66 364.49a3.57 3.57 0 01-2.66 4.23 4.8 4.8 0 01-4.67-3l-5.06-12.2a2.83 2.83 0 012.3-4.06l3.92-.58a3.81 3.81 0 014.31 3.2z"/><path class="cls-7" d="M498.32 362.26c.31 2.06-.58 3.92-2 4.13s-3.19-1.2-4-3.13l-3.3-7.89a2.82 2.82 0 012.29-4.06l1.47-.22a3.81 3.81 0 014.31 3.2z"/><path class="cls-8" d="M497.28 359.48c.31 2.06-.16 3.86-1 4s-2.25-1.34-3.05-3.26l-1-2.36c-.81-1.93-.19-3.69 1.36-3.92s3.08 1.27 3.38 3.33z"/></g><g id="neck"><path id="neck-2" data-name="neck" class="cls-4" d="M432.44 319.68a54.1 54.1 0 00-9.72 7.72l-17.91 19.34a6.86 6.86 0 01-10.32 0l-17.91-19.34a54.1 54.1 0 00-9.72-7.72c-2.46-1.57-4.48-.21-4.48 4v16a13.26 13.26 0 007.07 11s23.63 9.1 30.21 9c6.58.08 30.21-9 30.21-9a13.26 13.26 0 007.07-11v-16c-.02-4.21-2.04-5.57-4.5-4z"/><path class="cls-4" d="M370 335.67c0-4.25-4.32-6.48-9.6-4.94L345.74 335c-5.28 1.54-5.16 3.53.26 4.44l14.09 2.34c5.43.88 9.91-1.86 9.91-6.11z" id="left-4" data-name="left"/><path class="cls-4" d="M429.64 335.67c0-4.25 4.32-6.48 9.6-4.94l14.61 4.27c5.28 1.54 5.16 3.53-.26 4.44l-14.09 2.34c-5.42.88-9.86-1.86-9.86-6.11z" id="right-4" data-name="right"/></g><g id="manchester-united-crest-2003"><path class="cls-9" d="M442.19 369a1.58 1.58 0 01-1.46-1.08 5.7 5.7 0 00-10.77 0 1.58 1.58 0 01-1.46 1.08 1.57 1.57 0 01-1.47-2.08 8.76 8.76 0 0116.62 0 1.57 1.57 0 01-1.47 2.08zm0 2.68a1.58 1.58 0 00-1.46 1.08 5.7 5.7 0 01-10.77 0 1.58 1.58 0 00-1.46-1.08 1.57 1.57 0 00-1.47 2.08 8.76 8.76 0 0016.62 0 1.57 1.57 0 00-1.47-2.08z"/><circle class="cls-9" cx="428.31" cy="370.32" r="1.36"/><circle class="cls-9" cx="442.38" cy="370.32" r="1.36"/><path class="cls-9" d="M432.49 366.22h5.71a1 1 0 011 1v4.25a3.85 3.85 0 01-3.85 3.85 3.85 3.85 0 01-3.85-3.85v-4.25a1 1 0 011-1z"/><path class="cls-5" d="M433.05 368.87h.68v2.45a.1.1 0 01-.1.1h-.48a.1.1 0 01-.1-.1v-2.45zm1.01 0h-1.35a6.46 6.46 0 01.68-1.35 6.21 6.21 0 01.67 1.35zm.94 0h.68v2.45a.1.1 0 01-.1.1h-.48a.1.1 0 01-.1-.1v-2.45zm1 0h-1.35a6.46 6.46 0 01.68-1.35 6.21 6.21 0 01.67 1.35zm1 0h.68v2.45a.1.1 0 01-.1.1h-.48a.1.1 0 01-.1-.1v-2.45zm1 0h-1.35a6.46 6.46 0 01.68-1.35 6.21 6.21 0 01.67 1.35z"/><path class="cls-5" d="M433.05 370.29h4.59V372a.53.53 0 01-.53.53h-3.53a.53.53 0 01-.53-.53v-1.74.03z"/></g></g></g><path id="neck-3" data-name="neck" fill="#c69690" d="M427.63 344.26l-27.59 8.62-28.6-9.62-1.92-23.62h61.04l-2.93 24.62z"/><path d="M502.88 372.43l-2.47-30.36c-1.19-11.87-11.83-22.25-23.72-23.14l-37.14-2.71c-4.07-.45-20.52-.09-39.55.53-19-.62-35.48-1-39.55-.53l-37.14 2.71c-11.89.89-22.53 11.27-23.72 23.14l-2.47 30.36a20.15 20.15 0 005 15.74 19.92 19.92 0 001.69 1.64v66.36c0 12.81 9.32 23.22 20.78 23.22a19.8 19.8 0 0015.25-7.39v21.79a12.23 12.23 0 007.74 11.36v68h-5.93c-10.93 0-19.83 5.8-19.83 17.11 0 8.06 0 17 11.72 19.7v1.6a1.38 1.38 0 001.38 1.38h1.63a1.38 1.38 0 001.38-1.37v-.95c1.16.09 2.39.15 3.73.15h1.89v.8a1.38 1.38 0 001.38 1.38h1.63a1.38 1.38 0 001.38-1.37v-.8h5.62v.8a1.38 1.38 0 001.38 1.38h1.63a1.38 1.38 0 001.38-1.37v-.8h5.62v.8a1.38 1.38 0 001.38 1.38h1.63a1.38 1.38 0 001.38-1.37v-.8h5.62v.8a1.38 1.38 0 001.38 1.38h1.63a1.38 1.38 0 001.38-1.37v-.8h5.62v.8a1.38 1.38 0 001.38 1.38h1.63a1.38 1.38 0 001.38-1.37v-.8h5.62v.8a1.38 1.38 0 001.38 1.38h1.63a1.38 1.38 0 001.38-1.37v-.81l.06-55.45V506h4v49.21l.06 54.67v1.6a1.38 1.38 0 001.38 1.38h1.63a1.38 1.38 0 001.38-1.37v-.8h5.62v.8a1.38 1.38 0 001.38 1.38h1.63a1.38 1.38 0 001.38-1.37v-.8h5.62v.8a1.38 1.38 0 001.38 1.38h1.63a1.38 1.38 0 001.38-1.37v-.8h5.62v.8a1.38 1.38 0 001.38 1.38h1.63a1.38 1.38 0 001.38-1.37v-.8h5.62v.8a1.38 1.38 0 001.38 1.38h1.63a1.38 1.38 0 001.38-1.37v-.8h5.62v.8a1.38 1.38 0 001.38 1.38h1.63a1.38 1.38 0 001.38-1.37v-.8h1.89c1.33 0 2.57-.05 3.72-.15v.95a1.38 1.38 0 001.38 1.38h1.63a1.38 1.38 0 001.38-1.37v-1.6c11.71-2.68 11.72-11.64 11.72-19.7 0-11.3-8.89-17.11-19.83-17.11h-5.93v-68a12.23 12.23 0 007.74-11.36V472a19.8 19.8 0 0015.21 7.42c11.46 0 20.78-10.42 20.78-23.22v-66.39a19.92 19.92 0 001.69-1.64 20.15 20.15 0 004.95-15.74zm-130.49-46.18c3.46 1.84 15.64 2.07 27.61 1.79 12 .28 24.15 0 27.61-1.79V338c0 4.8-22.42 12-27.23 12l-.38-.08-.38.08c-4.8 0-27.23-7.19-27.23-12zm-33 75.43v55c0 9.5-6.63 17.22-14.78 17.22s-14.78-7.73-14.78-17.22V393.9a21.08 21.08 0 007.47 1.36h22.09zm52.9 203.42h-50.64c-14.22 0-14.22-5-14.22-14.89 0-8.21 6.38-11.5 14.22-11.5h11.67l38.93-2.71.06 15.37zm-38.74-76.4h38.67v41.7l-38.67 2.68h-.26V528.7zm-.26-5.74V506h38.94v17h-38.91zm104.77 55.75h.26c7.84 0 14.22 3.29 14.22 11.5 0 9.91 0 14.89-14.22 14.89h-50.64v-13.7l.06-15.37 38.93 2.69h11.42zm-11.67-50h.26v44.4h-.26l-38.67-2.68V528.7zM407.75 523v-17h38.95v17h-38.95zm46.84-73.77h-.07v44.58a6.6 6.6 0 01-6.58 6.58H403s-.11-3.73-.16-8.75v-2.79c0-3.51-1.41-5.09-2.82-5-1.41-.09-2.82 1.49-2.82 5v2.79c0 5-.16 8.75-.16 8.75H352.1a6.6 6.6 0 01-6.58-6.58v-44.63h-.07v-.33l30.24.33h48.69l30.24-.33zm35.57 7.51c0 9.5-6.63 17.22-14.78 17.22s-14.78-7.73-14.78-17.22v-61.48h22.09a21.08 21.08 0 007.47-1.36zm6-77.21a13.53 13.53 0 01-6 7.29 14.69 14.69 0 01-7.47 2l-22.09.09v-20.19c0-5.56-6.07-5.94-6.07 0s.07 14.37.07 14.37v59.59H345.41v-59.61s.07-8.46.07-14.37-6.07-5.54-6.07 0v20.11l-22.09-.09a14.69 14.69 0 01-7.47-2 13.53 13.53 0 01-6-7.29 14.89 14.89 0 01-.75-6.46l2.47-30.36c.89-9 9.23-17.08 18.2-17.75l11.12-.83 32.22-2.29c.68.54.48 17.49.48 17.49 0 8.43 23.34 15.29 31.77 15.29h1.3c8.43 0 31.77-6.86 31.77-15.29 0 0-.2-16.95.48-17.49l32.22 2.29 11.12.83c9 .67 17.3 8.8 18.2 17.75L496.9 373a14.89 14.89 0 01-.75 6.48z" id="border"/><g id="head"><path d="M402.13 195.09a15.56 15.56 0 014.16.66h.7a13.37 13.37 0 015.11 1c8 1.63 9.88 4.25 9.88 4.25 3.44.88 7.13 4.44 7.13 4.44a14 14 0 016.75 5.88c4.44 3.31 4.94 5.63 4.94 5.63 3.56 3.69 3.94 6.38 3.94 6.38a13 13 0 012.38 6.31c1.94 2.19 2.19 7.69 2.19 7.69 1.44.63 1.38 6.81 1.38 6.81 1.63 2.31 1 6.13 1 6.13.26 5.66-1.06 6.1-1.48 6.1h-.12l-4-1.58-3.92-14.33-6.42-15.33-7.08-8.58-28-.33-.67-19.71-.62 19.66-28 .33-7.08 8.58-6.42 15.33-3.88 14.34-4 1.58h-.12c-.41 0-1.74-.43-1.48-6.1 0 0-.62-3.81 1-6.12 0 0-.06-6.19 1.38-6.81 0 0 .25-5.5 2.19-7.69a13 13 0 012.38-6.31s.38-2.69 3.94-6.37c0 0 .5-2.31 4.94-5.62a14 14 0 016.75-5.87s3.69-3.56 7.12-4.44c0 0 1.87-2.62 9.87-4.25a13.36 13.36 0 015.11-1h.7a15.56 15.56 0 014.16-.66 7.84 7.84 0 004.18 0m0-6a14.22 14.22 0 00-2.09.15 14.22 14.22 0 00-2.09-.15 20.85 20.85 0 00-4.9.64 19.68 19.68 0 00-6.84 1.26c-6 1.29-9.4 3.22-11.26 4.74a26.15 26.15 0 00-7.27 4.6 20.17 20.17 0 00-8 6.9 19.74 19.74 0 00-5.54 6.41 20.3 20.3 0 00-4.38 7.24 20 20 0 00-2.57 6.55 20.67 20.67 0 00-2.27 7.65 17.5 17.5 0 00-1.53 7.53 16.24 16.24 0 00-1 7.91c-.15 4.68.64 7.67 2.55 9.67a6.79 6.79 0 004.94 2.15 6.39 6.39 0 001.94-.3l.2-.06.19-.08 4-1.58 2.79-1.1.79-2.89 3.81-14 5.92-14.16 4.75-5.75 25.22-.3h1.1l25.22.3 4.75 5.75 5.92 14.16 3.81 14 .79 2.89 2.79 1.1 4 1.58.2.08.2.06a6.39 6.39 0 001.94.3 6.79 6.79 0 004.94-2.15c1.91-2 2.7-5 2.55-9.67a16.24 16.24 0 00-1-7.91 17.5 17.5 0 00-1.53-7.53 20.67 20.67 0 00-2.27-7.65 20 20 0 00-2.57-6.55 20.3 20.3 0 00-4.38-7.24 19.74 19.74 0 00-5.54-6.41 20.17 20.17 0 00-8-6.9 26.15 26.15 0 00-7.27-4.6c-1.86-1.52-5.25-3.44-11.26-4.74a19.69 19.69 0 00-6.84-1.26 20.86 20.86 0 00-4.89-.64z" fill="#231f20"/><path id="skin-2" data-name="skin" class="cls-1" d="M446.38 257.1c0-.91.08-1.81.08-2.73 0-30.51-21.06-55.25-47-55.25s-47 24.74-47 55.25c0 1.11 0 2.21.1 3.31-4 2.46-6.9 8.44-6.9 15.43 0 9.19 4.93 16.64 11 16.64a7.47 7.47 0 002.1-.31c.82 24.5 18.74 44.08 40.73 44.08s40.12-19.81 40.74-44.5a7.65 7.65 0 003.25.74c6.08 0 11-7.45 11-16.64-.05-7.65-3.48-14.06-8.1-16.02z"/><path id="border-2" data-name="border" d="M446.38 257.1c0-.91.08-1.81.08-2.73 0-30.51-21.06-55.25-47-55.25s-47 24.74-47 55.25c0 1.11 0 2.21.1 3.31-4 2.46-6.9 8.44-6.9 15.43 0 9.19 4.93 16.64 11 16.64a7.47 7.47 0 002.1-.31c.82 24.5 18.74 44.08 40.73 44.08s40.12-19.81 40.74-44.5a7.65 7.65 0 003.25.74c6.08 0 11-7.45 11-16.64-.05-7.65-3.48-14.06-8.1-16.02z" fill="none" stroke="#231f20" stroke-linecap="round" stroke-linejoin="round" stroke-width="6"/><path d="M450.66 244.12s.06-6.19-1.37-6.81c0 0-.25-5.5-2.19-7.69a13 13 0 00-2.37-6.31s-.37-2.69-3.94-6.37c0 0-.5-2.31-4.94-5.62a14 14 0 00-6.75-5.87s-3.69-3.56-7.12-4.44c0 0-1.87-2.62-9.87-4.25a13.39 13.39 0 00-5.81-1s-3.7-1.19-6.25-.37c-2.55-.81-6.25.38-6.25.38a13.39 13.39 0 00-5.81 1c-8 1.63-9.87 4.25-9.87 4.25-3.44.88-7.12 4.44-7.12 4.44a14 14 0 00-6.75 5.88c-4.44 3.31-4.94 5.63-4.94 5.63-3.56 3.69-3.94 6.38-3.94 6.38a13 13 0 00-2.37 6.31c-1.94 2.19-2.19 7.69-2.19 7.69-1.44.63-1.37 6.81-1.37 6.81-1.62 2.31-1 6.13-1 6.13-.19 4.16.47 5.49 1 5.91v.09h.18a.63.63 0 00.42.06l4.91.67s11-22.25 13-29.25S385.79 226 400 226s30.12-5.27 32.12 1.73S444 257 444 257l4.43-1.33 1.65.66s1.91.61 1.6-6.08c-.02 0 .61-3.81-1.02-6.13z" fill="#d77b4b"/></g></svg>