<svg id="player" xmlns="http://www.w3.org/2000/svg" viewBox="0 0 800 800"><defs><style>.cls-1{fill:#e4b69d}.cls-2{fill:#383838}.cls-3{fill:#fff}.cls-4{fill:#db1737}.cls-5{fill:#da202f}.cls-8{fill:#2d2d2d}.cls-11{fill:#231f20}</style></defs><g id="skin"><path id="arm-left" class="cls-1" d="M305.93 384h36.78v72.4a18.39 18.39 0 01-18.39 18.39 18.39 18.39 0 01-18.39-18.39V384z"/><path id="arm-right" class="cls-1" d="M457.19 384H494v72.4a18.39 18.39 0 01-18.39 18.39 18.39 18.39 0 01-18.39-18.39V384h-.03z"/><path id="leg-left" class="cls-1" d="M349.88 494.02h45.67v45.67h-45.67z"/><path id="leg-right" class="cls-1" d="M404.78 494.02h45.67v45.67h-45.67z"/></g><g id="boots"><path id="left" class="cls-2" d="M395.48 571.37h-22.83l-22.84 1.98h-12.5l-7.5 2.52-5.24 8.5v9.84l1.91 4.16 3.83 4.06 6.34 1.94h58.83v-33z"/><path id="right" class="cls-2" d="M404.61 571.37h22.83l22.83 1.98h12.5l7.5 2.52 5.25 8.5v9.84l-1.91 4.16-3.84 4.06-6.33 1.94h-58.83v-33z"/><g id="details"><path class="cls-3" d="M341.17 604.92s6.42-21.08 19.67-22c0 0 20.83-.33 17.42 22z"/><path class="cls-4" d="M395.48 572s-10.67 20.52-29.08 16.55-20.08-13.64-16.08-14.14c-.01.01 43.91-2.83 45.16-2.41z"/><path class="cls-3" d="M458.69 604.92s-6.42-21.08-19.67-22c0 0-20.83-.33-17.42 22z"/><path class="cls-4" d="M404.38 572s10.67 20.52 29.08 16.55 20.08-13.64 16.08-14.14c.01.01-43.91-2.83-45.16-2.41z"/></g></g><g id="socks"><g id="socks-2" data-name="socks"><path id="left-2" data-name="left" class="cls-5" d="M349.88 524h45.67v48.04h-45.67z"/><path id="right-2" data-name="right" class="cls-5" d="M404.38 524h45.67v48.04h-45.67z"/></g><path class="cls-3" d="M350.35 560.62h45.19v13h-45.19zm54.27 0h45.19v13h-45.19z" id="details-2" data-name="details"/></g><g id="shorts"><path id="shorts-2" data-name="shorts" class="cls-5" d="M341.67 444.54h116.49v47a9.95 9.95 0 01-9.95 9.95h-96.6a9.95 9.95 0 01-9.95-9.95v-47h.01z"/><g id="details-3" data-name="details"><path class="cls-3" d="M348.41 444.54h3.88v55.71h-3.88zm7.77 0h3.88v55.71h-3.88z" id="left-3" data-name="left"/><path class="cls-3" d="M439.94 444.54h3.88v55.71h-3.88zm7.76 0h3.88v55.71h-3.88z" id="right-3" data-name="right"/></g></g><g id="shirt"><path id="shirt-2" data-name="shirt" class="cls-5" d="M369.5 316.8l-48.29 2.99-11.36 6.25-6.83 10.1-3.31 40.73 5.17 7.67 7.66 4.67h29.5l.17 54h114.83v-53.5l29.34-.17 7.01-4 6.99-10.5-3.4-37.33-6.83-11.84-9.77-6.08-49.84-2.99-1 21.24-6.5 6.5-11.16 3.48-11.88 2.02-15.46-3.17-11-5.66-3.66-3.84-.38-20.57z"/><g id="details-4" data-name="details"><g id="arm-l"><path class="cls-3" d="M366.58 318.37s-22.5 12-23.88 61.07v8l-32.86 1.11-10.14-11.71s.28-39.89 5.21-45.36a113.26 113.26 0 0111.83-10.93l34.77-2.49z"/><path class="cls-5" d="M362 322.75l-35.54 2.65a21.3 21.3 0 00-12.17 5.26 15.29 15.29 0 00-5 8.46l-5 43.16-4-3.47 1.08-41.17L306 329l10.82-6.93 45-3.78z"/><path class="cls-5" d="M308.49 387l-3-.36 5.18-43.09a19.3 19.3 0 01.7-3.4l.12-.38c2.6-8 9-13 17-13.37L362 325l.12 3-33.49 1.38c-6.73.28-12.05 4.5-14.25 11.29l-.11.34a16.31 16.31 0 00-.59 2.88z"/></g><g id="arm-r"><path class="cls-3" d="M433.5 318.37s22.5 12 23.88 61.07v8l32.86 1.11 10.14-11.71s-.28-39.89-5.21-45.36a113.26 113.26 0 00-11.83-10.93l-34.77-2.49z"/><path class="cls-5" d="M438 322.75l35.54 2.65a21.3 21.3 0 0112.17 5.26 15.29 15.29 0 015 8.46l5 43.16 4-3.47-1.08-41.17-4.5-8.64-10.82-6.93-45-3.78z"/><path class="cls-5" d="M491.59 387l3-.36-5.18-43.09a19.3 19.3 0 00-.7-3.4l-.12-.38c-2.6-8-9-13-17-13.37L438.1 325l-.12 3 33.49 1.38c6.73.28 12.05 4.5 14.25 11.29l.11.34a16.31 16.31 0 01.59 2.88z"/></g><path id="neck" class="cls-3" d="M400 350s-24.62-18.9-32.75-7.77c0 0 8.58 18.5 32.75 18.5s32.75-18.5 32.75-18.5C424.66 331.12 400 350 400 350z"/><g id="adidas"><rect id="bottom" class="cls-3" x="355.57" y="377.4" width="12.14" height="1.71" rx=".62" ry=".62"/><path class="cls-3" d="M361.7 370.45a1.07 1.07 0 00-.39 1.45l2.49 4.33a1.07 1.07 0 00.92.53h1.86l-3.43-5.93a1.07 1.07 0 00-1.45-.38zm-2.13 2.15a1.07 1.07 0 00-.39 1.44l1.22 2.18a1.07 1.07 0 00.93.54h1.86L361 373a1.07 1.07 0 00-1.43-.4zm-2.34 1.87a1.07 1.07 0 00-.4 1.44l.16.3a1.07 1.07 0 00.94.55h1.85l-1.08-1.9a1.07 1.07 0 00-1.47-.39z"/></g><g id="crest-bayern-munich"><circle class="cls-3" cx="435.1" cy="374.33" r="8.98"/><circle cx="435.1" cy="374.33" r="7.9" fill="#ed1846"/><circle class="cls-3" cx="435.1" cy="374.33" r="5.1"/><path d="M435.49 370.53l-4.16 4.71a.45.45 0 00-.09.44.45.45 0 00.76.15l4.17-4.72a.45.45 0 00-.25-.74.45.45 0 00-.43.16zm-3.49 1.16a4.06 4.06 0 00-.95 1.92.19.19 0 00.32.16l2.61-3a.19.19 0 00-.2-.3 4.06 4.06 0 00-1.78 1.22zm5.81-.36a.45.45 0 00-.63 0l-4.81 5.44a.45.45 0 000 .63.45.45 0 00.63 0l4.81-5.44a.45.45 0 000-.63zm.98 3.67l-2.61 3a.19.19 0 00.2.3 4.06 4.06 0 001.79-1.18 4.06 4.06 0 00.95-1.92.19.19 0 00-.33-.2zm-.63 2.09zm.05-4.16l-4.21 4.72a.45.45 0 00.25.74.45.45 0 00.42-.14l4.16-4.71a.45.45 0 00.09-.44.45.45 0 00-.71-.17z" fill="#3668b2"/></g><g id="sponsor-t-mobile"><rect class="cls-3" x="369.24" y="393.75" width="9.56" height="20.17" rx="4.78" ry="4.78"/><circle class="cls-3" cx="384.32" cy="403.84" r="2.52"/><rect class="cls-3" x="389.84" y="397.84" width="41" height="12" rx="4.78" ry="4.78"/></g><g id="logo-bundasliga"><path class="cls-3" transform="rotate(6.87 305.94 369.875)" d="M301.69 364.56h8.78v11.17h-8.78z"/><path class="cls-8" d="M309.9 365.16a1 1 0 01.86 1.1l-1.05 8.74a1 1 0 01-1.1.86l-6.39-.77a1 1 0 01-.86-1.1l1.05-8.74a1 1 0 011.1-.86l6.39.77m.08-.71l-6.39-.77a1.7 1.7 0 00-1.89 1.49l-1.05 8.74a1.7 1.7 0 001.49 1.89l6.39.77a1.7 1.7 0 001.89-1.49l1.05-8.74a1.7 1.7 0 00-1.49-1.89z"/><rect class="cls-8" x="302.25" y="371.16" width="7.21" height="1.28" rx=".64" ry=".64" transform="rotate(6.87 305.707 371.561)"/><rect class="cls-8" x="302" y="372.96" width="7.21" height="1.82" rx=".91" ry=".91" transform="rotate(6.87 305.416 373.669)"/><rect x="302.71" y="365.47" width="7.21" height="5.01" rx=".96" ry=".96" transform="rotate(6.87 306.148 367.773)" fill="#ed1e24"/><circle class="cls-3" cx="306.32" cy="367.97" r="1.05" transform="rotate(-83.13 306.344 367.982)"/></g></g></g><path id="neck-2" data-name="neck" fill="#cea28b" d="M427.63 342.26l-27.59 8.62-28.6-9.62-1.92-23.62h61.04l-2.93 24.62z"/><path d="M502.88 370.43l-2.47-30.36c-1.19-11.87-11.83-22.25-23.72-23.14l-37.14-2.71c-4.07-.45-20.52-.09-39.55.53-19-.62-35.48-1-39.55-.53l-37.14 2.71c-11.89.89-22.53 11.27-23.72 23.14l-2.47 30.36a20.15 20.15 0 005 15.74 19.92 19.92 0 001.69 1.64v66.36c0 12.81 9.32 23.22 20.78 23.22a19.8 19.8 0 0015.25-7.39v21.79a12.23 12.23 0 007.74 11.36v68h-5.93c-10.93 0-19.83 5.8-19.83 17.11 0 8.06 0 17 11.72 19.7v1.6a1.38 1.38 0 001.38 1.38h1.63a1.38 1.38 0 001.38-1.37v-.95c1.16.09 2.39.15 3.73.15h1.89v.8a1.38 1.38 0 001.38 1.38h1.63a1.38 1.38 0 001.38-1.37v-.8h5.62v.8a1.38 1.38 0 001.38 1.38h1.63a1.38 1.38 0 001.38-1.37v-.8h5.62v.8a1.38 1.38 0 001.38 1.38h1.63a1.38 1.38 0 001.38-1.37v-.8h5.62v.8a1.38 1.38 0 001.38 1.38h1.63a1.38 1.38 0 001.38-1.37v-.8h5.62v.8a1.38 1.38 0 001.38 1.38h1.63a1.38 1.38 0 001.38-1.37v-.8h5.62v.8a1.38 1.38 0 001.38 1.38h1.63a1.38 1.38 0 001.38-1.37v-.81l.06-55.45V504h4v49.21l.06 54.67v1.6a1.38 1.38 0 001.38 1.38h1.63a1.38 1.38 0 001.38-1.37v-.8h5.62v.8a1.38 1.38 0 001.38 1.38h1.63a1.38 1.38 0 001.38-1.37v-.8h5.62v.8a1.38 1.38 0 001.38 1.38h1.63a1.38 1.38 0 001.38-1.37v-.8h5.62v.8a1.38 1.38 0 001.38 1.38h1.63a1.38 1.38 0 001.38-1.37v-.8h5.62v.8a1.38 1.38 0 001.38 1.38h1.63a1.38 1.38 0 001.38-1.37v-.8h5.62v.8a1.38 1.38 0 001.38 1.38h1.63a1.38 1.38 0 001.38-1.37v-.8h1.89c1.33 0 2.57-.05 3.72-.15v.95a1.38 1.38 0 001.38 1.38h1.63a1.38 1.38 0 001.38-1.37v-1.6c11.71-2.68 11.72-11.64 11.72-19.7 0-11.3-8.89-17.11-19.83-17.11h-5.93v-68a12.23 12.23 0 007.74-11.36V470a19.8 19.8 0 0015.21 7.42c11.46 0 20.78-10.42 20.78-23.22v-66.39a19.92 19.92 0 001.69-1.64 20.15 20.15 0 004.95-15.74zm-130.49-46.18c3.46 1.84 15.64 2.07 27.61 1.79 12 .28 24.15 0 27.61-1.79V336c0 4.8-22.42 12-27.23 12l-.38-.08-.38.08c-4.8 0-27.23-7.19-27.23-12zm-33 75.43v55c0 9.5-6.63 17.22-14.78 17.22s-14.78-7.73-14.78-17.22V391.9a21.08 21.08 0 007.47 1.36h22.09zm52.9 203.42h-50.64c-14.22 0-14.22-5-14.22-14.89 0-8.21 6.38-11.5 14.22-11.5h11.67l38.93-2.71.06 15.37zm-38.74-76.4h38.67v41.7l-38.67 2.68h-.26V526.7zm-.26-5.74V504h38.94v17h-38.91zm104.77 55.75h.26c7.84 0 14.22 3.29 14.22 11.5 0 9.91 0 14.89-14.22 14.89h-50.64v-13.7l.06-15.37 38.93 2.69h11.42zm-11.67-50h.26v44.4h-.26l-38.67-2.68V526.7zM407.75 521v-17h38.95v17h-38.95zm46.84-73.77h-.07v44.58a6.6 6.6 0 01-6.58 6.58H403s-.11-3.73-.16-8.75v-2.79c0-3.51-1.41-5.09-2.82-5-1.41-.09-2.82 1.49-2.82 5v2.79c0 5-.16 8.75-.16 8.75H352.1a6.6 6.6 0 01-6.58-6.58v-44.63h-.07v-.33l30.24.33h48.69l30.24-.33zm35.57 7.51c0 9.5-6.63 17.22-14.78 17.22s-14.78-7.73-14.78-17.22v-61.48h22.09a21.08 21.08 0 007.47-1.36zm6-77.21a13.53 13.53 0 01-6 7.29 14.69 14.69 0 01-7.47 2l-22.09.09v-20.19c0-5.56-6.07-5.94-6.07 0s.07 14.37.07 14.37v59.59H345.41v-59.61s.07-8.46.07-14.37-6.07-5.54-6.07 0v20.11l-22.09-.09a14.69 14.69 0 01-7.47-2 13.53 13.53 0 01-6-7.29 14.89 14.89 0 01-.75-6.46l2.47-30.36c.89-9 9.23-17.08 18.2-17.75l11.12-.83 32.22-2.29c.68.54.48 17.49.48 17.49 0 8.43 23.34 15.29 31.77 15.29h1.3c8.43 0 31.77-6.86 31.77-15.29 0 0-.2-16.95.48-17.49l32.22 2.29 11.12.83c9 .67 17.3 8.8 18.2 17.75L496.9 371a14.89 14.89 0 01-.75 6.48z" id="border"/><g id="shirt-collars"><path class="cls-3" d="M379.9 341.19l-8.52 8.72s-13.48-4.45-12.38-19.86.31-12.55.31-12.55l8 .36z"/><path class="cls-11" d="M371.38 352.22a2.3 2.3 0 01-.72-.12c-.15 0-15.17-5.21-13.95-22.22.52-7.2.6-10.12.58-11.29a2.31 2.31 0 01-.19-1.72 2.41 2.41 0 012.74-1.86 2.64 2.64 0 01.73.23l6.88.31a2.31 2.31 0 011.93 1.21l12.56 23.33a2.31 2.31 0 01-.38 2.71l-8.56 8.72a2.31 2.31 0 01-1.62.7zm-9.49-32.29c-.05 2.19-.25 5.65-.58 10.29-.41 5.66 1.29 10.33 5 13.86a18.58 18.58 0 004.47 3.09l6.23-6.38-11.14-20.68z"/><path class="cls-3" d="M419.93 341.19l8.52 8.72s13.48-4.45 12.37-19.86-.31-12.55-.31-12.55l-8 .36z"/><path class="cls-11" d="M426.81 351.52l-8.52-8.72a2.31 2.31 0 01-.38-2.71l12.56-23.33a2.31 2.31 0 011.93-1.21l6.88-.31a2.64 2.64 0 01.72-.24 2.41 2.41 0 012.74 1.86 2.31 2.31 0 01-.19 1.72c0 1.16.07 4.08.58 11.29 1.23 17-13.8 22.17-13.95 22.22a2.31 2.31 0 01-2.37-.58zm7.1-31.41l-11.14 20.68 6.23 6.38a18.58 18.58 0 004.47-3.09c3.76-3.53 5.46-8.2 5-13.86-.33-4.64-.53-8.1-.58-10.29z"/></g><g id="head"><path class="cls-11" d="M351.67 281s-2.38 7.5-1.25 9 .13 6.13 2.5 5.63 5.13 8 7.63 3.88.36-11.43-.75-14.25-8.13-4.26-8.13-4.26zm96.95 0s2.38 7.5 1.25 9-.12 6.13-2.5 5.63-5.12 8-7.62 3.88-.36-11.43.75-14.25 8.12-4.26 8.12-4.26z"/><path id="skin-2" data-name="skin" class="cls-1" d="M446.38 255.1c0-.91.08-1.81.08-2.73 0-30.51-21.06-55.25-47-55.25s-47 24.74-47 55.25c0 1.11 0 2.21.1 3.31-4 2.46-6.9 8.44-6.9 15.43 0 9.19 4.93 16.64 11 16.64a7.47 7.47 0 002.1-.31c.82 24.5 18.74 44.08 40.73 44.08s40.12-19.81 40.74-44.5a7.65 7.65 0 003.25.74c6.08 0 11-7.45 11-16.64-.05-7.65-3.48-14.06-8.1-16.02z"/><path id="border-2" data-name="border" d="M446.38 255.1c0-.91.08-1.81.08-2.73 0-30.51-21.06-55.25-47-55.25s-47 24.74-47 55.25c0 1.11 0 2.21.1 3.31-4 2.46-6.9 8.44-6.9 15.43 0 9.19 4.93 16.64 11 16.64a7.47 7.47 0 002.1-.31c.82 24.5 18.74 44.08 40.73 44.08s40.12-19.81 40.74-44.5a7.65 7.65 0 003.25.74c6.08 0 11-7.45 11-16.64-.05-7.65-3.48-14.06-8.1-16.02z" stroke="#231f20" stroke-linecap="round" stroke-linejoin="round" stroke-width="6" fill="#e4b69d"/><path d="M422.58 302.6s-2.5-6-5.5-6.12l-17-.3-17 .3c-3 .13-5.5 6.13-5.5 6.13-2.75.13-17-17.62-17-17.62v12.88l16.63 25.75 22.79 7.69v-.37l.08.37 22.92-7.7 16.63-25.75V285s-14.3 17.73-17.05 17.6zm-22.5 18.4c-11.46 1-16.33-11.23-16.33-11.23-.46-8.33 16.33-7.17 16.33-7.17 9.21.17 14.54 4.79 14.59 6s-3.13 11.4-14.59 12.4z" opacity=".03" fill="#231f20"/><path class="cls-11" d="M451.75 241.37c-1-12.94-6.25-16.62-6.62-20s-12.25-14-12.75-17.5-19.25-10.75-20.87-10.75-9.2-2.12-11.37-.5c-2.17-1.62-9.75.5-11.37.5s-20.37 7.25-20.87 10.75-12.48 14.13-12.9 17.5-5.6 7.06-6.62 20S350.3 255 350.3 255a7.46 7.46 0 002.69-.83l-.07 2.45 2.65-1.62s-.6 6 1.12 6 2.45 2 3.08 0 7.22-26 7.93-31.5 1-4.46 3.71-4.48 21.83.48 28.62.48 25.87-.5 28.62-.48 3-1 3.71 4.48 6.29 29.5 6.93 31.5 1.36 0 3.08 0 1.12-6 1.12-6l3.65 1.62-.07-2.49a7.6 7.6 0 002.78.87s2.93-.68 1.9-13.63zm-56.2-42.23l4.45-4.38a.1.1 0 11.17 0l4.45 4.37-4.57.3z"/></g></svg>