<svg id="player" xmlns="http://www.w3.org/2000/svg" viewBox="0 0 800 800"><defs><style>.cls-1{fill:#f0d0b4}.cls-2{fill:#1e1e1e}.cls-3{fill:#fff}.cls-4{fill:#ec2027}.cls-5{fill:#303030}.cls-8{fill:#231f20}</style></defs><g id="skin"><path id="arm-left" class="cls-1" d="M305.93 383h36.78v72.4a18.39 18.39 0 01-18.39 18.39 18.39 18.39 0 01-18.39-18.39V383z"/><path id="arm-right" class="cls-1" d="M457.19 383H494v72.4a18.39 18.39 0 01-18.39 18.39 18.39 18.39 0 01-18.39-18.39V383h-.03z"/><path id="leg-left" class="cls-1" d="M349.88 493.02h45.67v45.67h-45.67z"/><path id="leg-right" class="cls-1" d="M404.78 493.02h45.67v45.67h-45.67z"/></g><g id="boots"><g id="boots-2" data-name="boots"><path id="left" class="cls-2" d="M395.54 571.04h-22.83l-22.83 1.97h-12.5l-7.5 2.53-5.25 8.5v9.83l1.91 4.17 3.84 4.05 6.33 1.95h58.83v-33z"/><path id="right" class="cls-2" d="M404.67 571.04h22.83l22.83 1.97h12.5l7.5 2.53 5.25 8.5v9.83l-1.91 4.17-3.84 4.05-6.33 1.95h-58.83v-33z"/></g><g id="details"><path class="cls-3" d="M326.87 593.43a1.93 1.93 0 01-1.65-.94 2 2 0 01.62-2.75 43.42 43.42 0 0119.64-7 40.9 40.9 0 0112.42.94 53.92 53.92 0 006.89 1c8.58.57 17.7-2.08 27.11-7.86a1.91 1.91 0 012.67.69 2 2 0 01-.67 2.74c-10.1 6.2-20 9-29.35 8.42a56.89 56.89 0 01-7.35-1.06 37.28 37.28 0 00-11.37-.88 39.66 39.66 0 00-17.92 6.38 1.9 1.9 0 01-1.04.32zm8.83 10.06a1.93 1.93 0 01-1.65-.94 2 2 0 01.62-2.75 38.43 38.43 0 0117.4-6.17 36.19 36.19 0 0111 .83 46.71 46.71 0 006 .88c7.5.49 15.49-1.82 23.73-6.88a1.91 1.91 0 012.67.69 2 2 0 01-.67 2.74c-8.93 5.48-17.68 8-26 7.44a50.53 50.53 0 01-6.5-.94 32.66 32.66 0 00-9.95-.78 34.68 34.68 0 00-15.67 5.58 1.9 1.9 0 01-.98.3z" id="left-2" data-name="left"/><path class="cls-3" d="M473.28 593.43a1.93 1.93 0 001.65-.94 2 2 0 00-.62-2.75 43.42 43.42 0 00-19.64-7 40.9 40.9 0 00-12.42.94 53.92 53.92 0 01-6.89 1c-8.58.57-17.7-2.08-27.11-7.86a1.91 1.91 0 00-2.67.69 2 2 0 00.67 2.74c10.1 6.2 20 9 29.35 8.42a56.89 56.89 0 007.35-1.06 37.28 37.28 0 0111.37-.88 39.66 39.66 0 0117.92 6.38 1.9 1.9 0 001.04.32zm-8.83 10.06a1.93 1.93 0 001.65-.94 2 2 0 00-.62-2.75 38.43 38.43 0 00-17.4-6.17 36.19 36.19 0 00-11 .83 46.71 46.71 0 01-6 .88c-7.5.49-15.49-1.82-23.73-6.88a1.91 1.91 0 00-2.67.69 2 2 0 00.67 2.74c8.93 5.48 17.68 8 26 7.44a50.53 50.53 0 006.5-.94 32.66 32.66 0 019.95-.78 34.68 34.68 0 0115.67 5.58 1.9 1.9 0 00.98.3z" id="right-2" data-name="right"/></g></g><g id="socks"><g id="socks-2" data-name="socks"><path id="left-3" data-name="left" class="cls-3" d="M349.88 523h45.67v48.04h-45.67z"/><path id="right-3" data-name="right" class="cls-3" d="M404.38 523h45.67v48.04h-45.67z"/></g><g id="details-2" data-name="details"><path class="cls-4" d="M350.09 523.25h45.67v5.17h-45.67zm0 12.85h45.67v9.98h-45.67z" id="left-4" data-name="left"/><path class="cls-4" d="M404.78 523.25h45.67v5.17h-45.67zm0 12.85h45.67v9.98h-45.67z" id="right-4" data-name="right"/></g></g><g id="shorts"><path id="shorts-2" data-name="shorts" class="cls-5" d="M341.67 443.54h116.49v47a9.95 9.95 0 01-9.95 9.95h-96.6a9.95 9.95 0 01-9.95-9.95v-47h.01z"/><path class="cls-3" d="M348.81 497.34h-3.11l3.1-16.65a55.93 55.93 0 000-20.46l-3.1-16.65h3.11l3.1 16.65a55.93 55.93 0 010 20.46zm102.67 0h3.11l-3.1-16.65a55.93 55.93 0 010-20.46l3.1-16.65h-3.11l-3.1 16.65a55.93 55.93 0 000 20.46z" id="details-3" data-name="details"/></g><g id="shirt"><path id="shirt-2" data-name="shirt" class="cls-4" d="M369.5 315.8l-48.29 2.99-11.36 6.25-6.83 10.1-1.93 98.78 11.16 7.16 29.96 1.13h147.21l10.96-12.79-3.4-92.71-6.83-11.84-9.77-6.08-49.84-2.99-1 21.24-6.5 6.5-11.16 3.48-11.88 2.02-15.46-3.17-11-5.66-3.66-3.84-.38-20.57z"/><g id="details-4" data-name="details"><path class="cls-3" d="M342.59 360.5v81.71h17.25V349.7a1.84 1.84 0 00-.78-1.5c-1.44-1-2.9-2.12-4.24-3.21a1.88 1.88 0 00-2-.25 17.23 17.23 0 00-10.23 15.76zM375 442.21h17.25v-78a1.51 1.51 0 00-1.31-1.49 58.79 58.79 0 01-13.89-3.62 1.49 1.49 0 00-2.05 1.39zm32.49 0h17.25v-81.63a1.49 1.49 0 00-2-1.4 59.18 59.18 0 01-13.89 3.53 1.51 1.51 0 00-1.32 1.49zM444.84 345a70.948 70.948 0 01-4.15 3.32 1.85 1.85 0 00-.75 1.48v92.39h17.25V360.5a17.23 17.23 0 00-10.34-15.79 1.89 1.89 0 00-2.01.29z" id="chest"/><g id="neck"><path id="neck-2" data-name="neck" class="cls-3" d="M430.59 315.8l-4.25 16.62L400 345l-26.28-12.57-4.22-16.63-5.58 1.28v20.38c0 3.5 2.67 6.79 5.52 8.82 5.3 3.78 15.27 9 30.61 9s25.31-5.26 30.61-9a10.81 10.81 0 004.52-8.82v-20.38z"/><path class="cls-4" d="M440.17 317.08l-14.42-2.52-3.68 14.36-22 10.53-22-10.53-3.68-14.36-15.42 2.52-10 20.38c0 1.92 2.17 4.37 5.06 6.83 1.79 1.53 3.86 3.05 5.86 4.46 2.61 1.84 5.11 3.47 6.7 4.6a50 50 0 008.5 4.84 58.39 58.39 0 0017.25 4.65 63.5 63.5 0 0015.2 0 58.74 58.74 0 0017.25-4.54 50 50 0 008.82-5c1.42-1 3.84-2.61 6.39-4.47a65.56 65.56 0 005.75-4.63c2.57-2.37 4.48-4.79 4.48-6.79zm-5 20.38a10.81 10.81 0 01-4.52 8.82 44.27 44.27 0 01-5.91 3.53 52.65 52.65 0 01-17.25 5 59.61 59.61 0 01-15.2 0 52.35 52.35 0 01-17.29-5.16 44.19 44.19 0 01-5.6-3.37c-2.85-2-5.52-5.32-5.52-8.82v-20.38l5.58-1.28 4.25 16.62L400 345l26.3-12.57 4.25-16.62 4.58 1.28z"/></g><path id="arm-r" class="cls-3" d="M492.92 440.58h-35.73v-8.33l43.17-3.26-7.44 11.59z"/><path id="arm-l" class="cls-3" d="M306.86 440.58h35.73v-8.33l-43.17-3.26 7.44 11.59z"/><g id="crest-psv"><path d="M400 368.47c4.55 0 8.24 2.51 8.24 5.61s-3.69 5.61-8.24 5.61-8.24-2.51-8.24-5.61 3.69-5.61 8.24-5.61m0-.85a11.28 11.28 0 00-6.3 1.79 5.3 5.3 0 000 9.33 12 12 0 0012.6 0 5.3 5.3 0 000-9.33 11.28 11.28 0 00-6.3-1.79z" fill="#ecb126"/><path class="cls-3" d="M393.41 377.44h13.18a5 5 0 001.48-2.24h-16.14a5 5 0 001.48 2.24z"/><path class="cls-4" d="M400 379.69a9.92 9.92 0 006.59-2.24h-13.18a9.92 9.92 0 006.59 2.24zm-6.59-8.98h13.18a10.8 10.8 0 00-13.18 0zm-1.65 3.37a3.91 3.91 0 00.16 1.12h16.14a3.9 3.9 0 000-2.24h-16.13a3.91 3.91 0 00-.17 1.12z"/><path class="cls-3" d="M391.93 373h16.14a5 5 0 00-1.48-2.24h-13.18a5 5 0 00-1.48 2.24z"/><path d="M396.72 376.65l.63-5.6a.79.79 0 011.13-.63l7.42 3.58a.45.45 0 01-.07.84l-8.38 2.43a.57.57 0 01-.73-.62z" fill="#e6e7e8"/></g><g id="sponsor-phillips"><path class="cls-3" d="M342.59 388.62h114.6v28.62h-114.6z"/><rect class="cls-5" x="356.4" y="395.47" width="87.25" height="14.94" rx="7.47" ry="7.47"/></g><path id="nike" class="cls-5" d="M375.74 371.84c0 1.19-1.57 2.17-3.49 2.17H363c-1.92 0-3.49-1-3.49-2.17s1.57-2.17 3.49-2.17h9.26c1.91 0 3.48.97 3.48 2.17z"/><g id="logo-champions-league"><ellipse class="cls-3" cx="306.48" cy="370.07" rx="11.98" ry="7.06" transform="matrix(.08 -1 1 .08 -88.19 644.15)"/><ellipse class="cls-3" cx="306.48" cy="370.07" rx="9.9" ry="5.83" transform="rotate(-85.15 306.466 370.07)"/><path class="cls-8" d="M305.58 380.69c-3.45-.29-5.85-5.29-5.35-11.15s3.71-10.38 7.15-10.09 5.85 5.29 5.35 11.15-3.73 10.4-7.15 10.09zm1.68-19.69c-3-.25-5.71 3.63-6.14 8.66s1.63 9.32 4.59 9.57 5.71-3.63 6.14-8.66-1.64-9.36-4.59-9.57z"/><path class="cls-8" d="M307.24 366.74l.23 1.14a.66.66 0 00.36.53l.71.24c.42.14.52 1.06.16 1.56l-.6.82a1.34 1.34 0 00-.22.78v1.23c0 .74-.49 1.26-.85.88l-.6-.63a.35.35 0 00-.49 0l-.69.52c-.42.31-.82-.28-.69-1l.23-1.21a1.34 1.34 0 00-.08-.81l-.45-.91c-.27-.55 0-1.44.42-1.51l.74-.12a.66.66 0 00.44-.46l.42-1.08c.27-.71.83-.65.96.03z"/></g></g></g><path id="neck-3" data-name="neck" fill="#dfb28b" d="M427.61 340.42l-27.59 8.62-28.6-9.62-1.92-23.62h61.04l-2.93 24.62z"/><path d="M502.88 422.91l-2.47-83.84c-1.19-11.87-11.83-22.25-23.72-23.14l-37.14-2.71c-4.07-.45-20.52-.09-39.55.53-19-.62-35.48-1-39.55-.53l-37.14 2.71c-11.89.89-22.53 11.27-23.72 23.14l-2.47 83.84a20.15 20.15 0 005 15.74 19.92 19.92 0 001.69 1.64v12.87c0 12.81 9.32 23.22 20.78 23.22a19.8 19.8 0 0015.25-7.38v21.79a12.23 12.23 0 007.74 11.36v68h-5.93c-10.93 0-19.83 5.8-19.83 17.11 0 8.06 0 17 11.72 19.7v1.6a1.38 1.38 0 001.38 1.38h1.63a1.38 1.38 0 001.38-1.37v-.95c1.16.09 2.39.15 3.73.15h1.89v.8a1.38 1.38 0 001.38 1.38h1.63a1.38 1.38 0 001.38-1.37v-.8h5.62v.8a1.38 1.38 0 001.38 1.38h1.63a1.38 1.38 0 001.38-1.37v-.8h5.62v.8a1.38 1.38 0 001.38 1.38h1.63a1.38 1.38 0 001.38-1.37v-.8h5.62v.8a1.38 1.38 0 001.38 1.38h1.63a1.38 1.38 0 001.38-1.37v-.8h5.62v.8a1.38 1.38 0 001.38 1.38h1.63a1.38 1.38 0 001.38-1.37v-.8h5.62v.8a1.38 1.38 0 001.38 1.38h1.63a1.38 1.38 0 001.38-1.37v-.81l.06-55.45V503h4v49.21l.06 54.67v1.6a1.38 1.38 0 001.38 1.38h1.63a1.38 1.38 0 001.38-1.37v-.8h5.62v.8a1.38 1.38 0 001.38 1.38h1.63a1.38 1.38 0 001.38-1.37v-.8h5.62v.8a1.38 1.38 0 001.38 1.38h1.63a1.38 1.38 0 001.38-1.37v-.8h5.62v.8a1.38 1.38 0 001.38 1.38h1.63a1.38 1.38 0 001.38-1.37v-.8h5.62v.8a1.38 1.38 0 001.38 1.38h1.63a1.38 1.38 0 001.38-1.37v-.8h5.62v.8a1.38 1.38 0 001.38 1.38h1.63a1.38 1.38 0 001.38-1.37v-.8h1.89c1.33 0 2.57-.05 3.72-.15v.95a1.38 1.38 0 001.38 1.38h1.63a1.38 1.38 0 001.38-1.37v-1.6c11.71-2.68 11.72-11.64 11.72-19.7 0-11.3-8.89-17.11-19.83-17.11h-5.93v-68a12.23 12.23 0 007.74-11.36V469a19.8 19.8 0 0015.21 7.42c11.46 0 20.78-10.42 20.78-23.22v-12.9a19.92 19.92 0 001.69-1.64 20.15 20.15 0 004.95-15.75zm-130.49-99.66c3.46 1.84 15.64 2.07 27.61 1.79 12 .28 24.15 0 27.61-1.79V335c0 4.8-22.42 12-27.23 12l-.38-.08-.38.08c-4.8 0-27.23-7.19-27.23-12zm-33 128.91v1.53c0 9.5-6.63 17.22-14.78 17.22s-14.78-7.73-14.78-17.22v-9.31a21.08 21.08 0 007.47 1.36h22.09zm52.9 149.93h-50.64c-14.22 0-14.22-5-14.22-14.89 0-8.21 6.38-11.5 14.22-11.5h11.67l38.93-2.7.06 15.37zm-38.74-76.4h38.67v41.71l-38.67 2.68h-.26V525.7zm-.26-5.74V503h38.94v17h-38.91zm104.77 55.75h.26c7.84 0 14.22 3.29 14.22 11.5 0 9.91 0 14.89-14.22 14.89h-50.64V588.4l.06-15.37 38.93 2.69h11.42zm-11.67-50h.26v44.4h-.26l-38.67-2.68V525.7zm-38.64-5.7v-17h38.95v17h-38.95zm46.84-73.77h-.07v44.58a6.6 6.6 0 01-6.58 6.58H403s-.11-3.73-.16-8.75v-2.79c0-3.51-1.41-5.09-2.82-5-1.41-.09-2.82 1.49-2.82 5v2.79c0 5-.16 8.75-.16 8.75H352.1a6.6 6.6 0 01-6.58-6.58v-44.63h-.07v-.33l30.24.33h48.69l30.24-.33zm35.57 7.51c0 9.5-6.63 17.22-14.78 17.22s-14.78-7.73-14.78-17.22v-7.94h22.09a21.08 21.08 0 007.47-1.36zm6-23.73a13.53 13.53 0 01-6 7.29 14.69 14.69 0 01-7.47 2l-22.09.09v-73.67c0-5.56-6.07-5.94-6.07 0s.07 14.37.07 14.37v59.59H345.41v-59.61s.07-8.46.07-14.37-6.07-5.54-6.07 0v73.59l-22.09-.09a14.69 14.69 0 01-7.47-2 13.53 13.53 0 01-6-7.29 14.89 14.89 0 01-.75-6.46l2.47-83.84c.89-9 9.23-17.08 18.2-17.75l11.12-.83 32.22-2.29c.68.54.48 17.49.48 17.49 0 8.43 23.34 15.29 31.77 15.29h1.3c8.43 0 31.77-6.86 31.77-15.29 0 0-.2-16.95.48-17.49l32.22 2.29 11.12.83c9 .67 17.3 8.8 18.2 17.75l2.47 83.84a14.89 14.89 0 01-.77 6.55z" id="border"/><g id="head"><path id="skin-2" data-name="skin" class="cls-1" d="M446.38 254.1c0-.91.08-1.81.08-2.73 0-30.51-21.06-55.25-47-55.25s-47 24.74-47 55.25c0 1.11 0 2.21.1 3.31-4 2.46-6.9 8.44-6.9 15.43 0 9.19 4.93 16.64 11 16.64a7.47 7.47 0 002.1-.31c.82 24.5 18.74 44.08 40.73 44.08s40.12-19.81 40.74-44.5a7.65 7.65 0 003.25.74c6.08 0 11-7.45 11-16.64-.05-7.65-3.48-14.06-8.1-16.02z"/><path id="border-2" data-name="border" d="M446.38 254.1c0-.91.08-1.81.08-2.73 0-30.51-21.06-55.25-47-55.25s-47 24.74-47 55.25c0 1.11 0 2.21.1 3.31-4 2.46-6.9 8.44-6.9 15.43 0 9.19 4.93 16.64 11 16.64a7.47 7.47 0 002.1-.31c.82 24.5 18.74 44.08 40.73 44.08s40.12-19.81 40.74-44.5a7.65 7.65 0 003.25.74c6.08 0 11-7.45 11-16.64-.05-7.65-3.48-14.06-8.1-16.02z" fill="none" stroke="#231f20" stroke-linecap="round" stroke-linejoin="round" stroke-width="6"/><path d="M450.81 232.81c.07-1.1.09-2.18.07-3.26.54-2.45.85-6.4-1.37-9.83-.06-.23-.14-.46-.21-.69-.1-1.5-.63-7-3.21-8.69 0 0-2.81-6-5-6.92 0 0-4.45-4-6.75-4.08 0 0-9.65-3.58-11.33-3 0 0-10.92-4-13.08-2.82 0 0-8-2.53-9.85-.65-1.89-1.88-11.85.65-11.85.65-2.17-1.15-11.08 1.82-11.08 1.82-1.68-.58-11.33 3-11.33 3-2.3.06-7.75 5.08-7.75 5.08-2.19.89-7 6.92-7 6.92-2.59 1.65-3.12 7.19-3.21 8.69l-.21.69c-2.21 3.44-1.91 7.38-1.37 9.83 0 1.07 0 2.16.07 3.26-1.5 3.59 2.56 12.93 2.56 12.93a12 12 0 00.27 8.27l-1.45 7.47c0 .25 3-1.43 5.48-2.85a9.6 9.6 0 004.57-6L365.2 232c.87-3.16 4-2.13 7.26-1.51 8.6 1.65 13.93 3.58 27.59 3.58s19.09-1.93 27.69-3.58c3.22-.62 6.38-1.65 7.26 1.51l7.42 20.63a9.6 9.6 0 004.57 6c2.53 1.43 5.48 3.1 5.48 2.85L452 254a12 12 0 00.27-8.27s.04-9.33-1.46-12.92z"/></g></svg>