<svg viewBox="0 0 227 425" xmlns="http://www.w3.org/2000/svg" fill-rule="evenodd" clip-rule="evenodd" stroke-linecap="round" stroke-linejoin="round"><path fill="none" d="M0 0h226.714v424.288H0z"/><g fill="#ac8457"><path d="M22.761 197.485h36.78v72.38c0 10.088-8.302 18.39-18.39 18.39-10.089 0-18.39-8.302-18.39-18.39v-72.38zm151.26 0h36.81v72.38c0 10.088-8.302 18.39-18.39 18.39-10.089 0-18.39-8.302-18.39-18.39v-72.38h-.03z" fill-rule="nonzero"/><path d="M66.711 307.495h45.67v45.67h-45.67zm54.9 0h45.67v45.67h-45.67z"/></g><g fill-rule="nonzero"><path d="M112.371 373.585h-22.83l-22.83 1.97h-12.5l-7.5 2.53-5.25 8.5v9.84l1.91 4.16 3.84 4.06 6.33 1.94h58.83v-33zm9.13 0h22.83l22.83 1.97h12.5l7.5 2.53 5.25 8.5v9.84l-1.91 4.16-3.84 4.06-6.33 1.94h-58.83v-33z" fill="#58595b"/><path d="M99.281 371.615s-21.5 18.27-21.83 36.27h20.83s17-10.17 13.71-36.83l-12.71.56zm35.46 0s21.5 18.27 21.83 36.27h-20.83s-17-10.17-13.71-36.83l12.71.56z" fill="#a7a9ac"/></g><path d="M66.711 326.405h45.67v48.04h-45.67zm54.5 0h45.67v48.04h-45.67z" fill="#fff"/><path d="M66.741 337.835h45.67v13.98h-45.67zm54.87 0h45.67v13.98h-45.67z" fill="#024f9e"/><path d="M58.501 257.275h116.49v45.55c0 5.376-4.424 9.8-9.8 9.8h-96.88c-5.376 0-9.8-4.424-9.8-9.8v-45.55h-.01z" fill="#024f9e" fill-rule="nonzero"/><path d="M62.241 260.315h6.5v51.26h-6.5zm102.68 0h6.5v51.26h-6.5z" fill="#fff"/><path d="M86.331 130.275l-48.29 2.98-11.36 6.25-6.83 10.1-3.31 40.74 5.17 7.66 7.66 4.67h29.5l.17 54h114.83v-53.5l29.34-.17 7.01-4 6.99-10.5-3.4-37.33-6.83-11.83-9.77-6.09-49.84-2.98-1 21.23-6.5 6.5-11.16 3.49-11.88 2.01-15.46-3.16-11-5.67-3.66-3.83-.38-20.57z" fill="#fed519" fill-rule="nonzero"/><path d="M28.601 201.105c-4.38-.4-8.56-5.62-10.67-8.06-2.11-2.44-1.26-9.78-1.07-13.88l1-20.73a25.245 25.245 0 015.42-13.22l3.28-3.74c2.79-3.17 4.85-2.42 4.59 1.67l-2.32 35.72c-.26 4.1-1.46 12.76 2.94 12.76l25.83.31c4.4 0 2.71 10.58-1.67 10.18l-27.33-1.01zm176.54 0c4.38-.4 8.56-5.62 10.67-8.06 2.11-2.44 1.26-9.78 1.07-13.88l-1-20.73a25.253 25.253 0 00-5.42-13.22l-3.28-3.74c-2.79-3.17-4.85-2.42-4.59 1.67l2.29 35.71c.26 4.1 1.46 12.76-2.94 12.76l-25.83.31c-4.4 0-2.71 10.58 1.67 10.18l27.36-1zm-54.5-69.07c-2.52 1.63-7 3.25-10 6.49l-18.37 20a7.234 7.234 0 01-10.82 0l-18.37-20a55.58 55.58 0 00-10-8c-2.52-1.63-4.6-.22-4.6 4.18v16.58a13.754 13.754 0 007.25 11.39l23.86 11.14a19.518 19.518 0 0014.5 0l23.86-11.14a13.756 13.756 0 007.25-11.39v-16.57c-1-2.79-2.04-4.3-4.56-2.68zm8.36 64.89a.944.944 0 01-1 .89h-7a.894.894 0 01-.89-.89c0-.489.401-.89.89-.89h7c.02-.002.041-.002.061-.002.498 0 .913.395.939.892z" fill="#009d5c" fill-rule="nonzero"/><ellipse cx="148.801" cy="174.805" rx=".92" ry=".95" fill="#009d5c"/><ellipse cx="152.611" cy="173.775" rx=".92" ry=".95" fill="#009d5c"/><ellipse cx="156.411" cy="173.775" rx=".92" ry=".95" fill="#009d5c"/><ellipse cx="160.221" cy="174.805" rx=".92" ry=".95" fill="#009d5c"/><path d="M156.901 176.275c-.41-.42-2.39-.47-2.39-.47s-2 0-2.39.47c-1.85 1.91-3.88 1.79-4.55 3.14a1.902 1.902 0 00-.17 1l1 10.37a2.464 2.464 0 001.52 2.27l2.3.75 2.32.93 2.32-.93 2.3-.75a2.465 2.465 0 001.52-2.27l1-10.37a1.922 1.922 0 00-.17-1c-.73-1.35-2.76-1.23-4.61-3.14z" fill="#024f9e" fill-rule="nonzero"/><path d="M155.241 178.565a.57.57 0 00-.57-.57h-.31a.57.57 0 00-.57.57v13.44c0 .314.255.57.57.57h.31c.314 0 .57-.256.57-.57v-13.44z" fill="#009d5c"/><path d="M159.721 184.125a.57.57 0 00-.57-.57h-9.34a.57.57 0 00-.57.57v.31c0 .314.255.57.57.57h9.34c.314 0 .57-.256.57-.57v-.31z" fill="#009d5c"/><path d="M154.511 193.075a.42.42 0 01-.15 0l-1.81-.72-1.77-.57a2.324 2.324 0 01-1.43-2.12l-.75-8.07a1.9 1.9 0 01.17-1 2.996 2.996 0 011.61-1.24 6.131 6.131 0 002-1.3 5 5 0 014.31 0 6.094 6.094 0 002 1.3 3 3 0 011.61 1.24 1.9 1.9 0 01.17 1l-.75 8.07a2.325 2.325 0 01-1.43 2.12l-1.8.58-1.78.72a.423.423 0 01-.2-.01zm-3.46-2.1l1.78.58 1.68.67 1.66-.66 1.8-.59c.558-.234.922-.785.92-1.39l.75-8.08a1.08 1.08 0 00-.09-.58c-.2-.4-.63-.59-1.22-.87a6.886 6.886 0 01-2.24-1.47 4.543 4.543 0 00-1.58-.25 4.438 4.438 0 00-1.57.25 6.87 6.87 0 01-2.24 1.47c-.6.27-1 .47-1.22.87a1.08 1.08 0 00-.09.58l.75 8.08a1.502 1.502 0 00.91 1.39z" fill="#fed519" fill-rule="nonzero"/><path d="M157.101 183.095l-1.71.31.31-1.71a.532.532 0 00-.52-.62h-1.35a.532.532 0 00-.52.62l.31 1.71-1.71-.31a.532.532 0 00-.62.52v1.35a.532.532 0 00.62.52l1.71-.31-.31 1.71a.533.533 0 00.52.62h1.35a.532.532 0 00.52-.62l-.31-1.71 1.71.31a.532.532 0 00.62-.52v-1.35a.533.533 0 00-.62-.52z" fill="#fff" fill-rule="nonzero"/><path d="M88.741 186.335c0 1.19-1.57 2.17-3.49 2.17h-9.26c-1.92 0-3.49-1-3.49-2.17s1.57-2.17 3.49-2.17h9.26c1.92 0 3.49.98 3.49 2.17zm28.51 35.72c-6.22 0-8.82-4.78-8.82-10.54 0-6.19 3.49-10.57 9.53-10.57 2 0 4.56.58 5.33 1.93.134.256.206.54.21.83a2.01 2.01 0 01-2 1.9 1.825 1.825 0 01-.89-.21 5.613 5.613 0 00-2.67-.58c-3 0-5.12 2.54-5.12 5.79a1.932 1.932 0 000 .43 6.652 6.652 0 015.24-2.64c3.68 0 7 2.3 7 6.65.01 3.98-3.15 7.01-7.81 7.01zm-.4-9.93a5.112 5.112 0 00-4 1.93c.18 2 1.29 4.14 4.14 4.14 2.36 0 3.65-1.56 3.65-3 .01-2.15-1.81-3.06-3.81-3.06l.02-.01z" fill="#009d5c" fill-rule="nonzero"/><path d="M147.371 152.555s-14.09 11-30.54 11-30.5-11-30.5-11v-22.28h61l.04 22.28z" fill="#89694b" fill-rule="nonzero"/><path d="M219.711 183.895l-2.47-30.34c-1.19-11.87-11.83-22.25-23.72-23.14l-37.14-2.71c-4.07-.45-20.52-.09-39.55.53-19-.62-35.48-1-39.55-.53l-37.14 2.71c-11.89.89-22.53 11.27-23.72 23.14l-2.47 30.36a20.157 20.157 0 005 15.74c.53.579 1.095 1.127 1.69 1.64v66.36c0 12.81 9.32 23.22 20.78 23.22a19.814 19.814 0 0015.21-7.42v19.57a12.25 12.25 0 007.74 11.36v58.26h-5.93c-10.93 0-19.83 5.8-19.83 17.11 0 8.06 0 17 11.72 19.7v1.6c0 .757.623 1.38 1.38 1.38h1.63c.753 0 1.374-.617 1.38-1.37v-.95c1.16.09 2.39.15 3.73.15h1.89v.8c0 .757.623 1.38 1.38 1.38h1.63c.753 0 1.374-.617 1.38-1.37v-.8h5.62v.8c0 .757.623 1.38 1.38 1.38h1.63c.753 0 1.374-.617 1.38-1.37v-.8h5.62v.8c0 .757.623 1.38 1.38 1.38h1.63c.753 0 1.374-.617 1.38-1.37v-.8h5.62v.8c0 .757.623 1.38 1.38 1.38h1.63c.753 0 1.374-.617 1.38-1.37v-.8h5.62v.8c0 .757.623 1.38 1.38 1.38h1.63c.753 0 1.374-.617 1.38-1.37v-.8h5.62v.8c0 .757.623 1.38 1.38 1.38h1.63c.753 0 1.374-.617 1.38-1.37v-.81l.06-55.45v-39.59h4v39.49l.06 54.67v1.6c0 .757.623 1.38 1.38 1.38h1.63c.753 0 1.374-.617 1.38-1.37v-.8h5.62v.8c0 .757.623 1.38 1.38 1.38h1.63c.753 0 1.374-.617 1.38-1.37v-.8h5.62v.8c0 .757.623 1.38 1.38 1.38h1.63c.753 0 1.374-.617 1.38-1.37v-.8h5.62v.8c0 .757.623 1.38 1.38 1.38h1.63c.753 0 1.374-.617 1.38-1.37v-.8h5.62v.8c0 .757.623 1.38 1.38 1.38h1.63c.753 0 1.374-.617 1.38-1.37v-.8h5.62v.8c0 .757.623 1.38 1.38 1.38h1.63c.753 0 1.374-.617 1.38-1.37v-.8h1.89c1.33 0 2.57-.05 3.72-.15v.95c0 .757.623 1.38 1.38 1.38h1.63c.753 0 1.374-.617 1.38-1.37v-1.6c11.71-2.68 11.72-11.64 11.72-19.7 0-11.3-8.89-17.11-19.83-17.11h-5.93v-58.33a12.253 12.253 0 007.74-11.36v-19.56a19.814 19.814 0 0015.21 7.42c11.46 0 20.78-10.42 20.78-23.22v-66.36a20.125 20.125 0 001.69-1.64 20.161 20.161 0 004.99-15.75zm-130.49-46.17c3.46 1.83 15.61 2.07 27.61 1.83 12 .28 24.15 0 27.61-1.79v11.78c0 4.8-22.42 12-27.23 12l-.38-.08-.38.08c-4.8 0-27.23-7.19-27.23-12v-11.82zm-33 75.43v55c0 9.5-6.63 17.22-14.78 17.22-8.15 0-14.78-7.73-14.78-17.22v-62.78a21.107 21.107 0 007.47 1.36h22.09v6.42zm52.9 191.48h-50.64c-14.22 0-14.22-5-14.22-14.89 0-8.21 6.38-11.5 14.22-11.5h11.67l38.93-2.69.06 15.37-.02 13.71zm-38.74-76.4h38.67v41.71l-38.67 2.68h-.26v-44.4l.26.01zm-.26-5.74v-7.26h38.94v7.21h-38.91l-.03.05zm104.77 55.75h.26c7.84 0 14.22 3.29 14.22 11.5 0 9.91 0 14.89-14.22 14.89h-50.64v-13.7l.06-15.37 38.93 2.69h11.42l-.03-.01zm-11.67-50h.26v44.4h-.26l-38.67-2.68v-41.74l38.67.02zm-38.67-5.74v-7.21h38.98v7.26h-38.95l-.03-.05zm46.84-61.84h-.07v42.35c-.011 3.605-2.975 6.569-6.58 6.58h-1.26l-43.65-.04s-.11-3.73-.16-8.75v-2.79c0-3.51-1.41-5.09-2.82-5-1.41-.09-2.82 1.49-2.82 5v2.79c0 5-.16 8.75-.16 8.75h-44.94c-3.606-.011-6.569-2.975-6.58-6.58v-42.32h-.07v-.33l30.24.33h48.69l30.24-.33-.06.34zm35.57 7.51c0 9.5-6.63 17.22-14.78 17.22-8.15 0-14.78-7.73-14.78-17.22v-61.44h22.09a21.11 21.11 0 007.47-1.36v62.8zm6-77.21a13.54 13.54 0 01-6 7.29 14.706 14.706 0 01-7.47 2l-22.09.09v-20.15c0-5.56-6.07-5.94-6.07 0s.07 14.37.07 14.37v59.59H62.241v-59.6s.07-8.46.07-14.37c0-5.91-6.07-5.54-6.07 0v20.11l-22.09-.09a14.701 14.701 0 01-7.47-2 13.532 13.532 0 01-6-7.29 14.89 14.89 0 01-.75-6.46l2.47-30.36c.89-9 9.23-17.08 18.2-17.75l11.12-.83 32.22-2.29c.68.54.48 17.49.48 17.49 0 8.43 23.34 15.29 31.77 15.29h1.3c8.43 0 31.77-6.86 31.77-15.29 0 0-.2-16.95.48-17.49l32.21 2.33 11.12.83c9 .67 17.3 8.8 18.2 17.75l2.47 30.36a14.894 14.894 0 01-.76 6.45l-.02.02z" fill-rule="nonzero"/><path d="M163.211 68.555c0-.91.08-1.81.08-2.73 0-30.51-21.06-55.25-47-55.25s-47 24.74-47 55.25c0 1.11 0 2.21.1 3.31-4 2.46-6.9 8.44-6.9 15.43 0 9.19 4.93 16.64 11 16.64a7.507 7.507 0 002.1-.31c.82 24.5 18.74 44.08 40.73 44.08s40.12-19.81 40.74-44.5a7.657 7.657 0 003.25.74c6.08 0 11-7.45 11-16.64-.05-7.63-3.48-14.02-8.1-16.02z" fill="#ac8457" fill-rule="nonzero"/><path d="M116.001 10.315c-44.42 3.5-45.58 44.42-45.58 44.42s6.57-21 19.22-23.92c6.72-1.58 17.48 4.21 26.35 5.06 8.87-.85 19.64-6.63 26.35-5.06 12.65 3 19.22 23.92 19.22 23.92s-1.14-40.92-45.56-44.42z" fill="#8c715d" fill-opacity=".7" fill-rule="nonzero"/><path d="M163.211 68.555c0-.91.08-1.81.08-2.73 0-30.51-21.06-55.25-47-55.25s-47 24.74-47 55.25c0 1.11 0 2.21.1 3.31-4 2.46-6.9 8.44-6.9 15.43 0 9.19 4.93 16.64 11 16.64a7.507 7.507 0 002.1-.31c.82 24.5 18.74 44.08 40.73 44.08s40.12-19.81 40.74-44.5a7.657 7.657 0 003.25.74c6.08 0 11-7.45 11-16.64-.05-7.63-3.48-14.02-8.1-16.02z" fill="none" stroke="#231f20" stroke-width="6"/></svg>