<svg id="player" xmlns="http://www.w3.org/2000/svg" viewBox="0 0 800 800"><defs><style>.cls-1{fill:#e4b69d}.cls-2{fill:#f9f4e1}.cls-3{opacity:.5}.cls-4{fill:#dcd5c3}.cls-5{fill:#db1737}.cls-6{fill:#221f1f}.cls-7{fill:#e01f26}.cls-8{fill:#fff}.cls-9{fill:#f1f2f2}.cls-10{fill:#00a79d}.cls-11{fill:#3d55a5}.cls-12{fill:#ead12a}.cls-14{fill:#f2e088}</style></defs><g id="skin"><path id="arm-left" class="cls-1" d="M305.93 382.42h36.78v72.38a18.39 18.39 0 01-18.39 18.39 18.39 18.39 0 01-18.39-18.39v-72.38z"/><path id="arm-right" class="cls-1" d="M457.19 382.42H494v72.38a18.39 18.39 0 01-18.39 18.39 18.39 18.39 0 01-18.39-18.39v-72.38h-.03z"/><path id="leg-left" class="cls-1" d="M349.88 492.42h45.67v45.67h-45.67z"/><path id="leg-right" class="cls-1" d="M404.78 492.42h45.67v45.67h-45.67z"/></g><g id="boots"><path id="left" class="cls-2" d="M395.54 570.44h-22.83l-22.83 1.98h-12.5l-7.5 2.52-5.25 8.5v9.84l1.91 4.16 3.84 4.06 6.33 1.94h58.83v-33z"/><path id="right" class="cls-2" d="M404.67 570.44h22.83l22.83 1.98h12.5l7.5 2.52 5.25 8.5v9.84l-1.91 4.16-3.84 4.06-6.33 1.94h-58.83v-33z"/><g id="details"><g id="left-2" data-name="left"><g id="pattern" class="cls-3"><path class="cls-4" transform="rotate(-63.68 385.856 588.369)" d="M367.03 587.91h37.6v.91h-37.6z"/><path class="cls-4" transform="rotate(-63.68 390.525 597.36)" d="M381.74 596.9h17.54v.91h-17.54z"/><path class="cls-4" transform="rotate(-63.68 376.738 588.374)" d="M357.91 587.91h37.6v.91h-37.6z"/><path class="cls-4" transform="rotate(-63.68 367.611 588.374)" d="M348.79 587.91h37.6v.91h-37.6z"/><path class="cls-4" transform="rotate(-63.68 358.225 588.704)" d="M340.08 588.23h36.24v.91h-36.24z"/><path class="cls-4" transform="rotate(-63.68 349.332 588.436)" d="M331.05 587.97h36.53v.91h-36.53z"/><path class="cls-4" transform="rotate(-63.68 340.45 587.952)" d="M323.45 587.49h33.97v.91h-33.97z"/><path class="cls-4" transform="rotate(-63.68 332.793 584.993)" d="M320.5 584.53h24.55v.91H320.5z"/></g><path class="cls-5" d="M395.85 571.31s-17.68 25-54.41 2.72z"/></g><g id="right-2" data-name="right"><g id="pattern-2" data-name="pattern" class="cls-3"><path class="cls-4" transform="rotate(-26.34 414.336 588.505)" d="M413.73 569.62h1v37.6h-1z"/><path class="cls-4" transform="rotate(-26.35 409.455 597.32)" d="M409.05 588.64h1v17.54h-1z"/><path class="cls-4" transform="rotate(-26.34 423.439 588.516)" d="M422.85 569.62h1v37.6h-1z"/><path class="cls-4" transform="rotate(-26.34 432.568 588.511)" d="M431.97 569.62h1v37.6h-1z"/><path class="cls-4" transform="rotate(-26.35 441.762 588.661)" d="M441.36 570.63h1v36.24h-1z"/><path class="cls-4" transform="rotate(-26.35 450.634 588.395)" d="M450.24 570.22h1v36.53h-1z"/><path class="cls-4" transform="rotate(-26.34 459.736 588.084)" d="M459.13 571.02h1v33.97h-1z"/><path class="cls-4" transform="rotate(-26.34 467.372 585.116)" d="M466.78 572.77h1v24.55h-1z"/></g><path class="cls-5" d="M404.93 571.31s17.68 25 54.41 2.72z"/></g></g></g><g id="socks"><g id="socks-2" data-name="socks"><path id="left-3" data-name="left" class="cls-6" d="M349.88 522.4h45.67v48.04h-45.67z"/><path id="right-3" data-name="right" class="cls-6" d="M404.38 522.4h45.67v48.04h-45.67z"/></g><g id="details-2" data-name="details"><path id="stripe-l" class="cls-7" d="M353.32 531.1h38.99v5h-38.99z"/><path id="stripe-r" class="cls-7" d="M407.72 531.1h38.99v5h-38.99z"/></g></g><g id="shorts"><path id="shorts-2" data-name="shorts" class="cls-8" d="M341.67 442.94h116.49v47a9.95 9.95 0 01-9.95 9.95h-96.6a9.95 9.95 0 01-9.95-9.95v-47h.01z"/><g id="details-3" data-name="details"><rect id="stripe-r-2" data-name="stripe-r" class="cls-6" x="360.41" y="430.61" width="9.33" height="27.74" rx="4.67" ry="4.67"/><rect id="stripe-r-3" data-name="stripe-r" class="cls-6" x="430.15" y="432.08" width="9.33" height="27.74" rx="4.67" ry="4.67"/></g></g><g id="shirt"><path id="shirt-2" data-name="shirt" class="cls-7" d="M369.5 315.2l-48.29 2.99-11.36 6.25-6.83 10.1-1.93 98.78 11.16 7.17 29.96 1.12h147.21l10.96-12.79-3.4-92.71-6.83-11.83-9.77-6.09-49.84-2.99-1 21.24-6.5 6.5-11.16 3.49-11.88 2.01-15.46-3.16-11-5.67-3.66-3.83-.38-20.58z"/><g id="details-4" data-name="details"><path id="nike" class="cls-9" d="M371.55 367c0 1.19-1.57 2.17-3.49 2.17h-9.26c-1.92 0-3.49-1-3.49-2.17s1.57-2.17 3.49-2.17h9.26c1.94-.03 3.49.95 3.49 2.17z"/><path class="cls-9" d="M410.3 382.45a1 1 0 00-1.37.22l-2.35 3a1 1 0 00.26 1.5c3.4 2.12 3.16 4.06 2.44 8a9.63 9.63 0 11-7.72-11.23h.11a1 1 0 001-.39l2.44-3.26a1 1 0 00-.5-1.58A15.44 15.44 0 10415 396.19c1.13-6.1.48-10.3-4.7-13.74zm9.01 35.39c0 1.52-1.6 2.76-3.57 2.76h-31.65c-2 0-3.57-1.24-3.57-2.76s1.6-2.76 3.57-2.76h31.65c1.97 0 3.57 1.24 3.57 2.76z" id="vodafone-logo"/><g id="epl-logo-l"><path class="cls-9" d="M301.56 360.65a3.57 3.57 0 002.66 4.23 4.8 4.8 0 004.67-3l5.06-12.2a2.83 2.83 0 00-2.3-4.06l-3.92-.58a3.81 3.81 0 00-4.31 3.2z"/><path class="cls-10" d="M301.89 358.41c-.31 2.06.58 3.92 2 4.13s3.19-1.2 4-3.13l3.3-7.89a2.82 2.82 0 00-2.29-4.06l-1.47-.22a3.81 3.81 0 00-4.31 3.2z"/><path class="cls-11" d="M302.94 355.64c-.31 2.06.16 3.86 1 4s2.25-1.34 3.05-3.26l1-2.36c.81-1.93.19-3.69-1.36-3.92s-3.08 1.27-3.38 3.33z"/></g><g id="epl-logo-r"><path class="cls-9" d="M499 360.65a3.57 3.57 0 01-2.66 4.23 4.8 4.8 0 01-4.67-3l-5.06-12.2a2.83 2.83 0 012.3-4.06l3.92-.58a3.81 3.81 0 014.31 3.2z"/><path class="cls-10" d="M498.7 358.41c.31 2.06-.58 3.92-2 4.13s-3.19-1.2-4-3.13l-3.3-7.89a2.82 2.82 0 012.29-4.06l1.47-.22a3.81 3.81 0 014.31 3.2z"/><path class="cls-11" d="M497.65 355.64c.31 2.06-.16 3.86-1 4s-2.25-1.34-3.05-3.26l-1-2.36c-.81-1.93-.19-3.69 1.36-3.92s3.08 1.27 3.38 3.33z"/></g><g id="neck"><path id="neck-2" data-name="neck" class="cls-6" d="M432.81 315.84a54.1 54.1 0 00-9.72 7.72l-17.91 19.34a6.86 6.86 0 01-10.32 0L377 323.56a54.1 54.1 0 00-9.72-7.72c-2.46-1.57-4.48-.21-4.48 4v16a13.26 13.26 0 007.07 11s23.63 9.1 30.21 9c6.58.08 30.21-9 30.21-9a13.26 13.26 0 007.07-11v-16c-.06-4.21-2.09-5.57-4.55-4z"/><path class="cls-6" d="M370.34 331.82c0-4.25-4.32-6.48-9.6-4.94l-14.61 4.26c-5.28 1.54-5.16 3.53.26 4.44l14.09 2.34c5.42.9 9.86-1.84 9.86-6.1z" id="left-4" data-name="left"/><path class="cls-6" d="M430 331.82c0-4.25 4.32-6.48 9.6-4.94l14.61 4.26c5.28 1.54 5.16 3.53-.26 4.44l-14.09 2.34c-5.41.9-9.86-1.84-9.86-6.1z" id="right-4" data-name="right"/></g><g id="manchester-united-crest-2003"><path class="cls-12" d="M442.57 365.11a1.58 1.58 0 01-1.46-1.08 5.7 5.7 0 00-10.77 0 1.58 1.58 0 01-1.46 1.08 1.57 1.57 0 01-1.47-2.08A8.76 8.76 0 01444 363a1.57 1.57 0 01-1.47 2.08zm0 2.73a1.58 1.58 0 00-1.46 1.08 5.7 5.7 0 01-10.77 0 1.58 1.58 0 00-1.46-1.08 1.57 1.57 0 00-1.47 2.08 8.76 8.76 0 0016.62 0 1.57 1.57 0 00-1.47-2.08z"/><circle class="cls-12" cx="428.68" cy="366.47" r="1.36"/><circle class="cls-12" cx="442.76" cy="366.47" r="1.36"/><path class="cls-12" d="M432.87 362.38h5.71a1 1 0 011 1v4.25a3.85 3.85 0 01-3.85 3.85 3.85 3.85 0 01-3.85-3.85v-4.25a1 1 0 011-1z"/><path class="cls-7" d="M433.43 365h.68v2.45a.1.1 0 01-.1.1h-.48a.1.1 0 01-.1-.1V365zm1.01 0h-1.35a6.46 6.46 0 01.68-1.35 6.21 6.21 0 01.67 1.35zm.94 0h.68v2.45a.1.1 0 01-.1.1h-.48a.1.1 0 01-.1-.1V365zm1.02 0H435a6.46 6.46 0 01.68-1.35 6.21 6.21 0 01.72 1.35zm.94 0h.66v2.45a.1.1 0 01-.1.1h-.48a.1.1 0 01-.1-.1V365h.02zm1.01 0H437a6.46 6.46 0 01.68-1.35 6.21 6.21 0 01.67 1.35z"/><path class="cls-7" d="M433.43 366.44H438v1.74a.53.53 0 01-.53.53H434a.53.53 0 01-.53-.53v-1.74z"/></g></g></g><path id="neck-3" data-name="neck" fill="#cca493" d="M427.61 339.82l-27.59 8.62-28.6-9.62-1.92-23.62h61.04l-2.93 24.62z"/><path d="M502.88 422.32l-2.47-83.84c-1.19-11.87-11.83-22.25-23.72-23.14l-37.14-2.71c-4.07-.45-20.52-.09-39.55.53-19-.62-35.48-1-39.55-.53l-37.14 2.71c-11.89.89-22.53 11.27-23.72 23.14l-2.47 83.84a20.15 20.15 0 005 15.74 19.92 19.92 0 001.69 1.64v12.87c0 12.81 9.32 23.22 20.78 23.22a19.8 19.8 0 0015.21-7.42v21.79a12.23 12.23 0 007.74 11.36v68h-5.93c-10.93 0-19.83 5.8-19.83 17.11 0 8.06 0 17 11.72 19.7v1.6a1.38 1.38 0 001.38 1.38h1.63a1.38 1.38 0 001.38-1.37V607c1.16.09 2.39.15 3.73.15h1.89v.8a1.38 1.38 0 001.38 1.38h1.63a1.38 1.38 0 001.38-1.37v-.8h5.62v.8a1.38 1.38 0 001.38 1.38h1.63a1.38 1.38 0 001.38-1.37v-.8h5.62v.8a1.38 1.38 0 001.38 1.38h1.63a1.38 1.38 0 001.38-1.37v-.8h5.62v.8a1.38 1.38 0 001.38 1.38h1.63a1.38 1.38 0 001.38-1.37v-.8h5.62v.8a1.38 1.38 0 001.38 1.38h1.63a1.38 1.38 0 001.38-1.37v-.8h5.62v.8a1.38 1.38 0 001.38 1.38h1.63a1.38 1.38 0 001.38-1.37v-.81l.06-55.45v-49.31h4v49.21l.06 54.67v1.6a1.38 1.38 0 001.38 1.38h1.63a1.38 1.38 0 001.38-1.37v-.8h5.62v.8a1.38 1.38 0 001.38 1.38h1.63a1.38 1.38 0 001.38-1.37v-.8h5.62v.8a1.38 1.38 0 001.38 1.38h1.63a1.38 1.38 0 001.38-1.37v-.8h5.62v.8a1.38 1.38 0 001.38 1.38h1.63a1.38 1.38 0 001.38-1.37v-.8h5.62v.8a1.38 1.38 0 001.38 1.38h1.63a1.38 1.38 0 001.38-1.37v-.8h5.62v.8a1.38 1.38 0 001.38 1.38h1.63a1.38 1.38 0 001.38-1.37v-.8h1.89c1.33 0 2.57-.05 3.72-.15v.95a1.38 1.38 0 001.38 1.38h1.63a1.38 1.38 0 001.38-1.37v-1.6c11.71-2.68 11.72-11.64 11.72-19.7 0-11.3-8.89-17.11-19.83-17.11h-5.93v-68a12.23 12.23 0 007.74-11.36v-21.85a19.8 19.8 0 0015.21 7.42c11.46 0 20.78-10.42 20.78-23.22V439.7a19.92 19.92 0 001.69-1.64 20.15 20.15 0 004.99-15.74zm-130.49-99.67c3.46 1.84 15.64 2.07 27.61 1.79 12 .28 24.15 0 27.61-1.79v11.78c0 4.8-22.42 12-27.23 12l-.38-.08-.38.08c-4.8 0-27.23-7.19-27.23-12zm-33 128.91v1.53c0 9.5-6.63 17.22-14.78 17.22s-14.78-7.73-14.78-17.22v-9.31a21.08 21.08 0 007.47 1.36h22.09zm52.9 149.93h-50.64c-14.22 0-14.22-5-14.22-14.89 0-8.21 6.38-11.5 14.22-11.5h11.67l38.93-2.69.06 15.37zm-38.74-76.4h38.67v41.71l-38.67 2.68h-.26V525.1zm-.26-5.74v-17h38.94v16.92h-38.91zm104.77 55.75h.26c7.84 0 14.22 3.29 14.22 11.5 0 9.91 0 14.89-14.22 14.89h-50.64V587.8l.06-15.37 38.93 2.69h11.42zm-11.67-50h.26v44.4h-.26l-38.67-2.68V525.1zm-38.67-5.74v-16.92h38.98v17h-38.95zm46.84-73.77h-.07v44.58a6.6 6.6 0 01-6.58 6.58h-44.94s-.11-3.73-.16-8.75v-2.79c0-3.51-1.41-5.09-2.82-5-1.41-.09-2.82 1.49-2.82 5V488c0 5-.16 8.75-.16 8.75h-44.94a6.6 6.6 0 01-6.58-6.58v-44.58h-.07v-.33l30.24.33h48.69l30.24-.33zm35.57 7.51c0 9.5-6.63 17.22-14.78 17.22s-14.78-7.73-14.78-17.22v-7.94h22.09a21.08 21.08 0 007.47-1.36zm6-23.73a13.53 13.53 0 01-6 7.29 14.69 14.69 0 01-7.47 2l-22.09.09v-73.63c0-5.56-6.07-5.94-6.07 0s.07 14.37.07 14.37v59.59H345.41v-59.6s.07-8.46.07-14.37-6.07-5.54-6.07 0v73.59l-22.09-.09a14.69 14.69 0 01-7.47-2 13.53 13.53 0 01-6-7.29 14.89 14.89 0 01-.75-6.46l2.47-83.84c.89-9 9.23-17.08 18.2-17.75l11.12-.83 32.22-2.29c.68.54.48 17.49.48 17.49 0 8.43 23.34 15.29 31.77 15.29h1.3c8.43 0 31.77-6.86 31.77-15.29 0 0-.2-16.95.48-17.49l32.22 2.29 11.12.83c9 .67 17.3 8.8 18.2 17.75l2.47 83.84a14.89 14.89 0 01-.77 6.51z" id="border"/><g id="head"><g id="hair-back"><path class="cls-14" d="M419.43 306a3 3 0 01-3-2.93l-1.23-56a48.42 48.42 0 01-15.2-16.18A48.44 48.44 0 01385 247l-1.23 56.09a3 3 0 01-3 2.93c-15.71 0-39.44 0-39.44-25.68a3 3 0 010-.32c0-.08.83-8.27 0-26.63-.9-19.65 18.09-49.7 29-54.37a37.85 37.85 0 0119.75-5.59h4.58a11.57 11.57 0 015.39 1.32 11.57 11.57 0 015.39-1.32H410a37.85 37.85 0 0119.51 5.44c10.82 4.19 30.27 34.57 29.35 54.52-.84 18.36 0 26.55 0 26.63a3 3 0 010 .31C458.87 306 435.13 306 419.43 306z"/><path d="M410 196.42a34.72 34.72 0 0118.2 5.16c9.56 3.27 28.51 33.18 27.66 51.67-.87 18.89 0 27.08 0 27.08 0 20.87-16.5 22.68-36.44 22.68l-1.26-57.6A45.26 45.26 0 01400 224.14a45.27 45.27 0 01-18 21.17L380.78 303c-19.94 0-36.44-1.81-36.44-22.68 0 0 .87-8.19 0-27.08-.84-18.24 17.66-47.73 27.34-51.56a34.73 34.73 0 0118.38-5.27h4.58a8.72 8.72 0 015.39 1.88 8.72 8.72 0 015.39-1.88H410m0-6h-4.58a14.55 14.55 0 00-5.39 1 14.55 14.55 0 00-5.39-1h-4.58a40.84 40.84 0 00-21.15 5.92c-12.78 5.75-31.48 37.37-30.57 57.18.83 18 0 26.1 0 26.18a6.2 6.2 0 000 .62c0 12 4.79 20.25 14.22 24.61 7.3 3.38 16.56 4.07 28.22 4.07a6 6 0 006-5.87l1.2-54.56A51.33 51.33 0 00400 236.44a51.28 51.28 0 0012.2 12.24l1.19 54.45a6 6 0 006 5.87c11.66 0 20.92-.69 28.22-4.07 9.44-4.37 14.22-12.65 14.22-24.61a6 6 0 000-.63c0-.07-.8-8.13 0-26.17.92-20-18.15-52-31-57.35a40.85 40.85 0 00-20.83-5.75z" fill="#231f20"/></g><path id="skin-2" data-name="skin" class="cls-1" d="M446.38 253.5c0-.91.08-1.81.08-2.73 0-30.51-21.06-55.25-47-55.25s-47 24.74-47 55.25c0 1.11 0 2.21.1 3.31-4 2.46-6.9 8.44-6.9 15.43 0 9.19 4.93 16.64 11 16.64a7.47 7.47 0 002.1-.31c.82 24.5 18.74 44.08 40.73 44.08s40.12-19.81 40.74-44.5a7.65 7.65 0 003.25.74c6.08 0 11-7.45 11-16.64-.05-7.64-3.48-14.06-8.1-16.02z"/><path id="border-2" data-name="border" d="M446.38 253.5c0-.91.08-1.81.08-2.73 0-30.51-21.06-55.25-47-55.25s-47 24.74-47 55.25c0 1.11 0 2.21.1 3.31-4 2.46-6.9 8.44-6.9 15.43 0 9.19 4.93 16.64 11 16.64a7.47 7.47 0 002.1-.31c.82 24.5 18.74 44.08 40.73 44.08s40.12-19.81 40.74-44.5a7.65 7.65 0 003.25.74c6.08 0 11-7.45 11-16.64-.05-7.64-3.48-14.06-8.1-16.02z" stroke="#231f20" stroke-linecap="round" stroke-linejoin="round" stroke-width="6" fill="#e4b69d"/><path class="cls-14" d="M449.46 231.59c-8-18-18.63-34.94-39.15-34.94h-4.72a9.64 9.64 0 00-5.51 1.71 9.64 9.64 0 00-5.51-1.71h-4.72c-20.52 0-31.17 16.94-39.15 34.94l-3.71 17h11.93c18.4 0 34.21-10.39 41.15-25.25 6.95 14.86 22.75 25.25 41.15 25.25h11.93z"/><path id="head-band" class="cls-8" d="M443.13 241.32a5 5 0 01-.78-.06 5.25 5.25 0 01-4.35-5.4c-.33-.76-4.68-8.57-37.62-8.57s-37.29 7.81-37.63 8.57a5.25 5.25 0 01-4.35 5.4 5.15 5.15 0 01-5.83-4.44 11.74 11.74 0 013-8.78c6.25-7.53 21.33-11.34 44.83-11.34s38.6 3.81 44.82 11.3a11.74 11.74 0 013 8.78 5.18 5.18 0 01-5.09 4.54zm-5.07-6.07zm-75.36 0zm75.36 0zm-75.36 0zm0 0z"/></g></svg>