<svg id="player" xmlns="http://www.w3.org/2000/svg" viewBox="0 0 800 800"><defs><style>.cls-1{fill:#e4b69d}.cls-2{fill:#2d2d2d}.cls-3{fill:#fff}.cls-4{fill:#363436}.cls-5{fill:#ffde17}.cls-6{fill:#c62127}.cls-7{fill:#231f20}.cls-8{fill:#414042}</style></defs><g id="skin"><path id="arm-left" class="cls-1" d="M306.93 390h36.78v72.4a18.39 18.39 0 01-18.39 18.39 18.39 18.39 0 01-18.39-18.39V390z"/><path id="arm-right" class="cls-1" d="M458.19 390H495v72.4a18.39 18.39 0 01-18.39 18.39 18.39 18.39 0 01-18.39-18.39V390h-.03z"/><path id="leg-left" class="cls-1" d="M350.88 500.02h45.67v45.67h-45.67z"/><path id="leg-right" class="cls-1" d="M405.78 500.02h45.67v45.67h-45.67z"/></g><g id="boots"><path id="left" class="cls-2" d="M396.33 578.04H373.5l-22.83 1.97h-12.5l-7.5 2.53-5.25 8.5v9.83l1.91 4.17 3.84 4.05 6.33 1.95h58.83v-33z"/><path id="right" class="cls-2" d="M405.61 578.27h22.83l22.83 1.97h12.5l7.5 2.53 5.25 8.5v9.83l-1.91 4.17-3.84 4.05-6.33 1.95h-58.83v-33z"/><path class="cls-3" d="M385.23 578.27s-30.36 15.77-30 33l22-.23s18.33-11.54 18.83-29.54c.01 0 2.51-4.5-10.83-3.23zm31.54 0s30.36 15.77 30 33l-22-.23s-18.33-11.54-18.83-29.54c-.01 0-2.51-4.5 10.83-3.23z" id="details"/></g><g id="socks"><g id="socks-2" data-name="socks"><path id="left-2" data-name="left" class="cls-3" d="M350.88 530h45.67v48.04h-45.67z"/><path id="right-2" data-name="right" class="cls-3" d="M405.38 530h45.67v48.04h-45.67z"/></g></g><g id="shorts"><path id="shorts-2" data-name="shorts" class="cls-4" d="M342.67 450.54h116.49v47a9.95 9.95 0 01-9.95 9.95h-96.6a9.95 9.95 0 01-9.95-9.95v-47h.01z"/><path id="details-2" data-name="details" class="cls-3" d="M458.06 456.5s-33.17 27.63-30.53 49.5h24.77s4.92.38 5.9-9.87-.14-39.63-.14-39.63z"/></g><g id="shirt"><path id="shirt-2" data-name="shirt" class="cls-3" d="M370.5 322.8l-48.29 2.99-11.36 6.25-6.83 10.1-3.31 40.73 5.17 7.67 7.66 4.67h29.5l.17 54h114.83v-53.5l29.34-.17 7.01-4 6.99-10.5-3.4-37.33-6.83-11.84-9.77-6.08-49.84-2.99-1 21.24-6.5 6.5-11.16 3.48-11.88 2.02-15.46-3.17-11-5.66-3.66-3.84-.38-20.57z"/><g id="details-3" data-name="details"><g id="chest"><path class="cls-4" d="M364.99 347l-7.99 4.94v-9.88l7.99-4.94V347z"/><path class="cls-5" d="M398.3 368.02l-6.78 5.77v-8.39l6.78-5.78v8.4z"/><path class="cls-6" d="M398.3 376.41l-6.78 5.78v-8.4l6.78-5.77v8.39z"/><path class="cls-7" d="M398.3 384.81l-4.44 3.78a1.42 1.42 0 01-2.35-1.08v-5.31l6.78-5.78z"/><path class="cls-5" d="M391.52 364.8l-6.79 5.78v-8.4l6.79-5.78v8.4z"/><path class="cls-6" d="M391.52 373.19l-6.79 5.78v-8.39l6.79-5.78v8.39z"/><path class="cls-7" d="M391.52 381.59l-4.44 3.78a1.42 1.42 0 01-2.35-1.08V379l6.78-5.78z"/><path class="cls-5" d="M384.73 361.97l-6.78 5.77v-8.39l6.78-5.78v8.4z"/><path class="cls-6" d="M384.73 370.36l-6.78 5.78v-8.4l6.78-5.77v8.39z"/><path class="cls-4" d="M359.69 341.93l-9.64 5.96v-11.93l9.64-5.96v11.93z"/><path class="cls-7" d="M384.73 378.76l-4.44 3.78a1.42 1.42 0 01-2.35-1.08v-5.31l6.78-5.78z"/><path class="cls-5" d="M377.95 359.62l-6.78 5.78V357l6.78-5.77v8.39z"/><path class="cls-4" d="M351.49 338.35l-8.12 5.03v-10.06l8.12-5.03v10.06z"/><path class="cls-6" d="M377.95 368.02l-6.78 5.77v-8.39l6.78-5.78v8.4z"/><path class="cls-7" d="M378 376.41l-4.44 3.78a1.42 1.42 0 01-2.35-1.08v-5.31L378 368z"/><path class="cls-6" d="M357.6 333.8l-6.78 4.19v-9.39l6.78-4.2v9.4z"/><path class="cls-5" d="M358.16 325.02l-7.34 4.54v-6.3l7.34-.76v2.52zm13.01 31.99l-6.78 5.77v-8.39l6.78-5.78v8.4z"/><path class="cls-6" d="M371.17 365.4l-6.78 5.78v-8.4l6.78-5.77v8.39z"/><path class="cls-7" d="M371.17 373.8l-4.44 3.78a1.42 1.42 0 01-2.35-1.08v-5.31l6.78-5.78z"/><path class="cls-5" d="M364.39 353.57l-6.79 5.78v-8.4l6.79-5.77v8.39z"/><path class="cls-6" d="M364.39 361.97l-6.79 5.77v-8.39l6.79-5.78v8.4z"/><path class="cls-7" d="M364.39 370.36l-4.44 3.78a1.42 1.42 0 01-2.35-1.08v-5.31l6.78-5.78z"/><path class="cls-5" d="M357.6 350.75l-6.78 4.19v-8.39l6.78-4.2v8.4z"/><path class="cls-6" d="M357.6 359.14l-6.78 4.2v-8.4l6.78-4.19v8.39z"/><path class="cls-7" d="M357.6 367.54l-4.44 2.2a1.42 1.42 0 01-2.35-1.08v-5.31l6.78-4.19z"/><path class="cls-5" d="M350.82 346.45l-6.78 4.19v-8.39l6.78-4.2v8.4zm13.57-16.69l-6.79 4.19v-8.39l6.79-4.2v8.4z"/><path class="cls-6" d="M350.82 354.84l-6.78 4.2v-8.4l6.78-4.19v8.39z"/><path class="cls-7" d="M350.82 363.24l-4.44 2.2a1.42 1.42 0 01-2.35-1.08V359l6.78-4.19z"/><path class="cls-5" d="M344.04 342.16l-6.79 4.19v-8.4l6.79-4.19v8.4z"/><path class="cls-6" d="M344.04 350.55l-6.79 4.2v-8.4l6.79-4.19v8.39z"/><path class="cls-7" d="M344 358.94l-4.44 2.2a1.42 1.42 0 01-2.35-1.08v-5.31l6.78-4.19zm-13.53-33.6l4.44-2.2a1.42 1.42 0 012.35 1.08v5.31l-6.78 4.19z"/><path class="cls-5" d="M337.25 337.94l-6.78 4.19v-8.39l6.78-4.2v8.4z"/><path class="cls-6" d="M337.25 346.33l-6.78 4.2v-8.4l6.78-4.19v8.39zm6.79-20.59l-6.79 4.2v-5.71l6.79-.59v2.1zm6.78 3.83l-6.78 4.19v-8.39l6.78-4.2v8.4zm13.57 8.55l-6.79 4.19v-8.39l6.79-4.2v8.4z"/><path class="cls-4" d="M344.04 333.8l-6.79 4.19v-8.39l6.79-4.2v8.4z"/><path class="cls-7" d="M337.26 354.73l-4.44 2.2a1.42 1.42 0 01-2.35-1.08v-5.31l6.78-4.19z"/><path class="cls-5" d="M330.47 333.63l-6.78 4.19v-9.74l6.78-2.85v8.4z"/><path class="cls-6" d="M330.47 342.02l-6.78 4.2v-8.4l6.78-4.19v8.39z"/><path class="cls-7" d="M330.47 350.42l-4.44 2.2a1.42 1.42 0 01-2.35-1.08v-5.31l6.78-4.19z"/><path class="cls-5" d="M323.69 329.32l-6.78 4.19v-6.97l8.18-1.87-1.4 4.65z"/><path class="cls-6" d="M323.69 337.71l-6.78 4.2v-8.4l6.78-4.19v8.39z"/><path class="cls-7" d="M323.69 346.11l-4.44 2.2a1.42 1.42 0 01-2.35-1.08v-5.31l6.78-4.19z"/><path class="cls-6" d="M316.94 333.41l-6.78 4.2v-7.07l6.78-4.75v7.62z"/><path class="cls-7" d="M316.94 341.81L312.5 344a1.42 1.42 0 01-2.35-1.08v-5.31l6.78-4.19z"/><path class="cls-4" d="M437.11 347l7.98 4.94v-9.88l-7.98-4.94V347z"/><path class="cls-5" d="M403.8 368.02l6.78 5.77v-8.39l-6.78-5.78v8.4z"/><path class="cls-6" d="M403.8 376.41l6.78 5.78v-8.4l-6.78-5.77v8.39z"/><path class="cls-7" d="M403.8 384.81l4.44 3.78a1.42 1.42 0 002.35-1.08v-5.31l-6.78-5.78z"/><path class="cls-5" d="M410.58 364.8l6.78 5.78v-8.4l-6.78-5.78v8.4z"/><path class="cls-6" d="M410.58 373.19l6.78 5.78v-8.39l-6.78-5.78v8.39z"/><path class="cls-7" d="M410.58 381.59l4.44 3.78a1.42 1.42 0 002.35-1.08V379l-6.78-5.78z"/><path class="cls-5" d="M417.36 361.97l6.79 5.77v-8.39l-6.79-5.78v8.4z"/><path class="cls-6" d="M417.36 370.36l6.79 5.78v-8.4l-6.79-5.77v8.39z"/><path class="cls-4" d="M442.41 341.93l9.64 5.96v-11.93l-9.64-5.96v11.93z"/><path class="cls-7" d="M417.36 378.76l4.44 3.78a1.42 1.42 0 002.35-1.08v-5.31l-6.78-5.78z"/><path class="cls-5" d="M424.15 359.62l6.78 5.78V357l-6.78-5.77v8.39z"/><path class="cls-4" d="M450.6 338.35l8.13 5.03v-10.06l-8.13-5.03v10.06z"/><path class="cls-6" d="M424.15 368.02l6.78 5.77v-8.39l-6.78-5.78v8.4z"/><path class="cls-7" d="M424.15 376.41l4.44 3.78a1.42 1.42 0 002.35-1.08v-5.31l-6.79-5.8z"/><path class="cls-6" d="M444.49 333.8l6.79 4.19v-9.39l-6.79-4.2v9.4z"/><path class="cls-5" d="M443.94 325.02l7.34 4.54v-6.3l-7.34-.76v2.52zm-13.01 31.99l6.78 5.77v-8.39l-6.78-5.78v8.4z"/><path class="cls-6" d="M430.93 365.4l6.78 5.78v-8.4l-6.78-5.77v8.39z"/><path class="cls-7" d="M430.93 373.8l4.44 3.78a1.42 1.42 0 002.35-1.08v-5.31l-6.78-5.78z"/><path class="cls-5" d="M437.71 353.57l6.78 5.78v-8.4l-6.78-5.77v8.39z"/><path class="cls-6" d="M437.71 361.97l6.78 5.77v-8.39l-6.78-5.78v8.4z"/><path class="cls-7" d="M437.71 370.36l4.44 3.78a1.42 1.42 0 002.35-1.08v-5.31l-6.79-5.75z"/><path class="cls-5" d="M444.49 350.75l6.79 4.19v-8.39l-6.79-4.2v8.4z"/><path class="cls-6" d="M444.49 359.14l6.79 4.2v-8.4l-6.79-4.19v8.39z"/><path class="cls-7" d="M444.49 367.54l4.44 2.2a1.42 1.42 0 002.35-1.08v-5.31l-6.78-4.19z"/><path class="cls-5" d="M451.28 346.45l6.78 4.19v-8.39l-6.78-4.2v8.4zm-13.57-16.69l6.78 4.19v-8.39l-6.78-4.2v8.4z"/><path class="cls-6" d="M451.28 354.84l6.78 4.2v-8.4l-6.78-4.19v8.39z"/><path class="cls-7" d="M451.28 363.24l4.44 2.2a1.42 1.42 0 002.35-1.08V359l-6.78-4.19z"/><path class="cls-5" d="M458.06 342.16l6.78 4.19v-8.4l-6.78-4.19v8.4z"/><path class="cls-6" d="M458.06 350.55l6.78 4.2v-8.4l-6.78-4.19v8.39z"/><path class="cls-7" d="M458.06 358.94l4.44 2.2a1.42 1.42 0 002.35-1.08v-5.31l-6.78-4.19zm13.56-33.6l-4.44-2.2a1.42 1.42 0 00-2.35 1.08v5.31l6.78 4.19z"/><path class="cls-5" d="M464.84 337.94l6.78 4.19v-8.39l-6.78-4.2v8.4z"/><path class="cls-6" d="M464.84 346.33l6.78 4.2v-8.4l-6.78-4.19v8.39zm-6.78-20.59l6.78 4.2v-5.71l-6.78-.59v2.1zm-6.78 3.83l6.78 4.19v-8.39l-6.78-4.2v8.4zm-13.57 8.55l6.78 4.19v-8.39l-6.78-4.2v8.4z"/><path class="cls-4" d="M458.06 333.8l6.78 4.19v-8.39l-6.78-4.2v8.4z"/><path class="cls-7" d="M464.84 354.73l4.44 2.2a1.42 1.42 0 002.35-1.08v-5.31l-6.78-4.19z"/><path class="cls-5" d="M471.62 333.63l6.79 4.19v-9.74l-6.79-2.85v8.4z"/><path class="cls-6" d="M471.62 342.02l6.79 4.2v-8.4l-6.79-4.19v8.39z"/><path class="cls-7" d="M471.62 350.42l4.44 2.2a1.42 1.42 0 002.35-1.08v-5.31l-6.79-4.23z"/><path class="cls-5" d="M478.41 329.32l6.78 4.19v-6.97l-8.18-1.87 1.4 4.65z"/><path class="cls-6" d="M478.41 337.71l6.78 4.2v-8.4l-6.78-4.19v8.39z"/><path class="cls-7" d="M478.41 346.11l4.44 2.2a1.42 1.42 0 002.35-1.08v-5.31l-6.78-4.19z"/><path class="cls-6" d="M485.16 333.41l6.78 4.2v-7.07l-6.78-4.75v7.62z"/><path class="cls-7" d="M485.16 341.81l4.44 2.2a1.42 1.42 0 002.35-1.08v-5.31l-6.78-4.19z"/><path class="cls-5" d="M398.3 368.02h5.5v8.22h-5.5z"/><path class="cls-6" d="M398.3 376.17h5.5v8.22h-5.5z"/><path class="cls-7" d="M398.3 384.39h5.5v5.47a2.75 2.75 0 01-2.75 2.75 2.75 2.75 0 01-2.75-2.75v-5.47z"/></g><g id="neck"><path class="cls-4" d="M441.45 323.64L435.4 321v11.94l-3.13 20.31-10.19 5.63-21 4.31-21-4.31-10.19-5.62-3.13-20.31V321l-6.05 2.64-.87 21.73c-.11 4.29 2.1 10.36 5.54 12.92 5.83 4.32 16.93 9.76 35.7 9.77h.06c18.78 0 29.88-5.45 35.71-9.77 3.45-2.56 5.65-8.63 5.54-12.92z"/><path class="cls-6" d="M439.09 340.41v-16.86L431.8 322l-.47 16.88-3.65 10.12-9.82 5.77-16.82 4-16.82-4-9.82-5.77-3.65-10.17-.46-16.83-7.29 1.55v16.86c0 2-1.39 7.86 2.4 12.79s17.7 10.2 35.65 11.61c18-1.41 32-6.81 35.65-11.61s2.39-10.78 2.39-12.79z"/><path class="cls-5" d="M431 323.26l-.41 21.4-10.69 7.14-18.9 4-18.9-4-10.69-7.14-.41-21.4-5.56.37v18.12a13.7 13.7 0 006.21 11.41c6.54 4.33 17.79 6.48 29.35 8.2 11.56-1.72 22.82-3.87 29.35-8.2a13.7 13.7 0 006.21-11.41v-18.12z"/></g><g id="duetschland-crest-1970"><circle class="cls-3" cx="436.19" cy="391.62" r="8.48"/><path class="cls-8" d="M436.19 383.13a8.48 8.48 0 11-8.48 8.48 8.48 8.48 0 018.48-8.48m0-1a9.51 9.51 0 109.51 9.51 9.52 9.52 0 00-9.51-9.51z"/><circle class="cls-3" cx="436.19" cy="391.62" r="5.61"/><path class="cls-8" d="M436.19 386a5.61 5.61 0 11-5.61 5.61 5.61 5.61 0 015.61-5.61m0-1a6.64 6.64 0 106.64 6.64 6.65 6.65 0 00-6.64-6.64z"/><path d="M439.49 390.39a1.2 1.2 0 00-1.17-.93H437v-1.55a.46.46 0 00-.46-.46h-.63c-.34 0-.45.46-.45.46a1.47 1.47 0 00-1.18.94.17.17 0 00.16.24h.79l-.07.38h-1.06a1.2 1.2 0 00-1.17.93l-1 4.36h.62a.55.55 0 00.54-.42v-.2a.55.55 0 01.54-.42h.18a.55.55 0 00.54-.42.55.55 0 01.54-.42l1 1a.42.42 0 00.59 0l1-1a.55.55 0 01.54.42.55.55 0 00.54.42h.18a.55.55 0 01.54.42v.2a.55.55 0 00.54.42h.62z" fill="#1a1a1a"/></g><rect id="brand-adidas-classic" class="cls-4" x="356.45" y="390.41" width="16.68" height="6.13" rx="3.06" ry="3.06"/><path class="cls-4" d="M396.35 421.1a1.6 1.6 0 01-1.41-1.71v-10.27l-1.51 1.88a1 1 0 01-.79.39 1.35 1.35 0 01-1.19-1.44 1.61 1.61 0 01.36-1l3.1-3.81a1.57 1.57 0 011.21-.59 1.85 1.85 0 011.67 2v12.89a1.6 1.6 0 01-1.44 1.66zm8.89.15c-2.82 0-5.4-1.47-5.4-4.52a4.55 4.55 0 012.88-4.18 4 4 0 01-2.66-3.84c0-3.06 2.68-4.3 5.18-4.3s5.18 1.25 5.18 4.3a4 4 0 01-2.68 3.84 4.57 4.57 0 012.9 4.18c0 3.03-2.58 4.52-5.4 4.52zm0-7.14c-.85.15-2.5.81-2.5 2.18 0 1.2 1.09 2 2.5 2s2.5-.78 2.5-2c0-1.38-1.67-2.04-2.5-2.18zm0-6.72c-1.33 0-2.28.68-2.28 1.86s1.45 1.78 2.28 1.93c.83-.15 2.26-.71 2.26-1.93s-.95-1.87-2.26-1.87z" id="number-18"/></g></g><path id="neck-2" data-name="neck" fill="#b08874" d="M428.63 348.26l-27.59 8.62-28.6-9.62-1.92-23.62h61.04l-2.93 24.62z"/><path d="M503.88 376.43l-2.47-30.36c-1.19-11.87-11.83-22.25-23.72-23.14l-37.14-2.71c-4.07-.45-20.52-.09-39.55.53-19-.62-35.48-1-39.55-.53l-37.14 2.71c-11.89.89-22.53 11.27-23.72 23.14l-2.47 30.36a20.15 20.15 0 005 15.74 19.92 19.92 0 001.69 1.64v66.36c0 12.81 9.32 23.22 20.78 23.22a19.8 19.8 0 0015.25-7.39v21.79a12.23 12.23 0 007.74 11.36v68h-5.93c-10.93 0-19.83 5.8-19.83 17.11 0 8.06 0 17 11.72 19.7v1.6a1.38 1.38 0 001.38 1.38h1.63a1.38 1.38 0 001.38-1.37v-.95c1.16.09 2.39.15 3.73.15h1.89v.8a1.38 1.38 0 001.38 1.38h1.63a1.38 1.38 0 001.38-1.37v-.8h5.62v.8a1.38 1.38 0 001.38 1.38h1.63a1.38 1.38 0 001.38-1.37v-.8h5.62v.8a1.38 1.38 0 001.38 1.38h1.63a1.38 1.38 0 001.38-1.37v-.8h5.62v.8a1.38 1.38 0 001.38 1.38h1.63a1.38 1.38 0 001.38-1.37v-.8h5.62v.8a1.38 1.38 0 001.38 1.38h1.63a1.38 1.38 0 001.38-1.37v-.8h5.62v.8a1.38 1.38 0 001.38 1.38h1.63a1.38 1.38 0 001.38-1.37v-.81l.06-55.45V510h4v49.21l.06 54.67v1.6a1.38 1.38 0 001.38 1.38h1.63a1.38 1.38 0 001.38-1.37v-.8h5.62v.8a1.38 1.38 0 001.38 1.38h1.63a1.38 1.38 0 001.38-1.37v-.8h5.62v.8a1.38 1.38 0 001.38 1.38h1.63a1.38 1.38 0 001.38-1.37v-.8h5.62v.8a1.38 1.38 0 001.38 1.38h1.63a1.38 1.38 0 001.38-1.37v-.8h5.62v.8a1.38 1.38 0 001.38 1.38h1.63a1.38 1.38 0 001.38-1.37v-.8h5.62v.8a1.38 1.38 0 001.38 1.38h1.63a1.38 1.38 0 001.38-1.37v-.8h1.89c1.33 0 2.57-.05 3.72-.15v.95a1.38 1.38 0 001.38 1.38h1.63a1.38 1.38 0 001.38-1.37v-1.6c11.71-2.68 11.72-11.64 11.72-19.7 0-11.3-8.89-17.11-19.83-17.11h-5.93v-68a12.23 12.23 0 007.74-11.36V476a19.8 19.8 0 0015.21 7.42c11.46 0 20.78-10.42 20.78-23.22v-66.39a19.92 19.92 0 001.69-1.64 20.15 20.15 0 004.95-15.74zm-130.49-46.18c3.46 1.84 15.64 2.07 27.61 1.79 12 .28 24.15 0 27.61-1.79V342c0 4.8-22.42 12-27.23 12l-.38-.08-.38.08c-4.8 0-27.23-7.19-27.23-12zm-33 75.43v55c0 9.5-6.63 17.22-14.78 17.22s-14.78-7.73-14.78-17.22V397.9a21.08 21.08 0 007.47 1.36h22.09zm52.9 203.42h-50.64c-14.22 0-14.22-5-14.22-14.89 0-8.21 6.38-11.5 14.22-11.5h11.67l38.93-2.71.06 15.37zm-38.74-76.4h38.67v41.7l-38.67 2.68h-.26V532.7zm-.26-5.74V510h38.94v17h-38.91zm104.77 55.75h.26c7.84 0 14.22 3.29 14.22 11.5 0 9.91 0 14.89-14.22 14.89h-50.64v-13.7l.06-15.37 38.93 2.69h11.42zm-11.67-50h.26v44.4h-.26l-38.67-2.68V532.7zM408.75 527v-17h38.95v17h-38.95zm46.84-73.77h-.07v44.58a6.6 6.6 0 01-6.58 6.58H404s-.11-3.73-.16-8.75v-2.79c0-3.51-1.41-5.09-2.82-5-1.41-.09-2.82 1.49-2.82 5v2.79c0 5-.16 8.75-.16 8.75H353.1a6.6 6.6 0 01-6.58-6.58v-44.63h-.07v-.33l30.24.33h48.69l30.24-.33zm35.57 7.51c0 9.5-6.63 17.22-14.78 17.22s-14.78-7.73-14.78-17.22v-61.48h22.09a21.08 21.08 0 007.47-1.36zm6-77.21a13.53 13.53 0 01-6 7.29 14.69 14.69 0 01-7.47 2l-22.09.09v-20.19c0-5.56-6.07-5.94-6.07 0s.07 14.37.07 14.37v59.59H346.41v-59.61s.07-8.46.07-14.37-6.07-5.54-6.07 0v20.11l-22.09-.09a14.69 14.69 0 01-7.47-2 13.53 13.53 0 01-6-7.29 14.89 14.89 0 01-.75-6.46l2.47-30.36c.89-9 9.23-17.08 18.2-17.75l11.12-.83 32.22-2.29c.68.54.48 17.49.48 17.49 0 8.43 23.34 15.29 31.77 15.29h1.3c8.43 0 31.77-6.86 31.77-15.29 0 0-.2-16.95.48-17.49l32.22 2.29 11.12.83c9 .67 17.3 8.8 18.2 17.75L497.9 377a14.89 14.89 0 01-.75 6.48z" id="border"/><g id="head"><path class="cls-7" d="M409 191.13a30.83 30.83 0 018.79 1.28h.1c3.22 1 6.86 2 8.56 2h1.45c17.59 0 34.93 17.63 33.47 38.49V260s9.5 41.38-17.58 41.38q-1.31 0-2.73-.13h-.19c-1.06 0-6.31-.61-6.91-12.51-.67-13.25-1.14-39.83 9.93-42.92a9.69 9.69 0 012.62-.36h.15a15.6 15.6 0 00-2.72-2.22c-16.61-10.75-42.71.86-38.71-15.25-3.54 14.27-8.19 17.8-13.59 17.8s-11.36-3.41-17.81-3.41A15.72 15.72 0 00365 245a35.73 35.73 0 00-3.78 2.84c7.87 8.47 7.43 29 6.84 40.91s-5.85 12.51-6.91 12.51H361c-.95.09-1.85.13-2.73.13-27.07 0-17.58-41.38-17.58-41.38v-27.08c2-12.19 7.48-16 17.47-27.68a35.38 35.38 0 0115.13-10.54 35.79 35.79 0 0113.24-2.54q1.6 0 3.2.14 2 .18 4 .18a44.8 44.8 0 005.8-.38l5.51-.72a30.82 30.82 0 014-.26m0-6a37 37 0 00-4.77.31l-5.51.72a38.94 38.94 0 01-5 .33c-1.15 0-2.32-.05-3.46-.15s-2.49-.17-3.73-.17a44.37 44.37 0 00-32.93 15.19c-1.85 2.17-3.58 4.1-5.1 5.81-6.84 7.65-11.79 13.18-13.72 24.78l-.08.49v26.91c-1 4.83-5 27.11 5 39.69 4.35 5.46 10.77 8.34 18.56 8.34.94 0 1.91 0 2.9-.12 2 0 12-.88 12.9-18.21.67-13.33.62-29.16-4.62-39.68a9.69 9.69 0 014.37-1 30.75 30.75 0 018.11 1.6 35.27 35.27 0 009.7 1.81c7.3 0 11.86-4.21 14.91-9.81 3.64 1.37 8.15 1.57 13.09 1.79s10.1.45 14.85 1.79c-7.16 9.57-7.26 28.59-6.51 43.48.87 17.33 10.9 18.21 12.9 18.21 1 .08 2 .12 2.9.12 7.8 0 14.22-2.89 18.57-8.35 9.92-12.46 6.12-34.35 5-39.51v-26.37a42.84 42.84 0 00-11.59-31.78c-7.65-8.21-17.82-12.91-27.88-12.91h-1.45a59.67 59.67 0 01-6.85-1.78h-.11a36.8 36.8 0 00-10.5-1.53z"/><path d="M340.69 260s-10.12 44.08 20.3 41.25c0 0 6.43.75 7.09-12.5s1.14-39.83-9.93-42.92S340.69 260 340.69 260zm120.67 0s10.12 44.08-20.3 41.25c0 0-6.43.75-7.09-12.5s-1.14-39.83 9.93-42.92S461.36 260 461.36 260z" fill="#aa8140"/><path id="skin-2" data-name="skin" class="cls-1" d="M447.38 261.1c0-.91.08-1.81.08-2.73 0-30.51-21.06-55.25-47-55.25s-47 24.74-47 55.25c0 1.11 0 2.21.1 3.31-4 2.46-6.9 8.44-6.9 15.43 0 9.19 4.93 16.64 11 16.64a7.47 7.47 0 002.1-.31c.82 24.5 18.74 44.08 40.73 44.08s40.12-19.81 40.74-44.5a7.65 7.65 0 003.25.74c6.08 0 11-7.45 11-16.64-.05-7.65-3.48-14.06-8.1-16.02z"/><path id="border-2" data-name="border" d="M447.38 261.1c0-.91.08-1.81.08-2.73 0-30.51-21.06-55.25-47-55.25s-47 24.74-47 55.25c0 1.11 0 2.21.1 3.31-4 2.46-6.9 8.44-6.9 15.43 0 9.19 4.93 16.64 11 16.64a7.47 7.47 0 002.1-.31c.82 24.5 18.74 44.08 40.73 44.08s40.12-19.81 40.74-44.5a7.65 7.65 0 003.25.74c6.08 0 11-7.45 11-16.64-.05-7.65-3.48-14.06-8.1-16.02z" fill="none" stroke="#231f20" stroke-linecap="round" stroke-linejoin="round" stroke-width="6"/><path d="M417.91 192.44h-.1a30.83 30.83 0 00-12.78-1l-5.51.72a44.79 44.79 0 01-9.79.2 35.8 35.8 0 00-16.44 2.4 35.38 35.38 0 00-15.13 10.54c-10 11.71-15.44 15.49-17.47 27.68V260c12.07 0 14.91-8.9 24.34-15 16.61-10.75 31.64 17.5 40.2-17-4 16.11 22.09 4.5 38.71 15.25 9.43 6.1 5.39 16.75 17.46 16.75v-27.07c1.49-21.36-16.74-39.34-34.75-38.46-1.65.08-5.41-1.03-8.74-2.03z" fill="#ce9e51"/></g></svg>