<svg id="player" xmlns="http://www.w3.org/2000/svg" viewBox="0 0 800 800"><defs><style>.cls-1{fill:#cf9e76}.cls-2{fill:#282828}.cls-4{fill:#fff}.cls-6{fill:#ffe35b}.cls-7{fill:#006838}.cls-11{fill:#3e2413}</style></defs><g id="skin"><path id="arm-left" class="cls-1" d="M305.93 388h36.78v72.4a18.39 18.39 0 01-18.39 18.39 18.39 18.39 0 01-18.39-18.39V388z"/><path id="arm-right" class="cls-1" d="M457.19 388H494v72.4a18.39 18.39 0 01-18.39 18.39 18.39 18.39 0 01-18.39-18.39V388h-.03z"/><path id="leg-left" class="cls-1" d="M349.88 480.02h45.67v63.67h-45.67z"/><path id="leg-right" class="cls-1" d="M404.78 480.02h45.67v63.67h-45.67z"/></g><g id="boots"><path id="left" class="cls-2" d="M395.29 576.55h-22.84l-22.83 1.97h-12.5l-7.5 2.53-5.24 8.5v9.83l1.91 4.17 3.83 4.06 6.33 1.94h58.84v-33z"/><path id="right" class="cls-2" d="M404.56 576.78h22.84l22.83 1.97h12.5l7.5 2.53 5.25 8.5v9.83l-1.92 4.17-3.83 4.05-6.33 1.95h-58.84v-33z"/><path d="M395.54 575.1s-38.17 37.13-63.33 34.68c0 0 3.37-31.56 19.1-33zm9.03 0s38.17 37.13 63.33 34.68c0 0-3.37-31.56-19.1-33z" fill="#3d3d3d"/></g><g id="socks"><g id="socks-2" data-name="socks"><path id="left-2" data-name="left" class="cls-4" d="M349.88 528h45.67v48.04h-45.67z"/><path id="right-2" data-name="right" class="cls-4" d="M404.38 528h45.67v48.04h-45.67z"/></g></g><g id="shorts"><path d="M448.18 488h-96.6a10 10 0 01-9.95-9.95V441h116.49v37a10 10 0 01-9.94 10z" fill="#1b75bc"/><path class="cls-4" d="M350.37 441.34h4.46v44.5h-4.46zm94.71 0h4.46v44.5h-4.46z" id="details"/></g><g id="shirt"><path class="cls-6" d="M369.46 321.31l-48.29 2.99-11.36 6.25-6.83 10.1-3.31 40.73 5.16 7.67 7.67 4.67H342l.17 47H457v-46.5l29.33-.17 7.02-4 6.98-10.5-3.39-37.33-6.83-11.84-9.78-6.08-49.83-2.99-1 21.24-6.5 6.5-11.17 3.48-11.87 2.02-15.46-3.17-11-5.66-3.67-3.84-.37-20.57z"/><g id="details-2" data-name="details"><path class="cls-7" d="M303.04 382.07l39.63 1.25v10.4l-33.75-.84-5.88-6.43v-4.38zm193.73 0l-39.62 1.25v10.4l33.75-.84 5.87-6.43v-4.38zm-64.95-60.76l-.37 20.17-7.68 7.52-23.77 7.85-23.81-7.85-7.68-7.53-.37-20.17-6.86.88v21.4c0 5.6 4.29 11 9.13 13.78 5.74 3.33 13.87 5.54 29.55 6.38 15.68-.84 23.82-3 29.55-6.38 4.84-2.81 9.13-8.19 9.13-13.78v-21.4z"/><g id="crest-brazil-1982"><circle class="cls-7" cx="427.23" cy="365.08" r="1.67"/><circle class="cls-7" cx="440.63" cy="365.08" r="1.67"/><circle class="cls-7" cx="433.93" cy="363.59" r="1.67"/><rect class="cls-7" x="428.87" y="390.97" width="10.11" height="2.87" rx="1.44" ry="1.44"/><path d="M438.57 387.62l-4 1.94a1.57 1.57 0 01-1.36 0l-4-1.94a6.65 6.65 0 01-3.93-5.89l-.88-12.34a1.27 1.27 0 011.07-1.29l3.14-.69a24.49 24.49 0 0110.49 0l3.14.69a1.27 1.27 0 011.07 1.29l-.88 12.34a6.65 6.65 0 01-3.86 5.89z" fill="#024f9e"/><path class="cls-4" d="M433.93 387.91a1.77 1.77 0 01-.78-.18l-3.15-1.56a5.77 5.77 0 01-3.41-5.11l-.7-9.91a1.45 1.45 0 011.22-1.47l2.53-.56a20.33 20.33 0 018.68 0l2.53.56a1.45 1.45 0 011.22 1.47l-.71 9.94a5.76 5.76 0 01-3.41 5.08l-3.19 1.56a1.77 1.77 0 01-.83.18zm0-18.41a19.16 19.16 0 00-4.11.44l-2.53.56a.6.6 0 00-.5.6l.71 9.94a5 5 0 002.92 4.4l3.19 1.56a.72.72 0 00.63 0l3.19-1.56a4.94 4.94 0 002.92-4.37l.71-10a.6.6 0 00-.5-.6l-2.53-.56a19.16 19.16 0 00-4.1-.42z"/><path class="cls-6" d="M436 372.43h-4.16a1 1 0 00-1 1v.35a2.77 2.77 0 002.77 2.77h-.56v3.06h-.17a.86.86 0 00-.86.86v2a.86.86 0 00.86.86h2a.86.86 0 00.86-.86v-2a.86.86 0 00-.86-.86h-.17v-3.06h-.56a2.77 2.77 0 002.77-2.77v-.35a1 1 0 00-.92-1z"/></g></g></g><path id="neck" fill="#a88062" d="M427.63 346.26l-27.59 8.62-28.6-9.62-1.92-23.62h61.04l-2.93 24.62z"/><path d="M502.88 374.43l-2.47-30.36c-1.19-11.87-11.83-22.25-23.72-23.14l-37.14-2.71c-4.07-.45-20.52-.09-39.55.53-19-.62-35.48-1-39.55-.53l-37.14 2.71c-11.89.89-22.53 11.27-23.72 23.14l-2.47 30.36a20.15 20.15 0 005 15.74 19.92 19.92 0 001.69 1.64v66.36c0 12.81 9.32 23.22 20.78 23.22a19.8 19.8 0 0015.25-7.39v3.79a12.23 12.23 0 007.74 11.36v86h-5.93c-10.93 0-19.83 5.8-19.83 17.11 0 8.06 0 17 11.72 19.7v1.6a1.38 1.38 0 001.38 1.38h1.63a1.38 1.38 0 001.38-1.37v-.95c1.16.09 2.39.15 3.73.15h1.89v.8a1.38 1.38 0 001.38 1.38h1.63a1.38 1.38 0 001.38-1.37v-.8h5.62v.8a1.38 1.38 0 001.38 1.38h1.63a1.38 1.38 0 001.38-1.37v-.8h5.62v.8a1.38 1.38 0 001.38 1.38h1.63a1.38 1.38 0 001.38-1.37v-.8h5.62v.8a1.38 1.38 0 001.38 1.38h1.63a1.38 1.38 0 001.38-1.37v-.8h5.62v.8a1.38 1.38 0 001.38 1.38h1.63a1.38 1.38 0 001.38-1.37v-.8h5.62v.8a1.38 1.38 0 001.38 1.38h1.63a1.38 1.38 0 001.38-1.37v-.81l.06-55.45V490h4v67.21l.06 54.67v1.6a1.38 1.38 0 001.38 1.38h1.63a1.38 1.38 0 001.38-1.37v-.8h5.62v.8a1.38 1.38 0 001.38 1.38h1.63a1.38 1.38 0 001.38-1.37v-.8h5.62v.8a1.38 1.38 0 001.38 1.38h1.63a1.38 1.38 0 001.38-1.37v-.8h5.62v.8a1.38 1.38 0 001.38 1.38h1.63a1.38 1.38 0 001.38-1.37v-.8h5.62v.8a1.38 1.38 0 001.38 1.38h1.63a1.38 1.38 0 001.38-1.37v-.8h5.62v.8a1.38 1.38 0 001.38 1.38h1.63a1.38 1.38 0 001.38-1.37v-.8h1.89c1.33 0 2.57-.05 3.72-.15v.95a1.38 1.38 0 001.38 1.38h1.63a1.38 1.38 0 001.38-1.37v-1.6c11.71-2.68 11.72-11.64 11.72-19.7 0-11.3-8.89-17.11-19.83-17.11h-5.93v-86a12.23 12.23 0 007.74-11.36V474a19.8 19.8 0 0015.21 7.42c11.46 0 20.78-10.42 20.78-23.22v-66.39a19.92 19.92 0 001.69-1.64 20.15 20.15 0 004.95-15.74zm-130.49-46.18c3.46 1.84 15.64 2.07 27.61 1.79 12 .28 24.15 0 27.61-1.79V340c0 4.8-22.42 12-27.23 12l-.38-.08-.38.08c-4.8 0-27.23-7.19-27.23-12zm-33 67.43v55c0 17.5-6.63 25.22-14.78 25.22s-14.78-7.73-14.78-17.22V395.9a21.08 21.08 0 007.47 1.36h22.09zm52.9 211.42h-50.64c-14.22 0-14.22-5-14.22-14.89 0-8.21 6.38-11.5 14.22-11.5h11.67l38.93-2.71.06 15.37zm-38.74-76.4h38.67v41.7l-38.67 2.68h-.26V530.7zm-.26-5.74V490h38.94v35h-38.91zm104.77 55.75h.26c7.84 0 14.22 3.29 14.22 11.5 0 9.91 0 14.89-14.22 14.89h-50.64v-13.7l.06-15.37 38.93 2.69h11.42zm-11.67-50h.26v44.4h-.26l-38.67-2.68V530.7zM407.75 525v-35h38.95v35h-38.95zm46.84-81.77h-.07v34.58a6.6 6.6 0 01-6.58 6.58H403s-.11-3.73-.16-8.75v-2.79c0-3.51-1.41-5.09-2.82-5-1.41-.09-2.82 1.49-2.82 5v2.79c0 5-.16 8.75-.16 8.75H352.1a6.6 6.6 0 01-6.58-6.58v-34.63h-.07v-.33l30.24.33h48.69l30.24-.33zm35.57 15.51c0 9.5-6.63 17.22-14.78 17.22s-14.78-7.73-14.78-25.22v-53.48h22.09a21.08 21.08 0 007.47-1.36zm6-77.21a13.53 13.53 0 01-6 7.29 14.69 14.69 0 01-7.47 2l-22.09.09v-20.19c0-5.56-6.07-5.94-6.07 0s.07 14.37.07 14.37v51.59H345.41v-51.61s.07-8.46.07-14.37-6.07-5.54-6.07 0v20.11l-22.09-.09a14.69 14.69 0 01-7.47-2 13.53 13.53 0 01-6-7.29 14.89 14.89 0 01-.75-6.46l2.47-30.36c.89-9 9.23-17.08 18.2-17.75l11.12-.83 32.22-2.29c.68.54.48 17.49.48 17.49 0 8.43 23.34 15.29 31.77 15.29h1.3c8.43 0 31.77-6.86 31.77-15.29 0 0-.2-16.95.48-17.49l32.22 2.29 11.12.83c9 .67 17.3 8.8 18.2 17.75L496.9 375a14.89 14.89 0 01-.75 6.48z" id="border"/><g id="head"><path d="M391.25 192.6c7.86 0 13.62 5.36 13.62 5.36a13.21 13.21 0 015.14-1.23 6.34 6.34 0 013 .69s1.81-.19 4.49-.19c6.8 0 19.21 1.24 22 10 0 0 10.08 3.83 10.67 13 0 0 5 6.08 3.22 15.79l6.1 23.46s6.65 14.29 2.39 28.88c-3.65 12.5-3.27 15.9-8.21 15.9a22.1 22.1 0 01-3-.26s-1.62 4.77-6.18 4.77a8.35 8.35 0 01-3-.6s-5.13 3.46-8.92 3.46a3.55 3.55 0 01-3.81-3.14c-1.51-7.24-5.69-27.66 4.85-37.47a45.46 45.46 0 0117.15-9.54c-4-1.11-9.43-4.62-16.46-13.26 0 0-10.17-10.83-7.84-15.5a182.19 182.19 0 01-18.85 1.36c-3.31 0-6.19-.23-7.74-.86-.83 1.08-3.4 1.47-6.71 1.47-9.08 0-23.77-3-23.77-3-2 14-5.69 16-7.71 16a2.71 2.71 0 01-1.39-.36c-.1 10.86-6.32 13-11.24 13h-1.23c5.36 1.28 14.28 4.24 21.17 10.65 10.54 9.81 6.36 30.22 4.85 37.47a3.55 3.55 0 01-3.81 3.14c-3.79 0-8.92-3.46-8.92-3.46a8.35 8.35 0 01-3 .6c-4.56 0-6.18-4.77-6.18-4.77a22.1 22.1 0 01-3 .26c-4.94 0-4.56-3.4-8.21-15.9-4.26-14.59 2.39-28.88 2.39-28.88l3.45-23.44c-1.77-9.71 6.81-17.79 6.81-17.79.58-9.17 10-12.17 10-12.17 3.92-12.25 21.67-12.33 21.67-12.33a17.16 17.16 0 016.2-1.16m0-6a23.13 23.13 0 00-7.36 1.2c-4.3.24-19.41 1.93-25.14 13.73-4.4 2.21-9.73 6.74-11.08 14.06-2.85 3.31-8.4 11.09-7.17 20.49l-3.1 21.79c-1.51 3.65-6.57 17.65-2.32 32.2.73 2.5 1.29 4.61 1.78 6.47 1.94 7.31 3.62 13.63 12 13.74a12 12 0 009.39 4.51 13.1 13.1 0 002.05-.17c2.45 1.33 6.25 3 9.85 3a9.49 9.49 0 009.68-7.92 89.41 89.41 0 002.18-18.97c-.12-10.58-3.1-18.66-8.85-24a45.72 45.72 0 00-10.08-7 18.39 18.39 0 002.77-6.81 12.15 12.15 0 004.86-4.61 30.91 30.91 0 003.59-9.48 128.7 128.7 0 0019 2 21.77 21.77 0 007.62-1.06 41.9 41.9 0 006.82.45c4.48 0 9.62-.38 13.51-.75a29.7 29.7 0 003.43 6.27 63 63 0 005.21 6.55 70.33 70.33 0 008 8.44 44.55 44.55 0 00-8.24 6c-13.07 12.17-8.23 35.44-6.64 43.08a9.49 9.49 0 009.68 7.92c3.6 0 7.41-1.69 9.85-3a13.1 13.1 0 002.05.17 12 12 0 009.39-4.51c8.34-.11 10-6.43 12-13.74.49-1.86 1.05-4 1.78-6.48 4.39-15-1.17-29.5-2.47-32.54l-5.66-21.79a26.53 26.53 0 00-3.62-17.7c-1.25-7.73-7.14-12.8-11.83-15.29-3.87-7.48-13.19-11.56-26.64-11.56-1.44 0-2.65 0-3.54.1a12.87 12.87 0 00-4-.6 17.11 17.11 0 00-4.06.52 27 27 0 00-14.7-4.65z" fill="#231f20"/><path class="cls-11" d="M343.23 259.51s-6.65 14.29-2.39 28.88 3 16.78 11.19 15.64c0 0 2.3 6.79 9.16 4.17 0 0 11.23 7.57 12.73.32s5.69-27.66-4.85-37.47-25.84-11.54-25.84-11.54zm116.3 0s6.65 14.29 2.39 28.88-3 16.78-11.19 15.64c0 0-2.3 6.79-9.16 4.17 0 0-11.23 7.57-12.73.32s-5.69-27.66 4.85-37.47 25.84-11.54 25.84-11.54z"/><path id="skin-2" data-name="skin" class="cls-1" d="M446.34 259.61c0-.91.08-1.81.08-2.73 0-30.51-21.06-55.25-47-55.25s-47 24.74-47 55.25c0 1.11 0 2.21.1 3.31-4 2.46-6.9 8.44-6.9 15.43 0 9.19 4.93 16.64 11 16.64a7.47 7.47 0 002.1-.31c.82 24.5 18.74 44.08 40.73 44.08s40.12-19.81 40.74-44.5a7.65 7.65 0 003.25.74c6.08 0 11-7.45 11-16.64-.06-7.63-3.44-14.06-8.1-16.02z"/><path id="border-2" data-name="border" d="M446.34 259.61c0-.91.08-1.81.08-2.73 0-30.51-21.06-55.25-47-55.25s-47 24.74-47 55.25c0 1.11 0 2.21.1 3.31-4 2.46-6.9 8.44-6.9 15.43 0 9.19 4.93 16.64 11 16.64a7.47 7.47 0 002.1-.31c.82 24.5 18.74 44.08 40.73 44.08s40.12-19.81 40.74-44.5a7.65 7.65 0 003.25.74c6.08 0 11-7.45 11-16.64-.06-7.63-3.44-14.06-8.1-16.02z" stroke="#231f20" stroke-linecap="round" stroke-linejoin="round" stroke-width="6" fill="#cf9e76"/><path class="cls-11" d="M453.44 236c1.77-9.71-3.22-15.79-3.22-15.79-.58-9.17-10.67-13-10.67-13-3.92-12.21-26.55-9.78-26.55-9.78-3.39-1.83-8.17.53-8.17.53s-9-8.36-19.83-4.2c0 0-17.75.09-21.67 12.33 0 0-9.42 3-10 12.17 0 0-8.58 8.08-6.81 17.79l-3.33 23.46s17 5.91 17.15-12.09c0 0 6.27 4.17 9.1-15.67 0 0 27.36 5.54 30.48 1.5 5.34 2.2 26.59-.5 26.59-.5-2.33 4.67 7.84 15.5 7.84 15.5 17.5 21.5 25.15 11.25 25.15 11.25z"/></g></svg>