<svg id="player" xmlns="http://www.w3.org/2000/svg" xmlns:xlink="http://www.w3.org/1999/xlink" viewBox="0 0 800 800"><defs><linearGradient id="linear-gradient" x1="372.71" y1="571.04" x2="372.71" y2="523" gradientUnits="userSpaceOnUse"><stop offset=".13" stop-color="#f6f3e6"/><stop offset=".48" stop-color="#e0d9a1"/></linearGradient><linearGradient id="linear-gradient-2" x1="427.21" y1="571.04" x2="427.21" y2="523" xlink:href="#linear-gradient"/><linearGradient id="linear-gradient-3" x1="344.41" y1="471.46" x2="350.81" y2="471.46" gradientUnits="userSpaceOnUse"><stop offset="0" stop-color="#46557c"/><stop offset="1" stop-color="#193b68"/></linearGradient><linearGradient id="linear-gradient-4" x1="455.59" y1="471.46" x2="449.19" y2="471.46" xlink:href="#linear-gradient-3"/><linearGradient id="linear-gradient-5" x1="315.9" y1="373.46" x2="355.15" y2="373.46" xlink:href="#linear-gradient-3"/><linearGradient id="linear-gradient-6" x1="484.08" y1="373.46" x2="444.84" y2="373.46" xlink:href="#linear-gradient-3"/><style>.cls-1{fill:#cfab8f}.cls-2{fill:#414042}.cls-3{fill:#e0d9a1}.cls-8{fill:#fff}.cls-9{fill:#193b68}.cls-12{fill:#2f67b1}.cls-13{fill:#c1b14b}.cls-15{fill:#e01f26}.cls-16{fill:#231f20}.cls-17{fill:#d1d3d4}.cls-20{fill:#22aa57}.cls-23{fill:#bcbec0}.cls-24{fill:#a7a9ac}</style></defs><g id="skin"><path id="arm-left" class="cls-1" d="M305.93 383h36.78v72.4a18.39 18.39 0 01-18.39 18.39 18.39 18.39 0 01-18.39-18.39V383z"/><path id="arm-right" class="cls-1" d="M457.19 383H494v72.4a18.39 18.39 0 01-18.39 18.39 18.39 18.39 0 01-18.39-18.39V383h-.03z"/><path id="leg-left" class="cls-1" d="M349.88 493.02h45.67v45.67h-45.67z"/><path id="leg-right" class="cls-1" d="M404.78 493.02h45.67v45.67h-45.67z"/></g><g id="boots"><path id="left" class="cls-2" d="M395.33 571.04H372.5l-22.83 1.97h-12.5l-7.5 2.53-5.25 8.5v9.83l1.91 4.17 3.84 4.05 6.33 1.95h58.83v-33z"/><path id="right" class="cls-2" d="M404.61 571.27h22.83l22.83 1.97h12.5l7.5 2.53 5.25 8.5v9.83l-1.91 4.17-3.84 4.05-6.33 1.95h-58.83v-33z"/><path class="cls-3" d="M395.33 588.55s-73.16-2.3-69 8.7c0 0-10.33 6.33 23.92 7.42l45.08-.63zm9.05 0s73.16-2.3 69 8.7c0 0 10.33 6.33-23.92 7.42l-45.08-.67z" id="details"/></g><g id="socks"><g id="socks-2" data-name="socks"><path id="left-2" data-name="left" fill="url(#linear-gradient)" d="M349.88 523h45.67v48.04h-45.67z"/><path id="right-2" data-name="right" fill="url(#linear-gradient-2)" d="M404.38 523h45.67v48.04h-45.67z"/></g></g><g id="shorts"><path id="shorts-2" data-name="shorts" class="cls-3" d="M341.67 443.54h116.49v47a9.95 9.95 0 01-9.95 9.95h-96.6a9.95 9.95 0 01-9.95-9.95v-47h.01z"/><g id="details-2" data-name="details"><path fill="url(#linear-gradient-3)" d="M344.41 445h6.4v52.92h-6.4z"/><path fill="url(#linear-gradient-4)" d="M449.19 445h6.4v52.92h-6.4z"/></g></g><g id="shirt"><path id="shirt-2" data-name="shirt" class="cls-3" d="M369.5 315.8l-48.29 2.99-11.36 6.25-6.83 10.1-3.31 40.73 5.17 7.67 7.66 4.67h29.5l.17 54h114.83v-53.5l29.34-.17 7.01-4 6.99-10.5-3.4-37.33-6.83-11.84-9.77-6.08-49.84-2.99-1 21.24-6.5 6.5-11.16 3.48-11.88 2.02-15.46-3.17-11-5.66-3.66-3.84-.38-20.57z"/><g id="details-3" data-name="details"><g id="neck"><path class="cls-8" d="M400 377.95a1.41 1.41 0 01-.83-.27c-6.17-4.46-24-20.26-27.65-24.49a4 4 0 01-1-2.63v-.14l-.86-12.21 2.19-.08h56.29l2.12.08-.86 12.21v.14a4 4 0 01-1 2.63c-3.66 4.24-21.46 20-27.61 24.49a1.41 1.41 0 01-.79.27z"/><path class="cls-9" d="M428.13 340.12h.05l-.71 10.15v.28a2 2 0 01-.5 1.33c-3.54 4.1-20.56 19.21-26.93 23.93-6.39-4.72-23.43-19.83-27-23.93a2 2 0 01-.5-1.33v-.28l-.71-10.15h56.27m.07-4h-56.33l-4.26.16 1 14.28a6 6 0 001.42 3.94c3.85 4.46 21.74 20.28 28 24.8a3.42 3.42 0 004 0c6.24-4.52 24.1-20.34 27.95-24.8a6 6 0 001.47-3.94l1-14.28-4.26-.16z"/></g><path d="M342.46 405.69s20.71-24.19 9.21-53.27c-6.11-15.46-26.33-14.33-31 0a146.71 146.71 0 00-4.74 17 1.28 1.28 0 001.4 1.51c4.77-.49 25.26-10.37 25.13.13s0 34.63 0 34.63z" fill="url(#linear-gradient-5)"/><path d="M457.53 405.69s-20.71-24.19-9.21-53.27c6.11-15.46 26.33-14.33 31 0a146.71 146.71 0 014.74 17 1.28 1.28 0 01-1.4 1.51c-4.77-.49-25.26-10.37-25.13.13s0 34.63 0 34.63z" fill="url(#linear-gradient-6)"/><g id="crest-italy-06"><path class="cls-12" d="M405.93 368l-5.33 4.27a.9.9 0 01-1.12 0l-5.33-4.27a1 1 0 01-.39-.81v-9.53a2.4 2.4 0 012.4-2.4h7.76a2.4 2.4 0 012.4 2.4v9.53a1 1 0 01-.39.81z"/><rect class="cls-13" x="395.07" y="356.48" width="9.94" height="1.93" rx=".97" ry=".97"/><path d="M395.6 359.41a.53.53 0 00-.53.53v6.44a1 1 0 00.33.72l2.52 2.21v-9.9z" fill="#009d5c"/><path class="cls-8" d="M397.92 359.41v9.9l1.65 1.45a.72.72 0 00.95 0l1.65-1.45v-9.9z"/><path class="cls-15" d="M404.48 359.41h-2.32v9.9l2.52-2.21a1 1 0 00.33-.72v-6.44a.53.53 0 00-.53-.53z"/><circle class="cls-13" cx="400.13" cy="368.38" r="1.15"/><circle class="cls-13" cx="396.42" cy="366.03" r=".77"/><circle class="cls-13" cx="403.66" cy="366.03" r=".77"/><circle class="cls-12" cx="400.13" cy="364.83" r="1.76"/></g><path class="cls-15" d="M366.22 374.56a1.48 1.48 0 01-1.46-1.46v-8.76l-1.56 1.61a1.14 1.14 0 01-.81.33 1.22 1.22 0 01-.86-2.11l3.21-3.25a1.78 1.78 0 011.25-.5 1.72 1.72 0 011.73 1.69v11a1.49 1.49 0 01-1.5 1.45z" id="number-1"/><rect class="cls-16" x="430.76" y="360.51" width="4.76" height="12.18" rx="2.38" ry="2.38" transform="rotate(-63.52 433.171 366.607)" id="brand-puma"/><g id="logo-world-cup-06"><ellipse class="cls-8" cx="305.31" cy="352.32" rx="8.15" ry="5.36" transform="rotate(-82.91 305.305 352.315)"/><path class="cls-17" d="M304.25 360.79c-3.07-.38-5.1-4.49-4.52-9.17s3.55-8.16 6.62-7.78 5.1 4.49 4.52 9.17-3.55 8.16-6.62 7.78zm2-16.17c-2.79-.35-5.49 2.82-6 7.07s1.31 8 4.1 8.33 5.49-2.82 6-7.07-1.3-7.95-4.09-8.33z"/><ellipse cx="305.54" cy="348.16" rx="2.64" ry="1.74" transform="rotate(-82.91 305.54 348.16)" fill="#e63b30"/><path class="cls-8" d="M305.17 351.07c-1.06-.13-1.75-1.55-1.55-3.15s1.22-2.81 2.28-2.68 1.75 1.55 1.55 3.15-1.22 2.81-2.28 2.68zm.65-5.25c-.85-.11-1.66.86-1.82 2.14s.4 2.42 1.24 2.52 1.66-.86 1.82-2.14-.39-2.41-1.23-2.51z"/><ellipse cx="303.18" cy="351.17" rx="3.28" ry="2.15" transform="rotate(-82.91 303.184 351.168)" fill="#5b84c3"/><path class="cls-8" d="M302.73 354.81c-1.32-.16-2.19-1.93-1.94-3.94s1.53-3.51 2.85-3.34 2.19 1.93 1.94 3.94-1.53 3.53-2.85 3.34zm.81-6.51c-1-.13-2 1.05-2.24 2.63s.49 3 1.53 3.1 2-1.05 2.24-2.63-.49-2.97-1.53-3.1z"/><ellipse class="cls-20" cx="307.22" cy="352.58" rx="3.77" ry="2.48" transform="rotate(-82.91 307.215 352.582)"/><path class="cls-8" d="M306.7 356.71c-1.5-.19-2.48-2.19-2.2-4.46s1.73-4 3.23-3.79 2.48 2.19 2.2 4.46-1.73 3.97-3.23 3.79zm.93-7.48c-1.21-.15-2.39 1.23-2.62 3.07s.57 3.47 1.78 3.62 2.39-1.23 2.62-3.07-.56-3.47-1.78-3.62z"/><ellipse class="cls-20" cx="304.26" cy="356.28" rx="2.74" ry="1.8" transform="rotate(-82.91 304.26 356.28)"/><path class="cls-8" d="M303.87 359.38c-1.13-.14-1.87-1.65-1.66-3.36s1.3-3 2.43-2.85 1.87 1.65 1.66 3.36-1.3 2.99-2.43 2.85zm.68-5.43c-.84-.1-1.66.85-1.82 2.14s.4 2.41 1.24 2.52 1.66-.85 1.82-2.14-.4-2.42-1.24-2.52z"/></g></g></g><path id="neck-2" data-name="neck" fill="#a88b78" d="M427.63 341.26l-27.59 8.62-28.6-9.62-1.92-23.62h61.04l-2.93 24.62z"/><path d="M502.88 369.43l-2.47-30.36c-1.19-11.87-11.83-22.25-23.72-23.14l-37.14-2.71c-4.07-.45-20.52-.09-39.55.53-19-.62-35.48-1-39.55-.53l-37.14 2.71c-11.89.89-22.53 11.27-23.72 23.14l-2.47 30.36a20.15 20.15 0 005 15.74 19.92 19.92 0 001.69 1.64v66.36c0 12.81 9.32 23.22 20.78 23.22a19.8 19.8 0 0015.25-7.39v21.79a12.23 12.23 0 007.74 11.36v68h-5.93c-10.93 0-19.83 5.8-19.83 17.11 0 8.06 0 17 11.72 19.7v1.6a1.38 1.38 0 001.38 1.38h1.63a1.38 1.38 0 001.38-1.37v-.95c1.16.09 2.39.15 3.73.15h1.89v.8a1.38 1.38 0 001.38 1.38h1.63a1.38 1.38 0 001.38-1.37v-.8h5.62v.8a1.38 1.38 0 001.38 1.38h1.63a1.38 1.38 0 001.38-1.37v-.8h5.62v.8a1.38 1.38 0 001.38 1.38h1.63a1.38 1.38 0 001.38-1.37v-.8h5.62v.8a1.38 1.38 0 001.38 1.38h1.63a1.38 1.38 0 001.38-1.37v-.8h5.62v.8a1.38 1.38 0 001.38 1.38h1.63a1.38 1.38 0 001.38-1.37v-.8h5.62v.8a1.38 1.38 0 001.38 1.38h1.63a1.38 1.38 0 001.38-1.37v-.81l.06-55.45V503h4v49.21l.06 54.67v1.6a1.38 1.38 0 001.38 1.38h1.63a1.38 1.38 0 001.38-1.37v-.8h5.62v.8a1.38 1.38 0 001.38 1.38h1.63a1.38 1.38 0 001.38-1.37v-.8h5.62v.8a1.38 1.38 0 001.38 1.38h1.63a1.38 1.38 0 001.38-1.37v-.8h5.62v.8a1.38 1.38 0 001.38 1.38h1.63a1.38 1.38 0 001.38-1.37v-.8h5.62v.8a1.38 1.38 0 001.38 1.38h1.63a1.38 1.38 0 001.38-1.37v-.8h5.62v.8a1.38 1.38 0 001.38 1.38h1.63a1.38 1.38 0 001.38-1.37v-.8h1.89c1.33 0 2.57-.05 3.72-.15v.95a1.38 1.38 0 001.38 1.38h1.63a1.38 1.38 0 001.38-1.37v-1.6c11.71-2.68 11.72-11.64 11.72-19.7 0-11.3-8.89-17.11-19.83-17.11h-5.93v-68a12.23 12.23 0 007.74-11.36V469a19.8 19.8 0 0015.21 7.42c11.46 0 20.78-10.42 20.78-23.22v-66.39a19.92 19.92 0 001.69-1.64 20.15 20.15 0 004.95-15.74zm-130.49-46.18c3.46 1.84 15.64 2.07 27.61 1.79 12 .28 24.15 0 27.61-1.79V335c0 4.8-22.42 12-27.23 12l-.38-.08-.38.08c-4.8 0-27.23-7.19-27.23-12zm-33 75.43v55c0 9.5-6.63 17.22-14.78 17.22s-14.78-7.73-14.78-17.22V390.9a21.08 21.08 0 007.47 1.36h22.09zm52.9 203.42h-50.64c-14.22 0-14.22-5-14.22-14.89 0-8.21 6.38-11.5 14.22-11.5h11.67l38.93-2.71.06 15.37zm-38.74-76.4h38.67v41.7l-38.67 2.68h-.26V525.7zm-.26-5.74V503h38.94v17h-38.91zm104.77 55.75h.26c7.84 0 14.22 3.29 14.22 11.5 0 9.91 0 14.89-14.22 14.89h-50.64v-13.7l.06-15.37 38.93 2.69h11.42zm-11.67-50h.26v44.4h-.26l-38.67-2.68V525.7zM407.75 520v-17h38.95v17h-38.95zm46.84-73.77h-.07v44.58a6.6 6.6 0 01-6.58 6.58H403s-.11-3.73-.16-8.75v-2.79c0-3.51-1.41-5.09-2.82-5-1.41-.09-2.82 1.49-2.82 5v2.79c0 5-.16 8.75-.16 8.75H352.1a6.6 6.6 0 01-6.58-6.58v-44.63h-.07v-.33l30.24.33h48.69l30.24-.33zm35.57 7.51c0 9.5-6.63 17.22-14.78 17.22s-14.78-7.73-14.78-17.22v-61.48h22.09a21.08 21.08 0 007.47-1.36zm6-77.21a13.53 13.53 0 01-6 7.29 14.69 14.69 0 01-7.47 2l-22.09.09v-20.19c0-5.56-6.07-5.94-6.07 0s.07 14.37.07 14.37v59.59H345.41v-59.61s.07-8.46.07-14.37-6.07-5.54-6.07 0v20.11l-22.09-.09a14.69 14.69 0 01-7.47-2 13.53 13.53 0 01-6-7.29 14.89 14.89 0 01-.75-6.46l2.47-30.36c.89-9 9.23-17.08 18.2-17.75l11.12-.83 32.22-2.29c.68.54.48 17.49.48 17.49 0 8.43 23.34 15.29 31.77 15.29h1.3c8.43 0 31.77-6.86 31.77-15.29 0 0-.2-16.95.48-17.49l32.22 2.29 11.12.83c9 .67 17.3 8.8 18.2 17.75L496.9 370a14.89 14.89 0 01-.75 6.48z" id="border"/><g id="head"><path class="cls-16" d="M454.51 272.12s-.6 17.38-2.72 21.75-5.33 13.75-6.85 13.25-5-1.79-6.49-5.21-6.9-9-6.65-14 4.63-16.75 9.5-19 13.21 3.21 13.21 3.21zm-108.94 0s.6 17.38 2.72 21.75 5.33 13.75 6.85 13.25 5-1.79 6.49-5.21 6.9-9 6.65-14-4.62-16.75-9.5-19-13.21 3.21-13.21 3.21z"/><path id="skin-2" data-name="skin" class="cls-1" d="M446.38 254.1c0-.91.08-1.81.08-2.73 0-30.51-21.06-55.25-47-55.25s-47 24.74-47 55.25c0 1.11 0 2.21.1 3.31-4 2.46-6.9 8.44-6.9 15.43 0 9.19 4.93 16.64 11 16.64a7.47 7.47 0 002.1-.31c.82 24.5 18.74 44.08 40.73 44.08s40.12-19.81 40.74-44.5a7.65 7.65 0 003.25.74c6.08 0 11-7.45 11-16.64-.05-7.65-3.48-14.06-8.1-16.02z"/><path id="border-2" data-name="border" d="M446.38 254.1c0-.91.08-1.81.08-2.73 0-30.51-21.06-55.25-47-55.25s-47 24.74-47 55.25c0 1.11 0 2.21.1 3.31-4 2.46-6.9 8.44-6.9 15.43 0 9.19 4.93 16.64 11 16.64a7.47 7.47 0 002.1-.31c.82 24.5 18.74 44.08 40.73 44.08s40.12-19.81 40.74-44.5a7.65 7.65 0 003.25.74c6.08 0 11-7.45 11-16.64-.05-7.65-3.48-14.06-8.1-16.02z" fill="none" stroke="#231f20" stroke-linecap="round" stroke-linejoin="round" stroke-width="6"/><path class="cls-16" d="M453.66 241.37c0-6.62-9.5-22.12-11.62-27.62s-13.75-13.75-16.63-15.88-9.87-5.25-17.62-6-7.4 0-15.49 0c-7.79 0-14.75 3.88-17.62 6s-14.5 10.38-16.62 15.88-11.62 21-11.62 27.63-1.37 15.88 0 19.88 6-9.88 6-9.88l.81-2-.31 6.3 1.42.71s10.5-21.5 12.75-29.12 30.26-6 33-6 30.75-1.62 33 6 12.75 29.13 12.75 29.13l1.42-.71-.31-6.3.81 2s4.59 13.88 6 9.88-.12-13.27-.12-19.9z"/><path class="cls-2" d="M432.33 221.79a1.13 1.13 0 00-.45-.14c-2.58-.36-25.95-2.6-31.84-2.6s-29.26 2.24-31.84 2.6a1.13 1.13 0 00-.45.14h-.07c-1 .72-.25 2.34 1 2.17 6.75-.88 23.5-1.65 29.31-2.26a19.41 19.41 0 014.06 0c5.82.61 22.56 1.38 29.31 2.26 1.26.16 2-1.45 1-2.17z"/></g><g id="over-border-details"><g id="asset-glove"><path class="cls-23" d="M468.09 427.19h17.16a6.53 6.53 0 016.53 6.53V444a7.08 7.08 0 01-7.08 7h-16.05a7.08 7.08 0 01-7.08-7.08v-10.21a6.53 6.53 0 016.53-6.53z" transform="matrix(.99 .16 -.16 .99 75.9 -70.22)"/><path class="cls-16" d="M486.77 428.66a6.55 6.55 0 015.72 7.26l-1.72 10.67c-.6 3.7-4.34 6.18-8.36 5.53l-15.26-2.46c-4-.65-6.8-4.17-6.2-7.87l1.72-10.67a6.55 6.55 0 017.71-5.1l16.4 2.64m.88-5.45l-16.4-2.64c-7-1.12-13.48 3.18-14.51 9.6L455 440.83c-1.08 6.7 4 13.11 11.25 14.28l15.26 2.46c7.28 1.17 14.08-3.32 15.16-10l1.72-10.67c1-6.41-3.8-12.54-10.77-13.67z"/><path class="cls-17" d="M463 437.77h20.1a9.49 9.49 0 019.49 9.49v19.08a18.76 18.76 0 01-18.76 18.76h-1.58a18.76 18.76 0 01-18.76-18.76v-19.07a9.49 9.49 0 019.49-9.49z" transform="rotate(9.15 473.097 461.452)"/><path class="cls-16" d="M486.37 439.61c5.39.87 9.12 5.6 8.32 10.56l-3.22 20c-1.58 9.81-11.5 16.37-22.16 14.65-10.66-1.72-18-11.06-16.44-20.87l3.22-20c.8-5 5.82-8.28 11.22-7.42l19.06 3.07m.88-5.45l-19.06-3.07c-8.65-1.39-16.73 4-18 11.91L447 463c-2.06 12.8 7.58 25 21.48 27.27s26.9-6.35 29-19.15l3.22-20c1.28-8-4.71-15.57-13.37-17z"/><path class="cls-9" d="M459.46 464.78h23.33a3.44 3.44 0 013.44 3.44 14.14 14.14 0 01-14.14 14.14h-1.93A14.14 14.14 0 01456 468.22a3.44 3.44 0 013.44-3.44z" transform="rotate(9.15 471.11 473.56)"/><rect class="cls-24" x="459.45" y="442.99" width="30.21" height="18.57" rx="5.07" ry="5.07" transform="rotate(9.15 474.564 452.28)"/></g><g id="asset-glove-2" data-name="asset-glove"><path class="cls-23" d="M315.72 427.19h16.06a7.08 7.08 0 017.08 7.08v10.25a6.53 6.53 0 01-6.53 6.53h-17.16a6.53 6.53 0 01-6.53-6.53v-10.25a7.08 7.08 0 017.08-7.08z" transform="rotate(170.85 323.751 439.11)"/><path class="cls-16" d="M313.65 428.66l16.4-2.64a6.55 6.55 0 017.71 5.1l1.72 10.67c.6 3.7-2.18 7.23-6.2 7.87L318 452.12c-4 .65-7.77-1.83-8.36-5.53l-1.72-10.67a6.55 6.55 0 015.72-7.26m-.88-5.45c-7 1.12-11.8 7.25-10.77 13.67l1.72 10.67c1.08 6.7 7.88 11.2 15.16 10l15.26-2.46c7.28-1.17 12.33-7.58 11.25-14.28l-1.72-10.67c-1-6.41-7.54-10.72-14.51-9.6l-16.4 2.64z"/><path class="cls-17" d="M326.56 437.77h1.58a18.76 18.76 0 0118.76 18.76v19.08a9.49 9.49 0 01-9.49 9.49h-20.1a9.49 9.49 0 01-9.49-9.49v-19.08a18.76 18.76 0 0118.74-18.76z" transform="matrix(-.99 .16 -.16 -.99 723.9 864.95)"/><path class="cls-16" d="M314.05 439.61l19.06-3.07c5.39-.87 10.42 2.45 11.22 7.42l3.22 20c1.58 9.81-5.78 19.15-16.44 20.87-10.66 1.72-20.58-4.84-22.16-14.65l-3.22-20c-.8-5 2.93-9.69 8.32-10.56m-.88-5.45c-8.65 1.39-14.65 9-13.37 17l3.22 20c2.06 12.8 15.05 21.39 29 19.15s23.54-14.47 21.48-27.27l-3.22-20c-1.28-8-9.36-13.31-18-11.91l-19.06 3.07z"/><path class="cls-9" d="M328.33 464.78h1.93a14.14 14.14 0 0114.14 14.14 3.44 3.44 0 01-3.44 3.44h-23.33a3.44 3.44 0 01-3.44-3.44 14.14 14.14 0 0114.14-14.14z" transform="rotate(170.85 329.297 473.565)"/><rect class="cls-24" x="310.76" y="442.99" width="30.21" height="18.57" rx="5.07" ry="5.07" transform="rotate(170.85 325.868 452.272)"/></g></g></svg>