<svg id="player" xmlns="http://www.w3.org/2000/svg" viewBox="0 0 800 800"><defs><clipPath id="clip-path"><path class="cls-1" transform="rotate(-82.34 304.475 359.397)" d="M297.47 355.51h14.07v7.78h-14.07z"/></clipPath><clipPath id="clip-path-2"><path class="cls-1" transform="rotate(-82.34 304.475 359.397)" d="M297.47 355.51h14.07v7.78h-14.07z"/></clipPath><style>.cls-1{fill:none}.cls-2{fill:#e4b69d}.cls-3{fill:#e2e5d1}.cls-4{fill:#ec2027}.cls-5{fill:#0864af}.cls-6{fill:#fff}.cls-7{fill:#414042}.cls-12{fill:#2d2d2d}</style></defs><g id="skin"><path id="arm-left" class="cls-2" d="M305.93 386h36.78v72.4a18.39 18.39 0 01-18.39 18.39 18.39 18.39 0 01-18.39-18.39V386z"/><path id="arm-right" class="cls-2" d="M457.19 386H494v72.4a18.39 18.39 0 01-18.39 18.39 18.39 18.39 0 01-18.39-18.39V386z"/><path id="leg-left" class="cls-2" d="M349.88 496.02h45.67v45.67h-45.67z"/><path id="leg-right" class="cls-2" d="M404.78 496.02h45.67v45.67h-45.67z"/></g><g id="boots"><path id="left" class="cls-3" d="M395.33 574.04H372.5l-22.83 1.97h-12.5l-7.5 2.53-5.25 8.5v9.83l1.91 4.17 3.84 4.05 6.33 1.95h58.83v-33z"/><path id="right" class="cls-3" d="M404.61 574.27h22.83l22.83 1.97h12.5l7.5 2.53 5.25 8.5v9.83l-1.91 4.17-3.84 4.05-6.33 1.95h-58.83v-33z"/><path class="cls-4" d="M328.11 603.85l-3.62-3.45c7.08-7.41 14.91-11.87 23.28-13.24a39 39 0 0112.74.21c3.55.49 6.9 1 11.14.06 7.12-1.51 13.82-6.33 19.91-14.32l4 3c-6.83 9-14.52 14.41-22.84 16.18-5.09 1.08-9 .53-12.87 0a34.51 34.51 0 00-11.25-.23c-7.29 1.22-14.18 5.18-20.49 11.79zm143.7 0l3.62-3.45c-7.08-7.41-14.91-11.87-23.28-13.24a39 39 0 00-12.74.21c-3.55.49-6.9 1-11.14.06-7.12-1.51-13.82-6.33-19.91-14.32l-4 3c6.83 9 14.52 14.41 22.84 16.18 5.09 1.08 9 .53 12.87 0a34.51 34.51 0 0111.25-.23c7.29 1.22 14.18 5.18 20.49 11.79z" id="details"/></g><g id="socks"><g id="socks-2" data-name="socks"><path id="left-2" data-name="left" class="cls-5" d="M349.88 526h45.67v48.04h-45.67z"/><path id="right-2" data-name="right" class="cls-5" d="M404.38 526h45.67v48.04h-45.67z"/></g><g id="details-2" data-name="details"><path class="cls-6" d="M351.25 527.31h5.37v9.88h-5.37z"/><path class="cls-7" d="M356.61 527.31h5.37v9.88h-5.37z"/><path class="cls-6" d="M361.98 527.31h5.37v9.88h-5.37z"/><path class="cls-7" d="M367.34 527.31h5.37v9.88h-5.37z"/><path class="cls-6" d="M372.71 527.31h5.37v9.88h-5.37z"/><path class="cls-7" d="M378.07 527.31h5.37v9.88h-5.37z"/><path class="cls-6" d="M383.44 527.31h5.37v9.88h-5.37z"/><path class="cls-7" d="M388.81 527.31h5.37v9.88h-5.37z"/><path class="cls-6" d="M405.75 527.31h5.37v9.88h-5.37z"/><path class="cls-7" d="M411.12 527.31h5.37v9.88h-5.37z"/><path class="cls-6" d="M416.48 527.31h5.37v9.88h-5.37z"/><path class="cls-7" d="M421.85 527.31h5.37v9.88h-5.37z"/><path class="cls-6" d="M427.21 527.31h5.37v9.88h-5.37z"/><path class="cls-7" d="M432.58 527.31h5.37v9.88h-5.37z"/><path class="cls-6" d="M437.94 527.31h5.37v9.88h-5.37z"/><path class="cls-7" d="M443.31 527.31h5.37v9.88h-5.37z"/></g></g><g id="shorts"><path id="shorts-2" data-name="shorts" class="cls-4" d="M341.67 446.54h116.49v47a9.95 9.95 0 01-9.95 9.95h-96.6a9.95 9.95 0 01-9.95-9.95v-47z"/></g><g id="shirt"><path id="shirt-2" data-name="shirt" class="cls-6" d="M369.5 318.8l-48.29 2.99-11.36 6.25-6.83 10.1-3.31 40.73 5.17 7.67 7.66 4.67h29.5l.17 54h114.83v-53.5l29.34-.17 7.01-4 6.99-10.5-3.4-37.33-6.83-11.84-9.77-6.08-49.84-2.99-1 21.24-6.5 6.5-11.16 3.48-11.88 2.02-15.46-3.17-11-5.66-3.66-3.84-.38-20.57z"/><g id="details-3" data-name="details"><path id="nike" class="cls-7" d="M371.81 367.89c0 1.19-1.57 2.17-3.49 2.17h-9.26c-1.92 0-3.49-1-3.49-2.17s1.57-2.17 3.49-2.17h9.26c1.92 0 3.49.98 3.49 2.17z"/><path id="neck" class="cls-7" d="M430.44 320.21l-1.32 20.26-10.33 7-18.75 4-18.75-4-10.33-7-1.32-20.26-6-.57v18.3c0 5.41 4.18 9.08 8.85 11.8 6.15 3.57 15.73 6.78 27.56 8.49 11.83-1.71 21.41-4.92 27.56-8.49 4.67-2.72 8.85-6.39 8.85-11.8v-18.3z"/><path id="chest-line" class="cls-7" d="M432.65 330.48l-.21 3c.34 0 34.25 2.68 33.94 24.32-.17 12-3 17.21-5.29 19.43a5.74 5.74 0 01-3.43 1.75 9.42 9.42 0 00-8 1.15c-4.22 2.89-6.32 9.41-6.25 19.37.13 19 .16 40.48.17 44.39h-86.95c0-3.9 0-25.41.17-44.39.07-10-2-16.48-6.25-19.37a9.42 9.42 0 00-8-1.15 5.74 5.74 0 01-3.43-1.75c-2.32-2.22-5.12-7.4-5.29-19.43-.31-21.64 33.6-24.29 33.94-24.32l-.21-3c-.37 0-37.08 2.88-36.73 27.35.15 10.64 2.3 17.94 6.37 21.7a8.08 8.08 0 005.68 2.44h.23l.22-.09a6.39 6.39 0 015.55.72c2.3 1.58 5 5.79 4.95 16.88-.17 23.73-.17 45.79-.17 45.91v1.5h92.91v-1.5c0-.12 0-22.18-.17-45.91-.08-11.09 2.65-15.3 4.95-16.87a6.39 6.39 0 015.55-.72l.22.09h.23a8.08 8.08 0 005.68-2.44c4.08-3.76 6.22-11.06 6.37-21.7.32-24.48-36.4-27.33-36.75-27.36z"/><path id="arm-r" class="cls-7" d="M487 389.47l-2.34-12.12a.72.72 0 011.18-.67l9.51 8.43-2.93 3.83 1-.1z"/><path id="arm-r-2" data-name="arm-r" class="cls-7" d="M312.93 389.47l2.34-12.12a.72.72 0 00-1.18-.67l-9.51 8.43 2.93 3.83-1-.1z"/><g id="crest-hsv"><rect class="cls-5" x="422.39" y="363.14" width="18.74" height="14.48" rx="3.46" ry="3.46"/><path class="cls-6" d="M437.66 363.14a3.46 3.46 0 013.46 3.46v7.55a3.46 3.46 0 01-3.46 3.46h-11.8a3.46 3.46 0 01-3.46-3.46v-7.55a3.46 3.46 0 013.46-3.46h11.81m0-1.3h-11.81a4.77 4.77 0 00-4.76 4.76v7.55a4.77 4.77 0 004.76 4.76h11.81a4.77 4.77 0 004.76-4.76v-7.55a4.77 4.77 0 00-4.76-4.76z"/><rect class="cls-6" x="428.46" y="367.08" width="6.6" height="6.6" rx="1.45" ry="1.45" transform="rotate(-45.8 431.762 370.384)"/><rect class="cls-7" x="430.13" y="368.75" width="3.26" height="3.26" rx=".9" ry=".9" transform="rotate(-45.8 431.762 370.384)"/></g><g id="asset-captain-band-two-colour"><path fill="#e7e975" d="M457.19 371.74h42.82V382h-42.82z"/><path d="M461.9 361.47H500v10.26h-42.81v-5.55a4.71 4.71 0 014.71-4.71z" fill="#4eb2e5"/></g><g clip-path="url(#clip-path)" id="logo-bundasliga"><path class="cls-6" transform="rotate(-82.5 303.319 359.775)" d="M298.09 355.94h12.88v6.95h-12.88z"/><g clip-path="url(#clip-path-2)"><path class="cls-12" d="M307.86 353.58c.43.06.71.61.62 1.24l-1.35 10.06c-.08.62-.5 1.08-.93 1l-5-.68c-.43-.06-.71-.61-.62-1.24l1.35-10.06c.08-.62.5-1.08.93-1l5 .68m.11-.81l-5-.68c-.74-.1-1.45.69-1.6 1.76L300 363.91c-.14 1.07.34 2 1.07 2.12l5 .68c.74.1 1.45-.69 1.6-1.76l1.33-10.06c.14-1.07-.34-2-1.07-2.12"/><path class="cls-12" d="M306.48 362.37l-4.65-.63c-.28 0-.46-.39-.4-.8s.32-.7.6-.66l4.65.63c.28 0 .46.39.4.8s-.32.7-.6.66m-.58 2.63l-4.23-.57c-.39-.05-.65-.56-.57-1.14s.46-1 .85-.95l4.23.57c.39.05.65.56.57 1.14s-.46 1-.85.94"/><path d="M306.53 360.06l-4.14-.56c-.42-.06-.69-.6-.61-1.2l.47-3.53c.08-.61.49-1.06.9-1l4.14.56c.42.06.69.6.61 1.2l-.47 3.53c-.08.61-.49 1.06-.9 1" fill="#ed1e24"/><path class="cls-6" d="M305.67 357c-.09.67-.53 1.16-1 1.09s-.75-.65-.66-1.32.53-1.16 1-1.09.75.65.67 1.32"/></g></g><g id="sponsor-adig"><rect class="cls-7" x="374.84" y="387.16" width="50.32" height="15.61" rx="7.8" ry="7.8"/><path d="M386.5 412.59a1 1 0 001.69 0 4 4 0 00.16-4.22 1 1 0 00-1.68-.17l-1.31 1.53a1 1 0 000 1.28z" fill="#c12128"/><path d="M385 409.11l1.61-1.87a4 4 0 00-6.57 2.12 4 4 0 006.34 4.2l-1.46-2a2 2 0 01.08-2.45z" fill="#6d6e71"/><rect class="cls-7" x="391.42" y="408.26" width="28.62" height="4.09" rx="2.05" ry="2.05"/></g></g></g><path id="neck-2" data-name="neck" fill="#cea28b" d="M427.63 344.26l-27.59 8.62-28.6-9.62-1.92-23.62h61.04l-2.93 24.62z"/><path d="M502.88 372.43l-2.47-30.36c-1.19-11.87-11.83-22.25-23.72-23.14l-37.14-2.71c-4.07-.45-20.52-.09-39.55.53-19-.62-35.48-1-39.55-.53l-37.14 2.71c-11.89.89-22.53 11.27-23.72 23.14l-2.47 30.36a20.15 20.15 0 005 15.74 19.92 19.92 0 001.69 1.64v66.36c0 12.81 9.32 23.22 20.78 23.22a19.8 19.8 0 0015.25-7.39v21.79a12.23 12.23 0 007.74 11.36v68h-5.93c-10.93 0-19.83 5.8-19.83 17.11 0 8.06 0 17 11.72 19.7v1.6a1.38 1.38 0 001.38 1.38h1.63a1.38 1.38 0 001.38-1.37v-.95c1.16.09 2.39.15 3.73.15h1.89v.8a1.38 1.38 0 001.38 1.38h1.63a1.38 1.38 0 001.38-1.37v-.8h5.62v.8a1.38 1.38 0 001.38 1.38h1.63a1.38 1.38 0 001.38-1.37v-.8h5.62v.8a1.38 1.38 0 001.38 1.38h1.63a1.38 1.38 0 001.38-1.37v-.8h5.62v.8a1.38 1.38 0 001.38 1.38h1.63a1.38 1.38 0 001.38-1.37v-.8h5.62v.8a1.38 1.38 0 001.38 1.38h1.63a1.38 1.38 0 001.38-1.37v-.8h5.62v.8a1.38 1.38 0 001.38 1.38h1.63a1.38 1.38 0 001.38-1.37v-.81l.06-55.45V506h4v49.21l.06 54.67v1.6a1.38 1.38 0 001.38 1.38h1.63a1.38 1.38 0 001.38-1.37v-.8h5.62v.8a1.38 1.38 0 001.38 1.38h1.63a1.38 1.38 0 001.38-1.37v-.8h5.62v.8a1.38 1.38 0 001.38 1.38h1.63a1.38 1.38 0 001.38-1.37v-.8h5.62v.8a1.38 1.38 0 001.38 1.38h1.63a1.38 1.38 0 001.38-1.37v-.8h5.62v.8a1.38 1.38 0 001.38 1.38h1.63a1.38 1.38 0 001.38-1.37v-.8h5.62v.8a1.38 1.38 0 001.38 1.38h1.63a1.38 1.38 0 001.38-1.37v-.8h1.89c1.33 0 2.57-.05 3.72-.15v.95a1.38 1.38 0 001.38 1.38h1.63a1.38 1.38 0 001.38-1.37v-1.6c11.71-2.68 11.72-11.64 11.72-19.7 0-11.3-8.89-17.11-19.83-17.11h-5.93v-68a12.23 12.23 0 007.74-11.36V472a19.8 19.8 0 0015.21 7.42c11.46 0 20.78-10.42 20.78-23.22v-66.39a19.92 19.92 0 001.69-1.64 20.15 20.15 0 004.95-15.74zm-130.49-46.18c3.46 1.84 15.64 2.07 27.61 1.79 12 .28 24.15 0 27.61-1.79V338c0 4.8-22.42 12-27.23 12l-.38-.08-.38.08c-4.8 0-27.23-7.19-27.23-12zm-33 75.43v55c0 9.5-6.63 17.22-14.78 17.22s-14.78-7.73-14.78-17.22V393.9a21.08 21.08 0 007.47 1.36h22.09zm52.9 203.42h-50.64c-14.22 0-14.22-5-14.22-14.89 0-8.21 6.38-11.5 14.22-11.5h11.67l38.93-2.71.06 15.37zm-38.74-76.4h38.67v41.7l-38.67 2.68h-.26V528.7zm-.26-5.74V506h38.94v17h-38.91zm104.77 55.75h.26c7.84 0 14.22 3.29 14.22 11.5 0 9.91 0 14.89-14.22 14.89h-50.64v-13.7l.06-15.37 38.93 2.69h11.42zm-11.67-50h.26v44.4h-.26l-38.67-2.68V528.7zM407.75 523v-17h38.95v17h-38.95zm46.84-73.77h-.07v44.58a6.6 6.6 0 01-6.58 6.58H403s-.11-3.73-.16-8.75v-2.79c0-3.51-1.41-5.09-2.82-5-1.41-.09-2.82 1.49-2.82 5v2.79c0 5-.16 8.75-.16 8.75H352.1a6.6 6.6 0 01-6.58-6.58v-44.63h-.07v-.33l30.24.33h48.69l30.24-.33zm35.57 7.51c0 9.5-6.63 17.22-14.78 17.22s-14.78-7.73-14.78-17.22v-61.48h22.09a21.08 21.08 0 007.47-1.36zm6-77.21a13.53 13.53 0 01-6 7.29 14.69 14.69 0 01-7.47 2l-22.09.09v-20.19c0-5.56-6.07-5.94-6.07 0s.07 14.37.07 14.37v59.59H345.41v-59.61s.07-8.46.07-14.37-6.07-5.54-6.07 0v20.11l-22.09-.09a14.69 14.69 0 01-7.47-2 13.53 13.53 0 01-6-7.29 14.89 14.89 0 01-.75-6.46l2.47-30.36c.89-9 9.23-17.08 18.2-17.75l11.12-.83 32.22-2.29c.68.54.48 17.49.48 17.49 0 8.43 23.34 15.29 31.77 15.29h1.3c8.43 0 31.77-6.86 31.77-15.29 0 0-.2-16.95.48-17.49l32.22 2.29 11.12.83c9 .67 17.3 8.8 18.2 17.75L496.9 373a14.89 14.89 0 01-.75 6.48z" id="border"/><g id="head"><path d="M403.17 194a23.35 23.35 0 013.66.35 14.29 14.29 0 013.16-.29 58.28 58.28 0 0113.43 2c2.88.88 8.16 11.17 12 12.67s6.63 10.88 9.25 14.13 5.13 12 5.38 14.88 2.25 4.75 1.5 11.38c-.34 3-1.27 3.82-2.18 3.82a2.31 2.31 0 01-1.12-.34 5.06 5.06 0 01-.54 1.77 23.41 23.41 0 01-5.82 7s-4.6-22.58-5.49-27.75-2.56-11.83-3.73-11.83-25.87-1.66-32.62-2c0 0-31.5 2-32.66 2s-2.83 6.67-3.73 11.83c-.83 4.78-4.61 27.29-6.91 27.29-.19 0-.36-.15-.53-.46-.3-.56-4.33-7.19-4.41-7.81a2.31 2.31 0 01-1.12.34c-.92 0-1.84-.82-2.18-3.82-.75-6.62 1.25-8.5 1.5-11.37s2.75-11.62 5.38-14.87 4.19-13.61 7.5-16.12a66.14 66.14 0 0115.63-8.25c2.58-.78 9-4.28 13.32-4.28a6.25 6.25 0 011.43.15A23.34 23.34 0 01397 194c1.45 0 2.83.23 3.11 1.05.28-.82 1.66-1.05 3.11-1.05m0-6a13.85 13.85 0 00-3.11.33A13.85 13.85 0 00397 188a27.75 27.75 0 00-3.65.27 13.09 13.09 0 00-1.44-.08c-4.31 0-9.1 2-12.6 3.53-1 .41-2 .87-2.47 1a71.1 71.1 0 00-17.5 9.21c-3.32 2.52-4.85 7-6.47 11.83a33 33 0 01-2.09 5.33c-3.76 4.65-6.38 14.8-6.67 18.1a9 9 0 01-.38 1.37 24 24 0 00-1.1 11.2c.65 5.72 3.37 7.89 5.58 8.69.54.93 1.2 2.06 2 3.46l.77 1.31a6.56 6.56 0 005.81 3.62c5.13 0 6.84-5.25 7.56-7.49.67-2.06 1.37-4.79 2.15-8.36 1.33-6.07 2.5-12.88 3-15.79l.11-.63a71 71 0 011.56-7c6.51-.38 20-1.22 29-1.79 3.74.19 12.06.72 19.42 1.19l9.41.59a70.94 70.94 0 011.57 7.05c.9 5.19 5.33 27 5.52 27.92a6 6 0 009.51 3.58 29.52 29.52 0 006.86-7.8c2.12-.93 4.52-3.17 5.13-8.51a24 24 0 00-1.1-11.2 9 9 0 01-.38-1.37c-.29-3.3-2.91-13.45-6.68-18.13a32.62 32.62 0 01-2.25-4.19c-2.35-4.82-4.77-9.81-9.3-11.68-1-.7-3.06-3.46-4.32-5.12-2.86-3.79-5.11-6.79-8.34-7.77a64.2 64.2 0 00-15.22-2.26 22.8 22.8 0 00-3.24.21 27.62 27.62 0 00-3.58-.26z" fill="#231f20"/><path id="skin-2" data-name="skin" class="cls-2" d="M446.38 257.1c0-.91.08-1.81.08-2.73 0-30.51-21.06-55.25-47-55.25s-47 24.74-47 55.25c0 1.11 0 2.21.1 3.31-4 2.46-6.9 8.44-6.9 15.43 0 9.19 4.93 16.64 11 16.64a7.47 7.47 0 002.1-.31c.82 24.5 18.74 44.08 40.73 44.08s40.12-19.81 40.74-44.5a7.65 7.65 0 003.25.74c6.08 0 11-7.45 11-16.64-.05-7.65-3.48-14.06-8.1-16.02z"/><path id="border-2" data-name="border" d="M446.38 257.1c0-.91.08-1.81.08-2.73 0-30.51-21.06-55.25-47-55.25s-47 24.74-47 55.25c0 1.11 0 2.21.1 3.31-4 2.46-6.9 8.44-6.9 15.43 0 9.19 4.93 16.64 11 16.64a7.47 7.47 0 002.1-.31c.82 24.5 18.74 44.08 40.73 44.08s40.12-19.81 40.74-44.5a7.65 7.65 0 003.25.74c6.08 0 11-7.45 11-16.64-.05-7.65-3.48-14.06-8.1-16.02z" stroke="#231f20" stroke-linecap="round" stroke-linejoin="round" stroke-width="6" fill="none"/><path d="M450.08 237.75c-.25-2.87-2.75-11.62-5.37-14.87s-5.37-12.62-9.25-14.12-9.16-11.79-12-12.67-12.34-2.71-16.59-1.71c0 0-6.15-1.13-6.77.7-.62-1.84-6.77-.7-6.77-.7-4.25-1-11.87 3.25-14.75 4.13a66.14 66.14 0 00-15.62 8.25c-3.31 2.51-4.87 12.88-7.5 16.13s-5.12 12-5.37 14.88-2.25 4.75-1.5 11.38c.48 4.28 2.17 4.12 3.3 3.48.07.62 4.11 7.25 4.41 7.81 2.2 4.21 6.55-21.67 7.44-26.83s5.56-16.83 6.73-16.83 29.66 3 29.66 3c6.75.33 28.46-2 29.62-2s5.83 10.67 6.73 15.83 5.49 27.75 5.49 27.75a23.41 23.41 0 005.82-7 5.06 5.06 0 00.54-1.77c1.13.65 2.82.8 3.3-3.48.7-6.61-1.3-8.49-1.55-11.36z" fill="#e2d799"/></g></svg>