<svg id="player" xmlns="http://www.w3.org/2000/svg" viewBox="0 0 800 800"><defs><style>.cls-1{fill:#b6886a}.cls-2{fill:#414042}.cls-3{fill:#fff}.cls-4{fill:#262626}.cls-7{fill:#28367e}.cls-11{fill:#231f20}</style></defs><g id="skin"><path id="arm-left" class="cls-1" d="M305.93 399h36.78v72.38a18.39 18.39 0 01-18.39 18.39 18.39 18.39 0 01-18.39-18.39V399z"/><path id="arm-right" class="cls-1" d="M457.19 399H494v72.38a18.39 18.39 0 01-18.39 18.39 18.39 18.39 0 01-18.39-18.39V399h-.03z"/><path id="leg-left" class="cls-1" d="M349.88 496.25h45.67v58.41h-45.67z"/><path id="leg-right" class="cls-1" d="M404.78 496.25h45.67v58.41h-45.67z"/></g><g id="boots"><path id="left" class="cls-2" d="M395.54 575.09h-22.83l-22.83 1.97h-12.5l-7.5 2.53-5.25 8.5v9.83l1.91 4.17 3.84 4.05 6.33 1.95h58.83v-33z"/><path id="right" class="cls-2" d="M404.67 575.09h22.83l22.83 1.97h12.5l7.5 2.53 5.25 8.5v9.83l-1.91 4.17-3.84 4.05-6.33 1.95h-58.83v-33z"/><path class="cls-3" d="M326.35 599a2.36 2.36 0 01-2-1.21 2.57 2.57 0 01.81-3.43 40.25 40.25 0 0112.21-5.21c8-1.91 14.47-.64 19.67.38 1.47.29 2.86.56 4.19.75 9.44 1.33 19.82-1.15 30.85-7.39a2.32 2.32 0 013.22 1 2.56 2.56 0 01-1 3.39c-11.93 6.75-23.29 9.43-33.74 7.94-1.45-.21-2.9-.49-4.43-.79-5-1-10.7-2.1-17.74-.42a35.67 35.67 0 00-10.8 4.62 2.28 2.28 0 01-1.24.37zm147.51 0a2.36 2.36 0 002-1.21 2.57 2.57 0 00-.81-3.43 40.25 40.25 0 00-12.21-5.21c-8-1.91-14.47-.64-19.67.38-1.47.29-2.86.56-4.19.75-9.44 1.33-19.82-1.15-30.85-7.39a2.32 2.32 0 00-3.22 1 2.56 2.56 0 001 3.39c11.93 6.75 23.29 9.43 33.74 7.94 1.45-.21 2.9-.49 4.43-.79 5-1 10.7-2.1 17.74-.42a35.67 35.67 0 0110.8 4.62 2.28 2.28 0 001.24.37z" id="details"/></g><g id="socks"><path id="left-2" data-name="left" class="cls-3" d="M349.88 527.91h45.67v48.04h-45.67z"/><path id="right-2" data-name="right" class="cls-3" d="M404.38 527.91h45.67v48.04h-45.67z"/></g><path id="shorts" class="cls-4" d="M341.67 458.66h116.49v28.55a9.8 9.8 0 01-9.8 9.8h-96.88a9.8 9.8 0 01-9.8-9.8v-28.55h-.01z"/><g id="shirt"><path id="shirt-2" data-name="shirt" class="cls-3" d="M369.5 331.77l-48.29 2.99-11.36 6.25-6.83 10.1-3.31 40.73 5.17 7.67 7.66 4.66h29.5l.17 54h114.83v-53.5l29.34-.16 7.01-4 6.99-10.5-3.4-37.34-6.83-11.83-9.77-6.08-49.84-2.99-1 21.24-6.5 6.5-11.16 3.48-11.88 2.02-15.46-3.17-11-5.67-3.66-3.83-.38-20.57z"/><path id="neck" class="cls-3" d="M429.65 330.69l.26 8-1.75 18.5-13.16 4.37-15 5.61-15-5.61-13.19-4.37-1.75-18.5.26-8-8.6 1.56v21.38a13.36 13.36 0 006.54 11.5c.65.38 1.34.77 2.06 1.17a118.79 118.79 0 0021 8.73 49.06 49.06 0 008.63 1.91 40 40 0 008.63-1.91 118.79 118.79 0 0021-8.73c.72-.39 1.41-.78 2.06-1.17a13.36 13.36 0 006.54-11.5v-21.38z"/><g id="details-2" data-name="details"><path d="M353.21 457.5h-10.5v-33.59l-.79-18.83-.15-17.54a2.81 2.81 0 00-5.29-1.31l-10.23 19-16.41-2.71 19.52-47.83a12.38 12.38 0 0110.3-7.65 12.38 12.38 0 0113.54 12.33zm17.16-84.1v84.1h21v-77.8a3.65 3.65 0 00-2.51-3.47 124.19 124.19 0 01-14-5.66 3.13 3.13 0 00-4.49 2.83zm76.43 84.1h10.5v-33.59l.79-18.83.15-17.54a2.81 2.81 0 015.29-1.31l10.23 19 16.41-2.71-19.52-47.82a12.38 12.38 0 00-10.3-7.65 12.38 12.38 0 00-13.54 12.33zm-17.15-84.1v84.1h-21v-77.8a3.65 3.65 0 012.51-3.47 124.19 124.19 0 0014-5.66 3.13 3.13 0 014.49 2.83z" fill="#93c2df" id="chest"/><g id="crest-argentina-86"><path d="M429.6 385.62l.11.13z" fill="none"/><path class="cls-7" d="M429.59 385.52l.13.11zm9.09 3.69a3.3 3.3 0 00.37-1.51v-1.47a3.32 3.32 0 00-3.18-3.31l-5.16-.42h-2.12l-5.16.42a3.32 3.32 0 00-3.18 3.31v1.47a3.3 3.3 0 00.37 1.51 1.33 1.33 0 00-1.33 1.33v7.93a10.36 10.36 0 1020.72 0v-7.93a1.33 1.33 0 00-1.33-1.33zm-2.08-1.51a.85.85 0 01-.47.75l-.11.06v11a2.92 2.92 0 01-1.54 2.57l-4 2.15a1.78 1.78 0 01-.47.17h-.76a1.78 1.78 0 01-.47-.17l-4-2.15a2.92 2.92 0 01-1.54-2.57v-11l-.11-.06a.85.85 0 01-.47-.75v-1.47a.86.86 0 01.15-.48.87.87 0 01.23-.23.86.86 0 01.48-.15l5.23-.42h1.72l5.23.42a.86.86 0 01.48.15.87.87 0 01.23.23.86.86 0 01.15.48z"/><path d="M436.45 385.75a.87.87 0 00-.23-.23.86.86 0 00-.48-.15l-5.23-.42h-1.72l-5.23.42a.86.86 0 00-.48.15.87.87 0 00-.23.23.86.86 0 00-.15.48v1.47a.85.85 0 00.47.75l.11.06v11a2.92 2.92 0 001.54 2.57l4 2.15a1.85 1.85 0 001.7 0l4-2.15a2.92 2.92 0 001.54-2.57v-11l.11-.06a.85.85 0 00.47-.75v-1.47a.86.86 0 00-.19-.48z" fill="#ead552"/><rect class="cls-3" x="424.09" y="387" width="11.12" height="2.45" rx="1.23" ry="1.23"/><rect x="424.9" y="390.72" width="9.51" height="10.39" rx="4.47" ry="4.47" fill="#121939"/></g><g id="brand-le-coq"><path class="cls-4" d="M370.34 387a1.43 1.43 0 011.26.74l5.72 10.3a1.45 1.45 0 01-1.26 2.15h-11.44a1.45 1.45 0 01-1.26-2.15l5.72-10.3a1.43 1.43 0 011.26-.74m0-1.84a3.28 3.28 0 00-2.87 1.69l-5.72 10.3a3.28 3.28 0 002.87 4.88h11.44a3.28 3.28 0 002.87-4.88l-5.72-10.3a3.28 3.28 0 00-2.87-1.69z"/><rect class="cls-4" x="361.38" y="403.88" width="18.01" height="3.33" rx="1.67" ry="1.67"/><ellipse class="cls-4" cx="370.34" cy="395.45" rx="3.31" ry="3.66"/></g><g id="asset-captain-band-c"><path class="cls-7" d="M462.06 368.93a4.68 4.68 0 00-4.87 4.47v16.06h42v-20.53z"/><path class="cls-3" d="M483.36 375a1.14 1.14 0 01.25.69 1.16 1.16 0 01-1.2 1.13 1.26 1.26 0 01-.92-.41 3.39 3.39 0 00-2.42-1.13 3.87 3.87 0 000 7.73 3.27 3.27 0 002.42-1.11 1.31 1.31 0 011-.41 1.12 1.12 0 011.15 1.09 1 1 0 01-.25.69 5.28 5.28 0 01-4.27 2 6.09 6.09 0 110-12.18 5.34 5.34 0 014.24 1.91z"/></g></g></g><path id="neck-2" data-name="neck" fill="#9b725c" d="M430.54 354.75l-31.19 12.79-29.85-12.79v-22.98h61.04v22.98z"/><path d="M502.88 385.39L500.41 355c-1.19-11.87-11.83-22.25-23.72-23.14l-37.14-2.71c-4.07-.45-20.52-.09-39.55.53-19-.62-35.48-1-39.55-.53l-37.14 2.71c-11.89.89-22.53 11.27-23.72 23.14l-2.47 30.36a20.15 20.15 0 005 15.74 19.92 19.92 0 001.69 1.64v66.36c0 12.81 9.32 23.22 20.78 23.22a19.8 19.8 0 0015.21-7.42v-.65 2.22a12.23 12.23 0 007.74 11.36v76.26h-5.93c-10.93 0-19.83 5.8-19.83 17.11 0 8.06 0 17 11.72 19.7v1.6a1.38 1.38 0 001.38 1.38h1.63a1.38 1.38 0 001.38-1.37v-.95c1.16.09 2.39.15 3.73.15h1.89v.8a1.38 1.38 0 001.38 1.38h1.63a1.38 1.38 0 001.38-1.37v-.8h5.62v.8a1.38 1.38 0 001.38 1.38h1.63a1.38 1.38 0 001.38-1.37v-.8h5.62v.8a1.38 1.38 0 001.38 1.38h1.63a1.38 1.38 0 001.38-1.37v-.8h5.62v.8a1.38 1.38 0 001.38 1.38h1.63a1.38 1.38 0 001.38-1.37v-.8h5.62v.8a1.38 1.38 0 001.38 1.38h1.63a1.38 1.38 0 001.38-1.37v-.8h5.62v.8a1.38 1.38 0 001.38 1.38h1.63a1.38 1.38 0 001.38-1.37v-.81l.06-55.45v-57.53h4v57.49l.06 54.67v1.6a1.38 1.38 0 001.38 1.38h1.63a1.38 1.38 0 001.38-1.37v-.8h5.62v.8a1.38 1.38 0 001.38 1.38h1.63a1.38 1.38 0 001.38-1.37v-.8h5.62v.8a1.38 1.38 0 001.38 1.38h1.63a1.38 1.38 0 001.38-1.37v-.8h5.62v.8a1.38 1.38 0 001.38 1.38h1.63a1.38 1.38 0 001.38-1.37v-.8h5.62v.8a1.38 1.38 0 001.38 1.38h1.63a1.38 1.38 0 001.38-1.37v-.8h5.62v.8a1.38 1.38 0 001.38 1.38h1.63a1.38 1.38 0 001.38-1.37v-.8h1.89c1.33 0 2.57-.05 3.72-.15v.95a1.38 1.38 0 001.38 1.38h1.63a1.38 1.38 0 001.38-1.37v-1.6c11.71-2.68 11.72-11.64 11.72-19.7 0-11.3-8.89-17.11-19.83-17.11h-5.93v-76.33a12.23 12.23 0 007.74-11.36v-2.22.65a19.8 19.8 0 0015.21 7.42c11.46 0 20.78-10.42 20.78-23.22v-66.36a19.92 19.92 0 001.69-1.64 20.15 20.15 0 004.99-15.75zm-130.49-46.17c3.46 1.84 15.64 2.07 27.61 1.79 12 .28 24.15 0 27.61-1.79V351c0 4.8-22.42 12-27.23 12l-.38-.08-.38.08c-4.8 0-27.23-7.19-27.23-12zm-33 75.43v55c0 9.5-6.63 17.22-14.78 17.22s-14.78-7.73-14.78-17.22v-62.78a21.08 21.08 0 007.47 1.36h22.09zm52.9 191.48h-50.64c-14.22 0-14.22-5-14.22-14.89 0-8.21 6.38-11.5 14.22-11.5h11.67l38.93-2.74.06 15.37zm-38.74-76.4h38.67v41.71l-38.67 2.68h-.26v-44.4zm-.26-5.74v-25.26h38.94V524h-38.91zm104.77 55.75h.26c7.84 0 14.22 3.29 14.22 11.5 0 9.91 0 14.89-14.22 14.89h-50.64v-13.7l.06-15.37 38.93 2.69h11.42zm-11.67-50h.26v44.4h-.26l-38.67-2.68v-41.73zM407.75 524v-25.22h38.95V524h-38.95zm46.84-61.84h-.07v24.35a6.6 6.6 0 01-6.58 6.58h-1.26L403 493s-.11-3.73-.16-8.75v-2.79c0-3.51-1.41-5.09-2.82-5-1.41-.09-2.82 1.49-2.82 5v2.79c0 5-.16 8.75-.16 8.75H352.1a6.6 6.6 0 01-6.58-6.58v-24.27h-.07v-.33l30.24.33h48.69l30.24-.33zm35.57 7.51c0 9.5-6.63 17.22-14.78 17.22s-14.78-7.73-14.78-17.22v-61.44h22.09a21.08 21.08 0 007.47-1.36zm6-77.21a13.53 13.53 0 01-6 7.29 14.69 14.69 0 01-7.47 2l-22.09.09v-20.15c0-5.56-6.07-5.94-6.07 0s.07 14.37.07 14.37v59.59H345.41V396s.07-8.46.07-14.37-6.07-5.54-6.07 0v20.17l-22.09-.09a14.69 14.69 0 01-7.47-2 13.53 13.53 0 01-6-7.29 14.89 14.89 0 01-.75-6.46l2.47-30.36c.89-9 9.23-17.08 18.2-17.75l11.12-.83 32.22-2.29c.68.54.48 17.49.48 17.49 0 8.43 23.34 15.29 31.77 15.29h1.3c8.43 0 31.77-6.86 31.77-15.29 0 0-.2-16.95.48-17.49l32.22 2.29 11.12.83c9 .67 17.3 8.8 18.2 17.75l2.45 30.4a14.89 14.89 0 01-.75 6.45z" id="border"/><g id="head"><path class="cls-11" d="M452.4 249s17.46 4.63 4.43 33.75c0 0 5.33 11.75-1.95 20.85 0 0 5.38 9.21-8.77 15.72 0 0-.64 10.59-15.87 7.94 0 0-17.88-6.45-19.37-30.28s-6.29-29.45 8.27-39S452.4 249 452.4 249zm-104.79 0s-17.46 4.63-4.43 33.75c0 0-5.33 11.75 1.95 20.85 0 0-5.38 9.21 8.77 15.72 0 0 .64 10.59 15.87 7.94 0 0 17.88-6.45 19.37-30.28s6.29-29.45-8.27-39-33.26-8.98-33.26-8.98z"/><path id="skin-2" data-name="skin" class="cls-1" d="M446.38 270.07c0-.91.08-1.81.08-2.73 0-30.51-21.06-55.25-47-55.25s-47 24.74-47 55.25c0 1.11 0 2.21.1 3.31-4 2.46-6.9 8.44-6.9 15.43 0 9.19 4.93 16.64 11 16.64a7.47 7.47 0 002.1-.31c.82 24.5 18.74 44.08 40.73 44.08s40.12-19.81 40.74-44.5a7.65 7.65 0 003.25.74c6.08 0 11-7.45 11-16.64-.05-7.65-3.48-14.09-8.1-16.02z"/><path id="border-2" data-name="border" d="M446.38 270.07c0-.91.08-1.81.08-2.73 0-30.51-21.06-55.25-47-55.25s-47 24.74-47 55.25c0 1.11 0 2.21.1 3.31-4 2.46-6.9 8.44-6.9 15.43 0 9.19 4.93 16.64 11 16.64a7.47 7.47 0 002.1-.31c.82 24.5 18.74 44.08 40.73 44.08s40.12-19.81 40.74-44.5a7.65 7.65 0 003.25.74c6.08 0 11-7.45 11-16.64-.05-7.65-3.48-14.09-8.1-16.02z" stroke="#231f20" stroke-linecap="round" stroke-linejoin="round" stroke-width="6" fill="none"/><path class="cls-11" d="M463.79 249.65c3-23.55-13.66-29.36-13.66-29.36-4.51-19.62-19.57-16.09-19.57-16.09-6.44-15.75-22.09-6.88-22.09-6.88-8.43-5.09-8.44 1.73-8.44 1.73s0-6.82-8.44-1.73c0 0-15.65-8.87-22.09 6.88 0 0-15.07-3.54-19.57 16.09 0 0-16.66 5.81-13.66 29.36 0 0-5.38 10.76 5.23 23.55l7.26 1.25c8.33 0 8.68-3.17 11-6.43 4.29-6.09 10.48-17.19 11.23-31.36 0 0 17.85 3 29.08.71 11.23 2.31 29.08-.71 29.08-.71a65.52 65.52 0 0011.37 33 8.26 8.26 0 006.81 3.57h11.28c10.56-12.82 5.18-23.58 5.18-23.58z"/></g></svg>