<svg id="player" xmlns="http://www.w3.org/2000/svg" viewBox="0 0 800 800"><defs><style>.cls-1{fill:#8e572a}.cls-2{fill:#be1e2d}.cls-4{fill:#fff}.cls-5{fill:#fcc80d}.cls-6{fill:#ef4823}.cls-7{fill:#007b3f}.cls-9{fill:#262626}</style></defs><g id="skin"><path id="arm-left" class="cls-1" d="M305.93 382h36.78v72.4a18.39 18.39 0 01-18.39 18.39 18.39 18.39 0 01-18.39-18.39V382z"/><path id="arm-right" class="cls-1" d="M457.19 382H494v72.4a18.39 18.39 0 01-18.39 18.39 18.39 18.39 0 01-18.39-18.39V382h-.03z"/><path id="leg-left" class="cls-1" d="M349.88 492.02h45.67v45.67h-45.67z"/><path id="leg-right" class="cls-1" d="M404.78 492.02h45.67v45.67h-45.67z"/></g><g id="boots"><path id="left" class="cls-2" d="M395.33 570.04H372.5l-22.83 1.97h-12.5l-7.5 2.53-5.25 8.5v9.83l1.91 4.17 3.84 4.05 6.33 1.95h58.83v-33z"/><path id="right" class="cls-2" d="M404.61 570.27h22.83l22.83 1.97h12.5l7.5 2.53 5.25 8.5v9.83l-1.91 4.17-3.84 4.05-6.33 1.95h-58.83v-33z"/><path d="M395.33 590.75s-27.16 5-38.19-17.5c0 0-30.3-5.85-17.12 9.75 12.48 14.78 11.41 21.53 33.53 21.28s21.78-1 21.78-1zm9.28 0s27.16 5 38.19-17.5c0 0 30.3-5.85 17.13 9.75-12.48 14.78-11.41 21.53-33.53 21.28s-21.78-1-21.78-1z" fill="#e6e7e8" id="details"/></g><g id="socks"><g id="socks-2" data-name="socks"><path id="left-2" data-name="left" class="cls-4" d="M349.88 522h45.67v48.04h-45.67z"/><path id="right-2" data-name="right" class="cls-4" d="M404.38 522h45.67v48.04h-45.67z"/></g><g id="details-2" data-name="details"><path class="cls-5" d="M350.42 521.83h44.91v7.75h-44.91z"/><path class="cls-6" d="M350.42 529.58h44.91v7.75h-44.91z"/><path class="cls-5" d="M404.76 521.83h44.91v7.75h-44.91z"/><path class="cls-6" d="M404.76 529.58h44.91v7.75h-44.91z"/></g></g><g id="shorts"><path id="shorts-2" data-name="shorts" class="cls-4" d="M341.67 442.54h116.49v47a9.95 9.95 0 01-9.95 9.95h-96.6a9.95 9.95 0 01-9.95-9.95v-47h.01z"/><path class="cls-7" d="M342.71 453.75s18.51 9.55 18.51 44.88h-10l-7.81-5zm114.48 0s-18.51 9.55-18.51 44.88h10l7.81-5z" id="details-3" data-name="details"/></g><g id="shirt"><path id="shirt-2" data-name="shirt" class="cls-4" d="M369.5 314.8l-48.29 2.99-11.36 6.25-6.83 10.1-3.31 40.73 5.17 7.67 7.66 4.67h29.5l.17 54h114.83v-53.5l29.34-.17 7.01-4 6.99-10.5-3.4-37.33-6.83-11.84-9.77-6.08-49.84-2.99-1 21.24-6.5 6.5-11.16 3.48-11.88 2.02-15.46-3.17-11-5.66-3.66-3.84-.38-20.57z"/><g id="details-4" data-name="details"><g id="arm-l"><path class="cls-7" d="M352.4 342.75l1.2-4.2a6.13 6.13 0 00-5.52-7.82c-9.42-.55-24.82-.32-29.26 6.35-9.88 14.85-15.07 42.7-15.07 42.7l6.83 6.47 11.74 1.5 17-15.5 5.17-23.37z"/><path class="cls-5" d="M346.31 354.25l6.1-11.5s-26.43-2.37-29.62 11.5c-4.69 20.41-8.5 32.25-8.5 32.25l16.13 1.25z"/><path class="cls-6" d="M345.15 441.37s22.24-47.62 2.15-89.12c0 0-5.62 1.06-11.84 9.43a28.85 28.85 0 00-4.12 7.94l-6 17.59h17.41z"/></g><g id="arm-l-2" data-name="arm-l"><path class="cls-7" d="M447.5 342.75l-1.2-4.2a6.13 6.13 0 015.52-7.82c9.42-.55 24.82-.32 29.26 6.35 9.88 14.85 15.07 42.7 15.07 42.7l-6.83 6.47-11.74 1.5-17-15.5-5.17-23.37z"/><path class="cls-5" d="M453.59 354.25l-6.1-11.5s26.43-2.37 29.63 11.5c4.69 20.41 8.5 32.25 8.5 32.25l-16.12 1.25z"/><path class="cls-6" d="M454.75 441.37s-22.24-47.62-2.15-89.12c0 0 5.62 1.06 11.84 9.43a28.85 28.85 0 014.12 7.94l6 17.59h-17.44z"/></g><path id="neck" class="cls-6" d="M429.29 314.8v22.45l-8.83 6.17-20.46 5.23-20.43-5.23-8.83-6.17V314.8l-7.83.84v19.85c0 4.9 2.51 8.47 6.66 11.07 6.32 4 17.16 7.95 30.42 9.84 13.26-1.9 24.1-5.89 30.42-9.84 4.15-2.6 6.66-6.17 6.66-11.07v-19.85z"/><g id="crest-senegal-02"><path class="cls-7" d="M437.35 369.53a6.31 6.31 0 00-6.31-5 6.65 6.65 0 00-4.1 1.39c1.2 1.5 3.99 3.4 10.41 3.61z"/><path class="cls-6" d="M430.3 378.49a6.87 6.87 0 00.73 0 6.22 6.22 0 006.41-6 5.7 5.7 0 00-.05-.72c-1.57.59-6.57 2.69-7.09 6.72z"/><path class="cls-5" d="M425.9 366.92a5.86 5.86 0 00-2.31 4.62 6.16 6.16 0 005.68 6c.52-4 6.53-6.13 8.11-6.69 0-.11 0-.21-.05-.32-6.43-.24-10.23-2.14-11.43-3.61z"/><path d="M430.64 363a8.56 8.56 0 108.56 8.56 8.57 8.57 0 00-8.56-8.56zm0 16.66a8.1 8.1 0 118.1-8.1 8.11 8.11 0 01-8.1 8.15z" stroke="#007b3f" stroke-miterlimit="10" stroke-width=".75" fill="#007b3f"/></g><path class="cls-7" d="M394.46 410.62a2.27 2.27 0 01-2.24-2.24v-13.45l-2.4 2.47a1.74 1.74 0 01-1.25.51 1.88 1.88 0 01-1.31-3.23l4.93-5a2.74 2.74 0 011.92-.77 2.64 2.64 0 012.66 2.59v16.87a2.28 2.28 0 01-2.31 2.25zm13.16 0a2.27 2.27 0 01-2.24-2.24v-13.45L403 397.4a1.74 1.74 0 01-1.25.51 1.88 1.88 0 01-1.31-3.23l4.93-5a2.74 2.74 0 011.92-.77 2.64 2.64 0 012.66 2.59v16.87a2.28 2.28 0 01-2.33 2.25z" id="number-11"/><g id="brand-le-coq"><path class="cls-9" d="M400 365a1.43 1.43 0 011.26.74L407 376a1.45 1.45 0 01-1.26 2.15H394.3A1.45 1.45 0 01393 376l5.72-10.3a1.43 1.43 0 011.28-.7m0-1.84a3.28 3.28 0 00-2.87 1.69l-5.72 10.3a3.28 3.28 0 002.89 4.85h11.44a3.28 3.28 0 002.87-4.88l-5.72-10.3a3.28 3.28 0 00-2.87-1.69z"/><ellipse class="cls-9" cx="400.02" cy="373.44" rx="3.31" ry="3.66"/></g></g></g><path id="neck-2" data-name="neck" fill="#7d4921" d="M427.63 340.26l-27.59 8.62-28.6-9.62-1.92-23.62h61.04l-2.93 24.62z"/><path d="M502.88 368.43l-2.47-30.36c-1.19-11.87-11.83-22.25-23.72-23.14l-37.14-2.71c-4.07-.45-20.52-.09-39.55.53-19-.62-35.48-1-39.55-.53l-37.14 2.71c-11.89.89-22.53 11.27-23.72 23.14l-2.47 30.36a20.15 20.15 0 005 15.74 19.92 19.92 0 001.69 1.64v66.36c0 12.81 9.32 23.22 20.78 23.22a19.8 19.8 0 0015.25-7.39v21.79a12.23 12.23 0 007.74 11.36v68h-5.93c-10.93 0-19.83 5.8-19.83 17.11 0 8.06 0 17 11.72 19.7v1.6a1.38 1.38 0 001.38 1.38h1.63a1.38 1.38 0 001.38-1.37v-.95c1.16.09 2.39.15 3.73.15h1.89v.8a1.38 1.38 0 001.38 1.38h1.63a1.38 1.38 0 001.38-1.37v-.8h5.62v.8a1.38 1.38 0 001.38 1.38h1.63a1.38 1.38 0 001.38-1.37v-.8h5.62v.8a1.38 1.38 0 001.38 1.38h1.63a1.38 1.38 0 001.38-1.37v-.8h5.62v.8a1.38 1.38 0 001.38 1.38h1.63a1.38 1.38 0 001.38-1.37v-.8h5.62v.8a1.38 1.38 0 001.38 1.38h1.63a1.38 1.38 0 001.38-1.37v-.8h5.62v.8a1.38 1.38 0 001.38 1.38h1.63a1.38 1.38 0 001.38-1.37v-.81l.06-55.45V502h4v49.21l.06 54.67v1.6a1.38 1.38 0 001.38 1.38h1.63a1.38 1.38 0 001.38-1.37v-.8h5.62v.8a1.38 1.38 0 001.38 1.38h1.63a1.38 1.38 0 001.38-1.37v-.8h5.62v.8a1.38 1.38 0 001.38 1.38h1.63a1.38 1.38 0 001.38-1.37v-.8h5.62v.8a1.38 1.38 0 001.38 1.38h1.63a1.38 1.38 0 001.38-1.37v-.8h5.62v.8a1.38 1.38 0 001.38 1.38h1.63a1.38 1.38 0 001.38-1.37v-.8h5.62v.8a1.38 1.38 0 001.38 1.38h1.63a1.38 1.38 0 001.38-1.37v-.8h1.89c1.33 0 2.57-.05 3.72-.15v.95a1.38 1.38 0 001.38 1.38h1.63a1.38 1.38 0 001.38-1.37v-1.6c11.71-2.68 11.72-11.64 11.72-19.7 0-11.3-8.89-17.11-19.83-17.11h-5.93v-68a12.23 12.23 0 007.74-11.36V468a19.8 19.8 0 0015.21 7.42c11.46 0 20.78-10.42 20.78-23.22v-66.39a19.92 19.92 0 001.69-1.64 20.15 20.15 0 004.95-15.74zm-130.49-46.18c3.46 1.84 15.64 2.07 27.61 1.79 12 .28 24.15 0 27.61-1.79V334c0 4.8-22.42 12-27.23 12l-.38-.08-.38.08c-4.8 0-27.23-7.19-27.23-12zm-33 75.43v55c0 9.5-6.63 17.22-14.78 17.22s-14.78-7.73-14.78-17.22V389.9a21.08 21.08 0 007.47 1.36h22.09zm52.9 203.42h-50.64c-14.22 0-14.22-5-14.22-14.89 0-8.21 6.38-11.5 14.22-11.5h11.67l38.93-2.71.06 15.37zm-38.74-76.4h38.67v41.7l-38.67 2.68h-.26V524.7zm-.26-5.74V502h38.94v17h-38.91zm104.77 55.75h.26c7.84 0 14.22 3.29 14.22 11.5 0 9.91 0 14.89-14.22 14.89h-50.64v-13.7l.06-15.37 38.93 2.69h11.42zm-11.67-50h.26v44.4h-.26l-38.67-2.68V524.7zM407.75 519v-17h38.95v17h-38.95zm46.84-73.77h-.07v44.58a6.6 6.6 0 01-6.58 6.58H403s-.11-3.73-.16-8.75v-2.79c0-3.51-1.41-5.09-2.82-5-1.41-.09-2.82 1.49-2.82 5v2.79c0 5-.16 8.75-.16 8.75H352.1a6.6 6.6 0 01-6.58-6.58v-44.63h-.07v-.33l30.24.33h48.69l30.24-.33zm35.57 7.51c0 9.5-6.63 17.22-14.78 17.22s-14.78-7.73-14.78-17.22v-61.48h22.09a21.08 21.08 0 007.47-1.36zm6-77.21a13.53 13.53 0 01-6 7.29 14.69 14.69 0 01-7.47 2l-22.09.09v-20.19c0-5.56-6.07-5.94-6.07 0s.07 14.37.07 14.37v59.59H345.41v-59.61s.07-8.46.07-14.37-6.07-5.54-6.07 0v20.11l-22.09-.09a14.69 14.69 0 01-7.47-2 13.53 13.53 0 01-6-7.29 14.89 14.89 0 01-.75-6.46l2.47-30.36c.89-9 9.23-17.08 18.2-17.75l11.12-.83 32.22-2.29c.68.54.48 17.49.48 17.49 0 8.43 23.34 15.29 31.77 15.29h1.3c8.43 0 31.77-6.86 31.77-15.29 0 0-.2-16.95.48-17.49l32.22 2.29 11.12.83c9 .67 17.3 8.8 18.2 17.75L496.9 369a14.89 14.89 0 01-.75 6.48z" id="border"/><g id="head"><path id="skin-2" data-name="skin" class="cls-1" d="M446.38 253.1c0-.91.08-1.81.08-2.73 0-30.51-21.06-55.25-47-55.25s-47 24.74-47 55.25c0 1.11 0 2.21.1 3.31-4 2.46-6.9 8.44-6.9 15.43 0 9.19 4.93 16.64 11 16.64a7.47 7.47 0 002.1-.31c.82 24.5 18.74 44.08 40.73 44.08s40.12-19.81 40.74-44.5a7.65 7.65 0 003.25.74c6.08 0 11-7.45 11-16.64-.05-7.65-3.48-14.06-8.1-16.02z"/><path d="M444.92 231.76l-7.8-17.51-12.83-13.33-11.2-3.83H387l-11.2 3.83-12.83 13.33-7.8 17.51-1.27 22.16s13.4-18.67 14.24-25.5 17.67 2.15 31.91 2.17c14.24 0 31.08-9 31.91-2.17s14.24 25.5 14.24 25.5z" fill="#bcb182"/><path id="border-2" data-name="border" d="M446.38 253.1c0-.91.08-1.81.08-2.73 0-30.51-21.06-55.25-47-55.25s-47 24.74-47 55.25c0 1.11 0 2.21.1 3.31-4 2.46-6.9 8.44-6.9 15.43 0 9.19 4.93 16.64 11 16.64a7.47 7.47 0 002.1-.31c.82 24.5 18.74 44.08 40.73 44.08s40.12-19.81 40.74-44.5a7.65 7.65 0 003.25.74c6.08 0 11-7.45 11-16.64-.05-7.65-3.48-14.06-8.1-16.02z" fill="none" stroke="#231f20" stroke-linecap="round" stroke-linejoin="round" stroke-width="6"/></g></svg>