<svg id="player" xmlns="http://www.w3.org/2000/svg" viewBox="0 0 800 800"><defs><style>.cls-1{fill:#e4b69d}.cls-2{fill:#181818}.cls-3{fill:#fff}.cls-5{fill:#e01f26}.cls-6{fill:#ead12a}.cls-8{fill:#231f20}</style></defs><g id="skin"><path id="arm-left" class="cls-1" d="M305.93 384h36.78v72.4a18.39 18.39 0 01-18.39 18.39 18.39 18.39 0 01-18.39-18.39V384z"/><path id="arm-right" class="cls-1" d="M457.19 384H494v72.4a18.39 18.39 0 01-18.39 18.39 18.39 18.39 0 01-18.39-18.39V384h-.03z"/><path id="leg-left" class="cls-1" d="M349.88 482.84h45.67v56.84h-45.67z"/><path id="leg-right" class="cls-1" d="M404.78 482.84h45.67v56.84h-45.67z"/></g><g id="boots"><path id="left" class="cls-2" d="M395.54 572.04h-22.83l-22.83 1.97h-12.5l-7.5 2.53-5.25 8.5v9.83l1.91 4.17 3.84 4.05 6.33 1.95h58.83v-33z"/><path id="right" class="cls-2" d="M404.67 572.04h22.83l22.83 1.97h12.5l7.5 2.53 5.25 8.5v9.83l-1.91 4.17-3.84 4.05-6.33 1.95h-58.83v-33z"/><path class="cls-3" d="M404.67 587s39-5.08 69.83 7.87c0 0 3.34 3 .34 3.88s-30.83-10-70.17-7.08zm-9.19 0s-39-5.08-69.83 7.87c0 0-3.34 3-.34 3.88s30.83-10 70.17-7.08z" id="details"/></g><g id="socks"><path d="M349.88 524h45.67v48.04h-45.67zm54.5 0h45.67v48.04h-45.67z" fill="#282828"/><g id="details-2" data-name="details"><path class="cls-5" d="M350.48 526.7h45v11.94h-45z"/><path class="cls-3" d="M350.48 531.06h45v3.21h-45z"/><path class="cls-5" d="M404.71 526.7h45v11.94h-45z"/><path class="cls-3" d="M404.71 531.06h45v3.21h-45z"/></g></g><path id="shorts" class="cls-3" d="M341.67 442.88h116.49v30a9.95 9.95 0 01-9.95 9.95h-96.6a9.95 9.95 0 01-9.95-9.95v-30h.01z"/><g id="shirt"><path id="shirt-2" data-name="shirt" class="cls-5" d="M369.5 316.8l-48.29 2.99-11.36 6.25-6.83 10.1-1.93 98.78 11.16 7.16 29.96 1.13h147.21l10.96-12.79-3.4-92.71-6.83-11.84-9.77-6.08-49.84-2.99-1 21.24-6.5 6.5-11.16 3.48-11.88 2.02-15.46-3.17-11-5.66-3.66-3.84-.38-20.57z"/><g id="details-3" data-name="details"><path id="neck" class="cls-3" d="M415.5 346l-15.5 5.58-15.4-5.58s-17.27-1.2-17.43 1.75c0 0 25.07 28.39 32.88 28.39s32.88-28.39 32.88-28.39c-.16-2.96-17.43-1.75-17.43-1.75z"/><path id="arm-l" class="cls-3" d="M300 420.87h41.62v22.8h-18.77a22.8 22.8 0 01-22.8-22.8H300z"/><path id="arm-r" class="cls-3" d="M481 420.87h18.82v22.8h-41.66a22.8 22.8 0 0122.84-22.8z" transform="rotate(180 478.975 432.275)"/><g id="manchester-united-crest-2003"><path class="cls-6" d="M442.61 374a1.84 1.84 0 01-1.7-1.26 6.65 6.65 0 00-12.57 0 1.84 1.84 0 01-1.7 1.26 1.84 1.84 0 01-1.71-2.43 10.22 10.22 0 0119.4 0 1.84 1.84 0 01-1.71 2.43zm0 3.19a1.84 1.84 0 00-1.7 1.26 6.65 6.65 0 01-12.57 0 1.84 1.84 0 00-1.7-1.26 1.84 1.84 0 00-1.71 2.43 10.22 10.22 0 0019.4 0 1.84 1.84 0 00-1.71-2.43z"/><circle class="cls-6" cx="426.41" cy="375.6" r="1.59"/><circle class="cls-6" cx="442.84" cy="375.6" r="1.59"/><path class="cls-6" d="M431.29 370.82H438a1.17 1.17 0 011.17 1.17v5a4.5 4.5 0 01-4.5 4.5 4.5 4.5 0 01-4.5-4.5v-5a1.17 1.17 0 011.17-1.17z"/><path class="cls-5" d="M431.95 373.91h.79v2.86a.12.12 0 01-.12.12h-.55a.12.12 0 01-.12-.12v-2.86zm1.18 0h-1.58a7.54 7.54 0 01.79-1.58 7.25 7.25 0 01.79 1.58zm1.1 0h.77v2.86a.12.12 0 01-.12.12h-.55a.12.12 0 01-.12-.12v-2.86h.02zm1.18 0h-1.58a7.54 7.54 0 01.79-1.58 7.25 7.25 0 01.79 1.58zm1.1 0h.79v2.86a.12.12 0 01-.12.12h-.55a.12.12 0 01-.12-.12v-2.86zm1.18 0h-1.58a7.54 7.54 0 01.79-1.58 7.25 7.25 0 01.79 1.58z"/><path class="cls-5" d="M431.95 375.56h5.35v2a.62.62 0 01-.62.62h-4.12a.62.62 0 01-.62-.62v-2h.01z"/></g></g></g><path id="neck-2" data-name="neck" fill="#cea28b" d="M427.61 341.42l-27.59 8.62-28.6-9.62-1.92-23.62h61.04l-2.93 24.62z"/><path d="M502.88 423.91l-2.47-83.84c-1.19-11.87-11.83-22.25-23.72-23.14l-37.14-2.71c-4.07-.45-20.52-.09-39.55.53-19-.62-35.48-1-39.55-.53l-37.14 2.71c-11.89.89-22.53 11.27-23.72 23.14l-2.47 83.84a20.15 20.15 0 005 15.74 19.92 19.92 0 001.69 1.64v12.87c0 12.81 9.32 23.22 20.78 23.22a19.8 19.8 0 0015.25-7.38v3.79a12.23 12.23 0 007.74 11.36v86h-5.93c-10.93 0-19.83 5.8-19.83 17.11 0 8.06 0 17 11.72 19.7v1.6a1.38 1.38 0 001.38 1.38h1.63a1.38 1.38 0 001.38-1.37v-.95c1.16.09 2.39.15 3.73.15h1.89v.8a1.38 1.38 0 001.38 1.38h1.63a1.38 1.38 0 001.38-1.37v-.8h5.62v.8a1.38 1.38 0 001.38 1.38h1.63a1.38 1.38 0 001.38-1.37v-.8h5.62v.8a1.38 1.38 0 001.38 1.38h1.63a1.38 1.38 0 001.38-1.37v-.8h5.62v.8a1.38 1.38 0 001.38 1.38h1.63a1.38 1.38 0 001.38-1.37v-.8h5.62v.8a1.38 1.38 0 001.38 1.38h1.63a1.38 1.38 0 001.38-1.37v-.8h5.62v.8a1.38 1.38 0 001.38 1.38h1.63a1.38 1.38 0 001.38-1.37v-.81l.06-55.45V486h4v67.21l.06 54.67v1.6a1.38 1.38 0 001.38 1.38h1.63a1.38 1.38 0 001.38-1.37v-.8h5.62v.8a1.38 1.38 0 001.38 1.38h1.63a1.38 1.38 0 001.38-1.37v-.8h5.62v.8a1.38 1.38 0 001.38 1.38h1.63a1.38 1.38 0 001.38-1.37v-.8h5.62v.8a1.38 1.38 0 001.38 1.38h1.63a1.38 1.38 0 001.38-1.37v-.8h5.62v.8a1.38 1.38 0 001.38 1.38h1.63a1.38 1.38 0 001.38-1.37v-.8h5.62v.8a1.38 1.38 0 001.38 1.38h1.63a1.38 1.38 0 001.38-1.37v-.8h1.89c1.33 0 2.57-.05 3.72-.15v.95a1.38 1.38 0 001.38 1.38h1.63a1.38 1.38 0 001.38-1.37v-1.6c11.71-2.68 11.72-11.64 11.72-19.7 0-11.3-8.89-17.11-19.83-17.11h-5.93v-86a12.23 12.23 0 007.74-11.36V470a19.8 19.8 0 0015.21 7.42c11.46 0 20.78-10.42 20.78-23.22v-12.9a19.92 19.92 0 001.69-1.64 20.15 20.15 0 004.95-15.75zm-130.49-99.66c3.46 1.84 15.64 2.07 27.61 1.79 12 .28 24.15 0 27.61-1.79V336c0 4.8-22.42 12-27.23 12l-.38-.08-.38.08c-4.8 0-27.23-7.19-27.23-12zm-33 128.91v1.53c0 9.5-6.63 17.22-14.78 17.22s-14.78-7.73-14.78-17.22v-9.31a21.08 21.08 0 007.47 1.36h22.09zm52.9 149.93h-50.64c-14.22 0-14.22-5-14.22-14.89 0-8.21 6.38-11.5 14.22-11.5h11.67l38.93-2.7.06 15.37zm-38.74-76.4h38.67v41.71l-38.67 2.68h-.26V526.7zm-.26-5.74V486h38.94v35h-38.91zm104.77 55.75h.26c7.84 0 14.22 3.29 14.22 11.5 0 9.91 0 14.89-14.22 14.89h-50.64V589.4l.06-15.37 38.93 2.69h11.42zm-11.67-50h.26v44.4h-.26l-38.67-2.68V526.7zm-38.64-5.7v-35h38.95v35h-38.95zm46.84-73.77h-.07v26.58a6.6 6.6 0 01-6.58 6.58H403s-.11-3.73-.16-8.75v-2.79c0-3.51-1.41-5.09-2.82-5-1.41-.09-2.82 1.49-2.82 5v2.79c0 5-.16 8.75-.16 8.75H352.1a6.6 6.6 0 01-6.58-6.58v-26.63h-.07v-.33l30.24.33h48.69l30.24-.33zm35.57 7.51c0 9.5-6.63 17.22-14.78 17.22s-14.78-7.73-14.78-17.22v-7.94h22.09a21.08 21.08 0 007.47-1.36zm6-23.73a13.53 13.53 0 01-6 7.29 14.69 14.69 0 01-7.47 2l-22.09.09v-73.67c0-5.56-6.07-5.94-6.07 0s.07 14.37.07 14.37v59.59H345.41v-59.61s.07-8.46.07-14.37-6.07-5.54-6.07 0v73.59l-22.09-.09a14.69 14.69 0 01-7.47-2 13.53 13.53 0 01-6-7.29 14.89 14.89 0 01-.75-6.46l2.47-83.84c.89-9 9.23-17.08 18.2-17.75l11.12-.83 32.22-2.29c.68.54.48 17.49.48 17.49 0 8.43 23.34 15.29 31.77 15.29h1.3c8.43 0 31.77-6.86 31.77-15.29 0 0-.2-16.95.48-17.49l32.22 2.29 11.12.83c9 .67 17.3 8.8 18.2 17.75l2.47 83.84a14.89 14.89 0 01-.77 6.55z" id="border"/><g id="shirt-collars"><path class="cls-3" d="M385.37 346.77l-10.5 10.74S358.26 352 359.63 333s.39-15.46.39-15.46l9.88.45z"/><path class="cls-8" d="M374.87 360.35a2.83 2.83 0 01-.89-.14c-.19-.06-18.69-6.42-17.18-27.37.64-8.87.73-12.47.72-13.9a2.84 2.84 0 01-.24-2.12 3 3 0 013.38-2.29 3.25 3.25 0 01.89.28l8.47.38a2.84 2.84 0 012.37 1.49l15.47 28.74a2.84 2.84 0 01-.47 3.33L376.9 359.5a2.84 2.84 0 01-2.03.85zm-11.68-39.78c-.06 2.7-.31 7-.72 12.68-.5 7 1.59 12.72 6.22 17.07a22.89 22.89 0 005.51 3.81l7.68-7.85-13.72-25.48z"/><path class="cls-3" d="M414.68 346.77l10.5 10.74s16.6-5.51 15.23-24.51-.39-15.46-.39-15.46l-9.88.45z"/><path class="cls-8" d="M423.15 359.5l-10.5-10.74a2.84 2.84 0 01-.47-3.33l15.47-28.74a2.84 2.84 0 012.37-1.49l8.47-.38a3.25 3.25 0 01.89-.28 3 3 0 013.38 2.29 2.84 2.84 0 01-.24 2.12c0 1.43.08 5 .72 13.9 1.51 20.95-17 27.3-17.18 27.37a2.84 2.84 0 01-2.92-.71zm8.74-38.7l-13.72 25.48 7.68 7.85a22.89 22.89 0 005.51-3.81c4.63-4.35 6.72-10.1 6.22-17.07-.41-5.71-.65-10-.72-12.68z"/></g><g id="head"><path class="cls-8" d="M350.53 251s-10.49 12.56-7.18 45.56c.93 9.25 12.49 8.67 18.86 12.33 9.18 5.29 15.36 3.33 16.2-11.5S350.53 251 350.53 251zm95.47-3.42s17.2 16 13.89 49c-.93 9.25-12.49 8.67-18.86 12.33-9.18 5.29-15.36 3.33-16.2-11.5S446 247.58 446 247.58z"/><path id="skin-2" data-name="skin" class="cls-1" d="M446.38 255.1c0-.91.08-1.81.08-2.73 0-30.51-21.06-55.25-47-55.25s-47 24.74-47 55.25c0 1.11 0 2.21.1 3.31-4 2.46-6.9 8.44-6.9 15.43 0 9.19 4.93 16.64 11 16.64a7.47 7.47 0 002.1-.31c.82 24.5 18.74 44.08 40.73 44.08s40.12-19.81 40.74-44.5a7.65 7.65 0 003.25.74c6.08 0 11-7.45 11-16.64-.05-7.65-3.48-14.06-8.1-16.02z"/><path id="border-2" data-name="border" d="M446.38 255.1c0-.91.08-1.81.08-2.73 0-30.51-21.06-55.25-47-55.25s-47 24.74-47 55.25c0 1.11 0 2.21.1 3.31-4 2.46-6.9 8.44-6.9 15.43 0 9.19 4.93 16.64 11 16.64a7.47 7.47 0 002.1-.31c.82 24.5 18.74 44.08 40.73 44.08s40.12-19.81 40.74-44.5a7.65 7.65 0 003.25.74c6.08 0 11-7.45 11-16.64-.05-7.65-3.48-14.06-8.1-16.02z" stroke="#231f20" stroke-linecap="round" stroke-linejoin="round" stroke-width="6" fill="#e4b69d"/><path d="M411.59 312.73c0-1.16-2.38-5.73-11.59-5.9v15.24c11.46-1 11.63-8.18 11.59-9.34zm-24.92 1.2s1.87 9.16 13.33 8.15v-15.24s-13.79-1.16-13.33 7.09z" fill="none"/><path d="M426.29 297.08s-6.67 3-9.67 2.83l-15.73-2.29a5.9 5.9 0 00-1.7 0l-15.73 2.29c-3 .12-9.67-2.83-9.67-2.83-8.09-2.33-13.25-10.67-13.25-10.67v12.75l16.63 25.5 22.83 7.63v-.36.18-.18.36l22.83-7.63 16.63-25.5v-12.75s-5.08 8.34-13.17 10.67zm-12.92 16.85s-1.87 9.16-13.33 8.15c-11.46 1-13.33-8.15-13.33-8.15-.46-8.25 13.33-7.1 13.33-7.1s13.79-1.15 13.34 7.1z"/><path class="cls-8" d="M451.88 235.5c-4.75-30.63-12.88-26.63-24.88-36.13-11.81-9.35-26.52-8.17-27-8.13s-15.17-1.22-27 8.13c-12 9.5-20.12 5.5-24.87 36.13 0 0-5.25 28.75-3.12 30.38l7.43-10.19 2.32.82s3 5.25 4.76 0c1.28-3.86 6.64-11.91 9-18.88a7.93 7.93 0 018.83-5.29c8.73 1.43 22.61 2.65 30.11-2.18a16.75 16.75 0 0114-2.19l2 .61a11.41 11.41 0 017.7 7.75c2 7.24 8 16.08 9.36 20.18 1.74 5.25 4.76 0 4.76 0l2.32-.82 7.4 10.18c2.13-1.62-3.12-30.37-3.12-30.37z"/></g></svg>