<svg id="player" xmlns="http://www.w3.org/2000/svg" viewBox="0 0 800 800"><defs><style>.cls-1{fill:#cea28b}.cls-2{fill:#c9b58f}.cls-3{fill:#a72232}.cls-4{fill:#13171e}.cls-5{fill:#fff}.cls-6{fill:#f58220}.cls-15{fill:#462714}.cls-16{fill:#231f20}</style></defs><g id="skin"><path id="arm-left" class="cls-1" d="M305.93 382h36.78v72.4a18.39 18.39 0 01-18.39 18.39 18.39 18.39 0 01-18.39-18.39V382z"/><path id="arm-right" class="cls-1" d="M457.19 382H494v72.4a18.39 18.39 0 01-18.39 18.39 18.39 18.39 0 01-18.39-18.39V382h-.03z"/><path id="leg-left" class="cls-1" d="M349.88 492.02h45.67v45.67h-45.67z"/><path id="leg-right" class="cls-1" d="M404.78 492.02h45.67v45.67h-45.67z"/></g><g id="boots"><path id="left" class="cls-2" d="M395.54 570.04h-22.83l-22.83 1.97h-12.5l-7.5 2.53-5.25 8.5v9.83l1.91 4.17 3.84 4.05 6.33 1.95h58.83v-33z"/><path id="right" class="cls-2" d="M404.67 570.04h22.83l22.83 1.97h12.5l7.5 2.53 5.25 8.5v9.83l-1.91 4.17-3.84 4.05-6.33 1.95h-58.83v-33z"/><path class="cls-3" d="M353.17 572s-4.87 44.38-25.37 26.63c0 0-6-15.62-.87-19.87s26.24-6.76 26.24-6.76zm40.63 2.12s-31.25 20.59-34.5 28.88h36.25v-28.88zm52.95-2.12s4.88 44.38 25.38 26.63c0 0 6-15.62.88-19.87S446.75 572 446.75 572zm-40.62 2.12s31.25 20.58 34.5 28.92h-36.25v-28.92z" id="details"/></g><g id="socks"><path id="left-2" data-name="left" class="cls-4" d="M349.88 522h45.67v48.04h-45.67z"/><path id="right-2" data-name="right" class="cls-4" d="M404.38 522h45.67v48.04h-45.67z"/></g><g id="shorts"><path id="shorts-2" data-name="shorts" class="cls-5" d="M341.67 442.54h116.49v47a9.95 9.95 0 01-9.95 9.95h-96.6a9.95 9.95 0 01-9.95-9.95v-47h.01z"/><path class="cls-6" d="M344.14 466.62h5v31h-1.88a3.14 3.14 0 01-3.14-3.14v-27.86h.02z"/><path class="cls-4" d="M349.17 466.62h2a3 3 0 013 3V499h-5v-32.38z"/></g><g id="shirt"><path id="shirt-2" data-name="shirt" class="cls-3" d="M369.5 314.8l-48.29 2.99-11.36 6.25-6.83 10.1-1.93 98.78 11.16 7.16 29.96 1.13h147.21l10.96-12.79-3.4-92.71-6.83-11.84-9.77-6.08-49.84-2.99-1 21.24-6.5 6.5-11.16 3.48-11.88 2.02-15.46-3.17-11-5.66-3.66-3.84-.38-20.57z"/><path class="cls-4" d="M372.73 340.62S358.42 343.75 356 363s-2.44 33.06-5.12 34.81c0 0-6.69 2.81-7.75 0 0 0 2.13-38.25 7.06-45.12s20.69-17.06 20.69-17.06z"/><path class="cls-6" d="M371.27 336.59c.47-.21-1.51-1.52-2-1.45-6.55.93-23.71 7.48-23.77 29.56l-3.19 35.49c0 .82 4.75 0 5-.81 1.67-5.27 3.39-23.38 3.28-37.86-.14-16.05 15.41-22.62 20.68-24.93zM303 380h5v57.62h-.74a4.29 4.29 0 01-4.29-4.29V380h.03z"/><path class="cls-4" d="M308 380h.87a4.16 4.16 0 014.16 4.16v56h-5V380H308z"/><g id="logo-serie-a"><path class="cls-5" d="M306.64 373.27l-2 .64a.88.88 0 01-.73-.09l-1.79-1.08a4.38 4.38 0 01-1.82-4.29l1-8.6a1.07 1.07 0 01.93-1h1.37a16.07 16.07 0 014.79.56l1.32.36a1.07 1.07 0 01.67 1.2l-1 8.6a4.38 4.38 0 01-2.74 3.7z"/><path d="M305.87 360.3a13.72 13.72 0 012 .39l.53.15a1.38 1.38 0 01.86 1.54l-.51 4.35a.52.52 0 01-.52.51l-6.29-.74a.52.52 0 01-.39-.61l.51-4.35a1.38 1.38 0 011.2-1.3h.55a13.72 13.72 0 012.05.08m0-.41a14 14 0 00-2.1-.09h-.55a1.77 1.77 0 00-1.54 1.68l-.51 4.35a.91.91 0 00.68 1.07l6.29.74a.91.91 0 00.91-.88l.51-4.35a1.77 1.77 0 00-1.11-2l-.53-.15a14 14 0 00-2.06-.4z" fill="#cfaf58"/><path d="M300.95 368.18a3.8 3.8 0 001.57 3.72l1.56.94a.76.76 0 00.63.07l1.73-.55a3.8 3.8 0 002.39-3.26.62.62 0 00-.47-.73l-6.79-.8a.62.62 0 00-.62.61z" fill="#2f67b1"/><rect class="cls-5" x="302.38" y="369.34" width="4.68" height="1.54" rx=".7" ry=".7" transform="rotate(6.68 304.683 370.015)"/><path d="M303 363.29a2.22 2.22 0 001.68 2.62l.56-4.79a2.22 2.22 0 00-2.24 2.17z" fill="#009d5c"/><path d="M306.32 361.26l-.56 4.79a2.46 2.46 0 00.56-4.79z" fill="#e01f26"/></g><g id="crest-as-roma-2004"><path class="cls-4" d="M400 367.68a.32.32 0 01.22.09c.71.65 3 1.32 4.15 2a1.5 1.5 0 01.77 1.31v1.48a10.11 10.11 0 01-3.25 7.42l-1.43 1.32a.69.69 0 01-.93 0l-1.42-1.3a10.11 10.11 0 01-3.25-7.42v-1.48a1.5 1.5 0 01.77-1.31c1.2-.67 3.45-1.33 4.15-2a.32.32 0 01.22-.09m0-.95a1.27 1.27 0 00-.86.34 10.27 10.27 0 01-2 1 19.19 19.19 0 00-1.93.87 2.45 2.45 0 00-1.26 2.14v1.48a11.06 11.06 0 003.55 8.12l1.43 1.32a1.64 1.64 0 002.22 0l1.43-1.32a11.06 11.06 0 003.55-8.12v-1.48a2.45 2.45 0 00-1.26-2.14 19.19 19.19 0 00-1.93-.87 10.27 10.27 0 01-2-1 1.27 1.27 0 00-.86-.34z"/><path class="cls-3" d="M395.07 374.57a10.11 10.11 0 003 5.39l1.43 1.32a.69.69 0 00.93 0l1.43-1.32a10.11 10.11 0 003-5.39z"/><path class="cls-6" d="M405.14 372.54v-1.48a1.5 1.5 0 00-.77-1.31c-1.2-.67-3.45-1.33-4.15-2a.32.32 0 00-.44 0c-.71.65-3 1.32-4.15 2a1.5 1.5 0 00-.77 1.31v1.48a10.1 10.1 0 00.21 2l2.7.4a15.07 15.07 0 004.46 0l2.7-.4a10.1 10.1 0 00.21-2z"/><path d="M402.37 372.19l-1.23.69a3 3 0 00-.84-.06 4.43 4.43 0 01-.6 0 3 3 0 00-.84.06l-1.23-.69a.25.25 0 00-.37.28l.35 1.37a2.23 2.23 0 00-.18.64.77.77 0 00.22.64l1.78 1.78a.82.82 0 001.16 0l1.78-1.78a.77.77 0 00.22-.64 2.23 2.23 0 00-.18-.64l.35-1.37a.25.25 0 00-.39-.28z" fill="#bcbec0"/></g><rect id="logo-diadora" class="cls-5" x="389.57" y="358.31" width="20.87" height="3.37" rx="1.54" ry="1.54"/><g id="sponsor-mazda"><path class="cls-5" d="M375.86 387.84a8.65 8.65 0 109 8.65 8.84 8.84 0 00-9-8.65zm0 1.74a7.24 7.24 0 016.32 3.62l-5.23 3.46a2.19 2.19 0 01-2.16 0l-5.25-3.48a7.24 7.24 0 016.32-3.6zm0 13.81a7.06 7.06 0 01-7.19-6.91 6.64 6.64 0 01.13-1.3l5.53 3.65a2.78 2.78 0 003 0l5.53-3.65a6.64 6.64 0 01.13 1.3 7.06 7.06 0 01-7.13 6.91z"/><rect class="cls-5" x="388.21" y="390.76" width="44.82" height="11.46" rx="5.73" ry="5.73"/></g><g id="asset-captain-band-two-colour"><path fill="#d1d3d4" d="M457.19 364.38h42.82v10.26h-42.82z"/><path d="M461.9 354.12H500v10.26h-42.81v-5.55a4.71 4.71 0 014.71-4.71z" fill="#f1f2f2"/></g></g><path id="neck" fill="#b08874" d="M427.61 339.42l-27.59 8.62-28.6-9.62-1.92-23.62h61.04l-2.93 24.62z"/><path d="M502.88 421.91l-2.47-83.84c-1.19-11.87-11.83-22.25-23.72-23.14l-37.14-2.71c-4.07-.45-20.52-.09-39.55.53-19-.62-35.48-1-39.55-.53l-37.14 2.71c-11.89.89-22.53 11.27-23.72 23.14l-2.47 83.84a20.15 20.15 0 005 15.74 19.92 19.92 0 001.69 1.64v12.87c0 12.81 9.32 23.22 20.78 23.22a19.8 19.8 0 0015.25-7.38v21.79a12.23 12.23 0 007.74 11.36v68h-5.93c-10.93 0-19.83 5.8-19.83 17.11 0 8.06 0 17 11.72 19.7v1.6a1.38 1.38 0 001.38 1.38h1.63a1.38 1.38 0 001.38-1.37v-.95c1.16.09 2.39.15 3.73.15h1.89v.8a1.38 1.38 0 001.38 1.38h1.63a1.38 1.38 0 001.38-1.37v-.8h5.62v.8a1.38 1.38 0 001.38 1.38h1.63a1.38 1.38 0 001.38-1.37v-.8h5.62v.8a1.38 1.38 0 001.38 1.38h1.63a1.38 1.38 0 001.38-1.37v-.8h5.62v.8a1.38 1.38 0 001.38 1.38h1.63a1.38 1.38 0 001.38-1.37v-.8h5.62v.8a1.38 1.38 0 001.38 1.38h1.63a1.38 1.38 0 001.38-1.37v-.8h5.62v.8a1.38 1.38 0 001.38 1.38h1.63a1.38 1.38 0 001.38-1.37v-.81l.06-55.45V502h4v49.21l.06 54.67v1.6a1.38 1.38 0 001.38 1.38h1.63a1.38 1.38 0 001.38-1.37v-.8h5.62v.8a1.38 1.38 0 001.38 1.38h1.63a1.38 1.38 0 001.38-1.37v-.8h5.62v.8a1.38 1.38 0 001.38 1.38h1.63a1.38 1.38 0 001.38-1.37v-.8h5.62v.8a1.38 1.38 0 001.38 1.38h1.63a1.38 1.38 0 001.38-1.37v-.8h5.62v.8a1.38 1.38 0 001.38 1.38h1.63a1.38 1.38 0 001.38-1.37v-.8h5.62v.8a1.38 1.38 0 001.38 1.38h1.63a1.38 1.38 0 001.38-1.37v-.8h1.89c1.33 0 2.57-.05 3.72-.15v.95a1.38 1.38 0 001.38 1.38h1.63a1.38 1.38 0 001.38-1.37v-1.6c11.71-2.68 11.72-11.64 11.72-19.7 0-11.3-8.89-17.11-19.83-17.11h-5.93v-68a12.23 12.23 0 007.74-11.36V468a19.8 19.8 0 0015.21 7.42c11.46 0 20.78-10.42 20.78-23.22v-12.9a19.92 19.92 0 001.69-1.64 20.15 20.15 0 004.95-15.75zm-130.49-99.66c3.46 1.84 15.64 2.07 27.61 1.79 12 .28 24.15 0 27.61-1.79V334c0 4.8-22.42 12-27.23 12l-.38-.08-.38.08c-4.8 0-27.23-7.19-27.23-12zm-33 128.91v1.53c0 9.5-6.63 17.22-14.78 17.22s-14.78-7.73-14.78-17.22v-9.31a21.08 21.08 0 007.47 1.36h22.09zm52.9 149.93h-50.64c-14.22 0-14.22-5-14.22-14.89 0-8.21 6.38-11.5 14.22-11.5h11.67l38.93-2.7.06 15.37zm-38.74-76.4h38.67v41.71l-38.67 2.68h-.26V524.7zm-.26-5.74V502h38.94v17h-38.91zm104.77 55.75h.26c7.84 0 14.22 3.29 14.22 11.5 0 9.91 0 14.89-14.22 14.89h-50.64V587.4l.06-15.37 38.93 2.69h11.42zm-11.67-50h.26v44.4h-.26l-38.67-2.68V524.7zm-38.64-5.7v-17h38.95v17h-38.95zm46.84-73.77h-.07v44.58a6.6 6.6 0 01-6.58 6.58H403s-.11-3.73-.16-8.75v-2.79c0-3.51-1.41-5.09-2.82-5-1.41-.09-2.82 1.49-2.82 5v2.79c0 5-.16 8.75-.16 8.75H352.1a6.6 6.6 0 01-6.58-6.58v-44.63h-.07v-.33l30.24.33h48.69l30.24-.33zm35.57 7.51c0 9.5-6.63 17.22-14.78 17.22s-14.78-7.73-14.78-17.22v-7.94h22.09a21.08 21.08 0 007.47-1.36zm6-23.73a13.53 13.53 0 01-6 7.29 14.69 14.69 0 01-7.47 2l-22.09.09v-73.67c0-5.56-6.07-5.94-6.07 0s.07 14.37.07 14.37v59.59H345.41v-59.61s.07-8.46.07-14.37-6.07-5.54-6.07 0v73.59l-22.09-.09a14.69 14.69 0 01-7.47-2 13.53 13.53 0 01-6-7.29 14.89 14.89 0 01-.75-6.46l2.47-83.84c.89-9 9.23-17.08 18.2-17.75l11.12-.83 32.22-2.29c.68.54.48 17.49.48 17.49 0 8.43 23.34 15.29 31.77 15.29h1.3c8.43 0 31.77-6.86 31.77-15.29 0 0-.2-16.95.48-17.49l32.22 2.29 11.12.83c9 .67 17.3 8.8 18.2 17.75l2.47 83.84a14.89 14.89 0 01-.77 6.55z" id="border"/><g id="head"><path class="cls-15" d="M346.47 277.43s.79 18.31-3.21 16.31a32.53 32.53 0 015.4 2.67c1.93 1.33 5 3 9.29.67s6.29-1 7.71-8.74 5.42-28.26 2.59-30.85-21.78 19.94-21.78 19.94zm106.11 1s-1.79 17.31 2.21 15.31a37.16 37.16 0 01-3.4 2.67c-1.93 1.33-5 3-9.29.67s-6.29-1-7.71-8.74-5.42-28.26-2.59-30.85 20.78 20.94 20.78 20.94z"/><path class="cls-16" d="M367.21 257.17a1.5 1.5 0 011 .33c2.83 2.58-1.17 23.08-2.59 30.85s-3.41 6.41-7.71 8.74a8.74 8.74 0 01-4.2 1.17 8.88 8.88 0 01-5.09-1.83c-1.93-1.33-.4-2.67-.4-2.67a.89.89 0 00.4.1c3.34 0-.18-25.42-.18-25.42s14.13-11.27 18.74-11.27m0-6c-2.35 0-5.9.79-14.5 6.68-4.24 2.91-7.84 5.77-8 5.89a6 6 0 00-2.2 5.51c1 7.3 1.76 16.26 1.54 20.19a7.67 7.67 0 00-2.38 5.91 7.75 7.75 0 003.55 6 14 14 0 0015.57 1 17 17 0 012-.87c4.71-1.86 7.36-4.23 8.8-12.06l.27-1.46c4.39-23.73 4.49-31.23.46-34.91a7.37 7.37 0 00-5.08-1.89zm65.65 6c4.62 0 18.74 11.27 18.74 11.27s-3.52 25.42-.18 25.42a.89.89 0 00.4-.1s1.53 1.33-.4 2.67a8.87 8.87 0 01-5.09 1.83 8.74 8.74 0 01-4.2-1.17c-4.3-2.33-6.29-1-7.71-8.74s-5.42-28.26-2.59-30.85a1.5 1.5 0 011-.33m0-6a7.38 7.38 0 00-5.08 1.89c-4 3.67-3.93 11.18.46 34.91l.27 1.46c1.44 7.83 4.09 10.2 8.8 12.06a17 17 0 012 .87 14 14 0 0015.57-1 7.75 7.75 0 003.55-6 7.67 7.67 0 00-2.38-5.91c-.22-3.94.53-12.89 1.55-20.19a6 6 0 00-2.2-5.51c-.15-.12-3.75-3-8-5.89-8.59-5.89-12.15-6.68-14.5-6.68z"/><path class="cls-16" d="M404.21 189.79c4.33 0 11.24.83 16.92 5.32 9 7.13 18.67 3.51 26.5 27.9s6.83 31.39 4 32.56a1.86 1.86 0 01-.71.14c-1.58 0-3.12-1.89-4.36-1.89-.79 0-1.45.76-1.92 3.25a2 2 0 01-1.17.42c-.92 0-2.15-.78-2.83-4.5-1.17-6.42-4-28.92-9-31.59-1.67-.89-4.41-1.19-7.77-1.19-6.71 0-15.87 1.18-23.81 1.18-7.94 0-17.1-1.18-23.81-1.18-3.36 0-6.11.3-7.77 1.19-5 2.67-7.83 25.17-9 31.59-.68 3.71-1.91 4.5-2.83 4.5a2 2 0 01-1.17-.42c-.47-2.49-1.14-3.25-1.92-3.25-1.24 0-2.78 1.89-4.36 1.89a1.86 1.86 0 01-.71-.14c-2.83-1.17-3.83-8.17 4-32.56s17.5-20.77 26.5-27.9c5.67-4.49 12.58-5.32 16.92-5.32a27.65 27.65 0 014.19.28 27.63 27.63 0 014.19-.28m0-6a37 37 0 00-4.29.21 37 37 0 00-4.19-.23c-5.6 0-13.73 1.15-20.64 6.62a28.7 28.7 0 01-6.33 3.51c-8.89 4-16.16 8.57-22.16 27.26-7 21.91-9.58 36.23-.57 39.94a7.84 7.84 0 003 .59 8.28 8.28 0 002.16-.29l.31.28a8 8 0 005 1.79c2.11 0 7.18-.92 8.73-9.42.18-1 .4-2.33.64-3.86.65-4 1.53-9.51 2.69-14.5 1.39-6 2.53-8.34 3-9.12a20.51 20.51 0 014.54-.35c3 0 6.65.26 10.52.54 4.39.32 8.93.64 13.26.65h.04c4.34 0 8.89-.33 13.29-.65 3.86-.28 7.52-.54 10.52-.54a20.37 20.37 0 014.54.36c.47.78 1.61 3.13 3 9.12 1.16 5 2 10.49 2.69 14.5.25 1.54.46 2.86.64 3.86 1.55 8.51 6.62 9.42 8.73 9.42a8 8 0 005-1.79l.31-.27a8.28 8.28 0 002.16.29 7.84 7.84 0 003-.59c9-3.71 6.46-18-.57-39.94-6-18.69-13.27-23.24-22.16-27.26a28.7 28.7 0 01-6.33-3.51c-6.91-5.47-15-6.62-20.64-6.62zm-54.96 73.61zm101.38 0z"/><path id="skin-2" data-name="skin" class="cls-1" d="M446.38 253.1c0-.91.08-1.81.08-2.73 0-30.51-21.06-55.25-47-55.25s-47 24.74-47 55.25c0 1.11 0 2.21.1 3.31-4 2.46-6.9 8.44-6.9 15.43 0 9.19 4.93 16.64 11 16.64a7.47 7.47 0 002.1-.31c.82 24.5 18.74 44.08 40.73 44.08s40.12-19.81 40.74-44.5a7.65 7.65 0 003.25.74c6.08 0 11-7.45 11-16.64-.05-7.65-3.48-14.06-8.1-16.02z"/><path id="border-2" data-name="border" d="M446.38 253.1c0-.91.08-1.81.08-2.73 0-30.51-21.06-55.25-47-55.25s-47 24.74-47 55.25c0 1.11 0 2.21.1 3.31-4 2.46-6.9 8.44-6.9 15.43 0 9.19 4.93 16.64 11 16.64a7.47 7.47 0 002.1-.31c.82 24.5 18.74 44.08 40.73 44.08s40.12-19.81 40.74-44.5a7.65 7.65 0 003.25.74c6.08 0 11-7.45 11-16.64-.05-7.65-3.48-14.06-8.1-16.02z" fill="none" stroke="#231f20" stroke-linecap="round" stroke-linejoin="round" stroke-width="6"/><path class="cls-15" d="M447.62 223c-7.83-24.39-17.5-20.77-26.5-27.9-8.82-7-20.63-5.12-21.1-5-.48-.08-12.28-1.94-21.1 5-9 7.13-18.67 3.51-26.5 27.9s-6.83 31.39-4 32.56 5.67-5.5 7 1.5c0 0 2.83 2.34 4-4.08s4-28.92 9-31.59 19.67 0 31.58 0c11.91 0 26.59-2.66 31.58 0s7.83 25.17 9 31.59 4 4.08 4 4.08c1.33-7 4.17-.33 7-1.5s3.88-8.15-3.96-32.56z"/><path class="cls-5" d="M368.32 216.5l30.1 1.36a11 11 0 003.17 0l30.1-1.36a2 2 0 012.07 1.85 2 2 0 01-2.07 1.85l-30.1 1.36a11 11 0 01-3.17 0l-30.1-1.36a2 2 0 01-2.07-1.85 2 2 0 012.07-1.85z"/><path class="cls-15" d="M360.09 231.58s5.63-7.94 15-7.5c8.38.39 10.21-6.5 13.79-8s11.51-2.17 6.48-4.83-28.19.42-28.19.42-7.28 15.33-7.08 19.91zm83.6-2.99s-4.44-5.72-11.83-5.41c-6.61.28-8-4.69-10.87-5.77s-9.07-1.56-5.11-3.48 22.23.3 22.23.3 5.74 11.09 5.58 14.36z"/></g></svg>