<svg id="player" xmlns="http://www.w3.org/2000/svg" viewBox="0 0 800 800"><defs><style>.cls-1{fill:#efc7b0}.cls-2{fill:#2d2d2d}.cls-3{fill:#fff}.cls-4{fill:#e21f26}.cls-5{fill:#007366}.cls-6{fill:#f1f2f2}.cls-7{fill:#00a79d}.cls-8{fill:#3d55a5}</style></defs><g id="skin"><path id="arm-left" class="cls-1" d="M305.93 392h36.78v72.38a18.39 18.39 0 01-18.39 18.39 18.39 18.39 0 01-18.39-18.39V392z"/><path id="arm-right" class="cls-1" d="M457.19 392H494v72.38a18.39 18.39 0 01-18.39 18.39 18.39 18.39 0 01-18.39-18.39V392h-.03z"/><path id="leg-left" class="cls-1" d="M349.88 501.99h45.67v45.67h-45.67z"/><path id="leg-right" class="cls-1" d="M404.78 501.99h45.67v45.67h-45.67z"/></g><g id="boots"><path id="left" class="cls-2" d="M395.54 568.09h-22.83l-22.83 1.97h-12.5l-7.5 2.53-5.25 8.5v9.83l1.91 4.17 3.84 4.05 6.33 1.95h58.83v-33z"/><path id="right" class="cls-2" d="M404.67 568.09h22.83l22.83 1.97h12.5l7.5 2.53 5.25 8.5v9.83l-1.91 4.17-3.84 4.05-6.33 1.95h-58.83v-33z"/><g id="details"><path class="cls-3" d="M394.92 581.08s-54.42 4.84-32.38 20h33z" id="left-2" data-name="left"/><path class="cls-3" d="M405 581.08s54.42 4.84 32.38 20h-33z" id="right-2" data-name="right"/></g></g><g id="socks"><path id="left-3" data-name="left" class="cls-4" d="M349.88 520.91h45.67v48.04h-45.67z"/><path id="right-3" data-name="right" class="cls-4" d="M404.38 520.91h45.67v48.04h-45.67z"/></g><path id="shorts" class="cls-4" d="M341.67 451.77h116.49v45.55a9.8 9.8 0 01-9.8 9.8h-96.88a9.8 9.8 0 01-9.8-9.8v-45.55h-.01z"/><g id="shirt"><path id="shirt-2" data-name="shirt" class="cls-4" d="M369.5 324.77l-48.29 2.99-11.36 6.25-6.83 10.1-3.31 40.73 5.17 7.67 7.66 4.66h29.5l.17 54h114.83v-53.5l29.34-.16 7.01-4 6.99-10.5-3.4-37.34-6.83-11.83-9.77-6.08-49.84-2.99-1 21.24-6.5 6.5-11.16 3.48-11.88 2.02-15.46-3.17-11-5.67-3.66-3.83-.38-20.57z"/><g id="details-2" data-name="details"><path class="cls-3" d="M377.69 351.27l-6.85-4.54v-22l-6.76.46v22.2a9 9 0 004.78 7.95 99 99 0 0012.87 5.45 1.57 1.57 0 001.89-.72l3.64-6.54zm58.12-26.05l-6.52-.44-.13.12v21.76l-.05.1-6.78 4.49-22.21 5.31a.12.12 0 00-.08.07l-8.12-1.94-3.47 6.25a1.58 1.58 0 001 2.29 70.54 70.54 0 0010.55 2.05c10.59-1.13 24.12-6.22 31.1-9.9a9 9 0 004.78-7.95v-22.09z" id="neck"/><g id="crest-liverpool-2003"><path class="cls-3" d="M406.36 379h-12.5a1.29 1.29 0 00-1.29 1.29 3.25 3.25 0 001.23 2.55v5.76a8.64 8.64 0 001.29 4.51 2.08 2.08 0 001.66 3.33h1.62l.58.49a1.8 1.8 0 002.33 0l.58-.49h1.65a2.08 2.08 0 001.65-3.35 8.64 8.64 0 001.28-4.49v-5.76a3.25 3.25 0 001.23-2.55 1.29 1.29 0 00-1.31-1.29zm-1.21 2.79l-.31.16v6.65a7 7 0 01-1.54 4.4l-.57.7.88.2a.5.5 0 01-.11 1h-2.23l-1 .87a.22.22 0 01-.28 0l-1-.87h-2.21a.5.5 0 01-.12-1l.86-.21-.56-.69a7 7 0 01-1.55-4.38V382l-.31-.16a1.68 1.68 0 01-.89-1.21H406a1.68 1.68 0 01-.85 1.17z"/><path class="cls-5" d="M393.87 380h12.5a.27.27 0 01.27.27 2.25 2.25 0 01-2.25 2.25h-8.54a2.25 2.25 0 01-2.25-2.25.27.27 0 01.27-.27z"/><path class="cls-4" d="M403.85 382.38a2.33 2.33 0 01-2.12 0l-1.29-.66a.66.66 0 00-.6 0l-1.29.66a2.33 2.33 0 01-2.12 0l-1-.5a.42.42 0 00-.62.38v6.51a7.54 7.54 0 002.65 5.74l2.14 1.82a.78.78 0 001 0l2.14-1.82a7.54 7.54 0 002.65-5.74v-6.51a.42.42 0 00-.62-.38z"/><path class="cls-3" d="M395.77 386.5v1.5a6.32 6.32 0 002.22 4.81l1.79 1.52a.65.65 0 00.85 0l1.79-1.52a6.32 6.32 0 002.22-4.81v-1.5a.67.67 0 00-.67-.67h-7.53a.67.67 0 00-.67.67z"/><rect class="cls-3" x="395.64" y="383.66" width="8.88" height="1.6" rx=".8" ry=".8"/><path class="cls-4" d="M401.34 387.53a.25.25 0 00-.4.17 4.73 4.73 0 01-1.83 2.9 3.1 3.1 0 01.28-1.2 2 2 0 000-1.63.57.57 0 01-.06-.2c0-.46-.6-.61-.91 0a.41.41 0 01-.22.19c-.15.05-.34.13-.31.17s0 .05 0 .07.12 0 .48 0h.09c.31-.09.3.22.32.22a1.36 1.36 0 010 1c-.11.26-.88 2.17-.39 2.59h.08c2.13.81 2.86.25 3 0l.17-.18c1.87-1.87.46-3.45-.3-4.1z"/><rect class="cls-5" x="395.69" y="393.31" width="8.88" height="2.12" rx="1.06" ry="1.06" transform="rotate(-180 400.125 394.375)"/></g><rect id="brand-reebok" class="cls-3" x="392.55" y="371.21" width="15.13" height="1.83" rx=".92" ry=".92"/><path id="sponsor-carlsberg" class="cls-3" d="M430.65 425.55l-59.82 3.92a9 9 0 01-9.62-9v-7.85a9 9 0 019.62-9l59.82 3.92a9 9 0 018.44 9 9 9 0 01-8.44 9.01z"/><g id="epl-logo-r"><path class="cls-6" d="M499.82 365.24a3.57 3.57 0 01-2.66 4.23 4.8 4.8 0 01-4.67-3l-5.06-12.2a2.83 2.83 0 012.3-4.06l3.92-.58a3.81 3.81 0 014.31 3.2z"/><path class="cls-7" d="M499.48 363c.31 2.06-.58 3.92-2 4.13s-3.19-1.2-4-3.13l-3.3-7.89a2.82 2.82 0 012.29-4.06l1.47-.22a3.81 3.81 0 014.31 3.2z"/><path class="cls-8" d="M498.44 360.23c.31 2.06-.16 3.86-1 4s-2.25-1.34-3.05-3.26l-1-2.36c-.81-1.93-.19-3.69 1.36-3.92s3.08 1.27 3.38 3.33z"/></g><g id="epl-logo-r-2" data-name="epl-logo-r"><path class="cls-6" d="M300.27 365.24a3.57 3.57 0 002.66 4.23 4.8 4.8 0 004.67-3l5.06-12.2a2.83 2.83 0 00-2.3-4.06l-3.92-.58a3.81 3.81 0 00-4.31 3.2z"/><path class="cls-7" d="M300.6 363c-.31 2.06.58 3.92 2 4.13s3.19-1.2 4-3.13l3.3-7.89a2.82 2.82 0 00-2.29-4.06l-1.47-.22a3.81 3.81 0 00-4.31 3.2z"/><path class="cls-8" d="M301.65 360.23c-.31 2.06.16 3.86 1 4s2.25-1.34 3.05-3.26l1-2.36c.81-1.93.19-3.69-1.36-3.92s-3.08 1.27-3.38 3.33z"/></g></g></g><path id="neck-2" data-name="neck" fill="#cea28b" d="M430.54 347.75l-31.19 12.79-29.85-12.79v-22.98h61.04v22.98z"/><path d="M502.88 378.39L500.41 348c-1.19-11.87-11.83-22.25-23.72-23.14l-37.14-2.71c-4.07-.45-20.52-.09-39.55.53-19-.62-35.48-1-39.55-.53l-37.14 2.71c-11.89.89-22.53 11.27-23.72 23.14l-2.47 30.36a20.15 20.15 0 005 15.74 19.92 19.92 0 001.69 1.64v66.36c0 12.81 9.32 23.22 20.78 23.22a19.8 19.8 0 0015.21-7.42v19.57a12.23 12.23 0 007.74 11.36v58.26h-5.93c-10.93 0-19.83 5.8-19.83 17.11 0 8.06 0 17 11.72 19.7v1.6a1.38 1.38 0 001.38 1.38h1.63a1.38 1.38 0 001.38-1.37v-.95c1.16.09 2.39.15 3.73.15h1.89v.8a1.38 1.38 0 001.38 1.38h1.63a1.38 1.38 0 001.38-1.37v-.8h5.62v.8a1.38 1.38 0 001.38 1.38h1.63a1.38 1.38 0 001.38-1.37v-.8h5.62v.8a1.38 1.38 0 001.38 1.38h1.63a1.38 1.38 0 001.38-1.37v-.8h5.62v.8a1.38 1.38 0 001.38 1.38h1.63a1.38 1.38 0 001.38-1.37v-.8h5.62v.8a1.38 1.38 0 001.38 1.38h1.63a1.38 1.38 0 001.38-1.37v-.8h5.62v.8a1.38 1.38 0 001.38 1.38h1.63a1.38 1.38 0 001.38-1.37v-.81l.06-55.45v-39.53h4v39.49l.06 54.67v1.6a1.38 1.38 0 001.38 1.38h1.63a1.38 1.38 0 001.38-1.37v-.8h5.62v.8a1.38 1.38 0 001.38 1.38h1.63a1.38 1.38 0 001.38-1.37v-.8h5.62v.8a1.38 1.38 0 001.38 1.38h1.63a1.38 1.38 0 001.38-1.37v-.8h5.62v.8a1.38 1.38 0 001.38 1.38h1.63a1.38 1.38 0 001.38-1.37v-.8h5.62v.8a1.38 1.38 0 001.38 1.38h1.63a1.38 1.38 0 001.38-1.37v-.8h5.62v.8a1.38 1.38 0 001.38 1.38h1.63a1.38 1.38 0 001.38-1.37v-.8h1.89c1.33 0 2.57-.05 3.72-.15v.95a1.38 1.38 0 001.38 1.38h1.63a1.38 1.38 0 001.38-1.37v-1.6c11.71-2.68 11.72-11.64 11.72-19.7 0-11.3-8.89-17.11-19.83-17.11h-5.93v-58.33a12.23 12.23 0 007.74-11.36v-19.57a19.8 19.8 0 0015.21 7.42c11.46 0 20.78-10.42 20.78-23.22v-66.36a19.92 19.92 0 001.69-1.64 20.15 20.15 0 004.99-15.75zm-130.49-46.17c3.46 1.84 15.64 2.07 27.61 1.79 12 .28 24.15 0 27.61-1.79V344c0 4.8-22.42 12-27.23 12l-.38-.08-.38.08c-4.8 0-27.23-7.19-27.23-12zm-33 75.43v55c0 9.5-6.63 17.22-14.78 17.22s-14.78-7.73-14.78-17.22v-62.78a21.08 21.08 0 007.47 1.36h22.09zm52.9 191.48h-50.64c-14.22 0-14.22-5-14.22-14.89 0-8.21 6.38-11.5 14.22-11.5h11.67l38.93-2.74.06 15.37zm-38.74-76.4h38.67v41.71l-38.67 2.68h-.26v-44.4zm-.26-5.74v-7.26h38.94V517h-38.91zm104.77 55.75h.26c7.84 0 14.22 3.29 14.22 11.5 0 9.91 0 14.89-14.22 14.89h-50.64v-13.7l.06-15.37 38.93 2.69h11.42zm-11.67-50h.26v44.4h-.26l-38.67-2.68v-41.73zM407.75 517v-7.21h38.95V517h-38.95zm46.84-61.84h-.07v42.35a6.6 6.6 0 01-6.58 6.58h-1.26L403 504s-.11-3.73-.16-8.75v-2.79c0-3.51-1.41-5.09-2.82-5-1.41-.09-2.82 1.49-2.82 5v2.79c0 5-.16 8.75-.16 8.75H352.1a6.6 6.6 0 01-6.58-6.58v-42.27h-.07v-.33l30.24.33h48.69l30.24-.33zm35.57 7.51c0 9.5-6.63 17.22-14.78 17.22s-14.78-7.73-14.78-17.22v-61.44h22.09a21.08 21.08 0 007.47-1.36zm6-77.21a13.53 13.53 0 01-6 7.29 14.69 14.69 0 01-7.47 2l-22.09.09v-20.15c0-5.56-6.07-5.94-6.07 0s.07 14.37.07 14.37v59.59H345.41V389s.07-8.46.07-14.37-6.07-5.54-6.07 0v20.17l-22.09-.09a14.69 14.69 0 01-7.47-2 13.53 13.53 0 01-6-7.29 14.89 14.89 0 01-.75-6.46l2.47-30.36c.89-9 9.23-17.08 18.2-17.75l11.12-.83 32.22-2.29c.68.54.48 17.49.48 17.49 0 8.43 23.34 15.29 31.77 15.29h1.3c8.43 0 31.77-6.86 31.77-15.29 0 0-.2-16.95.48-17.49l32.22 2.29 11.12.83c9 .67 17.3 8.8 18.2 17.75l2.45 30.4a14.89 14.89 0 01-.75 6.45z" id="border"/><g id="head"><path d="M400.06 201.08a74.9 74.9 0 0110.08 1.66s10.38 1.83 12.52 5c0 0 9.31 3 10.64 6.67 0 0 9.75 9.34 10.71 13.5 0 0 6.29 13.16 7 19.83 0 0 2.5 15.67-5.67 15.67 0 0-.84 1.23-1.88 1.23-.63 0-1.33-.45-2-1.9-1.67-3.83-6-19.5-6.33-24.33-.11-1.61-2.82-2.15-6.8-2.15-7.94 0-20.91 2.14-28.28 2.15-7.37 0-20.34-2.15-28.28-2.15-4 0-6.69.54-6.8 2.15-.33 4.83-4.67 20.5-6.33 24.33-.63 1.45-1.33 1.9-2 1.9-1 0-1.88-1.23-1.88-1.23-8.17 0-5.67-15.67-5.67-15.67.67-6.67 7-19.83 7-19.83 1-4.16 10.71-13.5 10.71-13.5 1.33-3.67 10.64-6.67 10.64-6.67 2.14-3.17 12.52-5 12.52-5a74.9 74.9 0 0110.04-1.65m0-6a6 6 0 00-1.2.12h-.39a68.91 68.91 0 00-9.76 1.64c-4.13.75-10.77 2.39-14.54 5.65-4.09 1.46-9.76 4.13-12.24 8.26-4 3.86-9.87 10.2-11.44 15-1.26 2.68-6.52 14.19-7.29 21.2-.49 3.16-1.53 13 3.27 18.64a10.69 10.69 0 005.62 3.48 7.71 7.71 0 004.61 1.55c1.52 0 5.3-.54 7.46-5.5 1.6-3.69 5-15.76 6.33-22.85h1.3c3.74 0 9 .55 14.06 1.07 5.28.55 10.26 1.07 14.17 1.07h.1c3.92 0 8.92-.52 14.22-1.08 5.07-.53 10.32-1.07 14.06-1.07h1.3c1.3 7.09 4.73 19.16 6.33 22.85 2.16 5 5.94 5.5 7.46 5.5a7.71 7.71 0 004.61-1.55 10.69 10.69 0 005.62-3.48c2.37-2.78 3.6-6.92 3.67-12.32a42.09 42.09 0 00-.4-6.3c-.77-7-6-18.53-7.29-21.22-1.57-4.78-7.49-11.12-11.44-15-2.48-4.13-8.15-6.8-12.24-8.26-3.77-3.26-10.41-4.9-14.54-5.65a68.91 68.91 0 00-9.76-1.64h-.42a6 6 0 00-1-.11z" fill="#231f20"/><path id="skin-2" data-name="skin" class="cls-1" d="M446.38 263.07c0-.91.08-1.81.08-2.73 0-30.51-21.06-55.25-47-55.25s-47 24.74-47 55.25c0 1.11 0 2.21.1 3.31-4 2.46-6.9 8.44-6.9 15.43 0 9.19 4.93 16.64 11 16.64a7.47 7.47 0 002.1-.31c.82 24.5 18.74 44.08 40.73 44.08s40.12-19.81 40.74-44.5a7.65 7.65 0 003.25.74c6.08 0 11-7.45 11-16.64-.05-7.65-3.48-14.09-8.1-16.02z"/><path id="border-2" data-name="border" d="M446.38 263.07c0-.91.08-1.81.08-2.73 0-30.51-21.06-55.25-47-55.25s-47 24.74-47 55.25c0 1.11 0 2.21.1 3.31-4 2.46-6.9 8.44-6.9 15.43 0 9.19 4.93 16.64 11 16.64a7.47 7.47 0 002.1-.31c.82 24.5 18.74 44.08 40.73 44.08s40.12-19.81 40.74-44.5a7.65 7.65 0 003.25.74c6.08 0 11-7.45 11-16.64-.05-7.65-3.48-14.09-8.1-16.02z" fill="none" stroke="#231f20" stroke-linecap="round" stroke-linejoin="round" stroke-width="6"/><path d="M451 247.75c-.67-6.67-7-19.83-7-19.83-1-4.16-10.71-13.5-10.71-13.5-1.33-3.67-10.64-6.67-10.64-6.67-2.14-3.17-12.52-5-12.52-5a74.9 74.9 0 00-10.08-1.66 74.9 74.9 0 00-10.08 1.66s-10.38 1.83-12.52 5c0 0-9.31 3-10.64 6.67 0 0-9.75 9.34-10.71 13.5 0 0-6.29 13.16-7 19.83 0 0-2.5 15.67 5.67 15.67 0 0 2.17 3.17 3.83-.67s6-19.5 6.33-24.33 24 0 35.08 0c11.06 0 34.75-4.83 35.08 0s4.67 20.5 6.33 24.33 3.83.67 3.83.67c8.23-.01 5.75-15.67 5.75-15.67z" fill="#936a4e"/></g></svg>