<svg id="player" xmlns="http://www.w3.org/2000/svg" viewBox="0 0 800 800"><defs><style>.cls-1{fill:#c89b84}.cls-2{fill:#d1d3d4}.cls-4{fill:#fff}.cls-5{fill:#02a64f}.cls-6{fill:#414042}.cls-7{fill:#231f20}.cls-9{fill:#341e11}</style></defs><g id="skin"><path id="arm-left" class="cls-1" d="M305.93 387h36.78v72.4a18.39 18.39 0 01-18.39 18.39 18.39 18.39 0 01-18.39-18.39V387z"/><path id="arm-right" class="cls-1" d="M457.19 387H494v72.4a18.39 18.39 0 01-18.39 18.39 18.39 18.39 0 01-18.39-18.39V387z"/><path id="leg-left" class="cls-1" d="M349.88 497.02h45.67v45.67h-45.67z"/><path id="leg-right" class="cls-1" d="M404.78 497.02h45.67v45.67h-45.67z"/></g><g id="boots"><path id="left" class="cls-2" d="M395.33 575.04H372.5l-22.83 1.97h-12.5l-7.5 2.53-5.25 8.5v9.83l1.91 4.17 3.84 4.05 6.33 1.95h58.83v-33z"/><path id="right" class="cls-2" d="M404.61 575.27h22.83l22.83 1.97h12.5l7.5 2.53 5.25 8.5v9.83l-1.91 4.17-3.84 4.05-6.33 1.95h-58.83v-33z"/><path d="M395.54 580s-48.68 20.54-48.62 28.27H353l42.56-23.08zm0 10.5s-33 13.14-33.21 17.54l7.4.08s24.12-12.87 25.81-12.87zm-22.75-13.75s-44.87 21.69-47.55 19.44.38-5.69.38-5.69 35.12-14.37 39.87-14.62a17.36 17.36 0 017.3.87zm31.99 3.25s48.68 20.54 48.62 28.27h-6.06l-42.56-23.08zm0 10.5s33 13.14 33.21 17.54l-7.4.08s-24.12-12.87-25.81-12.87zm22.75-13.75s44.87 21.69 47.55 19.44-.37-5.69-.37-5.69-35.12-14.37-39.87-14.62a17.36 17.36 0 00-7.31.87z" fill="#efd96c" id="details"/></g><g id="socks"><g id="socks-2" data-name="socks"><path id="left-2" data-name="left" class="cls-4" d="M349.88 527h45.67v48.04h-45.67z"/><path id="right-2" data-name="right" class="cls-4" d="M404.38 527h45.67v48.04h-45.67z"/></g></g><g id="shorts"><path id="shorts-2" data-name="shorts" class="cls-4" d="M341.67 447.54h116.49v47a9.95 9.95 0 01-9.95 9.95h-96.6a9.95 9.95 0 01-9.95-9.95v-47z"/></g><g id="shirt"><path id="shirt-2" data-name="shirt" class="cls-4" d="M369.5 319.8l-48.29 2.99-11.36 6.25-6.83 10.1-3.31 40.73 5.17 7.67 7.66 4.67h29.5l.17 54h114.83v-53.5l29.34-.17 7.01-4 6.99-10.5-3.4-37.33-6.83-11.84-9.77-6.08-49.84-2.99-1 21.24-6.5 6.5-11.16 3.48-11.88 2.02-15.46-3.17-11-5.66-3.66-3.84-.38-20.57z"/><g id="details-2" data-name="details"><path class="cls-5" d="M300.75 365.43h35.49a6.47 6.47 0 016.47 6.47v9.1h-38.43a3.53 3.53 0 01-3.53-3.53v-12.04zm4.4-26.29h34.63a7 7 0 017 7v1.51a7 7 0 01-7 7H304.9a3.19 3.19 0 01-3.19-3.19v-9a3.44 3.44 0 013.44-3.44zm51.74-7.29h-43.36a2.73 2.73 0 01-2.73-2.73c0-5.15 4.21-6.88 9.36-6.88l36.72-2.45a6 6 0 016 6 6 6 0 01-5.99 6.06z" id="arm-l"/><g id="arm-r"><path class="cls-5" d="M460.73 365.43h38.43v9.12a6.47 6.47 0 01-6.47 6.47h-35.48V369a3.53 3.53 0 013.52-3.57z" transform="rotate(-180 478.185 373.225)"/><path class="cls-5" d="M456.28 339.14h34.88a7 7 0 017 7v1.51a7 7 0 01-7 7h-34.62a3.44 3.44 0 01-3.44-3.44v-9a3.19 3.19 0 013.18-3.07z" transform="rotate(180 475.65 346.93)"/><path class="cls-5" d="M443 331.85h43.36a2.73 2.73 0 002.73-2.73c0-5.15-4.21-6.88-9.36-6.88L443 319.8a6 6 0 00-6 6 6 6 0 006 6.05z"/></g><path class="cls-5" d="M342.71 430.61h114.48v15.59H342.71zm0-26.92h114.48v15.59H342.71zm0-26.93h114.48v15.59H342.71zm11.4-11.33h91.68a6.56 6.56 0 006.56-6.56 9 9 0 00-9-9h-5.45a11.66 11.66 0 00-6.1 1.86 9.31 9.31 0 01-2 .93c-6.63 2.16-21.81 7.4-27.53 9.38a6.83 6.83 0 01-4.47 0c-5.72-2-20.9-7.22-27.53-9.38a9.31 9.31 0 01-2-.93 11.66 11.66 0 00-6.1-1.86h-5.6a9 9 0 00-9 9 6.56 6.56 0 006.54 6.56z" id="chest"/><path id="neck" class="cls-4" d="M431.62 318.69L400 343.9l-31.58-25.21h-4.62v25.05a9.34 9.34 0 006.44 8.88c6.63 2.16 21.81 7.4 27.53 9.38a6.83 6.83 0 004.47 0c5.72-2 20.9-7.22 27.53-9.38a9.34 9.34 0 006.44-8.88v-25.05z"/><g id="crest-celtic-06"><path class="cls-6" d="M400 372.81a8.75 8.75 0 108.75 8.75 8.76 8.76 0 00-8.75-8.75zm0 15.9a7.15 7.15 0 117.15-7.15 7.16 7.16 0 01-7.15 7.15z"/><circle class="cls-4" cx="400" cy="381.56" r="7.73"/><path class="cls-5" d="M400 374.88a6.68 6.68 0 106.68 6.68 6.68 6.68 0 00-6.68-6.68zm0 11.83a5.16 5.16 0 115.16-5.16 5.16 5.16 0 01-5.16 5.17z"/><path class="cls-5" d="M402.48 381.22h-.32.32a1 1 0 00.44-.35 1.7 1.7 0 00-.21-2.15 1.7 1.7 0 00-2.15-.21 1 1 0 00-.35.44v.09a.12.12 0 11-.06 0v-.09a1 1 0 00-.35-.44 1.7 1.7 0 00-2.15.21 1.7 1.7 0 00-.21 2.15 1 1 0 00.44.35h.32-.32a1 1 0 00-.44.35 1.7 1.7 0 00.21 2.15 1.7 1.7 0 002.15.21h.07a2.71 2.71 0 01-.22.95.32.32 0 00.58.28 3.47 3.47 0 00.3-1.28l.12.1a1.7 1.7 0 002.15-.21 1.7 1.7 0 00.21-2.15 1 1 0 00-.53-.4z"/><circle class="cls-6" cx="400" cy="369.79" r="1.62"/></g><g id="sponsor-carling"><path class="cls-6" d="M426.18 412.61l-53.25 12.06c-2.44.55-4.6-1.93-4.18-4.8l2.07-14.12a3.92 3.92 0 012.83-3.39l53.25-12.06c2.44-.55 4.6 1.93 4.18 4.8L429 409.22a3.92 3.92 0 01-2.82 3.39z"/><path class="cls-4" d="M377.81 414.76a2.26 2.26 0 01-1.87-2 2.47 2.47 0 011.68-2.87l43.82-9.64a2.14 2.14 0 012.45 2 2.47 2.47 0 01-1.68 2.87l-43.82 9.64a1.78 1.78 0 01-.58 0z"/></g><g id="logo-champions-league"><ellipse class="cls-4" cx="307.08" cy="355.93" rx="10.84" ry="7.51" transform="rotate(-80.95 307.059 355.93)"/><ellipse class="cls-4" cx="307.08" cy="355.93" rx="8.95" ry="6.21" transform="matrix(.16 -.99 .99 .16 -92.74 603.18)"/><path class="cls-7" d="M305.56 365.45c-3.64-.58-5.92-5.32-5.08-10.57s4.48-9 8.11-8.47 5.92 5.32 5.08 10.57-4.47 9.02-8.11 8.47zm2.82-17.68c-3.12-.5-6.24 2.76-7 7.26s1.24 8.57 4.36 9.07 6.24-2.76 7-7.26-1.24-8.58-4.36-9.07z"/><path class="cls-7" d="M308.06 353l.18 1a.63.63 0 00.35.51l.74.28c.44.17.5 1 .09 1.42l-.67.69a1.06 1.06 0 00-.27.69v1.11c0 .67-.58 1.1-.94.72l-.6-.63a.42.42 0 00-.52-.08l-.76.41c-.46.25-.86-.33-.67-1l.3-1.07a1.06 1.06 0 000-.74l-.43-.86c-.26-.52.06-1.3.53-1.32h.79a.63.63 0 00.49-.37l.5-.94c.19-.56.78-.46.89.18z"/></g><path id="nike" class="cls-6" d="M371.81 370.66c0 1.19-1.57 2.17-3.49 2.17h-9.26c-1.92 0-3.49-1-3.49-2.17s1.57-2.17 3.49-2.17h9.26c1.92 0 3.49.98 3.49 2.17z"/></g></g><path id="neck-2" data-name="neck" fill="#a37d6c" d="M427.63 345.26l-27.59 8.62-28.6-9.62-1.92-23.62h61.04l-2.93 24.62z"/><path d="M502.88 373.43l-2.47-30.36c-1.19-11.87-11.83-22.25-23.72-23.14l-37.14-2.71c-4.07-.45-20.52-.09-39.55.53-19-.62-35.48-1-39.55-.53l-37.14 2.71c-11.89.89-22.53 11.27-23.72 23.14l-2.47 30.36a20.15 20.15 0 005 15.74 19.92 19.92 0 001.69 1.64v66.36c0 12.81 9.32 23.22 20.78 23.22a19.8 19.8 0 0015.25-7.39v21.79a12.23 12.23 0 007.74 11.36v68h-5.93c-10.93 0-19.83 5.8-19.83 17.11 0 8.06 0 17 11.72 19.7v1.6a1.38 1.38 0 001.38 1.38h1.63a1.38 1.38 0 001.38-1.37v-.95c1.16.09 2.39.15 3.73.15h1.89v.8a1.38 1.38 0 001.38 1.38h1.63a1.38 1.38 0 001.38-1.37v-.8h5.62v.8a1.38 1.38 0 001.38 1.38h1.63a1.38 1.38 0 001.38-1.37v-.8h5.62v.8a1.38 1.38 0 001.38 1.38h1.63a1.38 1.38 0 001.38-1.37v-.8h5.62v.8a1.38 1.38 0 001.38 1.38h1.63a1.38 1.38 0 001.38-1.37v-.8h5.62v.8a1.38 1.38 0 001.38 1.38h1.63a1.38 1.38 0 001.38-1.37v-.8h5.62v.8a1.38 1.38 0 001.38 1.38h1.63a1.38 1.38 0 001.38-1.37v-.81l.06-55.45V507h4v49.21l.06 54.67v1.6a1.38 1.38 0 001.38 1.38h1.63a1.38 1.38 0 001.38-1.37v-.8h5.62v.8a1.38 1.38 0 001.38 1.38h1.63a1.38 1.38 0 001.38-1.37v-.8h5.62v.8a1.38 1.38 0 001.38 1.38h1.63a1.38 1.38 0 001.38-1.37v-.8h5.62v.8a1.38 1.38 0 001.38 1.38h1.63a1.38 1.38 0 001.38-1.37v-.8h5.62v.8a1.38 1.38 0 001.38 1.38h1.63a1.38 1.38 0 001.38-1.37v-.8h5.62v.8a1.38 1.38 0 001.38 1.38h1.63a1.38 1.38 0 001.38-1.37v-.8h1.89c1.33 0 2.57-.05 3.72-.15v.95a1.38 1.38 0 001.38 1.38h1.63a1.38 1.38 0 001.38-1.37v-1.6c11.71-2.68 11.72-11.64 11.72-19.7 0-11.3-8.89-17.11-19.83-17.11h-5.93v-68a12.23 12.23 0 007.74-11.36V473a19.8 19.8 0 0015.21 7.42c11.46 0 20.78-10.42 20.78-23.22v-66.39a19.92 19.92 0 001.69-1.64 20.15 20.15 0 004.95-15.74zm-130.49-46.18c3.46 1.84 15.64 2.07 27.61 1.79 12 .28 24.15 0 27.61-1.79V339c0 4.8-22.42 12-27.23 12l-.38-.08-.38.08c-4.8 0-27.23-7.19-27.23-12zm-33 75.43v55c0 9.5-6.63 17.22-14.78 17.22s-14.78-7.73-14.78-17.22V394.9a21.08 21.08 0 007.47 1.36h22.09zm52.9 203.42h-50.64c-14.22 0-14.22-5-14.22-14.89 0-8.21 6.38-11.5 14.22-11.5h11.67l38.93-2.71.06 15.37zm-38.74-76.4h38.67v41.7l-38.67 2.68h-.26V529.7zm-.26-5.74V507h38.94v17h-38.91zm104.77 55.75h.26c7.84 0 14.22 3.29 14.22 11.5 0 9.91 0 14.89-14.22 14.89h-50.64v-13.7l.06-15.37 38.93 2.69h11.42zm-11.67-50h.26v44.4h-.26l-38.67-2.68V529.7zM407.75 524v-17h38.95v17h-38.95zm46.84-73.77h-.07v44.58a6.6 6.6 0 01-6.58 6.58H403s-.11-3.73-.16-8.75v-2.79c0-3.51-1.41-5.09-2.82-5-1.41-.09-2.82 1.49-2.82 5v2.79c0 5-.16 8.75-.16 8.75H352.1a6.6 6.6 0 01-6.58-6.58v-44.63h-.07v-.33l30.24.33h48.69l30.24-.33zm35.57 7.51c0 9.5-6.63 17.22-14.78 17.22s-14.78-7.73-14.78-17.22v-61.48h22.09a21.08 21.08 0 007.47-1.36zm6-77.21a13.53 13.53 0 01-6 7.29 14.69 14.69 0 01-7.47 2l-22.09.09v-20.19c0-5.56-6.07-5.94-6.07 0s.07 14.37.07 14.37v59.59H345.41v-59.61s.07-8.46.07-14.37-6.07-5.54-6.07 0v20.11l-22.09-.09a14.69 14.69 0 01-7.47-2 13.53 13.53 0 01-6-7.29 14.89 14.89 0 01-.75-6.46l2.47-30.36c.89-9 9.23-17.08 18.2-17.75l11.12-.83 32.22-2.29c.68.54.48 17.49.48 17.49 0 8.43 23.34 15.29 31.77 15.29h1.3c8.43 0 31.77-6.86 31.77-15.29 0 0-.2-16.95.48-17.49l32.22 2.29 11.12.83c9 .67 17.3 8.8 18.2 17.75L496.9 374a14.89 14.89 0 01-.75 6.48z" id="border"/><g id="head"><path class="cls-9" d="M355.93 255.9s-7.39 9.6-3.58 34.68 25.57-.89 24.55-13.87-6.55-22.23-20.97-20.81z"/><path class="cls-7" d="M358.76 255.76c12.33 0 17.2 8.85 18.15 21 .71 9-9.64 24.39-17.27 24.39-3.32 0-6.13-2.91-7.29-10.52-3.81-25.07 3.58-34.68 3.58-34.68q1.47-.15 2.83-.14m0-6.4c-1 0-2.14.06-3.25.17a4.91 4.91 0 00-3.38 2c-.94 1.23-9.09 12.76-4.91 40.24 2.16 14.21 9.4 15.75 12.42 15.75 4.81 0 10.27-3.65 15-10 1.94-2.62 8.22-11.91 7.48-21.39-1.35-17.24-9.64-26.74-23.35-26.74z"/><path class="cls-9" d="M442.6 255.9s7.39 9.6 3.58 34.68-25.57-.89-24.55-13.87 6.56-22.23 20.97-20.81z"/><path class="cls-7" d="M439.78 255.76q1.35 0 2.83.14s7.39 9.6 3.58 34.68c-1.16 7.61-4 10.52-7.29 10.52-7.63 0-18-15.34-17.27-24.39.95-12.1 5.82-21 18.15-21m0-6.4c-13.71 0-22 9.5-23.35 26.74-.74 9.49 5.54 18.77 7.48 21.39 4.71 6.36 10.17 10 15 10 3 0 10.26-1.53 12.42-15.75 4.18-27.48-4-39-4.91-40.24a4.91 4.91 0 00-3.38-2c-1.11-.11-2.2-.17-3.25-.17z"/><path class="cls-7" d="M406.29 194.48c4.4 0 10.77 1.08 18 5.64 13.67 8.63 21.51 12.78 25.92 31.12s7.77 31.18 4.26 32a18.68 18.68 0 01-4.06.74c-1.94 0-3.62-.95-4.62-4.57a.68.68 0 00.19 0c.26 0 .27-.38-4.06-3.54-7.08-5.17-4.77-26.17-16.83-26.68s-14.74-3.67-19.7-3.67a17.29 17.29 0 00-5.43 1 34.78 34.78 0 01-5.94.52c-2.43 0-4.36-.25-6.54-.25-2.84 0-6.09.43-11.38 2.38-11.33 4.19-10.59 21.35-17.67 26.51-4.61 3.36-4.49 3.68-4.27 3.68h.11c-1 3.62-2.68 4.57-4.62 4.57a18.69 18.69 0 01-4.06-.74c-3.51-.83-.15-13.67 4.26-32s12.25-22.49 25.92-31.12c7.22-4.56 13.6-5.64 18-5.64a20.37 20.37 0 016.27.85 20.36 20.36 0 016.27-.85m0-6a29.37 29.37 0 00-6.27.64 29.37 29.37 0 00-6.27-.64 39.68 39.68 0 00-21.2 6.56l-1.91 1.2c-12.69 8-21.86 13.74-26.64 33.59l-.84 3.5c-4.92 20.38-6.48 27.67-3.61 32.35a7.45 7.45 0 004.64 3.4l.66.16a19.46 19.46 0 004.78.74c2.78 0 7.61-1 10-7.62.5-.4 1.25-1 2.35-1.77 4.44-3.24 6.43-8.61 8.35-13.8 2.35-6.32 4.16-10.57 7.86-11.94 4.78-1.77 7.3-2 9.3-2 .88 0 1.78.05 2.74.11 1.12.07 2.38.14 3.8.14a40.64 40.64 0 006.94-.6 6 6 0 00.87-.22 11.91 11.91 0 013.56-.72 13 13 0 013.9.9 52.86 52.86 0 0015.55 2.77c2.4.1 3.71 3.34 5.73 10.56 1.6 5.72 3.26 11.64 7.82 15 .9.66 1.55 1.15 2 1.51 2.36 6.67 7.22 7.71 10 7.71a19.46 19.46 0 004.78-.74l.66-.16a7.45 7.45 0 004.64-3.4c2.87-4.68 1.32-12-3.61-32.35l-.84-3.5c-4.77-19.84-13.95-25.61-26.64-33.59l-1.91-1.2a39.68 39.68 0 00-21.2-6.56z"/><path id="skin-2" data-name="skin" class="cls-1" d="M446.38 258.1c0-.91.08-1.81.08-2.73 0-30.51-21.06-55.25-47-55.25s-47 24.74-47 55.25c0 1.11 0 2.21.1 3.31-4 2.46-6.9 8.44-6.9 15.43 0 9.19 4.93 16.64 11 16.64a7.47 7.47 0 002.1-.31c.82 24.5 18.74 44.08 40.73 44.08s40.12-19.81 40.74-44.5a7.65 7.65 0 003.25.74c6.08 0 11-7.45 11-16.64-.05-7.65-3.48-14.06-8.1-16.02z"/><path id="border-2" data-name="border" d="M446.38 258.1c0-.91.08-1.81.08-2.73 0-30.51-21.06-55.25-47-55.25s-47 24.74-47 55.25c0 1.11 0 2.21.1 3.31-4 2.46-6.9 8.44-6.9 15.43 0 9.19 4.93 16.64 11 16.64a7.47 7.47 0 002.1-.31c.82 24.5 18.74 44.08 40.73 44.08s40.12-19.81 40.74-44.5a7.65 7.65 0 003.25.74c6.08 0 11-7.45 11-16.64-.05-7.65-3.48-14.06-8.1-16.02z" fill="none" stroke="#231f20" stroke-linecap="round" stroke-linejoin="round" stroke-width="6"/><path class="cls-9" d="M450.21 231.24c-4.41-18.34-12.25-22.49-25.92-31.12-13.37-8.44-23.82-4.94-24.27-4.79-.45-.16-10.9-3.66-24.27 4.79-13.67 8.63-21.51 12.78-25.92 31.12s-7.77 31.18-4.26 32 7 2.17 8.68-3.83c0 0-1.53.49 4.17-3.67 7.08-5.17 6.34-22.32 17.67-26.51 12.17-4.5 13.55-.91 23.86-2.65 9.64-3.17 9.44 2 25.14 2.65 12.07.51 9.75 21.51 16.83 26.68 5.7 4.16 3.87 3.5 3.87 3.5 1.67 6 5.17 4.67 8.68 3.83s.15-13.66-4.26-32z"/></g></svg>