<svg id="player" xmlns="http://www.w3.org/2000/svg" viewBox="0 0 800 800"><defs><style>.cls-1{fill:#1e3c4f}.cls-2{fill:#d1a18c}.cls-3{fill:#f0d0b4}.cls-4{fill:#fff}.cls-5{fill:#e01f26}.cls-7{fill:#c0bc7a}.cls-8{fill:#f1f2f2}.cls-9{fill:#bcbec0}.cls-10{fill:#00a79d}.cls-11{fill:#3d55a5}</style></defs><g id="skin"><path id="arm-left" class="cls-1" d="M305.93 382h36.78v72.4a18.39 18.39 0 01-18.39 18.39 18.39 18.39 0 01-18.39-18.39V382z"/><path id="arm-right" class="cls-1" d="M457.19 382H494v72.4a18.39 18.39 0 01-18.39 18.39 18.39 18.39 0 01-18.39-18.39V382h-.03z"/><path id="leg-left" class="cls-2" d="M349.88 492.02h45.67v45.67h-45.67z"/><path id="leg-right" class="cls-2" d="M404.78 492.02h45.67v45.67h-45.67z"/></g><g id="boots"><path id="left" class="cls-3" d="M395.54 570.04h-22.83l-22.83 1.97h-12.5l-7.5 2.53-5.25 8.5v9.83l1.91 4.17 3.84 4.05 6.33 1.95h58.83v-33z"/><path id="right" class="cls-3" d="M404.67 570.04h22.83l22.83 1.97h12.5l7.5 2.53 5.25 8.5v9.83l-1.91 4.17-3.84 4.05-6.33 1.95h-58.83v-33z"/><g id="details"><path class="cls-4" d="M370.34 605a2 2 0 01-2-1.86c-1.1-16.23 23.66-22.05 24.71-22.29a2 2 0 01.89 3.9c-.22.05-22.48 5.29-21.61 18.12a2 2 0 01-1.86 2.13z"/><path class="cls-4" d="M358.59 604.41h-.1a2 2 0 01-1.9-2.1c.52-10.26 6.85-18.49 18.31-23.78a60.61 60.61 0 0116.89-4.86 2 2 0 01.44 4c-.31 0-30.57 3.68-31.64 24.86a2 2 0 01-2 1.88zm-15.5 0a2 2 0 01-.46-.05 2 2 0 01-1.49-2.41c3.52-14.86 14-26 30.23-32.31a2 2 0 011.23-.63c1.88-.23 2.51.68 2.71 1.48.43 1.76-1.18 2.37-2.14 2.74C358 579 348.26 589.25 345 602.88a2 2 0 01-1.91 1.53zm-14.71-1.32a2 2 0 01-.46-.05 2 2 0 01-1.49-2.41c5-20.93 19.75-28.17 28.23-30.63a2 2 0 011-.32h.05a2 2 0 012.13 1.72c.26 1.76-1.42 2.24-2 2.4-7.62 2.18-21.07 8.69-25.58 27.75a2 2 0 01-1.88 1.54zm27.4-29.41zM429.63 605a2 2 0 002-1.86c1.1-16.23-23.66-22.05-24.71-22.29a2 2 0 00-.89 3.9c.22.05 22.48 5.29 21.61 18.12a2 2 0 001.86 2.13z"/><path class="cls-4" d="M441.38 604.41h.1a2 2 0 001.9-2.1c-.52-10.26-6.85-18.49-18.31-23.78a60.61 60.61 0 00-16.89-4.86 2 2 0 00-.44 4c.31 0 30.57 3.68 31.64 24.86a2 2 0 002 1.88zm15.5 0a2 2 0 00.46-.05 2 2 0 001.49-2.41c-3.52-14.86-14-26-30.23-32.31a2 2 0 00-1.23-.63c-1.88-.23-2.51.68-2.71 1.48-.43 1.76 1.18 2.37 2.14 2.74 15.18 5.77 24.91 16 28.14 29.64a2 2 0 001.94 1.54zm12.76-2.85c-4.51-19.06-18-25.57-25.58-27.75-.55-.16-2.24-.64-2-2.4a2 2 0 012.13-1.72h.05a2 2 0 011 .32c8.48 2.46 23.27 9.71 28.23 30.63A2 2 0 01472 603a2 2 0 01-.46.05 2 2 0 01-1.9-1.49zm-25.46-27.87z"/></g></g><g id="socks"><g id="socks-2" data-name="socks"><path id="left-2" data-name="left" class="cls-4" d="M349.96 520.27h45.67v51.42h-45.67z"/><path id="right-2" data-name="right" class="cls-4" d="M404.46 520.27h45.67v51.42h-45.67z"/></g><g id="details-2" data-name="details"><path id="left-3" data-name="left" class="cls-5" d="M349.83 530.7h45.67v4.39h-45.67z"/><path id="right-3" data-name="right" class="cls-5" d="M404.34 530.7h45.67v4.39h-45.67z"/></g></g><g id="shorts"><path id="shorts-2" data-name="shorts" class="cls-4" d="M341.63 442.54h116.49v47a9.95 9.95 0 01-9.95 9.95h-96.6a9.95 9.95 0 01-9.95-9.95v-47h.01z"/><g id="details-3" data-name="details"><path id="left-4" data-name="left" class="cls-5" d="M343.37 441.12h8.9v23.6a8.9 8.9 0 01-8.9 8.9v-32.5z"/><path id="right-4" data-name="right" class="cls-5" d="M447.64 441.12a8.9 8.9 0 018.9 8.9v23.6h-8.9v-32.5z" transform="rotate(-180 452.09 457.375)"/></g></g><g id="shirt"><path id="shirt-2" data-name="shirt" class="cls-5" d="M369.46 314.8l-48.29 2.99-11.36 6.25-6.83 10.1-3.31 40.73 5.16 7.67 7.67 4.67H342l.17 54H457v-53.5l29.33-.17 7.02-4 6.98-10.5-3.39-37.33-6.83-11.84-9.78-6.08-49.83-2.99-1 21.24-6.5 6.5-11.17 3.48-11.87 2.02-15.46-3.17-11-5.66-3.67-3.84-.37-20.57z"/><g id="details-4" data-name="details"><path id="neck" class="cls-4" d="M434.29 315.64h-3.86L429 336.75l-6.87 4.88-6.87 3.75L400 348l-15.33-2.67-6.87-3.75-6.87-4.87-1.4-21.11h-3.86l-1 15.59c0 4.56 2.25 10.82 6 13.38 5.52 3.73 15.88 8.14 29.31 8.14s23.8-4.41 29.31-8.14c3.78-2.55 6-8.82 6-13.38z"/><g id="arm-l"><path id="arm-l-2" data-name="arm-l" class="cls-4" d="M353 326.22c-2.08 5.12-13.66 21.86-10.36 38l-1 77.5-20.83.79-15.81-4.64-3.83-10.47c-2.27-6.53.72-48.9-.87-54.05l-.4-1.35 3.1-37.86 9.74-13.06 11.57-4.67 20.91-1.16a8 8 0 018.42 7.82 7.93 7.93 0 01-.64 3.15z"/><path class="cls-5" d="M305 434.39h37.66v6.73H305z"/></g><g id="arm-r"><path id="arm-r-2" data-name="arm-r" class="cls-4" d="M447.2 326.22c2.08 5.12 13.34 22.66 10.36 38l.56 76.88 28.67-.87 12-5.62 1-17.25-.49-28.5c2.37-6.85-1-10.37.59-15.52l.41-1.33-3.08-37.88-9.74-13.06-11.48-4.66-21-1.15a8 8 0 00-8.42 7.82 7.93 7.93 0 00.62 3.14z"/><path class="cls-5" transform="rotate(-180 475.98 437.76)" d="M457.15 434.39h37.66v6.73h-37.66z"/></g><g id="shirt-bottom"><path id="left-5" data-name="left" class="cls-4" d="M370.63 442.54h-4c0-25-23-34-24-34l.13-4c.24-.03 27.87 9.19 27.87 38z"/><path id="right-5" data-name="right" class="cls-4" d="M430.52 442.54h4c0-25 23-34 24-34l-.13-4c-.25-.03-27.87 9.19-27.87 38z"/></g><g id="crest-arsenal-02"><path d="M440 376.59l-4.21 3-4.21-3a9.87 9.87 0 01-4.34-8.05v-7.21a1.28 1.28 0 011.1-1.22l5.62-1a10.33 10.33 0 013.67 0l5.62 1a1.28 1.28 0 011.1 1.22v7.21a9.87 9.87 0 01-4.35 8.05z" fill="#291c4a"/><path class="cls-5" d="M438.64 376.69l-2.81 3-2.81-3a11.8 11.8 0 01-2.9-8.05v-7.21a1.21 1.21 0 01.73-1.22l3.75-1a4.65 4.65 0 012.45 0l3.75 1a1.21 1.21 0 01.73 1.22v7.21a11.8 11.8 0 01-2.89 8.05z"/><path class="cls-7" d="M435.83 359.85a9.43 9.43 0 011.67.15l5.62 1a.39.39 0 01.35.33v7.21a8.58 8.58 0 01-1 4.06 9.54 9.54 0 01-2.92 3.25l-3.69 2.59-3.69-2.59a9.54 9.54 0 01-2.92-3.25 8.58 8.58 0 01-1-4.06v-7.21a.39.39 0 01.35-.33l5.62-1a9.43 9.43 0 011.67-.15m0-.91a10.32 10.32 0 00-1.84.16l-5.62 1a1.28 1.28 0 00-1.1 1.22v7.21a9.87 9.87 0 004.34 8.05l4.21 3 4.21-3a9.87 9.87 0 004.34-8.05v-7.21a1.28 1.28 0 00-1.1-1.22l-5.62-1a10.32 10.32 0 00-1.84-.16z"/><path class="cls-7" d="M442.68 367.27a1.61 1.61 0 00-1.75-1.39l-10.25.31a1.62 1.62 0 00-1.69 1.56v.44a1.62 1.62 0 001.84 1.38l2.21-.16a3.29 3.29 0 00-.13.9v.06l-1.4 1.49a.85.85 0 000 1.21l.18.16a.85.85 0 001.2-.14l.69-.8a3.3 3.3 0 005.67-3.32l1.82-.13a1.61 1.61 0 001.61-1.57z"/><rect class="cls-4" x="430.97" y="362.55" width="9.64" height="1.7" rx=".85" ry=".85"/></g><path id="nike" class="cls-8" d="M371.73 367.79c0 1.19-1.57 2.17-3.49 2.17H359c-1.92 0-3.49-1-3.49-2.17s1.57-2.17 3.49-2.17h9.26c1.9.01 3.47.98 3.47 2.17z"/><g id="epl-logo-r"><path class="cls-8" d="M498.77 350.78a3.57 3.57 0 01-2.66 4.23 4.8 4.8 0 01-4.67-3l-5.06-12.2a2.83 2.83 0 012.3-4.06l3.92-.58a3.81 3.81 0 014.31 3.2z"/><path class="cls-9" d="M493.16 335.09a3.81 3.81 0 013.76 3.24l1.85 12.45a3.57 3.57 0 01-2.66 4.23 3 3 0 01-.45 0 5 5 0 01-4.22-3.06l-5.06-12.2a2.83 2.83 0 012.3-4.06l3.92-.58a3.79 3.79 0 01.56 0m0-1a4.81 4.81 0 00-.71.05l-3.92.58a3.82 3.82 0 00-3.08 5.44l5.06 12.2a5.92 5.92 0 005.15 3.68 4.05 4.05 0 00.59 0 4 4 0 002.81-1.9 5.11 5.11 0 00.69-3.47l-1.85-12.45a4.83 4.83 0 00-4.74-4.09z"/><path class="cls-10" d="M498.44 348.55c.31 2.06-.58 3.92-2 4.13s-3.19-1.2-4-3.13l-3.3-7.89a2.82 2.82 0 012.29-4.06l1.47-.22a3.81 3.81 0 014.31 3.2z"/><path class="cls-11" d="M497.4 345.77c.31 2.06-.16 3.86-1 4s-2.25-1.34-3.05-3.26l-1-2.36c-.81-1.93-.19-3.69 1.36-3.92s3.08 1.27 3.38 3.33z"/></g><g id="epl-logo-l"><path class="cls-8" d="M301.23 350.78a3.57 3.57 0 002.66 4.23 4.8 4.8 0 004.67-3l5.06-12.2a2.83 2.83 0 00-2.3-4.06l-3.92-.58a3.81 3.81 0 00-4.31 3.2z"/><path class="cls-9" d="M306.83 335.09a3.79 3.79 0 01.56 0l3.92.58a2.83 2.83 0 012.3 4.06L308.55 352a5 5 0 01-4.22 3.06 3 3 0 01-.45 0 3.57 3.57 0 01-2.66-4.23l1.85-12.45a3.81 3.81 0 013.76-3.24m0-1a4.83 4.83 0 00-4.74 4.09l-1.85 12.45a5.11 5.11 0 00.69 3.47 4 4 0 002.81 1.9 4.05 4.05 0 00.59 0 5.92 5.92 0 005.15-3.68l5.06-12.2a3.82 3.82 0 00-3.08-5.44l-3.92-.58a4.8 4.8 0 00-.7-.05z"/><path class="cls-10" d="M301.56 348.55c-.31 2.06.58 3.92 2 4.13s3.19-1.2 4-3.13l3.3-7.89a2.82 2.82 0 00-2.29-4.06l-1.47-.22a3.81 3.81 0 00-4.31 3.2z"/><path class="cls-11" d="M302.6 345.77c-.31 2.06.16 3.86 1 4s2.25-1.34 3.05-3.26l1-2.36c.81-1.93.19-3.69-1.36-3.92s-3.08 1.27-3.38 3.33z"/></g><path class="cls-4" d="M397.88 381.8a17.41 17.41 0 1017.41 17.41 17.43 17.43 0 00-17.41-17.41zm0 28.6a11.19 11.19 0 1111.19-11.19 11.2 11.2 0 01-11.19 11.19zm19.8 9.17H413a.83.83 0 01-.82-.84.92.92 0 01.37-.73c3-2.24 4-3.13 4-4.09 0-.71-.65-1.06-1.32-1.06a2.91 2.91 0 00-1.67.5.84.84 0 01-.5.16.77.77 0 01-.76-.78.64.64 0 01.11-.35 3.78 3.78 0 012.78-1.06c1.73 0 3.11 1 3.11 2.6 0 1.39-1.15 2.6-3.26 4.14h2.65a.75.75 0 01.74.74.76.76 0 01-.75.77z" id="sponsor-02"/></g></g><path id="neck-2" data-name="neck" fill="#a98172" d="M427.61 339.42l-27.59 8.62-28.6-9.62-1.92-23.62h61.04l-2.93 24.62z"/><path d="M502.88 421.91l-2.47-83.84c-1.19-11.87-11.83-22.25-23.72-23.14l-37.14-2.71c-4.07-.45-20.52-.09-39.55.53-19-.62-35.48-1-39.55-.53l-37.14 2.71c-11.89.89-22.53 11.27-23.72 23.14l-2.47 83.84a20.15 20.15 0 005 15.74 19.92 19.92 0 001.69 1.64v12.87c0 12.81 9.32 23.22 20.78 23.22a19.8 19.8 0 0015.25-7.38v21.79a12.23 12.23 0 007.74 11.36v68h-5.93c-10.93 0-19.83 5.8-19.83 17.11 0 8.06 0 17 11.72 19.7v1.6a1.38 1.38 0 001.38 1.38h1.63a1.38 1.38 0 001.38-1.37v-.95c1.16.09 2.39.15 3.73.15h1.89v.8a1.38 1.38 0 001.38 1.38h1.63a1.38 1.38 0 001.38-1.37v-.8h5.62v.8a1.38 1.38 0 001.38 1.38h1.63a1.38 1.38 0 001.38-1.37v-.8h5.62v.8a1.38 1.38 0 001.38 1.38h1.63a1.38 1.38 0 001.38-1.37v-.8h5.62v.8a1.38 1.38 0 001.38 1.38h1.63a1.38 1.38 0 001.38-1.37v-.8h5.62v.8a1.38 1.38 0 001.38 1.38h1.63a1.38 1.38 0 001.38-1.37v-.8h5.62v.8a1.38 1.38 0 001.38 1.38h1.63a1.38 1.38 0 001.38-1.37v-.81l.06-55.45V502h4v49.21l.06 54.67v1.6a1.38 1.38 0 001.38 1.38h1.63a1.38 1.38 0 001.38-1.37v-.8h5.62v.8a1.38 1.38 0 001.38 1.38h1.63a1.38 1.38 0 001.38-1.37v-.8h5.62v.8a1.38 1.38 0 001.38 1.38h1.63a1.38 1.38 0 001.38-1.37v-.8h5.62v.8a1.38 1.38 0 001.38 1.38h1.63a1.38 1.38 0 001.38-1.37v-.8h5.62v.8a1.38 1.38 0 001.38 1.38h1.63a1.38 1.38 0 001.38-1.37v-.8h5.62v.8a1.38 1.38 0 001.38 1.38h1.63a1.38 1.38 0 001.38-1.37v-.8h1.89c1.33 0 2.57-.05 3.72-.15v.95a1.38 1.38 0 001.38 1.38h1.63a1.38 1.38 0 001.38-1.37v-1.6c11.71-2.68 11.72-11.64 11.72-19.7 0-11.3-8.89-17.11-19.83-17.11h-5.93v-68a12.23 12.23 0 007.74-11.36V468a19.8 19.8 0 0015.21 7.42c11.46 0 20.78-10.42 20.78-23.22v-12.9a19.92 19.92 0 001.69-1.64 20.15 20.15 0 004.95-15.75zm-130.49-99.66c3.46 1.84 15.64 2.07 27.61 1.79 12 .28 24.15 0 27.61-1.79V334c0 4.8-22.42 12-27.23 12l-.38-.08-.38.08c-4.8 0-27.23-7.19-27.23-12zm-33 128.91v1.53c0 9.5-6.63 17.22-14.78 17.22s-14.78-7.73-14.78-17.22v-9.31a21.08 21.08 0 007.47 1.36h22.09zm52.9 149.93h-50.64c-14.22 0-14.22-5-14.22-14.89 0-8.21 6.38-11.5 14.22-11.5h11.67l38.93-2.7.06 15.37zm-38.74-76.4h38.67v41.71l-38.67 2.68h-.26V524.7zm-.26-5.74V502h38.94v17h-38.91zm104.77 55.75h.26c7.84 0 14.22 3.29 14.22 11.5 0 9.91 0 14.89-14.22 14.89h-50.64V587.4l.06-15.37 38.93 2.69h11.42zm-11.67-50h.26v44.4h-.26l-38.67-2.68V524.7zm-38.64-5.7v-17h38.95v17h-38.95zm46.84-73.77h-.07v44.58a6.6 6.6 0 01-6.58 6.58H403s-.11-3.73-.16-8.75v-2.79c0-3.51-1.41-5.09-2.82-5-1.41-.09-2.82 1.49-2.82 5v2.79c0 5-.16 8.75-.16 8.75H352.1a6.6 6.6 0 01-6.58-6.58v-44.63h-.07v-.33l30.24.33h48.69l30.24-.33zm35.57 7.51c0 9.5-6.63 17.22-14.78 17.22s-14.78-7.73-14.78-17.22v-7.94h22.09a21.08 21.08 0 007.47-1.36zm6-23.73a13.53 13.53 0 01-6 7.29 14.69 14.69 0 01-7.47 2l-22.09.09v-73.67c0-5.56-6.07-5.94-6.07 0s.07 14.37.07 14.37v59.59H345.41v-59.61s.07-8.46.07-14.37-6.07-5.54-6.07 0v73.59l-22.09-.09a14.69 14.69 0 01-7.47-2 13.53 13.53 0 01-6-7.29 14.89 14.89 0 01-.75-6.46l2.47-83.84c.89-9 9.23-17.08 18.2-17.75l11.12-.83 32.22-2.29c.68.54.48 17.49.48 17.49 0 8.43 23.34 15.29 31.77 15.29h1.3c8.43 0 31.77-6.86 31.77-15.29 0 0-.2-16.95.48-17.49l32.22 2.29 11.12.83c9 .67 17.3 8.8 18.2 17.75l2.47 83.84a14.89 14.89 0 01-.77 6.55z" id="border"/><g id="head"><path id="skin-2" data-name="skin" class="cls-2" d="M446.38 253.1c0-.91.08-1.81.08-2.73 0-30.51-21.06-55.25-47-55.25s-47 24.74-47 55.25c0 1.11 0 2.21.1 3.31-4 2.46-6.9 8.44-6.9 15.43 0 9.19 4.93 16.64 11 16.64a7.47 7.47 0 002.1-.31c.82 24.5 18.74 44.08 40.73 44.08s40.12-19.81 40.74-44.5a7.65 7.65 0 003.25.74c6.08 0 11-7.45 11-16.64-.05-7.65-3.48-14.06-8.1-16.02z"/><path d="M386.72 312.16s1.87 9.25 13.33 8.23V312s-13.79-8.17-13.33.16z" fill="none"/><path d="M440.86 221.65c-2.56-9.22-12.44-18.15-23.54-23S400 196.37 400 196.37s-6.18-2.5-17.28 2.31-21 13.74-23.54 23-8.69 20-6.75 32l1.94 1.44s6.75.88 7.88-6.5 7-37.12 12.88-38.25 10.66 18.25 24.88 18.25 19-19.37 24.88-18.25 11.75 30.88 12.88 38.25 7.88 6.5 7.88 6.5l1.94-1.44c1.96-12.07-4.17-22.81-6.73-32.03z" fill="#926d5a" opacity=".37"/><path id="border-2" data-name="border" d="M446.38 253.1c0-.91.08-1.81.08-2.73 0-30.51-21.06-55.25-47-55.25s-47 24.74-47 55.25c0 1.11 0 2.21.1 3.31-4 2.46-6.9 8.44-6.9 15.43 0 9.19 4.93 16.64 11 16.64a7.47 7.47 0 002.1-.31c.82 24.5 18.74 44.08 40.73 44.08s40.12-19.81 40.74-44.5a7.65 7.65 0 003.25.74c6.08 0 11-7.45 11-16.64-.05-7.65-3.48-14.06-8.1-16.02z" stroke="#231f20" stroke-linecap="round" stroke-linejoin="round" stroke-width="6" fill="none"/></g></svg>