<svg id="player" xmlns="http://www.w3.org/2000/svg" xmlns:xlink="http://www.w3.org/1999/xlink" viewBox="0 0 800 800"><defs><linearGradient id="linear-gradient" x1="359.88" y1="575.04" x2="359.88" y2="608.04" gradientUnits="userSpaceOnUse"><stop offset="0" stop-color="#fff"/><stop offset=".13" stop-color="#eaf7fb"/><stop offset=".36" stop-color="#ccecf6"/><stop offset=".58" stop-color="#b6e4f2"/><stop offset=".8" stop-color="#a9dff0"/><stop offset="1" stop-color="#a5ddef"/></linearGradient><linearGradient id="linear-gradient-2" x1="440.06" y1="575.27" x2="440.06" y2="608.27" xlink:href="#linear-gradient"/><style>.cls-1{fill:#d8a38b}.cls-4{fill:#2d2d2d}.cls-5{fill:#fff}.cls-6{fill:#ecba49}.cls-7{fill:#00529f}.cls-8{fill:#231f20}.cls-12{fill:#f1f2f2}.cls-13{fill:#d1d3d4}.cls-14{fill:#e6e7e8}</style></defs><g id="skin"><path id="arm-left" class="cls-1" d="M305.93 387h36.78v72.4a18.39 18.39 0 01-18.39 18.39 18.39 18.39 0 01-18.39-18.39V387z"/><path id="arm-right" class="cls-1" d="M457.19 387H494v72.4a18.39 18.39 0 01-18.39 18.39 18.39 18.39 0 01-18.39-18.39V387z"/><path id="leg-left" class="cls-1" d="M349.88 497.02h45.67v45.67h-45.67z"/><path id="leg-right" class="cls-1" d="M404.78 497.02h45.67v45.67h-45.67z"/></g><g id="boots"><path id="left" fill="url(#linear-gradient)" d="M395.33 575.04H372.5l-22.83 1.97h-12.5l-7.5 2.53-5.25 8.5v9.83l1.91 4.17 3.84 4.05 6.33 1.95h58.83v-33z"/><path id="right" fill="url(#linear-gradient-2)" d="M404.61 575.27h22.83l22.83 1.97h12.5l7.5 2.53 5.25 8.5v9.83l-1.91 4.17-3.84 4.05-6.33 1.95h-58.83v-33z"/></g><g id="socks"><g id="socks-2" data-name="socks"><path id="left-2" data-name="left" class="cls-4" d="M349.88 527h45.67v48.04h-45.67z"/><path id="right-2" data-name="right" class="cls-4" d="M404.38 527h45.67v48.04h-45.67z"/></g><path class="cls-5" d="M350.42 558.41h44.91v16.85h-44.91zm54.34 0h44.91v16.85h-44.91z" id="details"/></g><g id="shorts"><path id="shorts-2" data-name="shorts" class="cls-4" d="M341.67 447.54h116.49v47a9.95 9.95 0 01-9.95 9.95h-96.6a9.95 9.95 0 01-9.95-9.95v-47z"/><g id="details-2" data-name="details"><g id="left-3" data-name="left"><rect class="cls-5" x="347.41" y="447.54" width="2.39" height="47.83" rx="1.19" ry="1.19"/><rect class="cls-5" x="352.19" y="447.54" width="2.39" height="47.83" rx="1.19" ry="1.19"/></g><g id="right-3" data-name="right"><rect class="cls-5" x="445.43" y="447.54" width="2.39" height="47.83" rx="1.19" ry="1.19"/><rect class="cls-5" x="450.2" y="447.54" width="2.39" height="47.83" rx="1.19" ry="1.19"/></g></g></g><g id="shirt"><path id="shirt-2" data-name="shirt" class="cls-6" d="M369.5 319.8l-48.29 2.99-11.36 6.25-6.83 10.1-3.31 40.73 5.17 7.67 7.66 4.67h29.5l.17 54h114.83v-53.5l29.34-.17 7.01-4 6.99-10.5-3.4-37.33-6.83-11.84-9.77-6.08-49.84-2.99-1 21.24-6.5 6.5-11.16 3.48-11.88 2.02-15.46-3.17-11-5.66-3.66-3.84-.38-20.57z"/><g id="details-3" data-name="details"><g id="crest-real-madrid-03"><path class="cls-7" d="M437.92 381.51a6.5 6.5 0 01-3.71-11.85 2.18 2.18 0 01-.11-.69v-.29a3.48 3.48 0 011-1.86 1.64 1.64 0 012-.34 12.08 12.08 0 013.47.28 3.56 3.56 0 011.09 1.92v.29a2.15 2.15 0 01-.11.69 6.5 6.5 0 01-3.71 11.85zm-1.34-10.36a4.08 4.08 0 102.68 0z"/><path class="cls-7" d="M437.92 369.92A5.08 5.08 0 10443 375a5.08 5.08 0 00-5.08-5.08zm0 10.09a5 5 0 115-5 5 5 0 01-5 4.99z"/><circle class="cls-5" cx="437.92" cy="375" r="3.81"/><rect class="cls-7" x="436.87" y="369.92" width="2.1" height="10.16" rx="1.05" ry="1.05" transform="rotate(-45 437.92 374.998)"/><path class="cls-6" d="M437.92 370a5 5 0 105 5 5 5 0 00-5-5zm0 8.82a3.81 3.81 0 113.81-3.81 3.81 3.81 0 01-3.81 3.81z"/><rect class="cls-6" x="437.21" y="373.21" width="1.42" height="3.59" rx=".71" ry=".71"/><path class="cls-6" d="M440.24 369a2 2 0 00-.59-1.06l-.07-.06a.12.12 0 00-.17 0l-.2.2a.69.69 0 01-.49.2.69.69 0 01-.49-.2l-.2-.2a.12.12 0 00-.17 0l-.2.2a.69.69 0 01-.49.2.69.69 0 01-.49-.2l-.2-.2a.12.12 0 00-.17 0l-.07.06a2 2 0 00-.59 1.06.67.67 0 00.67.67h3.29a.67.67 0 00.67-.67z"/></g><g id="adidas"><rect id="bottom" class="cls-4" x="394.58" y="371.61" width="10.92" height="1.54" rx=".77" ry=".77"/><path class="cls-4" d="M400.09 365.36a1 1 0 00-.35 1.31l2.24 3.9a1 1 0 00.83.48h1.68l-3.09-5.33a1 1 0 00-1.31-.36zm-1.91 1.93a1 1 0 00-.35 1.3l1.1 2a1 1 0 00.84.49h1.67l-1.94-3.39a1 1 0 00-1.32-.4zm-2.11 1.71a1 1 0 00-.36 1.3l.15.27a1 1 0 00.84.5h1.66l-1-1.71a1 1 0 00-1.29-.36z"/></g><g id="sponsor-siemens"><rect class="cls-4" x="360.27" y="393.25" width="79.29" height="18.23" rx="9.12" ry="9.12"/><rect class="cls-4" x="389.13" y="415.98" width="50.43" height="12.44" rx="6.22" ry="6.22"/></g><path class="cls-4" d="M429.84 320.64l-.75 17.67-1.8 7.18-8.73 4.67-18.56 3.72-18.54-3.71-8.73-4.67-1.8-7.18-.75-17.67-7.29.69v18.33A17.61 17.61 0 00371.8 355c5.88 3.35 15.09 6.42 28.2 6.43 13.11 0 22.32-3.08 28.2-6.43a17.61 17.61 0 008.88-15.31v-18.36z"/><g id="logo-champions-league"><ellipse class="cls-5" cx="304.78" cy="359.59" rx="8.66" ry="6.25" transform="rotate(-87.81 304.79 359.595)"/><ellipse class="cls-5" cx="304.78" cy="359.59" rx="7.15" ry="5.17" transform="rotate(-87.81 304.79 359.595)"/><path class="cls-8" d="M304.49 367.29c-3.06-.12-5.42-3.66-5.26-7.91s2.79-7.6 5.85-7.48 5.42 3.66 5.26 7.91-2.79 7.6-5.85 7.48zM305 353c-2.63-.1-4.88 2.78-5 6.42s1.89 6.68 4.51 6.78 4.88-2.78 5-6.42-1.85-6.69-4.51-6.78z"/><path class="cls-8" d="M305.3 357.17l.26.82a.51.51 0 00.34.37l.64.15c.38.09.51.75.22 1.12l-.49.61a.82.82 0 00-.16.57l.08.89c0 .53-.37.92-.71.66l-.56-.44a.36.36 0 00-.44 0l-.59.4c-.35.24-.74-.18-.66-.71l.14-.88a.82.82 0 00-.11-.58l-.44-.64c-.26-.39-.09-1 .3-1.1l.65-.1a.51.51 0 00.37-.34l.32-.79a.43.43 0 01.84-.01z"/></g></g></g><path id="neck" fill="#b78977" d="M427.63 345.26l-27.59 8.62-28.6-9.62-1.92-23.62h61.04l-2.93 24.62z"/><path d="M502.88 373.43l-2.47-30.36c-1.19-11.87-11.83-22.25-23.72-23.14l-37.14-2.71c-4.07-.45-20.52-.09-39.55.53-19-.62-35.48-1-39.55-.53l-37.14 2.71c-11.89.89-22.53 11.27-23.72 23.14l-2.47 30.36a20.15 20.15 0 005 15.74 19.92 19.92 0 001.69 1.64v66.36c0 12.81 9.32 23.22 20.78 23.22a19.8 19.8 0 0015.25-7.39v21.79a12.23 12.23 0 007.74 11.36v68h-5.93c-10.93 0-19.83 5.8-19.83 17.11 0 8.06 0 17 11.72 19.7v1.6a1.38 1.38 0 001.38 1.38h1.63a1.38 1.38 0 001.38-1.37v-.95c1.16.09 2.39.15 3.73.15h1.89v.8a1.38 1.38 0 001.38 1.38h1.63a1.38 1.38 0 001.38-1.37v-.8h5.62v.8a1.38 1.38 0 001.38 1.38h1.63a1.38 1.38 0 001.38-1.37v-.8h5.62v.8a1.38 1.38 0 001.38 1.38h1.63a1.38 1.38 0 001.38-1.37v-.8h5.62v.8a1.38 1.38 0 001.38 1.38h1.63a1.38 1.38 0 001.38-1.37v-.8h5.62v.8a1.38 1.38 0 001.38 1.38h1.63a1.38 1.38 0 001.38-1.37v-.8h5.62v.8a1.38 1.38 0 001.38 1.38h1.63a1.38 1.38 0 001.38-1.37v-.81l.06-55.45V507h4v49.21l.06 54.67v1.6a1.38 1.38 0 001.38 1.38h1.63a1.38 1.38 0 001.38-1.37v-.8h5.62v.8a1.38 1.38 0 001.38 1.38h1.63a1.38 1.38 0 001.38-1.37v-.8h5.62v.8a1.38 1.38 0 001.38 1.38h1.63a1.38 1.38 0 001.38-1.37v-.8h5.62v.8a1.38 1.38 0 001.38 1.38h1.63a1.38 1.38 0 001.38-1.37v-.8h5.62v.8a1.38 1.38 0 001.38 1.38h1.63a1.38 1.38 0 001.38-1.37v-.8h5.62v.8a1.38 1.38 0 001.38 1.38h1.63a1.38 1.38 0 001.38-1.37v-.8h1.89c1.33 0 2.57-.05 3.72-.15v.95a1.38 1.38 0 001.38 1.38h1.63a1.38 1.38 0 001.38-1.37v-1.6c11.71-2.68 11.72-11.64 11.72-19.7 0-11.3-8.89-17.11-19.83-17.11h-5.93v-68a12.23 12.23 0 007.74-11.36V473a19.8 19.8 0 0015.21 7.42c11.46 0 20.78-10.42 20.78-23.22v-66.39a19.92 19.92 0 001.69-1.64 20.15 20.15 0 004.95-15.74zm-130.49-46.18c3.46 1.84 15.64 2.07 27.61 1.79 12 .28 24.15 0 27.61-1.79V339c0 4.8-22.42 12-27.23 12l-.38-.08-.38.08c-4.8 0-27.23-7.19-27.23-12zm-33 75.43v55c0 9.5-6.63 17.22-14.78 17.22s-14.78-7.73-14.78-17.22V394.9a21.08 21.08 0 007.47 1.36h22.09zm52.9 203.42h-50.64c-14.22 0-14.22-5-14.22-14.89 0-8.21 6.38-11.5 14.22-11.5h11.67l38.93-2.71.06 15.37zm-38.74-76.4h38.67v41.7l-38.67 2.68h-.26V529.7zm-.26-5.74V507h38.94v17h-38.91zm104.77 55.75h.26c7.84 0 14.22 3.29 14.22 11.5 0 9.91 0 14.89-14.22 14.89h-50.64v-13.7l.06-15.37 38.93 2.69h11.42zm-11.67-50h.26v44.4h-.26l-38.67-2.68V529.7zM407.75 524v-17h38.95v17h-38.95zm46.84-73.77h-.07v44.58a6.6 6.6 0 01-6.58 6.58H403s-.11-3.73-.16-8.75v-2.79c0-3.51-1.41-5.09-2.82-5-1.41-.09-2.82 1.49-2.82 5v2.79c0 5-.16 8.75-.16 8.75H352.1a6.6 6.6 0 01-6.58-6.58v-44.63h-.07v-.33l30.24.33h48.69l30.24-.33zm35.57 7.51c0 9.5-6.63 17.22-14.78 17.22s-14.78-7.73-14.78-17.22v-61.48h22.09a21.08 21.08 0 007.47-1.36zm6-77.21a13.53 13.53 0 01-6 7.29 14.69 14.69 0 01-7.47 2l-22.09.09v-20.19c0-5.56-6.07-5.94-6.07 0s.07 14.37.07 14.37v59.59H345.41v-59.61s.07-8.46.07-14.37-6.07-5.54-6.07 0v20.11l-22.09-.09a14.69 14.69 0 01-7.47-2 13.53 13.53 0 01-6-7.29 14.89 14.89 0 01-.75-6.46l2.47-30.36c.89-9 9.23-17.08 18.2-17.75l11.12-.83 32.22-2.29c.68.54.48 17.49.48 17.49 0 8.43 23.34 15.29 31.77 15.29h1.3c8.43 0 31.77-6.86 31.77-15.29 0 0-.2-16.95.48-17.49l32.22 2.29 11.12.83c9 .67 17.3 8.8 18.2 17.75L496.9 374a14.89 14.89 0 01-.75 6.48z" id="border"/><g id="head"><path class="cls-8" d="M400.06 192.42a3 3 0 01.88.13 95.24 95.24 0 0115.43 6.19c7.72 4.24 18.5 6.25 22 12.63 2.95 5.37 7.88 5 11.38 26.75s2.5 19.63-4.62 21.5c0 0-7.29-10-10.58-17.62-2-4.71.31-10.23-.25-12.08-.75-2.49-4.63-3.3-9.55-3.3-9.21 0-22.05 2.85-24.7 2.88-2.64 0-15.48-2.88-24.7-2.88-4.91 0-8.8.81-9.55 3.3-.56 1.85 1.79 7.38-.25 12.08-3.29 7.59-10.58 17.63-10.58 17.63-7.12-1.87-8.12.25-4.62-21.5s8.43-21.38 11.38-26.75c3.5-6.37 14.22-8.36 22-12.62 5.12-2.8 12.91-5.37 15.5-6.19a3 3 0 01.89-.14m0-6a9 9 0 00-2.7.42c-3.16 1-11.09 3.64-16.58 6.65a72.19 72.19 0 01-7.45 3.33c-6.65 2.69-13.52 5.47-16.92 11.67a13.52 13.52 0 01-1.8 2.34c-4 4.58-7.56 9.72-10.24 26.34-1.82 11.3-2.37 15.92-1.84 19.32 1 6.67 6.34 7.88 9.19 8.53.51.12 1.06.24 1.67.4a6 6 0 006.38-2.28c.31-.43 7.72-10.66 11.23-18.76 1.87-4.3 1.39-8.57 1-11.57a24.09 24.09 0 013.34-.2c5.58 0 13.06 1.21 18 2a59.74 59.74 0 006.38.86h.65a59.75 59.75 0 006.38-.86c4.95-.8 12.43-2 18-2a24.1 24.1 0 013.34.2c-.44 3-.92 7.27 1 11.57 3.51 8.1 10.92 18.33 11.23 18.76a6 6 0 006.38 2.28c.6-.16 1.16-.29 1.67-.4 2.85-.65 8.16-1.87 9.19-8.53.53-3.4 0-8-1.84-19.32-2.68-16.63-6.22-21.77-10.24-26.34a13.52 13.52 0 01-1.8-2.34c-3.4-6.2-10.29-9-17-11.68a71.63 71.63 0 01-7.42-3.32 102.34 102.34 0 00-16.55-6.67 9 9 0 00-2.64-.4z"/><path id="skin-2" data-name="skin" class="cls-1" d="M446.38 258.1c0-.91.08-1.81.08-2.73 0-30.51-21.06-55.25-47-55.25s-47 24.74-47 55.25c0 1.11 0 2.21.1 3.31-4 2.46-6.9 8.44-6.9 15.43 0 9.19 4.93 16.64 11 16.64a7.47 7.47 0 002.1-.31c.82 24.5 18.74 44.08 40.73 44.08s40.12-19.81 40.74-44.5a7.65 7.65 0 003.25.74c6.08 0 11-7.45 11-16.64-.05-7.65-3.48-14.06-8.1-16.02z"/><path id="border-2" data-name="border" d="M446.38 258.1c0-.91.08-1.81.08-2.73 0-30.51-21.06-55.25-47-55.25s-47 24.74-47 55.25c0 1.11 0 2.21.1 3.31-4 2.46-6.9 8.44-6.9 15.43 0 9.19 4.93 16.64 11 16.64a7.47 7.47 0 002.1-.31c.82 24.5 18.74 44.08 40.73 44.08s40.12-19.81 40.74-44.5a7.65 7.65 0 003.25.74c6.08 0 11-7.45 11-16.64-.05-7.65-3.48-14.06-8.1-16.02z" fill="none" stroke="#231f20" stroke-linecap="round" stroke-linejoin="round" stroke-width="6"/><path d="M449.75 238.12c-3.5-21.75-8.43-21.38-11.37-26.75-3.5-6.37-14.28-8.39-22-12.62a95.24 95.24 0 00-15.43-6.19 3 3 0 00-1.77 0c-2.59.82-10.38 3.38-15.5 6.19-7.78 4.26-18.5 6.25-22 12.63-2.95 5.37-7.87 5-11.37 26.75s-2.5 19.63 4.63 21.5c0 0 7.29-10 10.58-17.62 2-4.71-.31-10.23.25-12.08 2.16-7.14 30.19-.46 34.25-.42 4.06 0 32.09-6.73 34.25.42.56 1.85-1.79 7.38.25 12.08 3.29 7.59 10.58 17.63 10.58 17.63 7.15-1.89 8.15.23 4.65-21.52z" fill="#4a3222"/></g><g id="asset-glove"><path class="cls-12" d="M467.85 439.1h15a5.93 5.93 0 015.93 5.93v9.77a6.43 6.43 0 01-6.43 6.43h-14a6.43 6.43 0 01-6.43-6.43V445a5.93 5.93 0 015.93-5.93z" transform="rotate(12.42 475.285 450.06)"/><path class="cls-8" d="M485 440.95a5.93 5.93 0 014.66 7l-2.15 9.79a6.43 6.43 0 01-7.76 4.74l-13.43-3a6.43 6.43 0 01-5.05-7.56l2.15-9.79a5.93 5.93 0 017.15-4.37l14.43 3.19m1.1-5l-14.42-3.18a11.17 11.17 0 00-13.52 8.23l-2.16 9.78a11.68 11.68 0 009.16 13.71l13.43 3a11.68 11.68 0 0014.07-8.59l2.15-9.79a11.17 11.17 0 00-8.77-13.12z"/><path class="cls-12" d="M461.91 448.7h17.88a8.44 8.44 0 018.44 8.44v18.78a16.67 16.67 0 01-16.67 16.67h-1.41a16.67 16.67 0 01-16.67-16.67v-18.79a8.44 8.44 0 018.43-8.43z" transform="rotate(12.42 470.773 470.543)"/><path class="cls-8" d="M484 451.05a8.63 8.63 0 016.78 10.14l-4 18.33c-2 9-11.19 14.62-20.56 12.55-9.37-2.06-15.37-11-13.39-20l4-18.33a8.63 8.63 0 0110.41-6.35l16.76 3.66m1.1-5l-16.76-3.69c-7.61-1.68-15.11 2.9-16.72 10.21l-4 18.33c-2.62 11.74 5.18 23.48 17.38 26.18s24.29-4.67 26.87-16.41l4-18.33c1.61-7.3-3.27-14.61-10.88-16.29z"/><path class="cls-13" d="M458 473.62h20.74a3.06 3.06 0 013.06 3.06v.67a12.58 12.58 0 01-12.58 12.58h-1.71A12.58 12.58 0 01455 477.35v-.67a3.06 3.06 0 013.06-3.06z" transform="rotate(12.42 468.312 481.69)"/><rect class="cls-14" x="459.27" y="453.62" width="26.87" height="17.22" rx="4.6" ry="4.6" transform="rotate(12.42 472.604 462.16)"/></g><g id="asset-glove-2" data-name="asset-glove"><path class="cls-12" d="M317.59 439.1h14a6.43 6.43 0 016.43 6.43v9.77a5.93 5.93 0 01-5.93 5.93h-15a5.93 5.93 0 01-5.93-5.93v-9.77a6.43 6.43 0 016.43-6.43z" transform="rotate(167.58 324.593 450.169)"/><path class="cls-8" d="M315 440.95l14.42-3.18a5.93 5.93 0 017.15 4.37l2.15 9.79a6.43 6.43 0 01-5.05 7.56l-13.43 3a6.43 6.43 0 01-7.76-4.74l-2.15-9.79a5.93 5.93 0 014.66-7m-1.1-5a11.17 11.17 0 00-8.77 13.12l2.15 9.79a11.68 11.68 0 0014.07 8.59l13.43-3a11.68 11.68 0 009.23-13.68l-2.2-9.78a11.17 11.17 0 00-13.47-8.22l-14.42 3.18z"/><path class="cls-12" d="M328.4 448.7h1.41a16.67 16.67 0 0116.67 16.67v18.78a8.44 8.44 0 01-8.44 8.44h-17.87a8.44 8.44 0 01-8.44-8.44v-18.78a16.67 16.67 0 0116.67-16.67z" transform="rotate(167.58 329.103 470.648)"/><path class="cls-8" d="M316 451.05l16.76-3.69a8.63 8.63 0 0110.41 6.35l4 18.33c2 9-4 18-13.39 20-9.37 2.06-18.58-3.56-20.56-12.55l-4-18.33a8.63 8.63 0 016.78-10.11m-1.1-5c-7.61 1.68-12.49 9-10.88 16.29l4 18.33c2.59 11.74 14.64 19.1 26.87 16.41s20.11-14.44 17.54-26.18l-4-18.33c-1.61-7.3-9.11-11.88-16.72-10.21l-16.76 3.69z"/><path class="cls-13" d="M330.71 473.62h1.71A12.58 12.58 0 01345 486.2v.67a3.06 3.06 0 01-3.06 3.06h-20.75a3.06 3.06 0 01-3.06-3.06v-.67a12.58 12.58 0 0112.58-12.58z" transform="rotate(167.58 331.55 481.782)"/><rect class="cls-14" x="313.83" y="453.62" width="26.87" height="17.22" rx="4.6" ry="4.6" transform="rotate(167.58 327.25 462.24)"/></g></svg>