<svg id="player" xmlns="http://www.w3.org/2000/svg" viewBox="0 0 800 800"><defs><style>.cls-1{fill:#e4b69d}.cls-2{fill:#363436}.cls-3{fill:#40403f}.cls-4{fill:#fff}.cls-5{fill:#ffde17}.cls-6{fill:#c62127}.cls-10{fill:#22aa57}</style></defs><g id="skin"><path id="arm-left" class="cls-1" d="M305.93 386h36.78v72.4a18.39 18.39 0 01-18.39 18.39 18.39 18.39 0 01-18.39-18.39V386z"/><path id="arm-right" class="cls-1" d="M457.19 386H494v72.4a18.39 18.39 0 01-18.39 18.39 18.39 18.39 0 01-18.39-18.39V386z"/><path id="leg-left" class="cls-1" d="M349.88 496.02h45.67v45.67h-45.67z"/><path id="leg-right" class="cls-1" d="M404.78 496.02h45.67v45.67h-45.67z"/></g><g id="boots"><path id="left" class="cls-2" d="M395.33 574.04H372.5l-22.83 1.97h-12.5l-7.5 2.53-5.25 8.5v9.83l1.91 4.17 3.84 4.05 6.33 1.95h58.83v-33z"/><path id="right" class="cls-2" d="M404.61 574.27h22.83l22.83 1.97h12.5l7.5 2.53 5.25 8.5v9.83l-1.91 4.17-3.84 4.05-6.33 1.95h-58.83v-33z"/><g id="details"><path class="cls-3" d="M384.67 574.27s-44.42 18.07-45.75 32.4h25.72l30.91-15.25-.21-18.32z"/><path class="cls-4" d="M394.92 579.33s-36.08 8.78-37.42 27.93l37.83.4z"/><path class="cls-3" d="M415.65 574.27s44.42 18.07 45.75 32.4h-25.72l-30.91-15.25.23-18.32z"/><path class="cls-4" d="M405.4 579.33s36.08 8.78 37.42 27.93l-37.83.4z"/></g></g><g id="socks"><g id="socks-2" data-name="socks"><path id="left-2" data-name="left" class="cls-4" d="M349.88 526h45.67v48.04h-45.67z"/><path id="right-2" data-name="right" class="cls-4" d="M404.38 526h45.67v48.04h-45.67z"/></g></g><g id="shorts"><path id="shorts-2" data-name="shorts" class="cls-2" d="M341.67 446.54h116.49v47a9.95 9.95 0 01-9.95 9.95h-96.6a9.95 9.95 0 01-9.95-9.95v-47z"/><g id="details-2" data-name="details"><g id="left-3" data-name="left"><path class="cls-5" d="M357.86 446.91s-2.11 4.77 4.25 13.52c.4.56 1.55.32 1.49-.31a55.67 55.67 0 01.31-13.21z"/><path class="cls-4" d="M347.41 446.91h1.84v53.43h-1.84zm3.68 0h1.84v53.43h-1.84z"/></g><g id="right-3" data-name="right"><path class="cls-5" d="M442.14 446.91s2.11 4.77-4.25 13.52c-.4.56-1.55.32-1.49-.31a55.67 55.67 0 00-.31-13.21z"/><path class="cls-4" transform="rotate(-180 451.665 473.63)" d="M450.75 446.91h1.84v53.43h-1.84z"/><path class="cls-4" transform="rotate(-180 447.985 473.63)" d="M447.07 446.91h1.84v53.43h-1.84z"/></g></g></g><g id="shirt"><path id="shirt-2" data-name="shirt" class="cls-4" d="M369.5 318.8l-48.29 2.99-11.36 6.25-6.83 10.1-3.31 40.73 5.17 7.67 7.66 4.67h29.5l.17 54h114.83v-53.5l29.34-.17 7.01-4 6.99-10.5-3.4-37.33-6.83-11.84-9.77-6.08-49.84-2.99-1 21.24-6.5 6.5-11.16 3.48-11.88 2.02-15.46-3.17-11-5.66-3.66-3.84-.38-20.57z"/><g id="details-3" data-name="details"><g id="crest-germany-06"><circle class="cls-4" cx="428.07" cy="375.1" r="7.82"/><path class="cls-2" d="M428.07 383.09a8.12 8.12 0 118.12-8.12 8.13 8.13 0 01-8.12 8.12zm0-15.7a7.58 7.58 0 107.58 7.58 7.59 7.59 0 00-7.58-7.58z"/><path class="cls-5" d="M430.74 381.95l.32.83a8.2 8.2 0 004.54-4.36l-.81-.36a7.32 7.32 0 01-4.05 3.89z"/><path class="cls-2" d="M421.23 377.78l-.83.32a8.2 8.2 0 004.36 4.54l.36-.81a7.32 7.32 0 01-3.89-4.05z"/><path class="cls-6" d="M431.06 382.78l-.32-.83a7.32 7.32 0 01-5.62-.12l-.36.81a8.2 8.2 0 006.3.14z"/><path class="cls-2" d="M428.07 369.35a5.75 5.75 0 105.75 5.75 5.75 5.75 0 00-5.75-5.75zm3.43 9.18a4.85 4.85 0 01-5.83.79l-.24-.15a4.87 4.87 0 01-.44-.32q-.18-.15-.34-.31l-.16-.17a4.88 4.88 0 01-.43-.55l-.13-.2a4.86 4.86 0 01-.36-4.32l.08-.18q.1-.21.21-.41l.19-.31a4.88 4.88 0 01.43-.55l.25-.25.16-.15.28-.23.32-.22a4.84 4.84 0 01.6-.32l.18-.08a4.85 4.85 0 015.91 1.91l.12.19a4.85 4.85 0 01-.79 5.83z"/><path class="cls-2" d="M429.63 373.36h-1v-1.14a.34.34 0 00-.34-.34h-.46c-.25 0-.33.33-.33.33a1.08 1.08 0 00-.87.69.13.13 0 00.12.17h.57l-.05.28h-.78a.88.88 0 00-.85.68l-.75 3.19h.45a.4.4 0 00.39-.31v-.15a.4.4 0 01.39-.31h.13a.4.4 0 00.39-.31.4.4 0 01.39-.31l.72.72a.31.31 0 00.43 0l.72-.72a.4.4 0 01.39.31.4.4 0 00.39.31h.32a.4.4 0 01.39.31v.15a.4.4 0 00.39.31h.45l-.75-3.19a.88.88 0 00-.85-.67z"/><circle class="cls-5" cx="428.07" cy="363.91" r="1.36"/><circle class="cls-5" cx="432.82" cy="363.91" r="1.36"/><circle class="cls-5" cx="423.32" cy="363.91" r="1.36"/></g><g id="chest-l"><path class="cls-2" d="M371.51 334.62s-22.34 6.82-27.66 26.05a.8.8 0 001.41.69c4.36-5.93 14.9-18.53 29.13-24.07 10.23-3.98-2.88-2.67-2.88-2.67z"/><path class="cls-6" d="M351.86 392.46c1.92-5.77 5.3-19.81-2.35-31.33a.71.71 0 00-1.28.56c1.44 6.43 3.76 21-.86 33.82-2.23 6.2.1 3.92 1.88 1.74a15.08 15.08 0 002.61-4.79z"/><path class="cls-5" d="M342.58 413.48c.2 8 2.29 23 17 34a.94.94 0 001.34-1.27c-4.68-7.36-14.08-20.41-14.09-38.5 0-8.72-1.88-4.84-3.12-1.33a20 20 0 00-1.13 7.1z"/></g><g id="chest-r"><path class="cls-2" d="M428.65 334.62s22.34 6.82 27.66 26.05a.8.8 0 01-1.41.69c-4.36-5.93-14.9-18.53-29.13-24.07-10.23-3.98 2.88-2.67 2.88-2.67z"/><path class="cls-6" d="M448.3 392.46c-1.92-5.77-5.3-19.81 2.35-31.33a.71.71 0 011.28.56c-1.44 6.43-3.76 21 .86 33.82 2.23 6.2-.1 3.92-1.88 1.74a15.08 15.08 0 01-2.61-4.79z"/><path class="cls-5" d="M457.58 413.48c-.2 8-2.29 23-17 34a.94.94 0 01-1.34-1.27c4.68-7.36 14.08-20.41 14.09-38.5 0-8.72 1.88-4.84 3.12-1.33a20 20 0 011.13 7.1z"/></g><g id="adidas"><rect id="bottom" class="cls-2" x="394.33" y="365.17" width="11.18" height="1.58" rx=".79" ry=".79"/><path class="cls-2" d="M400 358.77a1 1 0 00-.36 1.34l2.29 4a1 1 0 00.85.49h1.72l-3.16-5.46a1 1 0 00-1.34-.37zm-2 1.98a1 1 0 00-.36 1.33l1.13 2a1 1 0 00.86.5h1.71l-2-3.47a1 1 0 00-1.34-.36zm-2.15 1.72a1 1 0 00-.36 1.33l.15.27a1 1 0 00.86.51h1.7l-1-1.75a1 1 0 00-1.35-.36z"/></g><path class="cls-2" d="M366.6 386a2 2 0 01-1.94-1.94v-11.59l-2.07 2.13a1.51 1.51 0 01-1.08.44 1.62 1.62 0 01-1.13-2.79l4.26-4.31a2.36 2.36 0 011.66-.66 2.28 2.28 0 012.3 2.24v14.57a2 2 0 01-2 1.91zm11.4 0a2 2 0 01-1.94-1.94v-11.59L374 374.6a1.51 1.51 0 01-1.08.44 1.62 1.62 0 01-1.13-2.79l4.26-4.31a2.36 2.36 0 011.66-.66 2.28 2.28 0 012.3 2.24v14.57A2 2 0 01378 386zm-72.49-1.27l-3-.26c0-.26 2.36-26.64 4.34-42.16a20.9 20.9 0 0117.38-18.63l46.77-4.14.26 3-46.71 4.13c-.48.06-12.89 1.76-14.71 16-1.98 15.47-4.31 41.8-4.33 42.06z"/><path class="cls-2" d="M309.67 389.53l-3-.12c0-.21.91-21.63 3.39-40.92 2.63-20.47 17.17-21.18 17.31-21.18l45-2.94v3l-44.86 2.93c-.54 0-12.2.72-14.49 18.57-2.45 19.13-3.34 40.45-3.35 40.66zm184.82-4.8l3-.26c0-.26-2.36-26.64-4.34-42.16a20.9 20.9 0 00-17.38-18.63L429 319.54l-.26 3 46.71 4.13c.48.06 12.89 1.76 14.71 16 1.98 15.47 4.31 41.8 4.33 42.06z"/><path class="cls-2" d="M490.33 389.53l3-.12c0-.21-.91-21.63-3.39-40.92-2.63-20.47-17.17-21.18-17.31-21.18l-45-2.94v3l44.86 2.93c.54 0 12.2.72 14.49 18.57 2.45 19.13 3.34 40.45 3.35 40.66z"/><g id="logo-world-cup-06"><ellipse class="cls-4" cx="307.28" cy="367.27" rx="7.58" ry="6.59" transform="rotate(-85.61 307.3 367.275)"/><path d="M306.67 375.19c-3.8-.29-6.61-4.08-6.28-8.45s3.7-7.69 7.5-7.4 6.62 4.08 6.28 8.45-3.7 7.7-7.5 7.4zm1.16-15.12c-3.45-.26-6.5 2.75-6.81 6.72s2.25 7.41 5.7 7.68 6.5-2.75 6.81-6.72-2.25-7.41-5.7-7.68z" fill="#d1d3d4"/><ellipse cx="307.23" cy="363.39" rx="2.46" ry="2.14" transform="rotate(-85.61 307.245 363.393)" fill="#e63b30"/><path class="cls-4" d="M307 366.11a2.76 2.76 0 112.58-2.54 2.58 2.58 0 01-2.58 2.54zm.38-4.9a2.21 2.21 0 101.73 2.33 2.06 2.06 0 00-1.72-2.33z"/><ellipse cx="304.59" cy="366.24" rx="3.05" ry="2.65" transform="rotate(-85.61 304.605 366.243)" fill="#5b84c3"/><path class="cls-4" d="M304.33 369.65a3.45 3.45 0 113.22-3.18 3.22 3.22 0 01-3.22 3.18zm.47-6.08a2.71 2.71 0 102.12 2.86 2.53 2.53 0 00-2.13-2.86z"/><ellipse class="cls-10" cx="309.65" cy="367.48" rx="3.5" ry="3.05" transform="rotate(-85.61 309.66 367.476)"/><path class="cls-4" d="M309.35 371.33a3.91 3.91 0 113.65-3.6 3.65 3.65 0 01-3.65 3.6zm.54-7a3.17 3.17 0 102.48 3.34 3 3 0 00-2.48-3.32z"/><ellipse class="cls-10" cx="306.32" cy="370.99" rx="2.55" ry="2.22" transform="rotate(-85.61 306.338 370.988)"/><path class="cls-4" d="M306.1 373.89a2.94 2.94 0 112.75-2.71 2.75 2.75 0 01-2.75 2.71zm.39-5.08a2.21 2.21 0 101.73 2.32 2.06 2.06 0 00-1.73-2.32z"/></g></g></g><path id="neck" fill="#af8979" d="M427.63 344.26l-27.59 8.62-28.6-9.62-1.92-23.62h61.04l-2.93 24.62z"/><path d="M502.88 372.43l-2.47-30.36c-1.19-11.87-11.83-22.25-23.72-23.14l-37.14-2.71c-4.07-.45-20.52-.09-39.55.53-19-.62-35.48-1-39.55-.53l-37.14 2.71c-11.89.89-22.53 11.27-23.72 23.14l-2.47 30.36a20.15 20.15 0 005 15.74 19.92 19.92 0 001.69 1.64v66.36c0 12.81 9.32 23.22 20.78 23.22a19.8 19.8 0 0015.25-7.39v21.79a12.23 12.23 0 007.74 11.36v68h-5.93c-10.93 0-19.83 5.8-19.83 17.11 0 8.06 0 17 11.72 19.7v1.6a1.38 1.38 0 001.38 1.38h1.63a1.38 1.38 0 001.38-1.37v-.95c1.16.09 2.39.15 3.73.15h1.89v.8a1.38 1.38 0 001.38 1.38h1.63a1.38 1.38 0 001.38-1.37v-.8h5.62v.8a1.38 1.38 0 001.38 1.38h1.63a1.38 1.38 0 001.38-1.37v-.8h5.62v.8a1.38 1.38 0 001.38 1.38h1.63a1.38 1.38 0 001.38-1.37v-.8h5.62v.8a1.38 1.38 0 001.38 1.38h1.63a1.38 1.38 0 001.38-1.37v-.8h5.62v.8a1.38 1.38 0 001.38 1.38h1.63a1.38 1.38 0 001.38-1.37v-.8h5.62v.8a1.38 1.38 0 001.38 1.38h1.63a1.38 1.38 0 001.38-1.37v-.81l.06-55.45V506h4v49.21l.06 54.67v1.6a1.38 1.38 0 001.38 1.38h1.63a1.38 1.38 0 001.38-1.37v-.8h5.62v.8a1.38 1.38 0 001.38 1.38h1.63a1.38 1.38 0 001.38-1.37v-.8h5.62v.8a1.38 1.38 0 001.38 1.38h1.63a1.38 1.38 0 001.38-1.37v-.8h5.62v.8a1.38 1.38 0 001.38 1.38h1.63a1.38 1.38 0 001.38-1.37v-.8h5.62v.8a1.38 1.38 0 001.38 1.38h1.63a1.38 1.38 0 001.38-1.37v-.8h5.62v.8a1.38 1.38 0 001.38 1.38h1.63a1.38 1.38 0 001.38-1.37v-.8h1.89c1.33 0 2.57-.05 3.72-.15v.95a1.38 1.38 0 001.38 1.38h1.63a1.38 1.38 0 001.38-1.37v-1.6c11.71-2.68 11.72-11.64 11.72-19.7 0-11.3-8.89-17.11-19.83-17.11h-5.93v-68a12.23 12.23 0 007.74-11.36V472a19.8 19.8 0 0015.21 7.42c11.46 0 20.78-10.42 20.78-23.22v-66.39a19.92 19.92 0 001.69-1.64 20.15 20.15 0 004.95-15.74zm-130.49-46.18c3.46 1.84 15.64 2.07 27.61 1.79 12 .28 24.15 0 27.61-1.79V338c0 4.8-22.42 12-27.23 12l-.38-.08-.38.08c-4.8 0-27.23-7.19-27.23-12zm-33 75.43v55c0 9.5-6.63 17.22-14.78 17.22s-14.78-7.73-14.78-17.22V393.9a21.08 21.08 0 007.47 1.36h22.09zm52.9 203.42h-50.64c-14.22 0-14.22-5-14.22-14.89 0-8.21 6.38-11.5 14.22-11.5h11.67l38.93-2.71.06 15.37zm-38.74-76.4h38.67v41.7l-38.67 2.68h-.26V528.7zm-.26-5.74V506h38.94v17h-38.91zm104.77 55.75h.26c7.84 0 14.22 3.29 14.22 11.5 0 9.91 0 14.89-14.22 14.89h-50.64v-13.7l.06-15.37 38.93 2.69h11.42zm-11.67-50h.26v44.4h-.26l-38.67-2.68V528.7zM407.75 523v-17h38.95v17h-38.95zm46.84-73.77h-.07v44.58a6.6 6.6 0 01-6.58 6.58H403s-.11-3.73-.16-8.75v-2.79c0-3.51-1.41-5.09-2.82-5-1.41-.09-2.82 1.49-2.82 5v2.79c0 5-.16 8.75-.16 8.75H352.1a6.6 6.6 0 01-6.58-6.58v-44.63h-.07v-.33l30.24.33h48.69l30.24-.33zm35.57 7.51c0 9.5-6.63 17.22-14.78 17.22s-14.78-7.73-14.78-17.22v-61.48h22.09a21.08 21.08 0 007.47-1.36zm6-77.21a13.53 13.53 0 01-6 7.29 14.69 14.69 0 01-7.47 2l-22.09.09v-20.19c0-5.56-6.07-5.94-6.07 0s.07 14.37.07 14.37v59.59H345.41v-59.61s.07-8.46.07-14.37-6.07-5.54-6.07 0v20.11l-22.09-.09a14.69 14.69 0 01-7.47-2 13.53 13.53 0 01-6-7.29 14.89 14.89 0 01-.75-6.46l2.47-30.36c.89-9 9.23-17.08 18.2-17.75l11.12-.83 32.22-2.29c.68.54.48 17.49.48 17.49 0 8.43 23.34 15.29 31.77 15.29h1.3c8.43 0 31.77-6.86 31.77-15.29 0 0-.2-16.95.48-17.49l32.22 2.29 11.12.83c9 .67 17.3 8.8 18.2 17.75L496.9 373a14.89 14.89 0 01-.75 6.48z" id="border"/><g id="head"><path d="M400.09 192.19c.43.08 5.24.91 8.58 1.4a64.21 64.21 0 0112 3.56c5.25 2 5.87 4.38 15.93 12.31 1.49 1.18 11.36 15.47 12.5 20.33a71.33 71.33 0 011.28 18.69c-.42 4.14 2 7.83-2 7.83a15.46 15.46 0 01-3.37-.5l-1.51 8.83a4.64 4.64 0 01-2.15.74 1.48 1.48 0 01-1.35-.74c-1-1.67.42-18.5-1.1-21.67s-6.18-11.63-5.84-15.9c.19-2.4-8.36-2.94-17-2.95-6.69 0-13.41.3-16.1.3-2.69 0-9.41-.33-16.1-.34-8.61 0-17.17.5-17 2.9.33 4.27-4.35 12.72-5.89 15.89s-.16 20-1.16 21.67a1.48 1.48 0 01-1.35.74 4.64 4.64 0 01-2.15-.74l-1.49-8.84a16.52 16.52 0 01-3.55.54c-3.65 0-1.14-3.35-1.78-7.88-.7-5 .19-13.83 1.33-18.69s10.43-20.31 12.46-20.3h.25c2.12 0 10.28-8.72 13.89-10.3s10.47-5 14-5.52c3.34-.47 8.15-1.3 8.58-1.37m0-6a6 6 0 00-.79.05l-.39.06c-.87.15-5.23.89-8.3 1.33-3.37.48-7.68 2.37-13 4.8-1 .44-1.83.84-2.58 1.17-2.37 1-5 3.2-8.65 6.38-1.3 1.13-3.17 2.73-4.21 3.48-3.58.61-6.38 4.24-10.58 11.15-1.29 2.13-5.59 9.41-6.6 13.68-1.32 5.58-2.24 15.16-1.44 20.91a10.94 10.94 0 01-.12 2.8c-.25 2-.63 5.08 1.67 7.69a7.54 7.54 0 004.72 2.45l.57 3.4a6 6 0 002.58 4 10.33 10.33 0 005.47 1.76 7.5 7.5 0 006.5-3.65c1.26-2.1 1.3-4.36 1.25-11.87 0-3.11-.06-8.82.3-10.54l.62-1.24c2.3-4.54 4.54-9.23 5.39-13.37a83.44 83.44 0 0111.32-.53c4 0 8.05.13 11.28.23 2.05.06 3.68.11 4.79.12h.2c1.12 0 2.75 0 4.82-.1 3.23-.09 7.25-.2 11.29-.2a83.45 83.45 0 0111.32.56c.84 4.14 3.07 8.83 5.35 13.38l.62 1.24c.36 1.72.3 7.43.27 10.54-.07 7.51 0 9.77 1.22 11.87a7.5 7.5 0 006.49 3.66 10.33 10.33 0 005.48-1.74 6 6 0 002.59-4l.59-3.46a7.77 7.77 0 004.79-2.53c2.4-2.73 2-6 1.69-8.13a11.88 11.88 0 01-.16-2.45 76.74 76.74 0 00-1.36-20.65c-1.41-6-12-21.57-14.63-23.67-3.84-3-6.19-5.16-8.09-6.88-3-2.74-5.2-4.72-9.42-6.33a66.77 66.77 0 00-13.33-3.89c-2.92-.42-7-1.13-8.15-1.32a6 6 0 00-1.28-.14z" fill="#231f20"/><path id="skin-2" data-name="skin" class="cls-1" d="M446.38 257.1c0-.91.08-1.81.08-2.73 0-30.51-21.06-55.25-47-55.25s-47 24.74-47 55.25c0 1.11 0 2.21.1 3.31-4 2.46-6.9 8.44-6.9 15.43 0 9.19 4.93 16.64 11 16.64a7.47 7.47 0 002.1-.31c.82 24.5 18.74 44.08 40.73 44.08s40.12-19.81 40.74-44.5a7.65 7.65 0 003.25.74c6.08 0 11-7.45 11-16.64-.05-7.65-3.48-14.06-8.1-16.02z"/><path id="border-2" data-name="border" d="M446.38 257.1c0-.91.08-1.81.08-2.73 0-30.51-21.06-55.25-47-55.25s-47 24.74-47 55.25c0 1.11 0 2.21.1 3.31-4 2.46-6.9 8.44-6.9 15.43 0 9.19 4.93 16.64 11 16.64a7.47 7.47 0 002.1-.31c.82 24.5 18.74 44.08 40.73 44.08s40.12-19.81 40.74-44.5a7.65 7.65 0 003.25.74c6.08 0 11-7.45 11-16.64-.05-7.65-3.48-14.06-8.1-16.02z" stroke="#231f20" stroke-linecap="round" stroke-linejoin="round" stroke-width="6" fill="#e4b69d"/><path d="M449.15 229.79c-1.14-4.86-11-19.15-12.5-20.33-10.07-7.93-10.69-10.31-15.93-12.31a64.21 64.21 0 00-12-3.56c-3.34-.48-8.14-1.32-8.58-1.4-.43.07-5.24.9-8.58 1.37-3.5.5-10.26 3.89-14 5.52s-12.22 10.78-14.05 10.28-11.51 15.44-12.62 20.3-2 13.71-1.33 18.69c.78 5.56-3.18 9.33 5.32 7.34l1.49 8.84s2.5 1.67 3.5 0-.37-18.53 1.13-21.67 6.21-11.61 5.89-15.89 26.92-2.58 33.08-2.56c6.16 0 33.41-1.61 33.08 2.65S437.44 239.8 439 243s.11 20 1.1 21.67 3.5 0 3.5 0l1.51-8.83c8.5 2 4.84-2.33 5.34-7.33a71.33 71.33 0 00-1.3-18.72z" fill="#4c3422"/></g></svg>