<svg id="player" xmlns="http://www.w3.org/2000/svg" viewBox="0 0 800 800"><defs><style>.cls-1{fill:#cd936b}.cls-2{fill:#8e1b24}.cls-3{fill:#d1d3d4}.cls-4{fill:#fff}.cls-5{fill:#c1272e}.cls-6{fill:#008251}.cls-9{fill:#231f20}.cls-10{fill:#422413}</style></defs><g id="skin"><path id="arm-left" class="cls-1" d="M305.93 387h36.78v72.4a18.39 18.39 0 01-18.39 18.39 18.39 18.39 0 01-18.39-18.39V387z"/><path id="arm-right" class="cls-1" d="M457.19 387H494v72.4a18.39 18.39 0 01-18.39 18.39 18.39 18.39 0 01-18.39-18.39V387z"/><path id="leg-left" class="cls-1" d="M349.88 497.02h45.67v45.67h-45.67z"/><path id="leg-right" class="cls-1" d="M404.78 497.02h45.67v45.67h-45.67z"/></g><g id="boots"><path id="left" class="cls-2" d="M395.33 575.04H372.5l-22.83 1.97h-12.5l-7.5 2.53-5.25 8.5v9.83l1.91 4.17 3.84 4.05 6.33 1.95h58.83v-33z"/><path id="right" class="cls-2" d="M404.61 575.27h22.83l22.83 1.97h12.5l7.5 2.53 5.25 8.5v9.83l-1.91 4.17-3.84 4.05-6.33 1.95h-58.83v-33z"/><g id="details"><path class="cls-3" d="M326.42 600.12s8.13-4.87 11.13-3.5 11.2 3.28 11 10.24-13.38 1.14-13.38 1.14-7.25-1.75-8.75-7.88zm68.21-4.62s-26.62-6.37-40.5 12.13l41.41.42z" id="left-2" data-name="left"/><path class="cls-3" d="M473.68 600.12s-8.12-4.87-11.12-3.5-11.2 3.28-11 10.24 13.37 1.14 13.37 1.14 7.25-1.75 8.75-7.88zm-68-4.62s26.63-6.37 40.5 12.13l-41.41.42z" id="right-2" data-name="right"/></g></g><g id="socks"><g id="socks-2" data-name="socks"><path id="left-3" data-name="left" class="cls-4" d="M349.88 527h45.67v48.04h-45.67z"/><path id="right-3" data-name="right" class="cls-4" d="M404.38 527h45.67v48.04h-45.67z"/></g><path class="cls-5" d="M350.07 545.02h45.69v17.23h-45.69zm54.7 0h45.69v17.23h-45.69z" id="details-2" data-name="details"/></g><g id="shorts"><path id="shorts-2" data-name="shorts" class="cls-6" d="M341.67 447.54h116.49v47a9.95 9.95 0 01-9.95 9.95h-96.6a9.95 9.95 0 01-9.95-9.95v-47z"/><g id="details-3" data-name="details"><g id="left-4" data-name="left"><path class="cls-5" d="M344.41 448.75h8.26v53.08h-8.26z"/><path class="cls-4" d="M350.07 448.75h2.6v53.08h-2.6z"/></g><g id="right-4" data-name="right"><path class="cls-5" transform="rotate(-180 451.445 475.29)" d="M447.32 448.75h8.26v53.08h-8.26z"/><path class="cls-4" transform="rotate(-180 448.62 475.29)" d="M447.32 448.75h2.6v53.08h-2.6z"/></g></g></g><g id="shirt"><path id="shirt-2" data-name="shirt" class="cls-4" d="M369.5 319.8l-48.29 2.99-11.36 6.25-6.83 10.1-3.31 40.73 5.17 7.67 7.66 4.67h29.5l.17 54h114.83v-53.5l29.34-.17 7.01-4 6.99-10.5-3.4-37.33-6.83-11.84-9.77-6.08-49.84-2.99-1 21.24-6.5 6.5-11.16 3.48-11.88 2.02-15.46-3.17-11-5.66-3.66-3.84-.38-20.57z"/><g id="details-4" data-name="details"><path id="neck" class="cls-5" d="M400 367c7.41-.05 27.7-15 27.7-15l-7.7-8-20 10.22L380 344l-7.73 8s20.3 14.91 27.7 15v-2z"/><rect id="logo-puma-text" class="cls-5" x="390.12" y="379.64" width="17.54" height="5.65" rx="2.82" ry="2.82"/><g id="chest-r"><path id="chest-r-2" data-name="chest-r" class="cls-5" d="M458.16 374.25l-2.87-5h-33.74a9.8 9.8 0 00-9.8 9.8v6.06a9.8 9.8 0 009.8 9.8h67.37l6.84-6.32 4.61-14.33z"/><rect class="cls-5" x="450.23" y="360.79" width="13.92" height="20.11" rx="6.96" ry="6.96"/></g><g id="chest-l"><path id="chest-l-2" data-name="chest-l" class="cls-5" d="M345.41 369.25l-2.71 5h-43l2 11.5 7.5 9.15h67a9.8 9.8 0 009.8-9.8V379a9.8 9.8 0 00-9.8-9.8z"/><rect class="cls-5" x="335.75" y="360.79" width="13.92" height="20.11" rx="6.96" ry="6.96"/></g><path class="cls-5" d="M407.24 400.71l-7.74 17.68a2.43 2.43 0 01-2.24 1.43 2.35 2.35 0 01-2.37-2.33 2.19 2.19 0 01.2-.9l6.64-15h-9.33a2.09 2.09 0 01-2.07-2.13 2.07 2.07 0 012.07-2h12.74a2.37 2.37 0 012.3 2.4 2.11 2.11 0 01-.2.85z" id="number-7"/><g id="crest-morocco-98"><path d="M442.16 372.44a10.91 10.91 0 10-12.33 17.61v4.66a4.62 4.62 0 009.23 0v-4.66a10.92 10.92 0 003.1-17.61zm.58 12q-.21.4-.45.78l-.25.37q-.19.27-.41.53l-.29.34-.31.32-.32.31-.17.15-.34.28-.18.14-.55.38-.4.24a9.26 9.26 0 01-1.6.72v5.74a3 3 0 010 .31v.15a3 3 0 01-.06.29v.14q0 .14-.1.28a3 3 0 01-.2.39l-.16.24a3 3 0 01-.28.33l-.21.19-.18.14-.17.11-.13.07-.26.13-.28.1h-.14a3 3 0 01-.75.09 3 3 0 01-.46 0 3 3 0 01-1.1-.4l-.12-.08a3 3 0 01-.34-.27l-.1-.1a3 3 0 01-.28-.33l-.16-.24a3 3 0 01-.2-.39q-.06-.14-.1-.28v-.14a3 3 0 01-.06-.29v-.15a3.05 3.05 0 010-.31V389l-.19-.07q-.43-.16-.84-.35l-.4-.21-.18-.1-.21-.12-.38-.24-.37-.26q-.27-.2-.52-.42l-.17-.15q-.33-.3-.63-.63l-.29-.34-.28-.35q-.2-.27-.38-.55t-.34-.58l-.21-.4q-.2-.41-.35-.84t-.21-.65q-.06-.22-.11-.45a9.34 9.34 0 01-.24-2.1 9.34 9.34 0 01.24-2.1q.05-.23.11-.45c0-.13.08-.26.12-.38l.09-.27q.16-.43.35-.84l.21-.4.15-.27.19-.31q.18-.28.38-.55l.28-.35.29-.34.31-.32.32-.31.17-.15q.25-.22.52-.42l.37-.26.38-.24.19-.23.4-.21q.41-.2.84-.35l.27-.09.38-.12.67-.16a9.29 9.29 0 01.92-.14 9.42 9.42 0 012.83.14l.45.1.22.06.44.14a9.27 9.27 0 012 1l.26.18.29.21.18.14.34.28.17.15q.33.3.63.63l.29.34.2.25.21.28.25.37.19.31.08.14.18.33.17.34.07.16a9.24 9.24 0 01.36 1q.06.2.11.39v.09a9.3 9.3 0 01-.74 6.52z" fill="#d3a42a"/><path class="cls-5" d="M434.45 373.36a6.79 6.79 0 106.79 6.79 6.79 6.79 0 00-6.79-6.79z"/><path class="cls-4" d="M434.73 374.1l.85 1.72a3.35 3.35 0 002.52 1.83l1.9.28a.32.32 0 01.18.54l-1.38 1.34a3.35 3.35 0 00-1 3l.33 1.9a.32.32 0 01-.46.34l-1.7-.9a3.35 3.35 0 00-3.12 0l-1.7.9a.32.32 0 01-.46-.34l.33-1.9a3.35 3.35 0 00-1-3l-1.38-1.34a.32.32 0 01.18-.54l1.9-.28a3.35 3.35 0 002.52-1.83l.85-1.72a.32.32 0 01.64 0z"/><path class="cls-6" d="M443.47 377.88v-.09q-.05-.2-.11-.39a9.24 9.24 0 00-.36-1l-.07-.16-.17-.34-.18-.33-.08-.14-.19-.31-.25-.37-.21-.28-.2-.25-.29-.34q-.3-.33-.63-.63l-.17-.15-.34-.28-.18-.14-.29-.21-.26-.18a9.27 9.27 0 00-2-1l-.44-.14-.22-.06-.45-.1a9.38 9.38 0 00-3.75 0l-.67.16-.38.12-.27.09q-.43.16-.84.35l-.4.21-.39.22-.38.24-.37.26q-.27.2-.52.42l-.17.15-.32.31-.31.32-.29.34-.28.35q-.2.27-.38.55l-.19.31-.15.27-.21.4q-.2.41-.35.84l-.09.27c0 .13-.08.25-.12.38s-.08.3-.11.45a9.39 9.39 0 000 4.2q.05.23.11.45t.21.65q.16.43.35.84l.21.4q.16.3.34.58t.38.55l.28.35.29.34q.3.33.63.63l.17.15q.25.22.52.42l.37.26.38.24.21.12.18.1.4.21q.41.2.84.35l.19.07v-2.72a6.79 6.79 0 103-12.88 6.79 6.79 0 110 13.59v10.78a3 3 0 00.75-.09h.14l.28-.1.26-.13.13-.07.17-.11.18-.14.21-.19a3 3 0 00.28-.33l.16-.24a3 3 0 00.2-.39q.06-.14.1-.28v-.14a3 3 0 00.06-.29v-.15a3 3 0 000-.31V389a9.26 9.26 0 001.6-.72l.4-.24.55-.38.18-.14.34-.28.17-.15.32-.31.31-.32.29-.34q.21-.26.41-.53l.25-.37q.24-.38.45-.78a9.34 9.34 0 00.74-6.52zm-3.47 2.28a5.46 5.46 0 01-1.77 4 5.52 5.52 0 01-1.3.9 5.51 5.51 0 01-4.89 0 5.52 5.52 0 01-1.3-.9 5.46 5.46 0 01-1.77-4 5.51 5.51 0 1111 0z"/><path class="cls-5" d="M431.43 384.79V389l.23.08-.23-.08v5.74a3.05 3.05 0 000 .31v.15a3 3 0 00.06.29v.14q0 .14.1.28a3 3 0 00.2.39l.16.24a3 3 0 00.28.33l.1.1a3 3 0 00.34.27l.12.08a3 3 0 001.1.4 3 3 0 00.46 0v-12.05a6.92 6.92 0 01-2.92-.88z"/></g></g></g><path id="neck-2" data-name="neck" fill="#ad7d5c" d="M427.63 345.26l-27.59 8.62-28.6-9.62-1.92-23.62h61.04l-2.93 24.62z"/><path d="M502.88 373.43l-2.47-30.36c-1.19-11.87-11.83-22.25-23.72-23.14l-37.14-2.71c-4.07-.45-20.52-.09-39.55.53-19-.62-35.48-1-39.55-.53l-37.14 2.71c-11.89.89-22.53 11.27-23.72 23.14l-2.47 30.36a20.15 20.15 0 005 15.74 19.92 19.92 0 001.69 1.64v66.36c0 12.81 9.32 23.22 20.78 23.22a19.8 19.8 0 0015.25-7.39v21.79a12.23 12.23 0 007.74 11.36v68h-5.93c-10.93 0-19.83 5.8-19.83 17.11 0 8.06 0 17 11.72 19.7v1.6a1.38 1.38 0 001.38 1.38h1.63a1.38 1.38 0 001.38-1.37v-.95c1.16.09 2.39.15 3.73.15h1.89v.8a1.38 1.38 0 001.38 1.38h1.63a1.38 1.38 0 001.38-1.37v-.8h5.62v.8a1.38 1.38 0 001.38 1.38h1.63a1.38 1.38 0 001.38-1.37v-.8h5.62v.8a1.38 1.38 0 001.38 1.38h1.63a1.38 1.38 0 001.38-1.37v-.8h5.62v.8a1.38 1.38 0 001.38 1.38h1.63a1.38 1.38 0 001.38-1.37v-.8h5.62v.8a1.38 1.38 0 001.38 1.38h1.63a1.38 1.38 0 001.38-1.37v-.8h5.62v.8a1.38 1.38 0 001.38 1.38h1.63a1.38 1.38 0 001.38-1.37v-.81l.06-55.45V507h4v49.21l.06 54.67v1.6a1.38 1.38 0 001.38 1.38h1.63a1.38 1.38 0 001.38-1.37v-.8h5.62v.8a1.38 1.38 0 001.38 1.38h1.63a1.38 1.38 0 001.38-1.37v-.8h5.62v.8a1.38 1.38 0 001.38 1.38h1.63a1.38 1.38 0 001.38-1.37v-.8h5.62v.8a1.38 1.38 0 001.38 1.38h1.63a1.38 1.38 0 001.38-1.37v-.8h5.62v.8a1.38 1.38 0 001.38 1.38h1.63a1.38 1.38 0 001.38-1.37v-.8h5.62v.8a1.38 1.38 0 001.38 1.38h1.63a1.38 1.38 0 001.38-1.37v-.8h1.89c1.33 0 2.57-.05 3.72-.15v.95a1.38 1.38 0 001.38 1.38h1.63a1.38 1.38 0 001.38-1.37v-1.6c11.71-2.68 11.72-11.64 11.72-19.7 0-11.3-8.89-17.11-19.83-17.11h-5.93v-68a12.23 12.23 0 007.74-11.36V473a19.8 19.8 0 0015.21 7.42c11.46 0 20.78-10.42 20.78-23.22v-66.39a19.92 19.92 0 001.69-1.64 20.15 20.15 0 004.95-15.74zm-130.49-46.18c3.46 1.84 15.64 2.07 27.61 1.79 12 .28 24.15 0 27.61-1.79V339c0 4.8-22.42 12-27.23 12l-.38-.08-.38.08c-4.8 0-27.23-7.19-27.23-12zm-33 75.43v55c0 9.5-6.63 17.22-14.78 17.22s-14.78-7.73-14.78-17.22V394.9a21.08 21.08 0 007.47 1.36h22.09zm52.9 203.42h-50.64c-14.22 0-14.22-5-14.22-14.89 0-8.21 6.38-11.5 14.22-11.5h11.67l38.93-2.71.06 15.37zm-38.74-76.4h38.67v41.7l-38.67 2.68h-.26V529.7zm-.26-5.74V507h38.94v17h-38.91zm104.77 55.75h.26c7.84 0 14.22 3.29 14.22 11.5 0 9.91 0 14.89-14.22 14.89h-50.64v-13.7l.06-15.37 38.93 2.69h11.42zm-11.67-50h.26v44.4h-.26l-38.67-2.68V529.7zM407.75 524v-17h38.95v17h-38.95zm46.84-73.77h-.07v44.58a6.6 6.6 0 01-6.58 6.58H403s-.11-3.73-.16-8.75v-2.79c0-3.51-1.41-5.09-2.82-5-1.41-.09-2.82 1.49-2.82 5v2.79c0 5-.16 8.75-.16 8.75H352.1a6.6 6.6 0 01-6.58-6.58v-44.63h-.07v-.33l30.24.33h48.69l30.24-.33zm35.57 7.51c0 9.5-6.63 17.22-14.78 17.22s-14.78-7.73-14.78-17.22v-61.48h22.09a21.08 21.08 0 007.47-1.36zm6-77.21a13.53 13.53 0 01-6 7.29 14.69 14.69 0 01-7.47 2l-22.09.09v-20.19c0-5.56-6.07-5.94-6.07 0s.07 14.37.07 14.37v59.59H345.41v-59.61s.07-8.46.07-14.37-6.07-5.54-6.07 0v20.11l-22.09-.09a14.69 14.69 0 01-7.47-2 13.53 13.53 0 01-6-7.29 14.89 14.89 0 01-.75-6.46l2.47-30.36c.89-9 9.23-17.08 18.2-17.75l11.12-.83 32.22-2.29c.68.54.48 17.49.48 17.49 0 8.43 23.34 15.29 31.77 15.29h1.3c8.43 0 31.77-6.86 31.77-15.29 0 0-.2-16.95.48-17.49l32.22 2.29 11.12.83c9 .67 17.3 8.8 18.2 17.75L496.9 374a14.89 14.89 0 01-.75 6.48z" id="border"/><g id="shirt-collars"><path class="cls-6" d="M380 344l-8.52 8.72s-13.48-4.45-12.37-19.86.31-12.55.31-12.55l8 .36z"/><path class="cls-4" d="M373.71 352.12c-16.29-3.77-13.93-29.66-13.82-30.76l3.19.28c4.91-.94-3.37 21.53 13 27.11z"/><path class="cls-5" d="M370 352.64c-13.93-3.92-11.91-30.85-11.82-32l2.73.29c4.2-1-2.88 22.4 11.09 28.2z"/><path class="cls-9" d="M371.5 355a2.3 2.3 0 01-.72-.12c-.15 0-15.17-5.21-13.95-22.22.52-7.2.6-10.12.58-11.29a2.31 2.31 0 01-.19-1.72 2.41 2.41 0 012.74-1.86 2.64 2.64 0 01.73.23l6.88.31a2.31 2.31 0 011.93 1.21l12.56 23.33a2.31 2.31 0 01-.38 2.71l-8.52 8.72a2.31 2.31 0 01-1.66.7zm-9.5-32.25c-.05 2.19-.25 5.65-.58 10.29-.41 5.66 1.29 10.33 5 13.86A18.58 18.58 0 00371 350l6.23-6.38-11.14-20.68z"/><path class="cls-6" d="M420.06 344l8.52 8.72s13.48-4.45 12.37-19.86-.31-12.55-.31-12.55l-8 .36z"/><path class="cls-4" d="M426.37 352.12c16.29-3.77 13.93-29.66 13.82-30.76l-3.19.28c-4.91-.94 3.37 21.53-13 27.11z"/><path class="cls-5" d="M430 352.64c13.93-3.92 11.91-30.85 11.82-32l-2.73.29c-4.2-1 2.88 22.4-11.09 28.2z"/><path class="cls-9" d="M426.93 354.35l-8.52-8.72a2.31 2.31 0 01-.38-2.71l12.56-23.33a2.31 2.31 0 011.93-1.21l6.88-.31a2.64 2.64 0 01.73-.23 2.41 2.41 0 012.74 1.86 2.31 2.31 0 01-.19 1.72c0 1.16.07 4.08.58 11.29 1.23 17-13.8 22.17-13.95 22.22a2.31 2.31 0 01-2.37-.58zm7.1-31.41l-11.14 20.68 6.23 6.38a18.58 18.58 0 004.47-3.09c3.76-3.53 5.46-8.2 5-13.86-.33-4.64-.53-8.1-.58-10.29z"/></g><g id="head"><path class="cls-9" d="M446.61 270.17a13.74 13.74 0 013.68.49s9.15 6.56 4 14.8c0 0 3.83 9.72-5.41 14.66 0 0-1.65 11.69-8.22 11.69a6.15 6.15 0 01-1.37-.16s-1.35.13-3.23.13c-3.74 0-9.6-.52-11.28-3.66 0 0-13.5-4.13-12.19-9.23 0 0 17.34-28.72 34-28.72m0-6c-19.5 0-37.2 28.38-39.15 31.62a6 6 0 00-.68 1.61c-.91 3.56-.15 8.77 8.65 13.34a48.85 48.85 0 005.72 2.48c2.92 3 7.92 4.56 14.92 4.56 1.22 0 2.25 0 2.93-.09a11.91 11.91 0 001.67.12c3 0 8.61-1.24 12.1-9.51a31.13 31.13 0 001.48-4.47c6.91-5.08 7.5-12.63 6.46-17.73 3.58-8.63-1.89-16.71-6.91-20.31a6 6 0 00-1.9-.91 19.8 19.8 0 00-5.28-.71z"/><path class="cls-10" d="M450.29 270.66s9.15 6.56 4 14.8c0 0 3.83 9.72-5.41 14.66 0 0-1.87 13.28-9.59 11.53 0 0-12 1.19-14.51-3.53 0 0-13.5-4.13-12.19-9.23.01 0 20-33.12 37.7-28.23z"/><path class="cls-9" d="M404 193.87a6.13 6.13 0 014.33 1.54s5.58.08 8.25 2.58c0 0 6.83.83 11.25 5.92a15.24 15.24 0 019.5 9.17s6.25 4.42 7.17 11.5c0 0 4.92 4.83 3.92 9.17 0 0 3.83 3 3.17 11.25 0 0 3.32 10.25.08 13.42 0 0-3.71 2.39-6.46 2.39a3.12 3.12 0 01-1.62-.39s-5.29-13.17-6.29-18.42-3.65-14-5.06-14H432c-2.28 0-26.07-2.39-32-2.4s-29.74 2.4-32 2.4h-.14c-1.42 0-4.07 8.76-5.06 14s-6.29 18.42-6.29 18.42a3.12 3.12 0 01-1.62.39c-2.76 0-6.46-2.39-6.46-2.39-3.24-3.17.08-13.42.08-13.42-.67-8.25 3.17-11.25 3.17-11.25-1-4.33 3.92-9.17 3.92-9.17.92-7.08 7.17-11.5 7.17-11.5a15.24 15.24 0 019.5-9.17c4.42-5.08 11.25-5.92 11.25-5.92 2.67-2.5 8.25-2.58 8.25-2.58a6.13 6.13 0 014.33-1.54 11.71 11.71 0 013.94.74 11.7 11.7 0 013.94-.74m0-6a17.17 17.17 0 00-3.94.48 17.17 17.17 0 00-3.94-.48 12.53 12.53 0 00-6.45 1.68 20.12 20.12 0 00-8.62 2.81 25.57 25.57 0 00-12.13 6.4 21.2 21.2 0 00-11 10.59 24.51 24.51 0 00-7.9 12.46c-1.69 2-4.15 5.65-4.44 9.88-1.63 2.39-3.37 6.42-3.11 12.57-1.36 4.65-3.11 13.65 1.79 18.43l.94.75c1.22.78 5.52 3.35 9.71 3.35a9 9 0 004.69-1.24l2.49-2.91c.56-1.4 5.54-13.87 6.62-19.53a64.69 64.69 0 012.57-9.3l7.15-.61c7.68-.67 18.2-1.59 21.61-1.59s13.92.92 21.6 1.59l7.16.61a64.69 64.69 0 012.57 9.3c1.08 5.66 6.05 18.13 6.62 19.53l2.49 2.91a9 9 0 004.69 1.24c4.2 0 8.49-2.56 9.71-3.35l.94-.75c4.9-4.78 3.15-13.79 1.79-18.43.26-6.17-1.49-10.2-3.12-12.59a16.05 16.05 0 00-2.61-7.35 24.54 24.54 0 00-1.81-2.5 24.5 24.5 0 00-7.83-12.49 21.2 21.2 0 00-11-10.59 25.57 25.57 0 00-12.13-6.4 20.12 20.12 0 00-8.62-2.81 12.54 12.54 0 00-6.45-1.68z"/><path id="skin-2" data-name="skin" class="cls-1" d="M446.38 258.1c0-.91.08-1.81.08-2.73 0-30.51-21.06-55.25-47-55.25s-47 24.74-47 55.25c0 1.11 0 2.21.1 3.31-4 2.46-6.9 8.44-6.9 15.43 0 9.19 4.93 16.64 11 16.64a7.47 7.47 0 002.1-.31c.82 24.5 18.74 44.08 40.73 44.08s40.12-19.81 40.74-44.5a7.65 7.65 0 003.25.74c6.08 0 11-7.45 11-16.64-.05-7.65-3.48-14.06-8.1-16.02z"/><path id="border-2" data-name="border" d="M446.38 258.1c0-.91.08-1.81.08-2.73 0-30.51-21.06-55.25-47-55.25s-47 24.74-47 55.25c0 1.11 0 2.21.1 3.31-4 2.46-6.9 8.44-6.9 15.43 0 9.19 4.93 16.64 11 16.64a7.47 7.47 0 002.1-.31c.82 24.5 18.74 44.08 40.73 44.08s40.12-19.81 40.74-44.5a7.65 7.65 0 003.25.74c6.08 0 11-7.45 11-16.64-.05-7.65-3.48-14.06-8.1-16.02z" fill="none" stroke="#231f20" stroke-linecap="round" stroke-linejoin="round" stroke-width="6"/><path class="cls-10" d="M451.54 245c.67-8.25-3.17-11.25-3.17-11.25 1-4.33-3.92-9.17-3.92-9.17-.92-7.08-7.17-11.5-7.17-11.5a15.24 15.24 0 00-9.5-9.17c-4.42-5.08-11.25-5.92-11.25-5.92-2.67-2.5-8.25-2.58-8.25-2.58-3-2.85-8-.89-8.27-.8-.23-.09-5.25-2.05-8.27.8 0 0-5.58.08-8.25 2.58 0 0-6.83.83-11.25 5.92a15.24 15.24 0 00-9.5 9.17s-6.25 4.42-7.17 11.5c0 0-4.92 4.83-3.92 9.17 0 0-3.83 3-3.17 11.25 0 0-3.32 10.25-.08 13.42 0 0 5.49 3.54 8.08 2 0 0 5.29-13.17 6.29-18.42s3.68-14.08 5.09-14 26.06-2.39 32.14-2.4 30.73 2.5 32.14 2.4 4.09 8.73 5.09 14 6.29 18.42 6.29 18.42c2.58 1.54 8.08-2 8.08-2 3.26-3.17-.06-13.42-.06-13.42z"/><path d="M400.48 302.65h-.92s-20.27-2.44-18.2 13.93c0 0-1.41 2.38 4.07 16.62h29.19c6.35-14.76 4.07-16.62 4.07-16.62 2.06-16.37-18.21-13.93-18.21-13.93zm2.64 21.45a20.33 20.33 0 00-1.42-3.15 2.08 2.08 0 00-3.35 0 20.33 20.33 0 00-1.42 3.15c-6.43.76-14.16 4.6-14.16-5.6s3.12-13.11 16.79-13.73h.92c13.68.62 16.79 3.52 16.79 13.73s-7.72 6.36-14.15 5.6z" fill="#3a2924" opacity=".2"/></g></svg>