<svg id="player" xmlns="http://www.w3.org/2000/svg" viewBox="0 0 800 800"><defs><style>.cls-1{fill:#e4b69d}.cls-2{fill:#414042}.cls-3{fill:#434343}.cls-4{fill:#fff}.cls-5{fill:#221f1f}.cls-6{fill:#e01f26}.cls-7{fill:#282828}.cls-9{fill:#ead12a}.cls-10{fill:#f1f2f2}.cls-11{fill:#00a79d}.cls-12{fill:#3d55a5}.cls-14{fill:#231f20}</style></defs><g id="skin"><path id="arm-left" class="cls-1" d="M305.93 382h36.78v72.4a18.39 18.39 0 01-18.39 18.39 18.39 18.39 0 01-18.39-18.39V382z"/><path id="arm-right" class="cls-1" d="M457.19 382H494v72.4a18.39 18.39 0 01-18.39 18.39 18.39 18.39 0 01-18.39-18.39V382h-.03z"/><path id="leg-left" class="cls-1" d="M349.88 492.02h45.67v45.67h-45.67z"/><path id="leg-right" class="cls-1" d="M404.78 492.02h45.67v45.67h-45.67z"/></g><g id="boots"><path id="left" class="cls-2" d="M395.54 570.04h-22.83l-22.83 1.97h-12.5l-7.5 2.53-5.25 8.5v9.83l1.91 4.17 3.84 4.05 6.33 1.95h58.83v-33z"/><path id="right" class="cls-2" d="M404.67 570.04h22.83l22.83 1.97h12.5l7.5 2.53 5.25 8.5v9.83l-1.91 4.17-3.84 4.05-6.33 1.95h-58.83v-33z"/><g id="details"><path class="cls-3" d="M395.19 572.83s-36.09 18.33-50.92 15.5-19.7-4.33-19.7-4.33-.7 8.56 1.15 11.37 25.16 2.79 38.86-3 30.62-11.67 30.62-11.67zm9.62 0s36.09 18.33 50.92 15.5 19.7-4.33 19.7-4.33.7 8.56-1.15 11.37-25.16 2.79-38.86-3-30.62-11.67-30.62-11.67z"/><path class="cls-3" d="M397.19 604.2s-36.09-18.33-50.92-15.5-19.7 4.33-19.7 4.33-.7-8.56 1.15-11.37 25.16-2.79 38.86 3 30.62 11.67 30.62 11.67zm5.62 0s36.09-18.33 50.92-15.5 19.7 4.33 19.7 4.33.7-8.56-1.15-11.37-25.16-2.79-38.86 3-30.62 11.67-30.62 11.67z"/><path class="cls-4" d="M393.54 573.31s-20.79 9.77-.08 28zm13.24 0s20.79 9.77.08 28z"/></g></g><g id="socks"><path id="left-2" data-name="left" class="cls-5" d="M349.88 522h45.67v48.04h-45.67z"/><path id="right-2" data-name="right" class="cls-5" d="M404.38 522h45.67v48.04h-45.67z"/><g id="details-2" data-name="details"><path class="cls-4" d="M350.92 529.03h44.33v4.33h-44.33zm0 8.67h44.33v4.33h-44.33z" id="left-3" data-name="left"/><path class="cls-4" d="M404.38 529.03h44.33v4.33h-44.33zm0 8.67h44.33v4.33h-44.33z" id="right-3" data-name="right"/></g></g><path id="shorts" class="cls-4" d="M341.67 442.54h116.49v47a9.95 9.95 0 01-9.95 9.95h-96.6a9.95 9.95 0 01-9.95-9.95v-47h.01z"/><g id="shirt"><path id="shirt-2" data-name="shirt" class="cls-6" d="M369.5 314.8l-48.29 2.99-11.36 6.25-6.83 10.1-1.93 98.78 11.16 7.16 29.96 1.13h147.21l10.96-12.79-3.4-92.71-6.83-11.84-9.77-6.08-49.84-2.99-1 21.24-6.5 6.5-11.16 3.48-11.88 2.02-15.46-3.17-11-5.66-3.66-3.84-.38-20.57z"/><g id="details-3" data-name="details"><path class="cls-7" d="M424.3 339.58c-.37 6-24.25 8.46-24.25 8.46s-23.87-2.5-24.25-8.46-5.12 4-5.12 4 17.82 14.91 29.32 14.91 29.38-14.87 29.38-14.87-4.71-10-5.08-4.04zm-81.59 102.65l-31.4-3.45a8.41 8.41 0 01-7.3-6.57l-2.92-9.46 41.62 3zm114.48 0l31.4-3.45a8.41 8.41 0 007.3-6.57l2.92-9.46-41.62 3z"/><path d="M438.69 378.24l-2.69 2.18a3.93 3.93 0 01-4.89 0l-2.74-2.18c-2.29-1.83-4.69-1.55-4.82-4.48l-.7-14.9a2 2 0 011.63-2.09l8.66-1.57a2.08 2.08 0 01.83 0l7.66 1.57c1 .2 2.68 1.09 2.63 2.09l-.7 14.9c-.19 2.93-2.56 2.66-4.87 4.48z" fill="#e54854"/><path class="cls-4" d="M433.5 381.79a4.42 4.42 0 01-2.76-1l-2.74-2.15a10.77 10.77 0 00-2.15-1.26c-1.42-.69-2.76-1.33-2.86-3.58l-.7-14.9a2.53 2.53 0 012-2.61l8.68-1.57a2.55 2.55 0 011 0l7.66 1.57c1.09.22 3.09 1.22 3 2.61l-.7 14.9c-.11 2.25-1.45 2.9-2.86 3.58a10.74 10.74 0 00-2.15 1.26l-2.74 2.18a4.42 4.42 0 01-2.68.97zm0-26.12a1.56 1.56 0 00-.31 0l-8.68 1.57a1.53 1.53 0 00-1.22 1.58l.7 14.9c.08 1.65.92 2.06 2.3 2.73a11.72 11.72 0 012.33 1.38l2.74 2.18a3.41 3.41 0 004.27 0l2.74-2.18a11.75 11.75 0 012.33-1.38c1.39-.67 2.22-1.08 2.3-2.73l.7-14.9c0-.57-1.23-1.38-2.23-1.58l-7.67-1.57a1.58 1.58 0 00-.3 0z"/><g id="manchester-united-crest-2003"><path class="cls-9" d="M439.24 366.08a1.32 1.32 0 01-1.22-.91 4.78 4.78 0 00-9 0 1.32 1.32 0 01-1.22.91 1.32 1.32 0 01-1.23-1.75 7.34 7.34 0 0113.93 0 1.32 1.32 0 01-1.23 1.75zm0 2.29a1.32 1.32 0 00-1.22.91 4.78 4.78 0 01-9 0 1.32 1.32 0 00-1.22-.91 1.32 1.32 0 00-1.23 1.75 7.34 7.34 0 0013.93 0 1.32 1.32 0 00-1.23-1.75z"/><circle class="cls-9" cx="427.61" cy="367.23" r="1.14"/><circle class="cls-9" cx="439.4" cy="367.23" r="1.14"/><path class="cls-9" d="M431.11 363.79h4.78a.84.84 0 01.84.84v3.56a3.23 3.23 0 01-3.23 3.23 3.23 3.23 0 01-3.23-3.23v-3.56a.84.84 0 01.84-.84z"/><path class="cls-6" d="M431.58 366h.57v2.06a.08.08 0 01-.08.08h-.4a.08.08 0 01-.08-.08V366h-.01zm.85 0h-1.13a5.41 5.41 0 01.57-1.13 5.2 5.2 0 01.56 1.13zm.79 0h.57v2.06a.08.08 0 01-.08.08h-.4a.08.08 0 01-.08-.08V366h-.01zm.85 0h-1.13a5.41 5.41 0 01.57-1.13 5.2 5.2 0 01.56 1.13zm.79 0h.57v2.06a.08.08 0 01-.08.08h-.4a.08.08 0 01-.08-.08V366h-.01zm.85 0h-1.13a5.41 5.41 0 01.57-1.13 5.2 5.2 0 01.56 1.13z"/><path class="cls-6" d="M431.58 367.2h3.84v1.46a.44.44 0 01-.44.44h-3a.44.44 0 01-.44-.44v-1.46h.04z"/></g><g id="brand-umbro"><path class="cls-4" d="M365.27 375.47a2.15 2.15 0 01-1-.22l-7.87-3.89a1.34 1.34 0 010-2.51l7.87-3.89a2.19 2.19 0 011.9 0l7.87 3.89a1.34 1.34 0 010 2.51l-7.87 3.89a2.15 2.15 0 01-.9.22zm0-9.22l-7.83 3.89 7.87 3.84 7.8-3.87zm7.87 3.84l.49.64-.49-.64z"/><path class="cls-4" d="M369.18 370.4l-3.69 1.82a.5.5 0 01-.44 0l-3.69-1.82a.31.31 0 010-.58l3.69-1.82a.5.5 0 01.44 0l3.69 1.82a.31.31 0 010 .58z"/></g><rect id="sponsor-sharp" class="cls-4" x="365.23" y="390.12" width="69.63" height="17.25" rx="8.62" ry="8.62"/><g id="epl-logo-r"><path class="cls-10" d="M499.25 358a3.57 3.57 0 01-2.66 4.23 4.8 4.8 0 01-4.67-3L486.86 347a2.83 2.83 0 012.3-4.06l3.92-.58a3.81 3.81 0 014.31 3.2z"/><path class="cls-11" d="M498.92 355.75c.31 2.06-.58 3.92-2 4.13s-3.19-1.2-4-3.13l-3.3-7.89a2.82 2.82 0 012.29-4.06l1.47-.22a3.81 3.81 0 014.31 3.2z"/><path class="cls-12" d="M497.87 353c.31 2.06-.16 3.86-1 4s-2.25-1.34-3.05-3.26l-1-2.36c-.81-1.93-.19-3.69 1.36-3.92s3.08 1.27 3.38 3.33z"/></g><g id="epl-logo-r-2" data-name="epl-logo-r"><path class="cls-10" d="M300.65 358a3.57 3.57 0 002.66 4.23 4.8 4.8 0 004.67-3L313 347a2.83 2.83 0 00-2.3-4.06l-3.92-.58a3.81 3.81 0 00-4.31 3.2z"/><path class="cls-11" d="M301 355.75c-.31 2.06.58 3.92 2 4.13s3.19-1.2 4-3.13l3.3-7.89a2.82 2.82 0 00-2.29-4.06l-1.47-.22a3.81 3.81 0 00-4.31 3.2z"/><path class="cls-12" d="M302 353c-.31 2.06.16 3.86 1 4s2.25-1.34 3.05-3.26l1-2.36c.81-1.93.19-3.69-1.36-3.92s-3.08 1.27-3.38 3.33z"/></g></g></g><path id="neck" fill="#b08874" d="M427.61 339.42l-27.59 8.62-28.6-9.62-1.92-23.62h61.04l-2.93 24.62z"/><path d="M502.88 421.91l-2.47-83.84c-1.19-11.87-11.83-22.25-23.72-23.14l-37.14-2.71c-4.07-.45-20.52-.09-39.55.53-19-.62-35.48-1-39.55-.53l-37.14 2.71c-11.89.89-22.53 11.27-23.72 23.14l-2.47 83.84a20.15 20.15 0 005 15.74 19.92 19.92 0 001.69 1.64v12.87c0 12.81 9.32 23.22 20.78 23.22a19.8 19.8 0 0015.25-7.38v21.79a12.23 12.23 0 007.74 11.36v68h-5.93c-10.93 0-19.83 5.8-19.83 17.11 0 8.06 0 17 11.72 19.7v1.6a1.38 1.38 0 001.38 1.38h1.63a1.38 1.38 0 001.38-1.37v-.95c1.16.09 2.39.15 3.73.15h1.89v.8a1.38 1.38 0 001.38 1.38h1.63a1.38 1.38 0 001.38-1.37v-.8h5.62v.8a1.38 1.38 0 001.38 1.38h1.63a1.38 1.38 0 001.38-1.37v-.8h5.62v.8a1.38 1.38 0 001.38 1.38h1.63a1.38 1.38 0 001.38-1.37v-.8h5.62v.8a1.38 1.38 0 001.38 1.38h1.63a1.38 1.38 0 001.38-1.37v-.8h5.62v.8a1.38 1.38 0 001.38 1.38h1.63a1.38 1.38 0 001.38-1.37v-.8h5.62v.8a1.38 1.38 0 001.38 1.38h1.63a1.38 1.38 0 001.38-1.37v-.81l.06-55.45V502h4v49.21l.06 54.67v1.6a1.38 1.38 0 001.38 1.38h1.63a1.38 1.38 0 001.38-1.37v-.8h5.62v.8a1.38 1.38 0 001.38 1.38h1.63a1.38 1.38 0 001.38-1.37v-.8h5.62v.8a1.38 1.38 0 001.38 1.38h1.63a1.38 1.38 0 001.38-1.37v-.8h5.62v.8a1.38 1.38 0 001.38 1.38h1.63a1.38 1.38 0 001.38-1.37v-.8h5.62v.8a1.38 1.38 0 001.38 1.38h1.63a1.38 1.38 0 001.38-1.37v-.8h5.62v.8a1.38 1.38 0 001.38 1.38h1.63a1.38 1.38 0 001.38-1.37v-.8h1.89c1.33 0 2.57-.05 3.72-.15v.95a1.38 1.38 0 001.38 1.38h1.63a1.38 1.38 0 001.38-1.37v-1.6c11.71-2.68 11.72-11.64 11.72-19.7 0-11.3-8.89-17.11-19.83-17.11h-5.93v-68a12.23 12.23 0 007.74-11.36V468a19.8 19.8 0 0015.21 7.42c11.46 0 20.78-10.42 20.78-23.22v-12.9a19.92 19.92 0 001.69-1.64 20.15 20.15 0 004.95-15.75zm-130.49-99.66c3.46 1.84 15.64 2.07 27.61 1.79 12 .28 24.15 0 27.61-1.79V334c0 4.8-22.42 12-27.23 12l-.38-.08-.38.08c-4.8 0-27.23-7.19-27.23-12zm-33 128.91v1.53c0 9.5-6.63 17.22-14.78 17.22s-14.78-7.73-14.78-17.22v-9.31a21.08 21.08 0 007.47 1.36h22.09zm52.9 149.93h-50.64c-14.22 0-14.22-5-14.22-14.89 0-8.21 6.38-11.5 14.22-11.5h11.67l38.93-2.7.06 15.37zm-38.74-76.4h38.67v41.71l-38.67 2.68h-.26V524.7zm-.26-5.74V502h38.94v17h-38.91zm104.77 55.75h.26c7.84 0 14.22 3.29 14.22 11.5 0 9.91 0 14.89-14.22 14.89h-50.64V587.4l.06-15.37 38.93 2.69h11.42zm-11.67-50h.26v44.4h-.26l-38.67-2.68V524.7zm-38.64-5.7v-17h38.95v17h-38.95zm46.84-73.77h-.07v44.58a6.6 6.6 0 01-6.58 6.58H403s-.11-3.73-.16-8.75v-2.79c0-3.51-1.41-5.09-2.82-5-1.41-.09-2.82 1.49-2.82 5v2.79c0 5-.16 8.75-.16 8.75H352.1a6.6 6.6 0 01-6.58-6.58v-44.63h-.07v-.33l30.24.33h48.69l30.24-.33zm35.57 7.51c0 9.5-6.63 17.22-14.78 17.22s-14.78-7.73-14.78-17.22v-7.94h22.09a21.08 21.08 0 007.47-1.36zm6-23.73a13.53 13.53 0 01-6 7.29 14.69 14.69 0 01-7.47 2l-22.09.09v-73.67c0-5.56-6.07-5.94-6.07 0s.07 14.37.07 14.37v59.59H345.41v-59.61s.07-8.46.07-14.37-6.07-5.54-6.07 0v73.59l-22.09-.09a14.69 14.69 0 01-7.47-2 13.53 13.53 0 01-6-7.29 14.89 14.89 0 01-.75-6.46l2.47-83.84c.89-9 9.23-17.08 18.2-17.75l11.12-.83 32.22-2.29c.68.54.48 17.49.48 17.49 0 8.43 23.34 15.29 31.77 15.29h1.3c8.43 0 31.77-6.86 31.77-15.29 0 0-.2-16.95.48-17.49l32.22 2.29 11.12.83c9 .67 17.3 8.8 18.2 17.75l2.47 83.84a14.89 14.89 0 01-.77 6.55z" id="border"/><g id="over-border-details"><g id="shirt-collars"><path class="cls-7" d="M372.33 307.34l-14-1.87s-9.12 13.67 2.88 26.93 9.24 11.22 9.24 11.22l7.05-6z"/><path class="cls-4" d="M361.55 306.25s-3.62 9.63-1.75 15.25 13.38 19.38 13.38 19.38l-2.71 2.75-6.54-8-8.3-13.37s-.86-16.05 2.72-16.78 3.2.77 3.2.77z"/><path class="cls-14" d="M358.69 302.82l14 1.87a2.67 2.67 0 012.28 2.2l5.18 30.23a2.67 2.67 0 01-.89 2.48l-6 5.19a3.06 3.06 0 01-.5.73 2.79 2.79 0 01-3.83.26 2.67 2.67 0 01-1-1.7c-.82-1.07-3-3.68-8.58-9.88-13.35-14.64-3.35-30.06-3.23-30.2a2.67 2.67 0 012.58-1.17zm15.93 33.71l-4.6-26.8-10.23-1.37a21.51 21.51 0 00-1.88 6c-.91 5.9.87 11.37 5.28 16.24 3.61 4 6.26 7 7.87 9z"/></g><g id="shirt-collars-2" data-name="shirt-collars"><path class="cls-7" d="M425.9 307.34l14-1.87s9.1 13.67-2.9 26.93-9.24 11.22-9.24 11.22l-7.05-6z"/><path class="cls-4" d="M436.68 306.25s3.63 9.63 1.75 15.25-13.37 19.38-13.37 19.38l2.71 2.75 6.54-8 8.3-13.37s.86-16.05-2.72-16.78-3.21.77-3.21.77z"/><path class="cls-14" d="M441.54 303.37a2.66 2.66 0 01.58.62c.1.15 10.12 15.57-3.13 30.21-5.61 6.2-7.76 8.81-8.58 9.88a2.67 2.67 0 01-1 1.7 2.79 2.79 0 01-3.83-.26 3.06 3.06 0 01-.5-.73l-6-5.19a2.67 2.67 0 01-.89-2.48l5.18-30.23a2.67 2.67 0 012.28-2.2l14-1.87a2.67 2.67 0 011.89.55zm-14.38 36.21c1.61-2 4.26-5 7.87-9 4.41-4.87 6.19-10.34 5.28-16.24a21.51 21.51 0 00-1.88-6l-10.23 1.37-4.6 26.8z"/></g></g><g id="head"><path id="skin-2" data-name="skin" class="cls-1" d="M446.38 253.1c0-.91.08-1.81.08-2.73 0-30.51-21.06-55.25-47-55.25s-47 24.74-47 55.25c0 1.11 0 2.21.1 3.31-4 2.46-6.9 8.44-6.9 15.43 0 9.19 4.93 16.64 11 16.64a7.47 7.47 0 002.1-.31c.82 24.5 18.74 44.08 40.73 44.08s40.12-19.81 40.74-44.5a7.65 7.65 0 003.25.74c6.08 0 11-7.45 11-16.64-.05-7.65-3.48-14.06-8.1-16.02z"/><path d="M444.51 230.42c-3.07-16.6-10.38-16.67-18.09-26.26s-26-7.46-26.39-7.41-18.77-2.07-26.39 7.41-15 9.66-18.09 26.26c-2.09 11.27-2.16 18-1.28 22.14.38 1.79 1.46 4.07 2.65 2.69 3.67-4.23 5.94-8.39 6.33-10.92.57-3.67 3.42-27.08 6.08-26.25s26.51 1.66 30.67 1.67c4.15 0 28-.84 30.67-1.67s5.51 22.58 6.08 26.25c.39 2.53 2.66 6.68 6.33 10.92 1.2 1.38 2.28-.9 2.65-2.69.93-4.18.86-10.88-1.22-22.14z" fill="#332e2b"/><path d="M422.54 297.91s-4.5-2-7.5-2.12l-15-.3-15 .3c-3 .13-7.5 2.13-7.5 2.13-2.75.13-17-13.62-17-13.62v12.88l16.63 25.75 22.83 7.69v-.37l.08.37 22.83-7.71 16.63-25.75v-12.87s-14.25 13.71-17 13.62zm-18.46 21.58c-.69-3.23-2.6-4.11-5.24-3.72-1.81.27-2.55 2.32-2.84 4.29-8.1-1.75-10.29-11-10.29-11-.46-8.33 14.33-8.17 14.33-8.17 9.21.17 13.54 6.79 13.59 8 .04 1-1.63 8.11-9.54 10.6z" opacity=".15" fill="#332e2b"/><path id="border-2" data-name="border" d="M446.38 253.1c0-.91.08-1.81.08-2.73 0-30.51-21.06-55.25-47-55.25s-47 24.74-47 55.25c0 1.11 0 2.21.1 3.31-4 2.46-6.9 8.44-6.9 15.43 0 9.19 4.93 16.64 11 16.64a7.47 7.47 0 002.1-.31c.82 24.5 18.74 44.08 40.73 44.08s40.12-19.81 40.74-44.5a7.65 7.65 0 003.25.74c6.08 0 11-7.45 11-16.64-.05-7.65-3.48-14.06-8.1-16.02z" fill="none" stroke="#231f20" stroke-linecap="round" stroke-linejoin="round" stroke-width="6"/></g></svg>