<svg id="player" xmlns="http://www.w3.org/2000/svg" viewBox="0 0 800 800"><defs><style>.cls-1{fill:#d19d87}.cls-2{fill:#282828}.cls-4{fill:#fff}.cls-5{fill:#009d5c}.cls-6{fill:#e01f26}.cls-7{fill:#232323}.cls-8{fill:#fdc014}.cls-9{fill:#231f20}.cls-15{fill:#331c11}</style></defs><g id="skin"><path id="arm-left" class="cls-1" d="M305.93 389h36.78v72.4a18.39 18.39 0 01-18.39 18.39 18.39 18.39 0 01-18.39-18.39V389z"/><path id="arm-right" class="cls-1" d="M457.19 389H494v72.4a18.39 18.39 0 01-18.39 18.39 18.39 18.39 0 01-18.39-18.39V389h-.03z"/><path id="leg-left" class="cls-1" d="M349.88 499.02h45.67v45.67h-45.67z"/><path id="leg-right" class="cls-1" d="M404.78 499.02h45.67v45.67h-45.67z"/></g><g id="boots"><path id="left" class="cls-2" d="M395.33 577.04H372.5l-22.83 1.97h-12.5l-7.5 2.53-5.25 8.5v9.83l1.91 4.17 3.84 4.05 6.33 1.95h58.83v-33z"/><path id="right" class="cls-2" d="M404.61 577.27h22.83l22.83 1.97h12.5l7.5 2.53 5.25 8.5v9.83l-1.91 4.17-3.84 4.05-6.33 1.95h-58.83v-33z"/><path d="M393.59 585.12c2.27.43 2.73 8.06.5 8.64-20.46 5.36-69.57 9.1-68.75 0 1.13-12.52 4-12.27 7.13-12.89 2.83-.57 5 6.13 15 6.88 28.46 2.13 19.31-9.34 19.72-9 1.65 1.15 18.19 4.84 26.4 6.37zm12.75 0c-2.27.43-2.73 8.06-.5 8.64 20.46 5.36 69.57 9.1 68.75 0-1.13-12.52-4-12.27-7.12-12.89-2.83-.57-5 6.13-15 6.88-28.46 2.13-19.31-9.34-19.72-9-1.67 1.15-18.21 4.84-26.41 6.37z" fill="#a91e22" id="details"/></g><g id="socks"><g id="socks-2" data-name="socks"><path id="left-2" data-name="left" class="cls-4" d="M349.88 529h45.67v48.04h-45.67z"/><path id="right-2" data-name="right" class="cls-4" d="M404.38 529h45.67v48.04h-45.67z"/></g><g id="details-2" data-name="details"><g id="left-3" data-name="left"><path class="cls-5" d="M351.8 534.12h42v2.13h-42z"/><path class="cls-6" d="M351.8 538.37h42v2.13h-42z"/><path class="cls-7" d="M350.8 570.75s.74-25.91 2.53-25.25c3.7 1.38 10.34 20.75 2.1 32.38l-4.62.38z"/></g><g id="right-3" data-name="right"><path class="cls-5" transform="rotate(-180 427.11 535.185)" d="M406.11 534.12h42v2.13h-42z"/><path class="cls-6" transform="rotate(-180 427.11 539.435)" d="M406.11 538.37h42v2.13h-42z"/><path class="cls-7" d="M449.11 570.75s-.74-25.91-2.53-25.25c-3.7 1.38-10.34 20.75-2.1 32.38l4.63.38z"/></g></g></g><g id="shorts"><path id="shorts-2" data-name="shorts" class="cls-4" d="M341.67 449.54h116.49v47a9.95 9.95 0 01-9.95 9.95h-96.6a9.95 9.95 0 01-9.95-9.95v-47h.01z"/></g><g id="shirt"><path id="shirt-2" data-name="shirt" class="cls-4" d="M369.5 321.8l-48.29 2.99-11.36 6.25-6.83 10.1-3.31 40.73 5.17 7.67 7.66 4.67h29.5l.17 54h114.83v-53.5l29.34-.17 7.01-4 6.99-10.5-3.4-37.33-6.83-11.84-9.77-6.08-49.84-2.99-1 21.24-6.5 6.5-11.16 3.48-11.88 2.02-15.46-3.17-11-5.66-3.66-3.84-.38-20.57z"/><g id="details-3" data-name="details"><path id="left-4" data-name="left" class="cls-7" d="M369.52 334.08v-11l-48 3c-4 .74-7.13 9.73-8.11 13.64l-8.5 33.88a40.41 40.41 0 00-3.52-2.35l.79 13.41A9.17 9.17 0 00309.8 395l5.93 1.63.61-2.42h1.74a16.52 16.52 0 00-.59-4.52l11.82-46.51c1.38-5.44 9.36-4.55 9.51 1.06l2.84 105.26h9.16V343.63a6.13 6.13 0 016.18-6.13 6.13 6.13 0 016.13 6.13V449.5h16.24V334.08z"/><path id="chest" class="cls-7" transform="rotate(-180 400.18 402)" d="M392.06 354.5h16.24v95h-16.24z"/><path id="right-4" data-name="right" class="cls-7" d="M430.84 334.08v-11l48 3c4 .74 7.13 9.73 8.11 13.64l8.5 33.88a40.41 40.41 0 013.52-2.35l-.79 13.41a9.17 9.17 0 01-7.62 10.34l-5.93 1.63-.61-2.42h-1.74a16.52 16.52 0 01.59-4.52L471 343.18c-1.38-5.44-9.36-4.55-9.51 1.06l-2.8 105.26h-9.16V343.63a6.13 6.13 0 00-6.13-6.13 6.13 6.13 0 00-6.13 6.13V449.5H421V334.08z"/><g id="crest-juventus-06"><path class="cls-8" d="M400.18 380.92a5.13 5.13 0 01-4.14-2.35 9.29 9.29 0 01-1.63-5.41 10.72 10.72 0 011.61-5.69 4.57 4.57 0 018.31 0 10.72 10.72 0 011.61 5.69 9.29 9.29 0 01-1.63 5.41 5.13 5.13 0 01-4.13 2.35zm0-14.92c-2.39 0-4.57 3.41-4.57 7.16a8.09 8.09 0 001.4 4.71 3.64 3.64 0 006.34 0 8.09 8.09 0 001.4-4.71c0-3.75-2.18-7.16-4.57-7.16z"/><path class="cls-4" d="M405.06 373.14c0 3.73-2.18 6.75-4.87 6.75s-4.87-3-4.87-6.75 2.18-7.32 4.87-7.32 4.87 3.6 4.87 7.32z"/><path class="cls-7" d="M400.18 380.18a4.57 4.57 0 01-3.68-2.1 8.48 8.48 0 01-1.48-4.94 9.82 9.82 0 011.47-5.21 4 4 0 017.37 0 9.82 9.82 0 011.47 5.21 8.48 8.48 0 01-1.48 4.94 4.57 4.57 0 01-3.67 2.1zm0-14.07a4 4 0 00-3.21 2.13 9.24 9.24 0 00-1.38 4.9c0 3.57 2.06 6.47 4.59 6.47s4.59-2.9 4.59-6.47a9.24 9.24 0 00-1.38-4.9 4 4 0 00-3.21-2.13z"/><path class="cls-7" d="M401 378.12l-.48.52a.44.44 0 01-.66 0l-.48-.52a.88.88 0 01-.23-.59V377a.88.88 0 01.88-.88h.31a.88.88 0 01.88.88v.48a.88.88 0 01-.22.64zm-1-5.95a.61.61 0 00-.6.61V375a.76.76 0 101.51 0v-2.23a.61.61 0 00-.6-.61zm.31-2a.62.62 0 00.63-.61v-1.8a.76.76 0 10-1.51 0v1.8a.62.62 0 00.63.61zm-2.24.33a.38.38 0 00.26-.36v-2.22c0-.19-.19-.26-.27-.11a9.71 9.71 0 00-.94 2.56.28.28 0 00.36.33l.58-.19zm-1.07 2.35a.2.2 0 00-.14.19 9.54 9.54 0 001.24 4.95c.09.14.27.06.27-.12v-5.17a.21.21 0 00-.27-.2zm5.89-2.17a.28.28 0 00.36-.33 9.71 9.71 0 00-.94-2.56c-.08-.15-.27-.08-.27.11v2.22a.39.39 0 00.27.37zm-.58 1.82a.21.21 0 00-.27.2v5.17c0 .18.18.26.27.12a9.54 9.54 0 001.24-4.95.2.2 0 00-.14-.19l-1.1-.35z"/><path class="cls-8" d="M402.95 372.15l-1.7-.29a6.35 6.35 0 00-2.13 0l-1.7.29a.48.48 0 01-.56-.47.48.48 0 01.4-.47l1.86-.32a6.35 6.35 0 012.13 0l1.86.32a.48.48 0 01.4.47.48.48 0 01-.56.47z"/></g><path id="nike" class="cls-8" d="M371.16 361.17c0 1.19-1.57 2.17-3.49 2.17h-9.26c-1.92 0-3.49-1-3.49-2.17s1.57-2.17 3.49-2.17h9.26c1.92 0 3.49 1 3.49 2.17z"/><g id="logo-italy-league-champs"><path class="cls-8" d="M439.8 363.72a1 1 0 011 1v5.16a1.67 1.67 0 01-.78 1.41l-2.37 1.5c-.16.1-.23.15-.3.15s-.14-.05-.3-.15l-2.37-1.5a1.67 1.67 0 01-.78-1.41v-5.16a1 1 0 011-1h4.86m0-1.16h-4.86a2.19 2.19 0 00-2.19 2.19v5.16a2.82 2.82 0 001.32 2.4l2.37 1.5h.06a1.4 1.4 0 001.72 0h.06l2.37-1.5a2.82 2.82 0 001.32-2.4v-5.16a2.19 2.19 0 00-2.19-2.19z"/><path class="cls-5" d="M434.94 363.72a1 1 0 00-1 1v5.16a1.67 1.67 0 00.78 1.41l1.52 1v-8.56z"/><path class="cls-4" d="M436.22 363.72v8.56l.85.54c.32.21.27.21.6 0l.85-.54v-8.56z"/><path class="cls-6" d="M439.8 363.72h-1.28v8.56l1.52-1a1.67 1.67 0 00.78-1.41v-5.16a1 1 0 00-1.02-.99z"/><circle class="cls-8" cx="435.55" cy="360.05" r="1.05"/><circle class="cls-8" cx="439.19" cy="360.05" r="1.05"/></g><g id="logo-champions-league"><ellipse class="cls-4" cx="306.55" cy="356.25" rx="8.47" ry="6.3" transform="rotate(-82.32 306.561 356.248)"/><ellipse class="cls-4" cx="306.55" cy="356.25" rx="7" ry="5.2" transform="rotate(-82.32 306.561 356.248)"/><path class="cls-9" d="M305.55 363.72c-3.06-.41-5.1-4.1-4.54-8.22s3.5-7.13 6.56-6.72 5.1 4.1 4.54 8.22-3.5 7.13-6.56 6.72zm1.87-13.88c-2.63-.35-5.15 2.23-5.63 5.77s1.27 6.7 3.9 7 5.15-2.23 5.63-5.77-1.32-6.64-3.9-7z"/><path class="cls-9" d="M307.29 353.94l.18.82a.51.51 0 00.31.39l.62.21c.37.13.44.78.11 1.11l-.51.53a.78.78 0 00-.21.54v.87c0 .52-.46.86-.77.57l-.52-.48a.37.37 0 00-.44-.06l-.63.33c-.38.2-.73-.25-.59-.76l.23-.84a.78.78 0 00-.06-.58l-.38-.67c-.23-.4 0-1 .41-1h.66a.51.51 0 00.4-.3l.39-.74a.43.43 0 01.8.06z"/></g><g id="sponsor-tamoil"><ellipse class="cls-4" cx="400.18" cy="406.91" rx="27.37" ry="16.92"/><path d="M400.18 393.69c-9.36 0-17.43 3.13-21.14 7.64-.42.51.09 1.17.9 1.17h40.47c.82 0 1.33-.66.9-1.17-3.7-4.51-11.77-7.64-21.13-7.64zm20.24 17.62h-40.47c-.82 0-1.33.66-.9 1.17 3.71 4.51 11.78 7.64 21.14 7.64s17.43-3.13 21.14-7.64c.41-.48-.09-1.17-.91-1.17z" fill="#068bc0"/><path class="cls-9" d="M400.18 424.79c-15.77 0-28.59-8-28.59-17.89s12.83-17.9 28.59-17.9 28.59 8 28.59 17.89-12.82 17.9-28.59 17.9zm0-33.83c-14.42 0-26.16 7.15-26.16 15.94s11.73 15.94 26.16 15.94 26.16-7.15 26.16-15.94-11.73-15.9-26.16-15.9z"/><rect x="378.89" y="404.47" width="42.58" height="4.88" rx="2.35" ry="2.35" fill="#ec2027"/></g><g id="asset-captain-band-two-colour"><path fill="#4869b2" d="M457.19 370.4h42.82v10.26h-42.82z"/><path d="M461.9 360.13H500v10.27h-42.81v-5.55a4.71 4.71 0 014.71-4.72z" fill="#5e8ac7"/></g></g></g><path id="neck" fill="#b78979" d="M427.63 347.26l-27.59 8.62-28.6-9.62-1.92-23.62h61.04l-2.93 24.62z"/><path d="M502.88 375.43l-2.47-30.36c-1.19-11.87-11.83-22.25-23.72-23.14l-37.14-2.71c-4.07-.45-20.52-.09-39.55.53-19-.62-35.48-1-39.55-.53l-37.14 2.71c-11.89.89-22.53 11.27-23.72 23.14l-2.47 30.36a20.15 20.15 0 005 15.74 19.92 19.92 0 001.69 1.64v66.36c0 12.81 9.32 23.22 20.78 23.22a19.8 19.8 0 0015.25-7.39v21.79a12.23 12.23 0 007.74 11.36v68h-5.93c-10.93 0-19.83 5.8-19.83 17.11 0 8.06 0 17 11.72 19.7v1.6a1.38 1.38 0 001.38 1.38h1.63a1.38 1.38 0 001.38-1.37v-.95c1.16.09 2.39.15 3.73.15h1.89v.8a1.38 1.38 0 001.38 1.38h1.63a1.38 1.38 0 001.38-1.37v-.8h5.62v.8a1.38 1.38 0 001.38 1.38h1.63a1.38 1.38 0 001.38-1.37v-.8h5.62v.8a1.38 1.38 0 001.38 1.38h1.63a1.38 1.38 0 001.38-1.37v-.8h5.62v.8a1.38 1.38 0 001.38 1.38h1.63a1.38 1.38 0 001.38-1.37v-.8h5.62v.8a1.38 1.38 0 001.38 1.38h1.63a1.38 1.38 0 001.38-1.37v-.8h5.62v.8a1.38 1.38 0 001.38 1.38h1.63a1.38 1.38 0 001.38-1.37v-.81l.06-55.45V509h4v49.21l.06 54.67v1.6a1.38 1.38 0 001.38 1.38h1.63a1.38 1.38 0 001.38-1.37v-.8h5.62v.8a1.38 1.38 0 001.38 1.38h1.63a1.38 1.38 0 001.38-1.37v-.8h5.62v.8a1.38 1.38 0 001.38 1.38h1.63a1.38 1.38 0 001.38-1.37v-.8h5.62v.8a1.38 1.38 0 001.38 1.38h1.63a1.38 1.38 0 001.38-1.37v-.8h5.62v.8a1.38 1.38 0 001.38 1.38h1.63a1.38 1.38 0 001.38-1.37v-.8h5.62v.8a1.38 1.38 0 001.38 1.38h1.63a1.38 1.38 0 001.38-1.37v-.8h1.89c1.33 0 2.57-.05 3.72-.15v.95a1.38 1.38 0 001.38 1.38h1.63a1.38 1.38 0 001.38-1.37v-1.6c11.71-2.68 11.72-11.64 11.72-19.7 0-11.3-8.89-17.11-19.83-17.11h-5.93v-68a12.23 12.23 0 007.74-11.36V475a19.8 19.8 0 0015.21 7.42c11.46 0 20.78-10.42 20.78-23.22v-66.39a19.92 19.92 0 001.69-1.64 20.15 20.15 0 004.95-15.74zm-130.49-46.18c3.46 1.84 15.64 2.07 27.61 1.79 12 .28 24.15 0 27.61-1.79V341c0 4.8-22.42 12-27.23 12l-.38-.08-.38.08c-4.8 0-27.23-7.19-27.23-12zm-33 75.43v55c0 9.5-6.63 17.22-14.78 17.22s-14.78-7.73-14.78-17.22V396.9a21.08 21.08 0 007.47 1.36h22.09zm52.9 203.42h-50.64c-14.22 0-14.22-5-14.22-14.89 0-8.21 6.38-11.5 14.22-11.5h11.67l38.93-2.71.06 15.37zm-38.74-76.4h38.67v41.7l-38.67 2.68h-.26V531.7zm-.26-5.74V509h38.94v17h-38.91zm104.77 55.75h.26c7.84 0 14.22 3.29 14.22 11.5 0 9.91 0 14.89-14.22 14.89h-50.64v-13.7l.06-15.37 38.93 2.69h11.42zm-11.67-50h.26v44.4h-.26l-38.67-2.68V531.7zM407.75 526v-17h38.95v17h-38.95zm46.84-73.77h-.07v44.58a6.6 6.6 0 01-6.58 6.58H403s-.11-3.73-.16-8.75v-2.79c0-3.51-1.41-5.09-2.82-5-1.41-.09-2.82 1.49-2.82 5v2.79c0 5-.16 8.75-.16 8.75H352.1a6.6 6.6 0 01-6.58-6.58v-44.63h-.07v-.33l30.24.33h48.69l30.24-.33zm35.57 7.51c0 9.5-6.63 17.22-14.78 17.22s-14.78-7.73-14.78-17.22v-61.48h22.09a21.08 21.08 0 007.47-1.36zm6-77.21a13.53 13.53 0 01-6 7.29 14.69 14.69 0 01-7.47 2l-22.09.09v-20.19c0-5.56-6.07-5.94-6.07 0s.07 14.37.07 14.37v59.59H345.41v-59.61s.07-8.46.07-14.37-6.07-5.54-6.07 0v20.11l-22.09-.09a14.69 14.69 0 01-7.47-2 13.53 13.53 0 01-6-7.29 14.89 14.89 0 01-.75-6.46l2.47-30.36c.89-9 9.23-17.08 18.2-17.75l11.12-.83 32.22-2.29c.68.54.48 17.49.48 17.49 0 8.43 23.34 15.29 31.77 15.29h1.3c8.43 0 31.77-6.86 31.77-15.29 0 0-.2-16.95.48-17.49l32.22 2.29 11.12.83c9 .67 17.3 8.8 18.2 17.75L496.9 376a14.89 14.89 0 01-.75 6.48z" id="border"/><g id="head"><path class="cls-15" d="M436.6 297.51s4.78 3.15 6.46 1.26 4.63-.16 5-3.46 4.76-3.62 3.34-6.93.39-5.51-1.8-10.23.64-6.77-5.47-7.71-14.89 14.95-7.53 27.07z"/><path class="cls-9" d="M443.62 270.4a3.47 3.47 0 01.53 0c6.11.94 3.28 3 5.47 7.71s.39 6.93 1.8 10.23-3 3.62-3.34 6.93-3.34 1.57-5 3.46a2 2 0 01-1.56.6c-2.07 0-4.9-1.86-4.9-1.86-7.15-11.77 1-27.11 7-27.11m0-7.55c-5.19 0-10.53 4.82-13.59 12.28-3.72 9-3.12 19.1 1.61 26.89a6.74 6.74 0 002 2.15c1 .65 4.46 2.76 7.82 2.76a7.41 7.41 0 004.9-1.78 8.84 8.84 0 007.46-7 11.25 11.25 0 003.11-13v-.74a21.52 21.52 0 00-2-9.93 3.89 3.89 0 01-.31-1.38c-1-7.72-5.48-9.44-9.76-10.1a8.56 8.56 0 00-1.3-.1z"/><path class="cls-15" d="M362.29 297.6s-5.26 2.82-6.83.72-4.81-.58-4.91-4-4.63-4.17-2.87-7.46.09-5.73 2.78-10.41-.07-7.05 6.38-7.48 14.16 16.76 5.45 28.63z"/><path class="cls-9" d="M357.39 269c6.32.54 13.38 17.12 4.9 28.64 0 0-3.11 1.67-5.26 1.49a2.08 2.08 0 01-1.57-.76c-1.57-2.1-4.81-.58-4.91-4s-4.63-4.17-2.87-7.46.09-5.73 2.78-10.41-.07-7.05 6.38-7.48a3.65 3.65 0 01.55 0m.67-7.81a9 9 0 00-1.36 0c-4.51.3-9.35 1.67-11.05 9.57a4 4 0 01-.44 1.4 22.19 22.19 0 00-3 10.09c0 .25 0 .56-.07.76-1.22 2.39-3.13 8 2.08 13.74a9.2 9.2 0 007.14 7.93 7.77 7.77 0 004.94 2.28c3.5.3 7.3-1.57 8.39-2.16a7 7 0 002.31-2c5.61-7.63 7.13-18 4.07-27.65-2.53-8-7.65-13.44-13.05-13.9z"/><path class="cls-9" d="M408.68 191.15a11.06 11.06 0 015.87 1.53c.07 0 5.63 0 15.84 12a19.84 19.84 0 003.61 3.22c4.73 3.35 11.85 13.93 12.56 29.73 0 0 5.76 10.5 3.38 20.75-1.53 6.59-4 7.91-6.22 7.91-1.51 0-2.95-.59-4-.59h-.23s-4.81-18.2-5.06-24.2-1.21-14.75-3.86-14.75-20.1 5.5-30.52 5.5-27.87-5.5-30.52-5.5-3.6 8.75-3.86 14.75-6.87 23.88-6.87 23.88h-.18c-1.21 0-3.14 1-4.93 1-2.09 0-4-1.41-4.26-7.53-.56-12 1.63-17.62 1.63-17.62.72-15.8 10.33-30 15.06-33.35a19.84 19.84 0 003.59-3.27c6.42-7.48 11.05-8.89 13.63-8.89a4.68 4.68 0 012.35.51c4.24-2.61 9.55-3 12.38-3.06a11.39 11.39 0 003.86-.73 20.25 20.25 0 016.77-1.31m0-6a26.28 26.28 0 00-8.84 1.68 5.43 5.43 0 01-1.83.36 33 33 0 00-13.03 2.67 12.47 12.47 0 00-1.64-.11c-5.81 0-11.93 3.7-18.18 11a13.84 13.84 0 01-2.5 2.28c-6.59 4.67-16.48 20.47-17.54 37.14-.71 2.38-2.15 8.63-1.67 19 .56 12 7.36 13.25 10.25 13.25a15.73 15.73 0 004.68-.85l.59-.18a6 6 0 005.47-3.92c1.16-3.13 6.95-19.09 7.23-25.7a59.15 59.15 0 01.85-8.32l2.44.59c7 1.68 17.46 4.23 25.1 4.23s18.15-2.55 25.1-4.23l2.44-.59a59.14 59.14 0 01.85 8.32c.28 6.46 4.75 23.55 5.26 25.48a6 6 0 005.8 4.47h.08l.48.1a16.37 16.37 0 003.66.48c7.56 0 10.73-6.83 12.06-12.55 2.35-10.14-1.64-20.14-3.3-23.67a55.69 55.69 0 00-5.31-20.6c-2.65-5.42-6.19-10-9.71-12.46a13.84 13.84 0 01-2.5-2.28c-8.78-10.24-15-13.1-18.45-13.82a17.28 17.28 0 00-7.82-1.75z"/><path id="skin-2" data-name="skin" class="cls-1" d="M446.38 260.1c0-.91.08-1.81.08-2.73 0-30.51-21.06-55.25-47-55.25s-47 24.74-47 55.25c0 1.11 0 2.21.1 3.31-4 2.46-6.9 8.44-6.9 15.43 0 9.19 4.93 16.64 11 16.64a7.47 7.47 0 002.1-.31c.82 24.5 18.74 44.08 40.73 44.08s40.12-19.81 40.74-44.5a7.65 7.65 0 003.25.74c6.08 0 11-7.45 11-16.64-.05-7.65-3.48-14.06-8.1-16.02z"/><path d="M422.41 304.91s-4.5-2-7.5-2.12l-15-.3-15 .3c-3 .13-7.5 2.13-7.5 2.13-2.75.13-17-13.62-17-13.62v12.88L377 329.92l22.83 7.71v-.37l.08.37 22.83-7.71 16.63-25.75v-12.88s-14.21 13.71-16.96 13.62zM404 326.49c-.69-3.23-2.6-4.11-5.24-3.72-1.81.27-2.55 2.32-2.84 4.29-8.1-1.75-10.29-11-10.29-11-.46-8.33 14.33-8.17 14.33-8.17 9.21.17 13.54 6.79 13.59 8-.02 1-1.67 8.11-9.55 10.6z" opacity=".03" fill="#331c11"/><path id="border-2" data-name="border" d="M446.38 260.1c0-.91.08-1.81.08-2.73 0-30.51-21.06-55.25-47-55.25s-47 24.74-47 55.25c0 1.11 0 2.21.1 3.31-4 2.46-6.9 8.44-6.9 15.43 0 9.19 4.93 16.64 11 16.64a7.47 7.47 0 002.1-.31c.82 24.5 18.74 44.08 40.73 44.08s40.12-19.81 40.74-44.5a7.65 7.65 0 003.25.74c6.08 0 11-7.45 11-16.64-.05-7.65-3.48-14.06-8.1-16.02z" fill="none" stroke="#231f20" stroke-linecap="round" stroke-linejoin="round" stroke-width="6"/><path class="cls-15" d="M446.55 237.62c-.72-15.8-7.84-26.38-12.56-29.73a19.84 19.84 0 01-3.59-3.27c-10.28-12-15.85-12-15.85-12-4.32-2.66-9.82-1.26-12.64-.22a11.39 11.39 0 01-3.86.73c-2.83 0-8.14.45-12.38 3.06 0 0-5.7-3.61-16 8.38a19.84 19.84 0 01-3.59 3.27c-4.73 3.35-14.34 17.55-15.06 33.35 0 0-2.18 5.66-1.62 17.63.54 11.63 6.88 6.25 9.38 6.5 0 0 6.61-17.87 6.87-23.87s1.21-14.75 3.86-14.75 20.1 5.5 30.52 5.5 27.87-5.5 30.52-5.5 3.6 8.75 3.86 14.75 5.06 24.2 5.06 24.2c2.5-.25 7.8 4 10.43-7.33 2.4-10.2-3.35-20.7-3.35-20.7z"/></g></svg>