<svg id="player" xmlns="http://www.w3.org/2000/svg" viewBox="0 0 800 800"><defs><style>.cls-1{fill:#704d34}.cls-2{fill:#242b65}.cls-4{fill:#e21f26}.cls-5{fill:#fff}.cls-6{fill:#007366}.cls-7{fill:#f1f2f2}.cls-8{fill:#00a79d}.cls-9{fill:#3d55a5}</style></defs><g id="skin"><path id="arm-left" class="cls-1" d="M305.93 382h36.78v72.4a18.39 18.39 0 01-18.39 18.39 18.39 18.39 0 01-18.39-18.39V382z"/><path id="arm-right" class="cls-1" d="M457.19 382H494v72.4a18.39 18.39 0 01-18.39 18.39 18.39 18.39 0 01-18.39-18.39V382h-.03z"/><path id="leg-left" class="cls-1" d="M349.88 492.02h45.67v45.67h-45.67z"/><path id="leg-right" class="cls-1" d="M404.78 492.02h45.67v45.67h-45.67z"/></g><g id="boots"><path id="left" class="cls-2" d="M395.33 570.04H372.5l-22.83 1.97h-12.5l-7.5 2.53-5.25 8.5v9.83l1.91 4.17 3.84 4.05 6.33 1.95h58.83v-33z"/><path id="right" class="cls-2" d="M404.61 570.27h22.83l22.83 1.97h12.5l7.5 2.53 5.25 8.5v9.83l-1.91 4.17-3.84 4.05-6.33 1.95h-58.83v-33z"/><path d="M324.38 585.41s12.53-1.24 35.24-14.28h5.71s-14.42 12.37-41.11 19.62zm151.35 0s-12.53-1.24-35.24-14.28h-5.71s14.42 12.37 41.11 19.62z" fill="#f6bb30" id="details"/></g><g id="socks"><g id="socks-2" data-name="socks"><path id="left-2" data-name="left" class="cls-4" d="M349.88 522h45.67v48.04h-45.67z"/><path id="right-2" data-name="right" class="cls-4" d="M404.38 522h45.67v48.04h-45.67z"/></g></g><g id="shorts"><path id="shorts-2" data-name="shorts" class="cls-4" d="M341.67 442.54h116.49v47a9.95 9.95 0 01-9.95 9.95h-96.6a9.95 9.95 0 01-9.95-9.95v-47h.01z"/></g><g id="shirt"><path id="shirt-2" data-name="shirt" class="cls-4" d="M369.5 314.8l-48.29 2.99-11.36 6.25-6.83 10.1-3.31 40.73 5.17 7.67 7.66 4.67h29.5l.17 54h114.83v-53.5l29.34-.17 7.01-4 6.99-10.5-3.4-37.33-6.83-11.84-9.77-6.08-49.84-2.99-1 21.24-6.5 6.5-11.16 3.48-11.88 2.02-15.46-3.17-11-5.66-3.66-3.84-.38-20.57z"/><g id="details-2" data-name="details"><path class="cls-5" d="M341 415.31l-.28.1v-28.66l.28.1c5.48 2 10 8.4 10 14.23a15.14 15.14 0 01-10 14.23zm115.74-.97l3 1.08v-28.67l-3 1.08a11.9 11.9 0 00-7.28 10.4v5.71a11.07 11.07 0 007.28 10.4z"/><path id="sponsor-carlsberg" class="cls-5" d="M430.45 410l-59.82 3.92a9 9 0 01-9.62-9V397a9 9 0 019.62-9l59.82 3.92a9 9 0 018.44 9 9 9 0 01-8.44 9.08z"/><g id="crest-liverpool-2003"><path class="cls-5" d="M441.2 357.25h-13.65a1.41 1.41 0 00-1.41 1.41 3.55 3.55 0 001.34 2.79v6.29a9.44 9.44 0 001.41 4.93 2.27 2.27 0 001.81 3.64h1.77l.63.54a2 2 0 002.54 0l.63-.54h1.8a2.27 2.27 0 001.8-3.66 9.44 9.44 0 001.39-4.91v-6.29a3.56 3.56 0 001.34-2.79 1.41 1.41 0 00-1.4-1.41zm-1.32 3l-.34.17v7.27a7.64 7.64 0 01-1.69 4.78l-.62.77 1 .22a.54.54 0 01-.12 1.07h-2.43l-1.11.95a.24.24 0 01-.31 0l-1.11-.95h-2.45a.54.54 0 01-.13-1.07l.94-.23-.61-.75a7.64 7.64 0 01-1.69-4.78v-7.27l-.34-.17a1.83 1.83 0 01-1-1.32h13a1.83 1.83 0 01-.99 1.35z"/><path class="cls-6" d="M427.55 358.36h13.65a.3.3 0 01.3.3 2.46 2.46 0 01-2.46 2.46h-9.33a2.46 2.46 0 01-2.46-2.46.3.3 0 01.3-.3z"/><path class="cls-4" d="M438.46 360.92a2.54 2.54 0 01-2.31 0l-1.41-.72a.72.72 0 00-.66 0l-1.41.72a2.54 2.54 0 01-2.31 0l-1.06-.54a.46.46 0 00-.67.41v7.11a8.23 8.23 0 002.9 6.27l2.33 2a.85.85 0 001.1 0l2.33-2a8.23 8.23 0 002.9-6.27v-7.11a.46.46 0 00-.67-.41z"/><path class="cls-5" d="M429.63 365.43v1.64a6.9 6.9 0 002.43 5.26l2 1.67a.71.71 0 00.93 0l2-1.67a6.9 6.9 0 002.43-5.26v-1.64a.73.73 0 00-.73-.73h-8.23a.73.73 0 00-.83.73z"/><rect class="cls-5" x="429.49" y="362.33" width="9.7" height="1.75" rx=".87" ry=".87"/><path class="cls-4" d="M435.71 366.56a.27.27 0 00-.44.18 5.16 5.16 0 01-2 3.16 3.38 3.38 0 01.3-1.32 2.19 2.19 0 000-1.78.63.63 0 01-.07-.22c-.05-.51-.65-.66-1 0a.45.45 0 01-.24.2c-.16.06-.37.15-.34.19s0 .06 0 .08.13 0 .52 0h.09c.34-.09.33.24.35.24a1.49 1.49 0 010 1.08c-.12.28-1 2.38-.42 2.83h.09c2.33.89 3.13.27 3.33 0l.18-.2c2.03-2 .48-3.74-.35-4.44z"/><rect class="cls-6" x="429.54" y="372.87" width="9.7" height="2.32" rx="1.16" ry="1.16" transform="rotate(180 434.385 374.035)"/></g><g id="brand-diadora"><path class="cls-5" d="M370.5 370h-7.27a4.65 4.65 0 010-9.31h7.27a4.65 4.65 0 110 9.31zm-7.27-8.31a3.65 3.65 0 000 7.31h7.27a3.65 3.65 0 100-7.31z"/><rect class="cls-5" x="362.1" y="364.03" width="9.53" height="2.59" rx="1.29" ry="1.29"/></g><g id="epl-logo-r"><path class="cls-7" d="M499.82 356a3.57 3.57 0 01-2.66 4.23 4.8 4.8 0 01-4.67-3L487.43 345a2.83 2.83 0 012.3-4.06l3.92-.58a3.81 3.81 0 014.31 3.2z"/><path class="cls-8" d="M499.48 353.72c.31 2.06-.58 3.92-2 4.13s-3.19-1.2-4-3.13l-3.3-7.89a2.82 2.82 0 012.29-4.06l1.47-.22a3.81 3.81 0 014.31 3.2z"/><path class="cls-9" d="M498.44 350.94c.31 2.06-.16 3.86-1 4s-2.25-1.34-3.05-3.26l-1-2.36c-.81-1.93-.19-3.69 1.36-3.92s3.08 1.27 3.38 3.33z"/></g><g id="epl-logo-r-2" data-name="epl-logo-r"><path class="cls-7" d="M300.27 356a3.57 3.57 0 002.66 4.23 4.8 4.8 0 004.67-3l5.06-12.2a2.83 2.83 0 00-2.3-4.06l-3.92-.58a3.81 3.81 0 00-4.31 3.2z"/><path class="cls-8" d="M300.6 353.72c-.31 2.06.58 3.92 2 4.13s3.19-1.2 4-3.13l3.3-7.89a2.82 2.82 0 00-2.29-4.06l-1.47-.22a3.81 3.81 0 00-4.31 3.2z"/><path class="cls-9" d="M301.65 350.94c-.31 2.06.16 3.86 1 4s2.25-1.34 3.05-3.26l1-2.36c.81-1.93.19-3.69-1.36-3.92s-3.08 1.27-3.38 3.33z"/></g><path class="cls-5" d="M430.12 315.36l-.46 20.64-8.42 5.82-21.24 8.31-21.21-7.3-8.37-6.83-.42-20.64-1.46.3-2 17.31c0 6 2.25 10.94 8.17 13.53a97.11 97.11 0 0025.29 7.66 97.11 97.11 0 0025.37-7.66c5.92-2.59 8.17-7.54 8.17-13.53l-2-17.31z"/></g></g><path id="neck" fill="#543a28" d="M427.63 340.26l-27.59 8.62-28.6-9.62-1.92-23.62h61.04l-2.93 24.62z"/><path d="M502.88 368.43l-2.47-30.36c-1.19-11.87-11.83-22.25-23.72-23.14l-37.14-2.71c-4.07-.45-20.52-.09-39.55.53-19-.62-35.48-1-39.55-.53l-37.14 2.71c-11.89.89-22.53 11.27-23.72 23.14l-2.47 30.36a20.15 20.15 0 005 15.74 19.92 19.92 0 001.69 1.64v66.36c0 12.81 9.32 23.22 20.78 23.22a19.8 19.8 0 0015.25-7.39v21.79a12.23 12.23 0 007.74 11.36v68h-5.93c-10.93 0-19.83 5.8-19.83 17.11 0 8.06 0 17 11.72 19.7v1.6a1.38 1.38 0 001.38 1.38h1.63a1.38 1.38 0 001.38-1.37v-.95c1.16.09 2.39.15 3.73.15h1.89v.8a1.38 1.38 0 001.38 1.38h1.63a1.38 1.38 0 001.38-1.37v-.8h5.62v.8a1.38 1.38 0 001.38 1.38h1.63a1.38 1.38 0 001.38-1.37v-.8h5.62v.8a1.38 1.38 0 001.38 1.38h1.63a1.38 1.38 0 001.38-1.37v-.8h5.62v.8a1.38 1.38 0 001.38 1.38h1.63a1.38 1.38 0 001.38-1.37v-.8h5.62v.8a1.38 1.38 0 001.38 1.38h1.63a1.38 1.38 0 001.38-1.37v-.8h5.62v.8a1.38 1.38 0 001.38 1.38h1.63a1.38 1.38 0 001.38-1.37v-.81l.06-55.45V502h4v49.21l.06 54.67v1.6a1.38 1.38 0 001.38 1.38h1.63a1.38 1.38 0 001.38-1.37v-.8h5.62v.8a1.38 1.38 0 001.38 1.38h1.63a1.38 1.38 0 001.38-1.37v-.8h5.62v.8a1.38 1.38 0 001.38 1.38h1.63a1.38 1.38 0 001.38-1.37v-.8h5.62v.8a1.38 1.38 0 001.38 1.38h1.63a1.38 1.38 0 001.38-1.37v-.8h5.62v.8a1.38 1.38 0 001.38 1.38h1.63a1.38 1.38 0 001.38-1.37v-.8h5.62v.8a1.38 1.38 0 001.38 1.38h1.63a1.38 1.38 0 001.38-1.37v-.8h1.89c1.33 0 2.57-.05 3.72-.15v.95a1.38 1.38 0 001.38 1.38h1.63a1.38 1.38 0 001.38-1.37v-1.6c11.71-2.68 11.72-11.64 11.72-19.7 0-11.3-8.89-17.11-19.83-17.11h-5.93v-68a12.23 12.23 0 007.74-11.36V468a19.8 19.8 0 0015.21 7.42c11.46 0 20.78-10.42 20.78-23.22v-66.39a19.92 19.92 0 001.69-1.64 20.15 20.15 0 004.95-15.74zm-130.49-46.18c3.46 1.84 15.64 2.07 27.61 1.79 12 .28 24.15 0 27.61-1.79V334c0 4.8-22.42 12-27.23 12l-.38-.08-.38.08c-4.8 0-27.23-7.19-27.23-12zm-33 75.43v55c0 9.5-6.63 17.22-14.78 17.22s-14.78-7.73-14.78-17.22V389.9a21.08 21.08 0 007.47 1.36h22.09zm52.9 203.42h-50.64c-14.22 0-14.22-5-14.22-14.89 0-8.21 6.38-11.5 14.22-11.5h11.67l38.93-2.71.06 15.37zm-38.74-76.4h38.67v41.7l-38.67 2.68h-.26V524.7zm-.26-5.74V502h38.94v17h-38.91zm104.77 55.75h.26c7.84 0 14.22 3.29 14.22 11.5 0 9.91 0 14.89-14.22 14.89h-50.64v-13.7l.06-15.37 38.93 2.69h11.42zm-11.67-50h.26v44.4h-.26l-38.67-2.68V524.7zM407.75 519v-17h38.95v17h-38.95zm46.84-73.77h-.07v44.58a6.6 6.6 0 01-6.58 6.58H403s-.11-3.73-.16-8.75v-2.79c0-3.51-1.41-5.09-2.82-5-1.41-.09-2.82 1.49-2.82 5v2.79c0 5-.16 8.75-.16 8.75H352.1a6.6 6.6 0 01-6.58-6.58v-44.63h-.07v-.33l30.24.33h48.69l30.24-.33zm35.57 7.51c0 9.5-6.63 17.22-14.78 17.22s-14.78-7.73-14.78-17.22v-61.48h22.09a21.08 21.08 0 007.47-1.36zm6-77.21a13.53 13.53 0 01-6 7.29 14.69 14.69 0 01-7.47 2l-22.09.09v-20.19c0-5.56-6.07-5.94-6.07 0s.07 14.37.07 14.37v59.59H345.41v-59.61s.07-8.46.07-14.37-6.07-5.54-6.07 0v20.11l-22.09-.09a14.69 14.69 0 01-7.47-2 13.53 13.53 0 01-6-7.29 14.89 14.89 0 01-.75-6.46l2.47-30.36c.89-9 9.23-17.08 18.2-17.75l11.12-.83 32.22-2.29c.68.54.48 17.49.48 17.49 0 8.43 23.34 15.29 31.77 15.29h1.3c8.43 0 31.77-6.86 31.77-15.29 0 0-.2-16.95.48-17.49l32.22 2.29 11.12.83c9 .67 17.3 8.8 18.2 17.75L496.9 369a14.89 14.89 0 01-.75 6.48z" id="border"/><g id="head"><path id="skin-2" data-name="skin" class="cls-1" d="M446.38 253.1c0-.91.08-1.81.08-2.73 0-30.51-21.06-55.25-47-55.25s-47 24.74-47 55.25c0 1.11 0 2.21.1 3.31-4 2.46-6.9 8.44-6.9 15.43 0 9.19 4.93 16.64 11 16.64a7.47 7.47 0 002.1-.31c.82 24.5 18.74 44.08 40.73 44.08s40.12-19.81 40.74-44.5a7.65 7.65 0 003.25.74c6.08 0 11-7.45 11-16.64-.05-7.65-3.48-14.06-8.1-16.02z"/><path d="M366 228.53l-7.19-2.67a1.09 1.09 0 00-1.36.55l-.42.9a1.08 1.08 0 00.57 1.45l7.33 3.09a1.09 1.09 0 001.47-.71c.06-.2.1-.39.14-.56l.16-.83a1.09 1.09 0 00-.7-1.22zm-2.41 6.83l-8.44-3.66-.06.17s-3.67 19.05 0 22.72c0 0 5.67-10.45 9-17.83a1 1 0 00-.5-1.4zm79.41-8.05l-.42-.9a1.09 1.09 0 00-1.36-.55l-7.19 2.67a1.09 1.09 0 00-.69 1.22l.16.83c0 .17.08.36.14.56a1.09 1.09 0 001.47.71l7.33-3.09a1.08 1.08 0 00.56-1.45zm2 4.55l-.06-.17-8.44 3.66a1 1 0 00-.54 1.39c3.37 7.39 9 17.83 9 17.83 3.66-3.66.04-22.71.04-22.71zm-21.3-29.64c-14.07-10.11-23.23-5.86-23.68-5.65-.44-.22-9.61-4.46-23.68 5.65-7.82 5.62-13.41 13.86-16.89 20.22l7.41 2.38a.75.75 0 001-.51c.62-2.31 1.41-4 2.6-3.9 2.16.17 23.44 1.33 29.58 1.33 6.14 0 27.42-1.17 29.58-1.33 1.19-.09 2 1.59 2.6 3.9a.75.75 0 001 .51l7.41-2.38c-3.53-6.37-9.11-14.6-16.93-20.22zm-1.2 96.19s-4.5-2-7.5-2.12l-15-.3-15 .3c-3 .13-7.5 2.13-7.5 2.13-2.75.13-17-13.62-17-13.62v12.88l16.63 25.75 22.87 7.69v-.37l.08.37 22.83-7.71 16.63-25.75v-12.87s-14.29 13.75-17.04 13.62zM404 320c-.69-3.23-2.6-4.11-5.24-3.72-1.81.27-2.55 2.32-2.84 4.29-8.1-1.75-10.29-11-10.29-11-.46-8.33 14.33-8.17 14.33-8.17 9.21.17 13.54 6.79 13.59 8 .07.99-1.55 8.07-9.55 10.6z" fill="#ffefae"/><path id="border-2" data-name="border" d="M446.38 253.1c0-.91.08-1.81.08-2.73 0-30.51-21.06-55.25-47-55.25s-47 24.74-47 55.25c0 1.11 0 2.21.1 3.31-4 2.46-6.9 8.44-6.9 15.43 0 9.19 4.93 16.64 11 16.64a7.47 7.47 0 002.1-.31c.82 24.5 18.74 44.08 40.73 44.08s40.12-19.81 40.74-44.5a7.65 7.65 0 003.25.74c6.08 0 11-7.45 11-16.64-.05-7.65-3.48-14.06-8.1-16.02z" fill="none" stroke="#231f20" stroke-linecap="round" stroke-linejoin="round" stroke-width="6"/></g></svg>