<svg id="player" xmlns="http://www.w3.org/2000/svg" viewBox="0 0 800 800"><defs><style>.cls-1{fill:#ecc19c}.cls-2{fill:#e6e7e8}.cls-3{fill:#c9c9c9}.cls-4{fill:#d32027}.cls-5{fill:#2c59a8}.cls-6{fill:#fff}.cls-7{fill:#ee2d26}.cls-10{fill:#231f20}.cls-14{fill:#22aa57}.cls-18{fill:#e2af6d}</style></defs><g id="skin"><path id="arm-left" class="cls-1" d="M305.93 387h36.78v72.4a18.39 18.39 0 01-18.39 18.39 18.39 18.39 0 01-18.39-18.39V387z"/><path id="arm-right" class="cls-1" d="M457.19 387H494v72.4a18.39 18.39 0 01-18.39 18.39 18.39 18.39 0 01-18.39-18.39V387z"/><path id="leg-left" class="cls-1" d="M349.88 497.02h45.67v45.67h-45.67z"/><path id="leg-right" class="cls-1" d="M404.78 497.02h45.67v45.67h-45.67z"/></g><g id="boots"><path id="left" class="cls-2" d="M395.33 575.04H372.5l-22.83 1.97h-12.5l-7.5 2.53-5.25 8.5v9.83l1.91 4.17 3.84 4.05 6.33 1.95h58.83v-33z"/><path id="right" class="cls-2" d="M404.61 575.27h22.83l22.83 1.97h12.5l7.5 2.53 5.25 8.5v9.83l-1.91 4.17-3.84 4.05-6.33 1.95h-58.83v-33z"/><g id="details"><path class="cls-3" d="M389.1 575.27s-39.46 17.48-30 33.73h32.15s2.57-33.51-2.15-33.73z"/><path class="cls-4" d="M393.44 575.27s-29.25 17.48-22.25 33.73H395s1.94-33.51-1.56-33.73z"/><path class="cls-3" d="M411.22 575.27s39.46 17.48 30 33.73h-32.13s-2.59-33.51 2.13-33.73z"/><path class="cls-4" d="M406.88 575.27s29.25 17.48 22.25 33.73H405.3s-1.92-33.51 1.58-33.73z"/></g></g><g id="socks"><g id="socks-2" data-name="socks"><path id="left-2" data-name="left" class="cls-5" d="M349.88 527h45.67v48.04h-45.67z"/><path id="right-2" data-name="right" class="cls-5" d="M404.38 527h45.67v48.04h-45.67z"/></g><g id="details-2" data-name="details"><path class="cls-6" d="M349.88 526.75h13v49.13h-13z"/><path class="cls-6" transform="rotate(-180 443.545 551.31)" d="M437.05 526.75h13v49.13h-13z"/></g></g><g id="shorts"><path id="shorts-2" data-name="shorts" class="cls-5" d="M341.67 447.54h116.49v47a9.95 9.95 0 01-9.95 9.95h-96.6a9.95 9.95 0 01-9.95-9.95v-47z"/><path class="cls-7" d="M351.12 446.58s-13.67 30.19-6.17 54.76h2s2.71-41.59 7-54.76zm97.66 0s13.67 30.19 6.17 54.76h-2s-2.71-41.59-7-54.76z" id="details-3" data-name="details"/></g><g id="shirt"><path id="shirt-2" data-name="shirt" class="cls-7" d="M369.5 319.8l-48.29 2.99-11.36 6.25-6.83 10.1-3.31 40.73 5.17 7.67 7.66 4.67h29.5l.17 54h114.83v-53.5l29.34-.17 7.01-4 6.99-10.5-3.4-37.33-6.83-11.84-9.77-6.08-49.84-2.99-1 21.24-6.5 6.5-11.16 3.48-11.88 2.02-15.46-3.17-11-5.66-3.66-3.84-.38-20.57z"/><g id="details-4" data-name="details"><g id="crest-czech-06"><path d="M442.8 384.34l-6.85 2.32a1.45 1.45 0 01-.46.08 1.45 1.45 0 01-.46-.08l-6.85-2.32a2.05 2.05 0 01-1.63-2v-13.86a2.37 2.37 0 012.37-2.37h13.15a2.37 2.37 0 012.37 2.37v13.85a2.05 2.05 0 01-1.64 2.01z" fill="#414042"/><path class="cls-5" d="M443.22 375.93v-6.48a1.93 1.93 0 00-1.93-1.93h-5.36v8.41z"/><path class="cls-4" d="M435 367.52h-5.36a1.93 1.93 0 00-1.93 1.93v6.48H435z"/><path d="M427.75 376.91v4.82a1.67 1.67 0 001.33 1.64l5.58 1.89a1.18 1.18 0 00.38.07v-8.41z" fill="#d3ab39"/><path class="cls-4" d="M435.93 376.91v8.41a1.18 1.18 0 00.38-.07l5.58-1.89a1.67 1.67 0 001.33-1.64v-4.82z"/><circle class="cls-6" cx="431.4" cy="371.73" r="2.21"/><circle class="cls-6" cx="439.57" cy="371.73" r="2.21"/><circle class="cls-6" cx="439.57" cy="380.52" r="2.21"/><circle class="cls-10" cx="431.4" cy="380.52" r="2.21"/></g><path class="cls-6" d="M360.59 386.74a2.16 2.16 0 01-2.13-2.13v-12.78l-2.28 2.34a1.66 1.66 0 01-1.19.49 1.79 1.79 0 01-1.25-3.07l4.69-4.75a2.6 2.6 0 011.82-.73 2.51 2.51 0 012.53 2.47v16a2.17 2.17 0 01-2.19 2.16zm12.52 0a2.16 2.16 0 01-2.13-2.13v-12.78l-2.28 2.34a1.66 1.66 0 01-1.19.49 1.79 1.79 0 01-1.25-3.07l4.69-4.75a2.6 2.6 0 011.82-.73 2.51 2.51 0 012.53 2.47v16a2.17 2.17 0 01-2.19 2.16z" id="number-11"/><rect class="cls-6" x="398.03" y="359.47" width="4.76" height="12.18" rx="2.38" ry="2.38" transform="rotate(-63.52 400.433 365.568)" id="brand-puma"/><g id="logo-world-cup-06"><ellipse class="cls-6" cx="305.93" cy="358.64" rx="8.65" ry="6.25" transform="rotate(-83.21 305.926 358.642)"/><path d="M304.86 367.65c-3.59-.43-6-4.81-5.44-9.78s4-8.66 7.58-8.23 6 4.81 5.44 9.78-3.99 8.65-7.58 8.23zm2-17.18c-3.26-.39-6.35 3-6.88 7.47s1.68 8.49 4.94 8.88 6.35-3 6.88-7.47-1.64-8.5-4.9-8.89z" fill="#d1d3d4"/><ellipse cx="306.12" cy="354.22" rx="2.81" ry="2.03" transform="rotate(-83.21 306.117 354.22)" fill="#e63b30"/><path class="cls-6" d="M305.75 357.32c-1.23-.15-2.07-1.66-1.87-3.36s1.37-3 2.61-2.83 2.07 1.66 1.87 3.36-1.36 2.98-2.61 2.83zm.66-5.57c-1-.12-1.92.9-2.09 2.26s.51 2.57 1.5 2.69 1.92-.9 2.09-2.26-.51-2.58-1.5-2.7z"/><ellipse cx="303.43" cy="357.41" rx="3.48" ry="2.52" transform="rotate(-83.21 303.426 357.409)" fill="#5b84c3"/><path class="cls-6" d="M303 361.28c-1.54-.18-2.59-2.07-2.34-4.2s1.72-3.72 3.26-3.54 2.59 2.07 2.34 4.2-1.75 3.72-3.26 3.54zm.82-6.91c-1.21-.14-2.36 1.1-2.56 2.78s.62 3.16 1.84 3.3 2.36-1.1 2.56-2.78-.66-3.16-1.87-3.31z"/><ellipse class="cls-14" cx="308.16" cy="358.94" rx="4" ry="2.89" transform="rotate(-83.21 308.152 358.937)"/><path class="cls-6" d="M307.64 363.32c-1.75-.21-2.93-2.34-2.65-4.76s1.94-4.22 3.69-4 2.93 2.34 2.65 4.76-1.94 4.21-3.69 4zm.95-7.94c-1.42-.17-2.76 1.29-3 3.25s.73 3.7 2.15 3.86 2.76-1.29 3-3.25-.74-3.69-2.16-3.86z"/><ellipse class="cls-14" cx="304.78" cy="362.85" rx="2.91" ry="2.1" transform="rotate(-83.21 304.778 362.85)"/><path class="cls-6" d="M304.39 366.15c-1.32-.16-2.21-1.76-2-3.58s1.46-3.17 2.78-3 2.21 1.76 2 3.58-1.46 3.15-2.78 3zm.69-5.77c-1-.12-1.92.9-2.08 2.26s.51 2.57 1.49 2.69 1.92-.9 2.08-2.26-.51-2.58-1.49-2.7z"/></g><g id="asset-captain-band-wc06"><path d="M490.26 357.78H461.9a4.71 4.71 0 00-4.71 4.71v15.82h29.12c-2.13-8.38.79-15.62 3.95-20.53z" fill="#27459c"/><path d="M490.26 357.78c-3.17 4.91-6.08 12.15-4 20.53H500v-20.53z" fill="#feda26"/></g></g></g><path id="neck" fill="#dfb28b" d="M427.63 345.26l-27.59 8.62-28.6-9.62-1.92-23.62h61.04l-2.93 24.62z"/><path d="M502.88 373.43l-2.47-30.36c-1.19-11.87-11.83-22.25-23.72-23.14l-37.14-2.71c-4.07-.45-20.52-.09-39.55.53-19-.62-35.48-1-39.55-.53l-37.14 2.71c-11.89.89-22.53 11.27-23.72 23.14l-2.47 30.36a20.15 20.15 0 005 15.74 19.92 19.92 0 001.69 1.64v66.36c0 12.81 9.32 23.22 20.78 23.22a19.8 19.8 0 0015.25-7.39v21.79a12.23 12.23 0 007.74 11.36v68h-5.93c-10.93 0-19.83 5.8-19.83 17.11 0 8.06 0 17 11.72 19.7v1.6a1.38 1.38 0 001.38 1.38h1.63a1.38 1.38 0 001.38-1.37v-.95c1.16.09 2.39.15 3.73.15h1.89v.8a1.38 1.38 0 001.38 1.38h1.63a1.38 1.38 0 001.38-1.37v-.8h5.62v.8a1.38 1.38 0 001.38 1.38h1.63a1.38 1.38 0 001.38-1.37v-.8h5.62v.8a1.38 1.38 0 001.38 1.38h1.63a1.38 1.38 0 001.38-1.37v-.8h5.62v.8a1.38 1.38 0 001.38 1.38h1.63a1.38 1.38 0 001.38-1.37v-.8h5.62v.8a1.38 1.38 0 001.38 1.38h1.63a1.38 1.38 0 001.38-1.37v-.8h5.62v.8a1.38 1.38 0 001.38 1.38h1.63a1.38 1.38 0 001.38-1.37v-.81l.06-55.45V507h4v49.21l.06 54.67v1.6a1.38 1.38 0 001.38 1.38h1.63a1.38 1.38 0 001.38-1.37v-.8h5.62v.8a1.38 1.38 0 001.38 1.38h1.63a1.38 1.38 0 001.38-1.37v-.8h5.62v.8a1.38 1.38 0 001.38 1.38h1.63a1.38 1.38 0 001.38-1.37v-.8h5.62v.8a1.38 1.38 0 001.38 1.38h1.63a1.38 1.38 0 001.38-1.37v-.8h5.62v.8a1.38 1.38 0 001.38 1.38h1.63a1.38 1.38 0 001.38-1.37v-.8h5.62v.8a1.38 1.38 0 001.38 1.38h1.63a1.38 1.38 0 001.38-1.37v-.8h1.89c1.33 0 2.57-.05 3.72-.15v.95a1.38 1.38 0 001.38 1.38h1.63a1.38 1.38 0 001.38-1.37v-1.6c11.71-2.68 11.72-11.64 11.72-19.7 0-11.3-8.89-17.11-19.83-17.11h-5.93v-68a12.23 12.23 0 007.74-11.36V473a19.8 19.8 0 0015.21 7.42c11.46 0 20.78-10.42 20.78-23.22v-66.39a19.92 19.92 0 001.69-1.64 20.15 20.15 0 004.95-15.74zm-130.49-46.18c3.46 1.84 15.64 2.07 27.61 1.79 12 .28 24.15 0 27.61-1.79V339c0 4.8-22.42 12-27.23 12l-.38-.08-.38.08c-4.8 0-27.23-7.19-27.23-12zm-33 75.43v55c0 9.5-6.63 17.22-14.78 17.22s-14.78-7.73-14.78-17.22V394.9a21.08 21.08 0 007.47 1.36h22.09zm52.9 203.42h-50.64c-14.22 0-14.22-5-14.22-14.89 0-8.21 6.38-11.5 14.22-11.5h11.67l38.93-2.71.06 15.37zm-38.74-76.4h38.67v41.7l-38.67 2.68h-.26V529.7zm-.26-5.74V507h38.94v17h-38.91zm104.77 55.75h.26c7.84 0 14.22 3.29 14.22 11.5 0 9.91 0 14.89-14.22 14.89h-50.64v-13.7l.06-15.37 38.93 2.69h11.42zm-11.67-50h.26v44.4h-.26l-38.67-2.68V529.7zM407.75 524v-17h38.95v17h-38.95zm46.84-73.77h-.07v44.58a6.6 6.6 0 01-6.58 6.58H403s-.11-3.73-.16-8.75v-2.79c0-3.51-1.41-5.09-2.82-5-1.41-.09-2.82 1.49-2.82 5v2.79c0 5-.16 8.75-.16 8.75H352.1a6.6 6.6 0 01-6.58-6.58v-44.63h-.07v-.33l30.24.33h48.69l30.24-.33zm35.57 7.51c0 9.5-6.63 17.22-14.78 17.22s-14.78-7.73-14.78-17.22v-61.48h22.09a21.08 21.08 0 007.47-1.36zm6-77.21a13.53 13.53 0 01-6 7.29 14.69 14.69 0 01-7.47 2l-22.09.09v-20.19c0-5.56-6.07-5.94-6.07 0s.07 14.37.07 14.37v59.59H345.41v-59.61s.07-8.46.07-14.37-6.07-5.54-6.07 0v20.11l-22.09-.09a14.69 14.69 0 01-7.47-2 13.53 13.53 0 01-6-7.29 14.89 14.89 0 01-.75-6.46l2.47-30.36c.89-9 9.23-17.08 18.2-17.75l11.12-.83 32.22-2.29c.68.54.48 17.49.48 17.49 0 8.43 23.34 15.29 31.77 15.29h1.3c8.43 0 31.77-6.86 31.77-15.29 0 0-.2-16.95.48-17.49l32.22 2.29 11.12.83c9 .67 17.3 8.8 18.2 17.75L496.9 374a14.89 14.89 0 01-.75 6.48z" id="border"/><g id="head"><path class="cls-18" d="M341.15 253.17s-7.48 7.6-4.29 23.57-.75 15.29 10 19.41 11.19 11.3 18.94 7.08 9.53-3.23 14.2-10.91 15.52-27.4 6.06-40.64-32.34-10.59-44.91 1.49z"/><path class="cls-10" d="M366.83 242.86c7.71 0 14.88 2.73 19.23 8.81 9.45 13.24-1.4 32.94-6.06 40.64s-6.46 6.7-14.21 10.91a8.78 8.78 0 01-4.15 1.28c-4.27 0-6.36-5.13-14.79-8.36-10.73-4.12-6.79-3.43-10-19.41s4.23-21 4.23-21c6.8-6.53 16.67-12.88 25.74-12.88m0-5.4a44.33 44.33 0 00-30.05 12l-.11.11c-1 1-9.31 10.08-5.71 28.11.83 4.15 1.14 7 1.4 9.37.4 3.64.68 6.27 2.8 8.75s4.88 3.59 9.34 5.3a25.66 25.66 0 017.37 4.5c2.52 2 5.37 4.3 9.77 4.3a15.06 15.06 0 007.25-2.06c1.76-1 3.2-1.63 4.47-2.22 4.8-2.23 7.73-3.83 11.9-10.74 8.12-13.41 15.72-32.31 5.84-46.15-5.12-7.18-14-11.29-24.27-11.29z"/><path class="cls-18" d="M452.35 248.44s10.63 5.82 10.55 22.22 4.44 14.86-7.34 21.28-10.65 13.57-20.83 11.14-12.07-1-19.39-7.59-24.76-23.5-16.61-38.61 35.91-17.53 53.62-8.44z"/><path class="cls-10" d="M429 243.13a52.14 52.14 0 0123.37 5.32 34.17 34.17 0 0110.55 22.22c-.08 16.4 4.44 14.86-7.34 21.28-10.17 5.53-10.72 11.62-17.22 11.62a15.61 15.61 0 01-3.6-.49c-10.18-2.43-12.07-1-19.39-7.59s-24.76-23.5-16.61-38.61c5-9.25 17.35-13.75 30.25-13.75m0-5.4c-16.4 0-30.06 6.44-35.65 16.79-4.8 8.89-5.61 23.89 17.78 44.8 6.47 5.78 10 6.64 16.15 7.77 1.67.31 3.57.65 5.93 1.22a22 22 0 005.14.67c6.2 0 9.42-3.24 12.27-6.1a32.26 32.26 0 018.06-6.3c4.69-2.55 7.65-4.25 9.43-6.93 2-3 1.69-5.86 1.32-9.51a80.62 80.62 0 01-.51-9.44c.1-19.24-12.88-26.56-13.44-26.86l-.14-.08a58.68 58.68 0 00-26.34-6z"/><path class="cls-10" d="M403.49 192.73a27.52 27.52 0 0111 2.27l1.72.75c18.49 3.45 28.75 7.5 33.75 23.75 2.65 8.61 7.92 13.77 6.93 22.72l-2.34 21-17.22-8.75C432.74 246.7 426 239 418.91 239a9.63 9.63 0 00-3.74.76 19.17 19.17 0 01-7.46 1.6c-6.79 0-11.24-4.14-15.7-4.14a7.35 7.35 0 00-4.83 1.91c-7 5.76-19 6.2-24.37 15.38l-17.22 8.75-.42-3.77c-5.49-10-.94-20.27.46-30.31.78-5.59 1.14-9.36 3.78-13.46 4.36-6.77 4.5-10.19 16.65-14.33 4.76-1.62 17.86-6.51 22.07-6.51h.38c.7.06 1.41.1 2.11.1a16.79 16.79 0 006.78-1.31l1.23-.54a18.26 18.26 0 013.5-.36h1.38m0-6h-1.68c-3.5.18-4.6.42-5.61.86l-1.23.54a10.9 10.9 0 01-4.37.81c-.5 0-1 0-1.58-.07h-.9c-3.84 0-10.42 2.06-21.22 5.86l-2.78 1c-11.69 4-14.47 7.88-18 13.91-.54.91-1.09 1.85-1.73 2.85-3.17 4.92-3.79 9.45-4.51 14.7l-.16 1.18c-.3 2.17-.78 4.39-1.28 6.75-1.7 8-3.61 17 .92 26.17l.31 2.77a5.32 5.32 0 00.64 2.09 6.11 6.11 0 005.31 3.14 6 6 0 002.72-.65l17.31-8.79a6.08 6.08 0 002.43-2.37c2.24-3.76 6.57-5.54 11.59-7.59 3.91-1.6 7.95-3.26 11.38-6.1.64-.53.89-.53 1-.53a14.66 14.66 0 013.9 1.29 29.36 29.36 0 0011.81 2.85 25.36 25.36 0 009.78-2.07 3.66 3.66 0 011.43-.3c3.53 0 8.83 5 13.2 12.56a6 6 0 002.45 2.3l17.22 8.75a6 6 0 007-1.15 6.21 6.21 0 001.69-3.71l2.32-20.86c.84-7.56-1.81-13.1-4.16-18a51 51 0 01-3-7.17c-6.19-20.11-20.12-24.43-37.71-27.76l-1.1-.48a33.32 33.32 0 00-13.34-2.77z"/><path id="skin-2" data-name="skin" class="cls-1" d="M446.38 258.1c0-.91.08-1.81.08-2.73 0-30.51-21.06-55.25-47-55.25s-47 24.74-47 55.25c0 1.11 0 2.21.1 3.31-4 2.46-6.9 8.44-6.9 15.43 0 9.19 4.93 16.64 11 16.64a7.47 7.47 0 002.1-.31c.82 24.5 18.74 44.08 40.73 44.08s40.12-19.81 40.74-44.5a7.65 7.65 0 003.25.74c6.08 0 11-7.45 11-16.64-.05-7.65-3.48-14.06-8.1-16.02z"/><path id="border-2" data-name="border" d="M446.38 258.1c0-.91.08-1.81.08-2.73 0-30.51-21.06-55.25-47-55.25s-47 24.74-47 55.25c0 1.11 0 2.21.1 3.31-4 2.46-6.9 8.44-6.9 15.43 0 9.19 4.93 16.64 11 16.64a7.47 7.47 0 002.1-.31c.82 24.5 18.74 44.08 40.73 44.08s40.12-19.81 40.74-44.5a7.65 7.65 0 003.25.74c6.08 0 11-7.45 11-16.64-.05-7.65-3.48-14.06-8.1-16.02z" fill="none" stroke="#231f20" stroke-linecap="round" stroke-linejoin="round" stroke-width="6"/><path class="cls-18" d="M449.92 219.5c-5-16.25-15.26-20.3-33.75-23.75l-1.72-.75a27.52 27.52 0 00-12.33-2.24 18.27 18.27 0 00-3.5.36l-1.23.54a18.06 18.06 0 01-8.89 1.22c-3.74-.33-17.53 4.82-22.44 6.49-12.15 4.14-12.29 7.55-16.65 14.33-2.64 4.1-3 7.87-3.78 13.46-1.4 10-9.28 25.21-6.62 35.78l3.52 9.76c1.81 3.15 9.92-9.53 12.45-12.14l7.83-8.07c5.35-9.18 17.42-9.62 24.37-15.37 8-6.62 13.63 6.63 28 .63 8.33-3.48 16.77 5.57 22.12 14.75l10.38 8.75c13 27.88 12.73 1.34 13.1-2l-3.92-19c.99-8.98-4.29-14.14-6.94-22.75z"/></g></svg>