<svg id="player" xmlns="http://www.w3.org/2000/svg" viewBox="0 0 800 800"><defs><style>.cls-1{fill:#542d1a}.cls-2{fill:#e3e3e3}.cls-3{fill:#1c1b1a}.cls-4{fill:#e11f26}.cls-5{fill:#fff}.cls-8{fill:#009d5c}.cls-9{fill:#e01f26}</style></defs><g id="skin"><path id="arm-left" class="cls-1" d="M305.93 382h36.78v72.4a18.39 18.39 0 01-18.39 18.39 18.39 18.39 0 01-18.39-18.39V382z"/><path id="arm-right" class="cls-1" d="M457.19 382H494v72.4a18.39 18.39 0 01-18.39 18.39 18.39 18.39 0 01-18.39-18.39V382h-.03z"/><path id="leg-left" class="cls-1" d="M349.88 492.02h45.67v45.67h-45.67z"/><path id="leg-right" class="cls-1" d="M404.78 492.02h45.67v45.67h-45.67z"/></g><g id="boots"><path id="left" class="cls-2" d="M395.54 570.04h-22.83l-22.83 1.97h-12.5l-7.5 2.53-5.25 8.5v9.83l1.91 4.17 3.84 4.05 6.33 1.95h58.83v-33z"/><path id="right" class="cls-2" d="M404.67 570.04h22.83l22.83 1.97h12.5l7.5 2.53 5.25 8.5v9.83l-1.91 4.17-3.84 4.05-6.33 1.95h-58.83v-33z"/><g id="details"><g id="left-2" data-name="left"><path class="cls-3" transform="rotate(-8.1 363.924 597.994)" d="M323.88 576.09h71.34v4h-71.34z"/><path class="cls-3" transform="rotate(-4.73 360.8 592.634)" d="M325.89 590.25h69.19v4h-69.19z"/><path class="cls-3" transform="rotate(-5.49 360.235 585.463)" d="M325.01 583.17h70.06v4h-70.06z"/><path class="cls-3" d="M330.67 604.16l-.4-3.98 64.65-5.67.39 3.98-64.64 5.67z"/></g><g id="right-2" data-name="right"><path class="cls-3" transform="rotate(-82.31 440.48 578.098)" d="M438.45 542.42h4v71.34h-4z"/><path class="cls-3" transform="rotate(-85.27 439.488 592.245)" d="M437.52 557.66h4v69.19h-4z"/><path class="cls-3" transform="rotate(-84.51 439.923 585.17)" d="M437.95 550.14h4v70.06h-4z"/><path class="cls-3" d="M469.33 604.16l.4-3.98-64.65-5.67-.39 3.98 64.64 5.67z"/></g></g></g><g id="socks"><path id="left-3" data-name="left" class="cls-3" d="M349.88 522h45.67v48.04h-45.67z"/><path id="right-3" data-name="right" class="cls-3" d="M404.38 522h45.67v48.04h-45.67z"/><path class="cls-4" d="M351.75 527.7H395v4.68h-43.25zm54.24 0h43.25v4.68h-43.25z" id="details-2" data-name="details"/></g><g id="shorts"><path id="shorts-2" data-name="shorts" class="cls-3" d="M341.67 442.54h116.49v47a9.95 9.95 0 01-9.95 9.95h-96.6a9.95 9.95 0 01-9.95-9.95v-47h.01z"/><g id="details-3" data-name="details"><path class="cls-4" d="M348.41 442.54h3.92v54.71h-3.92zm7.84 0h3.92v54.71h-3.92z" id="left-4" data-name="left"/><path class="cls-4" d="M439.83 442.54h3.92v54.71h-3.92zm7.84 0h3.92v54.71h-3.92z" id="right-4" data-name="right"/></g></g><g id="shirt"><path id="shirt-2" data-name="shirt" class="cls-4" d="M369.5 314.8l-48.29 2.99-11.36 6.25-6.83 10.1-1.93 98.78 11.16 7.16 29.96 1.13h147.21l10.96-12.79-3.4-92.71-6.83-11.84-9.77-6.08-49.84-2.99-1 21.24-6.5 6.5-11.16 3.48-11.88 2.02-15.46-3.17-11-5.66-3.66-3.84-.38-20.57z"/><g id="details-4" data-name="details"><g id="arm-l"><path class="cls-3" d="M359.34 332.2h-1.52c-2.12 0-37.32 2-37.32 71.33 0 25.16-.55 34-1.08 36.67l11.91.59s13.5-39.79 14.16-54.3c.26-5.61 1.31-14.72 2.5-23.77v78.06h15V336.23a3.86 3.86 0 00-3.65-4.03zm-39.92 108h-.91s.49 2.43.91 0z"/><path class="cls-3" d="M306.43 434.53l-2-.05c0-.81 2.24-80.64 2.4-93.15a18.1 18.1 0 018.28-15.05 17.14 17.14 0 017.89-2.89l45.89-4.87.21 2-45.89 4.87a15.13 15.13 0 00-7 2.55 16.17 16.17 0 00-7.41 13.43c-.13 12.51-2.35 92.35-2.37 93.16z"/><path class="cls-3" d="M311.42 438.69l-2-.05c0-.81 2.08-81.13 2.24-93.65.06-4.77.33-9.27 2.82-12a17.26 17.26 0 0111.11-5.42l50.4-5.3v2.58l-50.2 4.71a15.27 15.27 0 00-9.84 4.78c-2 2.22-2.24 6.33-2.3 10.7-.15 12.5-2.21 92.84-2.23 93.65z"/></g><g id="chest"><path class="cls-3" d="M376.5 340.39h15v100.45h-15z"/><path class="cls-3" transform="rotate(-180 414 390.61)" d="M406.5 340.39h15v100.45h-15z"/></g><g id="arm-r"><path class="cls-3" d="M440.66 332.2h1.52c2.12 0 37.32 2 37.32 71.33 0 25.16.55 34 1.08 36.67l-11.91.59s-13.5-39.79-14.16-54.3c-.26-5.61-1.31-14.72-2.5-23.77v78.06H437V336.23a3.86 3.86 0 013.66-4.03zm39.92 108h.91s-.49 2.43-.91 0z"/><path class="cls-3" d="M493.57 434.53l2-.05c0-.81-2.24-80.64-2.4-93.15a18.1 18.1 0 00-8.28-15.05 17.14 17.14 0 00-7.89-2.89l-45.89-4.87-.21 2 45.89 4.87a15.13 15.13 0 017 2.55 16.17 16.17 0 017.41 13.43c.13 12.51 2.35 92.35 2.37 93.16z"/><path class="cls-3" d="M488.58 438.69l2-.05c0-.81-2.08-81.13-2.24-93.65-.06-4.77-.33-9.27-2.82-12a17.26 17.26 0 00-11.11-5.42l-50.4-5.3v2.58l50.2 4.71a15.27 15.27 0 019.84 4.78c2 2.22 2.24 6.33 2.3 10.7.15 12.5 2.21 92.84 2.23 93.65z"/></g><g id="crest-ac-milan-03"><ellipse class="cls-4" cx="429.28" cy="366.52" rx="5.9" ry="9.42"/><path class="cls-3" d="M429.28 357.1c3.26 0 5.9 4.22 5.9 9.42s-2.64 9.42-5.9 9.42-5.9-4.22-5.9-9.42 2.64-9.42 5.9-9.42m0-.72a4.76 4.76 0 00-2.7.86 7.36 7.36 0 00-2.08 2.23 14.43 14.43 0 000 14.09 7.36 7.36 0 002.08 2.23 4.64 4.64 0 005.39 0 7.36 7.36 0 002.08-2.23 14.43 14.43 0 000-14.09 7.36 7.36 0 00-2.08-2.23 4.76 4.76 0 00-2.7-.86z"/><ellipse class="cls-5" cx="429.28" cy="366.52" rx="4.79" ry="7.65"/><path class="cls-3" d="M424.45 366.52a4.83 4.83 0 002.42 4.19v-8.38a4.83 4.83 0 00-2.42 4.19z"/><path class="cls-4" d="M429.28 361.68a4.81 4.81 0 00-2.42.65v8.38a4.81 4.81 0 002.42.65z"/><path class="cls-5" d="M429.28 367v4.38a4.83 4.83 0 001.42-.21V367zm4.72-1.3a4.84 4.84 0 00-2.07-3.2v3.2zm-3.3-3.8a4.83 4.83 0 00-1.42-.21v4h1.42zm1.3 8.63a4.83 4.83 0 002.1-3.53H432z"/><path class="cls-4" d="M432 365.7v-3.2a4.81 4.81 0 00-1.27-.61v3.81zm-1.3 1.3v4.16a4.81 4.81 0 001.27-.61V367zm-1.42-1.3h1.42v1.27h-1.42zm4.72 0h-2v1.3h2.12v-.46a4.86 4.86 0 00-.12-.84zm-3.3 0h1.27v1.27h-1.27z"/><circle cx="429.28" cy="354.02" r="1.1" fill="#fdee27"/></g><g id="adidas"><rect id="bottom" class="cls-5" x="363.96" y="368.83" width="11.23" height="1.59" rx=".79" ry=".79"/><path class="cls-5" d="M369.63 362.4a1 1 0 00-.36 1.34l2.3 4a1 1 0 00.85.49h1.73l-3.15-5.47a1 1 0 00-1.37-.36zm-1.97 1.99a1 1 0 00-.36 1.34l1.13 2a1 1 0 00.86.5H371l-2-3.49a1 1 0 00-1.34-.35zm-2.17 1.73a1 1 0 00-.37 1.34l.15.27a1 1 0 00.87.51h1.71l-1-1.76a1 1 0 00-1.36-.36z"/></g><g id="logo-italy-league-champs"><path d="M402.08 363.2a1.29 1.29 0 011.29 1.29V371a2.12 2.12 0 01-1 1.79l-3 1.9c-.21.13-.29.2-.38.2s-.17-.07-.38-.2l-3-1.9a2.12 2.12 0 01-1-1.79v-6.5a1.29 1.29 0 011.29-1.29h6.15m0-1.47h-6.15a2.77 2.77 0 00-2.77 2.77V371a3.57 3.57 0 001.67 3l3 1.9h.08a1.77 1.77 0 002.18 0h.08l3-1.9a3.57 3.57 0 001.67-3v-6.5a2.77 2.77 0 00-2.77-2.77z" fill="#fdc014"/><path class="cls-8" d="M395.92 363.2a1.29 1.29 0 00-1.29 1.29V371a2.12 2.12 0 001 1.79l1.93 1.22V363.2z"/><path class="cls-5" d="M397.54 363.2V374l1.08.68c.41.26.35.26.76 0l1.08-.68v-10.8z"/><path class="cls-9" d="M402.08 363.2h-1.62V374l1.93-1.22a2.12 2.12 0 001-1.79v-6.49a1.29 1.29 0 00-1.31-1.3z"/></g><g id="sponsor-opel"><path class="cls-5" d="M416.23 397.4h-5a12.29 12.29 0 00-24.11-2.87h-5.4c-.6 0-1.08.85-1.08 1.91s.48 1.91 1.08 1.91h5a12.29 12.29 0 0024.11 2.87h5.4c.6 0 1.08-.86 1.08-1.91s-.48-1.91-1.08-1.91zM399 387.74a10.14 10.14 0 0110.11 9.66h-7.45a3.05 3.05 0 00.15-1c0-1.05-.48-1.91-1.08-1.91h-11.3a10.15 10.15 0 019.57-6.75zm0 20.26a10.14 10.14 0 01-10.11-9.66h7.45a3.05 3.05 0 00-.15 1c0 1.05.48 1.91 1.08 1.91h11.3A10.15 10.15 0 01399 408z"/><rect class="cls-5" x="388.25" y="416.1" width="21.51" height="5.04" rx="2.52" ry="2.52"/></g><g id="logo-serie-a"><path class="cls-5" d="M307.47 379.44l-2.34.75a1 1 0 01-.86-.1l-2.11-1.26a5.13 5.13 0 01-2.14-5l1.16-10.08a1.26 1.26 0 011.09-1.19l1.61-.06a18.85 18.85 0 015.62.65l1.55.42a1.26 1.26 0 01.79 1.41L310.7 375a5.13 5.13 0 01-3.23 4.44z"/><path d="M306.54 364.24a16.1 16.1 0 012.37.45l.62.17a1.61 1.61 0 011 1.81l-.59 5.1a.61.61 0 01-.61.6l-7.38-.85a.61.61 0 01-.46-.72l.59-5.1a1.61 1.61 0 011.4-1.53h.64a16.1 16.1 0 012.41.09m.06-.48a16.37 16.37 0 00-2.46-.1h-.64a2.08 2.08 0 00-1.8 2l-.59 5.1a1.06 1.06 0 00.8 1.25l7.38.85a1.06 1.06 0 001.06-1l.59-5.1a2.08 2.08 0 00-1.31-2.33l-.62-.17a16.37 16.37 0 00-2.42-.46z" fill="#cfaf58"/><path d="M300.79 373.49a4.45 4.45 0 001.86 4.36l1.83 1.1a.89.89 0 00.74.09l2-.65a4.45 4.45 0 002.8-3.82.73.73 0 00-.55-.86l-8-.91a.73.73 0 00-.68.69z" fill="#2f67b1"/><rect class="cls-5" x="302.47" y="374.84" width="5.48" height="1.81" rx=".82" ry=".82" transform="rotate(6.55 305.379 376.055)"/><path class="cls-8" d="M303.14 367.75a2.61 2.61 0 002 3.07l.64-5.61a2.61 2.61 0 00-2.64 2.54z"/><path class="cls-9" d="M307.08 365.36l-.64 5.61a2.88 2.88 0 00.64-5.61z"/></g></g></g><path id="neck" fill="#3e2016" d="M427.61 339.42l-27.59 8.62-28.6-9.62-1.92-23.62h61.04l-2.93 24.62z"/><path d="M502.88 421.91l-2.47-83.84c-1.19-11.87-11.83-22.25-23.72-23.14l-37.14-2.71c-4.07-.45-20.52-.09-39.55.53-19-.62-35.48-1-39.55-.53l-37.14 2.71c-11.89.89-22.53 11.27-23.72 23.14l-2.47 83.84a20.15 20.15 0 005 15.74 19.92 19.92 0 001.69 1.64v12.87c0 12.81 9.32 23.22 20.78 23.22a19.8 19.8 0 0015.25-7.38v21.79a12.23 12.23 0 007.74 11.36v68h-5.93c-10.93 0-19.83 5.8-19.83 17.11 0 8.06 0 17 11.72 19.7v1.6a1.38 1.38 0 001.38 1.38h1.63a1.38 1.38 0 001.38-1.37v-.95c1.16.09 2.39.15 3.73.15h1.89v.8a1.38 1.38 0 001.38 1.38h1.63a1.38 1.38 0 001.38-1.37v-.8h5.62v.8a1.38 1.38 0 001.38 1.38h1.63a1.38 1.38 0 001.38-1.37v-.8h5.62v.8a1.38 1.38 0 001.38 1.38h1.63a1.38 1.38 0 001.38-1.37v-.8h5.62v.8a1.38 1.38 0 001.38 1.38h1.63a1.38 1.38 0 001.38-1.37v-.8h5.62v.8a1.38 1.38 0 001.38 1.38h1.63a1.38 1.38 0 001.38-1.37v-.8h5.62v.8a1.38 1.38 0 001.38 1.38h1.63a1.38 1.38 0 001.38-1.37v-.81l.06-55.45V502h4v49.21l.06 54.67v1.6a1.38 1.38 0 001.38 1.38h1.63a1.38 1.38 0 001.38-1.37v-.8h5.62v.8a1.38 1.38 0 001.38 1.38h1.63a1.38 1.38 0 001.38-1.37v-.8h5.62v.8a1.38 1.38 0 001.38 1.38h1.63a1.38 1.38 0 001.38-1.37v-.8h5.62v.8a1.38 1.38 0 001.38 1.38h1.63a1.38 1.38 0 001.38-1.37v-.8h5.62v.8a1.38 1.38 0 001.38 1.38h1.63a1.38 1.38 0 001.38-1.37v-.8h5.62v.8a1.38 1.38 0 001.38 1.38h1.63a1.38 1.38 0 001.38-1.37v-.8h1.89c1.33 0 2.57-.05 3.72-.15v.95a1.38 1.38 0 001.38 1.38h1.63a1.38 1.38 0 001.38-1.37v-1.6c11.71-2.68 11.72-11.64 11.72-19.7 0-11.3-8.89-17.11-19.83-17.11h-5.93v-68a12.23 12.23 0 007.74-11.36V468a19.8 19.8 0 0015.21 7.42c11.46 0 20.78-10.42 20.78-23.22v-12.9a19.92 19.92 0 001.69-1.64 20.15 20.15 0 004.95-15.75zm-130.49-99.66c3.46 1.84 15.64 2.07 27.61 1.79 12 .28 24.15 0 27.61-1.79V334c0 4.8-22.42 12-27.23 12l-.38-.08-.38.08c-4.8 0-27.23-7.19-27.23-12zm-33 128.91v1.53c0 9.5-6.63 17.22-14.78 17.22s-14.78-7.73-14.78-17.22v-9.31a21.08 21.08 0 007.47 1.36h22.09zm52.9 149.93h-50.64c-14.22 0-14.22-5-14.22-14.89 0-8.21 6.38-11.5 14.22-11.5h11.67l38.93-2.7.06 15.37zm-38.74-76.4h38.67v41.71l-38.67 2.68h-.26V524.7zm-.26-5.74V502h38.94v17h-38.91zm104.77 55.75h.26c7.84 0 14.22 3.29 14.22 11.5 0 9.91 0 14.89-14.22 14.89h-50.64V587.4l.06-15.37 38.93 2.69h11.42zm-11.67-50h.26v44.4h-.26l-38.67-2.68V524.7zm-38.64-5.7v-17h38.95v17h-38.95zm46.84-73.77h-.07v44.58a6.6 6.6 0 01-6.58 6.58H403s-.11-3.73-.16-8.75v-2.79c0-3.51-1.41-5.09-2.82-5-1.41-.09-2.82 1.49-2.82 5v2.79c0 5-.16 8.75-.16 8.75H352.1a6.6 6.6 0 01-6.58-6.58v-44.63h-.07v-.33l30.24.33h48.69l30.24-.33zm35.57 7.51c0 9.5-6.63 17.22-14.78 17.22s-14.78-7.73-14.78-17.22v-7.94h22.09a21.08 21.08 0 007.47-1.36zm6-23.73a13.53 13.53 0 01-6 7.29 14.69 14.69 0 01-7.47 2l-22.09.09v-73.67c0-5.56-6.07-5.94-6.07 0s.07 14.37.07 14.37v59.59H345.41v-59.61s.07-8.46.07-14.37-6.07-5.54-6.07 0v73.59l-22.09-.09a14.69 14.69 0 01-7.47-2 13.53 13.53 0 01-6-7.29 14.89 14.89 0 01-.75-6.46l2.47-83.84c.89-9 9.23-17.08 18.2-17.75l11.12-.83 32.22-2.29c.68.54.48 17.49.48 17.49 0 8.43 23.34 15.29 31.77 15.29h1.3c8.43 0 31.77-6.86 31.77-15.29 0 0-.2-16.95.48-17.49l32.22 2.29 11.12.83c9 .67 17.3 8.8 18.2 17.75l2.47 83.84a14.89 14.89 0 01-.77 6.55z" id="border"/><g id="head"><path id="skin-2" data-name="skin" class="cls-1" d="M446.38 253.1c0-.91.08-1.81.08-2.73 0-30.51-21.06-55.25-47-55.25s-47 24.74-47 55.25c0 1.11 0 2.21.1 3.31-4 2.46-6.9 8.44-6.9 15.43 0 9.19 4.93 16.64 11 16.64a7.47 7.47 0 002.1-.31c.82 24.5 18.74 44.08 40.73 44.08s40.12-19.81 40.74-44.5a7.65 7.65 0 003.25.74c6.08 0 11-7.45 11-16.64-.05-7.65-3.48-14.06-8.1-16.02z"/><path id="border-2" data-name="border" d="M446.38 253.1c0-.91.08-1.81.08-2.73 0-30.51-21.06-55.25-47-55.25s-47 24.74-47 55.25c0 1.11 0 2.21.1 3.31-4 2.46-6.9 8.44-6.9 15.43 0 9.19 4.93 16.64 11 16.64a7.47 7.47 0 002.1-.31c.82 24.5 18.74 44.08 40.73 44.08s40.12-19.81 40.74-44.5a7.65 7.65 0 003.25.74c6.08 0 11-7.45 11-16.64-.05-7.65-3.48-14.06-8.1-16.02z" fill="none" stroke="#231f20" stroke-linecap="round" stroke-linejoin="round" stroke-width="6"/><path d="M445.5 254.5l-2.4-38.67c-2.22-10.17-13.17-16-13.17-16-3.25-7.67-14.37-7.83-14.37-7.83-2.39-2.67-15.4-2.83-15.4-2.83s-13 .17-15.4 2.83c0 0-11.12.17-14.37 7.83 0 0-10.95 5.83-13.17 16l-2.4 38.67s11.4-15 11.09-17.33-1.73-13.67 0-14.67 27.74-6 34.24-6 32.5 5 34.24 6 .32 12.33 0 14.67 11.11 17.33 11.11 17.33z" fill="#231f20"/></g></svg>