<svg xmlns="http://www.w3.org/2000/svg" viewBox="0 0 800 800"><defs><style>.cls-2{fill:#efc7b0}.cls-3{fill:#be202e}.cls-4{fill:#d4d2c7}.cls-5{fill:#da2c3a}.cls-6{fill:#fff}.cls-7{fill:#2c4b9b}.cls-8{fill:#4f60a7}.cls-9{fill:#ffcb58}.cls-15{fill:#7b6054}</style></defs><g style="isolation:isolate"><g id="player"><g id="skin"><path id="arm-left" class="cls-2" d="M305.93 391h36.78v72.38a18.39 18.39 0 01-18.39 18.39 18.39 18.39 0 01-18.39-18.39V391z"/><path id="arm-right" class="cls-2" d="M457.19 391H494v72.38a18.39 18.39 0 01-18.39 18.39 18.39 18.39 0 01-18.39-18.39V391h-.03z"/><path id="leg-left" class="cls-2" d="M349.88 500.99h45.67v45.67h-45.67z"/><path id="leg-right" class="cls-2" d="M404.78 500.99h45.67v45.67h-45.67z"/></g><g id="boots"><g id="boots-2" data-name="boots"><path id="left" class="cls-3" d="M395.54 567.09h-22.83l-22.83 1.97h-12.5l-7.5 2.53-5.25 8.5v9.83l1.91 4.17 3.84 4.05 6.33 1.95h58.83v-33z"/><path id="right" class="cls-3" d="M404.67 567.09h22.83l22.83 1.97h12.5l7.5 2.53 5.25 8.5v9.83l-1.91 4.17-3.84 4.05-6.33 1.95h-58.83v-33z"/></g><g id="details"><path id="left-2" data-name="left" class="cls-4" d="M395.59 576.2s-56.17 8-56.17 23.89h56.12z"/><path id="right-2" data-name="right" class="cls-4" d="M404.78 576.2s56.17 8 56.17 23.89h-56.12z"/></g></g><g id="socks"><g id="socks-2" data-name="socks"><path id="left-3" data-name="left" class="cls-5" d="M349.88 519.91h45.67v48.04h-45.67z"/><path id="right-3" data-name="right" class="cls-5" d="M404.38 519.91h45.67v48.04h-45.67z"/></g><g id="details-2" data-name="details"><g id="left-4" data-name="left"><path id="left-5" data-name="left" class="cls-6" d="M349.98 523.82h45.61v2.09h-45.61z"/><path id="top" class="cls-6" d="M349.98 528.01h45.61v2.09h-45.61z"/></g><g id="right-4" data-name="right"><path id="bottom" class="cls-6" d="M404.41 523.82h45.61v2.09h-45.61z"/><path id="top-2" data-name="top" class="cls-6" d="M404.41 528.01h45.61v2.09h-45.61z"/></g></g></g><g id="shorts"><path id="shorts-2" data-name="shorts" class="cls-6" d="M341.67 450.77h116.49v45.55a9.8 9.8 0 01-9.8 9.8h-96.88a9.8 9.8 0 01-9.8-9.8v-45.55h-.01z"/><g id="details-3" data-name="details"><g id="adidas"><path id="stripe-3" class="cls-7" d="M347.41 450.17h2.52v54.7h-2.52z"/><path id="stripe-2" class="cls-5" d="M351.94 450.17h2.52v54.7h-2.52z"/><path id="stripe-1" class="cls-7" d="M356.46 450.17h2.52v54.7h-2.52z"/></g><path id="end" class="cls-7" d="M342.71 490.49s36.18 14.38 45 14.38H346l-3.28-8.75z"/><g id="adidas-2" data-name="adidas"><path id="stripe-3-2" data-name="stripe-3" class="cls-7" transform="rotate(-180 451.225 477.52)" d="M449.96 450.17h2.52v54.7h-2.52z"/><path id="stripe-2-2" data-name="stripe-2" class="cls-5" transform="rotate(-180 446.705 477.52)" d="M445.44 450.17h2.52v54.7h-2.52z"/><path id="stripe-1-2" data-name="stripe-1" class="cls-7" transform="rotate(-180 442.18 477.52)" d="M440.92 450.17h2.52v54.7h-2.52z"/></g><path id="end-2" data-name="end" class="cls-7" d="M457.19 490.49s-36.18 14.38-45 14.38h41.68l3.28-8.75z"/></g></g><g id="shirt"><path id="shirt-2" data-name="shirt" class="cls-7" d="M369.5 323.77l-48.29 2.99-11.36 6.25-6.83 10.1-3.31 40.73 5.17 7.67 7.66 4.66h29.5l.17 54h114.83v-53.5l29.34-.16 7.01-4 6.99-10.5-3.4-37.34-6.83-11.83-9.77-6.08-49.84-2.99-1 21.24-6.5 6.5-11.16 3.48-11.88 2.02-15.46-3.17-11-5.67-3.66-3.83-.38-20.57z"/><g id="details-4" data-name="details"><g id="arm-l"><path id="white" class="cls-6" d="M349 326.11h-14c-30.21 0-32.42 14.51-32.42 32.42v25.81c0 7.82 4.93 10.16 12.75 10.16l2-41.16c0-10.85 6.86-14.49 17.71-14.49H349a6.32 6.32 0 006.32-6.32v-.09a6.32 6.32 0 00-6.32-6.33z"/><path id="red" class="cls-5" d="M349.42 329.85h-.35l-4.38.19-16.42.3a20 20 0 00-19.63 20.37l-1.79 37.76v1.49a2.31 2.31 0 004.63-.09v-1.49l1.79-37.76a15.31 15.31 0 0115-15.57l16.09-.41 4.71-.09v-.08h.35a2.31 2.31 0 10-.09-4.63z"/><path id="end-3" data-name="end" class="cls-5" d="M305.37 386.97h36.92v7.52h-36.92z"/></g><g id="arm-r"><path id="white-2" data-name="white" class="cls-6" d="M450.57 326.11h13.96c30.21 0 32.42 14.51 32.42 32.42v25.81c0 7.82-4.93 10.16-12.75 10.16l-2-41.16c0-10.85-6.86-14.49-17.71-14.49h-13.92a6.32 6.32 0 01-6.32-6.32v-.09a6.32 6.32 0 016.32-6.33z"/><path id="red-2" data-name="red" class="cls-5" d="M450.13 329.85h.35l4.38.19 16.42.3a20 20 0 0119.63 20.37l1.79 37.76v1.49a2.31 2.31 0 01-4.63-.09v-1.49l-1.79-37.76a15.31 15.31 0 00-15-15.57l-16.09-.41-4.71-.09v-.08H450a2.31 2.31 0 01.09-4.63z"/><path id="end-4" data-name="end" class="cls-5" transform="rotate(-180 475.715 390.73)" d="M457.25 386.97h36.92v7.52h-36.92z"/></g><g id="chest"><path class="cls-6" d="M364.92 326.1v17.72a10.42 10.42 0 002.74 7.06 27.79 27.79 0 005.6 4.6 1.43 1.43 0 002.21-1.2v-10.59l24.47 2.05V329z" id="neck-l"/><path class="cls-6" d="M435.06 326.1v17.72a10.42 10.42 0 01-2.74 7.06 27.79 27.79 0 01-5.6 4.6 1.43 1.43 0 01-2.21-1.2v-10.59L400 345.74V329z" id="neck-r"/><g id="chest-l"><path id="red-3" data-name="red" class="cls-5" d="M363.54 358.12c-5.8 2.76-14.82 9.31-16 23.67-.12 1.45 1.12 1.81 1.69.48 2.88-6.71 8.84-17.12 15.16-23a.72.72 0 00-.85-1.15z"/><path id="blue" class="cls-8" d="M352.1 380.38c-2.15 6-3.9 17.06 5.39 28.08.94 1.11 2.07.49 1.53-.86-2.71-6.78-5.85-18.35-5.52-27a.72.72 0 00-1.4-.22z"/></g><g id="chest-r"><path id="red-4" data-name="red" class="cls-5" d="M436.59 358.12c5.8 2.76 14.82 9.31 16 23.67.12 1.45-1.12 1.81-1.69.48-2.88-6.71-8.84-17.12-15.16-23a.72.72 0 01.85-1.15z"/><path id="blue-2" data-name="blue" class="cls-8" d="M448 380.38c2.15 6 3.9 17.06-5.39 28.08-.94 1.11-2.07.49-1.53-.86 2.71-6.78 5.85-18.35 5.52-27a.72.72 0 011.4-.22z"/></g></g><g id="adidas-3" data-name="adidas"><rect id="bottom-2" data-name="bottom" class="cls-6" x="395.77" y="375.1" width="8.74" height="1.23" rx=".62" ry=".62"/><path class="cls-6" d="M400.19 370.09a.77.77 0 00-.28 1l1.79 3.12a.77.77 0 00.67.39h1.34l-2.47-4.27a.77.77 0 00-1.05-.24zm-1.54 1.55a.77.77 0 00-.28 1l.88 1.57a.77.77 0 00.67.39h1.34l-1.55-2.72a.77.77 0 00-1.06-.24zM397 373a.77.77 0 00-.29 1l.12.21a.77.77 0 00.67.4h1.33l-.78-1.37A.77.77 0 00397 373z"/></g><path class="cls-6" d="M369.67 388h-9.29a1.64 1.64 0 01-1.61-1.66 1.81 1.81 0 01.72-1.44c6-4.43 7.92-6.18 7.92-8.06 0-1.4-1.27-2.09-2.6-2.09a5.74 5.74 0 00-3.3 1 1.65 1.65 0 01-1 .31 1.53 1.53 0 01-1.49-1.54 1.26 1.26 0 01.22-.7c.77-1.23 3.46-2.09 5.49-2.09 3.42 0 6.13 1.92 6.13 5.12 0 2.74-2.26 5.12-6.42 8.16h5.22a1.49 1.49 0 011.47 1.47 1.51 1.51 0 01-1.46 1.52zm14.43 0h-9.29a1.64 1.64 0 01-1.61-1.66 1.81 1.81 0 01.72-1.44c6-4.43 7.92-6.18 7.92-8.06 0-1.4-1.27-2.09-2.6-2.09a5.74 5.74 0 00-3.3 1 1.65 1.65 0 01-1 .31 1.53 1.53 0 01-1.49-1.54 1.26 1.26 0 01.22-.7c.77-1.23 3.46-2.09 5.49-2.09 3.42 0 6.13 1.92 6.13 5.12 0 2.74-2.26 5.12-6.42 8.16h5.22a1.49 1.49 0 011.47 1.47 1.51 1.51 0 01-1.46 1.52z" id="number-22"/><g id="france-crest-2006"><path class="cls-9" d="M431 386h-6a1.76 1.76 0 01-1.76-1.76v-.63a1.76 1.76 0 011.76-1.76h6a1.76 1.76 0 011.76 1.76v.63A1.76 1.76 0 01431 386zm-5.64-.63h5.32a1.45 1.45 0 001.45-1.45 1.45 1.45 0 00-1.45-1.45h-5.32a1.45 1.45 0 00-1.45 1.45 1.45 1.45 0 001.44 1.46z"/><rect class="cls-9" x="424.76" y="383.25" width="6.5" height="1.37" rx=".68" ry=".68"/><circle class="cls-9" cx="428.01" cy="368.1" r=".97"/><path class="cls-9" d="M426.4 371.26a9.89 9.89 0 00-1.26 4.58c0 1.77-.39 1.86 2.28 5.71.89 1.28 1.34.3 1.34.3l.28-3.2 2.38.73a.65.65 0 00.82-.47 25.28 25.28 0 00.55-3.13 2.86 2.86 0 00-4.19-2.82s.49-2.19-.92-2.36a1.36 1.36 0 00-1.28.66z"/></g></g></g><path id="neck" fill="#d3af9c" d="M430.54 346.75l-31.19 12.79-29.85-12.79v-22.98h61.04v22.98z"/><path d="M502.88 377.39L500.41 347c-1.19-11.87-11.83-22.25-23.72-23.14l-37.14-2.71c-4.07-.45-20.52-.09-39.55.53-19-.62-35.48-1-39.55-.53l-37.14 2.71c-11.89.89-22.53 11.27-23.72 23.14l-2.47 30.36a20.15 20.15 0 005 15.74 19.92 19.92 0 001.69 1.64v66.36c0 12.81 9.32 23.22 20.78 23.22a19.8 19.8 0 0015.21-7.42v19.57a12.23 12.23 0 007.74 11.36v58.26h-5.93c-10.93 0-19.83 5.8-19.83 17.11 0 8.06 0 17 11.72 19.7v1.6a1.38 1.38 0 001.38 1.38h1.63a1.38 1.38 0 001.38-1.37v-.95c1.16.09 2.39.15 3.73.15h1.89v.8a1.38 1.38 0 001.38 1.38h1.63a1.38 1.38 0 001.38-1.37v-.8h5.62v.8a1.38 1.38 0 001.38 1.38h1.63a1.38 1.38 0 001.38-1.37v-.8h5.62v.8a1.38 1.38 0 001.38 1.38h1.63a1.38 1.38 0 001.38-1.37v-.8h5.62v.8a1.38 1.38 0 001.38 1.38h1.63a1.38 1.38 0 001.38-1.37v-.8h5.62v.8a1.38 1.38 0 001.38 1.38h1.63a1.38 1.38 0 001.38-1.37v-.8h5.62v.8a1.38 1.38 0 001.38 1.38h1.63a1.38 1.38 0 001.38-1.37v-.81l.06-55.45v-39.53h4v39.49l.06 54.67v1.6a1.38 1.38 0 001.38 1.38h1.63a1.38 1.38 0 001.38-1.37v-.8h5.62v.8a1.38 1.38 0 001.38 1.38h1.63a1.38 1.38 0 001.38-1.37v-.8h5.62v.8a1.38 1.38 0 001.38 1.38h1.63a1.38 1.38 0 001.38-1.37v-.8h5.62v.8a1.38 1.38 0 001.38 1.38h1.63a1.38 1.38 0 001.38-1.37v-.8h5.62v.8a1.38 1.38 0 001.38 1.38h1.63a1.38 1.38 0 001.38-1.37v-.8h5.62v.8a1.38 1.38 0 001.38 1.38h1.63a1.38 1.38 0 001.38-1.37v-.8h1.89c1.33 0 2.57-.05 3.72-.15v.95a1.38 1.38 0 001.38 1.38h1.63a1.38 1.38 0 001.38-1.37v-1.6c11.71-2.68 11.72-11.64 11.72-19.7 0-11.3-8.89-17.11-19.83-17.11h-5.93v-58.33a12.23 12.23 0 007.74-11.36v-19.57a19.8 19.8 0 0015.21 7.42c11.46 0 20.78-10.42 20.78-23.22v-66.36a19.92 19.92 0 001.69-1.64 20.15 20.15 0 004.99-15.75zm-130.49-46.17c3.46 1.84 15.64 2.07 27.61 1.79 12 .28 24.15 0 27.61-1.79V343c0 4.8-22.42 12-27.23 12l-.38-.08-.38.08c-4.8 0-27.23-7.19-27.23-12zm-33 75.43v55c0 9.5-6.63 17.22-14.78 17.22s-14.78-7.73-14.78-17.22v-62.78a21.08 21.08 0 007.47 1.36h22.09zm52.9 191.48h-50.64c-14.22 0-14.22-5-14.22-14.89 0-8.21 6.38-11.5 14.22-11.5h11.67l38.93-2.74.06 15.37zm-38.74-76.4h38.67v41.71l-38.67 2.68h-.26v-44.4zm-.26-5.74v-7.26h38.94V516h-38.91zm104.77 55.75h.26c7.84 0 14.22 3.29 14.22 11.5 0 9.91 0 14.89-14.22 14.89h-50.64v-13.7l.06-15.37 38.93 2.69h11.42zm-11.67-50h.26v44.4h-.26l-38.67-2.68v-41.73zM407.75 516v-7.21h38.95V516h-38.95zm46.84-61.84h-.07v42.35a6.6 6.6 0 01-6.58 6.58h-1.26L403 503s-.11-3.73-.16-8.75v-2.79c0-3.51-1.41-5.09-2.82-5-1.41-.09-2.82 1.49-2.82 5v2.79c0 5-.16 8.75-.16 8.75H352.1a6.6 6.6 0 01-6.58-6.58v-42.27h-.07v-.33l30.24.33h48.69l30.24-.33zm35.57 7.51c0 9.5-6.63 17.22-14.78 17.22s-14.78-7.73-14.78-17.22v-61.44h22.09a21.08 21.08 0 007.47-1.36zm6-77.21a13.53 13.53 0 01-6 7.29 14.69 14.69 0 01-7.47 2l-22.09.09v-20.15c0-5.56-6.07-5.94-6.07 0s.07 14.37.07 14.37v59.59H345.41V388s.07-8.46.07-14.37-6.07-5.54-6.07 0v20.17l-22.09-.09a14.69 14.69 0 01-7.47-2 13.53 13.53 0 01-6-7.29 14.89 14.89 0 01-.75-6.46l2.47-30.36c.89-9 9.23-17.08 18.2-17.75l11.12-.83 32.22-2.29c.68.54.48 17.49.48 17.49 0 8.43 23.34 15.29 31.77 15.29h1.3c8.43 0 31.77-6.86 31.77-15.29 0 0-.2-16.95.48-17.49l32.22 2.29 11.12.83c9 .67 17.3 8.8 18.2 17.75l2.45 30.4a14.89 14.89 0 01-.75 6.45z" id="border"/><g id="head"><path d="M399.08 200.83a55.89 55.89 0 0123.09 6.08c12.58 6.25 21.58 22.41 25 32.79s-3.33 24.13-3.33 24.13-8.5-16.17-8.67-22.67-5.5-17.83-6.83-18.67-23.42-4.25-29.33-4.25-28 3.42-29.33 4.25-6.67 12.17-6.83 18.67-8.67 22.67-8.67 22.67-6.75-13.75-3.33-24.13 12.42-26.54 25-32.79a55.88 55.88 0 0123.09-6.08h.16m0-6h-.16a62.25 62.25 0 00-25.76 6.71c-15.18 7.54-24.76 26.36-28 36.28-4.06 12.35 2.85 27 3.65 28.65a6 6 0 005.3 3.36h.08a6 6 0 005.31-3.21c1.53-2.91 9.16-17.79 9.35-25.31.1-3.78 2.91-10.66 4.49-13.6 5.25-1.08 21.07-3.47 25.68-3.47s20.43 2.39 25.68 3.47c1.57 2.94 4.39 9.81 4.49 13.6.19 7.52 7.83 22.4 9.35 25.31a6 6 0 005.31 3.21h.08a6 6 0 005.3-3.36c.8-1.63 7.71-16.3 3.65-28.65-3.27-9.93-12.85-28.75-28-36.28a62.25 62.25 0 00-25.76-6.71z" fill="#231f20"/><path id="skin-2" data-name="skin" class="cls-2" d="M446.38 262.07c0-.91.08-1.81.08-2.73 0-30.51-21.06-55.25-47-55.25s-47 24.74-47 55.25c0 1.11 0 2.21.1 3.31-4 2.46-6.9 8.44-6.9 15.43 0 9.19 4.93 16.64 11 16.64a7.47 7.47 0 002.1-.31c.82 24.5 18.74 44.08 40.73 44.08s40.12-19.81 40.74-44.5a7.65 7.65 0 003.25.74c6.08 0 11-7.45 11-16.64-.05-7.65-3.48-14.09-8.1-16.02z"/><path id="border-2" data-name="border" d="M446.38 262.07c0-.91.08-1.81.08-2.73 0-30.51-21.06-55.25-47-55.25s-47 24.74-47 55.25c0 1.11 0 2.21.1 3.31-4 2.46-6.9 8.44-6.9 15.43 0 9.19 4.93 16.64 11 16.64a7.47 7.47 0 002.1-.31c.82 24.5 18.74 44.08 40.73 44.08s40.12-19.81 40.74-44.5a7.65 7.65 0 003.25.74c6.08 0 11-7.45 11-16.64-.05-7.65-3.48-14.09-8.1-16.02z" fill="none" stroke="#231f20" stroke-linecap="round" stroke-linejoin="round" stroke-width="6"/><path id="scar" d="M378.53 261.91l-8.85-1.28c-2-.3-4 1.69-4.41 4.43v.25l-5.42 37.35a1.7 1.7 0 001.12 2.07l1.1.16c.77.11 1.51-.63 1.66-1.66l5.42-37.35 8.48 1.23-7.85 53.6a1.7 1.7 0 001.12 2.07l1.1.16c.77.11 1.51-.63 1.66-1.66l7.85-53.6v-.25c.39-2.76-.94-5.22-2.98-5.52z" style="mix-blend-mode:color-burn" fill="#e4b69d"/><g id="beard"><path class="cls-15" d="M383.16 318.21c-1.9-.8-3.12-.32-2.72 1.08s2.75 7.21 3.43 9.16c0 0 1.27 3.67 15.91 3.67s15.91-3.67 15.91-3.67c.68-1.95 1.77-4.86 2.44-6.48s.17-4.57-1.73-3.76l-13.13 4.51a11 11 0 01-7 0z" opacity=".4"/><path class="cls-15" d="M413.14 309.93c2.19.18 2.28-.25.19-.94l-9.62-5.22a27.15 27.15 0 01-7.88 0l-9.61 5.23c-2.09.7-2 1.12.19.94l9.36-.78c2.2-.07 5.8-.07 8 0z" opacity=".2"/></g><path d="M447.17 239.7c-3.42-10.38-12.42-26.54-25-32.79S399 200.83 399 200.83s-10.58-.17-23.17 6.08-21.58 22.41-25 32.79 3.33 24.13 3.33 24.13 8.5-16.17 8.67-22.67 5.5-17.83 6.83-18.67 23.42-4.25 29.33-4.25 28 3.42 29.33 4.25 6.67 12.17 6.83 18.67 8.67 22.67 8.67 22.67 6.76-13.75 3.35-24.13z" fill="#3f2e29"/></g></g></g></svg>