<svg id="player" xmlns="http://www.w3.org/2000/svg" viewBox="0 0 800 800"><defs><style>.cls-1{fill:#e2a48f}.cls-2{fill:#303030}.cls-3{fill:#fff}.cls-4{fill:#ec2027}.cls-5{fill:#262626}.cls-6{fill:#231f20}.cls-7{fill:#332118}</style></defs><g id="skin"><path id="arm-left" class="cls-1" d="M305.93 382h36.78v72.4a18.39 18.39 0 01-18.39 18.39 18.39 18.39 0 01-18.39-18.39V382z"/><path id="arm-right" class="cls-1" d="M457.19 382H494v72.4a18.39 18.39 0 01-18.39 18.39 18.39 18.39 0 01-18.39-18.39V382h-.03z"/><path id="leg-left" class="cls-1" d="M349.88 480.84h45.67v56.84h-45.67z"/><path id="leg-right" class="cls-1" d="M404.78 480.84h45.67v56.84h-45.67z"/></g><g id="boots"><path id="left" class="cls-2" d="M395.54 570.04h-22.83l-22.83 1.97h-12.5l-7.5 2.53-5.25 8.5v9.83l1.91 4.17 3.84 4.05 6.33 1.95h58.83v-33z"/><path id="right" class="cls-2" d="M404.67 570.04h22.83l22.83 1.97h12.5l7.5 2.53 5.25 8.5v9.83l-1.91 4.17-3.84 4.05-6.33 1.95h-58.83v-33z"/><path class="cls-3" d="M394.54 596.17s-40.33-3.92-39.67 6.87h40.38zm10.92 0s40.33-3.92 39.67 6.87h-40.38z" id="details"/></g><g id="socks"><path id="left-2" data-name="left" class="cls-3" d="M349.88 522h45.67v48.04h-45.67z"/><path id="right-2" data-name="right" class="cls-3" d="M404.38 522h45.67v48.04h-45.67z"/><path class="cls-4" d="M350 521.67h44.83v17H350zm55.19 0h44.83v17h-44.83z" id="details-2" data-name="details"/></g><path id="shorts" class="cls-3" d="M341.67 440.88h116.49v30a9.95 9.95 0 01-9.95 9.95h-96.6a9.95 9.95 0 01-9.95-9.95v-30h.01z"/><g id="shirt"><path id="shirt-2" data-name="shirt" class="cls-3" d="M369.5 314.8l-48.29 2.99-11.36 6.25-6.83 10.1-1.93 98.78 11.16 7.16 29.96 1.13h147.21l10.96-12.79-3.4-92.71-6.83-11.84-9.77-6.08-49.84-2.99-1 21.24-6.5 6.5-11.16 3.48-11.88 2.02-15.46-3.17-11-5.66-3.66-3.84-.38-20.57z"/><g id="details-3" data-name="details"><path class="cls-4" d="M358.72 336.13h80.33v105.44h-80.33zm-17.05 105.08L309.52 439c-7.08-1.06-9.47-9.29-9.47-16.45h41.62zm116.49 0l32.16-2.21c7.08-1.06 9.47-9.29 9.47-16.45h-41.63z"/><g id="brand-le-coq"><path class="cls-3" d="M370.59 360.6a1.09 1.09 0 011 .57l4.37 7.88a1.11 1.11 0 01-1 1.64h-8.75a1.11 1.11 0 01-1-1.64l4.37-7.88a1.09 1.09 0 011-.57m0-1.41a2.51 2.51 0 00-2.2 1.29l-4.38 7.88a2.51 2.51 0 002.2 3.73h8.8a2.51 2.51 0 002.2-3.73l-4.37-7.88a2.51 2.51 0 00-2.2-1.29z"/><ellipse class="cls-3" cx="370.59" cy="367.05" rx="2.53" ry="2.8"/></g><g id="sponsor-tdk"><path class="cls-3" d="M376.21 403.43h-5.6a6.9 6.9 0 01-6.58-9l1.36-4.34a6.9 6.9 0 016.58-4.83h2.87a6.9 6.9 0 016.58 4.83l1.36 4.34a6.9 6.9 0 01-6.57 9z"/><rect class="cls-3" x="386.27" y="385.29" width="47.8" height="18.09" rx="9.04" ry="9.04"/></g><g id="crest-ajax-82"><circle class="cls-3" cx="425.48" cy="365.68" r="8.38"/><path class="cls-5" d="M425.48 374.51a8.84 8.84 0 118.84-8.84 8.85 8.85 0 01-8.84 8.84zm0-16.75a7.91 7.91 0 107.91 7.91 7.92 7.92 0 00-7.91-7.91z"/><path class="cls-5" d="M422.22 367.18h.08l.16.05a1.32 1.32 0 001.06-.11c3.83-2.22-1.46-4.62-1.46-4.62a.34.34 0 00-.47.11s-.47.77-.9 1.6c-.82 1.58-.82 2.07-.71 2.34a.52.52 0 00.34.32 14.13 14.13 0 001.86.34z"/><path class="cls-5" d="M427 365.92c-.42-.1-1.42-.28-1.67.2-.39.73-1.42 1.89-3.9 1.42a.42.42 0 00-.29 0 .34.34 0 00-.16.22 3.25 3.25 0 002.86 3.89l.36.06a3.84 3.84 0 002.66-.62 5.29 5.29 0 002.14-3.51c0-.58-.47-1.29-2-1.66zm3.73-4.73a8.24 8.24 0 00-5.14-1.62 4.13 4.13 0 00-3.33 1.64.34.34 0 000 .46s1.21 1.09 2.58 2.14c2.2 1.69 3.17 2.06 3.62 2.13a1.25 1.25 0 00.28 0c.71 0 1.35-.62 1.79-1.67s.7-2.51.2-3.08z"/></g></g></g><path id="neck" class="cls-1" d="M427.61 339.42l-27.59 8.62-28.6-9.62-1.92-23.62h61.04l-2.93 24.62z"/><path d="M502.88 421.91l-2.47-83.84c-1.19-11.87-11.83-22.25-23.72-23.14l-37.14-2.71c-4.07-.45-20.52-.09-39.55.53-19-.62-35.48-1-39.55-.53l-37.14 2.71c-11.89.89-22.53 11.27-23.72 23.14l-2.47 83.84a20.15 20.15 0 005 15.74 19.92 19.92 0 001.69 1.64v12.87c0 12.81 9.32 23.22 20.78 23.22a19.8 19.8 0 0015.25-7.38v3.79a12.23 12.23 0 007.74 11.36v86h-5.93c-10.93 0-19.83 5.8-19.83 17.11 0 8.06 0 17 11.72 19.7v1.6a1.38 1.38 0 001.38 1.38h1.63a1.38 1.38 0 001.38-1.37v-.95c1.16.09 2.39.15 3.73.15h1.89v.8a1.38 1.38 0 001.38 1.38h1.63a1.38 1.38 0 001.38-1.37v-.8h5.62v.8a1.38 1.38 0 001.38 1.38h1.63a1.38 1.38 0 001.38-1.37v-.8h5.62v.8a1.38 1.38 0 001.38 1.38h1.63a1.38 1.38 0 001.38-1.37v-.8h5.62v.8a1.38 1.38 0 001.38 1.38h1.63a1.38 1.38 0 001.38-1.37v-.8h5.62v.8a1.38 1.38 0 001.38 1.38h1.63a1.38 1.38 0 001.38-1.37v-.8h5.62v.8a1.38 1.38 0 001.38 1.38h1.63a1.38 1.38 0 001.38-1.37v-.81l.06-55.45V484h4v67.21l.06 54.67v1.6a1.38 1.38 0 001.38 1.38h1.63a1.38 1.38 0 001.38-1.37v-.8h5.62v.8a1.38 1.38 0 001.38 1.38h1.63a1.38 1.38 0 001.38-1.37v-.8h5.62v.8a1.38 1.38 0 001.38 1.38h1.63a1.38 1.38 0 001.38-1.37v-.8h5.62v.8a1.38 1.38 0 001.38 1.38h1.63a1.38 1.38 0 001.38-1.37v-.8h5.62v.8a1.38 1.38 0 001.38 1.38h1.63a1.38 1.38 0 001.38-1.37v-.8h5.62v.8a1.38 1.38 0 001.38 1.38h1.63a1.38 1.38 0 001.38-1.37v-.8h1.89c1.33 0 2.57-.05 3.72-.15v.95a1.38 1.38 0 001.38 1.38h1.63a1.38 1.38 0 001.38-1.37v-1.6c11.71-2.68 11.72-11.64 11.72-19.7 0-11.3-8.89-17.11-19.83-17.11h-5.93v-86a12.23 12.23 0 007.74-11.36V468a19.8 19.8 0 0015.21 7.42c11.46 0 20.78-10.42 20.78-23.22v-12.9a19.92 19.92 0 001.69-1.64 20.15 20.15 0 004.95-15.75zm-130.49-99.66c3.46 1.84 15.64 2.07 27.61 1.79 12 .28 24.15 0 27.61-1.79V334c0 4.8-22.42 12-27.23 12l-.38-.08-.38.08c-4.8 0-27.23-7.19-27.23-12zm-33 128.91v1.53c0 9.5-6.63 17.22-14.78 17.22s-14.78-7.73-14.78-17.22v-9.31a21.08 21.08 0 007.47 1.36h22.09zm52.9 149.93h-50.64c-14.22 0-14.22-5-14.22-14.89 0-8.21 6.38-11.5 14.22-11.5h11.67l38.93-2.7.06 15.37zm-38.74-76.4h38.67v41.71l-38.67 2.68h-.26V524.7zm-.26-5.74V484h38.94v35h-38.91zm104.77 55.75h.26c7.84 0 14.22 3.29 14.22 11.5 0 9.91 0 14.89-14.22 14.89h-50.64V587.4l.06-15.37 38.93 2.69h11.42zm-11.67-50h.26v44.4h-.26l-38.67-2.68V524.7zm-38.64-5.7v-35h38.95v35h-38.95zm46.84-73.77h-.07v26.58a6.6 6.6 0 01-6.58 6.58H403s-.11-3.73-.16-8.75v-2.79c0-3.51-1.41-5.09-2.82-5-1.41-.09-2.82 1.49-2.82 5v2.79c0 5-.16 8.75-.16 8.75H352.1a6.6 6.6 0 01-6.58-6.58v-26.63h-.07v-.33l30.24.33h48.69l30.24-.33zm35.57 7.51c0 9.5-6.63 17.22-14.78 17.22s-14.78-7.73-14.78-17.22v-7.94h22.09a21.08 21.08 0 007.47-1.36zm6-23.73a13.53 13.53 0 01-6 7.29 14.69 14.69 0 01-7.47 2l-22.09.09v-73.67c0-5.56-6.07-5.94-6.07 0s.07 14.37.07 14.37v59.59H345.41v-59.61s.07-8.46.07-14.37-6.07-5.54-6.07 0v73.59l-22.09-.09a14.69 14.69 0 01-7.47-2 13.53 13.53 0 01-6-7.29 14.89 14.89 0 01-.75-6.46l2.47-83.84c.89-9 9.23-17.08 18.2-17.75l11.12-.83 32.22-2.29c.68.54.48 17.49.48 17.49 0 8.43 23.34 15.29 31.77 15.29h1.3c8.43 0 31.77-6.86 31.77-15.29 0 0-.2-16.95.48-17.49l32.22 2.29 11.12.83c9 .67 17.3 8.8 18.2 17.75l2.47 83.84a14.89 14.89 0 01-.77 6.55z" id="border"/><g id="head"><path class="cls-6" d="M399.39 185.24h.61c6.92.15 34.16 2 42.53 22.49 6.15 15 10.44 17.49 11.32 24.63 1.14 2.13 16.1 31.11-.25 51.36-2 2.43-9.6 5.79-16 5.79-3.18 0-6-.84-7.72-3.07-5-6.67-3.45-17-5.48-29-.76-4.49 3.2-9.18 8.45-13.28-9.74-3.65-23.88-10-27.72-17.05-4 7.3-24 14.64-37.26 18.82 4.13 3.65 7 7.65 6.32 11.5-2 11.94-.47 22.3-5.48 29-1.67 2.23-4.53 3.07-7.72 3.07-6.36 0-14-3.36-16-5.79-15.94-19.74-2.12-47.79-.36-51.16 1.18-6.91 5.34-10.61 11.15-24.84 8.36-20.46 35.61-22.35 42.53-22.49h1m0-6H398a76.86 76.86 0 00-22.3 4c-12.43 4.34-21.2 12-25.38 22.26a131.14 131.14 0 01-6.57 13.71c-2.15 4-3.89 7.21-4.76 11.44a76.5 76.5 0 00-6.66 20.37c-2.44 14.32.35 26.94 8.06 36.49 3.45 4.27 13.09 8 20.63 8 7 0 10.65-3 12.52-5.47 4.38-5.84 4.9-13.06 5.45-20.7.25-3.51.51-7.14 1.15-10.87a14.21 14.21 0 00-2-9.6c14.61-5.13 22.45-9.49 26.79-12.81q6 5.24 17.22 10.25c-3.12 4.08-4.35 8.15-3.67 12.15.63 3.74.89 7.36 1.15 10.87.55 7.64 1.07 14.86 5.45 20.7 1.87 2.49 5.56 5.47 12.52 5.47 7.54 0 17.18-3.75 20.63-8 7.87-9.74 10.61-22.65 7.92-37.33a76.78 76.78 0 00-6.55-19.66c-.74-4.37-2.48-7.39-4.65-11.13a102.88 102.88 0 01-6.91-13.91c-4.18-10.22-13-17.91-25.38-22.26a76.86 76.86 0 00-22.3-4h-1z"/><path class="cls-7" d="M344.88 232.25s-16.81 30.46.18 51.5c2.94 3.64 18.68 9.39 23.68 2.72s3.45-17 5.48-29-29.34-25.22-29.34-25.22zm108.89 0s16.81 30.46-.18 51.5c-2.94 3.64-18.68 9.39-23.68 2.72s-3.45-17-5.48-29 29.34-25.22 29.34-25.22z"/><path id="skin-2" data-name="skin" class="cls-1" d="M446.38 253.1c0-.91.08-1.81.08-2.73 0-30.51-21.06-55.25-47-55.25s-47 24.74-47 55.25c0 1.11 0 2.21.1 3.31-4 2.46-6.9 8.44-6.9 15.43 0 9.19 4.93 16.64 11 16.64a7.47 7.47 0 002.1-.31c.82 24.5 18.74 44.08 40.73 44.08s40.12-19.81 40.74-44.5a7.65 7.65 0 003.25.74c6.08 0 11-7.45 11-16.64-.05-7.65-3.48-14.06-8.1-16.02z"/><path id="border-2" data-name="border" d="M446.38 253.1c0-.91.08-1.81.08-2.73 0-30.51-21.06-55.25-47-55.25s-47 24.74-47 55.25c0 1.11 0 2.21.1 3.31-4 2.46-6.9 8.44-6.9 15.43 0 9.19 4.93 16.64 11 16.64a7.47 7.47 0 002.1-.31c.82 24.5 18.74 44.08 40.73 44.08s40.12-19.81 40.74-44.5a7.65 7.65 0 003.25.74c6.08 0 11-7.45 11-16.64-.05-7.65-3.48-14.06-8.1-16.02z" fill="none" stroke="#231f20" stroke-linecap="round" stroke-linejoin="round" stroke-width="6"/><path class="cls-7" d="M442.53 207.75c-8.36-20.46-35.61-22.35-42.53-22.49h-1.62c-6.92.15-34.16 2-42.53 22.49-9.61 23.5-14.71 18.25-9.28 46.25 0 0 8.39.75 9.28-4.5 0 0 43.29-11.22 49.31-22.33 6 11.12 37.36 20.33 37.36 20.33.89 5.25 9.28 4.5 9.28 4.5 5.43-28 .33-20.75-9.27-44.25z"/></g><g id="shirt-collars"><path class="cls-4" d="M421.34 343.37l10.14 7s12.57-7 8.53-22.12-2.7-12.43-2.7-12.43l-7.91 1.89z"/><path class="cls-6" d="M430.15 352.34l-10.14-7a2.34 2.34 0 01-.9-2.62l8.06-25.61a2.34 2.34 0 011.69-1.57l6.78-1.62a2.68 2.68 0 01.68-.37 2.44 2.44 0 013.09 1.33 2.34 2.34 0 01.14 1.75c.21 1.16.84 4.05 2.73 11.12 4.46 16.69-9.51 24.68-9.65 24.76a2.34 2.34 0 01-2.47-.12zm1.08-32.61l-7.14 22.7 7.42 5.16a18.83 18.83 0 003.86-3.93c3.07-4.23 3.87-9.2 2.38-14.75-1.22-4.55-2.07-8-2.54-10.13z"/></g><g id="shirt-collars-2" data-name="shirt-collars"><path class="cls-4" d="M376.66 343.37l-10.14 7s-12.57-7-8.53-22.12 2.7-12.43 2.7-12.43l7.91 1.89z"/><path class="cls-6" d="M366.08 352.72a2.33 2.33 0 01-.7-.25c-.14-.08-14.11-8.07-9.65-24.76 1.89-7.07 2.52-10 2.73-11.12a2.34 2.34 0 01.14-1.75 2.44 2.44 0 013.09-1.33 2.68 2.68 0 01.68.37l6.78 1.62a2.34 2.34 0 011.69 1.57l8.06 25.61a2.34 2.34 0 01-.9 2.62l-10.14 7a2.34 2.34 0 01-1.78.42zm-3.29-33.94c-.47 2.17-1.32 5.58-2.54 10.13-1.49 5.56-.68 10.52 2.38 14.75a18.83 18.83 0 003.86 3.93l7.42-5.16-7.14-22.7z"/></g></svg>