<svg id="player" xmlns="http://www.w3.org/2000/svg" viewBox="0 0 800 800"><defs><style>.cls-1{fill:#e4b69d}.cls-2{fill:#363436}.cls-3{fill:#fff}.cls-6{fill:#302114}.cls-8{fill:none}</style></defs><g id="skin"><path id="arm-left" class="cls-1" d="M305.93 382h36.78v72.4a18.39 18.39 0 01-18.39 18.39 18.39 18.39 0 01-18.39-18.39V382z"/><path id="arm-right" class="cls-1" d="M457.19 382H494v72.4a18.39 18.39 0 01-18.39 18.39 18.39 18.39 0 01-18.39-18.39V382h-.03z"/><path id="leg-left" class="cls-1" d="M349.88 474.02h45.67v63.67h-45.67z"/><path id="leg-right" class="cls-1" d="M404.78 474.02h45.67v63.67h-45.67z"/></g><g id="boots"><path id="left" class="cls-2" d="M395.33 570.04H372.5l-22.83 1.97h-12.5l-7.5 2.53-5.25 8.5v9.83l1.91 4.17 3.84 4.05 6.33 1.95h58.83v-33z"/><path id="right" class="cls-2" d="M404.61 570.27h22.83l22.83 1.97h12.5l7.5 2.53 5.25 8.5v9.83l-1.91 4.17-3.84 4.05-6.33 1.95h-58.83v-33z"/></g><g id="socks"><g id="socks-2" data-name="socks"><path id="left-2" data-name="left" class="cls-3" d="M349.88 522h45.67v48.04h-45.67z"/><path id="right-2" data-name="right" class="cls-3" d="M404.38 522h45.67v48.04h-45.67z"/></g></g><g id="shorts"><path id="shorts-2" data-name="shorts" class="cls-2" d="M341.67 434.54h116.49v37a9.95 9.95 0 01-9.95 9.95h-96.6a9.95 9.95 0 01-9.95-9.95v-37h.01z"/></g><g id="shirt"><path id="shirt-2" data-name="shirt" class="cls-3" d="M369.5 314.8l-48.29 2.99-11.36 6.25-6.83 10.1-3.31 40.73 5.17 7.67 7.66 4.67h29.5l.17 47h114.83v-46.5l29.34-.17 7.01-4 6.99-10.5-3.4-37.33-6.83-11.84-9.77-6.08-49.84-2.99-1 21.24-6.5 6.5-11.16 3.48-11.88 2.02-15.46-3.17-11-5.66-3.66-3.84-.38-20.57z"/><g id="details"><path id="arm-l" class="cls-2" d="M301.64 378.29h41.04v10.41h-29.79l-8.05-5.37-3.2-5.04z"/><path id="arm-r" class="cls-2" d="M498.2 378.29h-41.04v10.41h29.79l8.04-5.37 3.21-5.04z"/><path id="neck" class="cls-2" d="M434.8 313.81L424.39 336 400 346.49 375.63 336l-10.41-22.19-7.58 1v11.39A31.34 31.34 0 00380 356.41a73.48 73.48 0 0040 0 31.34 31.34 0 0022.35-30.2v-11.39z"/><g id="duetschland-crest-1970"><circle class="cls-3" cx="431.09" cy="374.08" r="9.63"/><path class="cls-2" d="M431.09 364.45a9.63 9.63 0 11-9.63 9.63 9.63 9.63 0 019.63-9.63m0-1.17a10.8 10.8 0 1010.8 10.8 10.81 10.81 0 00-10.8-10.8z"/><circle class="cls-3" cx="431.09" cy="374.08" r="6.37"/><path class="cls-2" d="M431.09 367.7a6.37 6.37 0 11-6.37 6.37 6.37 6.37 0 016.37-6.37m0-1.17a7.54 7.54 0 107.54 7.54 7.55 7.55 0 00-7.54-7.54z"/><path class="cls-2" d="M434.84 372.68a1.36 1.36 0 00-1.32-1.05H432v-1.76a.52.52 0 00-.52-.52h-.71c-.39 0-.52.52-.52.52a1.67 1.67 0 00-1.34 1.07.2.2 0 00.18.27h.91l-.08.43h-1.21a1.36 1.36 0 00-1.32 1.05l-1.16 5h.7a.62.62 0 00.61-.48l.05-.23a.62.62 0 01.61-.48h.21a.62.62 0 00.59-.5.62.62 0 01.61-.48h.05l1.12 1.12a.47.47 0 00.67 0l1.12-1.12h.05a.62.62 0 01.61.48.62.62 0 00.61.48h.16a.62.62 0 01.61.48l.05.23a.62.62 0 00.61.48h.7z"/></g></g></g><path id="neck-2" data-name="neck" fill="#c09987" d="M427.63 340.26l-27.59 8.62-28.6-9.62-1.92-23.62h61.04l-2.93 24.62z"/><path d="M502.88 368.43l-2.47-30.36c-1.19-11.87-11.83-22.25-23.72-23.14l-37.14-2.71c-4.07-.45-20.52-.09-39.55.53-19-.62-35.48-1-39.55-.53l-37.14 2.71c-11.89.89-22.53 11.27-23.72 23.14l-2.47 30.36a20.15 20.15 0 005 15.74 19.92 19.92 0 001.69 1.64v66.36c0 12.81 9.32 23.22 20.78 23.22a19.8 19.8 0 0015.25-7.39v3.79a12.23 12.23 0 007.74 11.36v86h-5.93c-10.93 0-19.83 5.8-19.83 17.11 0 8.06 0 17 11.72 19.7v1.6a1.38 1.38 0 001.38 1.38h1.63a1.38 1.38 0 001.38-1.37v-.95c1.16.09 2.39.15 3.73.15h1.89v.8a1.38 1.38 0 001.38 1.38h1.63a1.38 1.38 0 001.38-1.37v-.8h5.62v.8a1.38 1.38 0 001.38 1.38h1.63a1.38 1.38 0 001.38-1.37v-.8h5.62v.8a1.38 1.38 0 001.38 1.38h1.63a1.38 1.38 0 001.38-1.37v-.8h5.62v.8a1.38 1.38 0 001.38 1.38h1.63a1.38 1.38 0 001.38-1.37v-.8h5.62v.8a1.38 1.38 0 001.38 1.38h1.63a1.38 1.38 0 001.38-1.37v-.8h5.62v.8a1.38 1.38 0 001.38 1.38h1.63a1.38 1.38 0 001.38-1.37v-.81l.06-55.45V484h4v67.21l.06 54.67v1.6a1.38 1.38 0 001.38 1.38h1.63a1.38 1.38 0 001.38-1.37v-.8h5.62v.8a1.38 1.38 0 001.38 1.38h1.63a1.38 1.38 0 001.38-1.37v-.8h5.62v.8a1.38 1.38 0 001.38 1.38h1.63a1.38 1.38 0 001.38-1.37v-.8h5.62v.8a1.38 1.38 0 001.38 1.38h1.63a1.38 1.38 0 001.38-1.37v-.8h5.62v.8a1.38 1.38 0 001.38 1.38h1.63a1.38 1.38 0 001.38-1.37v-.8h5.62v.8a1.38 1.38 0 001.38 1.38h1.63a1.38 1.38 0 001.38-1.37v-.8h1.89c1.33 0 2.57-.05 3.72-.15v.95a1.38 1.38 0 001.38 1.38h1.63a1.38 1.38 0 001.38-1.37v-1.6c11.71-2.68 11.72-11.64 11.72-19.7 0-11.3-8.89-17.11-19.83-17.11h-5.93v-86a12.23 12.23 0 007.74-11.36V468a19.8 19.8 0 0015.21 7.42c11.46 0 20.78-10.42 20.78-23.22v-66.39a19.92 19.92 0 001.69-1.64 20.15 20.15 0 004.95-15.74zm-130.49-46.18c3.46 1.84 15.64 2.07 27.61 1.79 12 .28 24.15 0 27.61-1.79V334c0 4.8-22.42 12-27.23 12l-.38-.08-.38.08c-4.8 0-27.23-7.19-27.23-12zm-33 67.43v55c0 17.5-6.63 25.22-14.78 25.22s-14.78-7.73-14.78-17.22V389.9a21.08 21.08 0 007.47 1.36h22.09zm52.9 211.42h-50.64c-14.22 0-14.22-5-14.22-14.89 0-8.21 6.38-11.5 14.22-11.5h11.67l38.93-2.71.06 15.37zm-38.74-76.4h38.67v41.7l-38.67 2.68h-.26V524.7zm-.26-5.74V484h38.94v35h-38.91zm104.77 55.75h.26c7.84 0 14.22 3.29 14.22 11.5 0 9.91 0 14.89-14.22 14.89h-50.64v-13.7l.06-15.37 38.93 2.69h11.42zm-11.67-50h.26v44.4h-.26l-38.67-2.68V524.7zM407.75 519v-35h38.95v35h-38.95zm46.84-81.77h-.07v34.58a6.6 6.6 0 01-6.58 6.58H403s-.11-3.73-.16-8.75v-2.79c0-3.51-1.41-5.09-2.82-5-1.41-.09-2.82 1.49-2.82 5v2.79c0 5-.16 8.75-.16 8.75H352.1a6.6 6.6 0 01-6.58-6.58v-34.63h-.07v-.33l30.24.33h48.69l30.24-.33zm35.57 15.51c0 9.5-6.63 17.22-14.78 17.22s-14.78-7.73-14.78-25.22v-53.48h22.09a21.08 21.08 0 007.47-1.36zm6-77.21a13.53 13.53 0 01-6 7.29 14.69 14.69 0 01-7.47 2l-22.09.09v-20.19c0-5.56-6.07-5.94-6.07 0s.07 14.37.07 14.37v51.59H345.41v-51.61s.07-8.46.07-14.37-6.07-5.54-6.07 0v20.11l-22.09-.09a14.69 14.69 0 01-7.47-2 13.53 13.53 0 01-6-7.29 14.89 14.89 0 01-.75-6.46l2.47-30.36c.89-9 9.23-17.08 18.2-17.75l11.12-.83 32.22-2.29c.68.54.48 17.49.48 17.49 0 8.43 23.34 15.29 31.77 15.29h1.3c8.43 0 31.77-6.86 31.77-15.29 0 0-.2-16.95.48-17.49l32.22 2.29 11.12.83c9 .67 17.3 8.8 18.2 17.75L496.9 369a14.89 14.89 0 01-.75 6.48z" id="border"/><g id="head"><path d="M408.27 188c9.9 0 24.86 3.34 30.36 13.07 2.81 5 7.25 11.32 10.49 24.22 6.27 12.88 13.9 36.19 8.93 67.68 0 0-4.66 12.79-11.91 12.79a7.45 7.45 0 01-4.22-1.44s-8.11 6.94-13.75 6.94a4.58 4.58 0 01-4.61-3.3c-3.4-9.15-9.92-15.69-7.68-32.45 1.13-8.47 4.5-28.87 9.25-44.59a16.86 16.86 0 00-11.37-4.65c-4.56 0-9.9 1.94-16 7.07-4.58 3.84-9.8 4.89-14.66 4.89a47.48 47.48 0 01-6.83-.57c3 15.49 5 31.5 5.72 38.29 1.85 16.81-4.49 23.2-7.9 32.28a4.35 4.35 0 01-4.32 3.2c-5.39 0-13.14-7.24-13.14-7.24a6.93 6.93 0 01-3.93 1.35c-7 0-11.27-13-11.27-13-4.21-31.76 3.52-58.94 9.68-74.51a32.21 32.21 0 012.66-6.27c2.25-5 3.87-7.72 3.87-7.72 5.18-11.21 23.89-15.48 34.29-15.48 4 0 6.74.63 7.07 1.73.4-1.36 4.17-2.25 9.28-2.25m0-6a28.79 28.79 0 00-9.46 1.28 25 25 0 00-6.88-.76c-12.37 0-33 5-39.61 18.71-.47.83-2 3.58-3.95 7.87a38.11 38.11 0 00-2.94 6.95c-6.92 17.55-14.2 45.11-9.95 77.25a6 6 0 00.25 1.08c.94 2.87 6.18 17.17 17 17.17a11.84 11.84 0 002.89-.36c3.51 2.74 9 6.25 14.18 6.25a10.38 10.38 0 009.94-7.09c.73-1.93 1.64-3.8 2.61-5.78 3.39-6.93 7.23-14.79 5.64-29.26-.32-2.87-1.83-16.17-4.4-31.07a27.84 27.84 0 0018.06-6.29c4.49-3.76 8.58-5.67 12.16-5.67a9.69 9.69 0 014.43 1.07 349.28 349.28 0 00-8.25 41.37c-1.94 14.51 2.12 22.83 5.38 29.51 1 2 1.9 3.89 2.62 5.83a10.61 10.61 0 0010.24 7.21c5.25 0 11-3.44 14.56-6a12.39 12.39 0 003.4.48c10.89 0 16.53-13.94 17.55-16.73a6 6 0 00.29-1.12c5-31.92-2.15-56-9.2-70.68a80.89 80.89 0 00-9.72-23c-.43-.73-.84-1.42-1.21-2.08-3.17-5.61-9-10.07-16.72-12.87a57.66 57.66 0 00-18.92-3.31z" fill="#231f20"/><path class="cls-6" d="M357.63 204s-22.82 38.62-16.21 88.5c0 0 5.91 18 15.2 11.7 0 0 14.05 13.11 17.46 4s9.75-15.47 7.9-32.28-11.41-90.33-24.35-71.92zm84.69 9.87s23.57 29.38 15.73 79.1c0 0-6.52 17.88-16.13 11.35 0 0-15 12.79-18.36 3.64s-9.92-15.69-7.68-32.45 13.24-80.34 26.44-61.64z"/><path id="skin-2" data-name="skin" class="cls-1" d="M446.38 253.1c0-.91.08-1.81.08-2.73 0-30.51-21.06-55.25-47-55.25s-47 24.74-47 55.25c0 1.11 0 2.21.1 3.31-4 2.46-6.9 8.44-6.9 15.43 0 9.19 4.93 16.64 11 16.64a7.47 7.47 0 002.1-.31c.82 24.5 18.74 44.08 40.73 44.08s40.12-19.81 40.74-44.5a7.65 7.65 0 003.25.74c6.08 0 11-7.45 11-16.64-.05-7.65-3.48-14.06-8.1-16.02z"/><path id="border-2" data-name="border" d="M446.38 253.1c0-.91.08-1.81.08-2.73 0-30.51-21.06-55.25-47-55.25s-47 24.74-47 55.25c0 1.11 0 2.21.1 3.31-4 2.46-6.9 8.44-6.9 15.43 0 9.19 4.93 16.64 11 16.64a7.47 7.47 0 002.1-.31c.82 24.5 18.74 44.08 40.73 44.08s40.12-19.81 40.74-44.5a7.65 7.65 0 003.25.74c6.08 0 11-7.45 11-16.64-.05-7.65-3.48-14.06-8.1-16.02z" stroke="#231f20" stroke-linecap="round" stroke-linejoin="round" stroke-width="6" fill="none"/><path class="cls-6" d="M453.17 264.33c-.19-42.31-9.74-54.78-14.54-63.27-8.35-14.77-38.46-14.81-39.64-10.82-1.19-4-34.2-1.73-41.35 13.76s-8 8.67-9.44 49.33c-.3 8.34 11 16.54 11.85 9 0 0 5.23-18.81 6-24.15s18.78 6 31.71-4.83c22.73-19 34.78 5.83 35.55 11.17s4.93 13.5 4.93 13.5c.85 7.54 14.97 13.83 14.93 6.31z"/><path class="cls-8" d="M385.67 313.9s1.87 9.16 13.33 8.15c11.46 1 13.33-8.15 13.33-8.15a5.44 5.44 0 00-1-3.57h-24.7a5.44 5.44 0 00-.96 3.57z"/><path class="cls-8" d="M399 306.81s-9.31-.78-12.37 3.53h24.74c-3.06-4.34-12.37-3.53-12.37-3.53z"/><path class="cls-6" d="M399 305.51s7.56-.54 11.3 2.06a5.38 5.38 0 003.07 1h2.16c2 0 3.54-1.65 3-3.34-.94-3.19-2-5.61-3-5.64l-15.73-2a6.86 6.86 0 00-1.7 0l-15.73 2c-1 0-2 2.45-3 5.64-.5 1.7 1 3.34 3 3.34h2.16a5.38 5.38 0 003.07-1c3.84-2.57 11.4-2.06 11.4-2.06z"/></g></svg>