<svg id="player" xmlns="http://www.w3.org/2000/svg" viewBox="0 0 800 800"><defs><style>.cls-1{fill:#e4b69d}.cls-2{fill:#353434}.cls-3{fill:#fff}.cls-4{fill:#ec2027}.cls-5{fill:#231f20}</style></defs><g id="skin"><path id="arm-left" class="cls-1" d="M305.93 380h36.78v72.4a18.39 18.39 0 01-18.39 18.39 18.39 18.39 0 01-18.39-18.39V380z"/><path id="arm-right" class="cls-1" d="M457.19 380H494v72.4a18.39 18.39 0 01-18.39 18.39 18.39 18.39 0 01-18.39-18.39V380h-.03z"/><path id="leg-left" class="cls-1" d="M349.88 490.02h45.67v45.67h-45.67z"/><path id="leg-right" class="cls-1" d="M404.78 490.02h45.67v45.67h-45.67z"/></g><g id="boots"><path id="left" class="cls-2" d="M395.33 568.04H372.5l-22.83 1.97h-12.5l-7.5 2.53-5.25 8.5v9.83l1.91 4.17 3.84 4.05 6.33 1.95h58.83v-33z"/><path id="right" class="cls-2" d="M404.61 568.27h22.83l22.83 1.97h12.5l7.5 2.53 5.25 8.5v9.83l-1.91 4.17-3.84 4.05-6.33 1.95h-58.83v-33z"/><g id="details"><g id="left-2" data-name="left"><path class="cls-3" d="M360.85 601.71l-3.67-1.6c.75-1.71 4.67-10.37 8.64-12.26 3.67-1.75 25-3.1 29.24-3.36l.24 4c-10.22.61-25.59 1.94-27.76 3-1.94.91-5.08 6.51-6.69 10.22z"/><path class="cls-3" d="M341.36 602c-.5-5.69 9.81-20.45 12.53-22.52 2.51-1.91 26.86-4 41.14-5.07l.3 4c-17.4 1.31-36.67 3.28-39.1 4.33-2.23 1.86-11.23 15.13-10.89 18.92z"/></g><g id="right-2" data-name="right"><path class="cls-3" d="M439.09 601.71l3.67-1.6c-.75-1.71-4.67-10.37-8.64-12.26-3.67-1.75-25-3.1-29.24-3.36l-.24 4c10.22.61 25.59 1.94 27.76 3 1.94.91 5.08 6.51 6.69 10.22z"/><path class="cls-3" d="M458.58 602c.5-5.69-9.81-20.45-12.53-22.52-2.51-1.91-26.86-4-41.14-5.07l-.3 4c17.4 1.31 36.67 3.28 39.1 4.33 2.25 1.86 11.22 15.13 10.89 18.92z"/></g></g></g><g id="socks"><g id="socks-2" data-name="socks"><path id="left-3" data-name="left" class="cls-3" d="M349.88 520h45.67v48.04h-45.67z"/><path id="right-3" data-name="right" class="cls-3" d="M404.38 520h45.67v48.04h-45.67z"/></g><path class="cls-4" d="M351.42 521.33h43.91v8.94h-43.91zm52.96 0h45.2v8.94h-45.2z" id="details-2" data-name="details"/></g><g id="shorts"><path id="shorts-2" data-name="shorts" class="cls-3" d="M341.67 440.54h116.49v47a9.95 9.95 0 01-9.95 9.95h-96.6a9.95 9.95 0 01-9.95-9.95v-47h.01z"/><path class="cls-4" d="M346.41 441h2v54.5h-2zm4.01 0h2v54.5h-2zm97.16 0h2v54.5h-2zm4 0h2v54.5h-2z" id="details-3" data-name="details"/></g><g id="shirt"><path id="shirt-2" data-name="shirt" class="cls-3" d="M369.5 312.8l-48.29 2.99-11.36 6.25-6.83 10.1-3.31 40.73 5.17 7.67 7.66 4.67h29.5l.17 54h114.83v-53.5l29.34-.17 7.01-4 6.99-10.5-3.4-37.33-6.83-11.84-9.77-6.08-49.84-2.99-1 21.24-6.5 6.5-11.16 3.48-11.88 2.02-15.46-3.17-11-5.66-3.66-3.84-.38-20.57z"/><g id="details-4" data-name="details"><g id="arm-l"><path class="cls-4" d="M304.67 376.6l-2-.19c0-.33 3.16-33 3.2-33.51.92-13.64 8.18-22.49 19.43-23.65l43.29-3.17.15 2-43.26 3.17c-10.32 1.06-16.75 9-17.61 21.81-.01.17-2.45 25.72-3.2 33.54z"/><path class="cls-4" d="M308.54 382.11l-2-.19c0-.33 3.16-35 3.2-35.51 1-14.57 7.21-22.87 18-24l44.63-2.83v2.07l-44.47 2.76c-9.81 1-15.27 8.46-16.19 22.14.02.19-2.42 27.74-3.17 35.56z"/></g><g id="arm-r"><path class="cls-4" d="M495.33 376.6l2-.19c0-.33-3.16-33-3.2-33.51-.92-13.64-8.18-22.49-19.43-23.65l-43.29-3.17-.15 2 43.26 3.17c10.32 1.06 16.75 9 17.61 21.81.01.17 2.45 25.72 3.2 33.54z"/><path class="cls-4" d="M491.46 382.11l2-.19c0-.33-3.16-35-3.2-35.51-1-14.57-7.21-22.87-18-24l-44.63-2.83v2.07l44.47 2.76c9.81 1 15.27 8.46 16.19 22.14-.02.19 2.42 27.74 3.17 35.56z"/></g><path id="chest" class="cls-4" d="M432.5 346.34c-8.92 2.73-32.5 13-32.5 13s-23.58-10.3-32.5-13a13.94 13.94 0 01-4.68-2.4 1.46 1.46 0 00-2.39 1.14v94.12h79.22V345a1.46 1.46 0 00-2.4-1.13 13.88 13.88 0 01-4.75 2.47z"/><path id="neck" class="cls-3" d="M441.44 335.44v-20.69l-1.79-.32-4.43-.79h-4.71c0 3.35.18 16-.58 22.67C429.06 344.06 400 347 400 347s-29.06-3-29.94-10.73c-.75-6.68-.63-19.32-.58-22.67h-4.71l-4.35.77-1.87.33v20.69a11.28 11.28 0 001.87 5.9 12.45 12.45 0 007.07 5c8.92 2.73 32.5 13 32.5 13s23.58-10.3 32.5-13a12.4 12.4 0 007.15-5.14 11.28 11.28 0 001.8-5.71z"/><g id="ajax-crest-inverted-02"><path class="cls-3" d="M404 368a7.13 7.13 0 00-2.07-1 .45.45 0 00-.57.36.45.45 0 00.32.5 6.23 6.23 0 11-7.86 7.27.46.46 0 00-.36-.35.46.46 0 00-.54.55A7.15 7.15 0 10404 368zm-3.49-.23a.7.7 0 00-.39-1.2 7.48 7.48 0 00-7.52 7.07.7.7 0 001.18.46l.41-.77a11.89 11.89 0 015.71-5.29z"/><path class="cls-3" d="M398.12 374.71a7.84 7.84 0 01-1-.19.29.29 0 01-.19-.18c-.06-.15-.06-.42.4-1.3.24-.46.49-.87.5-.89a.19.19 0 01.32.2 6.61 6.61 0 00-.87 1.82 8 8 0 00.92.16.19.19 0 010 .38zm-.89-.5zm1.92 3.18h-.18a1.82 1.82 0 01-1.42-2.16.19.19 0 01.22-.15 1.57 1.57 0 001.94-.79c.13-.27.63-.17.83-.11.77.2 1 .62 1 .94a3 3 0 01-1.06 1.95 1.76 1.76 0 01-1.33.32zm-1.25-1.93a1.38 1.38 0 001.15 1.53 1.42 1.42 0 001.2-.25 2.65 2.65 0 00.91-1.67c0-.11-.06-.22-.21-.32a1.58 1.58 0 00-.92-.27 1.89 1.89 0 01-2.08 1zm3.72-1.46a5.38 5.38 0 01-2-1.18c-.76-.59-1.43-1.18-1.43-1.19a.19.19 0 010-.25 2.29 2.29 0 011.85-.91 4.57 4.57 0 012.85.9c.28.31.18 1.12-.08 1.72s-.6.91-1 .92zm-3.06-2.54c1 .9 2.67 2.19 3.2 2.17.24 0 .48-.27.66-.69a2.76 2.76 0 00.21-.83.77.77 0 00-.07-.49 4.3 4.3 0 00-2.55-.77 2 2 0 00-1.45.64z"/></g><g id="adidas"><rect id="bottom" class="cls-3" x="370.43" y="374.6" width="11.69" height="1.65" rx=".83" ry=".83"/><path class="cls-3" d="M376.33 367.9a1 1 0 00-.37 1.4l2.4 4.17a1 1 0 00.89.51H381l-3.3-5.71a1 1 0 00-1.37-.37zm-2.05 2.1a1 1 0 00-.38 1.39l1.18 2.1a1 1 0 00.9.52h1.79l-2.07-3.63a1 1 0 00-1.42-.38zm-2.28 1.77a1 1 0 00-.38 1.39l.16.29a1 1 0 00.9.53h1.78l-1-1.83a1 1 0 00-1.46-.38z"/></g><rect id="sponsor-abn" class="cls-3" x="416.4" y="359" width="13.25" height="76.75" rx="6.62" ry="6.62"/><g id="logo-champions-league"><ellipse class="cls-3" cx="307.45" cy="352.83" rx="10.61" ry="8.34" transform="rotate(-81.73 307.456 352.831)"/><ellipse class="cls-3" cx="307.45" cy="352.83" rx="8.76" ry="6.89" transform="rotate(-81.73 307.456 352.831)"/><path class="cls-5" d="M306.09 362.16c-4-.59-6.73-5.25-6-10.4s4.65-8.86 8.69-8.27 6.73 5.25 6 10.4-4.64 8.86-8.69 8.27zm2.52-17.34c-3.47-.5-6.82 2.68-7.46 7.09s1.66 8.42 5.13 8.92 6.82-2.68 7.46-7.09-1.66-8.41-5.13-8.92z"/><path class="cls-5" d="M308.43 349.95l.24 1a.66.66 0 00.4.5l.82.28a.87.87 0 01.15 1.4l-.72.67a.94.94 0 00-.28.67v1.09c0 .66-.61 1.07-1 .7l-.68-.62a.51.51 0 00-.58-.08l-.83.4c-.5.24-1-.33-.78-1l.3-1.05a.94.94 0 00-.08-.72l-.5-.85c-.3-.51 0-1.28.54-1.3h.87a.66.66 0 00.53-.36l.52-.92a.58.58 0 011.08.19z"/></g></g></g><path id="neck-2" data-name="neck" fill="#be9684" d="M427.63 338.26l-27.59 8.62-28.6-9.62-1.92-23.62h61.04l-2.93 24.62z"/><path d="M502.88 366.43l-2.47-30.36c-1.19-11.87-11.83-22.25-23.72-23.14l-37.14-2.71c-4.07-.45-20.52-.09-39.55.53-19-.62-35.48-1-39.55-.53l-37.14 2.71c-11.89.89-22.53 11.27-23.72 23.14l-2.47 30.36a20.15 20.15 0 005 15.74 19.92 19.92 0 001.69 1.64v66.36c0 12.81 9.32 23.22 20.78 23.22a19.8 19.8 0 0015.25-7.39v21.79a12.23 12.23 0 007.74 11.36v68h-5.93c-10.93 0-19.83 5.8-19.83 17.11 0 8.06 0 17 11.72 19.7v1.6a1.38 1.38 0 001.38 1.38h1.63a1.38 1.38 0 001.38-1.37v-.95c1.16.09 2.39.15 3.73.15h1.89v.8a1.38 1.38 0 001.38 1.38h1.63a1.38 1.38 0 001.38-1.37v-.8h5.62v.8a1.38 1.38 0 001.38 1.38h1.63a1.38 1.38 0 001.38-1.37v-.8h5.62v.8a1.38 1.38 0 001.38 1.38h1.63a1.38 1.38 0 001.38-1.37v-.8h5.62v.8a1.38 1.38 0 001.38 1.38h1.63a1.38 1.38 0 001.38-1.37v-.8h5.62v.8a1.38 1.38 0 001.38 1.38h1.63a1.38 1.38 0 001.38-1.37v-.8h5.62v.8a1.38 1.38 0 001.38 1.38h1.63a1.38 1.38 0 001.38-1.37v-.81l.06-55.45V500h4v49.21l.06 54.67v1.6a1.38 1.38 0 001.38 1.38h1.63a1.38 1.38 0 001.38-1.37v-.8h5.62v.8a1.38 1.38 0 001.38 1.38h1.63a1.38 1.38 0 001.38-1.37v-.8h5.62v.8a1.38 1.38 0 001.38 1.38h1.63a1.38 1.38 0 001.38-1.37v-.8h5.62v.8a1.38 1.38 0 001.38 1.38h1.63a1.38 1.38 0 001.38-1.37v-.8h5.62v.8a1.38 1.38 0 001.38 1.38h1.63a1.38 1.38 0 001.38-1.37v-.8h5.62v.8a1.38 1.38 0 001.38 1.38h1.63a1.38 1.38 0 001.38-1.37v-.8h1.89c1.33 0 2.57-.05 3.72-.15v.95a1.38 1.38 0 001.38 1.38h1.63a1.38 1.38 0 001.38-1.37v-1.6c11.71-2.68 11.72-11.64 11.72-19.7 0-11.3-8.89-17.11-19.83-17.11h-5.93v-68a12.23 12.23 0 007.74-11.36V466a19.8 19.8 0 0015.21 7.42c11.46 0 20.78-10.42 20.78-23.22v-66.39a19.92 19.92 0 001.69-1.64 20.15 20.15 0 004.95-15.74zm-130.49-46.18c3.46 1.84 15.64 2.07 27.61 1.79 12 .28 24.15 0 27.61-1.79V332c0 4.8-22.42 12-27.23 12l-.38-.08-.38.08c-4.8 0-27.23-7.19-27.23-12zm-33 75.43v55c0 9.5-6.63 17.22-14.78 17.22s-14.78-7.73-14.78-17.22V387.9a21.08 21.08 0 007.47 1.36h22.09zm52.9 203.42h-50.64c-14.22 0-14.22-5-14.22-14.89 0-8.21 6.38-11.5 14.22-11.5h11.67l38.93-2.71.06 15.37zm-38.74-76.4h38.67v41.7l-38.67 2.68h-.26V522.7zm-.26-5.74V500h38.94v17h-38.91zm104.77 55.75h.26c7.84 0 14.22 3.29 14.22 11.5 0 9.91 0 14.89-14.22 14.89h-50.64v-13.7l.06-15.37 38.93 2.69h11.42zm-11.67-50h.26v44.4h-.26l-38.67-2.68V522.7zM407.75 517v-17h38.95v17h-38.95zm46.84-73.77h-.07v44.58a6.6 6.6 0 01-6.58 6.58H403s-.11-3.73-.16-8.75v-2.79c0-3.51-1.41-5.09-2.82-5-1.41-.09-2.82 1.49-2.82 5v2.79c0 5-.16 8.75-.16 8.75H352.1a6.6 6.6 0 01-6.58-6.58v-44.63h-.07v-.33l30.24.33h48.69l30.24-.33zm35.57 7.51c0 9.5-6.63 17.22-14.78 17.22s-14.78-7.73-14.78-17.22v-61.48h22.09a21.08 21.08 0 007.47-1.36zm6-77.21a13.53 13.53 0 01-6 7.29 14.69 14.69 0 01-7.47 2l-22.09.09v-20.19c0-5.56-6.07-5.94-6.07 0s.07 14.37.07 14.37v59.59H345.41v-59.61s.07-8.46.07-14.37-6.07-5.54-6.07 0v20.11l-22.09-.09a14.69 14.69 0 01-7.47-2 13.53 13.53 0 01-6-7.29 14.89 14.89 0 01-.75-6.46l2.47-30.36c.89-9 9.23-17.08 18.2-17.75l11.12-.83 32.22-2.29c.68.54.48 17.49.48 17.49 0 8.43 23.34 15.29 31.77 15.29h1.3c8.43 0 31.77-6.86 31.77-15.29 0 0-.2-16.95.48-17.49l32.22 2.29 11.12.83c9 .67 17.3 8.8 18.2 17.75L496.9 367a14.89 14.89 0 01-.75 6.48z" id="border"/><g id="head"><path class="cls-5" d="M413 185.34a18.4 18.4 0 015.62.83c6.78 2.17 27.92 11.71 27.67 30.83-.24 18.28 6.33 22 3.67 33.17-1 4.4-2.13 6.13-3.25 6.13-1.73 0-3.59-4.12-5.64-9 0 0-6.94-16.83-8.19-22.08s-2.87-7.75-2.37-8.37c.05-.07-.24-.09-.8-.09-3.2 0-15.19.91-23 .91-3.38 0-6-.17-6.82-.65-.82.48-3.44.65-6.82.65-7.86 0-19.85-.91-23-.91-.56 0-.85 0-.8.09.5.63-1.12 3.13-2.37 8.38s-8.19 22.08-8.19 22.08c-2.06 4.85-3.91 9-5.64 9-1.13 0-2.2-1.74-3.25-6.13-2.82-11.18 3.57-6.31 1.18-24.43s23.22-37.41 30-39.58a18.39 18.39 0 015.62-.83 27.78 27.78 0 0113.17 3.51 27.77 27.77 0 0113.21-3.51m0-6a35 35 0 00-13.17 2.8 35 35 0 00-13.17-2.8 24.38 24.38 0 00-7.46 1.12c-5.23 1.68-14.24 8.32-21 15.46-6.88 7.3-14.74 18.54-13.15 30.63 1.08 8.18.19 10.38-.6 12.32-1.3 3.22-2.18 6.19-.62 12.7.77 3.21 2.56 10.74 9.09 10.74 5.81 0 8.41-6.13 11.17-12.62v-.06c.73-1.77 7.16-17.43 8.48-23a38 38 0 011.09-3.71l2.89.15c5.1.27 11.44.61 16.4.61a39.4 39.4 0 006.82-.42 39.4 39.4 0 006.82.42c5 0 11.3-.34 16.4-.61l2.9-.15a38 38 0 011.09 3.71c1.32 5.55 7.75 21.21 8.48 23v.06c2.75 6.49 5.36 12.62 11.17 12.62 6.52 0 8.32-7.53 9.09-10.74 1.72-7.2.37-12.06-1.06-17.2a54.82 54.82 0 01-2.45-17.28c.27-20.76-19.88-32.79-31.83-36.63a24.39 24.39 0 00-7.46-1.12z"/><path id="skin-2" data-name="skin" class="cls-1" d="M446.38 251.1c0-.91.08-1.81.08-2.73 0-30.51-21.06-55.25-47-55.25s-47 24.74-47 55.25c0 1.11 0 2.21.1 3.31-4 2.46-6.9 8.44-6.9 15.43 0 9.19 4.93 16.64 11 16.64a7.47 7.47 0 002.1-.31c.82 24.5 18.74 44.08 40.73 44.08s40.12-19.81 40.74-44.5a7.65 7.65 0 003.25.74c6.08 0 11-7.45 11-16.64-.05-7.65-3.48-14.06-8.1-16.02z"/><path id="border-2" data-name="border" d="M446.38 251.1c0-.91.08-1.81.08-2.73 0-30.51-21.06-55.25-47-55.25s-47 24.74-47 55.25c0 1.11 0 2.21.1 3.31-4 2.46-6.9 8.44-6.9 15.43 0 9.19 4.93 16.64 11 16.64a7.47 7.47 0 002.1-.31c.82 24.5 18.74 44.08 40.73 44.08s40.12-19.81 40.74-44.5a7.65 7.65 0 003.25.74c6.08 0 11-7.45 11-16.64-.05-7.65-3.48-14.06-8.1-16.02z" fill="none" stroke="#231f20" stroke-linecap="round" stroke-linejoin="round" stroke-width="6"/><path d="M446.25 217c.25-19.12-20.89-28.66-27.67-30.83-8.1-2.6-17.32 1.63-18.79 2.68-1.47-1-10.69-5.28-18.79-2.68-6.78 2.17-32.37 21.58-30 39.58s-4 13.25-1.33 24.42 5.5 5.17 8.9-2.83c0 0 6.94-16.83 8.19-22.08s2.88-7.75 2.38-8.37 20.91-4 28.39-6a8.54 8.54 0 014.56 0c7.48 2.07 28.81 5.5 28.39 6s1.13 3.13 2.38 8.38 8.14 22.06 8.14 22.06c3.4 8 6.23 14 8.9 2.83s-3.9-14.88-3.65-33.16z" fill="#47251a"/></g></svg>