<svg id="player" xmlns="http://www.w3.org/2000/svg" viewBox="0 0 800 800"><defs><style>.cls-1{fill:#7c4925}.cls-2{fill:#414042}.cls-3{fill:#fff}.cls-4{fill:#ec2027}.cls-5{fill:#ef6824}.cls-6{fill:#282828}.cls-9{fill:#231f20}</style></defs><g id="skin"><path id="arm-left" class="cls-1" d="M305.93 382.22h36.78v72.38a18.39 18.39 0 01-18.39 18.4 18.39 18.39 0 01-18.39-18.39v-72.39z"/><path id="arm-right" class="cls-1" d="M457.19 382.22H494v72.38a18.39 18.39 0 01-18.42 18.4 18.39 18.39 0 01-18.39-18.39v-72.39z"/><path id="leg-left" class="cls-1" d="M349.88 492.22h45.67v45.67h-45.67z"/><path id="leg-right" class="cls-1" d="M404.78 492.22h45.67v45.67h-45.67z"/></g><g id="socks"><g id="boots"><g id="boots-2" data-name="boots"><path id="left" class="cls-2" d="M395.36 570.56h-22.83l-22.84 1.98h-12.5l-7.5 2.52-5.24 8.5v9.84l1.91 4.16 3.83 4.06 6.34 1.94h58.83v-33z"/><path id="right" class="cls-2" d="M404.64 570.79h22.83l22.84 1.97h12.5l7.5 2.53 5.24 8.5v9.83l-1.91 4.17-3.83 4.06-6.34 1.94h-58.83v-33z"/></g><g id="details"><path class="cls-3" d="M373.63 580.38s-15 11.75-15 24.38l36.74-1.19s-9.74-23.07-21.74-23.19z"/><path class="cls-4" d="M395.36 570.56s-13.42 18.82-35.45 15.44-14.1-13.46-12.16-13.46z"/><path class="cls-3" d="M426.38 580.38s15 11.75 15 24.38l-36.74-1.19s9.74-23.07 21.74-23.19z"/><path class="cls-4" d="M404.64 570.56s13.42 18.81 35.46 15.44 14.1-13.46 12.16-13.46z"/></g></g><g id="socks-2" data-name="socks"><path id="left-2" data-name="left" class="cls-5" d="M349.88 522.2h45.67v48.04h-45.67z"/><path id="right-2" data-name="right" class="cls-5" d="M404.38 522.2h45.67v48.04h-45.67z"/></g><path class="cls-6" d="M350.52 540h44.81v16.13h-44.81zm54.69 0h44.81v16.13h-44.81z" id="details-2" data-name="details"/></g><g id="shorts"><path id="shorts-2" data-name="shorts" class="cls-3" d="M341.67 442.74h116.49v47a9.95 9.95 0 01-9.95 9.95h-96.6a9.95 9.95 0 01-9.95-9.95v-47h.01z"/><path class="cls-6" d="M348.41 443.75h1.92v54.5h-1.92zm101.26 0h1.92v54.5h-1.92z" id="details-3" data-name="details"/></g><g id="shirt"><path class="cls-5" d="M369.5 315l-48.29 2.99-11.36 6.25-6.83 10.1-3.31 40.73 5.17 7.67 7.66 4.67h29.5l.17 54h114.83v-53.5l29.34-.17 7.01-4 6.99-10.5-3.4-37.33-6.83-11.84-9.77-6.08-49.84-2.99-1 21.24-6.5 6.5-11.16 3.48-11.88 2.02-15.46-3.17-11-5.66-3.66-3.84-.38-20.57z"/><g id="details-4" data-name="details"><g id="arm-l"><path class="cls-6" d="M342.65 387.63h-36.66L300.5 375h42.15v12.63z"/><path class="cls-3" d="M305.99 387.63h37.64v-6.32h-39.32l1.68 6.32z"/></g><g id="arm-r"><path class="cls-6" d="M457.48 387.63h36.65l5.5-12.63h-42.15v12.63z"/><path class="cls-3" d="M494.13 387.63H456.5v-6.32h39.31l-1.68 6.32z"/></g><g id="neck"><path class="cls-6" d="M376.23 344.53l-2.23 2.3 9.48 5.94c2.49 1.56 4.37 2.91 5.45 5.65 1.26 3.22 3.62 3.44 7.6 5.06a37.78 37.78 0 00-1.69-7.28c-.19-.82-13.9-8.91-18.61-11.67zm45.85-1.77l-1.29-1.34-20.79 7.66-20.79-7.66-1.29 1.34L400 354.38l22.08-11.62zm1.69 1.77c-4.71 2.76-18.42 10.85-18.63 11.68a37.78 37.78 0 00-1.69 7.28c4-1.62 6.33-1.85 7.6-5.06 1.08-2.74 3-4.09 5.45-5.65l9.48-5.94z"/><path class="cls-3" d="M423.77 344.53l-1.69-1.77-20 10.5a4.54 4.54 0 01-4.22 0l-20-10.5-1.69 1.77c4.71 2.76 18.42 10.85 18.63 11.68a37.78 37.78 0 011.69 7.28 9.15 9.15 0 006.92 0 37.78 37.78 0 011.69-7.28c.25-.83 13.96-8.92 18.67-11.68z"/></g><path class="cls-6" d="M350.12 441.41h-2.79l3.59-73.91h2.79l-3.59 73.91zm99.76 0h2.79l-3.59-73.91h-2.79l3.59 73.91z"/><path class="cls-3" d="M374.95 368.17c0 1.19-1.57 2.17-3.49 2.17h-9.26c-1.92 0-3.49-1-3.49-2.17s1.57-2.17 3.49-2.17h9.26c1.92 0 3.49 1 3.49 2.17z"/><g id="netherlands-crest-2004"><path class="cls-6" d="M434.56 362.81c-.14 0-.25.13-.39.13-.65 0-2.66.18-2.76 1.78a.71.71 0 01-.6.64c-.95.16-2.52.71-1.65 2.61 0 0 .08 1 .92.71s3.28-.71 4.26 1a.69.69 0 01-.37 1c-1 .35-2.72 1.08-2.63 1.83 0 0 0 2.8 1 1.84s6.26-.21 7-3.8 3.27-8.84-4.78-7.74zm-1.45 2.65a.65.65 0 01-.65-.65c0-.36.29-.25.65-.25s.65-.1.65.25a.65.65 0 01-.65.65z"/><rect class="cls-6" x="429.87" y="376.27" width="10.38" height="1.94" rx=".89" ry=".89"/></g><path class="cls-6" d="M398.42 400.65c-1.69 0-3.87-.49-4.52-1.61a1.48 1.48 0 01-.21-.73 1.69 1.69 0 011.71-1.61 1.53 1.53 0 01.75.18 4.76 4.76 0 002.26.49c2.55 0 4.34-2.15 4.34-4.91a1.75 1.75 0 000-.36 5.63 5.63 0 01-4.44 2.23c-3.12 0-5.89-1.95-5.89-5.63 0-3.38 2.67-5.95 6.62-5.95 5.27 0 7.48 4.05 7.48 8.93-.02 5.25-2.98 8.97-8.1 8.97zm.81-14.62c-2 0-3.09 1.32-3.09 2.55 0 1.82 1.56 2.6 3.22 2.6a4.33 4.33 0 003.38-1.64c-.16-1.67-1.1-3.54-3.51-3.54z"/></g></g><path id="neck-2" data-name="neck" fill="#60391f" d="M427.63 340.46l-27.59 8.62-28.6-9.62-1.92-23.62h61.04l-2.93 24.62z"/><path d="M502.88 368.63l-2.47-30.36c-1.19-11.87-11.83-22.25-23.72-23.14l-37.14-2.71c-4.07-.45-20.52-.09-39.55.53-19-.62-35.48-1-39.55-.53l-37.14 2.71c-11.89.89-22.53 11.27-23.72 23.14l-2.47 30.36a20.15 20.15 0 005 15.74 19.92 19.92 0 001.69 1.64v66.36c0 12.81 9.32 23.22 20.78 23.22a19.8 19.8 0 0015.21-7.42V490a12.23 12.23 0 007.74 11.36v68h-5.93c-10.93 0-19.83 5.8-19.83 17.11 0 8.06 0 17 11.72 19.7v1.6a1.38 1.38 0 001.38 1.38h1.63a1.38 1.38 0 001.38-1.37v-.95c1.16.09 2.39.15 3.73.15h1.89v.8a1.38 1.38 0 001.38 1.38h1.63a1.38 1.38 0 001.38-1.37v-.8h5.62v.8a1.38 1.38 0 001.38 1.38h1.63a1.38 1.38 0 001.38-1.37v-.8h5.62v.8a1.38 1.38 0 001.38 1.38h1.63a1.38 1.38 0 001.38-1.37v-.8h5.62v.8a1.38 1.38 0 001.38 1.38h1.63a1.38 1.38 0 001.38-1.37v-.8h5.62v.8a1.38 1.38 0 001.38 1.38h1.63a1.38 1.38 0 001.38-1.37v-.8h5.62v.8a1.38 1.38 0 001.38 1.38h1.63a1.38 1.38 0 001.38-1.37v-.81l.06-55.45v-49.35h4v49.21l.06 54.67v1.6a1.38 1.38 0 001.38 1.38h1.63a1.38 1.38 0 001.38-1.37v-.8h5.62v.8a1.38 1.38 0 001.38 1.38h1.63a1.38 1.38 0 001.38-1.37v-.8h5.62v.8a1.38 1.38 0 001.38 1.38h1.63a1.38 1.38 0 001.38-1.37v-.8h5.62v.8a1.38 1.38 0 001.38 1.38h1.63a1.38 1.38 0 001.38-1.37v-.8h5.62v.8a1.38 1.38 0 001.38 1.38h1.63a1.38 1.38 0 001.38-1.37v-.8h5.62v.8a1.38 1.38 0 001.38 1.38h1.63a1.38 1.38 0 001.38-1.37v-.8h1.89c1.33 0 2.57-.05 3.72-.15v.95a1.38 1.38 0 001.38 1.38h1.63a1.38 1.38 0 001.38-1.37v-1.6c11.71-2.68 11.72-11.64 11.72-19.7 0-11.3-8.89-17.11-19.83-17.11h-5.93v-68a12.23 12.23 0 007.69-11.37v-21.83a19.8 19.8 0 0015.21 7.42c11.46 0 20.78-10.42 20.78-23.22V386a19.92 19.92 0 001.69-1.64 20.15 20.15 0 005.04-15.73zm-130.49-46.18c3.46 1.84 15.64 2.07 27.61 1.79 12 .28 24.15 0 27.61-1.79v11.78c0 4.8-22.42 12-27.23 12l-.38-.08-.38.08c-4.8 0-27.23-7.19-27.23-12zm-33 75.43v55c0 9.5-6.63 17.22-14.78 17.22s-14.78-7.73-14.78-17.22V390.1a21.08 21.08 0 007.47 1.36h22.09zm52.9 203.42h-50.64c-14.22 0-14.22-5-14.22-14.89 0-8.21 6.38-11.5 14.22-11.5h11.67l38.93-2.69.06 15.37zm-38.74-76.4h38.67v41.7l-38.67 2.68h-.26V524.9zm-.26-5.74v-17h38.94v16.92h-38.91zm104.77 55.75h.26c7.84 0 14.22 3.29 14.22 11.5 0 9.91 0 14.89-14.22 14.89h-50.64v-13.7l.06-15.37 38.93 2.69h11.42zm-11.67-50h.26v44.4h-.26l-38.67-2.68V524.9zm-38.67-5.74v-16.94h38.98v17h-38.95zm46.84-73.77h-.07V490a6.6 6.6 0 01-6.58 6.58h-44.94s-.11-3.73-.16-8.75v-2.79c0-3.51-1.41-5.09-2.82-5-1.41-.09-2.82 1.49-2.82 5v2.79c0 5-.16 8.75-.16 8.75h-44.94a6.6 6.6 0 01-6.58-6.58v-44.62h-.07v-.33l30.24.33h48.69l30.24-.33zm35.57 7.51c0 9.5-6.63 17.22-14.78 17.22s-14.78-7.73-14.78-17.22v-61.45h22.09a21.08 21.08 0 007.47-1.36zm6-77.21a13.53 13.53 0 01-6 7.29 14.69 14.69 0 01-7.47 2l-22.09.09v-20.16c0-5.56-6.07-5.94-6.07 0s.07 14.37.07 14.37v59.59H345.41v-59.61s.07-8.46.07-14.37-6.07-5.54-6.07 0V385l-22.09-.09a14.69 14.69 0 01-7.47-2 13.53 13.53 0 01-6-7.29 14.89 14.89 0 01-.75-6.46l2.47-30.36c.89-9 9.23-17.08 18.2-17.75l11.12-.83 32.2-2.22c.68.54.48 17.49.48 17.49 0 8.43 23.34 15.29 31.77 15.29h1.3c8.43 0 31.77-6.86 31.77-15.29 0 0-.2-16.95.48-17.49l32.22 2.29 11.12.83c9 .67 17.3 8.8 18.2 17.75l2.47 30.36a14.89 14.89 0 01-.75 6.45z" id="border"/><g id="head"><path id="skin-2" data-name="skin" class="cls-1" d="M446.38 253.3c0-.91.08-1.81.08-2.73 0-30.51-21.06-55.25-47-55.25s-47 24.74-47 55.25c0 1.11 0 2.21.1 3.31-4 2.46-6.9 8.44-6.9 15.43 0 9.19 4.93 16.64 11 16.64a7.47 7.47 0 002.1-.31c.82 24.5 18.74 44.08 40.73 44.08s40.12-19.81 40.74-44.5a7.65 7.65 0 003.25.74c6.08 0 11-7.45 11-16.64-.05-7.64-3.48-14.06-8.1-16.02z"/><path id="border-2" data-name="border" d="M446.38 253.3c0-.91.08-1.81.08-2.73 0-30.51-21.06-55.25-47-55.25s-47 24.74-47 55.25c0 1.11 0 2.21.1 3.31-4 2.46-6.9 8.44-6.9 15.43 0 9.19 4.93 16.64 11 16.64a7.47 7.47 0 002.1-.31c.82 24.5 18.74 44.08 40.73 44.08s40.12-19.81 40.74-44.5a7.65 7.65 0 003.25.74c6.08 0 11-7.45 11-16.64-.05-7.64-3.48-14.06-8.1-16.02z" fill="none" stroke="#231f20" stroke-linecap="round" stroke-linejoin="round" stroke-width="6"/><path class="cls-9" d="M445.6 222.63c-.5-5.25-6.6-12.63-6.6-12.63-1.39-7-9.21-9.12-9.21-9.12-2-5.62-10.34-6.5-10.34-6.5-2.4-4.5-9.08-3.12-9.08-3.12-2.9-4.37-10.84-1.87-10.84-1.87s-7.94-2.5-10.84 1.88c0 0-6.68-1.37-9.08 3.13 0 0-8.32.88-10.34 6.5 0 0-7.82 2.13-9.21 9.13 0 0-6.05 7.38-6.56 12.63 0 0-5.25 12.88-.67 19.88 0 0 12.56-10 13.24-15s1.94-5.87 2.06-7.25 31.4-1.12 31.4-1.12 31.27-.25 31.4 1.13 1.39 2.25 2.06 7.25 13.24 15 13.24 15c4.63-7.05-.63-19.92-.63-19.92z"/></g><g id="over-border-details"><g id="collars"><g id="shirt-collars"><path class="cls-6" d="M380.69 340.06l-8.52 8.72s-13.48-4.45-12.37-19.86.31-12.55.31-12.55l8 .36z"/><path class="cls-3" d="M364.86 317.54s-1.18 12.69-.68 15.06 3.12 9.95 9.87 13.41l-3 1.68s-9.84-3-10.15-15.49.56-15 .56-15z"/><path class="cls-9" d="M372.17 351.08a2.3 2.3 0 01-.72-.12c-.15 0-15.17-5.21-13.95-22.22.52-7.2.6-10.12.58-11.29a2.31 2.31 0 01-.19-1.72 2.41 2.41 0 012.74-1.86 2.64 2.64 0 01.73.23l6.88.31a2.31 2.31 0 011.93 1.21L382.72 339a2.31 2.31 0 01-.38 2.71l-8.52 8.72a2.31 2.31 0 01-1.65.65zm-9.49-32.29c-.05 2.19-.25 5.65-.58 10.29-.41 5.66 1.29 10.33 5 13.86a18.58 18.58 0 004.47 3.09l6.23-6.38L366.72 319z"/></g><g id="shirt-collars-2" data-name="shirt-collars"><path class="cls-6" d="M419.31 340.06l8.52 8.72s13.48-4.45 12.37-19.86-.31-12.55-.31-12.55l-8 .36z"/><path class="cls-3" d="M435.14 317.54s1.18 12.69.68 15.06-3.12 9.95-9.87 13.41l3 1.68s9.84-3 10.15-15.49-.56-15-.56-15z"/><path class="cls-9" d="M426.18 350.39l-8.52-8.72a2.31 2.31 0 01-.38-2.71l12.56-23.33a2.31 2.31 0 011.93-1.21l6.88-.31a2.64 2.64 0 01.73-.23 2.41 2.41 0 012.74 1.86 2.31 2.31 0 01-.19 1.72c0 1.16.07 4.08.58 11.29 1.23 17-13.8 22.17-13.95 22.22a2.31 2.31 0 01-2.37-.58zm7.1-31.41l-11.14 20.68 6.23 6.38a18.58 18.58 0 004.47-3.09c3.76-3.53 5.46-8.2 5-13.86-.33-4.64-.53-8.1-.58-10.29z"/></g></g></g></svg>