<svg id="player" xmlns="http://www.w3.org/2000/svg" viewBox="0 0 800 800"><defs><style>.cls-1{fill:#d6a787}.cls-2{fill:#333}.cls-3{fill:#e5d32c}.cls-4{fill:#266db6}.cls-5{fill:#fff}.cls-6{fill:#20649f}</style></defs><g id="skin"><path id="arm-left" class="cls-1" d="M305.93 382h36.78v72.4a18.39 18.39 0 01-18.39 18.39 18.39 18.39 0 01-18.39-18.39V382z"/><path id="arm-right" class="cls-1" d="M457.19 382H494v72.4a18.39 18.39 0 01-18.39 18.39 18.39 18.39 0 01-18.39-18.39V382h-.03z"/><path id="leg-left" class="cls-1" d="M349.88 492.02h45.67v45.67h-45.67z"/><path id="leg-right" class="cls-1" d="M404.78 492.02h45.67v45.67h-45.67z"/></g><g id="boots"><path id="left" class="cls-2" d="M395.33 570.04H372.5l-22.83 1.97h-12.5l-7.5 2.53-5.25 8.5v9.83l1.91 4.17 3.84 4.05 6.33 1.95h58.83v-33z"/><path id="right" class="cls-2" d="M404.61 570.27h22.83l22.83 1.97h12.5l7.5 2.53 5.25 8.5v9.83l-1.91 4.17-3.84 4.05-6.33 1.95h-58.83v-33z"/><g id="details"><path id="left-2" data-name="left" class="cls-3" d="M356.13 578.41c4.17-3.61 7-6.4 7-6.4-42.74 3.64-38.64 18.61-38.64 18.61 1.77 6.43 9.12 3.93 16.95-1a3 3 0 014.28 1.17c2.61 5.17 8.7 11.45 22.9 12.24l15-.62s1.25-16.47-25.78-18.68a3 3 0 01-1.71-5.32z"/><path id="right-2" data-name="right" class="cls-3" d="M443.81 578.41c-4.17-3.61-7-6.4-7-6.4 42.74 3.64 38.64 18.61 38.64 18.61-1.77 6.43-9.12 3.93-16.95-1a3 3 0 00-4.28 1.17c-2.61 5.17-8.7 11.45-22.9 12.24l-15-.62s-1.25-16.47 25.78-18.68a3 3 0 001.71-5.32z"/></g></g><g id="socks"><g id="socks-2" data-name="socks"><path id="left-3" data-name="left" class="cls-4" d="M349.88 522h45.67v48.04h-45.67z"/><path id="right-3" data-name="right" class="cls-4" d="M404.38 522h45.67v48.04h-45.67z"/></g></g><g id="shorts"><path id="shorts-2" data-name="shorts" class="cls-5" d="M341.67 442.54h116.49v47a9.95 9.95 0 01-9.95 9.95h-96.6a9.95 9.95 0 01-9.95-9.95v-47h.01z"/></g><g id="shirt"><path id="shirt-2" data-name="shirt" class="cls-4" d="M369.5 314.8l-48.29 2.99-11.36 6.25-6.83 10.1-3.31 40.73 5.17 7.67 7.66 4.67h29.5l.17 54h114.83v-53.5l29.34-.17 7.01-4 6.99-10.5-3.4-37.33-6.83-11.84-9.77-6.08-49.84-2.99-1 21.24-6.5 6.5-11.16 3.48-11.88 2.02-15.46-3.17-11-5.66-3.66-3.84-.38-20.57z"/><g id="details-2" data-name="details"><path id="chest-l" class="cls-6" d="M351.24 443.5a2 2 0 01-2-2c0-.64-.67-64.18-.67-78.85 0-15.72 18.63-28.42 19.43-29a2 2 0 012.23 3.32c-.18.12-17.66 12.05-17.66 25.63 0 14.65.66 78.17.67 78.81a2 2 0 01-2 2z"/><path id="chest-r" class="cls-6" d="M447.76 443.5a2 2 0 002-2c0-.64.67-64.18.67-78.85 0-15.72-18.63-28.42-19.43-29a2 2 0 00-2.23 3.32c.18.12 17.66 12.05 17.66 25.63 0 14.65-.66 78.17-.67 78.81a2 2 0 002 2z"/><path id="brand-kappa-l" class="cls-5" d="M312.54 338.67l-1.66-2.61a2.25 2.25 0 00-1.6-2.53 1.76 1.76 0 01-2.64-.49 2.25 2.25 0 00-2.4 1.78l-2.49 1.83a2 2 0 00-.57 2.33 1.22 1.22 0 001.9.52l.39-.29a2.18 2.18 0 001.61 2.22 1.76 1.76 0 012.64.49 2.18 2.18 0 002.3-1.49l.26.41a1.22 1.22 0 002 .2 2 2 0 00.26-2.37z"/><path id="brand-kappa-r" class="cls-5" d="M487.46 338.67l1.66-2.61a2.25 2.25 0 011.6-2.53 1.76 1.76 0 002.64-.49 2.25 2.25 0 012.4 1.78l2.49 1.83a2 2 0 01.57 2.33 1.22 1.22 0 01-1.9.52l-.39-.29a2.18 2.18 0 01-1.61 2.22 1.76 1.76 0 00-2.64.49 2.18 2.18 0 01-2.3-1.49l-.26.41a1.22 1.22 0 01-2 .2 2 2 0 01-.26-2.37z"/><g id="crest-italy-02"><path class="cls-2" d="M433.58 373.06l-3.28 2.25a1.63 1.63 0 01-1.84 0l-3.28-2.25a4 4 0 01-1.74-3.31v-8.37a1.31 1.31 0 011.31-1.31H434a1.31 1.31 0 011.31 1.31v8.37a4 4 0 01-1.73 3.31z"/><path class="cls-3" d="M434 360.07a1.31 1.31 0 011.31 1.31v8.37a4 4 0 01-1.74 3.31l-3.28 2.25a1.63 1.63 0 01-1.84 0l-3.28-2.25a4 4 0 01-1.74-3.31v-8.37a1.31 1.31 0 011.31-1.31H434m0-.68h-9.27a2 2 0 00-2 2v8.37a4.69 4.69 0 002 3.87l3.28 2.25a2.31 2.31 0 002.61 0l3.28-2.25a4.69 4.69 0 002-3.87v-8.37a2 2 0 00-2-2z"/><path d="M431.36 364.93v9.65l2.22-1.52a4 4 0 001.74-3.31v-4.82z" fill="#e01f26"/><path d="M423.43 364.93v4.82a4 4 0 001.74 3.31l2.22 1.52v-9.65z" fill="#009d5c"/><path class="cls-5" d="M427.4 364.93v9.65l1.06.73a1.63 1.63 0 001.84 0l1.06-.73v-9.65z"/><rect class="cls-3" x="424.62" y="361.7" width="9.51" height="1.78" rx=".89" ry=".89"/></g><path class="cls-5" d="M397.31 407.12h-8.82a1.77 1.77 0 01-1.53-1.94 2.31 2.31 0 01.69-1.69c5.69-5.17 7.52-7.22 7.52-9.42a2.35 2.35 0 00-2.47-2.45 4.76 4.76 0 00-3.13 1.15 1.38 1.38 0 01-.94.37 1.65 1.65 0 01-1.42-1.8 1.72 1.72 0 01.21-.81c.73-1.43 3.29-2.45 5.21-2.45a5.64 5.64 0 015.83 6c0 3.2-2.15 6-6.1 9.53h5a1.6 1.6 0 011.39 1.71 1.64 1.64 0 01-1.44 1.8zm8.69.17a1.84 1.84 0 01-1.6-2v-11.8l-1.71 2.16a1.14 1.14 0 01-.89.45 1.55 1.55 0 01-1.35-1.66 1.87 1.87 0 01.41-1.18l3.52-4.38a1.78 1.78 0 011.37-.68 2.12 2.12 0 011.9 2.28v14.81a1.84 1.84 0 01-1.65 2z"/></g></g><path id="neck" fill="#aa866d" d="M427.63 340.26l-27.59 8.62-28.6-9.62-1.92-23.62h61.04l-2.93 24.62z"/><path d="M502.88 368.43l-2.47-30.36c-1.19-11.87-11.83-22.25-23.72-23.14l-37.14-2.71c-4.07-.45-20.52-.09-39.55.53-19-.62-35.48-1-39.55-.53l-37.14 2.71c-11.89.89-22.53 11.27-23.72 23.14l-2.47 30.36a20.15 20.15 0 005 15.74 19.92 19.92 0 001.69 1.64v66.36c0 12.81 9.32 23.22 20.78 23.22a19.8 19.8 0 0015.25-7.39v21.79a12.23 12.23 0 007.74 11.36v68h-5.93c-10.93 0-19.83 5.8-19.83 17.11 0 8.06 0 17 11.72 19.7v1.6a1.38 1.38 0 001.38 1.38h1.63a1.38 1.38 0 001.38-1.37v-.95c1.16.09 2.39.15 3.73.15h1.89v.8a1.38 1.38 0 001.38 1.38h1.63a1.38 1.38 0 001.38-1.37v-.8h5.62v.8a1.38 1.38 0 001.38 1.38h1.63a1.38 1.38 0 001.38-1.37v-.8h5.62v.8a1.38 1.38 0 001.38 1.38h1.63a1.38 1.38 0 001.38-1.37v-.8h5.62v.8a1.38 1.38 0 001.38 1.38h1.63a1.38 1.38 0 001.38-1.37v-.8h5.62v.8a1.38 1.38 0 001.38 1.38h1.63a1.38 1.38 0 001.38-1.37v-.8h5.62v.8a1.38 1.38 0 001.38 1.38h1.63a1.38 1.38 0 001.38-1.37v-.81l.06-55.45V502h4v49.21l.06 54.67v1.6a1.38 1.38 0 001.38 1.38h1.63a1.38 1.38 0 001.38-1.37v-.8h5.62v.8a1.38 1.38 0 001.38 1.38h1.63a1.38 1.38 0 001.38-1.37v-.8h5.62v.8a1.38 1.38 0 001.38 1.38h1.63a1.38 1.38 0 001.38-1.37v-.8h5.62v.8a1.38 1.38 0 001.38 1.38h1.63a1.38 1.38 0 001.38-1.37v-.8h5.62v.8a1.38 1.38 0 001.38 1.38h1.63a1.38 1.38 0 001.38-1.37v-.8h5.62v.8a1.38 1.38 0 001.38 1.38h1.63a1.38 1.38 0 001.38-1.37v-.8h1.89c1.33 0 2.57-.05 3.72-.15v.95a1.38 1.38 0 001.38 1.38h1.63a1.38 1.38 0 001.38-1.37v-1.6c11.71-2.68 11.72-11.64 11.72-19.7 0-11.3-8.89-17.11-19.83-17.11h-5.93v-68a12.23 12.23 0 007.74-11.36V468a19.8 19.8 0 0015.21 7.42c11.46 0 20.78-10.42 20.78-23.22v-66.39a19.92 19.92 0 001.69-1.64 20.15 20.15 0 004.95-15.74zm-130.49-46.18c3.46 1.84 15.64 2.07 27.61 1.79 12 .28 24.15 0 27.61-1.79V334c0 4.8-22.42 12-27.23 12l-.38-.08-.38.08c-4.8 0-27.23-7.19-27.23-12zm-33 75.43v55c0 9.5-6.63 17.22-14.78 17.22s-14.78-7.73-14.78-17.22V389.9a21.08 21.08 0 007.47 1.36h22.09zm52.9 203.42h-50.64c-14.22 0-14.22-5-14.22-14.89 0-8.21 6.38-11.5 14.22-11.5h11.67l38.93-2.71.06 15.37zm-38.74-76.4h38.67v41.7l-38.67 2.68h-.26V524.7zm-.26-5.74V502h38.94v17h-38.91zm104.77 55.75h.26c7.84 0 14.22 3.29 14.22 11.5 0 9.91 0 14.89-14.22 14.89h-50.64v-13.7l.06-15.37 38.93 2.69h11.42zm-11.67-50h.26v44.4h-.26l-38.67-2.68V524.7zM407.75 519v-17h38.95v17h-38.95zm46.84-73.77h-.07v44.58a6.6 6.6 0 01-6.58 6.58H403s-.11-3.73-.16-8.75v-2.79c0-3.51-1.41-5.09-2.82-5-1.41-.09-2.82 1.49-2.82 5v2.79c0 5-.16 8.75-.16 8.75H352.1a6.6 6.6 0 01-6.58-6.58v-44.63h-.07v-.33l30.24.33h48.69l30.24-.33zm35.57 7.51c0 9.5-6.63 17.22-14.78 17.22s-14.78-7.73-14.78-17.22v-61.48h22.09a21.08 21.08 0 007.47-1.36zm6-77.21a13.53 13.53 0 01-6 7.29 14.69 14.69 0 01-7.47 2l-22.09.09v-20.19c0-5.56-6.07-5.94-6.07 0s.07 14.37.07 14.37v59.59H345.41v-59.61s.07-8.46.07-14.37-6.07-5.54-6.07 0v20.11l-22.09-.09a14.69 14.69 0 01-7.47-2 13.53 13.53 0 01-6-7.29 14.89 14.89 0 01-.75-6.46l2.47-30.36c.89-9 9.23-17.08 18.2-17.75l11.12-.83 32.22-2.29c.68.54.48 17.49.48 17.49 0 8.43 23.34 15.29 31.77 15.29h1.3c8.43 0 31.77-6.86 31.77-15.29 0 0-.2-16.95.48-17.49l32.22 2.29 11.12.83c9 .67 17.3 8.8 18.2 17.75L496.9 369a14.89 14.89 0 01-.75 6.48z" id="border"/><g id="head"><path d="M399.7 189.67s31.26 1.5 38.19 14.67 7.94 12 11.34 22.5c3.14 9.67-.53 20.68-3.74 26.85 0 0-7.6-7.35-8.45-12.68s-.31-19.33-1.86-19.33-25.35 1.66-35.49 1.66-33.94-1.66-35.49-1.66-1 14-1.86 19.33-8.45 12.68-8.45 12.68c-3.21-6.17-6.87-17.18-3.74-26.85 3.4-10.48 4.41-9.33 11.34-22.5s38.19-14.67 38.19-14.67m0-6h-.29c-3.55.17-34.93 2.12-43.21 17.87-2.48 4.71-4.16 7.5-5.5 9.74a53.07 53.07 0 00-6.22 13.72c-4.37 13.47 2.05 27.49 4.12 31.47a6 6 0 009.49 1.54c1.51-1.46 9.1-9.09 10.21-16.06a90.52 90.52 0 00.64-9.72c0-1.27.1-2.84.17-4.27h.56c8.45.51 22.59 1.35 30.06 1.35s21.61-.85 30.06-1.35h.56c.07 1.43.12 3 .17 4.27a90.52 90.52 0 00.64 9.72c1.1 7 8.7 14.6 10.21 16.06a6 6 0 009.49-1.54c2.07-4 8.49-18 4.12-31.47a53.07 53.07 0 00-6.23-13.71c-1.35-2.24-3-5-5.5-9.74-8.29-15.75-39.66-17.7-43.21-17.87z" fill="#231f20"/><path id="skin-2" data-name="skin" class="cls-1" d="M446.38 253.1c0-.91.08-1.81.08-2.73 0-30.51-21.06-55.25-47-55.25s-47 24.74-47 55.25c0 1.11 0 2.21.1 3.31-4 2.46-6.9 8.44-6.9 15.43 0 9.19 4.93 16.64 11 16.64a7.47 7.47 0 002.1-.31c.82 24.5 18.74 44.08 40.73 44.08s40.12-19.81 40.74-44.5a7.65 7.65 0 003.25.74c6.08 0 11-7.45 11-16.64-.05-7.65-3.48-14.06-8.1-16.02z"/><path id="border-2" data-name="border" d="M446.38 253.1c0-.91.08-1.81.08-2.73 0-30.51-21.06-55.25-47-55.25s-47 24.74-47 55.25c0 1.11 0 2.21.1 3.31-4 2.46-6.9 8.44-6.9 15.43 0 9.19 4.93 16.64 11 16.64a7.47 7.47 0 002.1-.31c.82 24.5 18.74 44.08 40.73 44.08s40.12-19.81 40.74-44.5a7.65 7.65 0 003.25.74c6.08 0 11-7.45 11-16.64-.05-7.65-3.48-14.06-8.1-16.02z" fill="none" stroke="#231f20" stroke-linecap="round" stroke-linejoin="round" stroke-width="6"/><path d="M449.23 226.83c-3.4-10.48-4.41-9.33-11.34-22.5s-38.19-14.67-38.19-14.67-31.26 1.5-38.19 14.67-7.94 12-11.34 22.5c-3.14 9.67.53 20.68 3.74 26.85 0 0 7.6-7.35 8.45-12.68s.31-19.33 1.86-19.33 25.35 1.66 35.49 1.66 33.94-1.66 35.49-1.66 1 14 1.86 19.33 8.45 12.68 8.45 12.68c3.19-6.17 6.85-17.18 3.72-26.85z" fill="#2d1c0f"/><path d="M417 295.62l-17-.3-17 .3c-3 .13-22.5-11.5-22.5-11.5V297l16.63 25.75 22.87 7.71v-.37l.08.37 22.83-7.71L439.54 297v-12.88S420 295.75 417 295.62zm-17 24.52c-11.46 1-13.33-8.23-13.33-8.23-.46-8.33 13.33-7.17 13.33-7.17 9.21.17 11.54 4.79 11.59 6s-.09 8.38-11.59 9.4z" opacity=".03" fill="#231f20"/></g></svg>