<svg id="player" xmlns="http://www.w3.org/2000/svg" viewBox="0 0 800 800"><defs><style>.cls-1{fill:#936944}.cls-2{fill:#2d2d2d}.cls-3{fill:#fff}.cls-4{fill:#024f9e}.cls-5{fill:#fedf00}.cls-6{fill:#086835}.cls-11{fill:#231f20}</style></defs><g id="skin"><path id="arm-left" class="cls-1" d="M305.93 388h36.78v72.38a18.39 18.39 0 01-18.39 18.39 18.39 18.39 0 01-18.39-18.39V388z"/><path id="arm-right" class="cls-1" d="M457.19 388H494v72.38a18.39 18.39 0 01-18.39 18.39 18.39 18.39 0 01-18.39-18.39V388h-.03z"/><path id="leg-left" class="cls-1" d="M349.88 497.99h45.67v45.67h-45.67z"/><path id="leg-right" class="cls-1" d="M404.78 497.99h45.67v45.67h-45.67z"/></g><g id="boots"><path id="left" class="cls-2" d="M395.54 564.09h-22.83l-22.83 1.97h-12.5l-7.5 2.53-5.25 8.5v9.83l1.91 4.17 3.84 4.05 6.33 1.95h58.83v-33z"/><path id="right" class="cls-2" d="M404.67 564.09h22.83l22.83 1.97h12.5l7.5 2.53 5.25 8.5v9.83l-1.91 4.17-3.84 4.05-6.33 1.95h-58.83v-33z"/><path class="cls-3" d="M395.54 573.75s-45.4.53-69 15.29a7.49 7.49 0 005 4.4c3.72.88 64.51-8.19 64-13.15s0-6.54 0-6.54zm9.24 0s45.4.53 69 15.29a7.49 7.49 0 01-5 4.4c-3.72.88-64.51-8.19-64-13.15s0-6.54 0-6.54z" id="details"/></g><g id="socks"><path id="left-2" data-name="left" class="cls-3" d="M349.88 516.91h45.67v48.04h-45.67z"/><path id="right-2" data-name="right" class="cls-3" d="M404.38 516.91h45.67v48.04h-45.67z"/></g><path id="shorts" class="cls-4" d="M341.67 447.77h116.49v45.55a9.8 9.8 0 01-9.8 9.8h-96.88a9.8 9.8 0 01-9.8-9.8v-45.55h-.01z"/><g id="shirt"><path id="shirt-2" data-name="shirt" class="cls-5" d="M369.5 320.77l-48.29 2.99-11.36 6.25-6.83 10.1-3.31 40.73 5.17 7.67 7.66 4.66h29.5l.17 54h114.83v-53.5l29.34-.16 7.01-4 6.99-10.5-3.4-37.34-6.83-11.83-9.77-6.08-49.84-2.99-1 21.24-6.5 6.5-11.16 3.48-11.88 2.02-15.46-3.17-11-5.67-3.66-3.83-.38-20.57z"/><g id="details-2" data-name="details"><path class="cls-6" d="M435.17 348.51l-7.51-4.13L400 354l-5 8.07a1.52 1.52 0 00.94 2.28 17.54 17.54 0 004.13.59c10.72 0 35.1-16.43 35.1-16.43zm-62.74-4.13l-7.51 4.13s14.09 9.5 25.58 14a2.27 2.27 0 002.79-.94l4.94-8.24z" id="neck"/><path id="arm-l" class="cls-6" d="M301.5 380.04h41.21v2.59H301.5z"/><path d="M407.75 394.29a27.71 27.71 0 00-6.09.68 30.43 30.43 0 10-21.46 24.66c-.06.76-.1 1.53-.1 2.31a27.64 27.64 0 1027.64-27.64z" fill="#fec20f" opacity=".52"/><path id="arm-r" class="cls-6" d="M458.27 380.04h41.21v2.59h-41.21z"/><rect id="brand-umbro-classic" class="cls-6" x="355.57" y="374.12" width="22.59" height="7.21" rx="3.6" ry="3.6"/><g id="crest-brazil-94"><path d="M441.33 391.37a1.12 1.12 0 01-1.16 1.06h-8.39a1.07 1.07 0 110-2.12h8.39a1.12 1.12 0 011.16 1.06z" fill="#009d5c"/><ellipse class="cls-6" cx="430.36" cy="365.16" rx="1.45" ry="1.5"/><ellipse class="cls-6" cx="435.92" cy="363.55" rx="1.45" ry="1.5"/><ellipse class="cls-6" cx="441.59" cy="365.16" rx="1.45" ry="1.5"/><path class="cls-4" d="M438.83 366.72c-.49-.5-2.85-.56-2.85-.56s-2.36.06-2.85.56c-2.21 2.28-4.63 2.14-5.43 3.75a2.27 2.27 0 00-.2 1.23l1.15 12.38a2.93 2.93 0 001.81 2.71l2.75.89 2.77 1.11 2.77-1.11 2.75-.89a2.93 2.93 0 001.81-2.71l1.15-12.38a2.27 2.27 0 00-.2-1.23c-.81-1.61-3.26-1.47-5.43-3.75z"/><rect class="cls-6" x="435.11" y="368.77" width="1.73" height="17.4" rx=".68" ry=".68"/><rect class="cls-6" x="429.68" y="375.42" width="12.51" height="1.73" rx=".68" ry=".68"/><path class="cls-5" d="M436 386.78a.48.48 0 01-.18 0l-2.16-.86-2.11-.69a2.76 2.76 0 01-1.71-2.54l-.9-9.63a2.26 2.26 0 01.21-1.22 3.54 3.54 0 011.93-1.49 7.28 7.28 0 002.39-1.56 6 6 0 015.14 0 7.27 7.27 0 002.39 1.56 3.54 3.54 0 011.93 1.49 2.26 2.26 0 01.21 1.22l-.9 9.63a2.76 2.76 0 01-1.71 2.54l-2.14.7-2.13.85a.48.48 0 01-.26 0zm-4.13-2.5l2.13.72 2 .8 2-.79 2.15-.7a1.79 1.79 0 001.09-1.65l.9-9.65a1.29 1.29 0 00-.11-.69c-.23-.47-.75-.71-1.46-1a8.21 8.21 0 01-2.68-1.76 5.43 5.43 0 00-1.89-.29 5.31 5.31 0 00-1.87.3 8.18 8.18 0 01-2.68 1.76c-.71.33-1.23.56-1.46 1a1.3 1.3 0 00-.11.69l.9 9.65a1.79 1.79 0 001.06 1.6zm6-14.83zm0 0z"/><path class="cls-3" d="M439.06 374.86l-2 .37.37-2a.63.63 0 00-.62-.74h-1.61a.63.63 0 00-.62.74l.37 2-2-.37a.63.63 0 00-.74.62v1.61a.63.63 0 00.74.62l2-.37-.37 2a.63.63 0 00.62.74h1.61a.63.63 0 00.62-.74l-.37-2 2 .37a.63.63 0 00.74-.62v-1.61a.63.63 0 00-.74-.62z"/></g><path class="cls-6" d="M396.06 413a2.28 2.28 0 01-2.25-2.25v-13.48l-2.41 2.47a1.75 1.75 0 01-1.25.51 1.88 1.88 0 01-1.32-3.24l4.94-5a2.74 2.74 0 011.93-.77 2.64 2.64 0 012.66 2.6v16.92a2.29 2.29 0 01-2.3 2.24zm13.2 0a2.28 2.28 0 01-2.25-2.25v-13.48l-2.41 2.47a1.75 1.75 0 01-1.25.51A1.88 1.88 0 01402 397l4.94-5a2.74 2.74 0 011.93-.77 2.64 2.64 0 012.66 2.6v16.92a2.29 2.29 0 01-2.27 2.25z"/></g></g><path id="neck-2" data-name="neck" fill="#77553a" d="M430.54 343.75l-31.19 12.79-29.85-12.79v-22.98h61.04v22.98z"/><path d="M502.88 374.39L500.41 344c-1.19-11.87-11.83-22.25-23.72-23.14l-37.14-2.71c-4.07-.45-20.52-.09-39.55.53-19-.62-35.48-1-39.55-.53l-37.14 2.71c-11.89.89-22.53 11.27-23.72 23.14l-2.47 30.36a20.15 20.15 0 005 15.74 19.92 19.92 0 001.69 1.64v66.36c0 12.81 9.32 23.22 20.78 23.22a19.8 19.8 0 0015.21-7.42v19.57a12.23 12.23 0 007.74 11.36v58.26h-5.93c-10.93 0-19.83 5.8-19.83 17.11 0 8.06 0 17 11.72 19.7v1.6a1.38 1.38 0 001.38 1.38h1.63a1.38 1.38 0 001.38-1.37v-.95c1.16.09 2.39.15 3.73.15h1.89v.8a1.38 1.38 0 001.38 1.38h1.63a1.38 1.38 0 001.38-1.37v-.8h5.62v.8a1.38 1.38 0 001.38 1.38h1.63a1.38 1.38 0 001.38-1.37v-.8h5.62v.8a1.38 1.38 0 001.38 1.38h1.63a1.38 1.38 0 001.38-1.37v-.8h5.62v.8a1.38 1.38 0 001.38 1.38h1.63a1.38 1.38 0 001.38-1.37v-.8h5.62v.8a1.38 1.38 0 001.38 1.38h1.63a1.38 1.38 0 001.38-1.37v-.8h5.62v.8a1.38 1.38 0 001.38 1.38h1.63a1.38 1.38 0 001.38-1.37v-.81l.06-55.45v-39.53h4v39.49l.06 54.67v1.6a1.38 1.38 0 001.38 1.38h1.63a1.38 1.38 0 001.38-1.37v-.8h5.62v.8a1.38 1.38 0 001.38 1.38h1.63a1.38 1.38 0 001.38-1.37v-.8h5.62v.8a1.38 1.38 0 001.38 1.38h1.63a1.38 1.38 0 001.38-1.37v-.8h5.62v.8a1.38 1.38 0 001.38 1.38h1.63a1.38 1.38 0 001.38-1.37v-.8h5.62v.8a1.38 1.38 0 001.38 1.38h1.63a1.38 1.38 0 001.38-1.37v-.8h5.62v.8a1.38 1.38 0 001.38 1.38h1.63a1.38 1.38 0 001.38-1.37v-.8h1.89c1.33 0 2.57-.05 3.72-.15v.95a1.38 1.38 0 001.38 1.38h1.63a1.38 1.38 0 001.38-1.37v-1.6c11.71-2.68 11.72-11.64 11.72-19.7 0-11.3-8.89-17.11-19.83-17.11h-5.93v-58.33a12.23 12.23 0 007.74-11.36v-19.57a19.8 19.8 0 0015.21 7.42c11.46 0 20.78-10.42 20.78-23.22v-66.36a19.92 19.92 0 001.69-1.64 20.15 20.15 0 004.99-15.75zm-130.49-46.17c3.46 1.84 15.64 2.07 27.61 1.79 12 .28 24.15 0 27.61-1.79V340c0 4.8-22.42 12-27.23 12l-.38-.08-.38.08c-4.8 0-27.23-7.19-27.23-12zm-33 75.43v55c0 9.5-6.63 17.22-14.78 17.22s-14.78-7.73-14.78-17.22v-62.78a21.08 21.08 0 007.47 1.36h22.09zm52.9 191.48h-50.64c-14.22 0-14.22-5-14.22-14.89 0-8.21 6.38-11.5 14.22-11.5h11.67l38.93-2.74.06 15.37zm-38.74-76.4h38.67v41.71l-38.67 2.68h-.26v-44.4zm-.26-5.74v-7.26h38.94V513h-38.91zm104.77 55.75h.26c7.84 0 14.22 3.29 14.22 11.5 0 9.91 0 14.89-14.22 14.89h-50.64v-13.7l.06-15.37 38.93 2.69h11.42zm-11.67-50h.26v44.4h-.26l-38.67-2.68v-41.73zM407.75 513v-7.21h38.95V513h-38.95zm46.84-61.84h-.07v42.35a6.6 6.6 0 01-6.58 6.58h-1.26L403 500s-.11-3.73-.16-8.75v-2.79c0-3.51-1.41-5.09-2.82-5-1.41-.09-2.82 1.49-2.82 5v2.79c0 5-.16 8.75-.16 8.75H352.1a6.6 6.6 0 01-6.58-6.58v-42.27h-.07v-.33l30.24.33h48.69l30.24-.33zm35.57 7.51c0 9.5-6.63 17.22-14.78 17.22s-14.78-7.73-14.78-17.22v-61.44h22.09a21.08 21.08 0 007.47-1.36zm6-77.21a13.53 13.53 0 01-6 7.29 14.69 14.69 0 01-7.47 2l-22.09.09v-20.15c0-5.56-6.07-5.94-6.07 0s.07 14.37.07 14.37v59.59H345.41V385s.07-8.46.07-14.37-6.07-5.54-6.07 0v20.17l-22.09-.09a14.69 14.69 0 01-7.47-2 13.53 13.53 0 01-6-7.29 14.89 14.89 0 01-.75-6.46l2.47-30.36c.89-9 9.23-17.08 18.2-17.75l11.12-.83 32.22-2.29c.68.54.48 17.49.48 17.49 0 8.43 23.34 15.29 31.77 15.29h1.3c8.43 0 31.77-6.86 31.77-15.29 0 0-.2-16.95.48-17.49l32.22 2.29 11.12.83c9 .67 17.3 8.8 18.2 17.75l2.45 30.4a14.89 14.89 0 01-.75 6.45z" id="border"/><g id="head"><path id="skin-2" data-name="skin" class="cls-1" d="M446.38 259.07c0-.91.08-1.81.08-2.73 0-30.51-21.06-55.25-47-55.25s-47 24.74-47 55.25c0 1.11 0 2.21.1 3.31-4 2.46-6.9 8.44-6.9 15.43 0 9.19 4.93 16.64 11 16.64a7.47 7.47 0 002.1-.31c.82 24.5 18.74 44.08 40.73 44.08s40.12-19.81 40.74-44.5a7.65 7.65 0 003.25.74c6.08 0 11-7.45 11-16.64-.05-7.65-3.48-14.09-8.1-16.02z"/><path id="border-2" data-name="border" d="M446.38 259.07c0-.91.08-1.81.08-2.73 0-30.51-21.06-55.25-47-55.25s-47 24.74-47 55.25c0 1.11 0 2.21.1 3.31-4 2.46-6.9 8.44-6.9 15.43 0 9.19 4.93 16.64 11 16.64a7.47 7.47 0 002.1-.31c.82 24.5 18.74 44.08 40.73 44.08s40.12-19.81 40.74-44.5a7.65 7.65 0 003.25.74c6.08 0 11-7.45 11-16.64-.05-7.65-3.48-14.09-8.1-16.02z" fill="none" stroke="#231f20" stroke-linecap="round" stroke-linejoin="round" stroke-width="6"/><path class="cls-11" d="M446.17 229.17c-1.33-9.5-6.57-13.33-6.57-13.33-1.74-5.17-9.1-10.17-9.1-10.17-1.5-5.83-10.66-4.58-10.66-4.58-3-4.41-11.5-4.92-11.5-4.92-3.5-2.33-8.33-1.33-8.33-1.33s-4.83-1-8.33 1.33c0 0-8.5.51-11.5 4.92 0 0-9.16-1.25-10.66 4.58 0 0-7.36 5-9.1 10.17 0 0-5.24 3.83-6.57 13.33 0 0-4.61 10.47-4.39 14.48 0 0 .06 9.52 4.39 9.85 0 0 10.63-7.17 11.9-16.17s-.22-7 3.77-9.33 30.5-3.12 30.5-3.12 26.5.79 30.5 3.13 2.5.33 3.77 9.33 11.9 16.17 11.9 16.17c4.33-.33 4.39-9.85 4.39-9.85.2-4.03-4.41-14.49-4.41-14.49z"/></g><g id="over-border-details"><g id="shirt-collars"><path class="cls-6" d="M373.13 345.71l-8.45 5.29s-9.27-7.13-5-19.89 3.06-10.54 3.06-10.54l6 2.31z"/><path class="cls-5" d="M366.59 350.89a1 1 0 01-.85-.53c-.16-.3-4-7.34-4.56-11.15s3.77-15.69 4.27-17a1 1 0 011.3-.61 1.16 1.16 0 01.55 1.45c-1.78 4.84-4.48 13.43-4.14 15.85.39 2.8 3.23 8.4 4.29 10.33a1.18 1.18 0 01-.33 1.53.92.92 0 01-.53.13z"/><path class="cls-11" d="M364.16 352.92a1.75 1.75 0 01-.52-.28c-.1-.08-10.39-8.19-5.63-22.28 2-6 2.73-8.42 3-9.41a2.23 2.23 0 01.24-1.5 1.82 1.82 0 012.51-.89 2.1 2.1 0 01.5.37l5.17 2a2 2 0 011.2 1.51l4.33 22.88a2.12 2.12 0 01-.9 2.2l-8.45 5.25a1.67 1.67 0 01-1.45.15zm0-29.69c-.53 1.84-1.46 4.72-2.75 8.56a16 16 0 00.73 13 16.17 16.17 0 002.71 3.73l6.18-3.84-3.84-20.28z"/></g><g id="shirt-collars-2" data-name="shirt-collars"><path class="cls-6" d="M426.87 345.71l8.45 5.25s9.27-7.13 5-19.89-3.06-10.54-3.06-10.54l-6 2.31z"/><path class="cls-5" d="M433.41 350.89a1 1 0 00.85-.53c.16-.3 4-7.34 4.56-11.15s-3.77-15.69-4.27-17a1 1 0 00-1.3-.61 1.16 1.16 0 00-.55 1.45c1.78 4.84 4.48 13.43 4.14 15.85-.39 2.8-3.23 8.4-4.29 10.33a1.18 1.18 0 00.33 1.53.92.92 0 00.53.13z"/><path class="cls-11" d="M434.43 352.74l-8.43-5.25a2.12 2.12 0 01-.9-2.2l4.33-22.88a2 2 0 011.2-1.51l5.17-2a2.1 2.1 0 01.5-.37 1.82 1.82 0 012.51.89A2.23 2.23 0 01439 321c.25 1 1 3.44 3 9.41 4.75 14.09-5.53 22.2-5.63 22.28a1.75 1.75 0 01-.52.28 1.67 1.67 0 01-1.42-.23zm-1.65-28.36l-3.84 20.28 6.18 3.84a16.17 16.17 0 002.71-3.73 16 16 0 00.73-13c-1.3-3.84-2.22-6.72-2.75-8.56z"/></g></g></svg>