<svg id="player" xmlns="http://www.w3.org/2000/svg" viewBox="0 0 800 800"><defs><style>.cls-1{fill:#593320}.cls-2{fill:#771a19}.cls-3{fill:#fff}.cls-4{fill:#e11f26}.cls-5{fill:#1c1b1a}.cls-10{fill:#231f20}</style></defs><g id="skin"><path id="arm-left" class="cls-1" d="M305.93 382h36.78v72.4a18.39 18.39 0 01-18.39 18.39 18.39 18.39 0 01-18.39-18.39V382z"/><path id="arm-right" class="cls-1" d="M457.19 382H494v72.4a18.39 18.39 0 01-18.39 18.39 18.39 18.39 0 01-18.39-18.39V382h-.03z"/><path id="leg-left" class="cls-1" d="M349.88 492.02h45.67v45.67h-45.67z"/><path id="leg-right" class="cls-1" d="M404.78 492.02h45.67v45.67h-45.67z"/></g><g id="boots"><path id="left" class="cls-2" d="M395.33 570.04H372.5l-22.83 1.97h-12.5l-7.5 2.53-5.25 8.5v9.83l1.91 4.17 3.84 4.05 6.33 1.95h58.83v-33z"/><path id="right" class="cls-2" d="M404.61 570.27h22.83l22.83 1.97h12.5l7.5 2.53 5.25 8.5v9.83l-1.91 4.17-3.84 4.05-6.33 1.95h-58.83v-33z"/><path class="cls-3" d="M395.31 582.88s-13.83.15-24.09 4.81c-8.95-.13-28.66-1.87-29-14.81 0 0-10.25-1.62-15 6.5-3.76 6.37 22.67 14 34.25 17a13 13 0 00-1 6.93h13.75s21.96-3.81 21.09-20.43zm9.1 0s13.83.15 24.09 4.81c8.95-.13 28.66-1.87 29-14.81 0 0 10.25-1.62 15 6.5 3.76 6.37-22.67 14-34.25 17a13 13 0 011 6.93h-13.72s-22-3.81-21.12-20.43z" id="details"/></g><g id="socks"><g id="socks-2" data-name="socks"><path id="left-2" data-name="left" class="cls-3" d="M349.88 522h45.67v48.04h-45.67z"/><path id="right-2" data-name="right" class="cls-3" d="M404.38 522h45.67v48.04h-45.67z"/></g><path class="cls-4" d="M350.75 527.75h44.58v6h-44.58zm54.17 0h44.58v6h-44.58z" id="details-2" data-name="details"/></g><g id="shorts"><path id="shorts-2" data-name="shorts" class="cls-3" d="M341.67 442.54h116.49v47a9.95 9.95 0 01-9.95 9.95h-96.6a9.95 9.95 0 01-9.95-9.95v-47h.01z"/></g><g id="shirt"><path id="shirt-2" data-name="shirt" class="cls-4" d="M369.5 314.8l-48.29 2.99-11.36 6.25-6.83 10.1-3.31 40.73 5.17 7.67 7.66 4.67h29.5l.17 54h114.83v-53.5l29.34-.17 7.01-4 6.99-10.5-3.4-37.33-6.83-11.84-9.77-6.08-49.84-2.99-1 21.24-6.5 6.5-11.16 3.48-11.88 2.02-15.46-3.17-11-5.66-3.66-3.84-.38-20.57z"/><g id="details-3" data-name="details"><g id="chest"><path class="cls-5" d="M392.5 347.17h14.83v96.5H392.5zm-29.66-31.53h14.83v128.02h-14.83zm-14.83 124.93l-5.8.64-.17-54h-8.86v-71.57h14.83v124.93z"/><path class="cls-5" transform="rotate(-180 429.58 379.655)" d="M422.16 315.64h14.83v128.02h-14.83z"/><path class="cls-5" d="M451.82 440.57l5.81.64.16-54h8.87v-71.57h-14.84v124.93z"/></g><g id="neck"><path class="cls-5" d="M371.08 343.6s25.75 17.48 28.83 17.48l.12-10.42-18.22-13.49z"/><path class="cls-5" d="M429 343.6s-25.75 17.48-28.83 17.48l-.17-10.41 18.22-13.49z"/><path class="cls-3" d="M398.86 353.56h2.11v8.75h-2.11z"/></g><path id="arm-l" class="cls-5" d="M323.76 376.75v-59h-3a11.8 11.8 0 00-11.8 11.8v47.16H303a12 12 0 0012 12h27v-12z"/><path id="arm-r" class="cls-5" d="M491 376.75v-47.16a11.8 11.8 0 00-11.8-11.8h-3v59h-18v12h27.08a12 12 0 0012-12z"/><path id="brand-lotto" class="cls-3" d="M368.59 377.05a1.16 1.16 0 01-.73-.26l-6.5-5.29a1.16 1.16 0 01.17-1.91l9.58-5.29a1.16 1.16 0 011.29.12l6.5 5.29a1.16 1.16 0 01-.17 1.91l-9.58 5.29a1.16 1.16 0 01-.56.14zm-4.44-6.26l4.56 3.71 7.4-4.08-4.56-3.71z"/><g id="logo-italy-league-champs"><path d="M433.6 363.76a1.69 1.69 0 011.69 1.69V374a2.77 2.77 0 01-1.29 2.34l-3.93 2.49c-.27.17-.38.26-.5.26s-.23-.09-.5-.26l-3.93-2.49a2.77 2.77 0 01-1.29-2.34v-8.55a1.69 1.69 0 011.69-1.69h8.05m0-1.93h-8.05a3.63 3.63 0 00-3.62 3.62V374a4.68 4.68 0 002.19 4l3.93 2.49.1.06a2.32 2.32 0 002.85 0l.1-.06L435 378a4.68 4.68 0 002.19-4v-8.55a3.63 3.63 0 00-3.62-3.62z" fill="#fdc014"/><path d="M425.55 363.76a1.69 1.69 0 00-1.69 1.69V374a2.77 2.77 0 001.29 2.34l2.52 1.6v-14.18z" fill="#009d5c"/><path class="cls-3" d="M427.67 363.76v14.18l1.41.89c.54.34.45.34 1 0l1.41-.89v-14.18z"/><path d="M433.6 363.76h-2.12v14.18l2.52-1.6a2.77 2.77 0 001.3-2.34v-8.55a1.69 1.69 0 00-1.7-1.69z" fill="#e01f26"/></g><g id="sponsor-opel"><path class="cls-3" d="M413.67 384.87h-3.92a9.72 9.72 0 00-19.06-2.27h-4.27c-.47 0-.86.68-.86 1.51s.38 1.51.86 1.51h3.92a9.72 9.72 0 0019.06 2.27h4.27c.47 0 .86-.68.86-1.51s-.39-1.51-.86-1.51zM400 377.23a8 8 0 018 7.64h-5.89a2.41 2.41 0 00.12-.76c0-.83-.38-1.51-.86-1.51h-8.93a8 8 0 017.56-5.37zm0 16a8 8 0 01-8-7.64h5.89a2.42 2.42 0 00-.12.76c0 .83.38 1.51.86 1.51h8.93a8 8 0 01-7.56 5.4z"/><rect class="cls-3" x="365.47" y="399.89" width="69.14" height="16.2" rx="8.1" ry="8.1"/></g><g id="crest-ac-milan-03"><ellipse class="cls-4" cx="494.58" cy="356.3" rx="5.28" ry="9.76" transform="rotate(-10.35 494.821 356.457)"/><path class="cls-5" d="M492.82 346.7c2.87-.52 6 3.35 7 8.65s-.57 10-3.44 10.55-6-3.35-7-8.65.57-10 3.44-10.55m-.13-.73a3.89 3.89 0 00-2.22 1.31 7.3 7.3 0 00-1.42 2.61 17 17 0 002.62 14.36 7.3 7.3 0 002.25 1.94 3.71 3.71 0 004.76-.87 7.3 7.3 0 001.42-2.61 17 17 0 00-2.62-14.36 7.3 7.3 0 00-2.25-1.94 3.89 3.89 0 00-2.54-.45z"/><ellipse class="cls-3" cx="494.58" cy="356.3" rx="4.29" ry="7.93" transform="rotate(-10.35 494.821 356.457)"/><path class="cls-5" d="M490.31 357.08a5.19 5.19 0 002.91 3.88l-1.56-8.53a5.19 5.19 0 00-1.35 4.65z"/><path class="cls-4" d="M493.68 351.37a3.88 3.88 0 00-2 1l1.56 8.53a3.88 3.88 0 002.25.27z"/><path class="cls-3" d="M494.66 356.76l.81 4.46a3.8 3.8 0 001.21-.45l-.78-4.24zm3.97-2.06a5.12 5.12 0 00-2.42-2.93l.6 3.26zm-3.63-3.34a3.8 3.8 0 00-1.29 0l.75 4.1 1.25-.23zm2.7 8.64a5.18 5.18 0 001.21-4l-1.87.34z"/><path class="cls-4" d="M496.8 355l-.6-3.26a4.09 4.09 0 00-1.24-.41l.71 3.88zm-.88 1.54l.78 4.24a4.09 4.09 0 001-.82l-.66-3.62z"/><path class="cls-4" transform="rotate(-10.35 495.408 356.121)" d="M494.53 355.34h1.27v1.32h-1.27z"/><path class="cls-4" d="M498.63 354.7l-1.83.33.24 1.3 1.87-.34q0-.23-.07-.47a5.8 5.8 0 00-.21-.82z"/><path class="cls-4" transform="rotate(-10.35 496.593 355.95)" d="M495.79 355.12h1.14v1.32h-1.14z"/></g></g></g><path id="neck-2" data-name="neck" fill="#422519" d="M427.63 340.26l-27.59 8.62-28.6-9.62-1.92-23.62h61.04l-2.93 24.62z"/><path d="M502.88 368.43l-2.47-30.36c-1.19-11.87-11.83-22.25-23.72-23.14l-37.14-2.71c-4.07-.45-20.52-.09-39.55.53-19-.62-35.48-1-39.55-.53l-37.14 2.71c-11.89.89-22.53 11.27-23.72 23.14l-2.47 30.36a20.15 20.15 0 005 15.74 19.92 19.92 0 001.69 1.64v66.36c0 12.81 9.32 23.22 20.78 23.22a19.8 19.8 0 0015.25-7.39v21.79a12.23 12.23 0 007.74 11.36v68h-5.93c-10.93 0-19.83 5.8-19.83 17.11 0 8.06 0 17 11.72 19.7v1.6a1.38 1.38 0 001.38 1.38h1.63a1.38 1.38 0 001.38-1.37v-.95c1.16.09 2.39.15 3.73.15h1.89v.8a1.38 1.38 0 001.38 1.38h1.63a1.38 1.38 0 001.38-1.37v-.8h5.62v.8a1.38 1.38 0 001.38 1.38h1.63a1.38 1.38 0 001.38-1.37v-.8h5.62v.8a1.38 1.38 0 001.38 1.38h1.63a1.38 1.38 0 001.38-1.37v-.8h5.62v.8a1.38 1.38 0 001.38 1.38h1.63a1.38 1.38 0 001.38-1.37v-.8h5.62v.8a1.38 1.38 0 001.38 1.38h1.63a1.38 1.38 0 001.38-1.37v-.8h5.62v.8a1.38 1.38 0 001.38 1.38h1.63a1.38 1.38 0 001.38-1.37v-.81l.06-55.45V502h4v49.21l.06 54.67v1.6a1.38 1.38 0 001.38 1.38h1.63a1.38 1.38 0 001.38-1.37v-.8h5.62v.8a1.38 1.38 0 001.38 1.38h1.63a1.38 1.38 0 001.38-1.37v-.8h5.62v.8a1.38 1.38 0 001.38 1.38h1.63a1.38 1.38 0 001.38-1.37v-.8h5.62v.8a1.38 1.38 0 001.38 1.38h1.63a1.38 1.38 0 001.38-1.37v-.8h5.62v.8a1.38 1.38 0 001.38 1.38h1.63a1.38 1.38 0 001.38-1.37v-.8h5.62v.8a1.38 1.38 0 001.38 1.38h1.63a1.38 1.38 0 001.38-1.37v-.8h1.89c1.33 0 2.57-.05 3.72-.15v.95a1.38 1.38 0 001.38 1.38h1.63a1.38 1.38 0 001.38-1.37v-1.6c11.71-2.68 11.72-11.64 11.72-19.7 0-11.3-8.89-17.11-19.83-17.11h-5.93v-68a12.23 12.23 0 007.74-11.36V468a19.8 19.8 0 0015.21 7.42c11.46 0 20.78-10.42 20.78-23.22v-66.39a19.92 19.92 0 001.69-1.64 20.15 20.15 0 004.95-15.74zm-130.49-46.18c3.46 1.84 15.64 2.07 27.61 1.79 12 .28 24.15 0 27.61-1.79V334c0 4.8-22.42 12-27.23 12l-.38-.08-.38.08c-4.8 0-27.23-7.19-27.23-12zm-33 75.43v55c0 9.5-6.63 17.22-14.78 17.22s-14.78-7.73-14.78-17.22V389.9a21.08 21.08 0 007.47 1.36h22.09zm52.9 203.42h-50.64c-14.22 0-14.22-5-14.22-14.89 0-8.21 6.38-11.5 14.22-11.5h11.67l38.93-2.71.06 15.37zm-38.74-76.4h38.67v41.7l-38.67 2.68h-.26V524.7zm-.26-5.74V502h38.94v17h-38.91zm104.77 55.75h.26c7.84 0 14.22 3.29 14.22 11.5 0 9.91 0 14.89-14.22 14.89h-50.64v-13.7l.06-15.37 38.93 2.69h11.42zm-11.67-50h.26v44.4h-.26l-38.67-2.68V524.7zM407.75 519v-17h38.95v17h-38.95zm46.84-73.77h-.07v44.58a6.6 6.6 0 01-6.58 6.58H403s-.11-3.73-.16-8.75v-2.79c0-3.51-1.41-5.09-2.82-5-1.41-.09-2.82 1.49-2.82 5v2.79c0 5-.16 8.75-.16 8.75H352.1a6.6 6.6 0 01-6.58-6.58v-44.63h-.07v-.33l30.24.33h48.69l30.24-.33zm35.57 7.51c0 9.5-6.63 17.22-14.78 17.22s-14.78-7.73-14.78-17.22v-61.48h22.09a21.08 21.08 0 007.47-1.36zm6-77.21a13.53 13.53 0 01-6 7.29 14.69 14.69 0 01-7.47 2l-22.09.09v-20.19c0-5.56-6.07-5.94-6.07 0s.07 14.37.07 14.37v59.59H345.41v-59.61s.07-8.46.07-14.37-6.07-5.54-6.07 0v20.11l-22.09-.09a14.69 14.69 0 01-7.47-2 13.53 13.53 0 01-6-7.29 14.89 14.89 0 01-.75-6.46l2.47-30.36c.89-9 9.23-17.08 18.2-17.75l11.12-.83 32.22-2.29c.68.54.48 17.49.48 17.49 0 8.43 23.34 15.29 31.77 15.29h1.3c8.43 0 31.77-6.86 31.77-15.29 0 0-.2-16.95.48-17.49l32.22 2.29 11.12.83c9 .67 17.3 8.8 18.2 17.75L496.9 369a14.89 14.89 0 01-.75 6.48z" id="border"/><g id="over-border-details"><path class="cls-5" d="M380.61 339.8l-8.52 8.72s-13.48-4.45-12.37-19.86.31-12.55.31-12.55l8 .36z"/><path class="cls-4" d="M374.32 346.78a1 1 0 01-.72-.3c-.36-.37-8.84-9.07-10.52-12.81s1-15.9 1.31-17.26a1 1 0 011.95.45c-.81 3.53-2.66 13.27-1.44 16s7.74 9.8 10.12 12.24a1 1 0 01-.72 1.7z"/><path class="cls-10" d="M372.09 350.82a2.3 2.3 0 01-.72-.12c-.15 0-15.17-5.21-13.95-22.22.52-7.2.6-10.12.58-11.29a2.31 2.31 0 01-.19-1.72 2.41 2.41 0 012.74-1.86 2.64 2.64 0 01.73.23l6.88.31a2.31 2.31 0 011.93 1.21l12.56 23.33a2.31 2.31 0 01-.38 2.71l-8.52 8.72a2.31 2.31 0 01-1.66.7zm-9.49-32.29c-.05 2.19-.25 5.65-.58 10.29-.41 5.66 1.29 10.33 5 13.86a18.58 18.58 0 004.47 3.09l6.23-6.38-11.14-20.68z"/></g><g id="over-border-details-2" data-name="over-border-details"><path class="cls-5" d="M419.35 339.8l8.52 8.72s13.48-4.45 12.37-19.86-.31-12.55-.31-12.55l-8 .36z"/><path class="cls-4" d="M425.64 346.78a1 1 0 00.72-.3c.36-.37 8.84-9.07 10.52-12.81s-1-15.9-1.31-17.26a1 1 0 00-1.95.45c.81 3.53 2.66 13.27 1.44 16s-7.74 9.8-10.12 12.24a1 1 0 00.72 1.7z"/><path class="cls-10" d="M426.22 350.13l-8.52-8.72a2.31 2.31 0 01-.38-2.71l12.56-23.33a2.31 2.31 0 011.93-1.21l6.88-.31a2.64 2.64 0 01.73-.23 2.41 2.41 0 012.74 1.86 2.31 2.31 0 01-.19 1.72c0 1.16.07 4.08.58 11.29 1.23 17-13.8 22.17-13.95 22.22a2.31 2.31 0 01-2.37-.58zm7.1-31.41l-11.13 20.68 6.23 6.38a18.58 18.58 0 004.47-3.09c3.76-3.53 5.46-8.2 5-13.86-.33-4.64-.53-8.1-.58-10.29z"/></g><g id="head"><path id="skin-2" data-name="skin" class="cls-1" d="M446.38 253.1c0-.91.08-1.81.08-2.73 0-30.51-21.06-55.25-47-55.25s-47 24.74-47 55.25c0 1.11 0 2.21.1 3.31-4 2.46-6.9 8.44-6.9 15.43 0 9.19 4.93 16.64 11 16.64a7.47 7.47 0 002.1-.31c.82 24.5 18.74 44.08 40.73 44.08s40.12-19.81 40.74-44.5a7.65 7.65 0 003.25.74c6.08 0 11-7.45 11-16.64-.05-7.65-3.48-14.06-8.1-16.02z"/><path d="M434.32 211.88C422.47 193.75 400 195.12 400 195.12s-22.47-1.37-34.32 16.76-13.31 21.07-13.17 34.26c0 0 11.48-12.47 12.81-19.3s.93-8 4.8-8.17S394.67 215 400 215s24 3.5 27.87 3.67 3.46 1.33 4.8 8.17 14.81 19.3 14.81 19.3c.15-13.2-1.31-16.14-13.16-34.26z" fill="#3c2318"/><path id="border-2" data-name="border" d="M446.38 253.1c0-.91.08-1.81.08-2.73 0-30.51-21.06-55.25-47-55.25s-47 24.74-47 55.25c0 1.11 0 2.21.1 3.31-4 2.46-6.9 8.44-6.9 15.43 0 9.19 4.93 16.64 11 16.64a7.47 7.47 0 002.1-.31c.82 24.5 18.74 44.08 40.73 44.08s40.12-19.81 40.74-44.5a7.65 7.65 0 003.25.74c6.08 0 11-7.45 11-16.64-.05-7.65-3.48-14.06-8.1-16.02z" fill="none" stroke="#231f20" stroke-linecap="round" stroke-linejoin="round" stroke-width="6"/></g></svg>