<svg id="player" xmlns="http://www.w3.org/2000/svg" viewBox="0 0 800 800"><defs><style>.cls-1{fill:#dfb28b}.cls-2{fill:#282828}.cls-3{fill:#fff}.cls-4{fill:#191819}.cls-5{fill:#86d4e9}.cls-6{fill:#ead552}.cls-7{fill:#28367e}.cls-8{fill:#606161}.cls-10{fill:#231f20}.cls-11{fill:#77562f}</style></defs><g id="skin"><path id="arm-left" class="cls-1" d="M305.93 382h36.78v72.4a18.39 18.39 0 01-18.39 18.39 18.39 18.39 0 01-18.39-18.39V382z"/><path id="arm-right" class="cls-1" d="M457.19 382H494v72.4a18.39 18.39 0 01-18.39 18.39 18.39 18.39 0 01-18.39-18.39V382h-.03z"/><path id="leg-left" class="cls-1" d="M349.88 492.02h45.67v45.67h-45.67z"/><path id="leg-right" class="cls-1" d="M404.78 492.02h45.67v45.67h-45.67z"/></g><g id="boots"><path id="left" class="cls-2" d="M395.33 570.04H372.5l-22.83 1.97h-12.5l-7.5 2.53-5.25 8.5v9.83l1.91 4.17 3.84 4.05 6.33 1.95h58.83v-33z"/><path id="right" class="cls-2" d="M404.61 570.27h22.83l22.83 1.97h12.5l7.5 2.53 5.25 8.5v9.83l-1.91 4.17-3.84 4.05-6.33 1.95h-58.83v-33z"/><path class="cls-3" d="M379.54 590.57a3.43 3.43 0 01-2-4.29c1.42-4.28 1.7-8-.9-9.11-1.92-.82-6.18 5-8.29 8.15a3.41 3.41 0 01-3.48 1.44c-9.58-1.86-19.46-3-22.08-3-5.75 0-5.25 3.88-3.62 8.63.72 2.09 9 3.63 18.11 4.69a3.43 3.43 0 012.7 4.9l-.56 1.16H369s.72-1.12 1.77-2.89a3.44 3.44 0 013.19-1.69l3.57.23a9.37 9.37 0 006.94-2.49l.58-.54c1.14-1.85-1.29-3.61-5.51-5.19zm40.92 0a3.43 3.43 0 002-4.29c-1.42-4.28-1.7-8 .9-9.11 1.92-.82 6.18 5 8.29 8.15a3.41 3.41 0 003.48 1.44c9.58-1.86 19.46-3 22.08-3 5.75 0 5.25 3.88 3.63 8.63-.72 2.09-9 3.63-18.11 4.69a3.43 3.43 0 00-2.7 4.9l.56 1.16H431s-.72-1.12-1.77-2.89a3.44 3.44 0 00-3.19-1.69l-3.57.23a9.37 9.37 0 01-6.94-2.49l-.58-.54c-1.14-1.85 1.29-3.61 5.51-5.19z" id="details"/></g><g id="socks"><g id="socks-2" data-name="socks"><path id="left-2" data-name="left" class="cls-4" d="M349.88 522h45.67v48.04h-45.67z"/><path id="right-2" data-name="right" class="cls-4" d="M404.38 522h45.67v48.04h-45.67z"/></g></g><g id="shorts"><path class="cls-4" d="M448.22 499.5h-96.6a10 10 0 01-9.95-9.95v-47h116.49v47a10 10 0 01-9.94 9.95z"/><g id="details-2" data-name="details"><path class="cls-3" d="M345.41 443.88h7.91v54.13h-7.91z"/><path class="cls-5" d="M347.73 443.88h3.35v54.13h-3.35z"/><path class="cls-3" d="M446.09 443.88H454v54.13h-7.91z"/><path class="cls-5" d="M448.41 443.88h3.35v54.13h-3.35z"/></g></g><g id="shirt"><path id="shirt-2" data-name="shirt" class="cls-3" d="M369.5 314.8l-48.29 2.99-11.36 6.25-6.83 10.1-3.31 40.73 5.17 7.67 7.66 4.67h29.5l.17 54h114.83v-53.5l29.34-.17 7.01-4 6.99-10.5-3.4-37.33-6.83-11.84-9.77-6.08-49.84-2.99-1 21.24-6.5 6.5-11.16 3.48-11.88 2.02-15.46-3.17-11-5.66-3.66-3.84-.38-20.57z"/><g id="details-3" data-name="details"><g id="arm-l"><path class="cls-5" d="M305.66 379.92l-2-.18c0-.3 2.69-30.33 4.51-41.08a20.08 20.08 0 015.83-11.21 15.33 15.33 0 019.48-4.24l46-3.87.17 2-46 3.87a13.33 13.33 0 00-8.25 3.68 18.12 18.12 0 00-5.2 10.13c-1.85 10.65-4.51 40.6-4.54 40.9z"/><path class="cls-5" d="M309.51 384.84l-2-.16c0-.33 2.69-32.73 4.51-43.48a20.08 20.08 0 015.78-11.2 15.34 15.34 0 019.48-4.24l42.18-2.56.12 2-42.15 2.56a13.32 13.32 0 00-8.22 3.68 18.12 18.12 0 00-5.2 10.13c-1.81 10.63-4.47 42.94-4.5 43.27z"/></g><g id="arm-l-2" data-name="arm-l"><path class="cls-5" d="M494.07 379.92l2-.18c0-.3-2.69-30.33-4.51-41.08a20.08 20.08 0 00-5.77-11.22 15.33 15.33 0 00-9.48-4.24l-46-3.87-.17 2 46 3.87a13.33 13.33 0 018.25 3.68 18.12 18.12 0 015.2 10.13c1.79 10.66 4.41 40.61 4.48 40.91z"/><path class="cls-5" d="M490.22 384.84l2-.16c0-.33-2.69-32.73-4.51-43.48a20.08 20.08 0 00-5.79-11.2 15.34 15.34 0 00-9.48-4.24l-42.18-2.56-.12 2 42.15 2.56a13.32 13.32 0 018.22 3.68 18.12 18.12 0 015.2 10.13c1.82 10.63 4.48 42.94 4.51 43.27z"/></g><path class="cls-5" d="M390.57 342.2h18.7v99.01h-18.7zm-69.19 9.8l-4 36.68h16.17l3-28.67a5.36 5.36 0 015.36-5.36h6.94a5.36 5.36 0 015.36 5.36v81.18h18.7v-89a8.36 8.36 0 00-8.36-8.36l-31-4A12.19 12.19 0 00321.38 352zm158.12 0l4 36.68h-16.18l-3-28.67a5.36 5.36 0 00-5.36-5.36H452a5.36 5.36 0 00-5.36 5.36v81.18H428v-89a8.36 8.36 0 018.36-8.36l31-4A12.19 12.19 0 01479.5 352z" id="chest"/><g id="crest-argentina-98"><path class="cls-6" d="M430.8 367.55h.62v7.92c0 1.23 2.55 2.35 3.66 2.87l1.73 1.18a.94.94 0 001.05 0l1.73-1.18c1.11-.52 3.66-1.64 3.66-2.87v-7.92h.62a1.65 1.65 0 001.65-1.65v-1a1.65 1.65 0 00-1.65-1.65h-.7a2.15 2.15 0 00-2.07-1.57h-7.53a2.15 2.15 0 00-2.07 1.57h-.7a1.65 1.65 0 00-1.65 1.65v1a1.65 1.65 0 001.65 1.65zm14.12-2.69v1a1 1 0 01-1 1h-.62v-3.11h.62a1 1 0 011 1.11zm-15.15 0a1 1 0 011-1h.62v3.11h-.62a1 1 0 01-1-1z"/><path class="cls-6" d="M446.09 370.24a1.23 1.23 0 00-1.23 1.23v3.24c0 4.15-3.37 6.91-7.52 6.91s-7.52-2.76-7.52-6.91v-3.24a1.23 1.23 0 00-1.23-1.23 1.23 1.23 0 00-1.23 1.23v3.24c0 5.5 4.48 9.36 10 9.36s10-3.86 10-9.36v-3.24a1.23 1.23 0 00-1.27-1.23z"/><path class="cls-5" d="M430.8 363.83h13.08a1 1 0 011 1h-15.12a1 1 0 011.04-1z"/><path class="cls-3" d="M429.76 364.86h15.15v1.04h-15.15z"/><path class="cls-5" d="M429.76 365.9h15.15a1 1 0 01-1 1H430.8a1 1 0 01-1-1h-.04z"/><rect class="cls-7" x="434.15" y="368.31" width="2.55" height="7.45" rx="1.28" ry="1.28"/><rect class="cls-7" x="437.98" y="368.31" width="2.55" height="7.45" rx="1.28" ry="1.28"/></g><g id="adidas"><rect id="bottom" class="cls-4" x="392.45" y="369.92" width="15.19" height="2.14" rx="1.07" ry="1.07"/><path class="cls-4" d="M400.11 361.22a1.33 1.33 0 00-.48 1.82l3.11 5.42a1.33 1.33 0 001.16.67h2.33l-4.29-7.42a1.33 1.33 0 00-1.83-.49zm-2.66 2.69a1.34 1.34 0 00-.49 1.81l1.53 2.72a1.34 1.34 0 001.16.68H402l-2.69-4.72a1.34 1.34 0 00-1.86-.49zm-2.93 2.35a1.34 1.34 0 00-.5 1.81l.21.37a1.34 1.34 0 001.17.69h2.32l-1.36-2.38a1.34 1.34 0 00-1.84-.49z"/></g><rect class="cls-8" x="427.1" y="385.53" width="20.48" height="2.31" rx="1.16" ry="1.16"/><rect class="cls-8" x="428.23" y="388.91" width="18.22" height="2.31" rx="1.09" ry="1.09"/><path class="cls-4" d="M398.77 413.53c-2.1 0-4.81-.61-5.62-2a1.82 1.82 0 01-.26-.9 2.1 2.1 0 012.13-2 1.91 1.91 0 01.94.23 5.92 5.92 0 002.81.61c3.17 0 5.39-2.68 5.39-6.1a2.18 2.18 0 000-.45 7 7 0 01-5.52 2.78c-3.88 0-7.33-2.42-7.33-7 0-4.2 3.33-7.4 8.24-7.4 6.56 0 9.3 5 9.3 11.11-.04 6.5-3.72 11.12-10.08 11.12zm1-18.19c-2.49 0-3.84 1.65-3.84 3.17 0 2.26 1.94 3.23 4 3.23a5.39 5.39 0 004.2-2c-.2-2.1-1.36-4.39-4.36-4.39zm20.36-52.19l-20.13 7.1-20-7.1-5.79 5s19 10.31 25.88 10.31 25.88-10.31 25.88-10.31z"/></g></g><path id="neck" fill="#b18c70" d="M427.63 340.26l-27.59 8.62-28.6-9.62-1.92-23.62h61.04l-2.93 24.62z"/><path d="M502.88 368.43l-2.47-30.36c-1.19-11.87-11.83-22.25-23.72-23.14l-37.14-2.71c-4.07-.45-20.52-.09-39.55.53-19-.62-35.48-1-39.55-.53l-37.14 2.71c-11.89.89-22.53 11.27-23.72 23.14l-2.47 30.36a20.15 20.15 0 005 15.74 19.92 19.92 0 001.69 1.64v66.36c0 12.81 9.32 23.22 20.78 23.22a19.8 19.8 0 0015.25-7.39v21.79a12.23 12.23 0 007.74 11.36v68h-5.93c-10.93 0-19.83 5.8-19.83 17.11 0 8.06 0 17 11.72 19.7v1.6a1.38 1.38 0 001.38 1.38h1.63a1.38 1.38 0 001.38-1.37v-.95c1.16.09 2.39.15 3.73.15h1.89v.8a1.38 1.38 0 001.38 1.38h1.63a1.38 1.38 0 001.38-1.37v-.8h5.62v.8a1.38 1.38 0 001.38 1.38h1.63a1.38 1.38 0 001.38-1.37v-.8h5.62v.8a1.38 1.38 0 001.38 1.38h1.63a1.38 1.38 0 001.38-1.37v-.8h5.62v.8a1.38 1.38 0 001.38 1.38h1.63a1.38 1.38 0 001.38-1.37v-.8h5.62v.8a1.38 1.38 0 001.38 1.38h1.63a1.38 1.38 0 001.38-1.37v-.8h5.62v.8a1.38 1.38 0 001.38 1.38h1.63a1.38 1.38 0 001.38-1.37v-.81l.06-55.45V502h4v49.21l.06 54.67v1.6a1.38 1.38 0 001.38 1.38h1.63a1.38 1.38 0 001.38-1.37v-.8h5.62v.8a1.38 1.38 0 001.38 1.38h1.63a1.38 1.38 0 001.38-1.37v-.8h5.62v.8a1.38 1.38 0 001.38 1.38h1.63a1.38 1.38 0 001.38-1.37v-.8h5.62v.8a1.38 1.38 0 001.38 1.38h1.63a1.38 1.38 0 001.38-1.37v-.8h5.62v.8a1.38 1.38 0 001.38 1.38h1.63a1.38 1.38 0 001.38-1.37v-.8h5.62v.8a1.38 1.38 0 001.38 1.38h1.63a1.38 1.38 0 001.38-1.37v-.8h1.89c1.33 0 2.57-.05 3.72-.15v.95a1.38 1.38 0 001.38 1.38h1.63a1.38 1.38 0 001.38-1.37v-1.6c11.71-2.68 11.72-11.64 11.72-19.7 0-11.3-8.89-17.11-19.83-17.11h-5.93v-68a12.23 12.23 0 007.74-11.36V468a19.8 19.8 0 0015.21 7.42c11.46 0 20.78-10.42 20.78-23.22v-66.39a19.92 19.92 0 001.69-1.64 20.15 20.15 0 004.95-15.74zm-130.49-46.18c3.46 1.84 15.64 2.07 27.61 1.79 12 .28 24.15 0 27.61-1.79V334c0 4.8-22.42 12-27.23 12l-.38-.08-.38.08c-4.8 0-27.23-7.19-27.23-12zm-33 75.43v55c0 9.5-6.63 17.22-14.78 17.22s-14.78-7.73-14.78-17.22V389.9a21.08 21.08 0 007.47 1.36h22.09zm52.9 203.42h-50.64c-14.22 0-14.22-5-14.22-14.89 0-8.21 6.38-11.5 14.22-11.5h11.67l38.93-2.71.06 15.37zm-38.74-76.4h38.67v41.7l-38.67 2.68h-.26V524.7zm-.26-5.74V502h38.94v17h-38.91zm104.77 55.75h.26c7.84 0 14.22 3.29 14.22 11.5 0 9.91 0 14.89-14.22 14.89h-50.64v-13.7l.06-15.37 38.93 2.69h11.42zm-11.67-50h.26v44.4h-.26l-38.67-2.68V524.7zM407.75 519v-17h38.95v17h-38.95zm46.84-73.77h-.07v44.58a6.6 6.6 0 01-6.58 6.58H403s-.11-3.73-.16-8.75v-2.79c0-3.51-1.41-5.09-2.82-5-1.41-.09-2.82 1.49-2.82 5v2.79c0 5-.16 8.75-.16 8.75H352.1a6.6 6.6 0 01-6.58-6.58v-44.63h-.07v-.33l30.24.33h48.69l30.24-.33zm35.57 7.51c0 9.5-6.63 17.22-14.78 17.22s-14.78-7.73-14.78-17.22v-61.48h22.09a21.08 21.08 0 007.47-1.36zm6-77.21a13.53 13.53 0 01-6 7.29 14.69 14.69 0 01-7.47 2l-22.09.09v-20.19c0-5.56-6.07-5.94-6.07 0s.07 14.37.07 14.37v59.59H345.41v-59.61s.07-8.46.07-14.37-6.07-5.54-6.07 0v20.11l-22.09-.09a14.69 14.69 0 01-7.47-2 13.53 13.53 0 01-6-7.29 14.89 14.89 0 01-.75-6.46l2.47-30.36c.89-9 9.23-17.08 18.2-17.75l11.12-.83 32.22-2.29c.68.54.48 17.49.48 17.49 0 8.43 23.34 15.29 31.77 15.29h1.3c8.43 0 31.77-6.86 31.77-15.29 0 0-.2-16.95.48-17.49l32.22 2.29 11.12.83c9 .67 17.3 8.8 18.2 17.75L496.9 369a14.89 14.89 0 01-.75 6.48z" id="border"/><g id="head"><path class="cls-10" d="M402 189.24a37.83 37.83 0 0115.26 3.19c8.63 3.94 16.69 5.38 21.69 12.25s21.49 22.76 19.81 33.38c-.54 3.4-.94 7-1.32 10.3 1.67 4.6 5.41 18.32.87 40.05-2.87 13.73-5 17.41-6.67 17.41s-2.78-3.51-3.69-4.63a.74.74 0 00-.58-.32c-1.39 0-3.28 4.39-4.73 4.39-.54 0-1-.6-1.39-2.25-.6-2.64-2.35-3.08-4.28-3.08-1 0-2 .11-2.87.11-2 0-3.61-.49-3.71-3.61-.2-6.34-3-35.3 14.58-46-2.3-4.51-11.13-22.07-11.59-27.43-.53-6.17-2.28-8.21-3.31-8.67-3-1.33-15.34-1.56-23.26-1.56-4 0-6.8.06-6.8.06s-2.84-.06-6.8-.06c-7.92 0-20.29.22-23.26 1.56-1 .46-2.78 2.5-3.31 8.67-.46 5.31-9.13 22.61-11.52 27.3 17.81 10.6 15 39.78 14.81 46.14-.1 3.11-1.73 3.61-3.71 3.61-.92 0-1.92-.11-2.87-.11-1.93 0-3.68.44-4.28 3.08-.37 1.65-.85 2.25-1.39 2.25-1.45 0-3.34-4.39-4.73-4.39a.74.74 0 00-.58.32c-.92 1.12-2.07 4.63-3.69 4.63s-3.8-3.69-6.67-17.41c-4.35-20.8-1.11-34.26.64-39.41-.4-3.49-.82-7.32-1.39-10.94-1.68-10.61 14.81-26.5 19.81-33.37s13.06-8.31 21.69-12.25a37.83 37.83 0 0115.24-3.21c1.26 0 2 .07 2 .07s.74-.07 2-.07m0-6c-.87 0-1.55 0-2 .05s-1.12-.05-2-.05a43.93 43.93 0 00-17.74 3.76c-2.05.94-4.14 1.75-6.16 2.53-6.46 2.51-13.14 5.11-17.89 11.65-1 1.32-2.53 3.17-4.34 5.3-7.72 9.08-18.28 21.53-16.54 32.54.48 3 .85 6.24 1.2 9.33v.07c-2.18 7.11-4.64 21-.41 41.24 3.08 14.72 5.86 22.19 12.55 22.19a7.22 7.22 0 004.89-1.89 6.92 6.92 0 004.11 1.34c1.54 0 5.06-.55 6.77-5.29.53 0 1.12.06 1.74.06 5.8 0 9.52-3.61 9.7-9.42 0-.42 0-.95.07-1.56.42-8.65 1.62-33.48-13.24-46.6 4.68-9.46 9.45-20.1 9.87-25a16.84 16.84 0 01.7-3.88c2.39-.39 8.33-.86 19.88-.86 3.85 0 6.66.05 6.69.05h.23s2.84-.05 6.69-.05c11.55 0 17.49.47 19.88.86a16.84 16.84 0 01.7 3.88c.42 4.89 5.24 15.62 10 25.14-14.64 13.17-13.45 37.83-13 46.42 0 .62.06 1.15.07 1.57.19 5.81 3.9 9.42 9.7 9.42.62 0 1.22 0 1.74-.06 1.71 4.73 5.23 5.29 6.77 5.29a6.92 6.92 0 004.11-1.34 7.22 7.22 0 004.89 1.89c6.69 0 9.47-7.47 12.55-22.19 4.45-21.31 1.39-35.66-.63-41.94.33-2.9.68-5.88 1.13-8.71 1.74-11-8.83-23.45-16.54-32.54-1.82-2.14-3.38-4-4.34-5.3-4.76-6.54-11.43-9.14-17.89-11.65-2-.78-4.1-1.6-6.16-2.53a43.93 43.93 0 00-17.75-3.72z"/><path class="cls-11" d="M343.57 246.64s-7.24 14.66-1.57 41.78 8.51 15.05 10.37 12.79 5.17 8.58 6.7 1.82 10.62.91 10.86-6.58 4.07-46.64-26.36-49.81zm113.16 0s7.24 14.66 1.57 41.78-8.51 15.05-10.37 12.79-5.17 8.58-6.7 1.82-10.62.91-10.86-6.58-4.08-46.64 26.36-49.81z"/><path id="skin-2" data-name="skin" class="cls-1" d="M446.38 253.1c0-.91.08-1.81.08-2.73 0-30.51-21.06-55.25-47-55.25s-47 24.74-47 55.25c0 1.11 0 2.21.1 3.31-4 2.46-6.9 8.44-6.9 15.43 0 9.19 4.93 16.64 11 16.64a7.47 7.47 0 002.1-.31c.82 24.5 18.74 44.08 40.73 44.08s40.12-19.81 40.74-44.5a7.65 7.65 0 003.25.74c6.08 0 11-7.45 11-16.64-.05-7.65-3.48-14.06-8.1-16.02z"/><path id="border-2" data-name="border" d="M446.38 253.1c0-.91.08-1.81.08-2.73 0-30.51-21.06-55.25-47-55.25s-47 24.74-47 55.25c0 1.11 0 2.21.1 3.31-4 2.46-6.9 8.44-6.9 15.43 0 9.19 4.93 16.64 11 16.64a7.47 7.47 0 002.1-.31c.82 24.5 18.74 44.08 40.73 44.08s40.12-19.81 40.74-44.5a7.65 7.65 0 003.25.74c6.08 0 11-7.45 11-16.64-.05-7.65-3.48-14.06-8.1-16.02z" fill="none" stroke="#231f20" stroke-linecap="round" stroke-linejoin="round" stroke-width="6"/><path class="cls-11" d="M438.94 204.69c-5-6.87-13.06-8.31-21.69-12.25a37.66 37.66 0 00-17.25-3.13 37.66 37.66 0 00-17.25 3.13c-8.62 3.94-16.69 5.38-21.69 12.25s-21.49 22.76-19.81 33.38 2 23 4.63 23.38 9.31-2 8.63-9.94c0 0 11.61-22.33 12.14-28.5s2.28-8.21 3.31-8.67c4.44-2 30.06-1.5 30.06-1.5s25.61-.5 30.06 1.5c1 .46 2.78 2.5 3.31 8.67s12.14 28.5 12.14 28.5c-.69 7.94 6 10.31 8.63 9.94s2.95-12.76 4.63-23.37-14.85-26.52-19.85-33.39z"/></g><g id="shirt-collars"><path class="cls-4" d="M380.69 340.23l-8.53 8.77s-13.48-4.45-12.37-19.86.31-12.55.31-12.55l8 .36z"/><path class="cls-5" d="M374.67 347.19c-1.33-.23-11.24-14.48-11.79-16-1-2.88-.16-12.57-.06-13.67l2 .19c-.27 2.85-.81 10.72-.06 12.8.87 2.39 9.93 14.13 10.73 14.92l-.63.64z"/><path class="cls-10" d="M372.16 351.26a2.3 2.3 0 01-.72-.12c-.15 0-15.17-5.21-13.95-22.22.52-7.2.6-10.12.58-11.29a2.31 2.31 0 01-.19-1.72 2.41 2.41 0 012.74-1.86 2.64 2.64 0 01.73.23l6.88.31a2.31 2.31 0 011.93 1.21l12.56 23.33a2.31 2.31 0 01-.38 2.71l-8.52 8.72a2.31 2.31 0 01-1.66.7zM362.68 319c-.05 2.19-.25 5.65-.58 10.29-.41 5.66 1.29 10.33 5 13.86a18.58 18.58 0 004.47 3.09l6.23-6.38-11.14-20.68z"/></g><g id="shirt-collars-2" data-name="shirt-collars"><path class="cls-4" d="M419.35 340.23l8.52 8.72s13.48-4.45 12.37-19.86-.31-12.55-.31-12.55l-8 .36z"/><path class="cls-5" d="M425.36 347.19c1.33-.23 11.24-14.48 11.79-16 1-2.88.16-12.57.06-13.67l-2 .19c.27 2.85.81 10.72.06 12.8-.87 2.39-9.93 14.13-10.73 14.92l.63.64z"/><path class="cls-10" d="M426.22 350.56l-8.52-8.72a2.31 2.31 0 01-.38-2.71l12.56-23.33a2.31 2.31 0 011.93-1.21l6.88-.31a2.64 2.64 0 01.73-.23 2.41 2.41 0 012.74 1.86 2.31 2.31 0 01-.19 1.72c0 1.16.07 4.08.58 11.29 1.23 17-13.8 22.17-13.95 22.22a2.31 2.31 0 01-2.37-.58zm7.1-31.41l-11.14 20.68 6.23 6.38a18.58 18.58 0 004.47-3.09c3.76-3.53 5.46-8.2 5-13.86-.33-4.64-.53-8.1-.58-10.29z"/></g></svg>