<svg id="player" xmlns="http://www.w3.org/2000/svg" viewBox="0 0 800 800"><defs><style>.cls-1{fill:#9c7761}.cls-2{fill:#f1f2f2}.cls-4{fill:#024f9e}.cls-5{fill:#fff}.cls-6{fill:#fed519}.cls-7{fill:#009d5c}.cls-9{fill:#231f20}</style></defs><g id="skin"><path id="arm-left" class="cls-1" d="M305.93 382h36.78v72.4a18.39 18.39 0 01-18.39 18.39 18.39 18.39 0 01-18.39-18.39V382z"/><path id="arm-right" class="cls-1" d="M457.19 382H494v72.4a18.39 18.39 0 01-18.39 18.39 18.39 18.39 0 01-18.39-18.39V382h-.03z"/><path id="leg-left" class="cls-1" d="M349.88 492.02h45.67v45.67h-45.67z"/><path id="leg-right" class="cls-1" d="M404.78 492.02h45.67v45.67h-45.67z"/></g><g id="boots"><path id="left" class="cls-2" d="M395.33 569.94H372.5l-22.83 1.97h-12.5l-7.5 2.53-5.25 8.5v9.83l1.91 4.17 3.84 4.06 6.33 1.94h58.83v-33z"/><path id="right" class="cls-2" d="M404.61 570.17h22.83l22.84 1.97h12.5l7.5 2.53 5.24 8.5V593l-1.91 4.17-3.83 4.05-6.34 1.95h-58.83v-33z"/><path d="M420.83 571.5s41.83 12.17 39.75 31.67l-56 .58v-33.81s15.42-.77 16.25 1.56zm-41.66 0s-41.83 12.17-39.75 31.67l56 .58v-33.81s-15.42-.77-16.25 1.56z" fill="#c4c4c4" id="details"/></g><g id="socks"><g id="socks-2" data-name="socks"><path id="left-2" data-name="left" class="cls-4" d="M349.88 522h45.67v48.04h-45.67z"/><path id="right-2" data-name="right" class="cls-4" d="M404.38 522h45.67v48.04h-45.67z"/></g></g><g id="shorts"><path id="shorts-2" data-name="shorts" class="cls-4" d="M341.67 442.54h116.49v47a9.95 9.95 0 01-9.95 9.95h-96.6a9.95 9.95 0 01-9.95-9.95v-47h.01z"/><path class="cls-5" d="M348.41 442.54h3.34v55.09h-3.34zm99.84 0h3.34v55.09h-3.34z" id="details-2" data-name="details"/></g><g id="shirt"><path id="shirt-2" data-name="shirt" class="cls-6" d="M369.5 314.8l-48.29 2.99-11.36 6.25-6.83 10.1-3.31 40.73 5.17 7.67 7.66 4.67h29.5l.17 54h114.83v-53.5l29.34-.17 7.01-4 6.99-10.5-3.4-37.33-6.83-11.84-9.77-6.08-49.84-2.99-1 21.24-6.5 6.5-11.16 3.48-11.88 2.02-15.46-3.17-11-5.66-3.66-3.84-.38-20.57z"/><g id="details-3" data-name="details"><path id="chest-l" class="cls-7" d="M367.21 430.21l-23.43-64.1a1 1 0 00-2 .41l.93 39.81 20.2 23.57h-20.2v2.53h22.93a1.6 1.6 0 001.57-2.22z"/><path id="chest-r" class="cls-7" d="M432.74 430.21l23.43-65.1a1 1 0 012 .41l-.93 40.81L437 429.91h20.2v2.53h-22.89a1.6 1.6 0 01-1.57-2.23z"/><path class="cls-7" d="M368.42 326.74L352 343.67a1.38 1.38 0 001.45 2.26l25.55-9.07zm61.16 0L446 343.67a1.38 1.38 0 01-1.45 2.26L419 336.86z" id="neck"/><path id="nike" class="cls-7" d="M376.81 366.63c0 1.19-1.57 2.17-3.49 2.17h-9.26c-1.92 0-3.49-1-3.49-2.17s1.57-2.17 3.49-2.17h9.26c1.92.01 3.49.98 3.49 2.17z"/><g id="brazil-crest-2002"><path class="cls-7" d="M436.8 382.52a.94.94 0 01-1 .89h-7a.89.89 0 110-1.78h7a.94.94 0 011 .89z"/><ellipse class="cls-7" cx="426.6" cy="358.39" rx=".92" ry=".95"/><ellipse class="cls-7" cx="430.41" cy="357.37" rx=".92" ry=".95"/><ellipse class="cls-7" cx="434.21" cy="357.37" rx=".92" ry=".95"/><ellipse class="cls-7" cx="438.02" cy="358.39" rx=".92" ry=".95"/><path class="cls-4" d="M434.7 360.86c-.41-.42-2.39-.47-2.39-.47s-2 0-2.39.47c-1.85 1.91-3.88 1.79-4.55 3.14a1.91 1.91 0 00-.17 1l1 10.37a2.46 2.46 0 001.52 2.27l2.3.75 2.32.93 2.32-.93 2.3-.75a2.46 2.46 0 001.52-2.27l1-10.37a1.91 1.91 0 00-.17-1c-.74-1.35-2.76-1.23-4.61-3.14z"/><rect class="cls-7" x="431.59" y="362.58" width="1.45" height="14.58" rx=".57" ry=".57"/><rect class="cls-7" x="427.04" y="368.15" width="10.48" height="1.45" rx=".57" ry=".57"/><path class="cls-6" d="M432.31 377.66a.41.41 0 01-.15 0l-1.81-.72-1.77-.57a2.32 2.32 0 01-1.43-2.12l-.75-8.07a1.9 1.9 0 01.17-1 3 3 0 011.61-1.24 6.1 6.1 0 002-1.3 5 5 0 014.31 0 6.09 6.09 0 002 1.3 3 3 0 011.61 1.24 1.89 1.89 0 01.17 1l-.75 8.07a2.32 2.32 0 01-1.43 2.12l-1.8.58-1.78.72a.41.41 0 01-.2-.01zm-3.46-2.1l1.78.58 1.68.67 1.66-.66 1.8-.59a1.5 1.5 0 00.92-1.39l.75-8.08a1.08 1.08 0 00-.09-.58c-.2-.4-.63-.59-1.22-.87a6.87 6.87 0 01-2.24-1.47 4.55 4.55 0 00-1.58-.25 4.44 4.44 0 00-1.57.25 6.85 6.85 0 01-2.24 1.47c-.6.27-1 .47-1.22.87a1.09 1.09 0 00-.09.58l.75 8.08a1.5 1.5 0 00.91 1.4zm5-12.43zm0 0z"/><path class="cls-5" d="M434.9 367.68l-1.71.31.31-1.71a.53.53 0 00-.52-.62h-1.35a.53.53 0 00-.52.62l.31 1.71-1.71-.31a.53.53 0 00-.62.52v1.35a.53.53 0 00.62.52l1.71-.31-.31 1.71a.53.53 0 00.52.62H433a.53.53 0 00.52-.62l-.31-1.71 1.71.31a.53.53 0 00.62-.52v-1.35a.53.53 0 00-.64-.52z"/></g><path class="cls-7" d="M397.79 406.84c-2 0-4.57-.58-5.33-1.9a1.72 1.72 0 01-.25-.86 2 2 0 012-1.9 1.81 1.81 0 01.89.21 5.62 5.62 0 002.67.58c3 0 5.12-2.54 5.12-5.79a1.92 1.92 0 000-.43 6.65 6.65 0 01-5.24 2.64c-3.68 0-7-2.3-7-6.65 0-4 3.16-7 7.82-7 6.22 0 8.83 4.78 8.83 10.55.02 6.16-3.47 10.55-9.51 10.55zm.95-17.26c-2.36 0-3.65 1.56-3.65 3 0 2.15 1.84 3.07 3.8 3.07a5.11 5.11 0 004-1.93c-.19-1.97-1.3-4.14-4.15-4.14z"/></g></g><path id="neck-2" data-name="neck" fill="#6e5348" d="M427.63 340.26l-27.59 8.62-28.6-9.62-1.92-23.62h61.04l-2.93 24.62z"/><path d="M502.88 368.43l-2.47-30.36c-1.19-11.87-11.83-22.25-23.72-23.14l-37.14-2.71c-4.07-.45-20.52-.09-39.55.53-19-.62-35.48-1-39.55-.53l-37.14 2.71c-11.89.89-22.53 11.27-23.72 23.14l-2.47 30.36a20.15 20.15 0 005 15.74 19.92 19.92 0 001.69 1.64v66.36c0 12.81 9.32 23.22 20.78 23.22a19.8 19.8 0 0015.25-7.39v21.79a12.23 12.23 0 007.74 11.36v68h-5.93c-10.93 0-19.83 5.8-19.83 17.11 0 8.06 0 17 11.72 19.7v1.6a1.38 1.38 0 001.38 1.38h1.63a1.38 1.38 0 001.38-1.37v-.95c1.16.09 2.39.15 3.73.15h1.89v.8a1.38 1.38 0 001.38 1.38h1.63a1.38 1.38 0 001.38-1.37v-.8h5.62v.8a1.38 1.38 0 001.38 1.38h1.63a1.38 1.38 0 001.38-1.37v-.8h5.62v.8a1.38 1.38 0 001.38 1.38h1.63a1.38 1.38 0 001.38-1.37v-.8h5.62v.8a1.38 1.38 0 001.38 1.38h1.63a1.38 1.38 0 001.38-1.37v-.8h5.62v.8a1.38 1.38 0 001.38 1.38h1.63a1.38 1.38 0 001.38-1.37v-.8h5.62v.8a1.38 1.38 0 001.38 1.38h1.63a1.38 1.38 0 001.38-1.37v-.81l.06-55.45V502h4v49.21l.06 54.67v1.6a1.38 1.38 0 001.38 1.38h1.63a1.38 1.38 0 001.38-1.37v-.8h5.62v.8a1.38 1.38 0 001.38 1.38h1.63a1.38 1.38 0 001.38-1.37v-.8h5.62v.8a1.38 1.38 0 001.38 1.38h1.63a1.38 1.38 0 001.38-1.37v-.8h5.62v.8a1.38 1.38 0 001.38 1.38h1.63a1.38 1.38 0 001.38-1.37v-.8h5.62v.8a1.38 1.38 0 001.38 1.38h1.63a1.38 1.38 0 001.38-1.37v-.8h5.62v.8a1.38 1.38 0 001.38 1.38h1.63a1.38 1.38 0 001.38-1.37v-.8h1.89c1.33 0 2.57-.05 3.72-.15v.95a1.38 1.38 0 001.38 1.38h1.63a1.38 1.38 0 001.38-1.37v-1.6c11.71-2.68 11.72-11.64 11.72-19.7 0-11.3-8.89-17.11-19.83-17.11h-5.93v-68a12.23 12.23 0 007.74-11.36V468a19.8 19.8 0 0015.21 7.42c11.46 0 20.78-10.42 20.78-23.22v-66.39a19.92 19.92 0 001.69-1.64 20.15 20.15 0 004.95-15.74zm-130.49-46.18c3.46 1.84 15.64 2.07 27.61 1.79 12 .28 24.15 0 27.61-1.79V334c0 4.8-22.42 12-27.23 12l-.38-.08-.38.08c-4.8 0-27.23-7.19-27.23-12zm-33 75.43v55c0 9.5-6.63 17.22-14.78 17.22s-14.78-7.73-14.78-17.22V389.9a21.08 21.08 0 007.47 1.36h22.09zm52.9 203.42h-50.64c-14.22 0-14.22-5-14.22-14.89 0-8.21 6.38-11.5 14.22-11.5h11.67l38.93-2.71.06 15.37zm-38.74-76.4h38.67v41.7l-38.67 2.68h-.26V524.7zm-.26-5.74V502h38.94v17h-38.91zm104.77 55.75h.26c7.84 0 14.22 3.29 14.22 11.5 0 9.91 0 14.89-14.22 14.89h-50.64v-13.7l.06-15.37 38.93 2.69h11.42zm-11.67-50h.26v44.4h-.26l-38.67-2.68V524.7zM407.75 519v-17h38.95v17h-38.95zm46.84-73.77h-.07v44.58a6.6 6.6 0 01-6.58 6.58H403s-.11-3.73-.16-8.75v-2.79c0-3.51-1.41-5.09-2.82-5-1.41-.09-2.82 1.49-2.82 5v2.79c0 5-.16 8.75-.16 8.75H352.1a6.6 6.6 0 01-6.58-6.58v-44.63h-.07v-.33l30.24.33h48.69l30.24-.33zm35.57 7.51c0 9.5-6.63 17.22-14.78 17.22s-14.78-7.73-14.78-17.22v-61.48h22.09a21.08 21.08 0 007.47-1.36zm6-77.21a13.53 13.53 0 01-6 7.29 14.69 14.69 0 01-7.47 2l-22.09.09v-20.19c0-5.56-6.07-5.94-6.07 0s.07 14.37.07 14.37v59.59H345.41v-59.61s.07-8.46.07-14.37-6.07-5.54-6.07 0v20.11l-22.09-.09a14.69 14.69 0 01-7.47-2 13.53 13.53 0 01-6-7.29 14.89 14.89 0 01-.75-6.46l2.47-30.36c.89-9 9.23-17.08 18.2-17.75l11.12-.83 32.22-2.29c.68.54.48 17.49.48 17.49 0 8.43 23.34 15.29 31.77 15.29h1.3c8.43 0 31.77-6.86 31.77-15.29 0 0-.2-16.95.48-17.49l32.22 2.29 11.12.83c9 .67 17.3 8.8 18.2 17.75L496.9 369a14.89 14.89 0 01-.75 6.48z" id="border"/><g id="over-border-details"><g id="shirt-collars"><path class="cls-6" d="M369.43 334.18l-7.43 3.68a13 13 0 01-3.48-15.54c4.18-9.65 3-8 3-8l5.07 2z"/><path class="cls-9" d="M361.47 339.35a1.57 1.57 0 01-.44-.24c-.09-.07-8.58-6.76-4-17.41 2-4.51 2.66-6.37 2.91-7.12a1.57 1.57 0 01.26-1.15 1.64 1.64 0 012.18-.58 1.8 1.8 0 01.41.31l4.35 1.75a1.57 1.57 0 011 1.21l2.86 17.82a1.57 1.57 0 01-.85 1.65l-7.44 3.68a1.57 1.57 0 01-1.24.08zm1.17-22.88c-.53 1.4-1.43 3.58-2.69 6.48a11.22 11.22 0 00.13 10 12.65 12.65 0 002.18 3l5.44-2.69-2.5-15.79z"/></g></g><g id="over-border-details-2" data-name="over-border-details"><g id="shirt-collars-2" data-name="shirt-collars"><path class="cls-6" d="M430.56 334.18l7.44 3.68a13 13 0 003.48-15.54c-4.18-9.65-3-8-3-8l-5.07 2z"/><path class="cls-9" d="M437.3 339.27l-7.44-3.68a1.57 1.57 0 01-.85-1.65l2.82-17.81a1.57 1.57 0 011-1.21l4.35-1.75a1.8 1.8 0 01.41-.31 1.64 1.64 0 012.18.58 1.57 1.57 0 01.26 1.15c.25.75 1 2.61 2.91 7.12 4.61 10.65-3.88 17.34-4 17.41a1.57 1.57 0 01-1.65.16zm-2.5-21.78l-2.5 15.79 5.44 2.69a12.65 12.65 0 002.18-3 11.22 11.22 0 00.13-10c-1.26-2.9-2.16-5.08-2.69-6.48z"/></g></g><g id="head"><path id="skin-2" data-name="skin" class="cls-1" d="M446.38 253.1c0-.91.08-1.81.08-2.73 0-30.51-21.06-55.25-47-55.25s-47 24.74-47 55.25c0 1.11 0 2.21.1 3.31-4 2.46-6.9 8.44-6.9 15.43 0 9.19 4.93 16.64 11 16.64a7.47 7.47 0 002.1-.31c.82 24.5 18.74 44.08 40.73 44.08s40.12-19.81 40.74-44.5a7.65 7.65 0 003.25.74c6.08 0 11-7.45 11-16.64-.05-7.65-3.48-14.06-8.1-16.02z"/><path id="border-2" data-name="border" d="M446.38 253.1c0-.91.08-1.81.08-2.73 0-30.51-21.06-55.25-47-55.25s-47 24.74-47 55.25c0 1.11 0 2.21.1 3.31-4 2.46-6.9 8.44-6.9 15.43 0 9.19 4.93 16.64 11 16.64a7.47 7.47 0 002.1-.31c.82 24.5 18.74 44.08 40.73 44.08s40.12-19.81 40.74-44.5a7.65 7.65 0 003.25.74c6.08 0 11-7.45 11-16.64-.05-7.65-3.48-14.06-8.1-16.02z" fill="none" stroke="#231f20" stroke-linecap="round" stroke-linejoin="round" stroke-width="6"/><path d="M400 204.91c-17.73 0-27.14 9.89-26.41 18.17s26.41 3.18 26.41 3.18 25.68 5.1 26.41-3.18-8.68-18.17-26.41-18.17z" fill="#414042"/></g></svg>