<svg id="player" xmlns="http://www.w3.org/2000/svg" viewBox="0 0 800 800"><defs><linearGradient id="New_Gradient_Swatch" x1="400.73" y1="441.21" x2="400.73" y2="314.8" gradientUnits="userSpaceOnUse"><stop offset="0" stop-color="#002348"/><stop offset="1" stop-color="#5157a6"/></linearGradient><style>.cls-1{fill:#f3b6a4}.cls-2{fill:#414042}.cls-3{fill:#fff}.cls-4{fill:#ec2027}.cls-5{fill:#002348}.cls-10{fill:#231f20}</style></defs><g id="skin"><path id="arm-left" class="cls-1" d="M305.93 382h36.78v72.4a18.39 18.39 0 01-18.39 18.39 18.39 18.39 0 01-18.39-18.39V382z"/><path id="arm-right" class="cls-1" d="M457.19 382H494v72.4a18.39 18.39 0 01-18.39 18.39 18.39 18.39 0 01-18.39-18.39V382h-.03z"/><path id="leg-left" class="cls-1" d="M349.88 492.02h45.67v45.67h-45.67z"/><path id="leg-right" class="cls-1" d="M404.78 492.02h45.67v45.67h-45.67z"/></g><g id="boots"><g id="boots-2" data-name="boots"><path id="left" class="cls-2" d="M396.33 569.19H373.5l-22.83 1.98h-12.5l-7.5 2.52-5.25 8.5v9.84l1.91 4.16 3.84 4.06 6.33 1.94h58.83v-33z"/><path id="right" class="cls-2" d="M405.61 569.42h22.83l22.84 1.97h12.5l7.5 2.53 5.24 8.5v9.83l-1.91 4.17-3.83 4.06-6.34 1.94h-58.83v-33z"/></g><g id="details"><path class="cls-3" d="M365.38 578.94s-6.1 16.38-.74 24.75h11.49s6.13-13.5-.5-24.75z"/><path class="cls-4" d="M346.13 572.94a30.93 30.93 0 0022.5 10.63c14.75.5 26.92 0 26.92 0v-14.16z"/><path class="cls-3" d="M434.94 578.94s6.1 16.38.74 24.75h-11.49s-6.12-13.5.5-24.75z"/><path class="cls-4" d="M454.19 572.94a30.93 30.93 0 01-22.5 10.63c-14.75.5-26.92 0-26.92 0v-14.16z"/></g></g><g id="socks"><path id="left-2" data-name="left" class="cls-3" d="M349.88 522h45.67v48.04h-45.67z"/><path id="right-2" data-name="right" class="cls-3" d="M404.38 522h45.67v48.04h-45.67z"/></g><path id="shorts" class="cls-5" d="M341.67 442.54h116.49v47a9.95 9.95 0 01-9.95 9.95h-96.6a9.95 9.95 0 01-9.95-9.95v-47h.01z"/><g id="shirt"><path id="shirt-2" data-name="shirt" fill="url(#New_Gradient_Swatch)" d="M369.5 314.8l-48.29 2.99-11.36 6.25-6.83 10.1-1.93 98.78 11.16 7.16 29.96 1.13h147.21l10.96-12.79-3.4-92.71-6.83-11.84-9.77-6.08-49.84-2.99-1 21.24-6.5 6.5-11.16 3.48-11.88 2.02-15.46-3.17-11-5.66-3.66-3.84-.38-20.57z"/><g id="details-2" data-name="details"><g id="arm-l"><path class="cls-3" d="M305.66 436.13a1 1 0 01-1-1c0-.74 1.84-74.19 2.5-90.16q0-.7.09-1.36a23.87 23.87 0 0120.45-21.44c.74-.11 1.47-.16 2.15-.2l40.28-2.13a1 1 0 11.11 2l-40.24 2.1c-.63 0-1.3.08-2 .18a21.87 21.87 0 00-18.76 19.63q-.05.63-.08 1.28c-.66 16-2.48 89.39-2.5 90.13a1 1 0 01-1 .97z"/><path class="cls-3" d="M310.19 441.06a1 1 0 01-1-1c.14-3.8 3.35-93.19 3.92-96.16 2.06-10.71 7.17-15.54 18.24-17.23.68-.1 31.3-1.28 41-1.64.55 0 .55 2 0 2-11.35.42-39.75 1.47-40.77 1.57-10.16 1.55-14.65 5.79-16.54 15.63-.45 2.4-3 70-3.89 95.85a1 1 0 01-.96.98z"/></g><g id="arm-r"><path class="cls-3" d="M494.75 436.13a1 1 0 001-1c0-.74-1.84-74.19-2.5-90.16q0-.7-.09-1.36a23.87 23.87 0 00-20.45-21.44c-.74-.11-1.47-.16-2.15-.2l-40.28-2.13a1 1 0 00-.11 2l40.28 2.13c.63 0 1.3.08 2 .18a21.87 21.87 0 0118.76 19.63q.05.63.08 1.28c.66 16 2.48 89.39 2.5 90.13a1 1 0 00.96.94z"/><path class="cls-3" d="M490.23 441.06a1 1 0 001-1c-.14-3.8-3.35-93.19-3.92-96.16-2.06-10.71-7.17-15.54-18.24-17.23-.68-.1-31.3-1.28-41-1.64-.55 0-.55 2 0 2 11.35.42 39.75 1.47 40.77 1.57 10.16 1.55 14.65 5.79 16.54 15.63.45 2.4 3 70 3.89 95.85a1 1 0 00.96.98z"/></g><path d="M461.9 354.63a4.71 4.71 0 00-4.71 4.71v15.82H500v-20.53z" fill="#fbee3f"/><g id="crest-germany-06"><circle cx="432.48" cy="368.83" r="9.5" fill="none"/><path class="cls-3" d="M432.48 358.57a10.11 10.11 0 1010.11 10.11 10.12 10.12 0 00-10.11-10.11zm9 10.11a9 9 0 11-9-9 9 9 0 018.96 9z"/><path class="cls-3" d="M432.48 361.85a7 7 0 107 7 7 7 0 00-7-7zm4.17 11.15a5.89 5.89 0 01-7.08 1l-.3-.18a5.92 5.92 0 01-.54-.39q-.22-.18-.42-.38l-.2-.2a5.92 5.92 0 01-.52-.67l-.15-.24a5.9 5.9 0 01-.43-5.25l.1-.22q.12-.26.26-.5c.07-.13.15-.26.23-.38a5.92 5.92 0 01.52-.67l.3-.3.2-.18.34-.27.38-.26a5.88 5.88 0 01.73-.39l.22-.1a5.89 5.89 0 017.17 2.32l.14.24a5.89 5.89 0 01-1 7.08z"/><path class="cls-3" d="M434.38 366.72h-1.2v-1.38a.41.41 0 00-.41-.41h-.56c-.3 0-.4.41-.4.41a1.31 1.31 0 00-1.05.84.15.15 0 00.14.21h.7l-.06.33h-.94a1.07 1.07 0 00-1 .82l-.91 3.87h.55a.49.49 0 00.48-.38v-.18a.49.49 0 01.48-.38h.16a.49.49 0 00.48-.38.49.49 0 01.48-.38l.88.88a.37.37 0 00.52 0l.88-.88a.49.49 0 01.48.38.49.49 0 00.48.38h.16a.49.49 0 01.48.38v.18a.49.49 0 00.48.38h.55l-.91-3.87a1.07 1.07 0 00-.94-.82z"/></g><g id="adidas"><rect id="bottom" class="cls-3" x="357.57" y="368.98" width="11.93" height="1.68" rx=".84" ry=".84"/><path class="cls-3" d="M363.6 362.14a1 1 0 00-.38 1.43l2.45 4.25a1 1 0 00.91.53h1.83l-3.41-5.83a1 1 0 00-1.4-.38zm-2.1 2.12a1 1 0 00-.39 1.42l1.2 2.14a1 1 0 00.91.54h1.82l-2.11-3.71a1 1 0 00-1.43-.39zm-2.3 1.84a1.05 1.05 0 00-.39 1.42l.16.29a1.05 1.05 0 00.92.54h1.82l-1.07-1.87a1.05 1.05 0 00-1.44-.38z"/></g><path class="cls-3" d="M400.89 413.12a2.29 2.29 0 01-2.26-2.26v-13.58l-2.42 2.49a1.76 1.76 0 01-1.26.52 1.9 1.9 0 01-1.33-3.27l5-5a2.76 2.76 0 011.94-.78 2.66 2.66 0 012.68 2.62v17a2.3 2.3 0 01-2.35 2.26z" id="number-1"/></g></g><path id="neck" fill="#d39789" d="M427.61 339.42l-27.59 8.62-28.6-9.62-1.92-23.62h61.04l-2.93 24.62z"/><path d="M502.88 421.91l-2.47-83.84c-1.19-11.87-11.83-22.25-23.72-23.14l-37.14-2.71c-4.07-.45-20.52-.09-39.55.53-19-.62-35.48-1-39.55-.53l-37.14 2.71c-11.89.89-22.53 11.27-23.72 23.14l-2.47 83.84a20.15 20.15 0 005 15.74 19.92 19.92 0 001.69 1.64v12.87c0 12.81 9.32 23.22 20.78 23.22a19.8 19.8 0 0015.25-7.38v21.79a12.23 12.23 0 007.74 11.36v68h-5.93c-10.93 0-19.83 5.8-19.83 17.11 0 8.06 0 17 11.72 19.7v1.6a1.38 1.38 0 001.38 1.38h1.63a1.38 1.38 0 001.38-1.37v-.95c1.16.09 2.39.15 3.73.15h1.89v.8a1.38 1.38 0 001.38 1.38h1.63a1.38 1.38 0 001.38-1.37v-.8h5.62v.8a1.38 1.38 0 001.38 1.38h1.63a1.38 1.38 0 001.38-1.37v-.8h5.62v.8a1.38 1.38 0 001.38 1.38h1.63a1.38 1.38 0 001.38-1.37v-.8h5.62v.8a1.38 1.38 0 001.38 1.38h1.63a1.38 1.38 0 001.38-1.37v-.8h5.62v.8a1.38 1.38 0 001.38 1.38h1.63a1.38 1.38 0 001.38-1.37v-.8h5.62v.8a1.38 1.38 0 001.38 1.38h1.63a1.38 1.38 0 001.38-1.37v-.81l.06-55.45V502h4v49.21l.06 54.67v1.6a1.38 1.38 0 001.38 1.38h1.63a1.38 1.38 0 001.38-1.37v-.8h5.62v.8a1.38 1.38 0 001.38 1.38h1.63a1.38 1.38 0 001.38-1.37v-.8h5.62v.8a1.38 1.38 0 001.38 1.38h1.63a1.38 1.38 0 001.38-1.37v-.8h5.62v.8a1.38 1.38 0 001.38 1.38h1.63a1.38 1.38 0 001.38-1.37v-.8h5.62v.8a1.38 1.38 0 001.38 1.38h1.63a1.38 1.38 0 001.38-1.37v-.8h5.62v.8a1.38 1.38 0 001.38 1.38h1.63a1.38 1.38 0 001.38-1.37v-.8h1.89c1.33 0 2.57-.05 3.72-.15v.95a1.38 1.38 0 001.38 1.38h1.63a1.38 1.38 0 001.38-1.37v-1.6c11.71-2.68 11.72-11.64 11.72-19.7 0-11.3-8.89-17.11-19.83-17.11h-5.93v-68a12.23 12.23 0 007.74-11.36V468a19.8 19.8 0 0015.21 7.42c11.46 0 20.78-10.42 20.78-23.22v-12.9a19.92 19.92 0 001.69-1.64 20.15 20.15 0 004.95-15.75zm-130.49-99.66c3.46 1.84 15.64 2.07 27.61 1.79 12 .28 24.15 0 27.61-1.79V334c0 4.8-22.42 12-27.23 12l-.38-.08-.38.08c-4.8 0-27.23-7.19-27.23-12zm-33 128.91v1.53c0 9.5-6.63 17.22-14.78 17.22s-14.78-7.73-14.78-17.22v-9.31a21.08 21.08 0 007.47 1.36h22.09zm52.9 149.93h-50.64c-14.22 0-14.22-5-14.22-14.89 0-8.21 6.38-11.5 14.22-11.5h11.67l38.93-2.7.06 15.37zm-38.74-76.4h38.67v41.71l-38.67 2.68h-.26V524.7zm-.26-5.74V502h38.94v17h-38.91zm104.77 55.75h.26c7.84 0 14.22 3.29 14.22 11.5 0 9.91 0 14.89-14.22 14.89h-50.64V587.4l.06-15.37 38.93 2.69h11.42zm-11.67-50h.26v44.4h-.26l-38.67-2.68V524.7zm-38.64-5.7v-17h38.95v17h-38.95zm46.84-73.77h-.07v44.58a6.6 6.6 0 01-6.58 6.58H403s-.11-3.73-.16-8.75v-2.79c0-3.51-1.41-5.09-2.82-5-1.41-.09-2.82 1.49-2.82 5v2.79c0 5-.16 8.75-.16 8.75H352.1a6.6 6.6 0 01-6.58-6.58v-44.63h-.07v-.33l30.24.33h48.69l30.24-.33zm35.57 7.51c0 9.5-6.63 17.22-14.78 17.22s-14.78-7.73-14.78-17.22v-7.94h22.09a21.08 21.08 0 007.47-1.36zm6-23.73a13.53 13.53 0 01-6 7.29 14.69 14.69 0 01-7.47 2l-22.09.09v-73.67c0-5.56-6.07-5.94-6.07 0s.07 14.37.07 14.37v59.59H345.41v-59.61s.07-8.46.07-14.37-6.07-5.54-6.07 0v73.59l-22.09-.09a14.69 14.69 0 01-7.47-2 13.53 13.53 0 01-6-7.29 14.89 14.89 0 01-.75-6.46l2.47-83.84c.89-9 9.23-17.08 18.2-17.75l11.12-.83 32.22-2.29c.68.54.48 17.49.48 17.49 0 8.43 23.34 15.29 31.77 15.29h1.3c8.43 0 31.77-6.86 31.77-15.29 0 0-.2-16.95.48-17.49l32.22 2.29 11.12.83c9 .67 17.3 8.8 18.2 17.75l2.47 83.84a14.89 14.89 0 01-.77 6.55z" id="border"/><g id="head"><path class="cls-10" d="M400 190.42s17.67 3 19.58 4.25c0 0 19.67 8.75 25.17 23.83a35.08 35.08 0 017 27.58s-2.06 14.72-6.8 14.72a3.88 3.88 0 01-2.7-1.47s-8.58-11.29-8.75-17-3.46-30.71-6.12-30.87h-.08c-2.88 0-17.39 8.17-27.29 8.17s-24.42-8.17-27.29-8.17h-.08c-2.67.17-6 25.21-6.12 30.88s-8.75 17-8.75 17a3.88 3.88 0 01-2.7 1.47c-4.74 0-6.8-14.72-6.8-14.72a35.08 35.08 0 017-27.58c5.5-15.08 25.17-23.83 25.17-23.83 1.92-1.25 19.58-4.25 19.58-4.25m0-6a6 6 0 00-1 .08c-16.31 2.77-20 4.12-21.36 4.84-2.86 1.33-21.32 10.44-27.65 26.14a41.24 41.24 0 00-7.68 31.51 62.3 62.3 0 001.8 8.13c.87 2.87 3.5 11.67 10.87 11.67a9.63 9.63 0 007-3.33 6 6 0 00.43-.51c2.29-3 9.76-13.37 10-20.41a172.35 172.35 0 013.4-23.67l1.13.46c6.48 2.67 15.35 6.32 23 6.32s16.49-3.65 23-6.32l1.13-.47a172.36 172.36 0 013.4 23.67c.21 7 7.68 17.4 10 20.41a6 6 0 00.43.51 9.63 9.63 0 007 3.33c7.42 0 10.06-8.76 10.92-11.63a62.3 62.3 0 001.8-8.13 41.24 41.24 0 00-7.64-31.55c-6.33-15.7-24.79-24.81-27.65-26.14-1.33-.72-5.05-2.07-21.36-4.84a6 6 0 00-1-.08z"/><path id="skin-2" data-name="skin" class="cls-1" d="M446.38 253.1c0-.91.08-1.81.08-2.73 0-30.51-21.06-55.25-47-55.25s-47 24.74-47 55.25c0 1.11 0 2.21.1 3.31-4 2.46-6.9 8.44-6.9 15.43 0 9.19 4.93 16.64 11 16.64a7.47 7.47 0 002.1-.31c.82 24.5 18.74 44.08 40.73 44.08s40.12-19.81 40.74-44.5a7.65 7.65 0 003.25.74c6.08 0 11-7.45 11-16.64-.05-7.65-3.48-14.06-8.1-16.02z"/><path id="border-2" data-name="border" d="M446.38 253.1c0-.91.08-1.81.08-2.73 0-30.51-21.06-55.25-47-55.25s-47 24.74-47 55.25c0 1.11 0 2.21.1 3.31-4 2.46-6.9 8.44-6.9 15.43 0 9.19 4.93 16.64 11 16.64a7.47 7.47 0 002.1-.31c.82 24.5 18.74 44.08 40.73 44.08s40.12-19.81 40.74-44.5a7.65 7.65 0 003.25.74c6.08 0 11-7.45 11-16.64-.05-7.65-3.48-14.06-8.1-16.02z" stroke="#231f20" stroke-linecap="round" stroke-linejoin="round" stroke-width="6" fill="none"/><path d="M444.75 218.5c-5.5-15.08-25.17-23.83-25.17-23.83-1.92-1.25-19.58-4.25-19.58-4.25s-17.67 3-19.58 4.25c0 0-19.67 8.75-25.17 23.83a35.08 35.08 0 00-7 27.58s2.83 20.25 9.5 13.25c0 0 8.58-11.29 8.75-17s3.46-30.71 6.13-30.87 17.37 8.21 27.37 8.21 24.71-8.33 27.38-8.17 6 25.21 6.13 30.88 8.75 17 8.75 17c6.67 7 9.5-13.25 9.5-13.25a35.08 35.08 0 00-7.01-27.63z" fill="#b6a369"/></g><g id="over-border-details"><g id="gloves"><g id="asset-glove"><path class="cls-3" d="M470.29 437.26h14.21a5.82 5.82 0 015.82 5.82v10a6.31 6.31 0 01-6.31 6.31h-13.23a6.31 6.31 0 01-6.31-6.31v-10a5.82 5.82 0 015.82-5.82z" transform="rotate(6.52 477.596 448.534)"/><path class="cls-10" d="M485.71 438.14a5.82 5.82 0 015.12 6.44l-1.14 10a6.31 6.31 0 01-7 5.55l-13.14-1.5a6.31 6.31 0 01-5.55-7l1.14-10a5.82 5.82 0 016.44-5.12l14.12 1.61m.58-5.1l-14.12-1.61a11 11 0 00-12.12 9.63l-1.14 10A11.45 11.45 0 00469 463.7l13.14 1.5a11.45 11.45 0 0012.67-10.07l1.14-10a11 11 0 00-9.66-12.13z"/><path class="cls-3" d="M466.69 447h16.94a8.25 8.25 0 018.25 8.25v17.25a16.3 16.3 0 01-16.3 16.3h-.84a16.3 16.3 0 01-16.3-16.3v-17.27a8.25 8.25 0 018.25-8.25z" transform="rotate(6.52 475.365 468.124)"/><path class="cls-10" d="M485.74 448.05a8.26 8.26 0 017.49 8.95l-2 17.76c-1 8.72-9.24 14.93-18.41 13.88-9.17-1-15.8-9-14.8-17.68l2-17.76a8.26 8.26 0 019.32-7l16.4 1.88m.55-4.84l-16.4-1.88c-7.45-.85-14.16 4.21-15 11.29l-2 17.76c-1.3 11.37 7.38 21.74 19.35 23.11s22.77-6.77 24.07-18.14l2-17.76c.81-7.08-4.59-13.53-12-14.38z"/><path class="cls-5" d="M464.87 450.74h20.45a4.45 4.45 0 014.45 4.45v16.39a14.67 14.67 0 01-14.67 14.67 14.67 14.67 0 01-14.67-14.67v-16.39a4.45 4.45 0 014.45-4.45z" transform="rotate(6.52 475.312 468.743)"/><rect class="cls-3" x="467.02" y="457.48" width="7.46" height="17.5" rx="3.46" ry="3.46" transform="rotate(7.57 470.9 466.428)"/><rect class="cls-3" x="476.61" y="458.6" width="7.69" height="17.5" rx="3.51" ry="3.51" transform="rotate(7.57 480.613 467.53)"/></g><g id="asset-glove-2" data-name="asset-glove"><path class="cls-3" d="M315.16 437.26h13.22a6.31 6.31 0 016.31 6.31v10a5.82 5.82 0 01-5.82 5.82h-14.2a5.82 5.82 0 01-5.82-5.82v-10a6.31 6.31 0 016.31-6.31z" transform="rotate(173.48 321.786 448.334)"/><path class="cls-10" d="M313.46 438.14l14.12-1.61a5.82 5.82 0 016.44 5.12l1.14 10a6.31 6.31 0 01-5.55 7l-13.14 1.5a6.31 6.31 0 01-7-5.55l-1.14-10a5.82 5.82 0 015.12-6.44m-.58-5.1a11 11 0 00-9.63 12.12l1.14 10A11.45 11.45 0 00317 465.21l13.14-1.5A11.45 11.45 0 00340.25 451l-1.14-10a11 11 0 00-12.11-9.58L312.87 433z"/><path class="cls-3" d="M323.59 447h.84a16.3 16.3 0 0116.3 16.3v17.25a8.25 8.25 0 01-8.25 8.25h-16.94a8.25 8.25 0 01-8.25-8.25v-17.27a16.3 16.3 0 0116.3-16.28z" transform="rotate(173.48 324.02 467.87)"/><path class="cls-10" d="M313.43 448.05l16.4-1.88a8.26 8.26 0 019.32 7l2 17.76c1 8.72-5.63 16.63-14.8 17.68-9.17 1-17.42-5.17-18.41-13.88l-2-17.76a8.26 8.26 0 017.49-8.95m-.55-4.84c-7.45.85-12.85 7.3-12 14.38l2 17.76c1.3 11.37 12.1 19.51 24.07 18.14s20.65-11.74 19.35-23.11l-2-17.76c-.81-7.08-7.53-12.14-15-11.29l-16.4 1.88z"/><path class="cls-5" d="M324.08 450.74a14.67 14.67 0 0114.67 14.67v16.39a4.45 4.45 0 01-4.45 4.45h-20.45a4.45 4.45 0 01-4.45-4.45v-16.39a14.67 14.67 0 0114.68-14.67z" transform="rotate(173.48 324.09 468.485)"/><rect class="cls-3" x="324.69" y="457.48" width="7.46" height="17.5" rx="3.46" ry="3.46" transform="rotate(172.43 328.427 466.225)"/><rect class="cls-3" x="314.87" y="458.6" width="7.69" height="17.5" rx="3.51" ry="3.51" transform="rotate(172.43 318.72 467.345)"/></g></g></g></svg>