<svg id="player" xmlns="http://www.w3.org/2000/svg" viewBox="0 0 800 800"><defs><style>.cls-1{fill:#ddaf99;stroke:#231f20;stroke-linecap:round;stroke-linejoin:round;stroke-width:6px}.cls-2{fill:#c6d92c}.cls-4{fill:#ed2024}.cls-5{fill:#db2129}.cls-6{fill:#fee200}.cls-7{fill:#fff}.cls-8{fill:#3e1952}.cls-9{fill:none}.cls-11{fill:#231f20}</style></defs><g id="skin"><path id="arm-left" class="cls-1" d="M305.93 382h36.78v72.4a18.39 18.39 0 01-18.39 18.39 18.39 18.39 0 01-18.39-18.39V382z"/><path id="arm-right" class="cls-1" d="M457.19 382H494v72.4a18.39 18.39 0 01-18.39 18.39 18.39 18.39 0 01-18.39-18.39V382h-.03z"/><path id="leg-left" class="cls-1" d="M349.88 492.02h45.67v45.67h-45.67z"/><path id="leg-right" class="cls-1" d="M404.78 492.02h45.67v45.67h-45.67z"/></g><g id="boots"><path id="left" class="cls-2" d="M395.33 570.04H372.5l-22.83 1.97h-12.5l-7.5 2.53-5.25 8.5v9.83l1.91 4.17 3.84 4.05 6.33 1.95h58.83v-33z"/><path id="right" class="cls-2" d="M404.61 570.27h22.83l22.83 1.97h12.5l7.5 2.53 5.25 8.5v9.83l-1.91 4.17-3.84 4.05-6.33 1.95h-58.83v-33z"/><path d="M332.46 601.09s36.34-29.8 50.75-30.43h9.33s-18.35 17.34-33.25 20.93a4.82 4.82 0 00-3.58 5.6 15.08 15.08 0 010 6.08s-16.25 2.5-23.25-2.18zm135.01 0s-36.34-29.8-50.75-30.43h-9.33s18.35 17.29 33.26 20.92a4.82 4.82 0 013.58 5.6 15.08 15.08 0 000 6.08s16.24 2.51 23.24-2.17z" fill="#0c1d2f" id="details"/></g><g id="socks"><g id="socks-2" data-name="socks"><path id="left-2" data-name="left" class="cls-4" d="M349.88 522h45.67v48.04h-45.67z"/><path id="right-2" data-name="right" class="cls-4" d="M404.38 522h45.67v48.04h-45.67z"/></g></g><g id="shorts"><path id="shorts-2" data-name="shorts" class="cls-4" d="M341.67 442.54h116.49v47a9.95 9.95 0 01-9.95 9.95h-96.6a9.95 9.95 0 01-9.95-9.95v-47h.01z"/></g><g id="shirt"><path id="shirt-2" data-name="shirt" class="cls-4" d="M369.5 314.8l-48.29 2.99-11.36 6.25-6.83 10.1-3.31 40.73 5.17 7.67 7.66 4.67h29.5l.17 54h114.83v-53.5l29.34-.17 7.01-4 6.99-10.5-3.4-37.33-6.83-11.84-9.77-6.08-49.84-2.99-1 21.24-6.5 6.5-11.16 3.48-11.88 2.02-15.46-3.17-11-5.66-3.66-3.84-.38-20.57z"/><g id="details-2" data-name="details"><g id="chest"><rect class="cls-5" x="349.95" y="394.4" width="100.09" height="9.94" rx="4.97" ry="4.97"/><rect class="cls-5" x="349.95" y="414.43" width="100.09" height="9.94" rx="4.97" ry="4.97"/><rect class="cls-5" x="349.95" y="434.32" width="100.09" height="9.94" rx="4.97" ry="4.97"/></g><path id="brand-new-balance" class="cls-6" d="M364.32 364.15h-7.05a1.22 1.22 0 00-1.22 1.22 1.22 1.22 0 001.22 1.22h3.07a1.22 1.22 0 011.16 1.61 1.22 1.22 0 01-1.16.83h-3.07a1.22 1.22 0 00-1.22 1.22 1.22 1.22 0 001.22 1.22h2.26a1.22 1.22 0 011.16 1.61 1.22 1.22 0 01-1.16.83h-2.26a1.22 1.22 0 00-1.22 1.22 1.22 1.22 0 001.22 1.22h8.91a3.15 3.15 0 003-2.15l2.11-6.33a2.82 2.82 0 00-2.68-3.71z"/><path id="crest-liverpool-16" class="cls-6" d="M441 360.09a.68.68 0 00-1.11.46c-.29 3.52-2.9 5.94-5.05 8-.24.23.26-2.15.76-3.32a5.53 5.53 0 00-.05-4.48 1.58 1.58 0 01-.18-.56c-.14-1.27-1.65-1.67-2.52-.11a1.13 1.13 0 01-.6.51c-.4.15-.94.37-.86.48s0 .15.05.2.33.07 1.32-.1h.24c.86-.23.84.6.9.61a3.76 3.76 0 01-.07 2.73c-.3.71-2.42 6-1.07 7.14a.81.81 0 00.23.09l.62.22a1.25 1.25 0 01.8 1.53l-.94 3.22a1 1 0 101.92.56l1.31-4.49h.13l1 4.48a1 1 0 101.95-.45l-.66-2.86a1.07 1.07 0 01.74-1.27 3 3 0 001.48-.85c.15-.17.3-.34.46-.49 5.2-5.11 1.33-9.48-.8-11.25z"/><g id="neck"><path id="left-3" data-name="left" class="cls-6" d="M393 346.85l-10.79-3.15-11.46-7.36V314.8l-5.29 1.7v13.35c0 5.58.59 11.39 7 14.65a93 93 0 0015.32 6.27 4.08 4.08 0 005.22-3.92z"/><path id="right-3" data-name="right" class="cls-6" d="M429.21 314.8v21.53l-11.46 7.36-10.75 3.16a4.08 4.08 0 005.22 3.92 93 93 0 0015.32-6.27c6.41-3.25 7-9.07 7-14.65V316.5z"/></g><path class="cls-6" d="M458.16 381.38h20.46a5.12 5.12 0 015.12 5.12h-25.58v-5.12z"/><path class="cls-6" d="M317.12 381.38h25.59a5.12 5.12 0 01-5.12 5.12h-20.47v-5.12z" transform="rotate(-180 329.915 383.94)"/><g id="sponsor-standard-chartered"><rect class="cls-6" x="361.96" y="387.52" width="61.79" height="9.94" rx="4.97" ry="4.97"/><rect class="cls-6" x="356.05" y="399.95" width="67.7" height="9.94" rx="4.97" ry="4.97"/><path class="cls-6" d="M441.94 409.41l-3.49-4a2.74 2.74 0 00-4.06 0l-3.49 4a1.42 1.42 0 01-2.48-.8v-16.46a4.84 4.84 0 015-4.63h6a4.84 4.84 0 015 4.63v16.45a1.42 1.42 0 01-2.48.81z"/></g><g id="logo-pl-ready-16"><g id="logo-pl-16"><ellipse class="cls-7" cx="494.1" cy="361.18" rx="5.41" ry="9.46" transform="rotate(-6.7 494.152 361.228)"/><path class="cls-8" d="M495.29 371.25c-3.18.37-6.29-3.84-6.95-9.39s1.4-10.37 4.58-10.75 6.29 3.84 6.95 9.39-1.41 10.37-4.58 10.75zm-2.21-18.79c-2.75.32-4.53 4.5-4 9.3s3.26 8.45 6 8.13 4.53-4.5 4-9.3-3.25-8.45-6-8.13z"/><path class="cls-8" d="M495.39 355.75v-.07h-.09l-.28.11h-.13l-.34-.93h-.06l-.33.57h-.13l-.39-.66a.07.07 0 00-.05 0l-.23.73h-.13l-.45-.48h-.06l-.08.7v.29h-1v.22l.17.7v.2h.15a4.2 4.2 0 011.4-.49 3.76 3.76 0 011.51.15h.14v-1.16z"/><path class="cls-9" d="M494.32 364.61s-.09-1-.18-1.9a.66.66 0 01-.23-.46l-.12-1c0-.42-.28-.73-.52-.7l-.45.05c-.24 0-.39.39-.34.8l.09.79c0 .42.28.73.52.7l.16 1.32c.06.54.36.94.67.91v.33z"/><path class="cls-8" d="M496.36 358.18a3.92 3.92 0 00-5.15.6 10.81 10.81 0 00.34 3.71l.66 2c.53 1.61 1.68 3.58 2.68 3.47s1.66-2.3 1.8-4l.18-2.1a10.81 10.81 0 00-.51-3.68zm-3.11 6l-.16-1.32c-.24 0-.47-.29-.52-.7l-.09-.79c0-.42.1-.78.34-.8l.45-.05c.24 0 .47.29.52.7l.12 1a.66.66 0 00.23.46c.09.86.18 1.88.18 1.9l-.4.52c-.31.06-.61-.35-.67-.89zm1.56 2.19h-.19c-.18 0-.41-.27-.56-.54a.41.41 0 010-.34 3.4 3.4 0 01.36-.56.18.18 0 01.28 0 3.4 3.4 0 01.48.46.41.41 0 01.07.34c-.1.32-.25.65-.44.68zm1-4.6c0 .42-.1.78-.34.8l.16 1.32c.06.54-.13 1-.44 1l-.51-.41s-.15-1-.27-1.89a.66.66 0 00.12-.5l-.12-1c0-.42.1-.78.34-.8l.45-.05c.24 0 .47.29.52.7z"/></g><g id="logo-pl-16-2" data-name="logo-pl-16"><ellipse class="cls-7" cx="305.9" cy="361.18" rx="9.46" ry="5.41" transform="rotate(-83.3 305.895 361.172)"/><path class="cls-8" d="M300.13 360.5c.65-5.55 3.77-9.77 6.95-9.39s5.23 5.19 4.58 10.75-3.77 9.77-6.95 9.39-5.23-5.2-4.58-10.75zm.78.09c-.56 4.81 1.21 9 4 9.3s5.45-3.32 6-8.13-1.21-9-4-9.3-5.43 3.32-6 8.13z"/><path class="cls-8" d="M304.61 355.75v-.07h.09l.28.11h.13l.34-.93h.06l.33.57h.13l.39-.66a.07.07 0 01.05 0l.23.73h.13l.45-.48h.06l.08.7v.29h1v.22l-.17.7v.2h-.15a4.2 4.2 0 00-1.4-.49 3.76 3.76 0 00-1.51.15h-.14v-1.16z"/><path class="cls-9" d="M305.68 364.61s.09-1 .18-1.9a.66.66 0 00.23-.46l.12-1c0-.42.28-.73.52-.7l.45.05c.24 0 .39.39.34.8l-.09.79c0 .42-.28.73-.52.7l-.16 1.32c-.06.54-.36.94-.67.91v.33z"/><path class="cls-8" d="M303.11 361.87l.18 2.1c.15 1.69.8 3.88 1.8 4s2.15-1.85 2.68-3.47l.66-2a10.81 10.81 0 00.34-3.71 3.92 3.92 0 00-5.15-.6 10.81 10.81 0 00-.51 3.68zm3 3.25l-.4-.52s.09-1 .18-1.9a.66.66 0 00.23-.46l.12-1c0-.42.28-.73.52-.7l.45.05c.24 0 .39.39.34.8l-.09.79c0 .42-.28.73-.52.7l-.16 1.32c-.09.55-.39.96-.7.92zm-1.31.63a.41.41 0 01.07-.34 3.4 3.4 0 01.48-.46.18.18 0 01.28 0 3.4 3.4 0 01.36.56.41.41 0 010 .34c-.15.28-.38.56-.56.54h-.19c-.24-.01-.39-.34-.47-.64zm-.5-4.73c0-.42.28-.73.52-.7l.45.05c.24 0 .39.39.34.8l-.12 1a.66.66 0 00.12.5c-.12.86-.26 1.87-.27 1.89l-.51.41c-.31 0-.51-.5-.44-1l.16-1.32c-.24 0-.39-.39-.34-.8z"/></g></g></g></g><path id="neck-2" data-name="neck" fill="#bb9384" d="M427.63 340.26l-27.59 8.62-28.6-9.62-1.92-23.62h61.04l-2.93 24.62z"/><path d="M502.88 368.43l-2.47-30.36c-1.19-11.87-11.83-22.25-23.72-23.14l-37.14-2.71c-4.07-.45-20.52-.09-39.55.53-19-.62-35.48-1-39.55-.53l-37.14 2.71c-11.89.89-22.53 11.27-23.72 23.14l-2.47 30.36a20.15 20.15 0 005 15.74 19.92 19.92 0 001.69 1.64v66.36c0 12.81 9.32 23.22 20.78 23.22a19.8 19.8 0 0015.25-7.39v21.79a12.23 12.23 0 007.74 11.36v68h-5.93c-10.93 0-19.83 5.8-19.83 17.11 0 8.06 0 17 11.72 19.7v1.6a1.38 1.38 0 001.38 1.38h1.63a1.38 1.38 0 001.38-1.37v-.95c1.16.09 2.39.15 3.73.15h1.89v.8a1.38 1.38 0 001.38 1.38h1.63a1.38 1.38 0 001.38-1.37v-.8h5.62v.8a1.38 1.38 0 001.38 1.38h1.63a1.38 1.38 0 001.38-1.37v-.8h5.62v.8a1.38 1.38 0 001.38 1.38h1.63a1.38 1.38 0 001.38-1.37v-.8h5.62v.8a1.38 1.38 0 001.38 1.38h1.63a1.38 1.38 0 001.38-1.37v-.8h5.62v.8a1.38 1.38 0 001.38 1.38h1.63a1.38 1.38 0 001.38-1.37v-.8h5.62v.8a1.38 1.38 0 001.38 1.38h1.63a1.38 1.38 0 001.38-1.37v-.81l.06-55.45V502h4v49.21l.06 54.67v1.6a1.38 1.38 0 001.38 1.38h1.63a1.38 1.38 0 001.38-1.37v-.8h5.62v.8a1.38 1.38 0 001.38 1.38h1.63a1.38 1.38 0 001.38-1.37v-.8h5.62v.8a1.38 1.38 0 001.38 1.38h1.63a1.38 1.38 0 001.38-1.37v-.8h5.62v.8a1.38 1.38 0 001.38 1.38h1.63a1.38 1.38 0 001.38-1.37v-.8h5.62v.8a1.38 1.38 0 001.38 1.38h1.63a1.38 1.38 0 001.38-1.37v-.8h5.62v.8a1.38 1.38 0 001.38 1.38h1.63a1.38 1.38 0 001.38-1.37v-.8h1.89c1.33 0 2.57-.05 3.72-.15v.95a1.38 1.38 0 001.38 1.38h1.63a1.38 1.38 0 001.38-1.37v-1.6c11.71-2.68 11.72-11.64 11.72-19.7 0-11.3-8.89-17.11-19.83-17.11h-5.93v-68a12.23 12.23 0 007.74-11.36V468a19.8 19.8 0 0015.21 7.42c11.46 0 20.78-10.42 20.78-23.22v-66.39a19.92 19.92 0 001.69-1.64 20.15 20.15 0 004.95-15.74zm-130.49-46.18c3.46 1.84 15.64 2.07 27.61 1.79 12 .28 24.15 0 27.61-1.79V334c0 4.8-22.42 12-27.23 12l-.38-.08-.38.08c-4.8 0-27.23-7.19-27.23-12zm-33 75.43v55c0 9.5-6.63 17.22-14.78 17.22s-14.78-7.73-14.78-17.22V389.9a21.08 21.08 0 007.47 1.36h22.09zm52.9 203.42h-50.64c-14.22 0-14.22-5-14.22-14.89 0-8.21 6.38-11.5 14.22-11.5h11.67l38.93-2.71.06 15.37zm-38.74-76.4h38.67v41.7l-38.67 2.68h-.26V524.7zm-.26-5.74V502h38.94v17h-38.91zm104.77 55.75h.26c7.84 0 14.22 3.29 14.22 11.5 0 9.91 0 14.89-14.22 14.89h-50.64v-13.7l.06-15.37 38.93 2.69h11.42zm-11.67-50h.26v44.4h-.26l-38.67-2.68V524.7zM407.75 519v-17h38.95v17h-38.95zm46.84-73.77h-.07v44.58a6.6 6.6 0 01-6.58 6.58H403s-.11-3.73-.16-8.75v-2.79c0-3.51-1.41-5.09-2.82-5-1.41-.09-2.82 1.49-2.82 5v2.79c0 5-.16 8.75-.16 8.75H352.1a6.6 6.6 0 01-6.58-6.58v-44.63h-.07v-.33l30.24.33h48.69l30.24-.33zm35.57 7.51c0 9.5-6.63 17.22-14.78 17.22s-14.78-7.73-14.78-17.22v-61.48h22.09a21.08 21.08 0 007.47-1.36zm6-77.21a13.53 13.53 0 01-6 7.29 14.69 14.69 0 01-7.47 2l-22.09.09v-20.19c0-5.56-6.07-5.94-6.07 0s.07 14.37.07 14.37v59.59H345.41v-59.61s.07-8.46.07-14.37-6.07-5.54-6.07 0v20.11l-22.09-.09a14.69 14.69 0 01-7.47-2 13.53 13.53 0 01-6-7.29 14.89 14.89 0 01-.75-6.46l2.47-30.36c.89-9 9.23-17.08 18.2-17.75l11.12-.83 32.22-2.29c.68.54.48 17.49.48 17.49 0 8.43 23.34 15.29 31.77 15.29h1.3c8.43 0 31.77-6.86 31.77-15.29 0 0-.2-16.95.48-17.49l32.22 2.29 11.12.83c9 .67 17.3 8.8 18.2 17.75L496.9 369a14.89 14.89 0 01-.75 6.48z" id="border"/><g id="head"><path class="cls-11" d="M399.2 181.83h.08c.89 0 17 3.7 27.68 8.5 7.73 3.49 12.57 9.68 12.8 14.23.6 11.94 4.65 21.36 2.4 22.73a1 1 0 01-.51.13c-2.24 0-7.37-5.7-10-7.77a3.83 3.83 0 01-1.31-1.88c-.56-1.78-1.83-5.17-3.56-5.9-2.1-.88-22.78-3.24-27.52-3.77-4.74.53-25.42 2.88-27.52 3.77-1.73.73-3 4.12-3.56 5.9a3.83 3.83 0 01-1.31 1.88c-2.66 2.07-7.44 7.64-9.63 7.64a1 1 0 01-.51-.13c-2.25-1.37 2.15-12.29 2-22.6-.07-4.8 6.89-12.18 15.07-15.79 10.19-4.5 24.4-6.94 25.41-6.94m0-6h-.94l-.31.11c-4.39.56-17.24 3.22-26.58 7.34s-18.76 13.19-18.64 21.37a66.42 66.42 0 01-1.58 12.9c-1.22 6.36-2.27 11.85 2.45 14.73a7 7 0 003.64 1c3.89 0 7.05-3 10.71-6.52 1-.94 2-1.91 2.61-2.39a9.8 9.8 0 003.35-4.82 15.62 15.62 0 01.88-2.27c3.41-.63 12.86-1.85 24.47-3.16 11.61 1.3 21.06 2.53 24.47 3.16a15.62 15.62 0 01.89 2.27 9.8 9.8 0 003.34 4.82c.61.47 1.61 1.41 2.58 2.31 3.87 3.61 7.22 6.73 11.13 6.73a7 7 0 003.64-1c2.64-1.62 3.82-4.44 3.49-8.4a59.43 59.43 0 00-1.07-6.35 89.49 89.49 0 01-2-13.41c-.37-7.25-7.08-15.22-16.33-19.39s-24.08-8.08-28.86-8.88a6.21 6.21 0 00-1.37-.15z"/><path id="skin-2" data-name="skin" d="M446.38 253.1c0-.91.08-1.81.08-2.73 0-30.51-21.06-55.25-47-55.25s-47 24.74-47 55.25c0 1.11 0 2.21.1 3.31-4 2.46-6.9 8.44-6.9 15.43 0 9.19 4.93 16.64 11 16.64a7.47 7.47 0 002.1-.31c.82 24.5 18.74 44.08 40.73 44.08s40.12-19.81 40.74-44.5a7.65 7.65 0 003.25.74c6.08 0 11-7.45 11-16.64-.05-7.65-3.48-14.06-8.1-16.02z" fill="#ddaf99"/><path d="M444.55 225.38l-14-7.6 8.45 44.53-4.52 26.08-3.34 3.61a10.48 10.48 0 01-10.84 2.75l-20.3-6.62-20.25 6.58a10.48 10.48 0 01-10.8-2.71l-4.71-5-4.6-24.68 8.53-44.55-14 7.6s.88 54 3.63 59.13a10 10 0 002.56 3.2c0 2.24 0 5.19.13 8.67.32 8.13 14.3 23 20.55 28.25s19 6.75 19 6.75 12.79-1.5 19-6.75 20.23-20.12 20.55-28.25c.17-4.28.16-7.74.11-10.08a12 12 0 001.17-1.8c2.81-5.11 3.68-59.11 3.68-59.11zM413 312.69c0 5.56-6.51 4.06-12.06 4.06h-1.71c-5.56 0-12.06 1.49-12.06-4.06 0-7.18-1.12-17.06 6.06-17.06l6.86-2 6.86 2c7.13 0 6.05 9.87 6.05 17.06z" opacity=".15" fill="#472d1b"/><path class="cls-11" d="M399.42 332.51c-22.68 0-41.28-19-43.53-43.79-7.52-.49-13.31-8.93-13.31-19.61 0-7 2.64-13.45 6.84-16.92v-1.82c0-32.12 22.45-58.25 50-58.25s50 26.13 50 58.25v1c4.85 3.17 8 10 8 17.76 0 11-6.15 19.64-14 19.64H443c-2.3 24.79-20.83 43.74-43.58 43.74zm-40.73-50.08a3 3 0 013 2.9c.77 23.09 17.35 41.18 37.73 41.18 20.58 0 37.15-18.26 37.74-41.58a3 3 0 014.27-2.64 4.68 4.68 0 002 .46c4.34 0 8-6.24 8-13.64 0-7-3.13-11.94-6.21-13.24a3 3 0 01-1.83-2.89v-.18c0-.8.07-1.61.07-2.42 0-28.81-19.75-52.25-44-52.25s-44 23.44-44 52.25c0 .92 0 1.89.09 3.16a3 3 0 01-1.44 2.71c-3.27 2-5.46 7.16-5.46 12.86 0 7.39 3.67 13.64 8 13.64a4.49 4.49 0 001.26-.19 3 3 0 01.78-.13z"/><path d="M439.77 204.56c-.23-4.55-5.07-10.74-12.8-14.23-10.83-4.88-27.35-8.62-27.72-8.5-.35-.12-15 2.33-25.46 6.93-8.18 3.61-15.13 11-15.07 15.79.15 10.31-4.26 21.23-2 22.6 1.85 1.13 7.25-5.26 10.14-7.51a3.83 3.83 0 001.31-1.88c.56-1.78 1.83-5.17 3.56-5.9 2.1-.88 22.78-3.24 27.52-3.77 4.74.53 25.42 2.88 27.52 3.77 1.73.73 3 4.12 3.56 5.9a3.83 3.83 0 001.31 1.88c2.89 2.25 8.68 8.77 10.53 7.64 2.25-1.36-1.79-10.78-2.4-22.72z" fill="#472d1b"/></g></svg>