<svg id="player" xmlns="http://www.w3.org/2000/svg" viewBox="0 0 800 800"><defs><clipPath id="clip-path"><path class="cls-1" d="M300.04 351.91h199.97v20.19H300.04z"/></clipPath><clipPath id="clip-path-2"><path class="cls-1" d="M300.04 351.91h199.97v20.19H300.04z"/></clipPath><style>.cls-1{fill:none}.cls-2{fill:#0c113d}.cls-3{fill:#c08b67}.cls-4{fill:#1c2138}.cls-5{fill:#fff}.cls-6{fill:#e52225}.cls-10{fill:#c0bc7a}.cls-14{fill:#3e1952}.cls-16{fill:#35261e}</style></defs><g id="skin"><path id="arm-left" class="cls-2" d="M305.93 382h36.78v72.4a18.39 18.39 0 01-18.39 18.39 18.39 18.39 0 01-18.39-18.39V382z"/><path id="arm-right" class="cls-2" d="M457.19 382H494v72.4a18.39 18.39 0 01-18.39 18.39 18.39 18.39 0 01-18.39-18.39V382h-.03z"/><path id="leg-left" class="cls-3" d="M349.88 492.02h45.67v45.67h-45.67z"/><path id="leg-right" class="cls-3" d="M404.78 492.02h45.67v45.67h-45.67z"/></g><g id="boots"><path id="left" class="cls-4" d="M395.54 570.04h-22.83l-22.83 1.97h-12.5l-7.5 2.53-5.25 8.5v9.83l1.91 4.17 3.84 4.05 6.33 1.95h58.83v-33z"/><path id="right" class="cls-4" d="M404.67 570.04h22.83l22.83 1.97h12.5l7.5 2.53 5.25 8.5v9.83l-1.91 4.17-3.84 4.05-6.33 1.95h-58.83v-33z"/><path class="cls-5" d="M472.06 576.38s3.88 6.5-9.62 6.25-49.13-10.16-41.62-11.37 46.91-1.55 51.24 5.12zm-144.38 0s-3.87 6.5 9.63 6.25 49.13-10.16 41.63-11.37-46.94-1.55-51.26 5.12z" id="details"/></g><g id="socks"><path id="left-2" data-name="left" class="cls-6" d="M349.88 522h45.67v48.04h-45.67z"/><path id="right-2" data-name="right" class="cls-6" d="M404.38 522h45.67v48.04h-45.67z"/><path class="cls-5" d="M349.5 521.28h46.33v14.22H349.5zm54.55 0h46.33v14.22h-46.33z" id="details-2" data-name="details"/></g><g id="shorts"><path id="shorts-2" data-name="shorts" class="cls-5" d="M341.67 442.54h116.49v47a9.95 9.95 0 01-9.95 9.95h-96.6a9.95 9.95 0 01-9.95-9.95v-47h.01z"/><path class="cls-6" d="M344.51 444.58h10.33v55h-3.58a6.75 6.75 0 01-6.75-6.75v-48.25zm100.63 0h10.33v48.9a6.1 6.1 0 01-6.1 6.1h-4.23v-55z" id="details-3" data-name="details"/></g><g id="shirt"><path id="shirt-2" data-name="shirt" class="cls-5" d="M369.5 314.8l-48.29 2.99-11.36 6.25-6.83 10.1-1.93 98.78 11.16 7.16 29.96 1.13h147.21l10.96-12.79-3.4-92.71-6.83-11.84-9.77-6.08-49.84-2.99-1 21.24-6.5 6.5-11.16 3.48-11.88 2.02-15.46-3.17-11-5.66-3.66-3.84-.38-20.57z"/><g id="details-4" data-name="details"><path class="cls-6" d="M400 441.54l-6 .1v2.94h12v-2.94l-6-.1zm-9.66-86.26c-6.76-2.88-18.75-8.07-21.17-9.67a18.88 18.88 0 00-11.29-3.1 16.16 16.16 0 00-15.17 16.25V365l-.34 5.33-.37 31.25-.36 41 52.33-.89v-85.17a25.73 25.73 0 01-3.63-1.24zm67.99 87.26l-.36-41-.34-31.25-.34-5.33v-6.24a16.16 16.16 0 00-15.17-16.25 18.88 18.88 0 00-11.29 3.1c-2.42 1.6-14.41 6.79-21.17 9.67a25.73 25.73 0 01-3.66 1.24v85.13z"/><path d="M406 441.64v-85.12a22.5 22.5 0 01-12 0v85.13l6-.1z" fill="#cd212d"/><g id="sponsor-fly-emirates"><rect class="cls-5" x="381.57" y="388.44" width="36.86" height="9.13" rx="4.56" ry="4.56"/><rect class="cls-5" x="364.5" y="400.68" width="71" height="13.94" rx="6.97" ry="6.97"/></g><path d="M443 379.06l-4.08 2.87-4.08-2.87a9.57 9.57 0 01-4.21-7.81v-7a1.24 1.24 0 011.06-1.18l5.45-1a10 10 0 013.56 0l5.45 1a1.24 1.24 0 011.06 1.18v7a9.57 9.57 0 01-4.21 7.81z" fill="#291c4a"/><path d="M441.62 379.15L438.9 382l-2.72-2.87a11.45 11.45 0 01-2.81-7.81v-7a1.17 1.17 0 01.71-1.18l3.63-1a4.51 4.51 0 012.38 0l3.63 1a1.17 1.17 0 01.71 1.18v7a11.45 11.45 0 01-2.81 7.83z" fill="#e01f26"/><path class="cls-10" d="M438.9 362.82a9.15 9.15 0 011.62.15l5.45 1a.37.37 0 01.34.32v7a8.33 8.33 0 01-1 3.93 9.25 9.25 0 01-2.83 3.15l-3.58 2.51-3.58-2.51a9.25 9.25 0 01-2.83-3.15 8.33 8.33 0 01-1-3.93v-7a.37.37 0 01.34-.32l5.45-1a9.15 9.15 0 011.62-.15m0-.88a10 10 0 00-1.78.16l-5.45 1a1.24 1.24 0 00-1.06 1.18v7a9.57 9.57 0 004.21 7.81l4.08 2.87 4.08-2.87a9.57 9.57 0 004.21-7.81v-7a1.24 1.24 0 00-1.06-1.18l-5.45-1a10 10 0 00-1.78-.16z"/><path class="cls-10" d="M445.54 370a1.56 1.56 0 00-1.7-1.34l-9.94.3a1.57 1.57 0 00-1.64 1.52v.43a1.57 1.57 0 001.78 1.34l2.15-.16a3.19 3.19 0 00-.12.87v.06l-1.36 1.44a.82.82 0 000 1.17l.17.15a.82.82 0 001.16-.14l.67-.78a3.2 3.2 0 005.5-3.22l1.76-.13a1.56 1.56 0 001.57-1.51z"/><rect class="cls-5" x="434.19" y="365.45" width="9.35" height="1.65" rx=".78" ry=".78"/><rect class="cls-5" x="356.03" y="364.41" width="4.76" height="12.18" rx="2.38" ry="2.38" transform="rotate(-63.52 358.436 370.515)" id="brand-puma"/><rect class="cls-6" x="303.55" y="336.11" width="4.76" height="12.18" rx="2.38" ry="2.38" transform="rotate(-63.52 305.957 342.206)" id="brand-puma-2" data-name="brand-puma"/><rect class="cls-6" x="491.59" y="336.11" width="4.76" height="12.18" rx="2.38" ry="2.38" transform="rotate(-116.48 493.95 342.206)" id="brand-puma-3" data-name="brand-puma"/><path d="M459.63 429.97h39.25v2.91h-39.25zm-158.21 0h39.25v2.91h-39.25z" fill="#333"/><g clip-path="url(#clip-path)"><g clip-path="url(#clip-path-2)" id="logo-pl-ready-16"><path class="cls-5" d="M499.5 361.37c.61 5.19-1.3 9.68-4.27 10s-5.87-3.57-6.48-8.76 1.3-9.68 4.27-10 5.87 3.57 6.48 8.76"/><path class="cls-14" d="M495.31 372.07c-3.18.37-6.29-3.84-6.95-9.4s1.4-10.37 4.58-10.75 6.29 3.84 6.95 9.39-1.4 10.38-4.58 10.75m-2.21-18.79c-2.75.32-4.53 4.5-4 9.3s3.26 8.45 6 8.13 4.53-4.49 4-9.3-3.26-8.45-6-8.13"/><path class="cls-14" d="M495.41 356.57v-.1h-.09l-.28.11h-.13l-.34-.93h-.06l-.33.57h-.13l-.39-.66a.07.07 0 00-.05 0l-.61.44h-.13l-.45-.48h-.06l-.08.69v.29h-.64v.64l.17.7v.2h.15a4.2 4.2 0 011.4-.49 3.75 3.75 0 011.51.15h.14v-1.09zm.97 2.43a3.91 3.91 0 00-5.14.6 10.81 10.81 0 00.34 3.71l.66 2c.54 1.61 1.68 3.58 2.68 3.47s1.66-2.3 1.81-4l.18-2.1a10.78 10.78 0 00-.53-3.69m-3.11 6l-.15-1.32c-.24 0-.47-.29-.52-.7l-.09-.79c0-.42.1-.78.34-.8l.45-.05c.24 0 .47.29.52.7l.12 1a.66.66 0 00.23.46c.09.86.18 1.88.18 1.9l-.4.51c-.31 0-.61-.37-.67-.91m1.56 2.19h-.19c-.18 0-.41-.26-.56-.54a.4.4 0 010-.34 3.35 3.35 0 01.36-.56.18.18 0 01.28 0 3.44 3.44 0 01.48.46.41.41 0 01.06.34c-.08.3-.24.64-.42.66m1-4.6c0 .42-.1.78-.34.8l.16 1.32c.06.54-.13 1-.44 1l-.51-.41s-.15-1-.27-1.89a.67.67 0 00.12-.51l-.12-1c0-.42.1-.78.34-.8l.45-.05c.24 0 .47.29.52.7z"/><path class="cls-5" d="M300.55 361.37c-.61 5.19 1.3 9.68 4.27 10s5.87-3.57 6.48-8.76-1.3-9.68-4.27-10-5.87 3.57-6.48 8.76"/><path class="cls-14" d="M300.16 361.32c.65-5.55 3.77-9.77 6.95-9.39s5.23 5.19 4.58 10.75-3.77 9.77-6.94 9.39-5.23-5.19-4.58-10.75m.78.09c-.56 4.81 1.21 9 4 9.3s5.45-3.32 6-8.13-1.21-9-4-9.3-5.45 3.32-6 8.13"/><path class="cls-14" d="M304.63 356.57v-.1h.09l.28.11h.13l.34-.93h.06l.33.57h.13l.39-.66a.07.07 0 01.05 0l.23.73h.13l.45-.48h.06l.08.69v.29h.97v.41l-.17.7v.2h-.15a4.2 4.2 0 00-1.4-.49 3.75 3.75 0 00-1.51.15h-.14v-1.18m-1.84 6.11l.18 2.1c.15 1.69.8 3.88 1.81 4s2.15-1.85 2.68-3.47l.66-2a10.84 10.84 0 00.34-3.71 3.92 3.92 0 00-5.15-.6 10.81 10.81 0 00-.53 3.69m3 3.25l-.4-.51s.09-1 .18-1.9a.66.66 0 00.23-.46l.12-1c0-.42.28-.73.52-.7l.45.05c.24 0 .39.39.34.8l-.09.79c0 .42-.28.73-.52.7l-.16 1.32c-.06.54-.36.94-.67.91m-1.31.63a.41.41 0 01.07-.34 3.4 3.4 0 01.48-.46.18.18 0 01.28 0 3.41 3.41 0 01.36.56.41.41 0 010 .34c-.15.28-.38.56-.56.54h-.19c-.18 0-.34-.35-.42-.66m-.5-4.73c0-.42.28-.73.52-.7l.45.05c.24 0 .39.39.34.8l-.12 1a.66.66 0 00.12.51c-.12.86-.26 1.87-.27 1.89l-.51.41c-.31 0-.51-.5-.44-1l.16-1.32c-.24 0-.39-.39-.34-.8z"/></g></g></g></g><path id="neck" fill="#ad7f60" d="M427.61 339.42l-27.59 8.62-28.6-9.62-1.92-23.62h61.04l-2.93 24.62z"/><path d="M502.88 421.91l-2.47-83.84c-1.19-11.87-11.83-22.25-23.72-23.14l-37.14-2.71c-4.07-.45-20.52-.09-39.55.53-19-.62-35.48-1-39.55-.53l-37.14 2.71c-11.89.89-22.53 11.27-23.72 23.14l-2.47 83.84a20.15 20.15 0 005 15.74 19.92 19.92 0 001.69 1.64v12.87c0 12.81 9.32 23.22 20.78 23.22a19.8 19.8 0 0015.25-7.38v21.79a12.23 12.23 0 007.74 11.36v68h-5.93c-10.93 0-19.83 5.8-19.83 17.11 0 8.06 0 17 11.72 19.7v1.6a1.38 1.38 0 001.38 1.38h1.63a1.38 1.38 0 001.38-1.37v-.95c1.16.09 2.39.15 3.73.15h1.89v.8a1.38 1.38 0 001.38 1.38h1.63a1.38 1.38 0 001.38-1.37v-.8h5.62v.8a1.38 1.38 0 001.38 1.38h1.63a1.38 1.38 0 001.38-1.37v-.8h5.62v.8a1.38 1.38 0 001.38 1.38h1.63a1.38 1.38 0 001.38-1.37v-.8h5.62v.8a1.38 1.38 0 001.38 1.38h1.63a1.38 1.38 0 001.38-1.37v-.8h5.62v.8a1.38 1.38 0 001.38 1.38h1.63a1.38 1.38 0 001.38-1.37v-.8h5.62v.8a1.38 1.38 0 001.38 1.38h1.63a1.38 1.38 0 001.38-1.37v-.81l.06-55.45V502h4v49.21l.06 54.67v1.6a1.38 1.38 0 001.38 1.38h1.63a1.38 1.38 0 001.38-1.37v-.8h5.62v.8a1.38 1.38 0 001.38 1.38h1.63a1.38 1.38 0 001.38-1.37v-.8h5.62v.8a1.38 1.38 0 001.38 1.38h1.63a1.38 1.38 0 001.38-1.37v-.8h5.62v.8a1.38 1.38 0 001.38 1.38h1.63a1.38 1.38 0 001.38-1.37v-.8h5.62v.8a1.38 1.38 0 001.38 1.38h1.63a1.38 1.38 0 001.38-1.37v-.8h5.62v.8a1.38 1.38 0 001.38 1.38h1.63a1.38 1.38 0 001.38-1.37v-.8h1.89c1.33 0 2.57-.05 3.72-.15v.95a1.38 1.38 0 001.38 1.38h1.63a1.38 1.38 0 001.38-1.37v-1.6c11.71-2.68 11.72-11.64 11.72-19.7 0-11.3-8.89-17.11-19.83-17.11h-5.93v-68a12.23 12.23 0 007.74-11.36V468a19.8 19.8 0 0015.21 7.42c11.46 0 20.78-10.42 20.78-23.22v-12.9a19.92 19.92 0 001.69-1.64 20.15 20.15 0 004.95-15.75zm-130.49-99.66c3.46 1.84 15.64 2.07 27.61 1.79 12 .28 24.15 0 27.61-1.79V334c0 4.8-22.42 12-27.23 12l-.38-.08-.38.08c-4.8 0-27.23-7.19-27.23-12zm-33 128.91v1.53c0 9.5-6.63 17.22-14.78 17.22s-14.78-7.73-14.78-17.22v-9.31a21.08 21.08 0 007.47 1.36h22.09zm52.9 149.93h-50.64c-14.22 0-14.22-5-14.22-14.89 0-8.21 6.38-11.5 14.22-11.5h11.67l38.93-2.7.06 15.37zm-38.74-76.4h38.67v41.71l-38.67 2.68h-.26V524.7zm-.26-5.74V502h38.94v17h-38.91zm104.77 55.75h.26c7.84 0 14.22 3.29 14.22 11.5 0 9.91 0 14.89-14.22 14.89h-50.64V587.4l.06-15.37 38.93 2.69h11.42zm-11.67-50h.26v44.4h-.26l-38.67-2.68V524.7zm-38.64-5.7v-17h38.95v17h-38.95zm46.84-73.77h-.07v44.58a6.6 6.6 0 01-6.58 6.58H403s-.11-3.73-.16-8.75v-2.79c0-3.51-1.41-5.09-2.82-5-1.41-.09-2.82 1.49-2.82 5v2.79c0 5-.16 8.75-.16 8.75H352.1a6.6 6.6 0 01-6.58-6.58v-44.63h-.07v-.33l30.24.33h48.69l30.24-.33zm35.57 7.51c0 9.5-6.63 17.22-14.78 17.22s-14.78-7.73-14.78-17.22v-7.94h22.09a21.08 21.08 0 007.47-1.36zm6-23.73a13.53 13.53 0 01-6 7.29 14.69 14.69 0 01-7.47 2l-22.09.09v-73.67c0-5.56-6.07-5.94-6.07 0s.07 14.37.07 14.37v59.59H345.41v-59.61s.07-8.46.07-14.37-6.07-5.54-6.07 0v73.59l-22.09-.09a14.69 14.69 0 01-7.47-2 13.53 13.53 0 01-6-7.29 14.89 14.89 0 01-.75-6.46l2.47-83.84c.89-9 9.23-17.08 18.2-17.75l11.12-.83 32.22-2.29c.68.54.48 17.49.48 17.49 0 8.43 23.34 15.29 31.77 15.29h1.3c8.43 0 31.77-6.86 31.77-15.29 0 0-.2-16.95.48-17.49l32.22 2.29 11.12.83c9 .67 17.3 8.8 18.2 17.75l2.47 83.84a14.89 14.89 0 01-.77 6.55z" id="border"/><g id="head"><path id="skin-2" data-name="skin" class="cls-3" d="M446.38 253.1c0-.91.08-1.81.08-2.73 0-30.51-21.06-55.25-47-55.25s-47 24.74-47 55.25c0 1.11 0 2.21.1 3.31-4 2.46-6.9 8.44-6.9 15.43 0 9.19 4.93 16.64 11 16.64a7.47 7.47 0 002.1-.31c.82 24.5 18.74 44.08 40.73 44.08s40.12-19.81 40.74-44.5a7.65 7.65 0 003.25.74c6.08 0 11-7.45 11-16.64-.05-7.65-3.48-14.06-8.1-16.02z"/><path class="cls-16" d="M354.81 228.56c-3.25 8.89-2.81 20.19-.06 26.19 0 0 7.25-9.5 8.75-14.5a61.23 61.23 0 002.75-14.81c.3-3.79-2.14-4.74-2.17-5l-6.75 3.25c.16 1.77-1.58 2.31-2.52 4.87z"/><path d="M399.42 332.51c-22.68 0-41.28-19-43.53-43.79-7.52-.49-13.31-8.93-13.31-19.61 0-7 2.64-13.45 6.84-16.92v-1.82c0-32.12 22.45-58.25 50-58.25s50 26.13 50 58.25v1c4.85 3.17 8 10 8 17.76 0 11-6.15 19.64-14 19.64H443c-2.3 24.79-20.83 43.74-43.58 43.74zm-40.73-50.08a3 3 0 013 2.9c.77 23.09 17.35 41.18 37.73 41.18 20.58 0 37.15-18.26 37.74-41.58a3 3 0 014.27-2.64 4.68 4.68 0 002 .46c4.34 0 8-6.24 8-13.64 0-7-3.13-11.94-6.21-13.24a3 3 0 01-1.83-2.89v-.18c0-.8.07-1.61.07-2.42 0-28.81-19.75-52.25-44-52.25s-44 23.44-44 52.25c0 .92 0 1.89.09 3.16a3 3 0 01-1.44 2.71c-3.27 2-5.46 7.16-5.46 12.86 0 7.39 3.67 13.64 8 13.64a4.49 4.49 0 001.26-.19 3 3 0 01.78-.13z" fill="#231f20"/><path class="cls-16" d="M445.19 228.56c3.25 8.89 2.81 20.19.06 26.19 0 0-7.25-9.5-8.75-14.5a61.23 61.23 0 01-2.75-14.81c-.3-3.79 2.14-4.74 2.17-5l6.75 3.25c-.16 1.77 1.58 2.31 2.52 4.87z"/><path d="M446.91 207c-1.5-9-14.41-16.51-23.41-20.26s-38-3.75-47 0S354.59 198 353.09 207c-1 6.29-2.78 16.66-.22 23.93l10.82-5.32a11 11 0 004.68-4.6c1.83-3.3 6.52-6.52 7.25-6.52 1 0 17.65 2.75 24.38 2.75s23.38-2.75 24.38-2.75c.73 0 5.42 3.22 7.25 6.52a11 11 0 004.68 4.6l10.82 5.32c2.56-7.26.87-17.63-.22-23.93z"/></g></svg>