<svg id="player" xmlns="http://www.w3.org/2000/svg" viewBox="0 0 800 800"><defs><clipPath id="clip-path"><path class="cls-1" d="M300.01 350.73h199.97v20.19H300.01z"/></clipPath><clipPath id="clip-path-2"><path class="cls-1" d="M300.01 350.73h199.97v20.19H300.01z"/></clipPath><style>.cls-1{fill:none}.cls-2{fill:#755239}.cls-3{opacity:.5}.cls-4{fill:#3f2b1e}.cls-5{fill:#353535}.cls-6{fill:#175931}.cls-7{fill:#fff}.cls-8{fill:#871636}.cls-9{fill:#a5def2}.cls-10{fill:#f8e700}.cls-15{fill:#3e1952}.cls-17{fill:#231f20}</style></defs><g id="skin"><path id="arm-left" class="cls-2" d="M305.93 382h36.78v72.4a18.39 18.39 0 01-18.39 18.39 18.39 18.39 0 01-18.39-18.39V382z"/><path id="arm-right" class="cls-2" d="M457.19 382H494v72.4a18.39 18.39 0 01-18.39 18.39 18.39 18.39 0 01-18.39-18.39V382h-.03z"/><path id="leg-left" class="cls-2" d="M349.88 492.02h45.67v45.67h-45.67z"/><path id="leg-right" class="cls-2" d="M404.78 492.02h45.67v45.67h-45.67z"/><g id="tatoos" class="cls-3"><path class="cls-4" d="M307 392s7 8.17 17.55 7.58 18.16-6 18.16-7.58-4.74-4.33-18.39-4-16.25 1.27-17.32 4zm.42 7.17l10 7.18a2.69 2.69 0 011.12 2.18v.54a2.69 2.69 0 01-4.08 2.3l-7-4.22zM307 417.5l.63 13.67h3.91a3.88 3.88 0 003.88-3.88v-6.55a3.88 3.88 0 00-4.44-3.83zm22.42-3.96l.18 5.77a8.67 8.67 0 009.28 8.38l3.83-.27-.92-25.42-7.34 3.39a8.67 8.67 0 00-5.03 8.15z"/><path class="cls-4" d="M322.31 406.89l-3.52 10.5a4.79 4.79 0 00-.24 1.76l.64 12.81a4.79 4.79 0 004.94 4.55h.84a4.79 4.79 0 004.11-7l-3.4-6.66a4.78 4.78 0 01-.37-3.37c1.15-4.47 4.12-16 4.11-15.9s-1.21 0-2.54 0a4.79 4.79 0 00-4.57 3.31z"/><path class="cls-4" d="M341.33 432.67s-10.92 12-32.67 5.71v5.17s24.08 5.79 28.25 1.63 6.26-5.18 4.42-12.51z"/></g><g id="tatoos-2" data-name="tatoos" class="cls-3"><path class="cls-4" d="M494.07 392s-7 8.17-17.55 7.58-18.16-6-18.16-7.58 4.74-4.33 18.39-4 16.25 1.27 17.32 4zm-.42 7.17l-10 7.18a2.69 2.69 0 00-1.12 2.18v.54a2.69 2.69 0 004.08 2.3l7-4.22zm.42 18.33l-.63 13.67h-3.91a3.88 3.88 0 01-3.88-3.88v-6.55a3.88 3.88 0 014.44-3.83zm-22.43-3.96l-.18 5.77a8.67 8.67 0 01-9.28 8.38l-3.83-.27.92-25.39 7.34 3.39a8.67 8.67 0 015.03 8.12z"/><path class="cls-4" d="M478.76 406.89l3.52 10.5a4.79 4.79 0 01.24 1.76l-.63 12.85a4.79 4.79 0 01-4.94 4.55h-.84a4.79 4.79 0 01-4.11-7l3.4-6.66a4.78 4.78 0 00.37-3.37c-1.15-4.47-4.12-16-4.11-15.9s1.21 0 2.54 0a4.79 4.79 0 014.56 3.27z"/><path class="cls-4" d="M459.74 432.67s10.92 12 32.67 5.71v5.17s-24.08 5.79-28.25 1.63-6.26-5.18-4.42-12.51z"/></g></g><g id="boots"><path id="left" class="cls-5" d="M395.33 570.04H372.5l-22.83 1.97h-12.5l-7.5 2.53-5.25 8.5v9.83l1.91 4.17 3.84 4.05 6.33 1.95h58.83v-33z"/><path id="right" class="cls-5" d="M404.61 570.27h22.83l22.83 1.97h12.5l7.5 2.53 5.25 8.5v9.83l-1.91 4.17-3.84 4.05-6.33 1.95h-58.83v-33z"/><g id="details"><path class="cls-6" d="M395.42 580.38s-65.42 25.37-69.25 13.87c0 0-1.87-12.87 1.88-16.37s7.75-6.75 20-6.12l47.5-3.12z"/><path class="cls-7" d="M372.63 583s-32.22-.63-31.79 3 25.22 6.51 31.39 5.75 11.32-6.3.4-8.75z"/><path class="cls-6" d="M404.53 580.38s65.38 25.38 69.25 13.88c0 0 1.88-12.87-1.87-16.37s-7.75-6.75-20-6.12l-47.5-3.12z"/><path class="cls-7" d="M427.31 583s32.22-.63 31.79 3-25.22 6.51-31.39 5.75-11.32-6.3-.4-8.75z"/></g></g><g id="socks"><g id="socks-2" data-name="socks"><path id="left-2" data-name="left" class="cls-7" d="M349.88 522h45.67v48.04h-45.67z"/><path id="right-2" data-name="right" class="cls-7" d="M404.38 522h45.67v48.04h-45.67z"/></g><path class="cls-8" d="M350.13 521.38h45.63v15.13h-45.63zm54.27 0h45.63v15.13H404.4z" id="details-2" data-name="details"/></g><g id="shorts"><path id="shorts-2" data-name="shorts" class="cls-7" d="M341.67 442.54h116.49v47a9.95 9.95 0 01-9.95 9.95h-96.6a9.95 9.95 0 01-9.95-9.95v-47h.01z"/><path class="cls-9" d="M344.5 443.25h7.77v53.38h-7.77zm103.06 0h7.77v53.38h-7.77z" id="details-3" data-name="details"/></g><g id="shirt"><path id="shirt-2" data-name="shirt" class="cls-8" d="M369.5 314.8l-48.29 2.99-11.36 6.25-6.83 10.1-3.31 40.73 5.17 7.67 7.66 4.67h29.5l.17 54h114.83v-53.5l29.34-.17 7.01-4 6.99-10.5-3.4-37.33-6.83-11.84-9.77-6.08-49.84-2.99-1 21.24-6.5 6.5-11.16 3.48-11.88 2.02-15.46-3.17-11-5.66-3.66-3.84-.38-20.57z"/><g id="details-4" data-name="details"><path id="left-3" data-name="left" class="cls-9" d="M342 353.94a7.71 7.71 0 00-7.27 7.81v12.09a5.19 5.19 0 01-5.53 5.16l-14.7-1c-4.07 0-5.74-5.77-5.75-5.83-1.12-5.93 2.17-33.4 2.33-34.54a13.66 13.66 0 0111.3-11.63c6.75-1.12 47.16-3.88 47.16-3.88v-7.32l-48.29 3s-12.55 1.86-18.19 16.35-2.27 39.74-2.27 39.74 2.13 10 8.13 11.63 17.5 3.25 23.38 2.25l2.5-.41v1.36c0 1.93 4.67-2.44 5.88.3 1.37 3.12-.58 13.25 1.63 13.25a7.5 7.5 0 007.5-7.5v-33.33a7.5 7.5 0 00-7.81-7.5z"/><path id="right-3" data-name="right" class="cls-9" d="M458.08 353.94a7.71 7.71 0 017.27 7.81v12.09a5.19 5.19 0 005.55 5.16l14.7-1c4.07 0 5.74-5.77 5.75-5.83 1.13-5.93-2.17-33.4-2.33-34.54a13.66 13.66 0 00-11.3-11.63c-6.75-1.12-47.16-3.88-47.16-3.88v-7.32l48.29 3s12.55 1.86 18.19 16.35 2.27 39.74 2.27 39.74-2.12 10-8.12 11.63-17.5 3.25-23.37 2.25l-2.5-.41v1.36c0 1.93-4.67-2.44-5.87.3-1.37 3.12.58 13.25-1.62 13.25a7.5 7.5 0 01-7.5-7.5v-33.33a7.5 7.5 0 017.75-7.5z"/><path id="neck" class="cls-7" d="M420.22 341.39c-2.43 1.91-20.17 7.32-20.17 7.32s-19.83-5.41-22.26-7.32-5.62 4.65-5.62 4.65 19.83 8.34 27.83 8.34 25.84-8.38 25.84-8.38-3.19-6.52-5.62-4.61z"/><g id="crest-burnley-16"><path class="cls-9" d="M439.81 372.43l-4.35 2.57a2.67 2.67 0 01-2.69 0l-4.35-2.53a3.52 3.52 0 01-1.75-3v-10.24a3.4 3.4 0 013.4-3.4h8.09a3.4 3.4 0 013.4 3.4v10.16a3.52 3.52 0 01-1.75 3.04z"/><path class="cls-10" d="M434.11 376.19a3.54 3.54 0 01-1.78-.48l-4.33-2.53a4.4 4.4 0 01-2.18-3.79v-10.16a4.27 4.27 0 014.27-4.27h8.09a4.27 4.27 0 014.27 4.27v10.16a4.4 4.4 0 01-2.18 3.79l-4.35 2.53a3.54 3.54 0 01-1.81.48zm-4-19.5a2.54 2.54 0 00-2.54 2.54v10.16a2.67 2.67 0 001.32 2.3l4.35 2.53a1.81 1.81 0 001.82 0l4.35-2.53a2.67 2.67 0 001.32-2.3v-10.16a2.54 2.54 0 00-2.54-2.54z"/><path d="M439.05 361.07a2.26 2.26 0 00-2.26-2.26h-5.16a2.26 2.26 0 00-2.26 2.26v.62h9.69z" fill="#10121e"/><path class="cls-10" d="M439.05 367.58v-5.88h-9.69v5.88l2.8-2.8a2.89 2.89 0 014.08 0z"/><path class="cls-10" d="M429.93 369.37a2.74 2.74 0 001 .81 7.58 7.58 0 006.58 0 2.74 2.74 0 001-.81l-4.28-4.28z"/><path class="cls-8" d="M439.05 367.58l-3.41-3.41a2 2 0 00-2.86 0l-3.41 3.41v.13a2.74 2.74 0 00.56 1.66l2.85-2.85a2 2 0 012.86 0l2.85 2.85a2.74 2.74 0 00.56-1.66z"/></g><rect class="cls-7" x="361.35" y="354.75" width="4.76" height="12.18" rx="2.38" ry="2.38" transform="rotate(-63.52 363.751 360.846)" id="brand-puma"/><g id="sponsor-dafabet"><path d="M400.33 393.81a10.34 10.34 0 1110.34-10.34 10.35 10.35 0 01-10.34 10.34zm0-18a7.65 7.65 0 107.65 7.65 7.66 7.66 0 00-7.65-7.64z" fill="#f3cb14"/><rect class="cls-7" x="361.61" y="397.45" width="77.44" height="12.3" rx="6.15" ry="6.15"/></g><g clip-path="url(#clip-path)"><g clip-path="url(#clip-path-2)" id="logo-pl-ready-16"><path class="cls-7" d="M499.48 360.19c.61 5.19-1.3 9.68-4.27 10s-5.87-3.57-6.48-8.76 1.3-9.68 4.27-10 5.87 3.57 6.48 8.76"/><path class="cls-15" d="M495.29 370.9c-3.18.37-6.29-3.84-6.95-9.4s1.4-10.37 4.58-10.75 6.29 3.84 6.95 9.39-1.4 10.38-4.58 10.75m-2.21-18.79c-2.75.32-4.53 4.5-4 9.3s3.26 8.45 6 8.13 4.53-4.49 4-9.3-3.26-8.45-6-8.13"/><path class="cls-15" d="M495.39 355.4v-.1h-.09l-.28.11h-.13l-.34-.93h-.06l-.33.57h-.13l-.39-.66a.07.07 0 00-.05 0l-.23.73h-.13l-.45-.48h-.06l-.08.69v.29h-1v.22l.17.7v.2h.15a4.2 4.2 0 011.4-.49 3.75 3.75 0 011.51.15h.14v-1.09zm.97 2.43a3.91 3.91 0 00-5.14.6 10.81 10.81 0 00.34 3.71l.66 2c.54 1.61 1.68 3.58 2.68 3.47s1.66-2.3 1.81-4l.18-2.1a10.78 10.78 0 00-.53-3.69m-3.11 6l-.15-1.32c-.24 0-.47-.29-.52-.7l-.09-.79c0-.42.1-.78.34-.8l.45-.05c.24 0 .47.29.52.7l.12 1a.66.66 0 00.23.46c.09.86.18 1.88.18 1.9l-.4.51c-.31 0-.61-.37-.67-.91m1.56 2.19h-.19c-.18 0-.41-.26-.56-.54a.4.4 0 010-.34 3.35 3.35 0 01.36-.56.18.18 0 01.28 0 3.44 3.44 0 01.48.46.41.41 0 01.06.34c-.08.3-.24.64-.42.66m1-4.6c0 .42-.1.78-.34.8l.16 1.32c.06.54-.13 1-.44 1l-.51-.41s-.15-1-.27-1.89a.67.67 0 00.12-.51l-.12-1c0-.42.1-.78.34-.8l.45-.05c.24 0 .47.29.52.7z"/><path class="cls-7" d="M300.52 360.19c-.61 5.19 1.3 9.68 4.27 10s5.87-3.57 6.48-8.76-1.3-9.68-4.27-10-5.87 3.57-6.48 8.76"/><path class="cls-15" d="M300.13 360.15c.65-5.55 3.77-9.77 6.95-9.39s5.23 5.19 4.58 10.75-3.77 9.77-6.94 9.39-5.23-5.19-4.58-10.75m.78.09c-.56 4.81 1.21 9 4 9.3s5.45-3.32 6-8.13-1.21-9-4-9.3-5.45 3.32-6 8.13"/><path class="cls-15" d="M304.61 355.4v-.1h.09l.28.11h.13l.34-.93h.06l.33.57h.13l.39-.66a.07.07 0 01.05 0l.23.73h.13l.45-.48h.06l.08.69v.29h.99v.28l-.17.7v.2h-.15a4.2 4.2 0 00-1.4-.49 3.75 3.75 0 00-1.51.15h-.14v-1.18m-1.87 6.24l.18 2.1c.15 1.69.8 3.88 1.81 4s2.15-1.85 2.68-3.47l.66-2a10.84 10.84 0 00.34-3.71 3.92 3.92 0 00-5.15-.6 10.81 10.81 0 00-.53 3.69m3 3.25l-.4-.51s.09-1 .18-1.9a.66.66 0 00.23-.46l.12-1c0-.42.28-.73.52-.7l.45.05c.24 0 .39.39.34.8l-.09.79c0 .42-.28.73-.52.7l-.16 1.32c-.06.54-.36.94-.67.91m-1.31.63a.41.41 0 01.06-.34 3.4 3.4 0 01.48-.46.18.18 0 01.28 0 3.41 3.41 0 01.36.56.41.41 0 010 .34c-.15.28-.38.56-.56.54h-.19c-.18 0-.34-.35-.42-.66m-.5-4.73c0-.42.28-.73.52-.7l.45.05c.24 0 .39.39.34.8l-.12 1a.66.66 0 00.12.51c-.12.86-.26 1.87-.27 1.89l-.51.41c-.31 0-.51-.5-.44-1l.16-1.32c-.24 0-.39-.39-.34-.8z"/></g></g><rect class="cls-8" x="303.55" y="333.63" width="4.76" height="12.18" rx="2.38" ry="2.38" transform="rotate(-63.52 305.952 339.723)" id="brand-puma-2" data-name="brand-puma"/><rect class="cls-8" x="491.59" y="333.63" width="4.76" height="12.18" rx="2.38" ry="2.38" transform="rotate(-116.48 493.949 339.724)" id="brand-puma-3" data-name="brand-puma"/></g></g><path id="neck-2" data-name="neck" fill="#593e2d" d="M427.63 340.26l-27.59 8.62-28.6-9.62-1.92-23.62h61.04l-2.93 24.62z"/><path d="M502.88 368.43l-2.47-30.36c-1.19-11.87-11.83-22.25-23.72-23.14l-37.14-2.71c-4.07-.45-20.52-.09-39.55.53-19-.62-35.48-1-39.55-.53l-37.14 2.71c-11.89.89-22.53 11.27-23.72 23.14l-2.47 30.36a20.15 20.15 0 005 15.74 19.92 19.92 0 001.69 1.64v66.36c0 12.81 9.32 23.22 20.78 23.22a19.8 19.8 0 0015.25-7.39v21.79a12.23 12.23 0 007.74 11.36v68h-5.93c-10.93 0-19.83 5.8-19.83 17.11 0 8.06 0 17 11.72 19.7v1.6a1.38 1.38 0 001.38 1.38h1.63a1.38 1.38 0 001.38-1.37v-.95c1.16.09 2.39.15 3.73.15h1.89v.8a1.38 1.38 0 001.38 1.38h1.63a1.38 1.38 0 001.38-1.37v-.8h5.62v.8a1.38 1.38 0 001.38 1.38h1.63a1.38 1.38 0 001.38-1.37v-.8h5.62v.8a1.38 1.38 0 001.38 1.38h1.63a1.38 1.38 0 001.38-1.37v-.8h5.62v.8a1.38 1.38 0 001.38 1.38h1.63a1.38 1.38 0 001.38-1.37v-.8h5.62v.8a1.38 1.38 0 001.38 1.38h1.63a1.38 1.38 0 001.38-1.37v-.8h5.62v.8a1.38 1.38 0 001.38 1.38h1.63a1.38 1.38 0 001.38-1.37v-.81l.06-55.45V502h4v49.21l.06 54.67v1.6a1.38 1.38 0 001.38 1.38h1.63a1.38 1.38 0 001.38-1.37v-.8h5.62v.8a1.38 1.38 0 001.38 1.38h1.63a1.38 1.38 0 001.38-1.37v-.8h5.62v.8a1.38 1.38 0 001.38 1.38h1.63a1.38 1.38 0 001.38-1.37v-.8h5.62v.8a1.38 1.38 0 001.38 1.38h1.63a1.38 1.38 0 001.38-1.37v-.8h5.62v.8a1.38 1.38 0 001.38 1.38h1.63a1.38 1.38 0 001.38-1.37v-.8h5.62v.8a1.38 1.38 0 001.38 1.38h1.63a1.38 1.38 0 001.38-1.37v-.8h1.89c1.33 0 2.57-.05 3.72-.15v.95a1.38 1.38 0 001.38 1.38h1.63a1.38 1.38 0 001.38-1.37v-1.6c11.71-2.68 11.72-11.64 11.72-19.7 0-11.3-8.89-17.11-19.83-17.11h-5.93v-68a12.23 12.23 0 007.74-11.36V468a19.8 19.8 0 0015.21 7.42c11.46 0 20.78-10.42 20.78-23.22v-66.39a19.92 19.92 0 001.69-1.64 20.15 20.15 0 004.95-15.74zm-130.49-46.18c3.46 1.84 15.64 2.07 27.61 1.79 12 .28 24.15 0 27.61-1.79V334c0 4.8-22.42 12-27.23 12l-.38-.08-.38.08c-4.8 0-27.23-7.19-27.23-12zm-33 75.43v55c0 9.5-6.63 17.22-14.78 17.22s-14.78-7.73-14.78-17.22V389.9a21.08 21.08 0 007.47 1.36h22.09zm52.9 203.42h-50.64c-14.22 0-14.22-5-14.22-14.89 0-8.21 6.38-11.5 14.22-11.5h11.67l38.93-2.71.06 15.37zm-38.74-76.4h38.67v41.7l-38.67 2.68h-.26V524.7zm-.26-5.74V502h38.94v17h-38.91zm104.77 55.75h.26c7.84 0 14.22 3.29 14.22 11.5 0 9.91 0 14.89-14.22 14.89h-50.64v-13.7l.06-15.37 38.93 2.69h11.42zm-11.67-50h.26v44.4h-.26l-38.67-2.68V524.7zM407.75 519v-17h38.95v17h-38.95zm46.84-73.77h-.07v44.58a6.6 6.6 0 01-6.58 6.58H403s-.11-3.73-.16-8.75v-2.79c0-3.51-1.41-5.09-2.82-5-1.41-.09-2.82 1.49-2.82 5v2.79c0 5-.16 8.75-.16 8.75H352.1a6.6 6.6 0 01-6.58-6.58v-44.63h-.07v-.33l30.24.33h48.69l30.24-.33zm35.57 7.51c0 9.5-6.63 17.22-14.78 17.22s-14.78-7.73-14.78-17.22v-61.48h22.09a21.08 21.08 0 007.47-1.36zm6-77.21a13.53 13.53 0 01-6 7.29 14.69 14.69 0 01-7.47 2l-22.09.09v-20.19c0-5.56-6.07-5.94-6.07 0s.07 14.37.07 14.37v59.59H345.41v-59.61s.07-8.46.07-14.37-6.07-5.54-6.07 0v20.11l-22.09-.09a14.69 14.69 0 01-7.47-2 13.53 13.53 0 01-6-7.29 14.89 14.89 0 01-.75-6.46l2.47-30.36c.89-9 9.23-17.08 18.2-17.75l11.12-.83 32.22-2.29c.68.54.48 17.49.48 17.49 0 8.43 23.34 15.29 31.77 15.29h1.3c8.43 0 31.77-6.86 31.77-15.29 0 0-.2-16.95.48-17.49l32.22 2.29 11.12.83c9 .67 17.3 8.8 18.2 17.75L496.9 369a14.89 14.89 0 01-.75 6.48z" id="border"/><g id="shirt-collars"><path class="cls-9" d="M379 339.07l-8.52 8.72s-13.48-4.45-12.37-19.86.31-12.55.31-12.55l8 .36z"/><path class="cls-17" d="M370.46 350.09a2.3 2.3 0 01-.72-.12c-.15 0-15.17-5.21-13.95-22.22.52-7.2.6-10.12.58-11.29a2.31 2.31 0 01-.19-1.72 2.41 2.41 0 012.74-1.86 2.64 2.64 0 01.73.23l6.88.31a2.31 2.31 0 011.93 1.21L381 338a2.31 2.31 0 01-.38 2.71l-8.52 8.72a2.31 2.31 0 01-1.64.66zM361 317.8c-.05 2.19-.25 5.65-.58 10.29-.41 5.66 1.29 10.33 5 13.86a18.58 18.58 0 004.47 3.09l6.23-6.38L365 318z"/><path class="cls-9" d="M419 339.07l8.52 8.72s13.48-4.45 12.37-19.86-.31-12.55-.31-12.55l-8 .36z"/><path class="cls-17" d="M425.89 349.4l-8.52-8.72A2.31 2.31 0 01417 338l12.56-23.33a2.31 2.31 0 011.93-1.21l6.88-.31a2.64 2.64 0 01.73-.23 2.41 2.41 0 012.74 1.86 2.31 2.31 0 01-.19 1.72c0 1.16.07 4.08.58 11.29 1.23 17-13.8 22.17-13.95 22.22a2.31 2.31 0 01-2.37-.58zM433 318l-11.14 20.68 6.23 6.38a18.58 18.58 0 004.47-3.09c3.76-3.53 5.46-8.2 5-13.86-.33-4.64-.53-8.1-.58-10.29z"/></g><g id="head"><path id="skin-2" data-name="skin" class="cls-2" d="M446.38 253.1c0-.91.08-1.81.08-2.73 0-30.51-21.06-55.25-47-55.25s-47 24.74-47 55.25c0 1.11 0 2.21.1 3.31-4 2.46-6.9 8.44-6.9 15.43 0 9.19 4.93 16.64 11 16.64a7.47 7.47 0 002.1-.31c.82 24.5 18.74 44.08 40.73 44.08s40.12-19.81 40.74-44.5a7.65 7.65 0 003.25.74c6.08 0 11-7.45 11-16.64-.05-7.65-3.48-14.06-8.1-16.02z"/><path d="M420 308.88a2.55 2.55 0 01-4.14-.67c-1.56-3.27-4.22-8.17-6.21-8.25l-10-.3-10 .3c-2 .08-4.66 5-6.21 8.25a2.55 2.55 0 01-4.14.67c-6.16-6.38-19.15-24.42-19.15-24.42v12.88l16.63 25.75 22.83 7.71v-.37l.08.37 22.83-7.71 16.63-25.75v-12.88S426.14 302.5 420 308.88zm-20.35 11.6c-11.46 1-13.33-8.23-13.33-8.23-.46-8.33 13.33-7.17 13.33-7.17 9.21.17 11.54 4.79 11.59 6s-.15 8.38-11.61 9.4z" opacity=".2" fill="#422d22"/><path d="M364.75 221s-.83 27.54-11.58 28.24c0 0 .75-23.06 5.17-27.54s6.42-1.7 6.41-.7zm70.5 0s-.24 27.54 10.51 28.24c0 0 .33-23.06-4.09-27.54s-6.43-1.7-6.42-.7z" fill="#422d22"/><path class="cls-17" d="M399.42 332.51c-22.68 0-41.28-19-43.53-43.79-7.52-.49-13.31-8.93-13.31-19.61 0-7 2.64-13.45 6.84-16.92v-1.82c0-32.12 22.45-58.25 50-58.25s50 26.13 50 58.25v1c4.85 3.17 8 10 8 17.76 0 11-6.15 19.64-14 19.64H443c-2.3 24.79-20.83 43.74-43.58 43.74zm-40.73-50.08a3 3 0 013 2.9c.77 23.09 17.35 41.18 37.73 41.18 20.58 0 37.15-18.26 37.74-41.58a3 3 0 014.27-2.64 4.68 4.68 0 002 .46c4.34 0 8-6.24 8-13.64 0-7-3.13-11.94-6.21-13.24a3 3 0 01-1.83-2.89v-.18c0-.8.07-1.61.07-2.42 0-28.81-19.75-52.25-44-52.25s-44 23.44-44 52.25c0 .92 0 1.89.09 3.16a3 3 0 01-1.44 2.71c-3.27 2-5.46 7.16-5.46 12.86 0 7.39 3.67 13.64 8 13.64a4.49 4.49 0 001.26-.19 3 3 0 01.78-.13z"/><path class="cls-17" d="M440.58 212.5c-3.83-7.5-7.5-8.75-7.5-8.75a9.09 9.09 0 00-6.58-5.5c-2.42-3.08-9.17-5.17-9.17-5.17a9.25 9.25 0 00-7.83-2.08c-3.08-1.92-9.5-.78-9.5-.78s-6.42-1.14-9.5.78a9.25 9.25 0 00-7.83 2.08s-6.75 2.08-9.17 5.17a9.09 9.09 0 00-6.58 5.5s-3.67 1.25-7.5 8.75c0 0-5.42 8.81-5.92 14.73 0 0 .55 1.85 4.53.52 0 0 10-6.5 11.51-9.5s20-5.92 30.46-5.92 29 2.92 30.46 5.92 11.51 9.5 11.51 9.5c4 1.33 3.78.63 3.78.63-.49-5.91-5.17-15.88-5.17-15.88z"/></g></svg>