<svg id="player" xmlns="http://www.w3.org/2000/svg" viewBox="0 0 800 800"><defs><clipPath id="clip-path"><path class="cls-1" d="M300.04 351.36h199.97v20.19H300.04z"/></clipPath><style>.cls-1{fill:none}.cls-2{fill:#d3ad98}.cls-3{fill:#262626}.cls-4{fill:#1a4c3c}.cls-5{fill:#fff}.cls-6{fill:#1458a8}.cls-7{fill:#125696}.cls-9{clip-path:url(#clip-path)}.cls-10{fill:#3e1952}.cls-12{fill:#ed2426}.cls-17{fill:#2d2317;opacity:.1}</style></defs><g id="skin"><path id="arm-left" class="cls-2" d="M305.93 382h36.78v72.4a18.39 18.39 0 01-18.39 18.39 18.39 18.39 0 01-18.39-18.39V382z"/><path id="arm-right" class="cls-2" d="M457.19 382H494v72.4a18.39 18.39 0 01-18.39 18.39 18.39 18.39 0 01-18.39-18.39V382h-.03z"/><path id="leg-left" class="cls-2" d="M349.88 492.02h45.67v45.67h-45.67z"/><path id="leg-right" class="cls-2" d="M404.78 492.02h45.67v45.67h-45.67z"/></g><g id="boots"><path id="left" class="cls-3" d="M395.54 570.04h-22.83l-22.83 1.97h-12.5l-7.5 2.53-5.25 8.5v9.83l1.91 4.17 3.84 4.05 6.33 1.95h58.83v-33z"/><path id="right" class="cls-3" d="M404.67 570.04h22.83l22.83 1.97h12.5l7.5 2.53 5.25 8.5v9.83l-1.91 4.17-3.84 4.05-6.33 1.95h-58.83v-33z"/><g id="details"><g id="left-2" data-name="left"><path class="cls-4" d="M395.54 580.44s-63.42 16.5-70.88 10.89c-4.05-3 2.59-16.26 5.21-16.79s7.38-2.35 20-2.53 45.13-3.34 45.13-3.34z"/><path class="cls-5" d="M381.57 582.56a3.18 3.18 0 00-3.79-2.29c-7.78 1.61-30.78 6.6-31.78 9.36-1.25 3.31 28.81.13 33.94-3.37 1.93-1.33 1.85-2.73 1.63-3.7z"/></g><g id="right-2" data-name="right"><path class="cls-4" d="M404.67 580.44s63.42 16.5 70.88 10.89c4.05-3-2.59-16.26-5.21-16.79s-7.38-2.35-20-2.53-45.12-3.35-45.12-3.35z"/><path class="cls-5" d="M418.64 582.56a3.18 3.18 0 013.79-2.29c7.75 1.61 30.75 6.61 31.78 9.36 1.25 3.31-28.81.13-33.94-3.37-1.93-1.33-1.85-2.73-1.63-3.7z"/></g></g></g><g id="socks"><path id="left-3" data-name="left" class="cls-5" d="M349.88 522h45.67v48.04h-45.67z"/><path id="right-3" data-name="right" class="cls-5" d="M404.38 522h45.67v48.04h-45.67z"/><path class="cls-6" d="M349.67 529.5H396v13.17h-46.33zm54.38 0h46.33v13.17h-46.33z" id="details-2" data-name="details"/></g><g id="shorts"><path id="shorts-2" data-name="shorts" class="cls-6" d="M341.67 442.54h116.49v47a9.95 9.95 0 01-9.95 9.95h-96.6a9.95 9.95 0 01-9.95-9.95v-47h.01z"/><g id="details-3" data-name="details"><path class="cls-5" d="M347.5 442.63h2.63v54.38h-2.63zm5.25 0h2.63v54.38h-2.63z" id="left-4" data-name="left"/><path class="cls-5" d="M444.71 442.63h2.63v54.38h-2.63zm5.25 0h2.63v54.38h-2.63z" id="right-4" data-name="right"/></g></g><g id="shirt"><path id="shirt-2" data-name="shirt" class="cls-6" d="M369.5 314.8l-48.29 2.99-11.36 6.25-6.83 10.1-1.93 98.78 11.16 7.16 29.96 1.13h147.21l10.96-12.79-3.4-92.71-6.83-11.84-9.77-6.08-49.84-2.99-1 21.24-6.5 6.5-11.16 3.48-11.88 2.02-15.46-3.17-11-5.66-3.66-3.84-.38-20.57z"/><g id="details-4" data-name="details"><g id="chest-pattern"><rect class="cls-7" x="397.33" y="414.02" width="13.39" height="13.39" rx="4.05" ry="4.05"/><rect class="cls-7" x="420.11" y="418.02" width="13.39" height="13.39" rx="4.05" ry="4.05"/><rect class="cls-7" x="446.89" y="414.02" width="13.39" height="13.39" rx="4.05" ry="4.05"/><rect class="cls-7" x="366.55" y="419.02" width="13.39" height="13.39" rx="4.05" ry="4.05"/><rect class="cls-7" x="339.77" y="414.02" width="13.39" height="13.39" rx="4.05" ry="4.05"/><rect class="cls-7" x="393.33" y="389.23" width="13.39" height="13.39" rx="4.05" ry="4.05"/><rect class="cls-7" x="420.11" y="387.23" width="13.39" height="13.39" rx="4.05" ry="4.05"/><rect class="cls-7" x="446.89" y="387.23" width="13.39" height="13.39" rx="4.05" ry="4.05"/><rect class="cls-7" x="366.55" y="393.23" width="13.39" height="13.39" rx="4.05" ry="4.05"/><rect class="cls-7" x="339.77" y="387.23" width="13.39" height="13.39" rx="4.05" ry="4.05"/><rect class="cls-7" x="393.33" y="362.45" width="13.39" height="13.39" rx="4.05" ry="4.05"/><rect class="cls-7" x="420.11" y="355.45" width="13.39" height="13.39" rx="4.05" ry="4.05"/><rect class="cls-7" x="446.89" y="360.45" width="13.39" height="13.39" rx="4.05" ry="4.05"/><rect class="cls-7" x="364.55" y="356.45" width="13.39" height="13.39" rx="4.05" ry="4.05"/><rect class="cls-7" x="337.77" y="360.45" width="13.39" height="13.39" rx="4.05" ry="4.05"/></g><path class="cls-5" d="M350.13 445.5h-2.63l-6.06-52.75h2.62l6.07 52.75zm5.25 0h-2.63l-10-80.12h2.63l10 80.12z" id="stripes-left"/><path class="cls-5" d="M447.34 445.5h-2.63l10-80.12h2.63l-10 80.12zm5.25 0h-2.63l6.89-52.75h2.63l-6.89 52.75z" id="stripes-right"/><path id="neck" class="cls-5" d="M428.33 314.08l-.58 22.92-5 4.33-22.75 6.36-22.75-6.36-5-4.33-.58-22.92-6.59 1.92v18.45a12.84 12.84 0 006.52 11.2c7 4 18.55 9.43 28.4 9.43s21.37-5.48 28.4-9.43a12.84 12.84 0 006.52-11.2V316z"/><g id="sponsor_yokohama" data-name="sponsor=yokohama"><path d="M375.27 398.66h-11a2.54 2.54 0 01-2.33-3.54l3.25-7.56a2.54 2.54 0 012.33-1.54h11a2.54 2.54 0 012.33 3.54l-3.25 7.56a2.54 2.54 0 01-2.33 1.54z" fill="#e52325"/><rect class="cls-5" x="383.5" y="386.02" width="54.73" height="12.64" rx="4.93" ry="4.93"/><rect class="cls-5" x="409.79" y="400.87" width="28.44" height="9.43" rx="3.68" ry="3.68"/></g><g id="adidas"><rect id="bottom" class="cls-5" x="362.71" y="370.99" width="10.99" height="1.55" rx=".62" ry=".62"/><path class="cls-5" d="M368.26 364.7a1 1 0 00-.35 1.31l2.25 3.92a1 1 0 00.84.48h1.69l-3.11-5.41a1 1 0 00-1.32-.3zm-1.93 1.94A1 1 0 00366 368l1.11 2a1 1 0 00.84.49h1.68l-1.98-3.49a1 1 0 00-1.32-.36zm-2.13 1.7a1 1 0 00-.36 1.31l.15.27a1 1 0 00.85.5h1.68l-1-1.72a1 1 0 00-1.32-.36z"/></g><g class="cls-9" id="logo-pl-ready-16"><g class="cls-9"><path class="cls-5" d="M499.5 360.82c.61 5.19-1.3 9.68-4.27 10s-5.87-3.57-6.48-8.76 1.3-9.68 4.27-10 5.87 3.57 6.48 8.76"/><path class="cls-10" d="M495.31 371.53c-3.18.37-6.29-3.84-6.95-9.4s1.4-10.37 4.58-10.75 6.29 3.84 6.95 9.39-1.4 10.38-4.58 10.75m-2.21-18.79c-2.75.32-4.53 4.5-4 9.3s3.26 8.45 6 8.13 4.53-4.49 4-9.3-3.26-8.45-6-8.13"/><path class="cls-10" d="M495.41 356v-.1h-.09l-.32.1h-.13l-.34-.93h-.06l-.33.57h-.13l-.39-.66a.07.07 0 00-.05 0l-.23.73h-.13l-.45-.48h-.06l-.08.69v.29h-.98v.22l.17.7v.2h.15a4.2 4.2 0 011.4-.49 3.75 3.75 0 011.51.15h.14v-1.09zm.97 2.46a3.91 3.91 0 00-5.14.6 10.81 10.81 0 00.34 3.71l.66 2c.54 1.61 1.68 3.58 2.68 3.47s1.66-2.3 1.81-4l.18-2.1a10.78 10.78 0 00-.53-3.69m-3.11 6l-.15-1.32c-.24 0-.47-.29-.52-.7l-.09-.79c0-.42.1-.78.34-.8l.45-.05c.24 0 .47.29.52.7l.12 1a.66.66 0 00.23.46c.09.86.18 1.88.18 1.9l-.4.51c-.31 0-.61-.37-.67-.91m1.56 2.19h-.19c-.18 0-.41-.26-.56-.54a.4.4 0 010-.34 3.35 3.35 0 01.36-.56.18.18 0 01.28 0 3.44 3.44 0 01.48.46.41.41 0 01.06.34c-.08.3-.24.64-.42.66m1-4.6c0 .42-.1.78-.34.8l.16 1.32c.06.54-.13 1-.44 1l-.51-.41s-.15-1-.27-1.89a.67.67 0 00.12-.51l-.12-1c0-.42.1-.78.34-.8l.45-.05c.24 0 .47.29.52.7z"/><path class="cls-5" d="M300.55 360.82c-.61 5.19 1.3 9.68 4.27 10s5.87-3.57 6.48-8.76-1.3-9.68-4.27-10-5.87 3.57-6.48 8.76"/><path class="cls-10" d="M300.16 360.78c.65-5.55 3.77-9.77 6.95-9.39s5.23 5.19 4.58 10.75-3.77 9.77-6.94 9.39-5.23-5.19-4.58-10.75m.78.09c-.56 4.81 1.21 9 4 9.3s5.45-3.32 6-8.13-1.21-9-4-9.3-5.45 3.32-6 8.13"/><path class="cls-10" d="M304.63 356v-.1h.09l.28.11h.13l.34-.93h.06l.33.57h.13l.39-.66a.07.07 0 01.05 0l.23.73h.13l.45-.48h.06l.08.69v.29h.97v.28l-.17.7v.2h-.15a4.2 4.2 0 00-1.4-.49 3.75 3.75 0 00-1.51.15h-.14V356m-1.84 6.15l.18 2.1c.15 1.69.8 3.88 1.81 4s2.15-1.85 2.68-3.47l.66-2a10.84 10.84 0 00.34-3.71 3.92 3.92 0 00-5.15-.6 10.81 10.81 0 00-.53 3.69m3 3.25l-.4-.51s.09-1 .18-1.9a.66.66 0 00.23-.46l.12-1c0-.42.28-.73.52-.7l.45.05c.24 0 .39.39.34.8l-.09.79c0 .42-.28.73-.52.7l-.16 1.32c-.06.54-.36.94-.67.91m-1.31.63a.41.41 0 01.07-.34 3.4 3.4 0 01.48-.46.18.18 0 01.28 0 3.41 3.41 0 01.36.56.41.41 0 010 .34c-.15.28-.38.56-.56.54h-.19c-.18 0-.34-.35-.42-.66m-.5-4.73c0-.42.28-.73.52-.7l.45.05c.24 0 .39.39.34.8l-.12 1a.66.66 0 00.12.51c-.12.86-.26 1.87-.27 1.89l-.51.41c-.31 0-.51-.5-.44-1l.16-1.32c-.24 0-.39-.39-.34-.8z"/></g></g><g id="crest-chelsea-16"><circle class="cls-6" cx="430.63" cy="368" r="8.58"/><path d="M430.63 377.63a9.63 9.63 0 116.81-2.82 9.57 9.57 0 01-6.81 2.82zm0-18A8.36 8.36 0 10439 368a8.37 8.37 0 00-8.37-8.36z" fill="#dba227"/><circle class="cls-5" cx="430.63" cy="368" r="6.16"/><path class="cls-6" d="M434 369.77c-.38-.13-.77-3-.77-4.6 0-1.07-4.08-.64-4.28-.61a.48.48 0 00-.31.19 2.56 2.56 0 00-.51 1.44l-1 .11a.18.18 0 00-.16.21 3.51 3.51 0 00.23 1.09 6.5 6.5 0 001.15 0 .34.34 0 01.34.46c-.11.27-.42.15-.91.21l.06.84a.27.27 0 00.3.26c.25 0 .63-.08 1.06-.11a2.18 2.18 0 00.3 1.81c.52.73 2 .83 2.9.81a.73.73 0 00.72-.76v-.75a.41.41 0 01.36-.42c.36-.07.59-.14.52-.18zm-5.05-4h.75a.18.18 0 01-.13.29l-.42.05a.21.21 0 01-.24-.36z"/><circle class="cls-12" cx="424.63" cy="368" r="1.38"/><circle class="cls-12" cx="436.63" cy="368" r="1.38"/></g></g></g><path id="neck-2" data-name="neck" fill="#a88a7b" d="M427.61 339.42l-27.59 8.62-28.6-9.62-1.92-23.62h61.04l-2.93 24.62z"/><path d="M502.88 421.91l-2.47-83.84c-1.19-11.87-11.83-22.25-23.72-23.14l-37.14-2.71c-4.07-.45-20.52-.09-39.55.53-19-.62-35.48-1-39.55-.53l-37.14 2.71c-11.89.89-22.53 11.27-23.72 23.14l-2.47 83.84a20.15 20.15 0 005 15.74 19.92 19.92 0 001.69 1.64v12.87c0 12.81 9.32 23.22 20.78 23.22a19.8 19.8 0 0015.25-7.38v21.79a12.23 12.23 0 007.74 11.36v68h-5.93c-10.93 0-19.83 5.8-19.83 17.11 0 8.06 0 17 11.72 19.7v1.6a1.38 1.38 0 001.38 1.38h1.63a1.38 1.38 0 001.38-1.37v-.95c1.16.09 2.39.15 3.73.15h1.89v.8a1.38 1.38 0 001.38 1.38h1.63a1.38 1.38 0 001.38-1.37v-.8h5.62v.8a1.38 1.38 0 001.38 1.38h1.63a1.38 1.38 0 001.38-1.37v-.8h5.62v.8a1.38 1.38 0 001.38 1.38h1.63a1.38 1.38 0 001.38-1.37v-.8h5.62v.8a1.38 1.38 0 001.38 1.38h1.63a1.38 1.38 0 001.38-1.37v-.8h5.62v.8a1.38 1.38 0 001.38 1.38h1.63a1.38 1.38 0 001.38-1.37v-.8h5.62v.8a1.38 1.38 0 001.38 1.38h1.63a1.38 1.38 0 001.38-1.37v-.81l.06-55.45V502h4v49.21l.06 54.67v1.6a1.38 1.38 0 001.38 1.38h1.63a1.38 1.38 0 001.38-1.37v-.8h5.62v.8a1.38 1.38 0 001.38 1.38h1.63a1.38 1.38 0 001.38-1.37v-.8h5.62v.8a1.38 1.38 0 001.38 1.38h1.63a1.38 1.38 0 001.38-1.37v-.8h5.62v.8a1.38 1.38 0 001.38 1.38h1.63a1.38 1.38 0 001.38-1.37v-.8h5.62v.8a1.38 1.38 0 001.38 1.38h1.63a1.38 1.38 0 001.38-1.37v-.8h5.62v.8a1.38 1.38 0 001.38 1.38h1.63a1.38 1.38 0 001.38-1.37v-.8h1.89c1.33 0 2.57-.05 3.72-.15v.95a1.38 1.38 0 001.38 1.38h1.63a1.38 1.38 0 001.38-1.37v-1.6c11.71-2.68 11.72-11.64 11.72-19.7 0-11.3-8.89-17.11-19.83-17.11h-5.93v-68a12.23 12.23 0 007.74-11.36V468a19.8 19.8 0 0015.21 7.42c11.46 0 20.78-10.42 20.78-23.22v-12.9a19.92 19.92 0 001.69-1.64 20.15 20.15 0 004.95-15.75zm-130.49-99.66c3.46 1.84 15.64 2.07 27.61 1.79 12 .28 24.15 0 27.61-1.79V334c0 4.8-22.42 12-27.23 12l-.38-.08-.38.08c-4.8 0-27.23-7.19-27.23-12zm-33 128.91v1.53c0 9.5-6.63 17.22-14.78 17.22s-14.78-7.73-14.78-17.22v-9.31a21.08 21.08 0 007.47 1.36h22.09zm52.9 149.93h-50.64c-14.22 0-14.22-5-14.22-14.89 0-8.21 6.38-11.5 14.22-11.5h11.67l38.93-2.7.06 15.37zm-38.74-76.4h38.67v41.71l-38.67 2.68h-.26V524.7zm-.26-5.74V502h38.94v17h-38.91zm104.77 55.75h.26c7.84 0 14.22 3.29 14.22 11.5 0 9.91 0 14.89-14.22 14.89h-50.64V587.4l.06-15.37 38.93 2.69h11.42zm-11.67-50h.26v44.4h-.26l-38.67-2.68V524.7zm-38.64-5.7v-17h38.95v17h-38.95zm46.84-73.77h-.07v44.58a6.6 6.6 0 01-6.58 6.58H403s-.11-3.73-.16-8.75v-2.79c0-3.51-1.41-5.09-2.82-5-1.41-.09-2.82 1.49-2.82 5v2.79c0 5-.16 8.75-.16 8.75H352.1a6.6 6.6 0 01-6.58-6.58v-44.63h-.07v-.33l30.24.33h48.69l30.24-.33zm35.57 7.51c0 9.5-6.63 17.22-14.78 17.22s-14.78-7.73-14.78-17.22v-7.94h22.09a21.08 21.08 0 007.47-1.36zm6-23.73a13.53 13.53 0 01-6 7.29 14.69 14.69 0 01-7.47 2l-22.09.09v-73.67c0-5.56-6.07-5.94-6.07 0s.07 14.37.07 14.37v59.59H345.41v-59.61s.07-8.46.07-14.37-6.07-5.54-6.07 0v73.59l-22.09-.09a14.69 14.69 0 01-7.47-2 13.53 13.53 0 01-6-7.29 14.89 14.89 0 01-.75-6.46l2.47-83.84c.89-9 9.23-17.08 18.2-17.75l11.12-.83 32.22-2.29c.68.54.48 17.49.48 17.49 0 8.43 23.34 15.29 31.77 15.29h1.3c8.43 0 31.77-6.86 31.77-15.29 0 0-.2-16.95.48-17.49l32.22 2.29 11.12.83c9 .67 17.3 8.8 18.2 17.75l2.47 83.84a14.89 14.89 0 01-.77 6.55z" id="border"/><g id="head"><path d="M400 189.83s18.39 1.07 24.56 7.83c0 0 14.12 7.71 18.16 19.34 0 0 6 11.12 5.7 21.55-.14 4.69-.68 6-1.39 6s-1.92-1.73-2.91-1.73H444s-4.43-2-4.79-3 .44-8.2-.75-10.57-5.85-10.28-9.57-13.13c-1.26-1-4.31-1.29-8-1.29-7.22 0-16.93 1.21-20.85 1.21s-13.63-1.21-20.85-1.21c-3.71 0-6.76.32-8 1.29-3.72 2.85-8.39 10.76-9.57 13.13s-.39 9.5-.75 10.57-4.79 3-4.79 3h-.12c-1 0-2.08 1.73-2.91 1.73s-1.25-1.27-1.39-6c-.32-10.43 5.7-21.55 5.7-21.55 4-11.63 18.16-19.34 18.16-19.34 6.17-6.76 24.56-7.83 24.56-7.83m0-6h-.35a82.88 82.88 0 00-10.84 1.49c-7.95 1.65-13.55 4.12-17.09 7.54-3.36 2-15.63 9.94-20 21.72-1.21 2.36-6.51 13.36-6.18 24.15.08 2.77.36 14.14.75 15.59 1.12 4.18 4.13-3.81 6.64-3.81a7.64 7.64 0 004.95-2l.52-.23c6-2.67 7.43-4.76 8-6.62a14.41 14.41 0 00.39-4.95 35.45 35.45 0 01.15-5.07c1.46-2.83 5.08-8.48 7.39-10.53a22.56 22.56 0 014.72-.34c3.92 0 8.68.38 12.89.72 3.25.26 6.06.49 8 .49s4.71-.23 8-.49c4.21-.34 9-.72 12.89-.72a22.56 22.56 0 014.72.34c2.31 2 5.93 7.7 7.39 10.53a35.45 35.45 0 01.15 5.07 14.41 14.41 0 00.39 4.95c.62 1.86 2 3.95 8 6.62l.52.23a7.64 7.64 0 004.95 2c2.51 0 6.28 9.2 7.4 5 .39-1.45-.09-14 0-16.8.33-10.79-5-21.79-6.18-24.15-4.32-11.78-16.6-19.72-20-21.72-3.54-3.42-9.15-5.9-17.09-7.54a82.88 82.88 0 00-10.84-1.49h-.35z" fill="#231f20"/><path id="skin-2" data-name="skin" class="cls-2" d="M446.38 253.1c0-.91.08-1.81.08-2.73 0-30.51-21.06-55.25-47-55.25s-47 24.74-47 55.25c0 1.11 0 2.21.1 3.31-4 2.46-6.9 8.44-6.9 15.43 0 9.19 4.93 16.64 11 16.64a7.47 7.47 0 002.1-.31c.82 24.5 18.74 44.08 40.73 44.08s40.12-19.81 40.74-44.5a7.65 7.65 0 003.25.74c6.08 0 11-7.45 11-16.64-.05-7.65-3.48-14.06-8.1-16.02z"/><path id="border-2" data-name="border" d="M446.38 253.1c0-.91.08-1.81.08-2.73 0-30.51-21.06-55.25-47-55.25s-47 24.74-47 55.25c0 1.11 0 2.21.1 3.31-4 2.46-6.9 8.44-6.9 15.43 0 9.19 4.93 16.64 11 16.64a7.47 7.47 0 002.1-.31c.82 24.5 18.74 44.08 40.73 44.08s40.12-19.81 40.74-44.5a7.65 7.65 0 003.25.74c6.08 0 11-7.45 11-16.64-.05-7.65-3.48-14.06-8.1-16.02z" stroke="#231f20" stroke-linecap="round" stroke-linejoin="round" stroke-width="6" fill="none"/><path d="M442.72 217c-4-11.63-18.16-19.34-18.16-19.34-6.17-6.76-24.56-7.83-24.56-7.83s-18.39 1.07-24.56 7.83c0 0-14.12 7.71-18.16 19.34 0 0-6 11.12-5.7 21.55s2.57 4 4.43 4.24c0 0 4.43-2 4.79-3s-.44-8.2.75-10.57 5.85-10.28 9.57-13.13S394.07 216 400 216s25.16-2.77 28.88.08 8.39 10.76 9.57 13.13.39 9.5.75 10.57 4.79 3 4.79 3c1.87-.28 4.11 6.17 4.43-4.24s-5.7-21.54-5.7-21.54z" fill="#2d2317"/><path class="cls-1" d="M412.69 307.33h-25.38a1.25 1.25 0 00-.19.42 33.32 33.32 0 01-1.49 4.28h28.73a33.32 33.32 0 01-1.49-4.28 1.25 1.25 0 00-.18-.42z"/><path class="cls-1" d="M400.13 304.26h-.26c-1.25.07-11 .72-12.56 3.08h25.38c-1.54-2.34-11.31-3.01-12.56-3.08zm-17.79 7.87v-.1h-6l2.52 1.56a2.33 2.33 0 003.48-1.46zm2.24 2.52a2.34 2.34 0 001 2.91c3.07 1.72 6.07 3.29 8.62 4.43a2.33 2.33 0 003.27-2.14v-.52a2.33 2.33 0 012.33-2.33 2.33 2.33 0 012.33 2.33v.67a2.33 2.33 0 003.27 2.14c2.62-1.15 5.75-2.78 9-4.58a2.34 2.34 0 001-2.91c-.35-.87-.71-1.76-1.06-2.62h-28.7c-.35.86-.71 1.75-1.06 2.62z"/><path class="cls-17" d="M399.87 304.82h.26c1.25.09 11 .86 12.56 3.68h3.72c-.5-1.9-1-3.27-1.41-3.39-1.33-.4-12.14-3-14.53-3.63a2 2 0 00-.93 0c-2.39.58-13.2 3.23-14.53 3.63-.42.12-.91 1.49-1.41 3.39h3.72c1.53-2.82 11.3-3.6 12.55-3.68z"/><path class="cls-17" d="M432.75 305.5c-.23.71-5.37 4.28-11.59 8.09-1.36.83-5.74 3.39-6.76 4-3.2 1.8-6.34 3.43-9 4.58a2.33 2.33 0 01-3.27-2.14v-.67a2.33 2.33 0 00-2.33-2.33 2.33 2.33 0 00-2.33 2.33v.52a2.33 2.33 0 01-3.27 2.14c-2.55-1.14-5.55-2.71-8.62-4.43-1-.58-5.41-3.14-6.77-4l-2.48-1.59c-5-3.18-8.88-5.91-9.08-6.53-2.09-6.5-3.83-23.58-5.75-23.12a4 4 0 00-2.8 3.17 104.6 104.6 0 002.2 12.58c1.9 8.54 14.55 22.62 18.66 25.58 3.65 2.63 16.92 6.14 19.86 6.89a2.33 2.33 0 001.16 0c2.95-.76 16.22-4.27 19.86-6.89 4.11-3 16.75-17 18.66-25.58 1.73-7.74 4.25-11.68 4.31-12.38 0-.08-6.55-2.79-6.54-2.87.37-1.92-2.06 16.25-4.12 22.65z"/></g></svg>