<svg id="player" xmlns="http://www.w3.org/2000/svg" viewBox="0 0 800 800"><defs><clipPath id="clip-path"><path fill="none" d="M299.71 350.57h199.97v20.19H299.71z"/></clipPath><style>.cls-2{fill:#cca78c}.cls-3{fill:#e5e1c6}.cls-5{fill:#e52225}.cls-6{fill:#fff}.cls-7{fill:#0051a1}.cls-8{clip-path:url(#clip-path)}.cls-9{fill:#3e1952}.cls-11{fill:#231f20}.cls-13{fill:#563b1c}</style></defs><g id="skin"><path id="arm-left" class="cls-2" d="M305.93 382h36.78v72.4a18.39 18.39 0 01-18.39 18.39 18.39 18.39 0 01-18.39-18.39V382z"/><path id="arm-right" class="cls-2" d="M457.19 382H494v72.4a18.39 18.39 0 01-18.39 18.39 18.39 18.39 0 01-18.39-18.39V382h-.03z"/><path id="leg-left" class="cls-2" d="M349.88 492.02h45.67v45.67h-45.67z"/><path id="leg-right" class="cls-2" d="M404.78 492.02h45.67v45.67h-45.67z"/></g><g id="boots"><path id="left" class="cls-3" d="M395.33 570.04H372.5l-22.83 1.97h-12.5l-7.5 2.53-5.25 8.5v9.83l1.91 4.17 3.84 4.05 6.33 1.95h58.83v-33z"/><path id="right" class="cls-3" d="M404.61 570.27h22.83l22.83 1.97h12.5l7.5 2.53 5.25 8.5v9.83l-1.91 4.17-3.84 4.05-6.33 1.95h-58.83v-33z"/><path d="M394.5 583.67s-62.25 9.67-49.25-9.17l24.83-3.83 25.46-.63zm10.92 0s62.25 9.67 49.25-9.17l-24.83-3.83-25.46-.67z" fill="#403e36" id="details"/></g><g id="socks"><g id="socks-2" data-name="socks"><path id="left-2" data-name="left" class="cls-5" d="M349.88 522h45.67v48.04h-45.67z"/><path id="right-2" data-name="right" class="cls-5" d="M404.38 522h45.67v48.04h-45.67z"/></g><path class="cls-6" d="M350.25 522.25h46v12h-46zm54.36 0h46v12h-46z" id="details-2" data-name="details"/></g><g id="shorts"><path id="shorts-2" data-name="shorts" class="cls-6" d="M341.67 442.54h116.49v47a9.95 9.95 0 01-9.95 9.95h-96.6a9.95 9.95 0 01-9.95-9.95v-47h.01z"/><g id="details-3" data-name="details"><path class="cls-5" d="M345.51 443.67h3v53.58h-3zm6 0h3v53.58h-3z" id="left-3" data-name="left"/><path class="cls-5" d="M445.55 443.67h3v53.58h-3zm6 0h3v53.58h-3z" id="right-3" data-name="right"/></g></g><path class="cls-5" d="M306 387.9h36.71v47.83H306zm151.23 0h36.71v47.83h-36.71z" id="under-shirt"/><g id="shirt"><path id="shirt-2" data-name="shirt" class="cls-5" d="M369.5 314.8l-48.29 2.99-11.36 6.25-6.83 10.1-3.31 40.73 5.17 7.67 7.66 4.67h29.5l.17 54h114.83v-53.5l29.34-.17 7.01-4 6.99-10.5-3.4-37.33-6.83-11.84-9.77-6.08-49.84-2.99-1 21.24-6.5 6.5-11.16 3.48-11.88 2.02-15.46-3.17-11-5.66-3.66-3.84-.38-20.57z"/><g id="details-4" data-name="details"><g id="arm-l"><path class="cls-6" d="M312 331.65a22.36 22.36 0 0114.68-7.2l42-5a1 1 0 00.87-1.11 1 1 0 00-1.11-.87l-42 5a24.33 24.33 0 00-16 7.85 17.94 17.94 0 00-4.82 10.43c-.4 4.48-1.15 11.8-1.91 18.92h2c.75-7.06 1.49-14.29 1.89-18.74a16 16 0 014.4-9.28z"/><path class="cls-6" d="M311.12 343.51a18.13 18.13 0 0116-14.9l41.31-4.61a1 1 0 10-.22-2l-41.26 4.62a20.13 20.13 0 00-17.8 16.57q-.09.59-.16 1.2c-.44 4.11-1 9.67-1.61 15.27h2c.58-5.53 1.15-11 1.58-15.06q.04-.6.16-1.09z"/></g><g id="arm-r"><path class="cls-6" d="M494.43 340.74a17.94 17.94 0 00-4.82-10.43 24.33 24.33 0 00-16-7.85l-42-5a1 1 0 00-1.11.87 1 1 0 00.87 1.11l42 5a22.36 22.36 0 0114.68 7.2 16 16 0 014.32 9.27c.4 4.45 1.14 11.68 1.89 18.74h2c-.67-7.11-1.42-14.42-1.83-18.91z"/><path class="cls-6" d="M490.94 343.2a20.13 20.13 0 00-17.8-16.57L431.88 322a1 1 0 10-.22 2l41.26 4.62a18.13 18.13 0 0116 14.9q.08.53.14 1.09c.43 4.06 1 9.53 1.58 15.06h2c-.58-5.6-1.17-11.16-1.61-15.27q-.03-.62-.09-1.2z"/></g><g id="chest"><path class="cls-6" d="M457.23 412.84l-114.46-6.67v18.56l114.46 6.68v-18.57z"/><path class="cls-7" d="M342.77 424.73v5.84l114.46 6.68v-5.84l-114.46-6.68z"/></g><g id="neck"><path class="cls-7" d="M370.83 314.8l-6.66.84v15.28h7.04l-.38-16.12zm58.34 0l6.66.84v15.28h-7.04l.38-16.12z"/><path class="cls-6" d="M428.79 330.92l-.18 7.64-9.11 5.44-19.5 3.83-19.5-3.83-9.12-5.45-.18-7.64h-7v3.54a12.43 12.43 0 005.61 10.37c6.82 4.49 19.75 7.94 30.22 9.75 10.47-1.82 23.4-5.26 30.22-9.75a12.43 12.43 0 005.61-10.37v-3.54z"/></g><rect id="sponsor-ramsden" class="cls-6" x="355.51" y="381.17" width="89.49" height="13.5" rx="6.75" ry="6.75"/><g id="adidas"><rect id="bottom" class="cls-6" x="355.51" y="366.05" width="10.49" height="1.48" rx=".62" ry=".62"/><path class="cls-6" d="M360.8 360a.92.92 0 00-.33 1.25l2.15 3.74a.92.92 0 00.8.46H365l-3-5.12a.92.92 0 00-1.2-.33zm-1.8 1.9a.92.92 0 00-.34 1.25l1.06 1.88a.92.92 0 00.8.47h1.6l-1.86-3.26a.92.92 0 00-1.26-.34zm-2.06 1.62a.93.93 0 00-.34 1.25l.14.26a.93.93 0 00.81.48h1.6l-.94-1.64a.93.93 0 00-1.27-.35z"/></g><g id="crest-middlesbrough-16"><path class="cls-6" d="M438 371.37l-.6.45a1.35 1.35 0 01-1.63 0l-.6-.45c-2.53-1.9-4-4.2-4-7.48v-3.49a1 1 0 01.8-1l3.29-.45a10 10 0 012.71 0l3.29.45a1 1 0 01.8 1v3.49c-.06 3.28-1.58 5.58-4.06 7.48z"/><path class="cls-5" d="M436.54 372.62a1.88 1.88 0 01-1.13-.38l-.6-.45c-2.9-2.18-4.25-4.69-4.25-7.9v-3.49a1.49 1.49 0 011.26-1.49l3.29-.45a10.56 10.56 0 012.86 0l3.29.45a1.49 1.49 0 011.26 1.49v3.49c0 3.21-1.35 5.73-4.25 7.9l-.6.45a1.88 1.88 0 01-1.13.38zm0-13.2a9.51 9.51 0 00-1.29.09L432 360a.43.43 0 00-.34.44v3.49a7.89 7.89 0 001 4 10.11 10.11 0 002.83 3.06l.6.45a.82.82 0 001 0l.6-.45a10.11 10.11 0 002.83-3.06 7.89 7.89 0 001-4v-3.53a.43.43 0 00-.34-.44l-3.29-.45a9.51 9.51 0 00-1.35-.08z"/><path class="cls-6" d="M436.54 358.37a10.56 10.56 0 011.43.1l3.29.45a1.49 1.49 0 011.26 1.49v3.49c0 3.21-1.35 5.73-4.25 7.9l-.6.45a1.87 1.87 0 01-2.26 0l-.6-.45c-2.9-2.18-4.25-4.69-4.25-7.9v-3.5a1.49 1.49 0 011.26-1.49l3.29-.45a10.56 10.56 0 011.43-.1m0 13.19a.83.83 0 00.5-.17l.6-.45a10.11 10.11 0 002.83-3.06 7.89 7.89 0 001-4v-3.47a.43.43 0 00-.34-.44l-3.29-.45a9.51 9.51 0 00-2.57 0L432 360a.43.43 0 00-.34.44v3.49a7.89 7.89 0 001 4 10.11 10.11 0 002.83 3.06l.6.45a.83.83 0 00.5.17m0-13.57a11 11 0 00-1.48.1l-3.29.45a1.86 1.86 0 00-1.58 1.86v3.49c0 3.34 1.4 5.95 4.4 8.2l.6.45a2.25 2.25 0 002.71 0l.6-.45c3-2.25 4.4-4.86 4.4-8.2v-3.54a1.86 1.86 0 00-1.58-1.86l-3.29-.45a11 11 0 00-1.48-.1zm0 13.19a.45.45 0 01-.27-.09l-.6-.45a9.74 9.74 0 01-2.72-2.94 7.52 7.52 0 01-1-3.81v-3.54a.09.09 0 010-.07l3.29-.45a9.13 9.13 0 012.47 0l3.29.45a.12.12 0 010 .07v3.49a7.52 7.52 0 01-1 3.81 9.74 9.74 0 01-2.72 2.94l-.6.45a.45.45 0 01-.27.09z"/><path class="cls-5" d="M439.54 366.81c-.38-.14-.65-3-.59-4.61 0-1.07-1.5-1.36-2.52-1.44H436v.07h-.85a.48.48 0 00-.32.18 2.55 2.55 0 00-.57 1.41l-1 .07a.18.18 0 00-.17.2v.75a.73.73 0 00.11.36h1.38v.28h-.82v.84a.27.27 0 000 .06V366h.38-.14.79a2.58 2.58 0 00-.09.5 2.07 2.07 0 00.27 1.22l.06.09a1.19 1.19 0 00.23.25l.15.11.15.09h.08l.18.08.29.1.2.05h1.83v-.24a.74.74 0 000-.08v-.75a.41.41 0 01.38-.41h.53s.51-.19.49-.2zm-4.23-3.9h-.66.77a.18.18 0 01-.12 0z"/></g><g class="cls-8" id="logo-pl-ready-16"><g class="cls-8"><path class="cls-6" d="M499.17 360c.61 5.19-1.3 9.68-4.27 10s-5.87-3.57-6.48-8.76 1.3-9.68 4.27-10 5.87 3.57 6.48 8.76"/><path class="cls-9" d="M495 370.74c-3.18.37-6.29-3.84-6.95-9.4s1.4-10.37 4.58-10.75 6.29 3.84 6.95 9.39-1.4 10.38-4.58 10.75M492.77 352c-2.75.32-4.53 4.5-4 9.3s3.26 8.45 6 8.13 4.53-4.49 4-9.3-3.26-8.45-6-8.13"/><path class="cls-9" d="M495.09 355.24v-.1H495l-.28.11h-.13l-.34-.93H494l-.33.57h-.13l-.39-.66a.07.07 0 00-.05 0l-.23.73h-.13l-.45-.48H492l-.08.69v.29h-.45v.22l.17.7v.2h.15a4.2 4.2 0 011.4-.49 3.75 3.75 0 011.51.15h.3v-1.09zm.96 2.43a3.91 3.91 0 00-5.14.6 10.81 10.81 0 00.34 3.71l.66 2c.54 1.61 1.68 3.58 2.68 3.47s1.66-2.3 1.81-4l.18-2.1a10.78 10.78 0 00-.53-3.69m-3.11 6l-.15-1.32c-.24 0-.47-.29-.52-.7l-.09-.79c0-.42.1-.78.34-.8l.48-.05c.24 0 .47.29.52.7l.12 1a.66.66 0 00.23.46c.09.86.18 1.88.18 1.9l-.4.51c-.31 0-.61-.37-.67-.91m1.56 2.19h-.19c-.18 0-.41-.26-.56-.54a.4.4 0 010-.34 3.35 3.35 0 01.36-.56.18.18 0 01.28 0 3.44 3.44 0 01.48.46.41.41 0 01.06.34c-.08.3-.24.64-.42.66m1-4.6c0 .42-.1.78-.34.8l.16 1.32c.06.54-.13 1-.44 1l-.51-.41s-.15-1-.27-1.89a.67.67 0 00.12-.51l-.12-1c0-.42.1-.78.34-.8l.45-.05c.24 0 .47.29.52.7z"/><path class="cls-6" d="M300.22 360c-.61 5.19 1.3 9.68 4.27 10s5.87-3.57 6.48-8.76-1.3-9.68-4.27-10-5.87 3.57-6.48 8.76"/><path class="cls-9" d="M299.83 360c.65-5.55 3.77-9.77 6.95-9.39s5.23 5.19 4.58 10.75-3.77 9.77-6.94 9.39-5.23-5.19-4.58-10.75m.78.09c-.56 4.81 1.21 9 4 9.3s5.45-3.32 6-8.13-1.21-9-4-9.3-5.45 3.32-6 8.13"/><path class="cls-9" d="M304.3 355.24v-.1h.09l.28.11h.13l.34-.93h.06l.33.57h.13l.39-.66a.07.07 0 01.05 0l.23.73h.13l.45-.48h.06l.08.69v.29h.44v.28l-.17.7v.2h-.15a4.2 4.2 0 00-1.4-.49 3.75 3.75 0 00-1.51.15h-.14v-1.18m-1.31 6.24l.18 2.1c.15 1.69.8 3.88 1.81 4s2.15-1.85 2.68-3.47l.66-2a10.84 10.84 0 00.34-3.71 3.92 3.92 0 00-5.15-.6 10.81 10.81 0 00-.53 3.69m3 3.25l-.4-.51s.09-1 .18-1.9a.66.66 0 00.23-.46l.12-1c0-.41.28-.73.52-.7l.45.05c.24 0 .39.39.34.8l-.09.79c0 .42-.28.73-.52.7l-.16 1.32c-.06.54-.36.94-.67.91m-1.31.63a.41.41 0 01.07-.34 3.4 3.4 0 01.48-.46.18.18 0 01.28 0 3.41 3.41 0 01.36.56.41.41 0 010 .34c-.15.28-.38.56-.56.54h-.19c-.18 0-.34-.35-.42-.66m-.5-4.73c0-.42.28-.73.52-.7l.45.05c.24 0 .39.39.34.8l-.12 1a.66.66 0 00.12.51c-.12.86-.26 1.87-.27 1.89l-.51.41c-.31 0-.51-.5-.44-1l.16-1.32c-.24 0-.39-.39-.34-.8z"/></g></g></g></g><path id="neck-2" data-name="neck" fill="#af8e77" d="M427.63 340.26l-27.59 8.62-28.6-9.62-1.92-23.62h61.04l-2.93 24.62z"/><path d="M502.88 368.43l-2.47-30.36c-1.19-11.87-11.83-22.25-23.72-23.14l-37.14-2.71c-4.07-.45-20.52-.09-39.55.53-19-.62-35.48-1-39.55-.53l-37.14 2.71c-11.89.89-22.53 11.27-23.72 23.14l-2.47 30.36a20.15 20.15 0 005 15.74 19.92 19.92 0 001.69 1.64v66.36c0 12.81 9.32 23.22 20.78 23.22a19.8 19.8 0 0015.25-7.39v21.79a12.23 12.23 0 007.74 11.36v68h-5.93c-10.93 0-19.83 5.8-19.83 17.11 0 8.06 0 17 11.72 19.7v1.6a1.38 1.38 0 001.38 1.38h1.63a1.38 1.38 0 001.38-1.37v-.95c1.16.09 2.39.15 3.73.15h1.89v.8a1.38 1.38 0 001.38 1.38h1.63a1.38 1.38 0 001.38-1.37v-.8h5.62v.8a1.38 1.38 0 001.38 1.38h1.63a1.38 1.38 0 001.38-1.37v-.8h5.62v.8a1.38 1.38 0 001.38 1.38h1.63a1.38 1.38 0 001.38-1.37v-.8h5.62v.8a1.38 1.38 0 001.38 1.38h1.63a1.38 1.38 0 001.38-1.37v-.8h5.62v.8a1.38 1.38 0 001.38 1.38h1.63a1.38 1.38 0 001.38-1.37v-.8h5.62v.8a1.38 1.38 0 001.38 1.38h1.63a1.38 1.38 0 001.38-1.37v-.81l.06-55.45V502h4v49.21l.06 54.67v1.6a1.38 1.38 0 001.38 1.38h1.63a1.38 1.38 0 001.38-1.37v-.8h5.62v.8a1.38 1.38 0 001.38 1.38h1.63a1.38 1.38 0 001.38-1.37v-.8h5.62v.8a1.38 1.38 0 001.38 1.38h1.63a1.38 1.38 0 001.38-1.37v-.8h5.62v.8a1.38 1.38 0 001.38 1.38h1.63a1.38 1.38 0 001.38-1.37v-.8h5.62v.8a1.38 1.38 0 001.38 1.38h1.63a1.38 1.38 0 001.38-1.37v-.8h5.62v.8a1.38 1.38 0 001.38 1.38h1.63a1.38 1.38 0 001.38-1.37v-.8h1.89c1.33 0 2.57-.05 3.72-.15v.95a1.38 1.38 0 001.38 1.38h1.63a1.38 1.38 0 001.38-1.37v-1.6c11.71-2.68 11.72-11.64 11.72-19.7 0-11.3-8.89-17.11-19.83-17.11h-5.93v-68a12.23 12.23 0 007.74-11.36V468a19.8 19.8 0 0015.21 7.42c11.46 0 20.78-10.42 20.78-23.22v-66.39a19.92 19.92 0 001.69-1.64 20.15 20.15 0 004.95-15.74zm-130.49-46.18c3.46 1.84 15.64 2.07 27.61 1.79 12 .28 24.15 0 27.61-1.79V334c0 4.8-22.42 12-27.23 12l-.38-.08-.38.08c-4.8 0-27.23-7.19-27.23-12zm-33 75.43v34.59h-29.54V389.9a21.08 21.08 0 007.47 1.36h22.09zm-14.78 72.24c-8.15 0-14.78-7.73-14.78-17.22v-14h29.57v14c.01 9.49-6.62 17.22-14.77 17.22zm67.68 131.18h-50.64c-14.22 0-14.22-5-14.22-14.89 0-8.21 6.38-11.5 14.22-11.5h11.67l38.93-2.71.06 15.37zm-38.74-76.4h38.67v41.7l-38.67 2.68h-.26V524.7zm-.26-5.74V502h38.94v17h-38.91zm104.77 55.75h.26c7.84 0 14.22 3.29 14.22 11.5 0 9.91 0 14.89-14.22 14.89h-50.64v-13.7l.06-15.37 38.93 2.69h11.42zm-11.67-50h.26v44.4h-.26l-38.67-2.68V524.7zM407.75 519v-17h38.95v17h-38.95zm46.84-73.77h-.07v44.58a6.6 6.6 0 01-6.58 6.58H403s-.11-3.73-.16-8.75v-2.79c0-3.51-1.41-5.09-2.82-5-1.41-.09-2.82 1.49-2.82 5v2.79c0 5-.16 8.75-.16 8.75H352.1a6.6 6.6 0 01-6.58-6.58v-44.63h-.07v-.33l30.24.33h48.69l30.24-.33zm35.57-12.91h-29.57v-41h22.09a21.08 21.08 0 007.47-1.36zm-14.78 37.64c-8.15 0-14.78-7.73-14.78-17.22v-14h29.57v14c-.02 9.45-6.65 17.18-14.8 17.18zm20.78-94.44a13.53 13.53 0 01-6 7.29 14.69 14.69 0 01-7.47 2l-22.09.09v-20.18c0-5.56-6.07-5.94-6.07 0s.07 14.37.07 14.37v59.59H345.41v-59.61s.07-8.46.07-14.37-6.07-5.54-6.07 0v20.11l-22.09-.09a14.69 14.69 0 01-7.47-2 13.53 13.53 0 01-6-7.29 14.89 14.89 0 01-.75-6.46l2.47-30.36c.89-9 9.23-17.08 18.2-17.75l11.12-.83 32.22-2.29c.68.54.48 17.49.48 17.49 0 8.43 23.34 15.29 31.77 15.29h1.3c8.43 0 31.77-6.86 31.77-15.29 0 0-.2-16.95.48-17.49l32.22 2.29 11.12.83c9 .67 17.3 8.8 18.2 17.75L496.9 369a14.89 14.89 0 01-.75 6.48z"/><g id="head"><path class="cls-11" d="M399.18 185.71c13 0 30.2 7.61 39.59 15.09 10 4.17 12.74 7.3 11.77 30.95-.29 7.1-5.54 7.75-5.54 23.5 0 0-4.89-4.89-6.28-9.22a7.23 7.23 0 01-5.08-2.09c-9.24-9.19-41.66-20.86-56.1-25.75-5.95.25-10.28 1.36-10.28 4.64 0 7-4.75 17.92-5.75 22.42s-6.5 10-6.5 10c0-15.75-5.25-16.4-5.54-23.5-1.21-29.75 8.93-40 28.16-41 1.86-.1 3.67-.21 5.43-.34 2.12-.94 4.51-1.94 7.19-3.1a22.56 22.56 0 018.93-1.61m0-6a28.43 28.43 0 00-11.31 2.1l-3.06 1.31-3.21 1.38c-1.53.1-2.94.19-4.29.26C353 186 342.21 201 343.47 232a21 21 0 002.61 9c1.44 3 2.93 6 2.93 14.21v14.49l10.24-10.24c1.12-1.12 6.8-7 8.11-12.94.25-1.12.93-3.15 1.65-5.29 1.69-5 3.75-11.19 4.17-16.55a21.78 21.78 0 013.53-.46c27.29 9.3 46.95 18.23 52.7 24a13.1 13.1 0 005.14 3.17 39.74 39.74 0 006.21 8.13L451 269.74v-14.49c0-8.2 1.49-11.26 2.93-14.21a21 21 0 002.61-9c1-24-1.64-30.77-14.69-36.41-10.12-7.79-28.21-15.88-42.66-15.88z"/><path id="skin-2" data-name="skin" class="cls-2" d="M446.38 253.1c0-.91.08-1.81.08-2.73 0-30.51-21.06-55.25-47-55.25s-47 24.74-47 55.25c0 1.11 0 2.21.1 3.31-4 2.46-6.9 8.44-6.9 15.43 0 9.19 4.93 16.64 11 16.64a7.47 7.47 0 002.1-.31c.82 24.5 18.74 44.08 40.73 44.08s40.12-19.81 40.74-44.5a7.65 7.65 0 003.25.74c6.08 0 11-7.45 11-16.64-.05-7.65-3.48-14.06-8.1-16.02z"/><path d="M437.14 272.49c-3.09 5.43-6.41 11.45-6.86 12.89-.7 2.24-15.89 11.59-25.09 14.33 4.42-.17 10.16.18 10.72 3.09 0 0 .56 7.39.37 10.87s.51 8.37-2.42 11-13.13 3.77-13.85 3.86c-.72-.08-11-1.3-13.85-3.86s-2.42-11-2.42-11c-.19-3.48.37-10.87.37-10.87.56-2.91 6.31-3.26 10.72-3.09-9.21-2.74-24.39-12.09-25.09-14.33-.45-1.43-3.78-7.45-6.86-12.89a3.06 3.06 0 00-5.71 1.8c1.37 13 7 29.49 10.49 39.46 4.61 13 31.41 17 32.31 17.16.91-.13 27.71-4.13 32.31-17.16 3.52-10 9.13-26.5 10.49-39.46a3.06 3.06 0 00-5.63-1.8z" opacity=".1" fill="#5f3f20"/><path class="cls-13" d="M400 300.38a12 12 0 005.14-.67c-2.84.11-5.14.44-5.14.44v.1-.1s-2.3-.33-5.14-.44a12 12 0 005.14.67z"/><path class="cls-13" d="M384.13 302.79s-.56 7.39-.37 10.87-.51 8.37 2.42 11 13.13 3.77 13.85 3.86c.72-.08 11-1.3 13.85-3.86s2.42-11 2.42-11c.19-3.48-.37-10.87-.37-10.87-.56-2.91-6.31-3.26-10.72-3.09a12 12 0 01-5.14.67 12 12 0 01-5.14-.67c-4.49-.17-10.23.18-10.8 3.09zm15.87 1.94c3.1 0 12.5-.87 12.36-.16a84.76 84.76 0 00.72 9.51c-9.62 1.87-11.48 8.19-11.48 8.19a3.42 3.42 0 00-1.57-2.2 3.42 3.42 0 00-1.57 2.2s-1.87-6.32-11.48-8.19a84.76 84.76 0 00.72-9.51c-.18-.71 9.22.2 12.3.16z"/><path class="cls-11" d="M399.42 332.51c-22.68 0-41.28-19-43.53-43.79-7.52-.49-13.31-8.93-13.31-19.61 0-7 2.64-13.45 6.84-16.92v-1.82c0-32.12 22.45-58.25 50-58.25s50 26.13 50 58.25v1c4.85 3.17 8 10 8 17.76 0 11-6.15 19.64-14 19.64H443c-2.3 24.79-20.83 43.74-43.58 43.74zm-40.73-50.08a3 3 0 013 2.9c.77 23.09 17.35 41.18 37.73 41.18 20.58 0 37.15-18.26 37.74-41.58a3 3 0 014.27-2.64 4.68 4.68 0 002 .46c4.34 0 8-6.24 8-13.64 0-7-3.13-11.94-6.21-13.24a3 3 0 01-1.83-2.89v-.18c0-.8.07-1.61.07-2.42 0-28.81-19.75-52.25-44-52.25s-44 23.44-44 52.25c0 .92 0 1.89.09 3.16a3 3 0 01-1.44 2.71c-3.27 2-5.46 7.16-5.46 12.86 0 7.39 3.67 13.64 8 13.64a4.49 4.49 0 001.26-.19 3 3 0 01.78-.13z"/><path d="M429.5 197c-4.59-2-9.72-3.94-13.25-5.21-2.84-1-9-2.77-12-2.79-6.46 0-15.67 1.18-26.62 1.75-19.23 1-29.38 11.25-28.16 41 .29 7.1 5.54 7.75 5.54 23.5 0 0 5.5-5.5 6.5-10s5.75-15.42 5.75-22.42 19.74-4.11 32.74-4.11 32.75-2.89 32.75 4.11 4.75 17.92 5.75 22.42 6.5 10 6.5 10c0-15.75 5.25-16.4 5.54-23.5 1.21-29.75-3.4-27.03-21.04-34.75z" fill="#5f3f20"/><path class="cls-13" d="M370.5 215.87s51.13 16.13 63.14 28.07a7.12 7.12 0 009.7.36c1.9-1.71 3-4.48 1.17-9-5.25-13.18 1-19.08 1.13-25.18.13-9.87-38.12-30.26-55.37-22.81s-22.64 8.33-19.77 28.56z"/></g></svg>