<svg id="player" xmlns="http://www.w3.org/2000/svg" viewBox="0 0 800 800"><defs><clipPath id="clip-path"><path class="cls-1" d="M300 349.44h199.97v20.19H300z"/></clipPath><clipPath id="clip-path-2"><path class="cls-1" d="M300 349.44h199.97v20.19H300z"/></clipPath><style>.cls-1{fill:none}.cls-2{fill:#d8b59c}.cls-3{fill:#cb2027}.cls-4{fill:#391212}.cls-5{fill:#fff}.cls-6{fill:#221f1f}.cls-7{fill:#e52225}.cls-10{fill:#3e1952}.cls-11{fill:#ead12a}.cls-15{fill:#231f20}</style></defs><g id="skin"><path id="arm-left" class="cls-2" d="M305.93 382h36.78v72.4a18.39 18.39 0 01-18.39 18.39 18.39 18.39 0 01-18.39-18.39V382z"/><path id="arm-right" class="cls-2" d="M457.19 382H494v72.4a18.39 18.39 0 01-18.39 18.39 18.39 18.39 0 01-18.39-18.39V382h-.03z"/><path id="leg-left" class="cls-2" d="M349.88 492.02h45.67v45.67h-45.67z"/><path id="leg-right" class="cls-2" d="M404.78 492.02h45.67v45.67h-45.67z"/></g><g id="boots"><path id="left" class="cls-3" d="M395.54 570.04h-22.83l-22.83 1.97h-12.5l-7.5 2.53-5.25 8.5v9.83l1.91 4.17 3.84 4.05 6.33 1.95h58.83v-33z"/><path id="right" class="cls-3" d="M404.67 570.04h22.83l22.83 1.97h12.5l7.5 2.53 5.25 8.5v9.83l-1.91 4.17-3.84 4.05-6.33 1.95h-58.83v-33z"/><g id="details"><path class="cls-4" d="M394.73 581s-25.62 6.77-29 22h29.79s.21-20-.79-22z"/><path class="cls-5" d="M384.48 581s-4.83 22-11.79 22 2.42-20.5 11.79-22z"/><path class="cls-4" d="M405.59 581s25.63 6.77 29 22h-29.8s-.2-20 .8-22z"/><path class="cls-5" d="M415.84 581s4.83 22 11.79 22-2.42-20.5-11.79-22z"/></g></g><g id="socks"><path id="left-2" data-name="left" class="cls-6" d="M350.09 522h45.67v48.04h-45.67z"/><path id="right-2" data-name="right" class="cls-6" d="M404.59 522h45.67v48.04h-45.67z"/><path class="cls-7" d="M349.88 529.5h46.33v13.17h-46.33zm54.38 0h46.33v13.17h-46.33z" id="details-2" data-name="details"/></g><g id="shorts"><path id="shorts-2" data-name="shorts" class="cls-5" d="M342.49 442.54H459v47a9.95 9.95 0 01-10 9.96h-96.6a9.95 9.95 0 01-9.95-9.95v-47l.04-.01z"/><g id="details-3" data-name="details"><path class="cls-7" d="M347.31 442.63h2.63v54.38h-2.63zm5.25 0h2.63v54.38h-2.63z" id="left-3" data-name="left"/><path class="cls-7" d="M444.53 442.63h2.63v54.38h-2.63zm5.25 0h2.63v54.38h-2.63z" id="right-3" data-name="right"/></g></g><g id="shirt"><path id="shirt-2" data-name="shirt" class="cls-7" d="M370.55 312.68l-48.29 2.99-11.36 6.25-6.83 10.1-1.93 98.77 11.16 7.17 29.96 1.12h147.21l10.96-12.79-3.4-92.71-6.83-11.83-9.77-6.08-49.84-2.99-1 21.24-6.5 6.5-11.16 3.48-11.88 2.02-15.46-3.17-11-5.67-3.66-3.83-.38-20.57z"/><g id="details-4" data-name="details"><path class="cls-3" d="M400 443.38h-57.51l-2.21-85.7a254.84 254.84 0 012.21-40.68H400z"/><path class="cls-5" d="M349.18 443.38h-2.63l-6.06-52.75h2.62l6.07 52.75zm5.25 0h-2.63l-10-80.13h2.63l10 80.13z" id="stripes-left"/><path class="cls-5" d="M448.39 443.38h-2.63l10-80.13h2.63l-10 80.13zm5.25 0h-2.63l6.89-52.75h2.63l-6.89 52.75z" id="stripes-right"/><path class="cls-3" d="M500.47 427.41l-9 11.68-34.07 1.16-2.73-93.56a109.28 109.28 0 011-18.29l1.73-12.4 29.6 5 10 16.25z"/><g id="adidas"><rect id="bottom" class="cls-5" x="363.76" y="368.87" width="10.99" height="1.55" rx=".62" ry=".62"/><path class="cls-5" d="M369.31 362.58a1 1 0 00-.35 1.31l2.25 3.92a1 1 0 00.84.48h1.69l-3.11-5.37a1 1 0 00-1.32-.34zm-1.93 1.94a1 1 0 00-.36 1.31l1.11 2a1 1 0 00.84.49h1.68l-1.95-3.42a1 1 0 00-1.32-.38zm-2.13 1.7a1 1 0 00-.36 1.31l.15.27a1 1 0 00.85.5h1.68l-1-1.72a1 1 0 00-1.32-.36z"/></g><g clip-path="url(#clip-path)"><g clip-path="url(#clip-path-2)" id="logo-pl-ready-16"><path class="cls-5" d="M499.47 358.9c.61 5.19-1.3 9.68-4.27 10s-5.87-3.57-6.48-8.76 1.3-9.68 4.27-10 5.87 3.57 6.48 8.76"/><path class="cls-10" d="M495.28 369.61c-3.18.37-6.29-3.84-6.95-9.4s1.4-10.37 4.58-10.75 6.29 3.84 6.95 9.39-1.4 10.38-4.58 10.75m-2.21-18.79c-2.75.32-4.53 4.5-4 9.3s3.26 8.45 6 8.13 4.53-4.49 4-9.3-3.26-8.45-6-8.13"/><path class="cls-10" d="M495.38 354.11V354h-.09l-.28.11h-.13l-.34-.93h-.06l-.33.57h-.13l-.39-.66a.07.07 0 00-.05 0l-.23.73h-.13l-.45-.48h-.06l-.08.69v.29h-.99v.22l.17.7v.2h.15a4.2 4.2 0 011.4-.49 3.75 3.75 0 011.51.15h.14v-1.09zm.97 2.43a3.91 3.91 0 00-5.14.6 10.81 10.81 0 00.34 3.71l.66 2c.54 1.61 1.68 3.58 2.68 3.47s1.66-2.3 1.81-4l.18-2.1a10.78 10.78 0 00-.53-3.69m-3.11 6l-.15-1.32c-.24 0-.47-.29-.52-.7l-.09-.79c0-.42.1-.78.34-.8l.45-.05c.24 0 .47.29.52.7l.12 1a.66.66 0 00.23.46c.09.86.18 1.88.18 1.9l-.4.51c-.31 0-.61-.37-.67-.91m1.56 2.19h-.19c-.18 0-.41-.26-.56-.54a.4.4 0 010-.34 3.35 3.35 0 01.36-.56.18.18 0 01.28 0 3.44 3.44 0 01.48.46.41.41 0 01.06.34c-.08.3-.24.64-.42.66m1-4.6c0 .42-.1.78-.34.8l.16 1.32c.06.54-.13 1-.44 1l-.51-.41s-.15-1-.27-1.89a.67.67 0 00.12-.51l-.12-1c0-.42.1-.78.34-.8l.45-.05c.24 0 .47.29.52.7z"/><path class="cls-5" d="M300.51 358.9c-.61 5.19 1.3 9.68 4.27 10s5.87-3.57 6.48-8.76-1.3-9.68-4.27-10-5.87 3.57-6.48 8.76"/><path class="cls-10" d="M300.12 358.86c.65-5.55 3.77-9.77 6.95-9.39s5.23 5.19 4.58 10.75-3.77 9.77-6.94 9.39-5.23-5.19-4.58-10.75m.78.09c-.56 4.81 1.21 9 4 9.3s5.45-3.32 6-8.13-1.21-9-4-9.3-5.45 3.32-6 8.13"/><path class="cls-10" d="M304.6 354.11V354h.09l.28.11h.13l.34-.93h.06l.33.57h.13l.39-.66a.07.07 0 01.05 0l.23.73h.13l.45-.48h.06l.08.69v.29h1v.28l-.17.7v.2h-.15a4.2 4.2 0 00-1.4-.49 3.75 3.75 0 00-1.51.15h-.14v-1.18m-1.88 6.25l.18 2.1c.15 1.69.8 3.88 1.81 4s2.15-1.85 2.68-3.47l.66-2a10.84 10.84 0 00.34-3.71 3.92 3.92 0 00-5.15-.6 10.81 10.81 0 00-.53 3.69m3 3.25l-.4-.51s.09-1 .18-1.9a.66.66 0 00.23-.46l.12-1c0-.41.28-.73.52-.7l.45.05c.24 0 .39.39.34.8l-.09.79c0 .42-.28.73-.52.7l-.16 1.32c-.06.54-.36.94-.67.91m-1.31.63a.41.41 0 01.07-.34 3.4 3.4 0 01.48-.46.18.18 0 01.28 0 3.41 3.41 0 01.36.56.41.41 0 010 .34c-.15.28-.38.56-.56.54h-.19c-.18 0-.34-.35-.42-.66m-.5-4.73c0-.42.28-.73.52-.7l.45.05c.24 0 .39.39.34.8l-.12 1a.66.66 0 00.12.51c-.12.86-.26 1.87-.27 1.89l-.51.41c-.31 0-.51-.5-.44-1l.16-1.32c-.24 0-.39-.39-.34-.8z"/></g></g><g id="manchester-united-crest-2003"><path class="cls-11" d="M441 364.55a1.67 1.67 0 01-1.55-1.15 6 6 0 00-11.41 0 1.67 1.67 0 01-1.55 1.15 1.67 1.67 0 01-1.56-2.21 9.28 9.28 0 0117.61 0 1.67 1.67 0 01-1.56 2.21zm0 2.89a1.67 1.67 0 00-1.55 1.15 6 6 0 01-11.41 0 1.67 1.67 0 00-1.55-1.15 1.67 1.67 0 00-1.56 2.21 9.28 9.28 0 0017.61 0 1.67 1.67 0 00-1.56-2.21z"/><circle class="cls-11" cx="426.31" cy="365.99" r="1.44"/><circle class="cls-11" cx="441.22" cy="365.99" r="1.44"/><path class="cls-11" d="M430.74 361.65h6a1.06 1.06 0 011.06 1.06v4.5a4.08 4.08 0 01-4.08 4.08 4.08 4.08 0 01-4.08-4.08v-4.5a1.06 1.06 0 011.06-1.06z"/><path class="cls-7" d="M431.33 364.45h.72v2.6a.11.11 0 01-.11.11h-.5a.11.11 0 01-.11-.11v-2.6zm1.08 0H431a6.84 6.84 0 01.72-1.43 6.58 6.58 0 01.69 1.43zm1 0h.72v2.6a.11.11 0 01-.11.11h-.5a.11.11 0 01-.11-.11v-2.6zm1.07 0H433a6.84 6.84 0 01.72-1.43 6.58 6.58 0 01.76 1.43zm1 0h.72v2.6a.11.11 0 01-.11.11h-.5a.11.11 0 01-.11-.11v-2.6zm1.07 0h-1.43a6.84 6.84 0 01.72-1.43 6.58 6.58 0 01.71 1.43z"/><path class="cls-7" d="M431.33 366h4.86v1.84a.56.56 0 01-.56.56h-3.73a.56.56 0 01-.56-.56V366h-.01z"/></g><g id="sponsor-chevrolet"><path d="M420.42 385.72h-8.28a1.17 1.17 0 01-1.13-1.49l.55-1.93a1.64 1.64 0 00-1.56-2.1h-15.68a1.64 1.64 0 00-1.59 1.24l-.86 3.39a1.17 1.17 0 01-1.14.88h-9a1.28 1.28 0 00-1.24 1l-2.54 10a1.28 1.28 0 001.24 1.59H387a1.17 1.17 0 011.14 1.46l-.46 1.84a1.64 1.64 0 001.59 2h15a1.64 1.64 0 001.58-1.19l.94-3.29a1.17 1.17 0 011.13-.85h10a1.28 1.28 0 001.24-1l2.52-10a1.28 1.28 0 00-1.26-1.55z" fill="#e5d76f"/><path class="cls-5" d="M404.25 404.38h-15a2.38 2.38 0 01-2.31-3l.46-1.84a.43.43 0 00-.4-.54h-7.8a2 2 0 01-2-2.51l2.54-10a2 2 0 012-1.52h9a.43.43 0 00.42-.33l.86-3.39a2.38 2.38 0 012.31-1.8H410a2.38 2.38 0 012.29 3l-.55 1.93a.43.43 0 00.42.55h8.28a2 2 0 012 2.51l-2.52 10a2 2 0 01-2 1.52h-10a.43.43 0 00-.42.31l-.94 3.29a2.39 2.39 0 01-2.31 1.82zm-22.55-17.92a.54.54 0 00-.52.41l-2.54 10a.54.54 0 00.52.67H387a1.91 1.91 0 011.85 2.38l-.46 1.84a.9.9 0 00.88 1.12h15a.91.91 0 00.87-.66l.94-3.29a1.92 1.92 0 011.84-1.39h10a.54.54 0 00.52-.41l2.52-10a.54.54 0 00-.52-.67h-8.28a1.91 1.91 0 01-1.86-2.46l.55-1.93a.9.9 0 00-.87-1.15h-15.66a.9.9 0 00-.88.68l-.86 3.39a1.91 1.91 0 01-1.85 1.44z"/><rect class="cls-5" x="378.23" y="408.68" width="40.12" height="5.11" rx="2.55" ry="2.55"/></g></g></g><path id="neck" fill="#ba9c88" d="M427.61 339.42l-27.59 8.62-28.6-9.62-1.92-23.62h61.04l-2.93 24.62z"/><path d="M502.88 421.91l-2.47-83.84c-1.19-11.87-11.83-22.25-23.72-23.14l-37.14-2.71c-4.07-.45-20.52-.09-39.55.53-19-.62-35.48-1-39.55-.53l-37.14 2.71c-11.89.89-22.53 11.27-23.72 23.14l-2.47 83.84a20.15 20.15 0 005 15.74 19.92 19.92 0 001.69 1.64v12.87c0 12.81 9.32 23.22 20.78 23.22a19.8 19.8 0 0015.25-7.38v21.79a12.23 12.23 0 007.74 11.36v68h-5.93c-10.93 0-19.83 5.8-19.83 17.11 0 8.06 0 17 11.72 19.7v1.6a1.38 1.38 0 001.38 1.38h1.63a1.38 1.38 0 001.38-1.37v-.95c1.16.09 2.39.15 3.73.15h1.89v.8a1.38 1.38 0 001.38 1.38h1.63a1.38 1.38 0 001.38-1.37v-.8h5.62v.8a1.38 1.38 0 001.38 1.38h1.63a1.38 1.38 0 001.38-1.37v-.8h5.62v.8a1.38 1.38 0 001.38 1.38h1.63a1.38 1.38 0 001.38-1.37v-.8h5.62v.8a1.38 1.38 0 001.38 1.38h1.63a1.38 1.38 0 001.38-1.37v-.8h5.62v.8a1.38 1.38 0 001.38 1.38h1.63a1.38 1.38 0 001.38-1.37v-.8h5.62v.8a1.38 1.38 0 001.38 1.38h1.63a1.38 1.38 0 001.38-1.37v-.81l.06-55.45V502h4v49.21l.06 54.67v1.6a1.38 1.38 0 001.38 1.38h1.63a1.38 1.38 0 001.38-1.37v-.8h5.62v.8a1.38 1.38 0 001.38 1.38h1.63a1.38 1.38 0 001.38-1.37v-.8h5.62v.8a1.38 1.38 0 001.38 1.38h1.63a1.38 1.38 0 001.38-1.37v-.8h5.62v.8a1.38 1.38 0 001.38 1.38h1.63a1.38 1.38 0 001.38-1.37v-.8h5.62v.8a1.38 1.38 0 001.38 1.38h1.63a1.38 1.38 0 001.38-1.37v-.8h5.62v.8a1.38 1.38 0 001.38 1.38h1.63a1.38 1.38 0 001.38-1.37v-.8h1.89c1.33 0 2.57-.05 3.72-.15v.95a1.38 1.38 0 001.38 1.38h1.63a1.38 1.38 0 001.38-1.37v-1.6c11.71-2.68 11.72-11.64 11.72-19.7 0-11.3-8.89-17.11-19.83-17.11h-5.93v-68a12.23 12.23 0 007.74-11.36V468a19.8 19.8 0 0015.21 7.42c11.46 0 20.78-10.42 20.78-23.22v-12.9a19.92 19.92 0 001.69-1.64 20.15 20.15 0 004.95-15.75zm-130.49-99.66c3.46 1.84 15.64 2.07 27.61 1.79 12 .28 24.15 0 27.61-1.79V334c0 4.8-22.42 12-27.23 12l-.38-.08-.38.08c-4.8 0-27.23-7.19-27.23-12zm-33 128.91v1.53c0 9.5-6.63 17.22-14.78 17.22s-14.78-7.73-14.78-17.22v-9.31a21.08 21.08 0 007.47 1.36h22.09zm52.9 149.93h-50.64c-14.22 0-14.22-5-14.22-14.89 0-8.21 6.38-11.5 14.22-11.5h11.67l38.93-2.7.06 15.37zm-38.74-76.4h38.67v41.71l-38.67 2.68h-.26V524.7zm-.26-5.74V502h38.94v17h-38.91zm104.77 55.75h.26c7.84 0 14.22 3.29 14.22 11.5 0 9.91 0 14.89-14.22 14.89h-50.64V587.4l.06-15.37 38.93 2.69h11.42zm-11.67-50h.26v44.4h-.26l-38.67-2.68V524.7zm-38.64-5.7v-17h38.95v17h-38.95zm46.84-73.77h-.07v44.58a6.6 6.6 0 01-6.58 6.58H403s-.11-3.73-.16-8.75v-2.79c0-3.51-1.41-5.09-2.82-5-1.41-.09-2.82 1.49-2.82 5v2.79c0 5-.16 8.75-.16 8.75H352.1a6.6 6.6 0 01-6.58-6.58v-44.63h-.07v-.33l30.24.33h48.69l30.24-.33zm35.57 7.51c0 9.5-6.63 17.22-14.78 17.22s-14.78-7.73-14.78-17.22v-7.94h22.09a21.08 21.08 0 007.47-1.36zm6-23.73a13.53 13.53 0 01-6 7.29 14.69 14.69 0 01-7.47 2l-22.09.09v-73.67c0-5.56-6.07-5.94-6.07 0s.07 14.37.07 14.37v59.59H345.41v-59.61s.07-8.46.07-14.37-6.07-5.54-6.07 0v73.59l-22.09-.09a14.69 14.69 0 01-7.47-2 13.53 13.53 0 01-6-7.29 14.89 14.89 0 01-.75-6.46l2.47-83.84c.89-9 9.23-17.08 18.2-17.75l11.12-.83 32.22-2.29c.68.54.48 17.49.48 17.49 0 8.43 23.34 15.29 31.77 15.29h1.3c8.43 0 31.77-6.86 31.77-15.29 0 0-.2-16.95.48-17.49l32.22 2.29 11.12.83c9 .67 17.3 8.8 18.2 17.75l2.47 83.84a14.89 14.89 0 01-.77 6.55z" id="border"/><g id="head"><path id="skin-2" data-name="skin" class="cls-2" d="M446.38 253.1c0-.91.08-1.81.08-2.73 0-30.51-21.06-55.25-47-55.25s-47 24.74-47 55.25c0 1.11 0 2.21.1 3.31-4 2.46-6.9 8.44-6.9 15.43 0 9.19 4.93 16.64 11 16.64a7.47 7.47 0 002.1-.31c.82 24.5 18.74 44.08 40.73 44.08s40.12-19.81 40.74-44.5a7.65 7.65 0 003.25.74c6.08 0 11-7.45 11-16.64-.05-7.65-3.48-14.06-8.1-16.02z"/><path d="M400 306.85s13.63-.25 14.75-.87c.53-.3.56-1.11.44-1.89a2.4 2.4 0 00-2.24-2c-3.58-.24-11.06 1-12.67 1.31a1.73 1.73 0 01-.62 0c-1.58-.29-8.82-1.56-12.67-1.31a2.4 2.4 0 00-2.24 2c-.12.78-.09 1.59.44 1.89 1.1.59 13.4.84 14.81.87zm18.42 9.39a2 2 0 00-3.29-1.44 84.69 84.69 0 01-9.17 6.48 1.53 1.53 0 01-1.71-.14l-2.73-2.14a2.44 2.44 0 00-3 0l-2.73 2.18a1.53 1.53 0 01-1.71.14 84.69 84.69 0 01-9.17-6.48 2 2 0 00-3.29 1.44c-.34 4.12.42 10.47 7.9 12.17h21c7.48-1.74 8.25-8.08 7.9-12.21z" fill="#352a23"/><path class="cls-15" d="M399.42 332.51c-22.68 0-41.28-19-43.53-43.79-7.52-.49-13.31-8.93-13.31-19.61 0-7 2.64-13.45 6.84-16.92v-1.82c0-32.12 22.45-58.25 50-58.25s50 26.13 50 58.25v1c4.85 3.17 8 10 8 17.76 0 11-6.15 19.64-14 19.64H443c-2.3 24.79-20.83 43.74-43.58 43.74zm-40.73-50.08a3 3 0 013 2.9c.77 23.09 17.35 41.18 37.73 41.18 20.58 0 37.15-18.26 37.74-41.58a3 3 0 014.27-2.64 4.68 4.68 0 002 .46c4.34 0 8-6.24 8-13.64 0-7-3.13-11.94-6.21-13.24a3 3 0 01-1.83-2.89v-.18c0-.8.07-1.61.07-2.42 0-28.81-19.75-52.25-44-52.25s-44 23.44-44 52.25c0 .92 0 1.89.09 3.16a3 3 0 01-1.44 2.71c-3.27 2-5.46 7.16-5.46 12.86 0 7.39 3.67 13.64 8 13.64a4.49 4.49 0 001.26-.19 3 3 0 01.78-.13z"/><path class="cls-15" d="M439.27 219.88c-4.75-12-15.89-17.85-15.89-17.85l-11.61-5.4-11.77-.38-11.75.37-11.61 5.38s-11.14 5.85-15.89 17.85-7.25 17.63-7.5 29.13c0 0 1.11 5.37 3.38 6.13 6.75 2.25 5.5-20 5.13-22.62s6.06-10 8.35-16.87c4-12 17.78-7.71 29.9-7.71 12.13 0 25.91-4.3 29.9 7.71 2.29 6.88 8.72 14.25 8.35 16.88s-1.62 24.88 5.13 22.63c2.27-.76 3.38-6.12 3.38-6.12-.25-11.51-2.77-17.13-7.5-29.13z"/><path class="cls-15" d="M413.09 185.72c-11.2-4.4-7.22-4.5-13.09-5.86-5.86 1.36-1.88 1.47-13.09 5.86s-5.16 12.72-5.16 12.72c7.12-.73 18.25-1.79 18.25-1.79s11.13 1.06 18.25 1.79c0 0 6.04-8.33-5.16-12.72z"/><path class="cls-15" d="M383.5 193.58s-25.69 6-24.05 29.58c0 0 4.55-14.74 13.72-17.24s19.75-6.75 10.33-12.34zm33 0s25.69 6 24.05 29.58c0 0-4.55-14.74-13.72-17.24s-19.75-6.75-10.33-12.34z"/></g></svg>