<svg id="player" xmlns="http://www.w3.org/2000/svg" viewBox="0 0 800 800"><defs><clipPath id="clip-path"><path fill="none" d="M299.89 349.61h199.97v20.19H299.89z"/></clipPath><style>.cls-2{fill:#e7bba6}.cls-3{fill:#2d2d2d}.cls-4{fill:#fff}.cls-5{fill:#e52225}.cls-6{fill:#18489c}.cls-7{clip-path:url(#clip-path)}.cls-8{fill:#3e1952}.cls-10{fill:#231f20}.cls-12{fill:#56331d}</style></defs><g id="skin"><path id="arm-left" class="cls-2" d="M305.93 388h36.78v72.38a18.39 18.39 0 01-18.39 18.39 18.39 18.39 0 01-18.39-18.39V388z"/><path id="arm-right" class="cls-2" d="M457.19 388H494v72.38a18.39 18.39 0 01-18.39 18.39 18.39 18.39 0 01-18.39-18.39V388h-.03z"/><path id="leg-left" class="cls-2" d="M349.88 497.99h45.67v45.67h-45.67z"/><path id="leg-right" class="cls-2" d="M404.78 497.99h45.67v45.67h-45.67z"/></g><g id="boots"><path id="left" class="cls-3" d="M395.54 564.09h-22.83l-22.83 1.97h-12.5l-7.5 2.53-5.25 8.5v9.83l1.91 4.17 3.84 4.05 6.33 1.95h58.83v-33z"/><path id="right" class="cls-3" d="M404.67 564.09h22.83l22.83 1.97h12.5l7.5 2.53 5.25 8.5v9.83l-1.91 4.17-3.84 4.05-6.33 1.95h-58.83v-33z"/><path class="cls-4" d="M475.58 576.83s-14.16 21.17-48.38 19.5c0 0-32.61 1.83-19.17-6s35.47-14.16 67.55-13.5zm-150.89 0s14.16 21.17 48.38 19.5c0 0 32.61 1.83 19.17-6s-35.48-14.16-67.55-13.5z" id="details"/></g><g id="socks"><path id="left-2" data-name="left" class="cls-4" d="M349.88 516.91h45.67v48.04h-45.67z"/><path id="right-2" data-name="right" class="cls-4" d="M404.38 516.91h45.67v48.04h-45.67z"/><path class="cls-5" d="M350.33 516h45v15.63h-45zm54.38 0h45v15.63h-45z" id="details-2" data-name="details"/></g><g id="shorts"><path id="shorts-2" data-name="shorts" class="cls-4" d="M341.67 447.77h116.49v45.55a9.8 9.8 0 01-9.8 9.8h-96.88a9.8 9.8 0 01-9.8-9.8v-45.55h-.01z"/><path class="cls-5" d="M342.71 483.5s16.54 7.65 16.79 19.2h-10.12l-5.87-6.45m113.68-12.75s-16.54 7.65-16.79 19.2h10.13l5.88-6.45" id="details-3" data-name="details"/></g><g id="shirt"><path id="shirt-2" data-name="shirt" class="cls-4" d="M369.5 320.77l-48.29 2.99-11.36 6.25-6.83 10.1-3.31 40.73 5.17 7.67 7.66 4.66h29.5l.17 54h114.83v-53.5l29.34-.16 7.01-4 6.99-10.5-3.4-37.34-6.83-11.83-9.77-6.08-49.84-2.99-1 21.24-6.5 6.5-11.16 3.48-11.88 2.02-15.46-3.17-11-5.67-3.66-3.83-.38-20.57z"/><g id="details-4" data-name="details"><path class="cls-5" d="M438.3 335.48h3.93a6.51 6.51 0 016.51 6.51v104.18h-13.96V339a3.51 3.51 0 013.52-3.52zm-80.69 0h3.93a3.51 3.51 0 013.51 3.51v107.18H351.1V342a6.51 6.51 0 016.51-6.52z"/><g id="sponsor-bet365"><path class="cls-5" d="M427.55 388.31h-4.4a2.31 2.31 0 01-2.31-2.31v-50.52h-13.95V386a2.31 2.31 0 01-2.31 2.31h-9.32a2.31 2.31 0 01-2.31-2.31v-50.52H379V386a2.31 2.31 0 01-2.31 2.31h-4.15a11.38 11.38 0 00-11.38 11.38v5.05a11.38 11.38 0 0011.38 11.38h4.15a2.31 2.31 0 012.31 2.31v27.73h13.95v-27.72a2.31 2.31 0 012.31-2.31h9.32a2.31 2.31 0 012.31 2.31v27.73h13.95v-27.73a2.31 2.31 0 012.31-2.31h4.4a11.38 11.38 0 0011.38-11.38v-5.05a11.38 11.38 0 00-11.38-11.39z"/><rect class="cls-4" x="371.71" y="395.47" width="56.66" height="13.49" rx="6.75" ry="6.75"/></g><g id="arm-l"><path class="cls-5" d="M341.67 327.06a4.17 4.17 0 01-3.75 4.15l-14.42 1.45s-12 1.67-13.33 14.17-4.24 42.32-4.24 42.32l-6-10.64 2.95-36.31 6.94-12.11 10.33-5.73 21.55-1.86z"/><path class="cls-5" d="M342.62 364.2l.08-12.85c0-3.22-2-5.85-4.48-5.85H335a10.5 10.5 0 00-9 5.66 18.72 18.72 0 00-2.27 8.89c-.34 12-1 33.63-1 33.63l19.42-.37z"/></g><g id="arm-r"><path class="cls-5" d="M459.16 327.06a4.17 4.17 0 003.75 4.15l14.42 1.45s12 1.67 13.33 14.17 4.24 42.32 4.24 42.32l6-10.64-2.9-36.31-7-12.11-10.33-5.73-21.55-1.86z"/><path class="cls-5" d="M457.28 364.2l-.08-12.85c0-3.22 2-5.85 4.48-5.85h3.23a10.5 10.5 0 019 5.66 18.72 18.72 0 012.27 8.89c.34 12 1 33.63 1 33.63l-19.42-.37z"/></g><g id="crest-stoke-16"><path class="cls-4" d="M431.94 363.74h-8.83a1.5 1.5 0 00-1.5 1.5V376a4.15 4.15 0 002.55 3.83 8.74 8.74 0 006.74 0 4.15 4.15 0 002.55-3.83v-10.76a1.5 1.5 0 00-1.51-1.5z"/><path class="cls-6" d="M434.42 376.45v-11.21a2.49 2.49 0 00-2.49-2.49h-8.83a2.49 2.49 0 00-2.49 2.49v11.18a2.33 2.33 0 00-.8.51 2.32 2.32 0 00.76 3.82l5.08 2a5 5 0 003.71 0l5.08-2a2.32 2.32 0 000-4.33zm-.62.86zm.7.34zm-.05 0zm-.06 0zm-.06 0zm-.16-.09zm-.06 0zm-12.5-12.16a1.5 1.5 0 011.5-1.5h8.83a1.5 1.5 0 011.5 1.5V376a4.14 4.14 0 01-.21 1.31h-.13L429 379a4.09 4.09 0 01-3 0l-4-1.61h-.13a4.14 4.14 0 01-.21-1.31zm-.35 12.07zm-.3.08zm-.06 0zm-.16.09zm0 0zm-.05 0zm-.05 0zm-.07.07zm-.05.05zm0 .06zm0 .06zm0 .06v.06zm0 .08zm0 .07zm0 .07zm0 .07v.07zm0 .09zm0 .09zm0 .08zm0 .08v.08c0 .03-.39-.08-.39-.1zm7.4 3.64a4 4 0 01-.72-.07 4 4 0 001.47 0 4 4 0 01-1.14.05zm6.62-2.35l.13-.07zm.41-2.14zm0 .05zm0 .05zm0 .06zm0 .06v.06zm0 .08zm0 .07zm0 .07zm0 .07v.07zm0 .09zm0 .09zm0 .08zm0 .08v.08c0 .03-.02-.08-.02-.1z"/><path class="cls-4" d="M431.94 362.75a2.49 2.49 0 012.49 2.49v11.18a2.32 2.32 0 010 4.33l-5.08 2a5 5 0 01-3.71 0l-5.08-2a2.32 2.32 0 010-4.33v-11.18a2.49 2.49 0 012.49-2.49h8.83m-4.42 16.56A4.09 4.09 0 00429 379l4.05-1.63h.13a4.14 4.14 0 00.21-1.31v-10.82a1.5 1.5 0 00-1.5-1.5h-8.83a1.5 1.5 0 00-1.5 1.5V376a4.14 4.14 0 00.21 1.31h.13L426 379a4.09 4.09 0 001.52.29m-7.24-1.5v-.06.06m-.13.18v-.07.07m14.72 0v-.07.07m-14.76.36v-.08.08m14.8 0v-.08.08m-.78 1.22l.13-.07-.13.07m-6.61 2.35a4 4 0 01-.72-.07 4 4 0 001.47 0 4 4 0 01-.75.07m4.42-19.9h-8.83a3.29 3.29 0 00-3.28 3.28V376a3.15 3.15 0 00-.54.42 3.12 3.12 0 001 5.12l5.08 2a5.77 5.77 0 004.3 0l5.08-2a3.12 3.12 0 00.47-5.55v-10.75a3.29 3.29 0 00-3.28-3.28zm-9.46 14.79a3.34 3.34 0 01-.08-.72v-10.83a.71.71 0 01.71-.71h8.83a.71.71 0 01.71.71V376a3.34 3.34 0 01-.08.72l-3.82 1.53a3.29 3.29 0 01-2.45 0l-3.82-1.53z"/><path class="cls-5" d="M423.3 367.21v8.6a1.07 1.07 0 00.79 1l.3.08a.48.48 0 00.6-.47v-9.24a.85.85 0 00-.85-.85.85.85 0 00-.84.88zm3.38 1.53v7.71a.84.84 0 00.84.84.84.84 0 00.84-.84v-7.71a.85.85 0 00-.85-.85.85.85 0 00-.83.85zm3.98 8.18l.3-.08a1.07 1.07 0 00.79-1v-8.6a.85.85 0 00-.85-.85.85.85 0 00-.85.85v9.24a.48.48 0 00.61.44z"/></g><rect id="brand-macron" class="cls-6" x="359.73" y="369.44" width="23.63" height="6.31" rx="3.16" ry="3.16"/><g class="cls-7" id="logo-pl-ready-16"><g class="cls-7"><path class="cls-4" d="M499.35 359.08c.61 5.19-1.3 9.68-4.27 10s-5.87-3.57-6.48-8.76 1.3-9.68 4.27-10 5.87 3.57 6.48 8.76"/><path class="cls-8" d="M495.16 369.78c-3.18.37-6.29-3.84-6.95-9.4s1.4-10.37 4.58-10.75 6.29 3.84 6.95 9.39-1.4 10.38-4.58 10.75M493 351c-2.75.32-4.53 4.5-4 9.3s3.26 8.45 6 8.13 4.53-4.49 4-9.3-3.26-8.45-6-8.13"/><path class="cls-8" d="M495.27 354.28v-.1h-.09l-.28.11h-.13l-.34-.93h-.06l-.33.57h-.13l-.39-.66a.07.07 0 00-.05 0l-.23.73h-.13l-.45-.48h-.06l-.08.69v.29h-.45v.22l.17.7v.2H492a4.2 4.2 0 011.4-.49 3.75 3.75 0 011.51.15h.14v-1.09zm.97 2.43a3.91 3.91 0 00-5.14.6 10.81 10.81 0 00.34 3.71l.66 2c.54 1.61 1.68 3.58 2.68 3.47s1.66-2.3 1.81-4l.18-2.1a10.78 10.78 0 00-.53-3.69m-3.11 6l-.15-1.32c-.24 0-.47-.29-.52-.7l-.09-.79c0-.42.1-.78.34-.8l.45-.05c.24 0 .47.29.52.7l.12 1a.66.66 0 00.23.46c.09.86.18 1.88.18 1.9l-.4.51c-.31 0-.61-.37-.67-.91m1.56 2.19h-.19c-.18 0-.41-.26-.56-.54a.4.4 0 010-.34 3.35 3.35 0 01.36-.56.18.18 0 01.28 0 3.44 3.44 0 01.48.46.41.41 0 01.06.34c-.08.3-.24.64-.42.66m1-4.6c0 .42-.1.78-.34.8l.16 1.32c.06.54-.13 1-.44 1l-.51-.41s-.15-1-.27-1.89a.67.67 0 00.12-.51l-.12-1c0-.42.1-.78.34-.8l.45-.05c.24 0 .47.29.52.7z"/><path class="cls-4" d="M300.4 359.08c-.61 5.19 1.3 9.68 4.27 10s5.87-3.57 6.48-8.76-1.3-9.68-4.27-10-5.87 3.57-6.48 8.76"/><path class="cls-8" d="M300 359c.65-5.55 3.77-9.77 6.95-9.39s5.23 5.19 4.58 10.75-3.77 9.77-6.94 9.39-5.23-5.17-4.59-10.75m.78.09c-.56 4.81 1.21 9 4 9.3s5.45-3.32 6-8.13-1.21-9-4-9.3-5.45 3.32-6 8.13"/><path class="cls-8" d="M304.49 354.28v-.1h.09l.28.11h.14l.34-.93h.06l.33.57h.27l.39-.66a.07.07 0 01.05 0l.23.73h.33l.45-.48h.06l.08.69v.29h.44v.28l-.17.7v.2h-.15a4.2 4.2 0 00-1.4-.49 3.75 3.75 0 00-1.51.15h-.14v-1.18M303 360.4l.18 2.1c.15 1.69.8 3.88 1.81 4s2.15-1.85 2.68-3.47l.66-2a10.84 10.84 0 00.34-3.71 3.92 3.92 0 00-5.15-.6 10.81 10.81 0 00-.53 3.69m3 3.25l-.4-.51s.09-1 .18-1.9a.66.66 0 00.23-.46l.12-1c0-.41.28-.73.52-.7l.45.05c.24 0 .39.39.34.8l-.09.79c0 .42-.28.73-.52.7l-.16 1.32c-.06.54-.36.94-.67.91m-1.31.63a.41.41 0 01.07-.34 3.4 3.4 0 01.48-.46.18.18 0 01.28 0 3.41 3.41 0 01.36.56.41.41 0 010 .34c-.15.28-.38.56-.56.54h-.19c-.18 0-.34-.35-.42-.66m-.5-4.73c0-.42.28-.73.52-.7l.45.05c.24 0 .39.39.34.8l-.12 1a.66.66 0 00.12.51c-.12.86-.26 1.87-.27 1.89l-.51.41c-.31 0-.51-.5-.44-1l.16-1.32c-.24 0-.39-.39-.34-.8z"/></g></g></g></g><path id="neck" fill="#cfa696" d="M430.54 343.75l-31.19 12.79-29.85-12.79v-22.98h61.04v22.98z"/><path d="M502.88 374.39L500.41 344c-1.19-11.87-11.83-22.25-23.72-23.14l-37.14-2.71c-4.07-.45-20.52-.09-39.55.53-19-.62-35.48-1-39.55-.53l-37.14 2.71c-11.89.89-22.53 11.27-23.72 23.14l-2.47 30.36a20.15 20.15 0 005 15.74 19.92 19.92 0 001.69 1.64v66.36c0 12.81 9.32 23.22 20.78 23.22a19.8 19.8 0 0015.21-7.42v19.57a12.23 12.23 0 007.74 11.36v58.26h-5.93c-10.93 0-19.83 5.8-19.83 17.11 0 8.06 0 17 11.72 19.7v1.6a1.38 1.38 0 001.38 1.38h1.63a1.38 1.38 0 001.38-1.37v-.95c1.16.09 2.39.15 3.73.15h1.89v.8a1.38 1.38 0 001.38 1.38h1.63a1.38 1.38 0 001.38-1.37v-.8h5.62v.8a1.38 1.38 0 001.38 1.38h1.63a1.38 1.38 0 001.38-1.37v-.8h5.62v.8a1.38 1.38 0 001.38 1.38h1.63a1.38 1.38 0 001.38-1.37v-.8h5.62v.8a1.38 1.38 0 001.38 1.38h1.63a1.38 1.38 0 001.38-1.37v-.8h5.62v.8a1.38 1.38 0 001.38 1.38h1.63a1.38 1.38 0 001.38-1.37v-.8h5.62v.8a1.38 1.38 0 001.38 1.38h1.63a1.38 1.38 0 001.38-1.37v-.81l.06-55.45v-39.53h4v39.49l.06 54.67v1.6a1.38 1.38 0 001.38 1.38h1.63a1.38 1.38 0 001.38-1.37v-.8h5.62v.8a1.38 1.38 0 001.38 1.38h1.63a1.38 1.38 0 001.38-1.37v-.8h5.62v.8a1.38 1.38 0 001.38 1.38h1.63a1.38 1.38 0 001.38-1.37v-.8h5.62v.8a1.38 1.38 0 001.38 1.38h1.63a1.38 1.38 0 001.38-1.37v-.8h5.62v.8a1.38 1.38 0 001.38 1.38h1.63a1.38 1.38 0 001.38-1.37v-.8h5.62v.8a1.38 1.38 0 001.38 1.38h1.63a1.38 1.38 0 001.38-1.37v-.8h1.89c1.33 0 2.57-.05 3.72-.15v.95a1.38 1.38 0 001.38 1.38h1.63a1.38 1.38 0 001.38-1.37v-1.6c11.71-2.68 11.72-11.64 11.72-19.7 0-11.3-8.89-17.11-19.83-17.11h-5.93v-58.33a12.23 12.23 0 007.74-11.36v-19.57a19.8 19.8 0 0015.21 7.42c11.46 0 20.78-10.42 20.78-23.22v-66.36a19.92 19.92 0 001.69-1.64 20.15 20.15 0 004.99-15.75zm-130.49-46.17c3.46 1.84 15.64 2.07 27.61 1.79 12 .28 24.15 0 27.61-1.79V340c0 4.8-22.42 12-27.23 12l-.38-.08-.38.08c-4.8 0-27.23-7.19-27.23-12zm-33 75.43v55c0 9.5-6.63 17.22-14.78 17.22s-14.78-7.73-14.78-17.22v-62.78a21.08 21.08 0 007.47 1.36h22.09zm52.9 191.48h-50.64c-14.22 0-14.22-5-14.22-14.89 0-8.21 6.38-11.5 14.22-11.5h11.67l38.93-2.74.06 15.37zm-38.74-76.4h38.67v41.71l-38.67 2.68h-.26v-44.4zm-.26-5.74v-7.26h38.94V513h-38.91zm104.77 55.75h.26c7.84 0 14.22 3.29 14.22 11.5 0 9.91 0 14.89-14.22 14.89h-50.64v-13.7l.06-15.37 38.93 2.69h11.42zm-11.67-50h.26v44.4h-.26l-38.67-2.68v-41.73zM407.75 513v-7.21h38.95V513h-38.95zm46.84-61.84h-.07v42.35a6.6 6.6 0 01-6.58 6.58h-1.26L403 500s-.11-3.73-.16-8.75v-2.79c0-3.51-1.41-5.09-2.82-5-1.41-.09-2.82 1.49-2.82 5v2.79c0 5-.16 8.75-.16 8.75H352.1a6.6 6.6 0 01-6.58-6.58v-42.27h-.07v-.33l30.24.33h48.69l30.24-.33zm35.57 7.51c0 9.5-6.63 17.22-14.78 17.22s-14.78-7.73-14.78-17.22v-61.44h22.09a21.08 21.08 0 007.47-1.36zm6-77.21a13.53 13.53 0 01-6 7.29 14.69 14.69 0 01-7.47 2l-22.09.09v-20.15c0-5.56-6.07-5.94-6.07 0s.07 14.37.07 14.37v59.59H345.41V385s.07-8.46.07-14.37-6.07-5.54-6.07 0v20.17l-22.09-.09a14.69 14.69 0 01-7.47-2 13.53 13.53 0 01-6-7.29 14.89 14.89 0 01-.75-6.46l2.47-30.36c.89-9 9.23-17.08 18.2-17.75l11.12-.83 32.22-2.29c.68.54.48 17.49.48 17.49 0 8.43 23.34 15.29 31.77 15.29h1.3c8.43 0 31.77-6.86 31.77-15.29 0 0-.2-16.95.48-17.49l32.22 2.29 11.12.83c9 .67 17.3 8.8 18.2 17.75l2.45 30.4a14.89 14.89 0 01-.75 6.45z" id="border"/><g id="shirt-collars"><g id="shirt-collars-2" data-name="shirt-collars"><path class="cls-4" d="M380.69 345.52l-8.52 8.72s-13.48-4.45-12.37-19.86.31-12.55.31-12.55l8 .36z"/><path class="cls-6" d="M376.56 339s-3.62 6.81-1.69 11.13l5.82-4.92s-2.25-5.15-4.13-6.21z"/><path class="cls-10" d="M372.17 356.54a2.3 2.3 0 01-.72-.12c-.15 0-15.17-5.21-13.95-22.22.52-7.2.6-10.12.58-11.29a2.31 2.31 0 01-.19-1.72 2.41 2.41 0 012.74-1.86 2.64 2.64 0 01.73.23l6.88.31a2.31 2.31 0 011.93 1.21l12.56 23.33a2.31 2.31 0 01-.38 2.71l-8.52 8.72a2.31 2.31 0 01-1.66.7zm-9.49-32.29c-.05 2.19-.25 5.65-.58 10.29-.41 5.66 1.29 10.33 5 13.86a18.58 18.58 0 004.47 3.09l6.23-6.38-11.14-20.68z"/></g><g id="shirt-collars-3" data-name="shirt-collars"><path class="cls-4" d="M419.35 345.52l8.52 8.72s13.48-4.45 12.37-19.86-.31-12.55-.31-12.55l-8 .36z"/><path class="cls-6" d="M423.48 339s3.63 6.81 1.69 11.13l-5.82-4.92s2.26-5.15 4.13-6.21z"/><path class="cls-10" d="M426.22 355.85l-8.52-8.72a2.31 2.31 0 01-.38-2.71l12.56-23.33a2.31 2.31 0 011.93-1.21l6.88-.31a2.64 2.64 0 01.73-.23 2.41 2.41 0 012.74 1.86 2.31 2.31 0 01-.19 1.72c0 1.16.07 4.08.58 11.29 1.23 17-13.8 22.17-13.95 22.22a2.31 2.31 0 01-2.37-.58zm7.1-31.41l-11.14 20.68 6.23 6.38a18.58 18.58 0 004.47-3.09c3.76-3.53 5.46-8.2 5-13.86-.33-4.64-.53-8.1-.58-10.29z"/></g></g><g id="head"><path class="cls-10" d="M400 192.25s19.13.75 23.88 5.13 23.66 19.75 23.08 32.88.43 23.41-1 24.75a.48.48 0 01-.33.16c-1.24 0-2.29-6.41-2.29-6.41l-4.75-11.87-3-14-8.59-6.76-11.87 2-8.87 2.5-6.26-7.25-6.25 7.25-8.87-2.5-11.87-2-8.62 6.75-3 14-4.75 11.88s-1 6.41-2.29 6.41a.48.48 0 01-.35-.17c-1.38-1.34-.37-11.62-1-24.75s18.33-28.5 23.08-32.87 23.92-5.13 23.92-5.13m0-6c-.37 0-5.47.23-11 1-11.31 1.55-15.1 4-17 5.73-.43.4-1 .89-1.64 1.47-11.82 10.55-23.89 23.09-23.36 36.07.23 5.19.2 10 .18 13.89 0 8.72-.07 12.32 2.59 14.9a6.46 6.46 0 004.51 1.85c6 0 7.45-6.89 8.11-10.79l4.51-11.27a6 6 0 00.3-1l2.54-11.87 4.83-3.78 8.95 1.51 8.56 2.41a6 6 0 006.17-1.86l1.71-2 1.71 2a6 6 0 006.17 1.86l8.56-2.41 8.95-1.51 4.83 3.78 2.54 11.87a6 6 0 00.3 1l4.51 11.27c.66 3.89 2.12 10.79 8.11 10.79a6.46 6.46 0 004.51-1.85c2.66-2.58 2.64-6.18 2.59-14.9 0-3.88 0-8.71.18-13.89.58-13-11.49-25.52-23.37-36.08-.65-.58-1.21-1.07-1.64-1.47-5.75-5.3-21.29-6.46-27.7-6.71z"/><path id="skin-2" data-name="skin" class="cls-2" d="M446.38 259.07c0-.91.08-1.81.08-2.73 0-30.51-21.06-55.25-47-55.25s-47 24.74-47 55.25c0 1.11 0 2.21.1 3.31-4 2.46-6.9 8.44-6.9 15.43 0 9.19 4.93 16.64 11 16.64a7.47 7.47 0 002.1-.31c.82 24.5 18.74 44.08 40.73 44.08s40.12-19.81 40.74-44.5a7.65 7.65 0 003.25.74c6.08 0 11-7.45 11-16.64-.05-7.65-3.48-14.09-8.1-16.02z"/><path class="cls-12" d="M400 312.93s13.63-.25 14.75-.87c.53-.3.56-1.11.44-1.89a2.4 2.4 0 00-2.24-2c-3.58-.24-11.06 1-12.67 1.31a1.73 1.73 0 01-.62 0c-1.58-.29-8.82-1.56-12.67-1.31a2.4 2.4 0 00-2.24 2c-.12.78-.09 1.59.44 1.89 1.12.59 13.42.84 14.81.87zm18.44 9.38a2 2 0 00-3.29-1.42c-8.09 6.27-15.11 6.95-15.11 6.95s-7-.68-15.11-6.95a2 2 0 00-3.29 1.42c-.35 4.12.41 10.49 7.9 12.19h21c7.46-1.71 8.25-8.07 7.9-12.19z" opacity=".1"/><path class="cls-12" d="M437.25 220.88c-4.12-9.87-17.94-16.12-17.94-16.12L400 202.25l-19.31 2.5s-13.82 6.25-17.94 16.13-12.12 15.75-9 36.13c0 0 10.63-18 10.38-24.5s9.13-12.87 11.38-12.62 4 6.25 24.5 6.25 22.25-6 24.5-6.25 11.63 6.13 11.38 12.63S446.25 257 446.25 257c3.13-20.37-4.87-26.25-9-36.12z"/><path class="cls-10" d="M399.42 338.48c-22.68 0-41.28-19-43.53-43.79-7.52-.49-13.31-8.93-13.31-19.61 0-7 2.64-13.45 6.84-16.92v-1.82c0-32.12 22.45-58.25 50-58.25s50 26.13 50 58.25v1c4.85 3.17 8 10 8 17.76 0 11-6.15 19.64-14 19.64H443c-2.3 24.79-20.83 43.74-43.58 43.74zm-40.73-50.08a3 3 0 013 2.9c.77 23.09 17.35 41.18 37.73 41.18 20.58 0 37.15-18.26 37.74-41.58a3 3 0 014.27-2.64 4.68 4.68 0 002 .46c4.34 0 8-6.24 8-13.64 0-7-3.13-11.94-6.21-13.25a3 3 0 01-1.83-2.89v-.18c0-.8.07-1.61.07-2.42 0-28.81-19.75-52.25-44-52.25s-44 23.44-44 52.25c0 .92 0 1.89.09 3.16a3 3 0 01-1.44 2.71c-3.27 2-5.46 7.16-5.46 12.87 0 7.39 3.67 13.64 8 13.64a4.45 4.45 0 001.26-.19 3 3 0 01.78-.13z"/><path class="cls-12" d="M447 230.25c.58-13.12-18.33-28.5-23.08-32.87S400 192.25 400 192.25s-19.12.75-23.87 5.13-23.67 19.75-23.13 32.87-.43 23.41 1 24.75 2.63-6.25 2.63-6.25l4.75-11.87.71-3.29A30.21 30.21 0 01373 216.13l11.88 2 8.88 2.5 6.25-7.25 6.25 7.25 8.88-2.5 11.88-2a82.51 82.51 0 0110.92 17.46l.71 3.29 4.75 11.88s1.24 7.59 2.63 6.25.35-11.63.97-24.76z"/></g></svg>