<svg id="player" xmlns="http://www.w3.org/2000/svg" viewBox="0 0 800 800"><defs><clipPath id="clip-path"><path fill="none" d="M300.14 349.43h199.97v20.19H300.14z"/></clipPath><style>.cls-2{fill:#754a2c}.cls-3{fill:#f37137}.cls-4{fill:#fff}.cls-5{fill:#285eab}.cls-6{fill:#d1202e}.cls-9{clip-path:url(#clip-path)}.cls-10{fill:#3e1952}.cls-12{fill:#231f20}.cls-14{fill:#2b1a11}</style></defs><g id="skin"><path id="arm-left" class="cls-2" d="M305.93 382h36.78v72.4a18.39 18.39 0 01-18.39 18.39 18.39 18.39 0 01-18.39-18.39V382z"/><path id="arm-right" class="cls-2" d="M457.19 382H494v72.4a18.39 18.39 0 01-18.39 18.39 18.39 18.39 0 01-18.39-18.39V382h-.03z"/><path id="leg-left" class="cls-2" d="M349.88 492.02h45.67v45.67h-45.67z"/><path id="leg-right" class="cls-2" d="M404.78 492.02h45.67v45.67h-45.67z"/></g><g id="boots"><path id="left" class="cls-3" d="M395.54 570.04h-22.83l-22.83 1.97h-12.5l-7.5 2.53-5.25 8.5v9.83l1.91 4.17 3.84 4.05 6.33 1.95h58.83v-33z"/><path id="right" class="cls-3" d="M404.67 570.04h22.83l22.83 1.97h12.5l7.5 2.53 5.25 8.5v9.83l-1.91 4.17-3.84 4.05-6.33 1.95h-58.83v-33z"/><path class="cls-4" d="M363.78 572.17s-32.3 34.92-36.89 26c0 0 8.21-22.87 26.58-25.5s10.31-.5 10.31-.5zm72.76 0s32.3 34.92 36.89 26c0 0-8.21-22.87-26.58-25.5s-10.31-.5-10.31-.5z" id="details"/></g><g id="socks"><path id="left-2" data-name="left" class="cls-5" d="M349.88 522h45.67v48.04h-45.67z"/><path id="right-2" data-name="right" class="cls-5" d="M404.38 522h45.67v48.04h-45.67z"/><path class="cls-6" d="M392 530.17h3.28v30H392a4.11 4.11 0 01-4.11-4.11v-21.78a4.11 4.11 0 014.11-4.11zm12.69 0H408a4.11 4.11 0 014.11 4.11v21.81a4.11 4.11 0 01-4.11 4.11h-3.28v-30l-.03-.03z" id="details-2" data-name="details"/></g><g id="shorts"><path id="shorts-2" data-name="shorts" class="cls-5" d="M341.67 442.54h116.49v47a9.95 9.95 0 01-9.95 9.95h-96.6a9.95 9.95 0 01-9.95-9.95v-47h.01z"/><g id="details-3" data-name="details"><path class="cls-6" d="M342.71 442.54h12v58h-2.92a9.12 9.12 0 01-9.12-9.12v-48.88h.04z"/><path class="cls-6" d="M454.37 442.54h2.92v58h-12v-48.88a9.12 9.12 0 019.08-9.12z" transform="rotate(-180 451.27 471.52)"/></g></g><g id="shirt"><path id="shirt-2" data-name="shirt" class="cls-6" d="M369.5 314.8l-48.29 2.99-11.36 6.25-6.83 10.1-1.93 98.78 11.16 7.16 29.96 1.13h147.21l10.96-12.79-3.4-92.71-6.83-11.84-9.77-6.08-49.84-2.99-1 21.24-6.5 6.5-11.16 3.48-11.88 2.02-15.46-3.17-11-5.66-3.66-3.84-.38-20.57z"/><g id="details-4" data-name="details"><path class="cls-5" d="M354.75 316.52h90.49v110.66a7.19 7.19 0 01-7.19 7.19h-76.1a7.19 7.19 0 01-7.19-7.19V316.52h-.01z"/><g id="crest-crystal-palace-16"><path class="cls-4" d="M425.35 350.71a.35.35 0 01.34.22l7.34 7a1.22 1.22 0 00.76.34c2.39.17 4.12.86 4.12 3.49v.45a.3.3 0 01-.45.26l-.76-.44a2 2 0 00-1-.27l-3.17-.18a.83.83 0 00-.83.83v2.34a3.14 3.14 0 11-2 .08l-1.89-2a.79.79 0 00-1.19 0l-1.2 1.49a.78.78 0 01-1.13.09l-2.21-2a.56.56 0 01.12-.91l3.2-1.68-.57-.48a5.25 5.25 0 010-8.28l.37-.32a.38.38 0 01.25-.09m0-1a1.35 1.35 0 00-.87.32l-.37.32a6.35 6.35 0 00-2.36 4.87 6.25 6.25 0 001.86 4.41l-2 1a1.52 1.52 0 00-.32 2.48l2.21 2a1.74 1.74 0 002.52-.2l1.08-1.33.94 1a4.13 4.13 0 00-.71.79 4.11 4.11 0 106.65-.13 4.15 4.15 0 00-1.41-1.18v-1.56l3 .17h.05a1.07 1.07 0 01.53.14l.76.44a1.26 1.26 0 001.89-1.1v-.45a4 4 0 00-1.57-3.45 6.59 6.59 0 00-3.45-1 .26.26 0 01-.16-.07l-7.23-6.89a1.33 1.33 0 00-1.12-.6z"/><path class="cls-5" d="M433 357.94l-7.34-7a.38.38 0 00-.59-.13l-.37.32a5.25 5.25 0 000 8.28l.57.48-3.2 1.68a.56.56 0 00-.12.91l2.21 2a.78.78 0 001.13-.09l1.2-1.49a.79.79 0 011.19 0l3.33 3.52a.35.35 0 00.61-.24v-3.7a.83.83 0 01.88-.83l3.17.18a2 2 0 011 .27l.76.44a.3.3 0 00.45-.26v-.45c0-2.63-1.73-3.32-4.12-3.49a1.22 1.22 0 01-.76-.4z"/><circle class="cls-6" cx="430.73" cy="367.77" r="3.14"/></g><rect id="brand-macron" x="359.63" y="358.63" width="23.62" height="6.31" rx="3.16" ry="3.16" fill="#e1b924"/><g id="sponsor-mansion"><path d="M384.46 374.93a5.51 5.51 0 00-5.51 5.51v18.15a2.42 2.42 0 002.42 2.42h20.43a3.22 3.22 0 003.22-3.22v-19.64a3.22 3.22 0 00-3.22-3.22z" fill="#e11f26"/><rect class="cls-4" x="383.86" y="378.6" width="16.27" height="18.75" rx="4.92" ry="4.92"/><rect class="cls-4" x="381.81" y="404.62" width="34.27" height="3.85" rx="1.92" ry="1.92"/><rect class="cls-4" x="407.33" y="378.66" width="9.31" height="7.45" rx="3.08" ry="3.08"/><rect class="cls-4" x="407.33" y="389.83" width="9.31" height="7.45" rx="3.08" ry="3.08"/></g><g class="cls-9" id="logo-pl-ready-16"><g class="cls-9"><path class="cls-4" d="M499.6 358.9c.61 5.19-1.3 9.68-4.27 10s-5.87-3.57-6.48-8.76 1.3-9.68 4.27-10 5.87 3.57 6.48 8.76"/><path class="cls-10" d="M495.41 369.6c-3.18.37-6.29-3.84-6.95-9.4s1.4-10.37 4.58-10.75 6.29 3.84 6.95 9.39-1.4 10.38-4.58 10.75m-2.21-18.79c-2.75.32-4.53 4.5-4 9.3s3.26 8.45 6 8.13 4.53-4.49 4-9.3-3.26-8.45-6-8.13"/><path class="cls-10" d="M495.52 354.1v-.1h-.09l-.28.11H495l-.34-.93h-.06l-.33.57H494l-.39-.66a.07.07 0 00-.05 0l-.23.73H493l-.45-.48h-.06l-.08.69v.29h-.45v.22l.17.7v.2h.15a4.2 4.2 0 011.4-.49 3.75 3.75 0 011.51.15h.14v-1.09zm.96 2.43a3.91 3.91 0 00-5.14.6 10.81 10.81 0 00.34 3.71l.66 2c.54 1.61 1.68 3.58 2.68 3.47s1.66-2.3 1.81-4l.18-2.1a10.78 10.78 0 00-.53-3.69m-3.11 6l-.15-1.32c-.24 0-.47-.29-.52-.7l-.09-.79c0-.42.1-.78.34-.8l.45-.05c.24 0 .47.29.52.7l.12 1a.66.66 0 00.23.46c.09.86.18 1.88.18 1.9l-.4.51c-.31 0-.61-.37-.67-.91m1.56 2.19h-.19c-.18 0-.41-.26-.56-.54a.4.4 0 010-.34 3.35 3.35 0 01.36-.56.18.18 0 01.28 0 3.44 3.44 0 01.48.46.41.41 0 01.06.34c-.08.3-.24.64-.42.66m1-4.6c0 .42-.1.78-.34.8l.16 1.32c.06.54-.13 1-.44 1l-.51-.41s-.15-1-.27-1.89a.67.67 0 00.12-.51l-.12-1c0-.42.1-.78.34-.8l.45-.05c.24 0 .47.29.52.7z"/><path class="cls-4" d="M300.65 358.9c-.61 5.19 1.3 9.68 4.27 10s5.87-3.57 6.48-8.76-1.3-9.68-4.27-10-5.87 3.57-6.48 8.76"/><path class="cls-10" d="M300.26 358.85c.65-5.55 3.77-9.77 6.95-9.39s5.23 5.19 4.58 10.75-3.79 9.79-6.95 9.39-5.23-5.19-4.58-10.75m.78.09c-.56 4.81 1.21 9 4 9.3s5.45-3.32 6-8.13-1.21-9-4-9.3-5.45 3.32-6 8.13"/><path class="cls-10" d="M304.73 354.1v-.1h.09l.28.11h.13l.34-.93h.06l.33.57h.13l.39-.66a.07.07 0 01.05 0l.23.73h.13l.45-.48h.06l.08.69v.29h.44v.28l-.17.7v.2h.25a4.2 4.2 0 00-1.4-.49 3.75 3.75 0 00-1.51.15h-.14v-1.18m-1.71 6.24l.18 2.1c.15 1.69.8 3.88 1.81 4s2.15-1.85 2.68-3.47l.66-2a10.84 10.84 0 00.34-3.71 3.92 3.92 0 00-5.15-.6 10.81 10.81 0 00-.53 3.69m3 3.25l-.4-.51s.09-1 .18-1.9a.66.66 0 00.23-.46l.12-1c0-.42.28-.73.52-.7l.45.05c.24 0 .39.39.34.8l-.09.79c0 .42-.28.73-.52.7l-.16 1.32c-.06.54-.36.94-.67.91m-1.31.63a.41.41 0 01.06-.34 3.4 3.4 0 01.48-.46.18.18 0 01.28 0 3.41 3.41 0 01.36.56.41.41 0 010 .34c-.15.28-.38.56-.56.54h-.19c-.18 0-.34-.35-.42-.66m-.5-4.73c0-.42.28-.73.52-.7l.45.05c.24 0 .39.39.34.8l-.12 1a.66.66 0 00.12.51c-.12.86-.26 1.87-.27 1.89l-.51.41c-.31 0-.51-.5-.44-1l.16-1.32c-.24 0-.39-.39-.34-.8z"/></g></g></g></g><path id="neck" fill="#543622" d="M427.61 339.42l-27.59 8.62-28.6-9.62-1.92-23.62h61.04l-2.93 24.62z"/><path d="M502.88 421.91l-2.47-83.84c-1.19-11.87-11.83-22.25-23.72-23.14l-37.14-2.71c-4.07-.45-20.52-.09-39.55.53-19-.62-35.48-1-39.55-.53l-37.14 2.71c-11.89.89-22.53 11.27-23.72 23.14l-2.47 83.84a20.15 20.15 0 005 15.74 19.92 19.92 0 001.69 1.64v12.87c0 12.81 9.32 23.22 20.78 23.22a19.8 19.8 0 0015.25-7.38v21.79a12.23 12.23 0 007.74 11.36v68h-5.93c-10.93 0-19.83 5.8-19.83 17.11 0 8.06 0 17 11.72 19.7v1.6a1.38 1.38 0 001.38 1.38h1.63a1.38 1.38 0 001.38-1.37v-.95c1.16.09 2.39.15 3.73.15h1.89v.8a1.38 1.38 0 001.38 1.38h1.63a1.38 1.38 0 001.38-1.37v-.8h5.62v.8a1.38 1.38 0 001.38 1.38h1.63a1.38 1.38 0 001.38-1.37v-.8h5.62v.8a1.38 1.38 0 001.38 1.38h1.63a1.38 1.38 0 001.38-1.37v-.8h5.62v.8a1.38 1.38 0 001.38 1.38h1.63a1.38 1.38 0 001.38-1.37v-.8h5.62v.8a1.38 1.38 0 001.38 1.38h1.63a1.38 1.38 0 001.38-1.37v-.8h5.62v.8a1.38 1.38 0 001.38 1.38h1.63a1.38 1.38 0 001.38-1.37v-.81l.06-55.45V502h4v49.21l.06 54.67v1.6a1.38 1.38 0 001.38 1.38h1.63a1.38 1.38 0 001.38-1.37v-.8h5.62v.8a1.38 1.38 0 001.38 1.38h1.63a1.38 1.38 0 001.38-1.37v-.8h5.62v.8a1.38 1.38 0 001.38 1.38h1.63a1.38 1.38 0 001.38-1.37v-.8h5.62v.8a1.38 1.38 0 001.38 1.38h1.63a1.38 1.38 0 001.38-1.37v-.8h5.62v.8a1.38 1.38 0 001.38 1.38h1.63a1.38 1.38 0 001.38-1.37v-.8h5.62v.8a1.38 1.38 0 001.38 1.38h1.63a1.38 1.38 0 001.38-1.37v-.8h1.89c1.33 0 2.57-.05 3.72-.15v.95a1.38 1.38 0 001.38 1.38h1.63a1.38 1.38 0 001.38-1.37v-1.6c11.71-2.68 11.72-11.64 11.72-19.7 0-11.3-8.89-17.11-19.83-17.11h-5.93v-68a12.23 12.23 0 007.74-11.36V468a19.8 19.8 0 0015.21 7.42c11.46 0 20.78-10.42 20.78-23.22v-12.9a19.92 19.92 0 001.69-1.64 20.15 20.15 0 004.95-15.75zm-130.49-99.66c3.46 1.84 15.64 2.07 27.61 1.79 12 .28 24.15 0 27.61-1.79V334c0 4.8-22.42 12-27.23 12l-.38-.08-.38.08c-4.8 0-27.23-7.19-27.23-12zm-33 128.91v1.53c0 9.5-6.63 17.22-14.78 17.22s-14.78-7.73-14.78-17.22v-9.31a21.08 21.08 0 007.47 1.36h22.09zm52.9 149.93h-50.64c-14.22 0-14.22-5-14.22-14.89 0-8.21 6.38-11.5 14.22-11.5h11.67l38.93-2.7.06 15.37zm-38.74-76.4h38.67v41.71l-38.67 2.68h-.26V524.7zm-.26-5.74V502h38.94v17h-38.91zm104.77 55.75h.26c7.84 0 14.22 3.29 14.22 11.5 0 9.91 0 14.89-14.22 14.89h-50.64V587.4l.06-15.37 38.93 2.69h11.42zm-11.67-50h.26v44.4h-.26l-38.67-2.68V524.7zm-38.64-5.7v-17h38.95v17h-38.95zm46.84-73.77h-.07v44.58a6.6 6.6 0 01-6.58 6.58H403s-.11-3.73-.16-8.75v-2.79c0-3.51-1.41-5.09-2.82-5-1.41-.09-2.82 1.49-2.82 5v2.79c0 5-.16 8.75-.16 8.75H352.1a6.6 6.6 0 01-6.58-6.58v-44.63h-.07v-.33l30.24.33h48.69l30.24-.33zm35.57 7.51c0 9.5-6.63 17.22-14.78 17.22s-14.78-7.73-14.78-17.22v-7.94h22.09a21.08 21.08 0 007.47-1.36zm6-23.73a13.53 13.53 0 01-6 7.29 14.69 14.69 0 01-7.47 2l-22.09.09v-73.67c0-5.56-6.07-5.94-6.07 0s.07 14.37.07 14.37v59.59H345.41v-59.61s.07-8.46.07-14.37-6.07-5.54-6.07 0v73.59l-22.09-.09a14.69 14.69 0 01-7.47-2 13.53 13.53 0 01-6-7.29 14.89 14.89 0 01-.75-6.46l2.47-83.84c.89-9 9.23-17.08 18.2-17.75l11.12-.83 32.22-2.29c.68.54.48 17.49.48 17.49 0 8.43 23.34 15.29 31.77 15.29h1.3c8.43 0 31.77-6.86 31.77-15.29 0 0-.2-16.95.48-17.49l32.22 2.29 11.12.83c9 .67 17.3 8.8 18.2 17.75l2.47 83.84a14.89 14.89 0 01-.77 6.55z" id="border"/><g id="head"><path class="cls-12" d="M403.43 187.5c2.16 0 4.82 1 6.88 5.19a9.16 9.16 0 015-1.63c2.19 0 4.76 1 7 4.57h.12c1 0 7.85.27 9.54 7.57 0 0 8.61 1.23 8.17 9.4-.46 8.44-3.9 9-3.9 9s-17.16-12.31-22.24-12.31a2.34 2.34 0 00-.47 0 28.86 28.86 0 01-5.63.62c-4.06 0-8.09-1.2-7.37-6 0 0-.43-3.07-.74-6.5-.31 3.43-.74 6.5-.74 6.5.72 4.81-3.31 6-7.37 6a28.87 28.87 0 01-5.63-.62 2.23 2.23 0 00-.45 0c-5.09 0-23.35 13-23.35 13s-2.24-1.27-2.7-9.71c-.44-8.18 8.17-9.4 8.17-9.4 1.7-7.3 8.53-7.57 9.54-7.57h.12c2.2-3.57 4.76-4.57 7-4.57a9.16 9.16 0 015 1.63c2.06-4.16 4.72-5.19 6.88-5.19a8.27 8.27 0 013.29.74.34.34 0 10.65 0 8.26 8.26 0 013.29-.74m0-6a13.52 13.52 0 00-3.61.5 13.53 13.53 0 00-3.61-.5 12.48 12.48 0 00-9 3.86 13.73 13.73 0 00-2.83-.3 13.35 13.35 0 00-10.2 4.88 15.4 15.4 0 00-11 8.36c-4.93 2-10 6.69-9.56 14.63.42 7.77 2.35 12.69 5.73 14.61a6 6 0 006.45-.33c8.12-5.79 16.95-11.05 19.83-11.85a34 34 0 006.12.6 16.64 16.64 0 008.11-1.79 16.65 16.65 0 008.11 1.79 34 34 0 006.15-.6c2.75.76 11.16 5.79 18.57 11.13a6 6 0 004.49 1.05c1.92-.32 8.24-2.31 8.91-14.6.43-7.94-4.63-12.63-9.56-14.63a15.4 15.4 0 00-11-8.36 13.35 13.35 0 00-10.2-4.88 13.73 13.73 0 00-2.83.3 12.49 12.49 0 00-9-3.86z"/><path id="skin-2" data-name="skin" class="cls-2" d="M446.38 253.1c0-.91.08-1.81.08-2.73 0-30.51-21.06-55.25-47-55.25s-47 24.74-47 55.25c0 1.11 0 2.21.1 3.31-4 2.46-6.9 8.44-6.9 15.43 0 9.19 4.93 16.64 11 16.64a7.47 7.47 0 002.1-.31c.82 24.5 18.74 44.08 40.73 44.08s40.12-19.81 40.74-44.5a7.65 7.65 0 003.25.74c6.08 0 11-7.45 11-16.64-.05-7.65-3.48-14.06-8.1-16.02z"/><path d="M430.16 216.42s11.17 38.92 15.08 34.5c0 0 .25-26.92-8.33-33.75s-6.75-.75-6.75-.75zm-60.74 0s-11.17 38.92-15.08 34.5c0 0-.25-26.92 8.33-33.75s6.75-.75 6.75-.75z" fill="#674b38"/><path class="cls-14" d="M430 205.94c-14.63-12-28.49-11.23-30.2-11.08-1.7-.15-15.57-.92-30.2 11.08 0 0-8.92 9-12 18.56 0 0 14.67-6.67 17.67-9.5s20.48-.89 24.49-1c4 .1 21.53-1.8 24.49 1s17.75 9.5 17.75 9.5c-3.06-9.56-12-18.56-12-18.56z"/><path class="cls-12" d="M399.42 332.51c-22.68 0-41.28-19-43.53-43.79-7.52-.49-13.31-8.93-13.31-19.61 0-7 2.64-13.45 6.84-16.92v-1.82c0-32.12 22.45-58.25 50-58.25s50 26.13 50 58.25v1c4.85 3.17 8 10 8 17.76 0 11-6.15 19.64-14 19.64H443c-2.3 24.79-20.83 43.74-43.58 43.74zm-40.73-50.08a3 3 0 013 2.9c.77 23.09 17.35 41.18 37.73 41.18 20.58 0 37.15-18.26 37.74-41.58a3 3 0 014.27-2.64 4.68 4.68 0 002 .46c4.34 0 8-6.24 8-13.64 0-7-3.13-11.94-6.21-13.24a3 3 0 01-1.83-2.89v-.18c0-.8.07-1.61.07-2.42 0-28.81-19.75-52.25-44-52.25s-44 23.44-44 52.25c0 .92 0 1.89.09 3.16a3 3 0 01-1.44 2.71c-3.27 2-5.46 7.16-5.46 12.86 0 7.39 3.67 13.64 8 13.64a4.49 4.49 0 001.26-.19 3 3 0 01.78-.13z"/><path class="cls-14" d="M431.9 203.2c-1.83-7.89-9.67-7.57-9.67-7.57-5-8.13-11.92-2.94-11.92-2.94-3.42-6.9-8.5-5.18-10.17-4.45a.34.34 0 11-.65 0c-1.67-.74-6.75-2.45-10.17 4.45 0 0-6.92-5.18-11.92 2.94 0 0-7.83-.32-9.67 7.57 0 0-8.61 1.23-8.17 9.4.46 8.44 2.7 9.71 2.7 9.71s19.47-13.88 23.8-13 14.08 1.88 13-5.4c0 0 .43-3.07.74-6.5.31 3.43.74 6.5.74 6.5-1.08 7.28 8.67 6.3 13 5.4s22.6 12.28 22.6 12.28 3.44-.57 3.9-9c.47-8.16-8.14-9.39-8.14-9.39z"/></g></svg>