<svg id="player" xmlns="http://www.w3.org/2000/svg" viewBox="0 0 800 800"><defs><style>.cls-1{fill:#cea28b}.cls-2{fill:#7c2638}.cls-3{fill:#f1dbcb}.cls-4{fill:#b03b4f}.cls-5{fill:#eccb6b}.cls-6{fill:#418563}.cls-7{fill:#e52a27}.cls-8{fill:#d4c07e}</style></defs><g id="skin"><path id="arm-left" class="cls-1" d="M305.93 386h36.78v72.4a18.39 18.39 0 01-18.39 18.39 18.39 18.39 0 01-18.39-18.39V386z"/><path id="arm-right" class="cls-1" d="M457.19 386H494v72.4a18.39 18.39 0 01-18.39 18.39 18.39 18.39 0 01-18.39-18.39V386z"/><path id="leg-left" class="cls-1" d="M349.88 496.02h45.67v45.67h-45.67z"/><path id="leg-right" class="cls-1" d="M404.78 496.02h45.67v45.67h-45.67z"/></g><g id="boots"><g id="boots-2" data-name="boots"><path id="left" class="cls-2" d="M395.33 574.04H372.5l-22.83 1.97h-12.5l-7.5 2.53-5.25 8.5v9.83l1.91 4.17 3.84 4.05 6.33 1.95h58.83v-33z"/><path id="right" class="cls-2" d="M404.61 574.27h22.83l22.83 1.97h12.5l7.5 2.53 5.25 8.5v9.83l-1.91 4.17-3.84 4.05-6.33 1.95h-58.83v-33z"/></g><g id="details"><path id="left-2" data-name="left" class="cls-3" d="M395.75 585.08s-98.85 3.46-58.59 22H396z"/><path id="right-2" data-name="right" class="cls-3" d="M404.25 585.08s98.85 3.46 58.59 22H404z"/></g></g><g id="socks"><g id="socks-2" data-name="socks"><g id="socks-3" data-name="socks"><path id="left-3" data-name="left" class="cls-4" d="M349.88 526h45.67v48.04h-45.67z"/><path id="right-3" data-name="right" class="cls-4" d="M404.38 526h45.67v48.04h-45.67z"/></g></g><g id="details-2" data-name="details"><path id="stripe-l" class="cls-5" d="M359.41 527.75h2.34v46.29h-2.34z"/><path id="stripe-r" class="cls-5" d="M438.25 527.75h2.34v46.29h-2.34z"/></g></g><g id="shorts"><g id="shorts-2" data-name="shorts"><path id="shorts-3" data-name="shorts" class="cls-6" d="M341.67 446.54h116.49v47a9.95 9.95 0 01-9.95 9.95h-96.6a9.95 9.95 0 01-9.95-9.95v-47z"/></g><g id="details-3" data-name="details"><path id="stripe-l-2" data-name="stripe-l" class="cls-5" d="M355.41 446.54h2.34v55.88h-2.34z"/><path id="stripe-r-2" data-name="stripe-r" class="cls-5" d="M442.25 446.54h2.34v55.88h-2.34z"/></g></g><g id="shirt"><g id="shirt-2" data-name="shirt"><path id="shirt-3" data-name="shirt" class="cls-4" d="M369.5 318.8l-48.29 2.99-11.36 6.25-6.83 10.1-3.31 40.73 5.17 7.67 7.66 4.67h29.5l.17 54h114.83v-53.5l29.34-.17 7.01-4 6.99-10.5-3.4-37.33-6.83-11.84-9.77-6.08-49.84-2.99-1 21.24-6.5 6.5-11.16 3.48-11.88 2.02-15.46-3.17-11-5.66-3.66-3.84-.38-20.57z"/></g><g id="details-4" data-name="details"><path id="neck" class="cls-5" d="M400 333.5l-37.2-13.86v21.61S366.91 357 399.92 357h.08c33 0 37.12-15.75 37.12-15.75v-21.61z"/><g id="left-4" data-name="left"><path id="mid" class="cls-6" d="M345.73 333.51l15.46 100.88a2.59 2.59 0 01-2 3.13 2.59 2.59 0 01-3-1.67l-18.72-78.38a2.59 2.59 0 010-1.77l5.23-14.13c.93-2.41 2.44-10.57 3.03-8.06z"/><path id="top" class="cls-5" d="M345.89 321.79l-21.72 69.42 4.04.16 21.98-69.58h-4.3z"/><rect id="bottom" class="cls-5" x="343.61" y="430.22" width="14.75" height="2.84" rx="1.42" ry="1.42"/></g><g id="right-4" data-name="right"><path id="mid-2" data-name="mid" class="cls-6" d="M454.17 333.51l-15.45 100.87a2.59 2.59 0 002 3.13 2.59 2.59 0 003-1.67l18.72-78.38a2.59 2.59 0 000-1.77l-5.23-14.13c-.94-2.4-2.45-10.56-3.04-8.05z"/><path id="top-2" data-name="top" class="cls-5" d="M454.01 321.79l21.72 69.42-4.04.16-21.98-69.58h4.3z"/><rect id="bottom-2" data-name="bottom" class="cls-5" x="441.54" y="430.22" width="14.75" height="2.84" rx="1.42" ry="1.42" transform="rotate(180 448.92 431.64)"/></g><path id="number-7" class="cls-5" d="M407 398.08l-6.57 15a2.06 2.06 0 01-1.9 1.22 2 2 0 01-2-2 1.86 1.86 0 01.17-.77l5.64-12.78h-7.94a1.78 1.78 0 01-1.76-1.81 1.76 1.76 0 011.76-1.73h10.83a2 2 0 012 2 1.8 1.8 0 01-.23.87z"/><path id="nike" class="cls-5" d="M375.22 372.27c0 1.19-1.57 2.17-3.49 2.17h-9.26c-1.92 0-3.49-1-3.49-2.17s1.57-2.17 3.49-2.17h9.26c1.92 0 3.49.98 3.49 2.17z"/></g><g id="crest-portugal-2002"><rect class="cls-7" x="429.84" y="361.68" width="5.38" height="22.68" rx="2.69" ry="2.69"/><path class="cls-8" d="M432.53 385a3.34 3.34 0 01-3.33-3.33v-17.3a3.33 3.33 0 116.67 0v17.3a3.34 3.34 0 01-3.34 3.33zm0-22.68a2 2 0 00-2 2v17.3a2 2 0 004.09 0v-17.3a2 2 0 00-2.09-1.99z"/><rect class="cls-7" x="429.84" y="361.74" width="5.38" height="18.37" rx="2.69" ry="2.69" transform="rotate(90 432.53 370.93)"/><path class="cls-8" d="M439 374.26h-13a3.33 3.33 0 110-6.67h13a3.33 3.33 0 010 6.67zm-13-5.38a2 2 0 100 4.09h13a2 2 0 000-4.09z"/><rect class="cls-7" x="427.42" y="366.06" width="10.43" height="13.09" rx="3.23" ry="3.23"/><path class="cls-8" d="M434.63 379.8h-4a3.88 3.88 0 01-3.87-3.87v-6.64a3.88 3.88 0 013.87-3.87h4a3.88 3.88 0 013.87 3.87v6.64a3.88 3.88 0 01-3.87 3.87zm-4-13.09a2.58 2.58 0 00-2.58 2.58v6.64a2.58 2.58 0 002.58 2.58h4a2.58 2.58 0 002.58-2.58v-6.64a2.58 2.58 0 00-2.58-2.58z"/><rect x="429.89" y="369.16" width="5.5" height="6.9" rx="1.7" ry="1.7" fill="#fff"/><rect x="431.19" y="370.78" width="2.9" height="3.64" rx=".9" ry=".9" fill="#154a94"/></g></g><path id="neck-2" data-name="neck" fill="#af8979" d="M427.63 344.26l-27.59 8.62-28.6-9.62-1.92-23.62h61.04l-2.93 24.62z"/><path d="M502.88 372.43l-2.47-30.36c-1.19-11.87-11.83-22.25-23.72-23.14l-37.14-2.71c-4.07-.45-20.52-.09-39.55.53-19-.62-35.48-1-39.55-.53l-37.14 2.71c-11.89.89-22.53 11.27-23.72 23.14l-2.47 30.36a20.15 20.15 0 005 15.74 19.92 19.92 0 001.69 1.64v66.36c0 12.81 9.32 23.22 20.78 23.22a19.8 19.8 0 0015.25-7.39v21.79a12.23 12.23 0 007.74 11.36v68h-5.93c-10.93 0-19.83 5.8-19.83 17.11 0 8.06 0 17 11.72 19.7v1.6a1.38 1.38 0 001.38 1.38h1.63a1.38 1.38 0 001.38-1.37v-.95c1.16.09 2.39.15 3.73.15h1.89v.8a1.38 1.38 0 001.38 1.38h1.63a1.38 1.38 0 001.38-1.37v-.8h5.62v.8a1.38 1.38 0 001.38 1.38h1.63a1.38 1.38 0 001.38-1.37v-.8h5.62v.8a1.38 1.38 0 001.38 1.38h1.63a1.38 1.38 0 001.38-1.37v-.8h5.62v.8a1.38 1.38 0 001.38 1.38h1.63a1.38 1.38 0 001.38-1.37v-.8h5.62v.8a1.38 1.38 0 001.38 1.38h1.63a1.38 1.38 0 001.38-1.37v-.8h5.62v.8a1.38 1.38 0 001.38 1.38h1.63a1.38 1.38 0 001.38-1.37v-.81l.06-55.45V506h4v49.21l.06 54.67v1.6a1.38 1.38 0 001.38 1.38h1.63a1.38 1.38 0 001.38-1.37v-.8h5.62v.8a1.38 1.38 0 001.38 1.38h1.63a1.38 1.38 0 001.38-1.37v-.8h5.62v.8a1.38 1.38 0 001.38 1.38h1.63a1.38 1.38 0 001.38-1.37v-.8h5.62v.8a1.38 1.38 0 001.38 1.38h1.63a1.38 1.38 0 001.38-1.37v-.8h5.62v.8a1.38 1.38 0 001.38 1.38h1.63a1.38 1.38 0 001.38-1.37v-.8h5.62v.8a1.38 1.38 0 001.38 1.38h1.63a1.38 1.38 0 001.38-1.37v-.8h1.89c1.33 0 2.57-.05 3.72-.15v.95a1.38 1.38 0 001.38 1.38h1.63a1.38 1.38 0 001.38-1.37v-1.6c11.71-2.68 11.72-11.64 11.72-19.7 0-11.3-8.89-17.11-19.83-17.11h-5.93v-68a12.23 12.23 0 007.74-11.36V472a19.8 19.8 0 0015.21 7.42c11.46 0 20.78-10.42 20.78-23.22v-66.39a19.92 19.92 0 001.69-1.64 20.15 20.15 0 004.95-15.74zm-130.49-46.18c3.46 1.84 15.64 2.07 27.61 1.79 12 .28 24.15 0 27.61-1.79V338c0 4.8-22.42 12-27.23 12l-.38-.08-.38.08c-4.8 0-27.23-7.19-27.23-12zm-33 75.43v55c0 9.5-6.63 17.22-14.78 17.22s-14.78-7.73-14.78-17.22V393.9a21.08 21.08 0 007.47 1.36h22.09zm52.9 203.42h-50.64c-14.22 0-14.22-5-14.22-14.89 0-8.21 6.38-11.5 14.22-11.5h11.67l38.93-2.71.06 15.37zm-38.74-76.4h38.67v41.7l-38.67 2.68h-.26V528.7zm-.26-5.74V506h38.94v17h-38.91zm104.77 55.75h.26c7.84 0 14.22 3.29 14.22 11.5 0 9.91 0 14.89-14.22 14.89h-50.64v-13.7l.06-15.37 38.93 2.69h11.42zm-11.67-50h.26v44.4h-.26l-38.67-2.68V528.7zM407.75 523v-17h38.95v17h-38.95zm46.84-73.77h-.07v44.58a6.6 6.6 0 01-6.58 6.58H403s-.11-3.73-.16-8.75v-2.79c0-3.51-1.41-5.09-2.82-5-1.41-.09-2.82 1.49-2.82 5v2.79c0 5-.16 8.75-.16 8.75H352.1a6.6 6.6 0 01-6.58-6.58v-44.63h-.07v-.33l30.24.33h48.69l30.24-.33zm35.57 7.51c0 9.5-6.63 17.22-14.78 17.22s-14.78-7.73-14.78-17.22v-61.48h22.09a21.08 21.08 0 007.47-1.36zm6-77.21a13.53 13.53 0 01-6 7.29 14.69 14.69 0 01-7.47 2l-22.09.09v-20.19c0-5.56-6.07-5.94-6.07 0s.07 14.37.07 14.37v59.59H345.41v-59.61s.07-8.46.07-14.37-6.07-5.54-6.07 0v20.11l-22.09-.09a14.69 14.69 0 01-7.47-2 13.53 13.53 0 01-6-7.29 14.89 14.89 0 01-.75-6.46l2.47-30.36c.89-9 9.23-17.08 18.2-17.75l11.12-.83 32.22-2.29c.68.54.48 17.49.48 17.49 0 8.43 23.34 15.29 31.77 15.29h1.3c8.43 0 31.77-6.86 31.77-15.29 0 0-.2-16.95.48-17.49l32.22 2.29 11.12.83c9 .67 17.3 8.8 18.2 17.75L496.9 373a14.89 14.89 0 01-.75 6.48z" id="border"/><g id="head"><path id="skin-2" data-name="skin" class="cls-1" d="M446.38 257.1c0-.91.08-1.81.08-2.73 0-30.51-21.06-55.25-47-55.25s-47 24.74-47 55.25c0 1.11 0 2.21.1 3.31-4 2.46-6.9 8.44-6.9 15.43 0 9.19 4.93 16.64 11 16.64a7.47 7.47 0 002.1-.31c.82 24.5 18.74 44.08 40.73 44.08s40.12-19.81 40.74-44.5a7.65 7.65 0 003.25.74c6.08 0 11-7.45 11-16.64-.05-7.65-3.48-14.06-8.1-16.02z"/><path id="border-2" data-name="border" d="M446.38 257.1c0-.91.08-1.81.08-2.73 0-30.51-21.06-55.25-47-55.25s-47 24.74-47 55.25c0 1.11 0 2.21.1 3.31-4 2.46-6.9 8.44-6.9 15.43 0 9.19 4.93 16.64 11 16.64a7.47 7.47 0 002.1-.31c.82 24.5 18.74 44.08 40.73 44.08s40.12-19.81 40.74-44.5a7.65 7.65 0 003.25.74c6.08 0 11-7.45 11-16.64-.05-7.65-3.48-14.06-8.1-16.02z" stroke="#231f20" stroke-linecap="round" stroke-linejoin="round" stroke-width="6" fill="#cea28b"/><path id="hair" d="M454.26 230.5c-.24-1.7-8.22-14.62-9-20.5s-15-8-18.5-12.83c-3.38-4.71-25.39-7.91-26.87-5.06-1.48-2.85-23.49.35-26.87 5.06-3.5 4.88-17.75 7-18.5 12.83s-7.71 14.84-9 20.5c-.37 1.67 3 27.13 3 27.13l6.49-1.47.26 19.47s5.82 2.57 6.56-2.5c1.5-10.26-1.27-20.37-.61-23s6.5-27.33 15.83-27 18.7 3.87 22.87 3.87 13.5-3.61 22.83-3.94 15.17 24.33 15.83 27-2.11 12.78-.61 23c.74 5.07 6.56 2.5 6.56 2.5l.26-19.47 6.49 1.47s4.05-19.39 2.98-27.06z" fill="#231f20"/></g></svg>