<svg id="player" xmlns="http://www.w3.org/2000/svg" viewBox="0 0 800 800"><defs><clipPath id="clip-path"><path fill="none" d="M300.06 349.89h199.97v20.19H300.06z"/></clipPath><style>.cls-2{fill:#e0b392}.cls-3{fill:#aa1f23}.cls-4{fill:#220d12}.cls-5{fill:#fff}.cls-6{fill:#242b42}.cls-7{fill:#f3be68}.cls-9{clip-path:url(#clip-path)}.cls-10{fill:#3e1952}.cls-12{fill:#231f20}.cls-13{fill:#66391a}</style></defs><g id="skin"><path id="arm-left" class="cls-2" d="M305.93 382h36.78v72.4a18.39 18.39 0 01-18.39 18.39 18.39 18.39 0 01-18.39-18.39V382z"/><path id="arm-right" class="cls-2" d="M457.19 382H494v72.4a18.39 18.39 0 01-18.39 18.39 18.39 18.39 0 01-18.39-18.39V382h-.03z"/><path id="leg-left" class="cls-2" d="M349.88 492.02h45.67v45.67h-45.67z"/><path id="leg-right" class="cls-2" d="M404.78 492.02h45.67v45.67h-45.67z"/></g><g id="boots"><path id="left" class="cls-3" d="M395.33 570.04H372.5l-22.83 1.97h-12.5l-7.5 2.53-5.25 8.5v9.83l1.91 4.17 3.84 4.05 6.33 1.95h58.83v-33z"/><path id="right" class="cls-3" d="M404.61 570.27h22.83l22.83 1.97h12.5l7.5 2.53 5.25 8.5v9.83l-1.91 4.17-3.84 4.05-6.33 1.95h-58.83v-33z"/><g id="details"><path class="cls-4" d="M368 572.83s21.17-1 21 5.5-25.33 21.53-14.33 24.93l20.16-.23.67-35.37z"/><path class="cls-5" d="M384.54 585.47s-29.21 14.36-22 17.8l6-.23s16.46-9.61 16-17.57z"/><path class="cls-4" d="M431.88 572.83s-21.17-1-21 5.5 25.33 21.53 14.33 24.93L405 603l-.67-35.37z"/><path class="cls-5" d="M415.38 585.47s29.21 14.36 22 17.8l-6-.23s-16.5-9.61-16-17.57z"/></g></g><g id="socks"><g id="socks-2" data-name="socks"><path id="left-2" data-name="left" class="cls-6" d="M349.88 522h45.67v48.04h-45.67z"/><path id="right-2" data-name="right" class="cls-6" d="M404.38 522h45.67v48.04h-45.67z"/></g></g><g id="shorts"><path id="shorts-2" data-name="shorts" class="cls-6" d="M341.67 442.54h116.49v47a9.95 9.95 0 01-9.95 9.95h-96.6a9.95 9.95 0 01-9.95-9.95v-47h.01z"/><g id="details-2" data-name="details"><path class="cls-5" d="M348.06 460.55v38.32h4.1v-33.41a5 5 0 00-4.1-4.91z"/><path class="cls-7" d="M347.16 460.45h-4.45v32.81a5.61 5.61 0 005.35 5.6v-38.31a5 5 0 00-.9-.1z"/><path class="cls-5" d="M451.84 460.55v38.32h-4.1v-33.41a5 5 0 014.1-4.91z"/><path class="cls-7" d="M452.75 460.45h4.45v32.81a5.61 5.61 0 01-5.35 5.6v-38.31a5 5 0 01.9-.1z"/></g></g><g id="shirt"><path id="shirt-2" data-name="shirt" class="cls-5" d="M369.5 314.8l-48.29 2.99-11.36 6.25-6.83 10.1-3.31 40.73 5.17 7.67 7.66 4.67h29.5l.17 54h114.83v-53.5l29.34-.17 7.01-4 6.99-10.5-3.4-37.33-6.83-11.84-9.77-6.08-49.84-2.99-1 21.24-6.5 6.5-11.16 3.48-11.88 2.02-15.46-3.17-11-5.66-3.66-3.84-.38-20.57z"/><g id="details-3" data-name="details"><g id="arm-l"><path class="cls-6" d="M342.71 380.75l-.42 3.23-41.08-2.65-.33-4.83 41.83 2.33v1.92z"/><path class="cls-7" d="M341.63 382.75l-38.92-2 5.25 5.92 32.46.54 1.21-4.46z"/></g><g id="arm-r"><path class="cls-6" d="M457.19 380.75l.42 3.23 41.08-2.65.33-4.83-41.83 2.33v1.92z"/><path class="cls-7" d="M458.27 382.75l38.92-2-5.25 5.92-32.46.54-1.21-4.46z"/></g><path class="cls-6" d="M448.87 353.82L401 350.64a15.28 15.28 0 00-2 0l-49.07 3.2a9.78 9.78 0 01-10.39-10.55l2.08-25.61h115.57l2.08 25.6a9.78 9.78 0 01-10.4 10.54z"/><path class="cls-7" d="M364.75 316.17v16.12c0 7 4.47 13 10.66 14.27a61 61 0 0015.58.86l-15.16-8-5.12-3.42-1.06-21.2zm70.58 0v16.12c0 7-4.47 13-10.66 14.27a61 61 0 01-15.58.86l15.16-8 5.13-3.42 1.06-21.2z"/><path id="crest-tottenham-16" class="cls-6" d="M443.17 366.27v-.19c0-.71-.58-1.17-1.1-.93a3.13 3.13 0 01-1.23.3 3.65 3.65 0 01-3.57-2.69 10.28 10.28 0 01-.05-1.62c0-.89.1-1 .08-1.59a3.43 3.43 0 00-.48-1.91 1.76 1.76 0 00-1.62-.65c-.52 0-1.34.29-1.37.71s1.3.66 1.6 1.82a3.27 3.27 0 01-.3 1.91 9.3 9.3 0 01-1.11 1.82 6.17 6.17 0 00-.38 4.54 5.87 5.87 0 001.44 2.21 16.8 16.8 0 011.92 2 5.22 5.22 0 01.72 1.25h-.15a3.77 3.77 0 101.75.43.8.8 0 01-.41-.86 6.52 6.52 0 01.6-1.66 5.47 5.47 0 012.23-2.53l.26-.12a2.28 2.28 0 001.17-2.24z"/><path id="brand-under-armour" class="cls-6" d="M368.91 364.21a1.17 1.17 0 00-1.28-1h-.79a1.17 1.17 0 00-1.28 1v1.47a2.27 2.27 0 01-.58 1.48 9.83 9.83 0 00-2.74-.41 9.83 9.83 0 00-2.74.41 2.27 2.27 0 01-.58-1.48v-1.47a1.17 1.17 0 00-1.28-1h-.79a1.17 1.17 0 00-1.28 1v3a2.18 2.18 0 00.25 1 1.41 1.41 0 010 1.34 2.18 2.18 0 00-.25 1v3a1.17 1.17 0 001.28 1h.79a1.17 1.17 0 001.28-1v-1.47a2.27 2.27 0 01.58-1.48 9.83 9.83 0 002.74.41 9.83 9.83 0 002.74-.41 2.27 2.27 0 01.58 1.48v1.47a1.17 1.17 0 001.28 1h.79a1.17 1.17 0 001.28-1v-3a2.18 2.18 0 00-.25-1 1.41 1.41 0 010-1.34 2.18 2.18 0 00.25-1z"/><rect id="sponsor-aia" x="373.54" y="382.02" width="53" height="34.48" rx="6.93" ry="6.93" fill="#e82425"/><g class="cls-9" id="logo-pl-ready-16"><g class="cls-9"><path class="cls-5" d="M499.52 359.35c.61 5.19-1.3 9.68-4.27 10s-5.87-3.57-6.48-8.76 1.3-9.68 4.27-10 5.87 3.57 6.48 8.76"/><path class="cls-10" d="M495.33 370.05c-3.18.37-6.29-3.84-6.95-9.4s1.4-10.37 4.58-10.75 6.29 3.84 6.95 9.39-1.4 10.38-4.58 10.75m-2.21-18.79c-2.75.32-4.53 4.5-4 9.3s3.26 8.45 6 8.13 4.53-4.49 4-9.3-3.26-8.45-6-8.13"/><path class="cls-10" d="M495.43 354.56v-.1h-.09l-.28.11h-.13l-.34-.93h-.06l-.33.57h-.13l-.39-.66a.07.07 0 00-.05 0l-.23.73h-.13l-.45-.48h-.06l-.08.69v.29h-1.04v.36l.17.7v.2h.15a4.2 4.2 0 011.4-.49 3.75 3.75 0 011.51.15h.14v-1.09zm.97 2.44a3.91 3.91 0 00-5.14.6 10.81 10.81 0 00.34 3.71l.66 2c.54 1.61 1.68 3.58 2.68 3.47s1.66-2.3 1.81-4l.18-2.1a10.78 10.78 0 00-.53-3.69m-3.11 6l-.15-1.32c-.24 0-.47-.29-.52-.7l-.09-.79c0-.42.1-.78.34-.8l.45-.05c.24 0 .47.29.52.7l.12 1a.66.66 0 00.23.46c.09.86.18 1.88.18 1.9l-.4.51c-.31 0-.61-.37-.67-.91m1.56 2.19h-.19c-.18 0-.41-.26-.56-.54a.4.4 0 010-.34 3.35 3.35 0 01.36-.56.18.18 0 01.28 0 3.44 3.44 0 01.48.46.41.41 0 01.06.34c-.08.3-.24.64-.42.66m1-4.6c0 .42-.1.78-.34.8l.16 1.32c.06.54-.13 1-.44 1l-.51-.41s-.15-1-.27-1.89a.67.67 0 00.12-.51l-.12-1c0-.42.1-.78.34-.8l.45-.05c.24 0 .47.29.52.7z"/><path class="cls-5" d="M300.57 359.35c-.61 5.19 1.3 9.68 4.27 10s5.87-3.57 6.48-8.76-1.3-9.68-4.27-10-5.87 3.57-6.48 8.76"/><path class="cls-10" d="M300.18 359.3c.65-5.55 3.77-9.77 6.95-9.39s5.23 5.19 4.58 10.75-3.77 9.77-6.94 9.39-5.23-5.19-4.58-10.75m.78.09c-.56 4.81 1.21 9 4 9.3s5.45-3.32 6-8.13-1.21-9-4-9.3-5.45 3.32-6 8.13"/><path class="cls-10" d="M304.65 354.56v-.1h.09l.28.11h.13l.34-.93h.06l.33.57h.13l.39-.66a.07.07 0 01.05 0l.23.73h.13l.45-.48h.06l.08.69v.29h.44v.42l-.17.7v.2h-.15a4.2 4.2 0 00-1.4-.49 3.75 3.75 0 00-1.51.15h-.14v-1.18m-1.31 6.1l.18 2.1c.15 1.69.8 3.88 1.81 4s2.15-1.85 2.68-3.47l.66-2a10.84 10.84 0 00.34-3.71 3.92 3.92 0 00-5.15-.6 10.81 10.81 0 00-.53 3.69m3 3.25l-.4-.51s.09-1 .18-1.9a.66.66 0 00.23-.46l.12-1c0-.42.28-.73.52-.7l.45.05c.24 0 .39.39.34.8l-.09.79c0 .42-.28.73-.52.7l-.16 1.32c-.06.54-.36.94-.67.91m-1.31.63a.41.41 0 01.06-.34 3.4 3.4 0 01.48-.46.18.18 0 01.28 0 3.41 3.41 0 01.36.56.41.41 0 010 .34c-.15.28-.38.56-.56.54h-.19c-.18 0-.34-.35-.42-.66m-.5-4.73c0-.42.28-.73.52-.7l.45.05c.24 0 .39.39.34.8l-.12 1a.66.66 0 00.12.51c-.12.86-.26 1.87-.27 1.89l-.51.41c-.31 0-.51-.5-.44-1l.16-1.32c-.24 0-.39-.39-.34-.8z"/></g></g></g></g><path id="neck" fill="#c39a7f" d="M427.63 340.26l-27.59 8.62-28.6-9.62-1.92-23.62h61.04l-2.93 24.62z"/><path d="M502.88 368.43l-2.47-30.36c-1.19-11.87-11.83-22.25-23.72-23.14l-37.14-2.71c-4.07-.45-20.52-.09-39.55.53-19-.62-35.48-1-39.55-.53l-37.14 2.71c-11.89.89-22.53 11.27-23.72 23.14l-2.47 30.36a20.15 20.15 0 005 15.74 19.92 19.92 0 001.69 1.64v66.36c0 12.81 9.32 23.22 20.78 23.22a19.8 19.8 0 0015.25-7.39v21.79a12.23 12.23 0 007.74 11.36v68h-5.93c-10.93 0-19.83 5.8-19.83 17.11 0 8.06 0 17 11.72 19.7v1.6a1.38 1.38 0 001.38 1.38h1.63a1.38 1.38 0 001.38-1.37v-.95c1.16.09 2.39.15 3.73.15h1.89v.8a1.38 1.38 0 001.38 1.38h1.63a1.38 1.38 0 001.38-1.37v-.8h5.62v.8a1.38 1.38 0 001.38 1.38h1.63a1.38 1.38 0 001.38-1.37v-.8h5.62v.8a1.38 1.38 0 001.38 1.38h1.63a1.38 1.38 0 001.38-1.37v-.8h5.62v.8a1.38 1.38 0 001.38 1.38h1.63a1.38 1.38 0 001.38-1.37v-.8h5.62v.8a1.38 1.38 0 001.38 1.38h1.63a1.38 1.38 0 001.38-1.37v-.8h5.62v.8a1.38 1.38 0 001.38 1.38h1.63a1.38 1.38 0 001.38-1.37v-.81l.06-55.45V502h4v49.21l.06 54.67v1.6a1.38 1.38 0 001.38 1.38h1.63a1.38 1.38 0 001.38-1.37v-.8h5.62v.8a1.38 1.38 0 001.38 1.38h1.63a1.38 1.38 0 001.38-1.37v-.8h5.62v.8a1.38 1.38 0 001.38 1.38h1.63a1.38 1.38 0 001.38-1.37v-.8h5.62v.8a1.38 1.38 0 001.38 1.38h1.63a1.38 1.38 0 001.38-1.37v-.8h5.62v.8a1.38 1.38 0 001.38 1.38h1.63a1.38 1.38 0 001.38-1.37v-.8h5.62v.8a1.38 1.38 0 001.38 1.38h1.63a1.38 1.38 0 001.38-1.37v-.8h1.89c1.33 0 2.57-.05 3.72-.15v.95a1.38 1.38 0 001.38 1.38h1.63a1.38 1.38 0 001.38-1.37v-1.6c11.71-2.68 11.72-11.64 11.72-19.7 0-11.3-8.89-17.11-19.83-17.11h-5.93v-68a12.23 12.23 0 007.74-11.36V468a19.8 19.8 0 0015.21 7.42c11.46 0 20.78-10.42 20.78-23.22v-66.39a19.92 19.92 0 001.69-1.64 20.15 20.15 0 004.95-15.74zm-130.49-46.18c3.46 1.84 15.64 2.07 27.61 1.79 12 .28 24.15 0 27.61-1.79V334c0 4.8-22.42 12-27.23 12l-.38-.08-.38.08c-4.8 0-27.23-7.19-27.23-12zm-33 75.43v55c0 9.5-6.63 17.22-14.78 17.22s-14.78-7.73-14.78-17.22V389.9a21.08 21.08 0 007.47 1.36h22.09zm52.9 203.42h-50.64c-14.22 0-14.22-5-14.22-14.89 0-8.21 6.38-11.5 14.22-11.5h11.67l38.93-2.71.06 15.37zm-38.74-76.4h38.67v41.7l-38.67 2.68h-.26V524.7zm-.26-5.74V502h38.94v17h-38.91zm104.77 55.75h.26c7.84 0 14.22 3.29 14.22 11.5 0 9.91 0 14.89-14.22 14.89h-50.64v-13.7l.06-15.37 38.93 2.69h11.42zm-11.67-50h.26v44.4h-.26l-38.67-2.68V524.7zM407.75 519v-17h38.95v17h-38.95zm46.84-73.77h-.07v44.58a6.6 6.6 0 01-6.58 6.58H403s-.11-3.73-.16-8.75v-2.79c0-3.51-1.41-5.09-2.82-5-1.41-.09-2.82 1.49-2.82 5v2.79c0 5-.16 8.75-.16 8.75H352.1a6.6 6.6 0 01-6.58-6.58v-44.63h-.07v-.33l30.24.33h48.69l30.24-.33zm35.57 7.51c0 9.5-6.63 17.22-14.78 17.22s-14.78-7.73-14.78-17.22v-61.48h22.09a21.08 21.08 0 007.47-1.36zm6-77.21a13.53 13.53 0 01-6 7.29 14.69 14.69 0 01-7.47 2l-22.09.09v-20.19c0-5.56-6.07-5.94-6.07 0s.07 14.37.07 14.37v59.59H345.41v-59.61s.07-8.46.07-14.37-6.07-5.54-6.07 0v20.11l-22.09-.09a14.69 14.69 0 01-7.47-2 13.53 13.53 0 01-6-7.29 14.89 14.89 0 01-.75-6.46l2.47-30.36c.89-9 9.23-17.08 18.2-17.75l11.12-.83 32.22-2.29c.68.54.48 17.49.48 17.49 0 8.43 23.34 15.29 31.77 15.29h1.3c8.43 0 31.77-6.86 31.77-15.29 0 0-.2-16.95.48-17.49l32.22 2.29 11.12.83c9 .67 17.3 8.8 18.2 17.75L496.9 369a14.89 14.89 0 01-.75 6.48z" id="border"/><g id="head"><path class="cls-12" d="M392.67 183c7 0 29.05 7.51 36 13.08 6.71 5.42 24.5 16.42 23.25 33.67-.89 12.27-2.53 18.3-4.8 19.48-.41 3.28-1.23 4.3-2.79 4.3s-13.28-26.7-13-33.53c.21-5.72-15.91-6.18-26.26-6.18h-10.28c-10.35 0-26.47.47-26.26 6.18.25 6.83-13 33.53-13 33.53-2 0-2.78-1.66-3-7.59-6.12-13.74-3.7-12.65-.11-32.06 4.79-25.91 24.83-25.25 31.58-26.16a10.35 10.35 0 011 0 21.68 21.68 0 013.59.21c-.73-4.17 1.7-4.89 4.17-4.89m0-6c-3.57 0-6.32 1.12-8.18 3.33a8.59 8.59 0 00-1 1.39h-.47c-.51.07-1.18.13-2 .21-8.08.78-29.54 2.85-34.72 30.81-.79 4.25-1.52 7.53-2.12 10.16-2.24 10-2.67 13.27 2.19 24.4a21.2 21.2 0 001.26 6.9 8.08 8.08 0 007.71 5.28h.11a6 6 0 005.3-3.33c3.88-7.81 12.51-25.91 13.55-34.54 1.79-.71 6.77-1.85 20.36-1.85H405c13.59 0 18.57 1.13 20.36 1.85 1 8.63 9.67 26.73 13.55 34.54a6 6 0 005.3 3.33h.11a8 8 0 006.79-3.55 10.9 10.9 0 001.55-3.73c2.86-3.52 4.37-10.16 5.23-22.07 1.34-18.44-14.35-30.32-22.78-36.7-1-.79-2-1.48-2.69-2.07-7.9-6.35-31.42-14.4-39.75-14.4z"/><path id="skin-2" data-name="skin" class="cls-2" d="M446.38 253.1c0-.91.08-1.81.08-2.73 0-30.51-21.06-55.25-47-55.25s-47 24.74-47 55.25c0 1.11 0 2.21.1 3.31-4 2.46-6.9 8.44-6.9 15.43 0 9.19 4.93 16.64 11 16.64a7.47 7.47 0 002.1-.31c.82 24.5 18.74 44.08 40.73 44.08s40.12-19.81 40.74-44.5a7.65 7.65 0 003.25.74c6.08 0 11-7.45 11-16.64-.05-7.65-3.48-14.06-8.1-16.02z"/><path class="cls-12" d="M399.42 332.51c-22.68 0-41.28-19-43.53-43.79-7.52-.49-13.31-8.93-13.31-19.61 0-7 2.64-13.45 6.84-16.92v-1.82c0-32.12 22.45-58.25 50-58.25s50 26.13 50 58.25v1c4.85 3.17 8 10 8 17.76 0 11-6.15 19.64-14 19.64H443c-2.3 24.79-20.83 43.74-43.58 43.74zm-40.73-50.08a3 3 0 013 2.9c.77 23.09 17.35 41.18 37.73 41.18 20.58 0 37.15-18.26 37.74-41.58a3 3 0 014.27-2.64 4.68 4.68 0 002 .46c4.34 0 8-6.24 8-13.64 0-7-3.13-11.94-6.21-13.24a3 3 0 01-1.83-2.89v-.18c0-.8.07-1.61.07-2.42 0-28.81-19.75-52.25-44-52.25s-44 23.44-44 52.25c0 .92 0 1.89.09 3.16a3 3 0 01-1.44 2.71c-3.27 2-5.46 7.16-5.46 12.86 0 7.39 3.67 13.64 8 13.64a4.49 4.49 0 001.26-.19 3 3 0 01.78-.13z"/><path class="cls-13" d="M433 209.79c-2.79-6-20-12.58-20-12.58l-13-1.1h-.28l-12.93 1.1s-17.25 6.63-20 12.58-14.5 20.46-14.46 30.83c0 5.27.44 8 1.17 9.45a2.11 2.11 0 003.75-.1c2.71-5.6 11.5-24.2 11.29-30-.25-6.76 22.35-6.18 31.22-6.17h.24c8.87 0 31.47-.6 31.22 6.17s12.11 31.65 12.11 31.65c2.53 0 4.06-.65 4.1-11s-11.67-24.87-14.43-30.83z"/><path class="cls-13" d="M428.63 196.08c-6.9-5.57-29-13.08-36-13.08-2.46 0-4.9.72-4.17 4.89a25.84 25.84 0 00-4.63-.18c-6.75.91-26.79.26-31.58 26.16-3.79 20.5-6.29 18.13 1.21 34.5l7.25-14.62 6.13-19 10.63-7 12.25 1s4.41-1 6.34-4.19c.53 1.36.89 2.19.89 2.19 15.48-3.5 13.65 2.13 13.65 2.13l13.13-.5L430 215l4.5 7.34s3.5 8.13 5.75 12-.14 10.46 3.75 14 6.63-1.37 7.88-18.62-16.55-28.22-23.25-33.64z"/></g></svg>