<svg id="player" xmlns="http://www.w3.org/2000/svg" viewBox="0 0 800 800"><defs><clipPath id="clip-path"><path class="cls-1" d="M300.06 349.71h199.97v20.19H300.06z"/></clipPath><clipPath id="clip-path-2"><path class="cls-1" d="M300.06 349.71h199.97v20.19H300.06z"/></clipPath><style>.cls-1{fill:none}.cls-2{fill:#b78f6a}.cls-3{fill:#301112}.cls-5{fill:#8d2940}.cls-6{fill:#fff}.cls-7{fill:#5fc1e9}.cls-11{fill:#3e1952}.cls-13{fill:#9e7b61}</style></defs><g id="skin"><path id="arm-left" class="cls-2" d="M305.93 382h36.78v72.4a18.39 18.39 0 01-18.39 18.39 18.39 18.39 0 01-18.39-18.39V382z"/><path id="arm-right" class="cls-2" d="M457.19 382H494v72.4a18.39 18.39 0 01-18.39 18.39 18.39 18.39 0 01-18.39-18.39V382h-.03z"/><path id="leg-left" class="cls-2" d="M349.88 492.02h45.67v45.67h-45.67z"/><path id="leg-right" class="cls-2" d="M404.78 492.02h45.67v45.67h-45.67z"/></g><g id="boots"><path id="left" class="cls-3" d="M395.33 570.04H372.5l-22.83 1.97h-12.5l-7.5 2.53-5.25 8.5v9.83l1.91 4.17 3.84 4.05 6.33 1.95h58.83v-33z"/><path id="right" class="cls-3" d="M404.61 570.27h22.83l22.83 1.97h12.5l7.5 2.53 5.25 8.5v9.83l-1.91 4.17-3.84 4.05-6.33 1.95h-58.83v-33z"/><path d="M366.84 573s27.5 20 28.33 9.83 0-14.5 0-14.5a238.74 238.74 0 00-28.33 4.67zm-41.51 18.5s1.84 11.74 12.18 11.54 25.83 0 25.83 0 3.97-16.04-38.01-11.54zM433.08 573s-27.5 20-28.33 9.83 0-14.5 0-14.5a238.74 238.74 0 0128.33 4.67zm41.52 18.5s-1.84 11.74-12.18 11.54-25.83 0-25.83 0-3.98-16.04 38.01-11.54z" fill="#b52026" id="details"/></g><g id="socks"><g id="socks-2" data-name="socks"><path id="left-2" data-name="left" class="cls-5" d="M349.88 522h45.67v48.04h-45.67z"/><path id="right-2" data-name="right" class="cls-5" d="M404.38 522h45.67v48.04h-45.67z"/></g><g id="details-2" data-name="details"><path class="cls-6" d="M350.44 535.44h45.62v3.23h-45.62zm0 10.98h45.62v3.23h-45.62z"/><path class="cls-7" d="M350.44 537.33h45.62v10.43h-45.62z"/><path class="cls-6" d="M404.4 535.44h45.63v3.23H404.4zm0 10.98h45.63v3.23H404.4z"/><path class="cls-7" d="M404.4 537.33h45.63v10.43H404.4z"/></g></g><g id="shorts"><path id="shorts-2" data-name="shorts" class="cls-6" d="M341.67 442.54h116.49v47a9.95 9.95 0 01-9.95 9.95h-96.6a9.95 9.95 0 01-9.95-9.95v-47h.01z"/><g id="details-3" data-name="details"><path class="cls-7" d="M342.71 456.75H348a3.89 3.89 0 013.89 3.89v38.17a9.23 9.23 0 01-9.23-9.23v-32.83h.05z"/><path class="cls-7" d="M457.19 456.75v38.17a3.89 3.89 0 01-3.89 3.89H448V466a9.23 9.23 0 019.23-9.23z" transform="rotate(-180 452.575 477.78)"/></g></g><g id="shirt"><path id="shirt-2" data-name="shirt" class="cls-5" d="M369.5 314.8l-48.29 2.99-11.36 6.25-6.83 10.1-3.31 40.73 5.17 7.67 7.66 4.67h29.5l.17 54h114.83v-53.5l29.34-.17 7.01-4 6.99-10.5-3.4-37.33-6.83-11.84-9.77-6.08-49.84-2.99-1 21.24-6.5 6.5-11.16 3.48-11.88 2.02-15.46-3.17-11-5.66-3.66-3.84-.38-20.57z"/><g id="details-4" data-name="details"><path class="cls-7" d="M363.42 315.64l.48 19.44a5.46 5.46 0 003.95 5.11l11.49 3.31-8.83-7.08V314.8zm73.16 0l-.48 19.44a5.46 5.46 0 01-3.95 5.11l-11.49 3.31 8.83-7.08V314.8z" id="neck"/><g id="ARM-L"><path class="cls-7" d="M348.83 442.17l-8 .37.37-55.33-33-1.71-7.36-7.77 1.38-43.6 10.28-14.63 36.33-2.29-4.29 43a197.73 197.73 0 000 39.42z" id="arm-l-2" data-name="arm-l"/><path class="cls-6" d="M342.71 379.87l-38.58 1.01 4.17 4.62 33.88 1.71.53-7.34z"/></g><g id="ARM-R"><path class="cls-7" d="M451.15 442.17l8 .37-.37-55.33 33-1.71 7.36-7.77-1.38-43.6-10.28-14.63-36.33-2.29 4.29 43a197.73 197.73 0 010 39.42z" id="arm-r-2" data-name="arm-r"/><path class="cls-6" d="M457.43 379.87l38.57 1.01-4.17 4.62-33.87 1.71-.53-7.34z"/></g><g id="crest-westham-16"><path class="cls-5" d="M438.17 374.38l-2.25 1a3.44 3.44 0 01-2.84 0l-2.25-1a8.36 8.36 0 01-4.91-7.61v-8.63a3.52 3.52 0 013.52-3.52h10.1a3.52 3.52 0 013.52 3.52v8.63a8.36 8.36 0 01-4.89 7.61z"/><path class="cls-7" d="M439.55 354.62a3.52 3.52 0 013.52 3.52v8.63a8.36 8.36 0 01-4.91 7.61l-2.25 1a3.44 3.44 0 01-2.84 0l-2.25-1a8.36 8.36 0 01-4.91-7.61v-8.63a3.52 3.52 0 013.52-3.52h10.1m0-1.46h-10.1a5 5 0 00-5 5v8.63a9.81 9.81 0 005.76 8.94l2.25 1a4.9 4.9 0 004 0l2.25-1a9.81 9.81 0 005.76-8.94v-8.63a5 5 0 00-5-5z"/><path d="M441 362.1l-3.08-2.21a2.19 2.19 0 00-1.09-.4l-.91-.08a.19.19 0 00-.15.33l1.1 1.1a.59.59 0 010 .83l-2 2a.5.5 0 01-.7 0l-2-2a.59.59 0 010-.83l1.1-1.1a.19.19 0 00-.15-.33l-.91.08a2.19 2.19 0 00-1.09.4L428 362.1a.37.37 0 000 .57l.91.91a.37.37 0 00.53 0l.72-.72a.59.59 0 01.83 0l2 2a.5.5 0 010 .7l-3 3a.84.84 0 000 1.21.86.86 0 001.18 0l3-3a.5.5 0 01.7 0l3 3a.84.84 0 001.19 0 .84.84 0 000-1.19l-3-3a.5.5 0 010-.7l2-2a.59.59 0 01.83 0l.72.72a.37.37 0 00.53 0l.91-.91a.37.37 0 00-.05-.59z" fill="#f9c11e"/></g><g id="brand-umbro"><path class="cls-6" d="M365.36 369.35a1.7 1.7 0 01-.75-.17l-6.21-3.07a1.06 1.06 0 010-2l6.21-3.07a1.73 1.73 0 011.5 0l6.21 3.07a1.06 1.06 0 010 2l-6.21 3.07a1.7 1.7 0 01-.75.17zm0-7.27l-6.18 3.07 6.21 3 6.15-3.05zm6.21 3l.38.5-.38-.5z"/><path class="cls-6" d="M368.43 365.36l-2.91 1.44a.4.4 0 01-.34 0l-2.91-1.44a.24.24 0 010-.45l2.91-1.44a.4.4 0 01.34 0l2.91 1.44a.24.24 0 010 .45z"/></g><g id="sponsor-betway"><rect id="sponsor-betway-2" data-name="sponsor-betway" class="cls-6" x="364.39" y="387.21" width="71.23" height="22.84" rx="11.04" ry="11.04"/></g><g clip-path="url(#clip-path)"><g clip-path="url(#clip-path-2)" id="logo-pl-ready-16"><path class="cls-6" d="M499.52 359.18c.61 5.19-1.3 9.68-4.27 10s-5.87-3.57-6.48-8.76 1.3-9.68 4.27-10 5.87 3.57 6.48 8.76"/><path class="cls-11" d="M495.33 369.88c-3.18.37-6.29-3.84-6.95-9.4s1.4-10.37 4.58-10.75 6.29 3.84 6.95 9.39-1.4 10.38-4.58 10.75m-2.21-18.79c-2.75.32-4.53 4.5-4 9.3s3.26 8.45 6 8.13 4.53-4.49 4-9.3-3.26-8.45-6-8.13"/><path class="cls-11" d="M495.43 354.38v-.1h-.09l-.28.11h-.13l-.34-.93h-.06l-.33.57h-.13l-.39-.66a.07.07 0 00-.05 0l-.23.73h-.13l-.45-.48h-.06l-.08.69v.29h-1.04v.22l.17.7v.2h.15a4.2 4.2 0 011.4-.49 3.75 3.75 0 011.51.15h.14v-1.09zm.97 2.43a3.91 3.91 0 00-5.14.6 10.81 10.81 0 00.34 3.71l.66 2c.54 1.61 1.68 3.58 2.68 3.47s1.66-2.3 1.81-4l.18-2.1a10.78 10.78 0 00-.53-3.69m-3.11 6l-.15-1.32c-.24 0-.47-.29-.52-.7l-.09-.79c0-.42.1-.78.34-.8l.45-.05c.24 0 .47.29.52.7l.12 1a.66.66 0 00.23.46c.09.86.18 1.88.18 1.9l-.4.51c-.31 0-.61-.37-.67-.91m1.56 2.19h-.19c-.18 0-.41-.26-.56-.54a.4.4 0 010-.34 3.35 3.35 0 01.36-.56.18.18 0 01.28 0 3.44 3.44 0 01.48.46.41.41 0 01.06.34c-.08.3-.24.64-.42.66m1-4.6c0 .42-.1.78-.34.8l.16 1.32c.06.54-.13 1-.44 1l-.51-.41s-.15-1-.27-1.89a.67.67 0 00.12-.51l-.12-1c0-.42.1-.78.34-.8l.45-.05c.24 0 .47.29.52.7z"/><path class="cls-6" d="M300.57 359.18c-.61 5.19 1.3 9.68 4.27 10s5.87-3.57 6.48-8.76-1.3-9.68-4.27-10-5.87 3.57-6.48 8.76"/><path class="cls-11" d="M300.18 359.13c.65-5.55 3.77-9.77 6.95-9.39s5.23 5.19 4.58 10.75-3.77 9.77-6.94 9.39-5.23-5.19-4.58-10.75m.78.09c-.56 4.81 1.21 9 4 9.3s5.45-3.32 6-8.13-1.21-9-4-9.3-5.45 3.32-6 8.13"/><path class="cls-11" d="M304.65 354.38v-.1h.09l.28.11h.13l.34-.93h.06l.33.57h.13l.39-.66a.07.07 0 01.05 0l.23.73h.13l.45-.48h.06l.08.69v.29h.44v.28l-.17.7v.2h-.15a4.2 4.2 0 00-1.4-.49 3.75 3.75 0 00-1.51.15h-.14v-1.18m-1.31 6.24l.18 2.1c.15 1.69.8 3.88 1.81 4s2.15-1.85 2.68-3.47l.66-2a10.84 10.84 0 00.34-3.71 3.92 3.92 0 00-5.15-.6 10.81 10.81 0 00-.53 3.69m3 3.25l-.4-.51s.09-1 .18-1.9a.66.66 0 00.23-.46l.12-1c0-.41.28-.73.52-.7l.45.05c.24 0 .39.39.34.8l-.09.79c0 .42-.28.73-.52.7l-.16 1.32c-.06.54-.36.94-.67.91m-1.31.63a.41.41 0 01.06-.34 3.4 3.4 0 01.48-.46.18.18 0 01.28 0 3.41 3.41 0 01.36.56.41.41 0 010 .34c-.15.28-.38.56-.56.54h-.19c-.18 0-.34-.35-.42-.66m-.5-4.73c0-.42.28-.73.52-.7l.45.05c.24 0 .39.39.34.8l-.12 1a.66.66 0 00.12.51c-.12.86-.26 1.87-.27 1.89l-.51.41c-.31 0-.51-.5-.44-1l.16-1.32c-.24 0-.39-.39-.34-.8z"/></g></g></g></g><path id="neck-2" data-name="neck" fill="#8e6e54" d="M427.63 340.26l-27.59 8.62-28.6-9.62-1.92-23.62h61.04l-2.93 24.62z"/><path d="M502.88 368.43l-2.47-30.36c-1.19-11.87-11.83-22.25-23.72-23.14l-37.14-2.71c-4.07-.45-20.52-.09-39.55.53-19-.62-35.48-1-39.55-.53l-37.14 2.71c-11.89.89-22.53 11.27-23.72 23.14l-2.47 30.36a20.15 20.15 0 005 15.74 19.92 19.92 0 001.69 1.64v66.36c0 12.81 9.32 23.22 20.78 23.22a19.8 19.8 0 0015.25-7.39v21.79a12.23 12.23 0 007.74 11.36v68h-5.93c-10.93 0-19.83 5.8-19.83 17.11 0 8.06 0 17 11.72 19.7v1.6a1.38 1.38 0 001.38 1.38h1.63a1.38 1.38 0 001.38-1.37v-.95c1.16.09 2.39.15 3.73.15h1.89v.8a1.38 1.38 0 001.38 1.38h1.63a1.38 1.38 0 001.38-1.37v-.8h5.62v.8a1.38 1.38 0 001.38 1.38h1.63a1.38 1.38 0 001.38-1.37v-.8h5.62v.8a1.38 1.38 0 001.38 1.38h1.63a1.38 1.38 0 001.38-1.37v-.8h5.62v.8a1.38 1.38 0 001.38 1.38h1.63a1.38 1.38 0 001.38-1.37v-.8h5.62v.8a1.38 1.38 0 001.38 1.38h1.63a1.38 1.38 0 001.38-1.37v-.8h5.62v.8a1.38 1.38 0 001.38 1.38h1.63a1.38 1.38 0 001.38-1.37v-.81l.06-55.45V502h4v49.21l.06 54.67v1.6a1.38 1.38 0 001.38 1.38h1.63a1.38 1.38 0 001.38-1.37v-.8h5.62v.8a1.38 1.38 0 001.38 1.38h1.63a1.38 1.38 0 001.38-1.37v-.8h5.62v.8a1.38 1.38 0 001.38 1.38h1.63a1.38 1.38 0 001.38-1.37v-.8h5.62v.8a1.38 1.38 0 001.38 1.38h1.63a1.38 1.38 0 001.38-1.37v-.8h5.62v.8a1.38 1.38 0 001.38 1.38h1.63a1.38 1.38 0 001.38-1.37v-.8h5.62v.8a1.38 1.38 0 001.38 1.38h1.63a1.38 1.38 0 001.38-1.37v-.8h1.89c1.33 0 2.57-.05 3.72-.15v.95a1.38 1.38 0 001.38 1.38h1.63a1.38 1.38 0 001.38-1.37v-1.6c11.71-2.68 11.72-11.64 11.72-19.7 0-11.3-8.89-17.11-19.83-17.11h-5.93v-68a12.23 12.23 0 007.74-11.36V468a19.8 19.8 0 0015.21 7.42c11.46 0 20.78-10.42 20.78-23.22v-66.39a19.92 19.92 0 001.69-1.64 20.15 20.15 0 004.95-15.74zm-130.49-46.18c3.46 1.84 15.64 2.07 27.61 1.79 12 .28 24.15 0 27.61-1.79V334c0 4.8-22.42 12-27.23 12l-.38-.08-.38.08c-4.8 0-27.23-7.19-27.23-12zm-33 75.43v55c0 9.5-6.63 17.22-14.78 17.22s-14.78-7.73-14.78-17.22V389.9a21.08 21.08 0 007.47 1.36h22.09zm52.9 203.42h-50.64c-14.22 0-14.22-5-14.22-14.89 0-8.21 6.38-11.5 14.22-11.5h11.67l38.93-2.71.06 15.37zm-38.74-76.4h38.67v41.7l-38.67 2.68h-.26V524.7zm-.26-5.74V502h38.94v17h-38.91zm104.77 55.75h.26c7.84 0 14.22 3.29 14.22 11.5 0 9.91 0 14.89-14.22 14.89h-50.64v-13.7l.06-15.37 38.93 2.69h11.42zm-11.67-50h.26v44.4h-.26l-38.67-2.68V524.7zM407.75 519v-17h38.95v17h-38.95zm46.84-73.77h-.07v44.58a6.6 6.6 0 01-6.58 6.58H403s-.11-3.73-.16-8.75v-2.79c0-3.51-1.41-5.09-2.82-5-1.41-.09-2.82 1.49-2.82 5v2.79c0 5-.16 8.75-.16 8.75H352.1a6.6 6.6 0 01-6.58-6.58v-44.63h-.07v-.33l30.24.33h48.69l30.24-.33zm35.57 7.51c0 9.5-6.63 17.22-14.78 17.22s-14.78-7.73-14.78-17.22v-61.48h22.09a21.08 21.08 0 007.47-1.36zm6-77.21a13.53 13.53 0 01-6 7.29 14.69 14.69 0 01-7.47 2l-22.09.09v-20.19c0-5.56-6.07-5.94-6.07 0s.07 14.37.07 14.37v59.59H345.41v-59.61s.07-8.46.07-14.37-6.07-5.54-6.07 0v20.11l-22.09-.09a14.69 14.69 0 01-7.47-2 13.53 13.53 0 01-6-7.29 14.89 14.89 0 01-.75-6.46l2.47-30.36c.89-9 9.23-17.08 18.2-17.75l11.12-.83 32.22-2.29c.68.54.48 17.49.48 17.49 0 8.43 23.34 15.29 31.77 15.29h1.3c8.43 0 31.77-6.86 31.77-15.29 0 0-.2-16.95.48-17.49l32.22 2.29 11.12.83c9 .67 17.3 8.8 18.2 17.75L496.9 369a14.89 14.89 0 01-.75 6.48z" id="border"/><g id="head"><path id="skin-2" data-name="skin" class="cls-2" d="M446.38 253.1c0-.91.08-1.81.08-2.73 0-30.51-21.06-55.25-47-55.25s-47 24.74-47 55.25c0 1.11 0 2.21.1 3.31-4 2.46-6.9 8.44-6.9 15.43 0 9.19 4.93 16.64 11 16.64a7.47 7.47 0 002.1-.31c.82 24.5 18.74 44.08 40.73 44.08s40.12-19.81 40.74-44.5a7.65 7.65 0 003.25.74c6.08 0 11-7.45 11-16.64-.05-7.65-3.48-14.06-8.1-16.02z"/><path id="hair" class="cls-13" d="M399 196.51c-44.42 3.5-45.58 44.42-45.58 44.42S360 220 372.65 217c6.72-1.58 18.52.86 27.4 1.71 8.87-.85 18.59-3.29 25.31-1.71 12.65 3 19.22 23.92 19.22 23.92S443.42 200 399 196.51z"/><path class="cls-1" d="M406.15 304.18h-12.3c-3.65 0-5.14-.48-5.74.45-.01 0 21.69-.45 18.04-.45zM391 320.27a9.89 9.89 0 018.76-4.52c5.73 0 8.52 2.23 9.73 4.46 1.64-.43 2.32-2.31 2.59-4.57h-24.15c.31 2.45 1.07 4.45 3.07 4.63z"/><path class="cls-13" d="M399.75 315.75h-7.13a8 8 0 00-8.08 8.48l.11 2c5.54 3 13 4.32 15.35 4.65 2.3-.33 9.8-1.61 15.35-4.65l.11-2a8 8 0 00-8.08-8.48zm-5.9-11.57h21.06a1.43 1.43 0 001.37-1.88 5 5 0 00-4.56-3.28l-11.72-.25-11.72.24a5 5 0 00-4.56 3.28 1.43 1.43 0 001.37 1.88z"/><path d="M399.42 332.51c-22.68 0-41.28-19-43.53-43.79-7.52-.49-13.31-8.93-13.31-19.61 0-7 2.64-13.45 6.84-16.92v-1.82c0-32.12 22.45-58.25 50-58.25s50 26.13 50 58.25v1c4.85 3.17 8 10 8 17.76 0 11-6.15 19.64-14 19.64H443c-2.3 24.79-20.83 43.74-43.58 43.74zm-40.73-50.08a3 3 0 013 2.9c.77 23.09 17.35 41.18 37.73 41.18 20.58 0 37.15-18.26 37.74-41.58a3 3 0 014.27-2.64 4.68 4.68 0 002 .46c4.34 0 8-6.24 8-13.64 0-7-3.13-11.94-6.21-13.24a3 3 0 01-1.83-2.89v-.18c0-.8.07-1.61.07-2.42 0-28.81-19.75-52.25-44-52.25s-44 23.44-44 52.25c0 .92 0 1.89.09 3.16a3 3 0 01-1.44 2.71c-3.27 2-5.46 7.16-5.46 12.86 0 7.39 3.67 13.64 8 13.64a4.49 4.49 0 001.26-.19 3 3 0 01.78-.13z" fill="#231f20"/></g></svg>