<svg id="player" xmlns="http://www.w3.org/2000/svg" viewBox="0 0 800 800"><defs><clipPath id="clip-path"><path class="cls-1" d="M300.06 349.64h199.97v20.19H300.06z"/></clipPath><clipPath id="clip-path-2"><path class="cls-1" d="M300.06 349.64h199.97v20.19H300.06z"/></clipPath><style>.cls-1{fill:none}.cls-2{fill:#c09062}.cls-3{fill:#112417}.cls-4{fill:#39a379}.cls-5{fill:#fff}.cls-6{fill:#e71f23}.cls-7{fill:#262626}.cls-8{fill:#231f20}.cls-13{fill:#3e1952}.cls-17,.cls-18{fill:#442d1d}.cls-17{opacity:.1}</style></defs><g id="skin"><path id="arm-left" class="cls-2" d="M305.93 382h36.78v72.4a18.39 18.39 0 01-18.39 18.39 18.39 18.39 0 01-18.39-18.39V382z"/><path id="arm-right" class="cls-2" d="M457.19 382H494v72.4a18.39 18.39 0 01-18.39 18.39 18.39 18.39 0 01-18.39-18.39V382h-.03z"/><path id="leg-left" class="cls-2" d="M349.88 492.02h45.67v45.67h-45.67z"/><path id="leg-right" class="cls-2" d="M404.78 492.02h45.67v45.67h-45.67z"/></g><g id="boots"><path id="left" class="cls-3" d="M395.33 570.04H372.5l-22.83 1.97h-12.5l-7.5 2.53-5.25 8.5v9.83l1.91 4.17 3.84 4.05 6.33 1.95h58.83v-33z"/><path id="right" class="cls-3" d="M404.61 570.27h22.83l22.83 1.97h12.5l7.5 2.53 5.25 8.5v9.83l-1.91 4.17-3.84 4.05-6.33 1.95h-58.83v-33z"/><g id="details"><path class="cls-4" d="M377 571.33s-31.17 43.58-51.5 25.71c0 0-4.83-20.71 5.5-22.87s46-2.84 46-2.84z"/><path class="cls-5" d="M374 571.48s-27.32 14-29.47 20.13 29.68-4.37 35.58-13.34 2.1-8.99-6.11-6.79z"/><path class="cls-4" d="M423 571.33s31.17 43.58 51.5 25.71c0 0 4.83-20.71-5.5-22.87s-46-2.84-46-2.84z"/><path class="cls-5" d="M425.94 571.48s27.32 14 29.47 20.13-29.68-4.37-35.58-13.34-2.14-8.99 6.11-6.79z"/></g></g><g id="socks"><g id="socks-2" data-name="socks"><path id="left-2" data-name="left" class="cls-6" d="M349.88 522h45.67v48.04h-45.67z"/><path id="right-2" data-name="right" class="cls-6" d="M404.38 522h45.67v48.04h-45.67z"/></g><g id="details-2" data-name="details"><path class="cls-5" d="M350.88 529.75h44.46v5.54h-44.46zm0 9.73h44.46v5.54h-44.46zm0 9.73h44.46v5.54h-44.46z" id="left-3" data-name="left"/><path class="cls-5" d="M404.99 529.75h44.46v5.54h-44.46zm0 9.73h44.46v5.54h-44.46zm0 9.73h44.46v5.54h-44.46z" id="right-3" data-name="right"/></g></g><g id="shorts"><path id="shorts-2" data-name="shorts" class="cls-7" d="M341.67 442.54h116.49v47a9.95 9.95 0 01-9.95 9.95h-96.6a9.95 9.95 0 01-9.95-9.95v-47h.01z"/><g id="details-3" data-name="details"><path class="cls-6" d="M342.71 489.83h114.52a10.33 10.33 0 01-10.33 10.33H353a10.33 10.33 0 01-10.33-10.33h.04z"/><path class="cls-5" d="M342.71 442.54h5.12V494h-5.12zm109.36 0h5.12V494h-5.12z"/></g></g><path class="cls-6" d="M306 387.9h36.71v47.83H306zm151.23 0h36.71v47.83h-36.71z" id="under-shirt"/><g id="shirt"><path id="shirt-2" data-name="shirt" class="cls-6" d="M369.5 314.8l-48.29 2.99-11.36 6.25-6.83 10.1-3.31 40.73 5.17 7.67 7.66 4.67h29.5l.17 54h114.83v-53.5l29.34-.17 7.01-4 6.99-10.5-3.4-37.33-6.83-11.84-9.77-6.08-49.84-2.99-1 21.24-6.5 6.5-11.16 3.48-11.88 2.02-15.46-3.17-11-5.66-3.66-3.84-.38-20.57z"/><g id="details-4" data-name="details"><g id="arm-l"><path class="cls-7" d="M307.11 385.81l35.6.86v-5.84l-40.92-7 5.32 11.98z"/><path class="cls-5" d="M301.79 373.92l40.92 7v-3.62l-40.92-7v3.62z"/></g><g id="arm-r"><path class="cls-7" d="M492.83 385.81l-35.6.86v-5.84l40.91-7-5.31 11.98z"/><path class="cls-5" d="M498.14 373.92l-40.91 7v-3.62l40.91-7v3.62z"/></g><g id="chest"><path class="cls-5" d="M441.3 321.78a3.18 3.18 0 00-3.18 3.16l-.12 12.19a9.83 9.83 0 01-4.15 8C427.34 349.71 413.77 356 400 356c-13.73 0-27.3-6.31-33.84-10.87a9.83 9.83 0 01-4.15-8l-.08-13a2.34 2.34 0 00-2.34-2.33 16.87 16.87 0 00-16.87 16.87v49.49l15.16-2.64a1.89 1.89 0 012.22 1.86v53.85h11.38v-56.52a1.89 1.89 0 011.57-1.86l7.6-1.32a1.89 1.89 0 012.22 1.86v57.82h11.38v-60.47a1.89 1.89 0 011.57-1.86h.26a23.39 23.39 0 018 0 1.9 1.9 0 011.58 1.87v60.51H417V383.3a1.89 1.89 0 012.21-1.87l7.6 1.31a1.89 1.89 0 011.57 1.87v56.6h11.38v-54a1.89 1.89 0 012.21-1.87l16.2 2.79v-49.48a16.87 16.87 0 00-16.87-16.87z"/><path class="cls-5" d="M382.59 346.83l.35.16 17.06 3.64 17.1-3.63.35-.16a24 24 0 0014.19-21.76v-3.28h-63.25v3.28a24 24 0 0014.2 21.75z"/></g><path id="neck" class="cls-6" d="M431.7 312.38v12.69a24 24 0 01-14.19 21.76l-.35.16-17.16 3.64-17.06-3.63-.35-.16a24 24 0 01-14.19-21.76v-12.69l-6.48 2v7.41l.1 15.34a9.83 9.83 0 004.15 8C372.7 349.71 386.27 356 400 356c13.73 0 27.3-6.31 33.84-10.87a9.83 9.83 0 004.15-8l.1-15.34v-7.41z"/><g id="crest-southampton-16"><path class="cls-8" d="M438.54 358.71a1.36 1.36 0 011.36 1.36v9.2a1.28 1.28 0 01-.66 1.12l-5 2.77a1.43 1.43 0 01-1.39 0l-5-2.77a1.28 1.28 0 01-.66-1.12v-9.2a1.36 1.36 0 011.36-1.36h9.94m0-.88h-9.89a2.25 2.25 0 00-2.24 2.24v9.2a2.16 2.16 0 001.11 1.89l5 2.77a2.31 2.31 0 002.24 0l5-2.77a2.16 2.16 0 001.11-1.89v-9.2a2.25 2.25 0 00-2.24-2.24z"/><path class="cls-6" d="M427.24 369.27a1.28 1.28 0 00.66 1.12l5 2.77a1.43 1.43 0 001.39 0l5-2.77a1.28 1.28 0 00.66-1.12v-2.65h-12.71z"/><path class="cls-5" d="M438.54 358.71h-9.94a1.36 1.36 0 00-1.36 1.36v6.55h12.67v-6.55a1.36 1.36 0 00-1.37-1.36z"/><path class="cls-8" d="M434.84 362.35a2.27 2.27 0 010 4.49 6.36 6.36 0 00.42 1.5.44.44 0 01-.35.62h-2.59a.44.44 0 01-.35-.62 6.36 6.36 0 00.42-1.5 2.27 2.27 0 010-4.49 1.78 1.78 0 01.65.12 1.66 1.66 0 001.22 0 1.78 1.78 0 01.65-.12m0-.4a2.1 2.1 0 00-.77.15 1.34 1.34 0 01-1 0 2.1 2.1 0 00-.77-.15 2.21 2.21 0 00-1.61.77 2.89 2.89 0 000 3.73 2.25 2.25 0 001.29.76 5.86 5.86 0 01-.31 1 .93.93 0 000 .81.72.72 0 00.63.39h2.59a.72.72 0 00.63-.39.93.93 0 000-.81 5.86 5.86 0 01-.31-1 2.25 2.25 0 001.29-.76 2.89 2.89 0 000-3.73 2.21 2.21 0 00-1.61-.77z"/><path d="M434.87 369h-2.59a.44.44 0 01-.35-.62 6.47 6.47 0 00.46-3.14h2.36a6.47 6.47 0 00.46 3.14.44.44 0 01-.34.62z" fill="#201d1e"/><path d="M434.88 362.35a1.78 1.78 0 00-.69.12 1.66 1.66 0 01-1.22 0 1.78 1.78 0 00-.69-.12 2.27 2.27 0 000 4.49 1.78 1.78 0 00.68-.14 1.51 1.51 0 011.16 0 1.78 1.78 0 00.68.14 2.27 2.27 0 000-4.49z" fill="#14b24b"/><path class="cls-5" d="M428.19 358.04v3.2l3.59-.88v-3.2l-3.59.88z"/><path class="cls-6" d="M425.79 358.63a1.56 1.56 0 00-1.19 1.51 1.56 1.56 0 001.93 1.51l1.66-.41V358z"/><path class="cls-5" d="M435.37 357.16v3.2l3.59.88v-3.2l-3.59-.88z"/><path class="cls-6" d="M435 357.07a6.07 6.07 0 00-2.89 0l-.35.09v3.21l1.79-.44 1.79.44v-3.21zm6.36 1.56L439 358v3.21l1.66.41a1.56 1.56 0 001.93-1.51 1.56 1.56 0 00-1.23-1.48z"/><path class="cls-8" d="M433.57 356.9a6.07 6.07 0 011.44.17l.35.09 3.64.84 2.4.59a1.56 1.56 0 011.19 1.51 1.55 1.55 0 01-1.93 1.51l-1.66-.41-3.59-.88-1.79-.44-1.79.44-3.59.88-1.66.41a1.55 1.55 0 01-1.93-1.51 1.56 1.56 0 011.19-1.51l2.4-.59 3.59-.88.35-.09a6.07 6.07 0 011.44-.17m0-.88a7 7 0 00-1.65.2l-.35.09-3.59.88-2.4.59a2.44 2.44 0 101.16 4.73l1.66-.41 3.59-.88 1.59-.39 1.59.39 3.59.88 1.66.41a2.44 2.44 0 101.16-4.73l-2.4-.59-3.59-.88-.35-.09a7 7 0 00-1.65-.2z"/></g><path id="brand-under-armour" class="cls-6" d="M372.32 360.51a1.17 1.17 0 00-1.28-1h-.79a1.17 1.17 0 00-1.28 1V362a2.27 2.27 0 01-.58 1.48 9.83 9.83 0 00-2.74-.41 9.83 9.83 0 00-2.74.41 2.27 2.27 0 01-.58-1.48v-1.47a1.17 1.17 0 00-1.28-1h-.79a1.17 1.17 0 00-1.28 1v3a2.18 2.18 0 00.25 1 1.41 1.41 0 010 1.34 2.18 2.18 0 00-.25 1v3a1.17 1.17 0 001.28 1h.79a1.17 1.17 0 001.28-1v-1.47a2.27 2.27 0 01.58-1.48 9.83 9.83 0 002.74.41 9.83 9.83 0 002.74-.41 2.27 2.27 0 01.58 1.48v1.47a1.17 1.17 0 001.28 1h.75a1.17 1.17 0 001.28-1v-3a2.18 2.18 0 00-.25-1 1.41 1.41 0 010-1.34 2.18 2.18 0 00.25-1z"/><g id="sponsor-virgin"><path class="cls-6" d="M415.29 388.79a11.67 11.67 0 00-6.18 1.3 6.58 6.58 0 01-7.8-1.44 16.61 16.61 0 00-13.31-5.12c-8.5.69-15.36 8.11-16 17.27-.72 10.93 7.31 20 17.32 20a16.67 16.67 0 0012-5.2 6.5 6.5 0 017.73-1.45 11.67 11.67 0 005.46 1.36c7.14 0 12.88-6.48 12.42-14.27-.39-6.63-5.44-12.05-11.64-12.45z"/><path class="cls-5" d="M413 392.53a12.34 12.34 0 00-6.74 1.94 2.69 2.69 0 01-3.48-.43 16.53 16.53 0 00-12.42-5.31c-8.61 0-15.59 6-15.59 13.43s7 13.43 15.59 13.43a16.53 16.53 0 0012.42-5.31 2.69 2.69 0 013.48-.43 12.34 12.34 0 006.74 1.94c6.17 0 11.18-4.31 11.18-9.63s-5.02-9.63-11.18-9.63zm0 18.1a10.67 10.67 0 01-8.13-3.53 1 1 0 00-1.36.15c-2.28 4.24-7.31 7.19-13.14 7.19-8 0-14.44-5.51-14.44-12.27s6.48-12.27 14.44-12.27c5.83 0 10.86 3 13.14 7.19a1 1 0 001.36.15 10.67 10.67 0 018.13-3.53c5.53 0 10 3.8 10 8.47s-4.49 8.45-10 8.45z"/></g><g clip-path="url(#clip-path)"><g clip-path="url(#clip-path-2)" id="logo-pl-ready-16"><path class="cls-5" d="M499.52 359.1c.61 5.19-1.3 9.68-4.27 10s-5.87-3.57-6.48-8.76 1.3-9.68 4.27-10 5.87 3.57 6.48 8.76"/><path class="cls-13" d="M495.33 369.81c-3.18.37-6.29-3.84-6.95-9.4s1.4-10.37 4.58-10.75 6.29 3.84 6.95 9.39-1.4 10.38-4.58 10.75m-2.21-18.8c-2.75.32-4.53 4.5-4 9.3s3.26 8.45 6 8.13 4.53-4.49 4-9.3-3.26-8.45-6-8.13"/><path class="cls-13" d="M495.43 354.31v-.1h-.09l-.28.11h-.13l-.34-.93h-.06l-.33.57h-.13l-.39-.66a.07.07 0 00-.05 0l-.23.73h-.13l-.45-.48h-.06l-.08.69v.29h-1.04v.22l.17.7v.2h.15a4.2 4.2 0 011.4-.49 3.75 3.75 0 011.51.15h.14v-1.09zm.97 2.43a3.91 3.91 0 00-5.14.6 10.81 10.81 0 00.34 3.71l.66 2c.54 1.61 1.68 3.58 2.68 3.47s1.66-2.3 1.81-4l.18-2.1a10.78 10.78 0 00-.53-3.69m-3.11 6l-.15-1.32c-.24 0-.47-.29-.52-.7l-.09-.79c0-.42.1-.78.34-.8l.45-.05c.24 0 .47.29.52.7l.12 1a.66.66 0 00.23.46c.09.86.18 1.88.18 1.9l-.4.51c-.31 0-.61-.37-.67-.91m1.56 2.19h-.19c-.18 0-.41-.26-.56-.54a.4.4 0 010-.34 3.35 3.35 0 01.36-.56.18.18 0 01.28 0 3.44 3.44 0 01.48.46.41.41 0 01.06.34c-.08.3-.24.64-.42.66m1-4.6c0 .42-.1.78-.34.8l.16 1.32c.06.54-.13 1-.44 1l-.51-.41s-.15-1-.27-1.89a.67.67 0 00.12-.51l-.12-1c0-.42.1-.78.34-.8l.45-.05c.24 0 .47.29.52.7z"/><path class="cls-5" d="M300.57 359.1c-.61 5.19 1.3 9.68 4.27 10s5.87-3.57 6.48-8.76-1.3-9.68-4.27-10-5.87 3.57-6.48 8.76"/><path class="cls-13" d="M300.18 359.06c.65-5.55 3.77-9.77 6.95-9.39s5.23 5.19 4.58 10.75-3.77 9.77-6.94 9.39-5.23-5.19-4.58-10.75m.78.09c-.56 4.81 1.21 9 4 9.3s5.45-3.32 6-8.13-1.21-9-4-9.3-5.45 3.32-6 8.13"/><path class="cls-13" d="M304.65 354.31v-.1h.09l.28.11h.13l.34-.93h.06l.33.57h.13l.39-.66a.07.07 0 01.05 0l.23.73h.13l.45-.48h.06l.08.69v.29h.44v.28l-.17.7v.2h-.15a4.2 4.2 0 00-1.4-.49 3.75 3.75 0 00-1.51.15h-.14v-1.18m-1.31 6.24l.18 2.1c.15 1.69.8 3.88 1.81 4s2.15-1.85 2.68-3.47l.66-2a10.84 10.84 0 00.34-3.71 3.92 3.92 0 00-5.15-.6 10.81 10.81 0 00-.53 3.69m3 3.25l-.4-.51s.09-1 .18-1.9a.66.66 0 00.23-.46l.12-1c0-.42.28-.73.52-.7l.45.05c.24 0 .39.39.34.8l-.09.79c0 .42-.28.73-.52.7l-.16 1.32c-.06.54-.36.94-.67.91m-1.31.63a.41.41 0 01.06-.34 3.4 3.4 0 01.48-.46.18.18 0 01.28 0 3.41 3.41 0 01.36.56.41.41 0 010 .34c-.15.28-.38.56-.56.54h-.19c-.18 0-.34-.35-.42-.66m-.5-4.73c0-.42.28-.73.52-.7l.45.05c.24 0 .39.39.34.8l-.12 1a.66.66 0 00.12.51c-.12.86-.26 1.87-.27 1.89l-.51.41c-.31 0-.51-.5-.44-1l.16-1.32c-.24 0-.39-.39-.34-.8z"/></g></g></g></g><path id="neck-2" data-name="neck" fill="#a57b58" d="M427.63 340.26l-27.59 8.62-28.6-9.62-1.92-23.62h61.04l-2.93 24.62z"/><path d="M502.88 368.43l-2.47-30.36c-1.19-11.87-11.83-22.25-23.72-23.14l-37.14-2.71c-4.07-.45-20.52-.09-39.55.53-19-.62-35.48-1-39.55-.53l-37.14 2.71c-11.89.89-22.53 11.27-23.72 23.14l-2.47 30.36a20.15 20.15 0 005 15.74 19.92 19.92 0 001.69 1.64v66.36c0 12.81 9.32 23.22 20.78 23.22a19.8 19.8 0 0015.25-7.39v21.79a12.23 12.23 0 007.74 11.36v68h-5.93c-10.93 0-19.83 5.8-19.83 17.11 0 8.06 0 17 11.72 19.7v1.6a1.38 1.38 0 001.38 1.38h1.63a1.38 1.38 0 001.38-1.37v-.95c1.16.09 2.39.15 3.73.15h1.89v.8a1.38 1.38 0 001.38 1.38h1.63a1.38 1.38 0 001.38-1.37v-.8h5.62v.8a1.38 1.38 0 001.38 1.38h1.63a1.38 1.38 0 001.38-1.37v-.8h5.62v.8a1.38 1.38 0 001.38 1.38h1.63a1.38 1.38 0 001.38-1.37v-.8h5.62v.8a1.38 1.38 0 001.38 1.38h1.63a1.38 1.38 0 001.38-1.37v-.8h5.62v.8a1.38 1.38 0 001.38 1.38h1.63a1.38 1.38 0 001.38-1.37v-.8h5.62v.8a1.38 1.38 0 001.38 1.38h1.63a1.38 1.38 0 001.38-1.37v-.81l.06-55.45V502h4v49.21l.06 54.67v1.6a1.38 1.38 0 001.38 1.38h1.63a1.38 1.38 0 001.38-1.37v-.8h5.62v.8a1.38 1.38 0 001.38 1.38h1.63a1.38 1.38 0 001.38-1.37v-.8h5.62v.8a1.38 1.38 0 001.38 1.38h1.63a1.38 1.38 0 001.38-1.37v-.8h5.62v.8a1.38 1.38 0 001.38 1.38h1.63a1.38 1.38 0 001.38-1.37v-.8h5.62v.8a1.38 1.38 0 001.38 1.38h1.63a1.38 1.38 0 001.38-1.37v-.8h5.62v.8a1.38 1.38 0 001.38 1.38h1.63a1.38 1.38 0 001.38-1.37v-.8h1.89c1.33 0 2.57-.05 3.72-.15v.95a1.38 1.38 0 001.38 1.38h1.63a1.38 1.38 0 001.38-1.37v-1.6c11.71-2.68 11.72-11.64 11.72-19.7 0-11.3-8.89-17.11-19.83-17.11h-5.93v-68a12.23 12.23 0 007.74-11.36V468a19.8 19.8 0 0015.21 7.42c11.46 0 20.78-10.42 20.78-23.22v-66.39a19.92 19.92 0 001.69-1.64 20.15 20.15 0 004.95-15.74zm-130.49-46.18c3.46 1.84 15.64 2.07 27.61 1.79 12 .28 24.15 0 27.61-1.79V334c0 4.8-22.42 12-27.23 12l-.38-.08-.38.08c-4.8 0-27.23-7.19-27.23-12zm-33 75.43v34.59h-29.54V389.9a21.08 21.08 0 007.47 1.36h22.09zm-14.78 72.24c-8.15 0-14.78-7.73-14.78-17.22v-14h29.57v14c.01 9.49-6.62 17.22-14.77 17.22zm67.68 131.18h-50.64c-14.22 0-14.22-5-14.22-14.89 0-8.21 6.38-11.5 14.22-11.5h11.67l38.93-2.71.06 15.37zm-38.74-76.4h38.67v41.7l-38.67 2.68h-.26V524.7zm-.26-5.74V502h38.94v17h-38.91zm104.77 55.75h.26c7.84 0 14.22 3.29 14.22 11.5 0 9.91 0 14.89-14.22 14.89h-50.64v-13.7l.06-15.37 38.93 2.69h11.42zm-11.67-50h.26v44.4h-.26l-38.67-2.68V524.7zM407.75 519v-17h38.95v17h-38.95zm46.84-73.77h-.07v44.58a6.6 6.6 0 01-6.58 6.58H403s-.11-3.73-.16-8.75v-2.79c0-3.51-1.41-5.09-2.82-5-1.41-.09-2.82 1.49-2.82 5v2.79c0 5-.16 8.75-.16 8.75H352.1a6.6 6.6 0 01-6.58-6.58v-44.63h-.07v-.33l30.24.33h48.69l30.24-.33zm35.57-12.91h-29.57v-41h22.09a21.08 21.08 0 007.47-1.36zm-14.78 37.64c-8.15 0-14.78-7.73-14.78-17.22v-14h29.57v14c-.02 9.45-6.65 17.18-14.8 17.18zm20.78-94.44a13.53 13.53 0 01-6 7.29 14.69 14.69 0 01-7.47 2l-22.09.09v-20.18c0-5.56-6.07-5.94-6.07 0s.07 14.37.07 14.37v59.59H345.41v-59.61s.07-8.46.07-14.37-6.07-5.54-6.07 0v20.11l-22.09-.09a14.69 14.69 0 01-7.47-2 13.53 13.53 0 01-6-7.29 14.89 14.89 0 01-.75-6.46l2.47-30.36c.89-9 9.23-17.08 18.2-17.75l11.12-.83 32.22-2.29c.68.54.48 17.49.48 17.49 0 8.43 23.34 15.29 31.77 15.29h1.3c8.43 0 31.77-6.86 31.77-15.29 0 0-.2-16.95.48-17.49l32.22 2.29 11.12.83c9 .67 17.3 8.8 18.2 17.75L496.9 369a14.89 14.89 0 01-.75 6.48z"/><g id="head"><path id="skin-2" data-name="skin" class="cls-2" d="M446.38 253.1c0-.91.08-1.81.08-2.73 0-30.51-21.06-55.25-47-55.25s-47 24.74-47 55.25c0 1.11 0 2.21.1 3.31-4 2.46-6.9 8.44-6.9 15.43 0 9.19 4.93 16.64 11 16.64a7.47 7.47 0 002.1-.31c.82 24.5 18.74 44.08 40.73 44.08s40.12-19.81 40.74-44.5a7.65 7.65 0 003.25.74c6.08 0 11-7.45 11-16.64-.05-7.65-3.48-14.06-8.1-16.02z"/><path d="M372.63 214.38s-13.25 42.75-18.75 38.38c0 0-2.12-32.62 10.63-38.87s8.12.49 8.12.49zm54.74 0s13.25 42.75 18.75 38.38c0 0 2.13-32.62-10.62-38.87s-8.13.49-8.13.49z" fill="#896f5b"/><g opacity=".25"><path class="cls-17" d="M400 301.34l.84-.21a6.71 6.71 0 00-.84.21z"/><path class="cls-18" d="M400 304.58c3 .29 10 1.21 11.34 3.58h3.72c-.5-1.9-1-3.27-1.41-3.39-1.21-.36-10.15-2.55-13.61-3.4H400c-3.47.85-12.41 3-13.61 3.4-.42.12-.91 1.49-1.41 3.39h3.72c1.3-2.37 8.3-3.29 11.3-3.58zm0 0z"/><path class="cls-17" d="M399.12 301.14l.84.21a6.71 6.71 0 00-.84-.21z"/><path class="cls-18" d="M441 257.88c-1.78-.87-6.78 38.18-10.53 43.88-2 3-2.06 6.76-7.1 9.93l-2.52 1.56c-1.36.83-5.74 3.4-6.77 4-3.07 1.72-6.07 3.29-8.62 4.43a2.33 2.33 0 01-3.27-2.14V319a2.33 2.33 0 00-2-2.3h-.41a2.33 2.33 0 00-2 2.3v.52a2.33 2.33 0 01-3.27 2.14c-2.55-1.14-5.55-2.71-8.62-4.43-1-.58-5.41-3.14-6.77-4l-2.52-1.56c-5-3.18-5.12-6.93-7.1-9.93-3.76-5.69-8.76-44.74-10.53-43.87-4.69 2.28-3.11 4.44 0 27.32a113.49 113.49 0 002.2 12.58c1.9 8.54 14.55 22.62 18.66 25.58 3.32 2.39 14.6 5.51 18.83 6.62v.15l.47.12a10.27 10.27 0 001.74 0l.47-.12v-.15c4.23-1.11 15.51-4.23 18.83-6.62 4.11-3 16.75-17 18.66-25.58A113.49 113.49 0 00441 285.2c3.13-22.89 4.71-25.04 0-27.32zM400 317c-.13-.08-.09-.15 0-.2s.14.11 0 .2z"/></g><path class="cls-8" d="M399.42 332.51c-22.68 0-41.28-19-43.53-43.79-7.52-.49-13.31-8.93-13.31-19.61 0-7 2.64-13.45 6.84-16.92v-1.82c0-32.12 22.45-58.25 50-58.25s50 26.13 50 58.25v1c4.85 3.17 8 10 8 17.76 0 11-6.15 19.64-14 19.64H443c-2.3 24.79-20.83 43.74-43.58 43.74zm-40.73-50.08a3 3 0 013 2.9c.77 23.09 17.35 41.18 37.73 41.18 20.58 0 37.15-18.26 37.74-41.58a3 3 0 014.27-2.64 4.68 4.68 0 002 .46c4.34 0 8-6.24 8-13.64 0-7-3.13-11.94-6.21-13.24a3 3 0 01-1.83-2.89v-.18c0-.8.07-1.61.07-2.42 0-28.81-19.75-52.25-44-52.25s-44 23.44-44 52.25c0 .92 0 1.89.09 3.16a3 3 0 01-1.44 2.71c-3.27 2-5.46 7.16-5.46 12.86 0 7.39 3.67 13.64 8 13.64a4.49 4.49 0 001.26-.19 3 3 0 01.78-.13z"/><path class="cls-8" d="M435.41 200.4a31.42 31.42 0 01-5.78-4.89c-2.73-2.93-7.49-5.6-12.54-7.84-13.81-6.12-29.95-4.89-42.19 3.95a30.44 30.44 0 00-4.69 4.08 31.5 31.5 0 01-5.81 4.84c-4.17 2.81-9.49 8.86-4.67 20.19 0 0 27.44-8.55 40.27-6.89 12.83-1.67 40.27 6.89 40.27 6.89 4.9-11.52-.66-17.58-4.86-20.33z"/></g></svg>