<svg id="player" xmlns="http://www.w3.org/2000/svg" viewBox="0 0 800 800"><defs><clipPath id="clip-path"><path class="cls-1" d="M300.06 350.06h199.97v20.19H300.06z"/></clipPath><clipPath id="clip-path-2"><path class="cls-1" d="M300.06 350.06h199.97v20.19H300.06z"/></clipPath><style>.cls-1{fill:none}.cls-2{fill:#a87742}.cls-3{fill:#39223f}.cls-4{fill:#892c89}.cls-5{fill:#e27026}.cls-6{fill:#fff}.cls-7{fill:#303a5d}.cls-8{fill:#8dc0e5}.cls-11{fill:#3e1952}</style></defs><g id="skin"><path id="arm-left" class="cls-2" d="M305.93 382h36.78v72.4a18.39 18.39 0 01-18.39 18.39 18.39 18.39 0 01-18.39-18.39V382z"/><path id="arm-right" class="cls-2" d="M457.19 382H494v72.4a18.39 18.39 0 01-18.39 18.39 18.39 18.39 0 01-18.39-18.39V382h-.03z"/><path id="leg-left" class="cls-2" d="M349.88 492.02h45.67v45.67h-45.67z"/><path id="leg-right" class="cls-2" d="M404.78 492.02h45.67v45.67h-45.67z"/></g><g id="boots"><path id="left" class="cls-3" d="M395.33 570.04H372.5l-22.83 1.97h-12.5l-7.5 2.53-5.25 8.5v9.83l1.91 4.17 3.84 4.05 6.33 1.95h58.83v-33z"/><path id="right" class="cls-3" d="M404.61 570.27h22.83l22.83 1.97h12.5l7.5 2.53 5.25 8.5v9.83l-1.91 4.17-3.84 4.05-6.33 1.95h-58.83v-33z"/><g id="details"><path class="cls-4" d="M334.71 573.41s24.79 23.07 43.83 19.17c17.92-3.67 16-23.06 16-23.06z"/><path class="cls-5" d="M343.88 571.92s37.88 19.77 50.31 13.17l1.35-16.67z"/><path class="cls-6" d="M391.21 577.5s-32.87 6-37.25 13 41.09-3.32 40.23-9.22-2.98-3.78-2.98-3.78z"/><path class="cls-4" d="M465.21 573.41s-24.79 23.07-43.83 19.17c-17.92-3.67-16-23.06-16-23.06z"/><path class="cls-5" d="M456 571.92s-37.88 19.77-50.31 13.17l-1.35-16.67z"/><path class="cls-6" d="M408.71 577.5s32.88 6 37.25 13-41.09-3.32-40.23-9.22 2.98-3.78 2.98-3.78z"/></g></g><g id="socks"><g id="socks-2" data-name="socks"><path id="left-2" data-name="left" class="cls-6" d="M349.88 522h45.67v48.04h-45.67z"/><path id="right-2" data-name="right" class="cls-6" d="M404.38 522h45.67v48.04h-45.67z"/></g><path class="cls-7" d="M350.77 529.27h44.46v12.65h-44.46zm53.61 0h44.46v12.65h-44.46z" id="details-2" data-name="details"/></g><g id="shorts"><path id="shorts-2" data-name="shorts" class="cls-6" d="M341.67 442.54h116.49v47a9.95 9.95 0 01-9.95 9.95h-96.6a9.95 9.95 0 01-9.95-9.95v-47h.01z"/><path class="cls-8" d="M346.58 443.33h2.16v53.83h-2.16zm4.33 0h2.16v53.83h-2.16zm96.01 0h2.16v53.83h-2.16zm4.33 0h2.16v53.83h-2.16z" id="details-3" data-name="details"/></g><g id="shirt"><path id="shirt-2" data-name="shirt" class="cls-6" d="M369.5 314.8l-48.29 2.99-11.36 6.25-6.83 10.1-3.31 40.73 5.17 7.67 7.66 4.67h29.5l.17 54h114.83v-53.5l29.34-.17 7.01-4 6.99-10.5-3.4-37.33-6.83-11.84-9.77-6.08-49.84-2.99-1 21.24-6.5 6.5-11.16 3.48-11.88 2.02-15.46-3.17-11-5.66-3.66-3.84-.38-20.57z"/><g id="details-4" data-name="details"><path class="cls-7" d="M342.71 380.5l-38.95-.87 3.62 4.87 9.38 2.38 25.42.33.53-6.71zm66.23-38.3h18.04v99.01h-18.04zm48.49 38.3l38.95-.87-3.63 4.87-9.37 2.38-25.42.33-.53-6.71zm-84.57-38.3h18.04v99.01h-18.04z"/><path class="cls-8" d="M386.88 346.25l-10.25-4.62-6.25-4.63-.85-21.36H363v22.25a7.91 7.91 0 004.43 7.12 149.2 149.2 0 0026 9.1 2.1 2.1 0 002.57-2.06v-4.37zm43.64-30.61l-.85 21.36-6.25 4.63-10.25 4.63-9.17 1.41V352a2.11 2.11 0 002.58 2.06 149.56 149.56 0 0026-9.09 7.91 7.91 0 004.43-7.12v-22.21z" id="neck"/><path class="cls-7" d="M354.82 441.21h-12.61L342 388.7l-5.26-3.89v-54.7a7.24 7.24 0 017.24-7.24h3.56a7.24 7.24 0 017.24 7.24zm90.59 0H458l.16-52.5 5.26-3.89v-54.7a7.24 7.24 0 00-7.24-7.24h-3.56a7.24 7.24 0 00-7.24 7.24z"/><g clip-path="url(#clip-path)"><g clip-path="url(#clip-path-2)" id="logo-pl-ready-16"><path class="cls-6" d="M499.52 359.52c.61 5.19-1.3 9.68-4.27 10s-5.87-3.57-6.48-8.76 1.3-9.68 4.27-10 5.87 3.57 6.48 8.76"/><path class="cls-11" d="M495.33 370.23c-3.18.37-6.29-3.84-6.95-9.4s1.4-10.37 4.58-10.75 6.29 3.84 6.95 9.39-1.4 10.38-4.58 10.75m-2.21-18.79c-2.75.32-4.53 4.5-4 9.3s3.26 8.45 6 8.13 4.53-4.49 4-9.3-3.26-8.45-6-8.13"/><path class="cls-11" d="M495.43 354.73v-.1h-.09l-.28.11h-.13l-.34-.93h-.06l-.33.57h-.13l-.39-.66a.07.07 0 00-.05 0l-.23.73h-.13l-.45-.48h-.06l-.08.69v.29h-1.04v.22l.17.7v.2h.15a4.2 4.2 0 011.4-.49 3.75 3.75 0 011.51.15h.14v-1.09zm.97 2.43a3.91 3.91 0 00-5.14.6 10.81 10.81 0 00.34 3.71l.66 2c.54 1.61 1.68 3.58 2.68 3.47s1.66-2.3 1.81-4l.18-2.1a10.78 10.78 0 00-.53-3.69m-3.11 6l-.15-1.32c-.24 0-.47-.29-.52-.7l-.09-.79c0-.42.1-.78.34-.8l.45-.05c.24 0 .47.29.52.7l.12 1a.66.66 0 00.23.46c.09.86.18 1.88.18 1.9l-.4.51c-.31 0-.61-.37-.67-.91m1.56 2.19h-.19c-.18 0-.41-.26-.56-.54a.4.4 0 010-.34 3.35 3.35 0 01.36-.56.18.18 0 01.28 0 3.44 3.44 0 01.48.46.41.41 0 01.06.34c-.08.3-.24.64-.42.66m1-4.6c0 .42-.1.78-.34.8l.16 1.32c.06.54-.13 1-.44 1l-.51-.41s-.15-1-.27-1.89a.67.67 0 00.12-.51l-.12-1c0-.42.1-.78.34-.8l.45-.05c.24 0 .47.29.52.7z"/><path class="cls-6" d="M300.57 359.52c-.61 5.19 1.3 9.68 4.27 10s5.87-3.57 6.48-8.76-1.3-9.68-4.27-10-5.87 3.57-6.48 8.76"/><path class="cls-11" d="M300.18 359.48c.65-5.55 3.77-9.77 6.95-9.39s5.23 5.19 4.58 10.75-3.77 9.77-6.94 9.39-5.23-5.19-4.58-10.75m.78.09c-.56 4.81 1.21 9 4 9.3s5.45-3.32 6-8.13-1.21-9-4-9.3-5.45 3.32-6 8.13"/><path class="cls-11" d="M304.65 354.73v-.1h.09l.28.11h.13l.34-.93h.06l.33.57h.13l.39-.66a.07.07 0 01.05 0l.23.73h.13l.45-.48h.06l.08.69v.29h.44v.28l-.17.7v.2h-.15a4.2 4.2 0 00-1.4-.49 3.75 3.75 0 00-1.51.15h-.14v-1.18m-1.31 6.24l.18 2.1c.15 1.69.8 3.88 1.81 4s2.15-1.85 2.68-3.47l.66-2a10.84 10.84 0 00.34-3.71 3.92 3.92 0 00-5.15-.6 10.81 10.81 0 00-.53 3.69m3 3.25l-.4-.51s.09-1 .18-1.9a.66.66 0 00.23-.46l.12-1c0-.42.28-.73.52-.7l.45.05c.24 0 .39.39.34.8l-.09.79c0 .42-.28.73-.52.7l-.16 1.32c-.06.54-.36.94-.67.91m-1.31.63a.41.41 0 01.06-.34 3.4 3.4 0 01.48-.46.18.18 0 01.28 0 3.41 3.41 0 01.36.56.41.41 0 010 .34c-.15.28-.38.56-.56.54h-.19c-.18 0-.34-.35-.42-.66m-.5-4.73c0-.42.28-.73.52-.7l.45.05c.24 0 .39.39.34.8l-.12 1a.66.66 0 00.12.51c-.12.86-.26 1.87-.27 1.89l-.51.41c-.31 0-.51-.5-.44-1l.16-1.32c-.24 0-.39-.39-.34-.8z"/></g></g><g id="adidas"><rect id="bottom" class="cls-8" x="362.44" y="372.32" width="14.17" height="2" rx="1" ry="1"/><path class="cls-8" d="M369.59 364.21a1.24 1.24 0 00-.45 1.69L372 371a1.24 1.24 0 001.08.62h2.18l-4-6.92a1.24 1.24 0 00-1.67-.49zm-2.49 2.5a1.25 1.25 0 00-.46 1.69l1.43 2.54a1.25 1.25 0 001.09.64h2.17l-2.51-4.4a1.25 1.25 0 00-1.72-.47zm-2.73 2.19a1.25 1.25 0 00-.46 1.68l.19.35a1.25 1.25 0 001.09.64h2.16l-1.27-2.22a1.25 1.25 0 00-1.71-.45z"/></g><g id="crest-west-brom-16"><path class="cls-6" d="M441.33 362a2.06 2.06 0 00-2.06-2.06h-13.51a2.06 2.06 0 00-2.06 2.06v3.08h17.63z"/><path class="cls-6" d="M426.3 365.06v11.86a9.84 9.84 0 002.41 1.92v-13.78zm5.01 0V380l.7.29a1.32 1.32 0 001 0l.7-.29v-14.94zm5.01 0v13.78a9.84 9.84 0 002.41-1.92v-11.86z"/><path class="cls-7" d="M423.7 365.06v5.19a9.86 9.86 0 002.6 6.67v-11.86zm5.01 0v13.78a9.88 9.88 0 001.08.53l1.51.63v-14.94zm5.01 0V380l1.51-.63a9.88 9.88 0 001.08-.53v-13.78zm5.01 0v11.86a9.86 9.86 0 002.6-6.67v-5.19z"/><path class="cls-6" d="M439.27 359.92a2.06 2.06 0 012.06 2.06v8.27a9.86 9.86 0 01-6.09 9.11l-1.51.63-.7.29a1.32 1.32 0 01-1 0l-.7-.29-1.51-.63a9.86 9.86 0 01-6.09-9.11V362a2.06 2.06 0 012.06-2.06h13.51m0-.91h-13.54a3 3 0 00-3 3v8.27a10.78 10.78 0 006.66 10l1.51.63.7.29a2.23 2.23 0 001.7 0l.7-.29 1.51-.63a10.78 10.78 0 006.66-10V362a3 3 0 00-3-3z"/><path d="M429.27 367c-.43-2-2.42-2-3.47-1.81l-.07.22a5.09 5.09 0 01-1.14 1.33l-.61.7a.1.1 0 00.06.17l.85-.05a1.52 1.52 0 011.39.71c1.13 1.82 1.81 3.55 3 4.42a7.21 7.21 0 003.78 1.48h.86a16.27 16.27 0 01-4.65-7.17z" fill="#efdbb0"/><path d="M440.43 374.21c-2.84-2.25-4.84-5.73-5.75-6.39a9.28 9.28 0 00-5-1.39 3 3 0 00-2.33-2.51 1.58 1.58 0 00-1.59 1.23c1-.15 3-.17 3.47 1.81a16.27 16.27 0 004.67 7.21 12.82 12.82 0 002.61-.2.92.92 0 01.73.12 9.79 9.79 0 001 .56c2.28 1.11 3.08.27 2.19-.44z" fill="#583010"/></g><g id="sponsor-west-brom-japanese"><rect class="cls-7" x="367.07" y="391.18" width="28.59" height="21.96" rx="10.98" ry="10.98"/><path class="cls-6" d="M384.68 391.18a11 11 0 010 22h-6.62a11 11 0 010-22h6.62m0-1.43h-6.62a12.41 12.41 0 100 24.82h6.62a12.41 12.41 0 000-24.82z"/><rect class="cls-7" x="390.11" y="391.18" width="44.43" height="21.96" rx="10.98" ry="10.98"/><path class="cls-6" d="M423.56 391.18a11 11 0 010 22h-22.47a11 11 0 010-22h22.46m0-1.78h-22.46a12.76 12.76 0 000 25.52h22.46a12.76 12.76 0 000-25.52z"/></g></g></g><path id="neck-2" data-name="neck" fill="#7f5832" d="M427.63 340.26l-27.59 8.62-28.6-9.62-1.92-23.62h61.04l-2.93 24.62z"/><path d="M502.88 368.43l-2.47-30.36c-1.19-11.87-11.83-22.25-23.72-23.14l-37.14-2.71c-4.07-.45-20.52-.09-39.55.53-19-.62-35.48-1-39.55-.53l-37.14 2.71c-11.89.89-22.53 11.27-23.72 23.14l-2.47 30.36a20.15 20.15 0 005 15.74 19.92 19.92 0 001.69 1.64v66.36c0 12.81 9.32 23.22 20.78 23.22a19.8 19.8 0 0015.25-7.39v21.79a12.23 12.23 0 007.74 11.36v68h-5.93c-10.93 0-19.83 5.8-19.83 17.11 0 8.06 0 17 11.72 19.7v1.6a1.38 1.38 0 001.38 1.38h1.63a1.38 1.38 0 001.38-1.37v-.95c1.16.09 2.39.15 3.73.15h1.89v.8a1.38 1.38 0 001.38 1.38h1.63a1.38 1.38 0 001.38-1.37v-.8h5.62v.8a1.38 1.38 0 001.38 1.38h1.63a1.38 1.38 0 001.38-1.37v-.8h5.62v.8a1.38 1.38 0 001.38 1.38h1.63a1.38 1.38 0 001.38-1.37v-.8h5.62v.8a1.38 1.38 0 001.38 1.38h1.63a1.38 1.38 0 001.38-1.37v-.8h5.62v.8a1.38 1.38 0 001.38 1.38h1.63a1.38 1.38 0 001.38-1.37v-.8h5.62v.8a1.38 1.38 0 001.38 1.38h1.63a1.38 1.38 0 001.38-1.37v-.81l.06-55.45V502h4v49.21l.06 54.67v1.6a1.38 1.38 0 001.38 1.38h1.63a1.38 1.38 0 001.38-1.37v-.8h5.62v.8a1.38 1.38 0 001.38 1.38h1.63a1.38 1.38 0 001.38-1.37v-.8h5.62v.8a1.38 1.38 0 001.38 1.38h1.63a1.38 1.38 0 001.38-1.37v-.8h5.62v.8a1.38 1.38 0 001.38 1.38h1.63a1.38 1.38 0 001.38-1.37v-.8h5.62v.8a1.38 1.38 0 001.38 1.38h1.63a1.38 1.38 0 001.38-1.37v-.8h5.62v.8a1.38 1.38 0 001.38 1.38h1.63a1.38 1.38 0 001.38-1.37v-.8h1.89c1.33 0 2.57-.05 3.72-.15v.95a1.38 1.38 0 001.38 1.38h1.63a1.38 1.38 0 001.38-1.37v-1.6c11.71-2.68 11.72-11.64 11.72-19.7 0-11.3-8.89-17.11-19.83-17.11h-5.93v-68a12.23 12.23 0 007.74-11.36V468a19.8 19.8 0 0015.21 7.42c11.46 0 20.78-10.42 20.78-23.22v-66.39a19.92 19.92 0 001.69-1.64 20.15 20.15 0 004.95-15.74zm-130.49-46.18c3.46 1.84 15.64 2.07 27.61 1.79 12 .28 24.15 0 27.61-1.79V334c0 4.8-22.42 12-27.23 12l-.38-.08-.38.08c-4.8 0-27.23-7.19-27.23-12zm-33 75.43v55c0 9.5-6.63 17.22-14.78 17.22s-14.78-7.73-14.78-17.22V389.9a21.08 21.08 0 007.47 1.36h22.09zm52.9 203.42h-50.64c-14.22 0-14.22-5-14.22-14.89 0-8.21 6.38-11.5 14.22-11.5h11.67l38.93-2.71.06 15.37zm-38.74-76.4h38.67v41.7l-38.67 2.68h-.26V524.7zm-.26-5.74V502h38.94v17h-38.91zm104.77 55.75h.26c7.84 0 14.22 3.29 14.22 11.5 0 9.91 0 14.89-14.22 14.89h-50.64v-13.7l.06-15.37 38.93 2.69h11.42zm-11.67-50h.26v44.4h-.26l-38.67-2.68V524.7zM407.75 519v-17h38.95v17h-38.95zm46.84-73.77h-.07v44.58a6.6 6.6 0 01-6.58 6.58H403s-.11-3.73-.16-8.75v-2.79c0-3.51-1.41-5.09-2.82-5-1.41-.09-2.82 1.49-2.82 5v2.79c0 5-.16 8.75-.16 8.75H352.1a6.6 6.6 0 01-6.58-6.58v-44.63h-.07v-.33l30.24.33h48.69l30.24-.33zm35.57 7.51c0 9.5-6.63 17.22-14.78 17.22s-14.78-7.73-14.78-17.22v-61.48h22.09a21.08 21.08 0 007.47-1.36zm6-77.21a13.53 13.53 0 01-6 7.29 14.69 14.69 0 01-7.47 2l-22.09.09v-20.19c0-5.56-6.07-5.94-6.07 0s.07 14.37.07 14.37v59.59H345.41v-59.61s.07-8.46.07-14.37-6.07-5.54-6.07 0v20.11l-22.09-.09a14.69 14.69 0 01-7.47-2 13.53 13.53 0 01-6-7.29 14.89 14.89 0 01-.75-6.46l2.47-30.36c.89-9 9.23-17.08 18.2-17.75l11.12-.83 32.22-2.29c.68.54.48 17.49.48 17.49 0 8.43 23.34 15.29 31.77 15.29h1.3c8.43 0 31.77-6.86 31.77-15.29 0 0-.2-16.95.48-17.49l32.22 2.29 11.12.83c9 .67 17.3 8.8 18.2 17.75L496.9 369a14.89 14.89 0 01-.75 6.48z" id="border"/><g id="head"><path id="skin-2" data-name="skin" class="cls-2" d="M446.38 253.1c0-.91.08-1.81.08-2.73 0-30.51-21.06-55.25-47-55.25s-47 24.74-47 55.25c0 1.11 0 2.21.1 3.31-4 2.46-6.9 8.44-6.9 15.43 0 9.19 4.93 16.64 11 16.64a7.47 7.47 0 002.1-.31c.82 24.5 18.74 44.08 40.73 44.08s40.12-19.81 40.74-44.5a7.65 7.65 0 003.25.74c6.08 0 11-7.45 11-16.64-.05-7.65-3.48-14.06-8.1-16.02z"/><path d="M430.25 206.88c-9.88-12.75-30.25-10.25-30.25-10.25s-20.37-2.5-30.25 10.25-17.37 26.63-15.37 42.63c0 0 13.13-18.25 15.88-30.87 1.56-7.15 21.75-7.12 29.75-7.12s28.19 0 29.75 7.13c2.75 12.63 15.88 30.88 15.88 30.88 1.98-16.03-5.52-29.9-15.39-42.65z" fill="#704e2d"/><path d="M412.65 318.28c-1.33 2.7-6.61 3.06-9.17 3.73-.61-1.12-1.48-2.61-2.2-3.82a1.31 1.31 0 00-2.31.11 40.83 40.83 0 01-2 3.78c-3-.27-8.37-.85-9.68-3.77a1.73 1.73 0 00-1.57-1.06 1.7 1.7 0 00-1.69 1.87 9.87 9.87 0 006.83 8.41 60.76 60.76 0 009.11 2.07 60.76 60.76 0 009.11-2.07 9.87 9.87 0 006.83-8.41 1.73 1.73 0 00-1.72-1.9 1.78 1.78 0 00-1.54 1.06zm-18.8-13.43h12.3c4.84 0 6.54-.17 7 2a1.7 1.7 0 001.65 1.41 1.67 1.67 0 001.66-1.51l.11-1.2c.12-2.06-2.07-3.79-4.85-3.84l-11.72-.14-11.72.18c-2.78 0-5 1.77-4.85 3.84l.11 1.2a1.67 1.67 0 001.66 1.51 1.7 1.7 0 001.65-1.41c.46-2.21 2.15-2.04 7-2.04z" fill="#704e2d" opacity=".5"/><path d="M399.42 332.51c-22.68 0-41.28-19-43.53-43.79-7.52-.49-13.31-8.93-13.31-19.61 0-7 2.64-13.45 6.84-16.92v-1.82c0-32.12 22.45-58.25 50-58.25s50 26.13 50 58.25v1c4.85 3.17 8 10 8 17.76 0 11-6.15 19.64-14 19.64H443c-2.3 24.79-20.83 43.74-43.58 43.74zm-40.73-50.08a3 3 0 013 2.9c.77 23.09 17.35 41.18 37.73 41.18 20.58 0 37.15-18.26 37.74-41.58a3 3 0 014.27-2.64 4.68 4.68 0 002 .46c4.34 0 8-6.24 8-13.64 0-7-3.13-11.94-6.21-13.24a3 3 0 01-1.83-2.89v-.18c0-.8.07-1.61.07-2.42 0-28.81-19.75-52.25-44-52.25s-44 23.44-44 52.25c0 .92 0 1.89.09 3.16a3 3 0 01-1.44 2.71c-3.27 2-5.46 7.16-5.46 12.86 0 7.39 3.67 13.64 8 13.64a4.49 4.49 0 001.26-.19 3 3 0 01.78-.13z" fill="#231f20"/></g></svg>