<svg id="player" xmlns="http://www.w3.org/2000/svg" viewBox="0 0 800 800"><defs><clipPath id="clip-path"><path class="cls-1" d="M300.01 352.62h199.97v20.19H300.01z"/></clipPath><clipPath id="clip-path-2"><path class="cls-1" d="M300.01 352.62h199.97v20.19H300.01z"/></clipPath><style>.cls-1{fill:none}.cls-2{fill:#4d3122}.cls-3{fill:#fff}.cls-4{fill:#300f2e}.cls-5{fill:#461247}.cls-6{fill:#682366}.cls-7{fill:#9f4299}.cls-8{fill:#f37434}.cls-9{fill:#fee200}.cls-10{fill:#1853a5}.cls-13{fill:#3e1952}.cls-16{fill:#231f20}</style></defs><g id="skin"><path id="arm-left" class="cls-2" d="M305.93 382h36.78v72.4a18.39 18.39 0 01-18.39 18.39 18.39 18.39 0 01-18.39-18.39V382z"/><path id="arm-right" class="cls-2" d="M457.19 382H494v72.4a18.39 18.39 0 01-18.39 18.39 18.39 18.39 0 01-18.39-18.39V382h-.03z"/><path id="leg-left" class="cls-2" d="M349.88 492.02h45.67v45.67h-45.67z"/><path id="leg-right" class="cls-2" d="M404.78 492.02h45.67v45.67h-45.67z"/></g><g id="boots"><path id="left" class="cls-3" d="M395.54 570.04h-22.83l-22.83 1.97h-12.5l-7.5 2.53-5.25 8.5v9.83l1.91 4.17 3.84 4.05 6.33 1.95h58.83v-33z"/><path id="right" class="cls-3" d="M404.67 570.04h22.83l22.83 1.97h12.5l7.5 2.53 5.25 8.5v9.83l-1.91 4.17-3.84 4.05-6.33 1.95h-58.83v-33z"/><g id="details"><path class="cls-4" d="M394.6 576.83s-36.92 19-35.25 26.58l36.46-.38s.85-27.28-1.21-26.2z"/><path class="cls-5" d="M393.51 570.5s2.67 8 0 10.33-31.33 24-41 22.08-14.41-27.83 2.84-29.91 35.5-7.5 38.16-2.5z"/><path class="cls-6" d="M340.6 572.75s-18 17.75-13 26.25 25.83 4 25.83 4 11.59-2.44 9.67-10.44.75-24.31-22.5-19.81z"/><path class="cls-7" d="M342.26 571s-9.83 26.67-16.75 21.08c0 0-2.58-10.17 2.42-13.83s10.18-8.25 14.33-7.25z"/><path class="cls-8" d="M384.3 574.55s-34.29 24.3-27.15 30.33c0 0 2.92.37 7.08-2.35s21.94-24.47 20.07-27.98z"/><path class="cls-4" d="M405.32 576.83s36.92 19 35.25 26.58l-36.45-.41s-.85-27.25 1.2-26.17z"/><path class="cls-5" d="M406.41 570.5s-2.67 8 0 10.33 31.33 24 41 22.08 14.42-27.83-2.83-29.92-35.51-7.49-38.17-2.49z"/><path class="cls-6" d="M459.32 572.75s18 17.75 13 26.25-25.83 4-25.83 4-11.59-2.44-9.67-10.44-.75-24.31 22.5-19.81z"/><path class="cls-7" d="M457.66 571s9.83 26.67 16.75 21.08c0 0 2.58-10.17-2.42-13.83S461.82 570 457.66 571z"/><path class="cls-8" d="M415.63 574.55s34.29 24.3 27.15 30.33c0 0-2.92.37-7.08-2.35s-21.95-24.47-20.07-27.98z"/></g></g><g id="socks"><path id="left-2" data-name="left" class="cls-3" d="M349.88 522h45.67v48.04h-45.67z"/><path id="right-2" data-name="right" class="cls-3" d="M404.38 522h45.67v48.04h-45.67z"/><g id="details-2" data-name="details"><path class="cls-9" d="M349.44 533.75h46.54v3.8h-46.54zm0 15.99h46.54v3.8h-46.54z"/><path class="cls-10" d="M349.44 537.55h46.54v12.2h-46.54z"/><path class="cls-9" d="M403.94 533.75h46.54v3.8h-46.54zm0 15.99h46.54v3.8h-46.54z"/><path class="cls-10" d="M403.94 537.55h46.54v12.2h-46.54z"/></g></g><g id="shorts"><path id="shorts-2" data-name="shorts" class="cls-3" d="M341.67 442.54h116.49v47a9.95 9.95 0 01-9.95 9.95h-96.6a9.95 9.95 0 01-9.95-9.95v-47h.01z"/><path class="cls-9" d="M372.17 497.63l-27.79-1.19-2.7-7.81 8.46.78a44.85 44.85 0 015.44.95c3.8.82 16.59 7.27 16.59 7.27zm54.53 0l27.79-1.19 2.7-7.81-8.46.78a44.85 44.85 0 00-5.44.95c-3.81.82-16.59 7.27-16.59 7.27z" id="details-3" data-name="details"/></g><g id="shirt"><path id="shirt-2" data-name="shirt" class="cls-10" d="M369.5 314.8l-48.29 2.99-11.36 6.25-6.83 10.1-1.93 98.78 11.16 7.16 29.96 1.13h147.21l10.96-12.79-3.4-92.71-6.83-11.84-9.77-6.08-49.84-2.99-1 21.24-6.5 6.5-11.16 3.48-11.88 2.02-15.46-3.17-11-5.66-3.66-3.84-.38-20.57z"/><g id="details-4" data-name="details"><path id="neck" class="cls-3" d="M430.52 314.8l-1.16 22.2-7.36 6-12.33 4-9.67 1-9.68-1-12.32-4-7.33-6-1.17-22.2-6.17 1.7v17.87a13.67 13.67 0 007.21 12c7.46 4 19.39 7.75 29.45 7.75 10.06 0 22-3.75 29.45-7.75a13.67 13.67 0 007.21-12V316.5z"/><g id="arm-l"><path class="cls-3" d="M342.71 433.25l-27.92-4.01.75 9.66 27.17 1.6v-7.25z"/><path class="cls-9" d="M302 427.4l3.63 10.91 9.91.59-.75-9.66L302 427.4z"/></g><g id="arm-l-2" data-name="arm-l"><path class="cls-3" d="M458.16 433.25l27.92-4.01-.74 9.66-27.18 1.6v-7.25z"/><path class="cls-9" d="M498.87 427.4l-3.62 10.91-9.91.59.74-9.66 12.79-1.84z"/></g><g id="crest-everton-16"><path class="cls-10" d="M443.19 364.27a1.49 1.49 0 00-.39-1.24l-1.62-1.73a1.08 1.08 0 00-1.28-.23l-.42.21a4.63 4.63 0 01-4.21 0l-1-.53-1 .53a4.63 4.63 0 01-4.21 0l-.42-.21a1.08 1.08 0 00-1.28.23l-1.62 1.7a1.49 1.49 0 00-.39 1.24l1 3.7a3.26 3.26 0 010 1l-.21 1.32a7.93 7.93 0 004.59 8.46l2.65 1.8a1.53 1.53 0 001.72 0l2.65-1.8a7.93 7.93 0 004.59-8.46l-.21-1.32a3.26 3.26 0 010-1z"/><path class="cls-3" d="M434.27 360.72l1 .53a4.63 4.63 0 004.21 0l.42-.21a1.08 1.08 0 011.28.23l1.62 1.73a1.49 1.49 0 01.39 1.24l-1 3.7a3.26 3.26 0 000 1l.21 1.32a7.93 7.93 0 01-4.59 8.46l-2.65 1.8a1.53 1.53 0 01-1.72 0l-2.65-1.8a7.93 7.93 0 01-4.59-8.46l.21-1.32a3.26 3.26 0 000-1l-1-3.7a1.49 1.49 0 01.39-1.24l1.62-1.73a1.08 1.08 0 011.28-.23l.42.21a4.63 4.63 0 004.21 0l1-.53m0-1.22a1.22 1.22 0 00-.56.14l-1 .53a3.42 3.42 0 01-3.1 0l-.42-.21a2.3 2.3 0 00-2.71.49l-1.62 1.73a2.69 2.69 0 00-.7 2.25 1.22 1.22 0 000 .15l1 3.62a2 2 0 010 .55l-.21 1.32a9.14 9.14 0 005.19 9.71l2.56 1.74a2.75 2.75 0 003.09 0l2.56-1.74a9.14 9.14 0 005.19-9.71l-.21-1.32a2 2 0 010-.55l1-3.62a1.22 1.22 0 000-.15 2.69 2.69 0 00-.7-2.25l-1.62-1.73a2.3 2.3 0 00-2.71-.49l-.42.21a3.42 3.42 0 01-3.1 0l-1-.53a1.22 1.22 0 00-.56-.14z"/><path class="cls-3" d="M436.57 368.62l-1.87-4.09a.82.82 0 00-1.5 0l-1.87 4.09a1 1 0 00.19 1.14V373a2 2 0 001 1.7l2.9 1.69a.66.66 0 001-.57v-6.07a1 1 0 00.15-1.13zm-2.44 2.8h-.36a.72.72 0 01-.72-.72v-.36a.72.72 0 01.72-.72h.36a.72.72 0 01.72.72v.36a.72.72 0 01-.72.72z"/></g><g id="brand-umbro"><path class="cls-3" d="M364.54 375.91a2 2 0 01-.88-.2l-7.28-3.6a1.24 1.24 0 010-2.32l7.28-3.6a2 2 0 011.76 0l7.28 3.6a1.24 1.24 0 010 2.32l-7.28 3.6a2 2 0 01-.88.2zm0-8.53l-7.25 3.6 7.28 3.55 7.22-3.58zm7.28 3.55l.45.59-.45-.59z"/><path class="cls-3" d="M368.16 371.22l-3.41 1.68a.47.47 0 01-.4 0l-3.41-1.68a.28.28 0 010-.53l3.41-1.68a.47.47 0 01.4 0l3.41 1.68a.28.28 0 010 .53z"/></g><g clip-path="url(#clip-path)"><g clip-path="url(#clip-path-2)" id="logo-pl-ready-16"><path class="cls-3" d="M499.48 362.09c.61 5.19-1.3 9.68-4.27 10s-5.87-3.57-6.48-8.76 1.3-9.68 4.27-10 5.87 3.57 6.48 8.76"/><path class="cls-13" d="M495.29 372.79c-3.18.37-6.29-3.84-6.95-9.4s1.4-10.37 4.58-10.75 6.29 3.84 6.95 9.39-1.4 10.38-4.58 10.75M493.08 354c-2.75.32-4.53 4.5-4 9.3s3.26 8.45 6 8.13 4.53-4.49 4-9.3-3.26-8.45-6-8.13"/><path class="cls-13" d="M495.39 357.29v-.1h-.09l-.28.11h-.13l-.34-.93h-.06l-.33.57h-.13l-.39-.66a.07.07 0 00-.05 0l-.23.73h-.13l-.45-.48h-.06l-.08.69v.29h-1v.22l.17.7v.2h.15a4.2 4.2 0 011.4-.49 3.75 3.75 0 011.51.15h.14v-1.09zm.97 2.43a3.91 3.91 0 00-5.14.6 10.81 10.81 0 00.34 3.71l.66 2c.54 1.61 1.68 3.58 2.68 3.47s1.66-2.3 1.81-4l.18-2.1a10.78 10.78 0 00-.53-3.69m-3.11 6l-.15-1.32c-.24 0-.47-.29-.52-.7l-.09-.79c0-.42.1-.78.34-.8l.45-.05c.24 0 .47.29.52.7l.12 1a.66.66 0 00.23.46c.09.86.18 1.88.18 1.9l-.4.51c-.31 0-.61-.37-.67-.91m1.56 2.19h-.19c-.18 0-.41-.26-.56-.54a.4.4 0 010-.34 3.35 3.35 0 01.36-.56.18.18 0 01.28 0 3.44 3.44 0 01.48.46.41.41 0 01.06.34c-.08.3-.24.64-.42.66m1-4.6c0 .42-.1.78-.34.8l.16 1.32c.06.54-.13 1-.44 1l-.51-.41s-.15-1-.27-1.89a.67.67 0 00.12-.51l-.12-1c0-.42.1-.78.34-.8l.45-.05c.24 0 .47.29.52.7z"/><path class="cls-3" d="M300.52 362.09c-.61 5.19 1.3 9.68 4.27 10s5.87-3.57 6.48-8.76-1.3-9.68-4.27-10-5.87 3.57-6.48 8.76"/><path class="cls-13" d="M300.13 362c.65-5.55 3.77-9.77 6.95-9.39s5.23 5.19 4.58 10.75-3.77 9.77-6.94 9.39-5.23-5.19-4.58-10.75m.78.09c-.56 4.81 1.21 9 4 9.3s5.45-3.32 6-8.13-1.21-9-4-9.3-5.45 3.32-6 8.13"/><path class="cls-13" d="M304.61 357.29v-.1h.09l.28.11h.13l.34-.93h.06l.33.57h.13l.39-.66a.07.07 0 01.05 0l.23.73h.13l.45-.48h.06l.08.69v.29h.99v.28l-.17.7v.2h-.15a4.2 4.2 0 00-1.4-.49 3.75 3.75 0 00-1.51.15h-.14v-1.18m-1.87 6.24l.18 2.1c.15 1.69.8 3.88 1.81 4s2.15-1.85 2.68-3.47l.66-2a10.84 10.84 0 00.34-3.71 3.92 3.92 0 00-5.15-.6 10.81 10.81 0 00-.53 3.69m3 3.25l-.4-.51s.09-1 .18-1.9a.66.66 0 00.23-.46l.12-1c0-.41.28-.73.52-.7l.45.05c.24 0 .39.39.34.8l-.09.79c0 .42-.28.73-.52.7l-.16 1.32c-.06.54-.36.94-.67.91m-1.31.63a.41.41 0 01.06-.34 3.4 3.4 0 01.48-.46.18.18 0 01.28 0 3.41 3.41 0 01.36.56.41.41 0 010 .34c-.15.28-.38.56-.56.54h-.19c-.18 0-.34-.35-.42-.66m-.5-4.73c0-.42.28-.73.52-.7l.45.05c.24 0 .39.39.34.8l-.12 1a.66.66 0 00.12.51c-.12.86-.26 1.87-.27 1.89l-.51.41c-.31 0-.51-.5-.44-1l.16-1.32c-.24 0-.39-.39-.34-.8z"/></g></g><g id="sponsor-chang"><path class="cls-3" d="M397.23 380.88h5.58a12.75 12.75 0 0112.75 12.75v10.15a2.64 2.64 0 01-2.64 2.64h-25.8a2.64 2.64 0 01-2.64-2.64v-10.15a12.75 12.75 0 0112.75-12.75z"/><rect class="cls-3" x="379.66" y="408.76" width="40.72" height="8.61" rx="4.31" ry="4.31"/></g></g></g><path id="neck-2" data-name="neck" fill="#352117" d="M427.61 339.42l-27.59 8.62-28.6-9.62-1.92-23.62h61.04l-2.93 24.62z"/><path d="M502.88 421.91l-2.47-83.84c-1.19-11.87-11.83-22.25-23.72-23.14l-37.14-2.71c-4.07-.45-20.52-.09-39.55.53-19-.62-35.48-1-39.55-.53l-37.14 2.71c-11.89.89-22.53 11.27-23.72 23.14l-2.47 83.84a20.15 20.15 0 005 15.74 19.92 19.92 0 001.69 1.64v12.87c0 12.81 9.32 23.22 20.78 23.22a19.8 19.8 0 0015.25-7.38v21.79a12.23 12.23 0 007.74 11.36v68h-5.93c-10.93 0-19.83 5.8-19.83 17.11 0 8.06 0 17 11.72 19.7v1.6a1.38 1.38 0 001.38 1.38h1.63a1.38 1.38 0 001.38-1.37v-.95c1.16.09 2.39.15 3.73.15h1.89v.8a1.38 1.38 0 001.38 1.38h1.63a1.38 1.38 0 001.38-1.37v-.8h5.62v.8a1.38 1.38 0 001.38 1.38h1.63a1.38 1.38 0 001.38-1.37v-.8h5.62v.8a1.38 1.38 0 001.38 1.38h1.63a1.38 1.38 0 001.38-1.37v-.8h5.62v.8a1.38 1.38 0 001.38 1.38h1.63a1.38 1.38 0 001.38-1.37v-.8h5.62v.8a1.38 1.38 0 001.38 1.38h1.63a1.38 1.38 0 001.38-1.37v-.8h5.62v.8a1.38 1.38 0 001.38 1.38h1.63a1.38 1.38 0 001.38-1.37v-.81l.06-55.45V502h4v49.21l.06 54.67v1.6a1.38 1.38 0 001.38 1.38h1.63a1.38 1.38 0 001.38-1.37v-.8h5.62v.8a1.38 1.38 0 001.38 1.38h1.63a1.38 1.38 0 001.38-1.37v-.8h5.62v.8a1.38 1.38 0 001.38 1.38h1.63a1.38 1.38 0 001.38-1.37v-.8h5.62v.8a1.38 1.38 0 001.38 1.38h1.63a1.38 1.38 0 001.38-1.37v-.8h5.62v.8a1.38 1.38 0 001.38 1.38h1.63a1.38 1.38 0 001.38-1.37v-.8h5.62v.8a1.38 1.38 0 001.38 1.38h1.63a1.38 1.38 0 001.38-1.37v-.8h1.89c1.33 0 2.57-.05 3.72-.15v.95a1.38 1.38 0 001.38 1.38h1.63a1.38 1.38 0 001.38-1.37v-1.6c11.71-2.68 11.72-11.64 11.72-19.7 0-11.3-8.89-17.11-19.83-17.11h-5.93v-68a12.23 12.23 0 007.74-11.36V468a19.8 19.8 0 0015.21 7.42c11.46 0 20.78-10.42 20.78-23.22v-12.9a19.92 19.92 0 001.69-1.64 20.15 20.15 0 004.95-15.75zm-130.49-99.66c3.46 1.84 15.64 2.07 27.61 1.79 12 .28 24.15 0 27.61-1.79V334c0 4.8-22.42 12-27.23 12l-.38-.08-.38.08c-4.8 0-27.23-7.19-27.23-12zm-33 128.91v1.53c0 9.5-6.63 17.22-14.78 17.22s-14.78-7.73-14.78-17.22v-9.31a21.08 21.08 0 007.47 1.36h22.09zm52.9 149.93h-50.64c-14.22 0-14.22-5-14.22-14.89 0-8.21 6.38-11.5 14.22-11.5h11.67l38.93-2.7.06 15.37zm-38.74-76.4h38.67v41.71l-38.67 2.68h-.26V524.7zm-.26-5.74V502h38.94v17h-38.91zm104.77 55.75h.26c7.84 0 14.22 3.29 14.22 11.5 0 9.91 0 14.89-14.22 14.89h-50.64V587.4l.06-15.37 38.93 2.69h11.42zm-11.67-50h.26v44.4h-.26l-38.67-2.68V524.7zm-38.64-5.7v-17h38.95v17h-38.95zm46.84-73.77h-.07v44.58a6.6 6.6 0 01-6.58 6.58H403s-.11-3.73-.16-8.75v-2.79c0-3.51-1.41-5.09-2.82-5-1.41-.09-2.82 1.49-2.82 5v2.79c0 5-.16 8.75-.16 8.75H352.1a6.6 6.6 0 01-6.58-6.58v-44.63h-.07v-.33l30.24.33h48.69l30.24-.33zm35.57 7.51c0 9.5-6.63 17.22-14.78 17.22s-14.78-7.73-14.78-17.22v-7.94h22.09a21.08 21.08 0 007.47-1.36zm6-23.73a13.53 13.53 0 01-6 7.29 14.69 14.69 0 01-7.47 2l-22.09.09v-73.67c0-5.56-6.07-5.94-6.07 0s.07 14.37.07 14.37v59.59H345.41v-59.61s.07-8.46.07-14.37-6.07-5.54-6.07 0v73.59l-22.09-.09a14.69 14.69 0 01-7.47-2 13.53 13.53 0 01-6-7.29 14.89 14.89 0 01-.75-6.46l2.47-83.84c.89-9 9.23-17.08 18.2-17.75l11.12-.83 32.22-2.29c.68.54.48 17.49.48 17.49 0 8.43 23.34 15.29 31.77 15.29h1.3c8.43 0 31.77-6.86 31.77-15.29 0 0-.2-16.95.48-17.49l32.22 2.29 11.12.83c9 .67 17.3 8.8 18.2 17.75l2.47 83.84a14.89 14.89 0 01-.77 6.55z" id="border"/><g id="head"><path id="skin-2" data-name="skin" class="cls-2" d="M446.38 253.1c0-.91.08-1.81.08-2.73 0-30.51-21.06-55.25-47-55.25s-47 24.74-47 55.25c0 1.11 0 2.21.1 3.31-4 2.46-6.9 8.44-6.9 15.43 0 9.19 4.93 16.64 11 16.64a7.47 7.47 0 002.1-.31c.82 24.5 18.74 44.08 40.73 44.08s40.12-19.81 40.74-44.5a7.65 7.65 0 003.25.74c6.08 0 11-7.45 11-16.64-.05-7.65-3.48-14.06-8.1-16.02z"/><path d="M440.14 284.55a3.49 3.49 0 00-6.58-1.5c-4.33 8.31-11.55 20.51-13.62 25.26-.87 2-2.94 3.74-5.42 5.2a28.8 28.8 0 01-29 0c-2.48-1.46-4.54-3.2-5.42-5.2-2.07-4.75-9.29-17-13.62-25.26a3.49 3.49 0 00-6.58 1.5c-.19 4.89.06 10.67 1.77 14.57 3.5 8 10.5 24.25 22.63 27.5s15.7 1.66 15.7 1.66 3.63 1.59 15.75-1.66 19.13-19.5 22.63-27.5c1.7-3.9 1.95-9.67 1.76-14.57z" opacity=".7" fill="#281912"/><path class="cls-16" d="M399.42 332.51c-22.68 0-41.28-19-43.53-43.79-7.52-.49-13.31-8.93-13.31-19.61 0-7 2.64-13.45 6.84-16.92v-1.82c0-32.12 22.45-58.25 50-58.25s50 26.13 50 58.25v1c4.85 3.17 8 10 8 17.76 0 11-6.15 19.64-14 19.64H443c-2.3 24.79-20.83 43.74-43.58 43.74zm-40.73-50.08a3 3 0 013 2.9c.77 23.09 17.35 41.18 37.73 41.18 20.58 0 37.15-18.26 37.74-41.58a3 3 0 014.27-2.64 4.68 4.68 0 002 .46c4.34 0 8-6.24 8-13.64 0-7-3.13-11.94-6.21-13.24a3 3 0 01-1.83-2.89v-.18c0-.8.07-1.61.07-2.42 0-28.81-19.75-52.25-44-52.25s-44 23.44-44 52.25c0 .92 0 1.89.09 3.16a3 3 0 01-1.44 2.71c-3.27 2-5.46 7.16-5.46 12.86 0 7.39 3.67 13.64 8 13.64a4.49 4.49 0 001.26-.19 3 3 0 01.78-.13z"/><path class="cls-16" d="M447 225.94c-.17-7.24-7.31-15.25-7.31-15.25-1.56-4.84-11.12-10.59-11.12-10.59a16 16 0 00-7.69-4.69 11.08 11.08 0 00-6.47-2.69c-3.22-2.59-4.47-1.16-4.47-1.16-2.25-2.72-4.53-1.53-4.53-1.53a6.78 6.78 0 00-3.82.43 4.81 4.81 0 01-2.78-.05 9 9 0 00-4.14-.38s-2.28-1.19-4.53 1.53c0 0-1.25-1.44-4.47 1.16a11.08 11.08 0 00-6.47 2.69 16 16 0 00-7.69 4.69s-9.56 5.75-11.12 10.59c0 0-7.14 8-7.31 15.25 0 0-2 1.1-1.47 6.81.26 2.65 1.54 2.21 2.84 1 .11 2.59.63 4.91.72 7.55 0 0 4.5-6.87 6-11.5s3.38-11.62 7.63-12.37 26.88-2.62 31.25-2.62 27 1.88 31.25 2.63 6.13 7.75 7.63 12.38 6 11.5 6 11.5c.09-2.63.61-5 .72-7.55 1.31 1.25 2.59 1.69 2.84-1 .51-5.77-1.49-6.83-1.49-6.83z"/><path d="M385.17 304.17c1.17-.42 14.83-3 14.83-4.5 0 1.5 13.67 4.09 14.83 4.5s4 1.58 3.92-1.25-18.75-6.09-18.75-6.09-18.67 3.25-18.75 6.08 2.75 1.67 3.92 1.26z" opacity=".2" fill="#281912"/></g></svg>