<svg id="player" xmlns="http://www.w3.org/2000/svg" viewBox="0 0 800 800"><defs><clipPath id="clip-path"><path fill="none" d="M299.93 350.51H499.9v20.19H299.93z"/></clipPath><style>.cls-2{fill:#b2804f}.cls-3{fill:#1e212b}.cls-4{fill:#fff}.cls-5{fill:#1b58a8}.cls-6{fill:#f8bb16}.cls-7{clip-path:url(#clip-path)}.cls-8{fill:#3e1952}.cls-10{fill:#231f20}</style></defs><g id="skin"><path id="arm-left" class="cls-2" d="M305.93 382h36.78v72.4a18.39 18.39 0 01-18.39 18.39 18.39 18.39 0 01-18.39-18.39V382z"/><path id="arm-right" class="cls-2" d="M457.19 382H494v72.4a18.39 18.39 0 01-18.39 18.39 18.39 18.39 0 01-18.39-18.39V382h-.03z"/><path id="leg-left" class="cls-2" d="M349.88 492.02h45.67v45.67h-45.67z"/><path id="leg-right" class="cls-2" d="M404.78 492.02h45.67v45.67h-45.67z"/></g><g id="boots"><path id="left" class="cls-3" d="M395.33 570.04H372.5l-22.83 1.97h-12.5l-7.5 2.53-5.25 8.5v9.83l1.91 4.17 3.84 4.05 6.33 1.95h58.83v-33z"/><path id="right" class="cls-3" d="M404.61 570.27h22.83l22.83 1.97h12.5l7.5 2.53 5.25 8.5v9.83l-1.91 4.17-3.84 4.05-6.33 1.95h-58.83v-33z"/><path class="cls-4" d="M327 600.58s-2.67-11.08 27.7-10.17c15.32.46 39.2-.09 39.84 2.79 3.5 15.61-4.58 10.94-29.14 10.75s-38.4-3.37-38.4-3.37z" id="details"/><path class="cls-4" d="M472.7 600.58s2.67-11.08-27.7-10.17c-15.32.46-39.2-.09-39.84 2.79-3.5 15.61 4.58 10.94 29.14 10.75s38.4-3.37 38.4-3.37z" id="details-2" data-name="details"/></g><g id="socks"><g id="socks-2" data-name="socks"><path id="left-2" data-name="left" class="cls-5" d="M349.88 522h45.67v48.04h-45.67z"/><path id="right-2" data-name="right" class="cls-5" d="M404.38 522h45.67v48.04h-45.67z"/></g></g><g id="shorts"><path id="shorts-2" data-name="shorts" class="cls-5" d="M341.67 442.54h116.49v47a9.95 9.95 0 01-9.95 9.95h-96.6a9.95 9.95 0 01-9.95-9.95v-47h.01z"/><g id="details-3" data-name="details"><rect class="cls-6" x="347.52" y="442.5" width="1" height="42.27" rx=".5" ry=".5"/><rect class="cls-6" x="451.5" y="442.5" width="1" height="42.27" rx=".5" ry=".5"/></g></g><g id="shirt"><path id="shirt-2" data-name="shirt" class="cls-5" d="M369.5 314.8l-48.29 2.99-11.36 6.25-6.83 10.1-3.31 40.73 5.17 7.67 7.66 4.67h29.5l.17 54h114.83v-53.5l29.34-.17 7.01-4 6.99-10.5-3.4-37.33-6.83-11.84-9.77-6.08-49.84-2.99-1 21.24-6.5 6.5-11.16 3.48-11.88 2.02-15.46-3.17-11-5.66-3.66-3.84-.38-20.57z"/><g id="details-4" data-name="details"><g id="crest-leicster-16"><path class="cls-4" d="M434.8 360.12a9.22 9.22 0 11-9.22 9.22 9.23 9.23 0 019.22-9.22m0 16.56a7.34 7.34 0 10-7.34-7.34 7.35 7.35 0 007.34 7.34m0-17.18a9.84 9.84 0 109.84 9.84 9.85 9.85 0 00-9.84-9.84zm0 16.56a6.71 6.71 0 116.71-6.71 6.72 6.72 0 01-6.71 6.71z"/><circle class="cls-4" cx="434.8" cy="369.34" r="8.28"/><path class="cls-5" d="M434.8 378.56a9.22 9.22 0 119.22-9.22 9.23 9.23 0 01-9.22 9.22zm0-16.56a7.34 7.34 0 107.34 7.34 7.35 7.35 0 00-7.34-7.34z"/><path class="cls-6" d="M437.85 366.84v-1.44a.37.37 0 00-.59-.3l-1.08.77a2.39 2.39 0 01-2.76 0l-1.08-.77a.37.37 0 00-.59.3v1.44a2.46 2.46 0 01-.6 1.61 1.39 1.39 0 00-.15 1.62l.47.79a4.13 4.13 0 00.75.93l.65.6a3.26 3.26 0 01.54.64l.8 1.25a.75.75 0 001.26 0l.8-1.25a3.26 3.26 0 01.54-.64l.65-.6a4.13 4.13 0 00.75-.93l.47-.79a1.39 1.39 0 00-.15-1.62 2.46 2.46 0 01-.68-1.61z"/><path class="cls-5" d="M434.8 375a1.05 1.05 0 01-.89-.49l-.8-1.25a3 3 0 00-.48-.58l-.65-.6a4.44 4.44 0 01-.81-1l-.47-.79a1.7 1.7 0 01.18-2 2.14 2.14 0 00.53-1.41v-1.44a.68.68 0 011.08-.56l1.08.77a2.08 2.08 0 002.4 0l1.08-.77a.68.68 0 011.08.56v1.44a2.14 2.14 0 00.53 1.41 1.7 1.7 0 01.18 2l-.47.79a4.44 4.44 0 01-.81 1l-.65.6a3 3 0 00-.48.58l-.8 1.25a1.05 1.05 0 01-.83.49zm-2.68-9.64a.05.05 0 000 .05v1.44a2.77 2.77 0 01-.68 1.82 1.08 1.08 0 00-.11 1.26l.47.79a3.81 3.81 0 00.69.86l.65.6a3.57 3.57 0 01.59.7l.8 1.25a.43.43 0 00.73 0l.8-1.25a3.57 3.57 0 01.59-.7l.65-.6a3.81 3.81 0 00.69-.86l.47-.79a1.08 1.08 0 00-.11-1.26 2.77 2.77 0 01-.68-1.82v-1.44a.06.06 0 00-.09 0l-1.08.77a2.71 2.71 0 01-3.12 0l-1.08-.77z"/></g><g id="sponsor-king-power"><rect class="cls-4" x="369.06" y="386.85" width="61.72" height="15.58" rx="7.79" ry="7.79"/><rect class="cls-4" x="369.06" y="407.92" width="61.72" height="12.36" rx="6.18" ry="6.18"/></g><g class="cls-7" id="logo-pl-ready-16"><g class="cls-7"><path class="cls-4" d="M499.4 360c.61 5.19-1.3 9.68-4.27 10s-5.87-3.57-6.48-8.76 1.3-9.68 4.27-10 5.87 3.57 6.48 8.76"/><path class="cls-8" d="M495.2 370.68c-3.18.37-6.29-3.84-6.95-9.4s1.4-10.37 4.58-10.75 6.29 3.84 6.95 9.39-1.4 10.38-4.58 10.75m-2.2-18.78c-2.75.32-4.53 4.5-4 9.3s3.26 8.45 6 8.13 4.53-4.49 4-9.3-3.26-8.45-6-8.13"/><path class="cls-8" d="M495.31 355.18v-.1h-.09l-.28.11h-.13l-.34-.93h-.06l-.33.57h-.13l-.39-.66a.07.07 0 00-.05 0l-.23.73h-.13l-.45-.48h-.06l-.08.69v.29h-.45v.22l.17.7v.2h.15a4.2 4.2 0 011.4-.49 3.75 3.75 0 011.51.15h.14v-1.09zm.97 2.43a3.91 3.91 0 00-5.14.6 10.81 10.81 0 00.34 3.71l.66 2c.54 1.61 1.68 3.58 2.68 3.47s1.66-2.3 1.81-4l.18-2.1a10.78 10.78 0 00-.53-3.69m-3.11 6l-.15-1.32c-.24 0-.47-.29-.52-.7l-.09-.79c0-.42.1-.78.34-.8l.45-.05c.24 0 .47.29.52.7l.12 1a.66.66 0 00.23.46c.09.86.18 1.88.18 1.9l-.4.51c-.31 0-.61-.37-.67-.91m1.56 2.19h-.19c-.18 0-.41-.26-.56-.54a.4.4 0 010-.34 3.35 3.35 0 01.36-.56.18.18 0 01.28 0 3.44 3.44 0 01.48.46.41.41 0 01.06.34c-.08.3-.24.64-.42.66m1-4.6c0 .42-.1.78-.34.8l.16 1.32c.06.54-.13 1-.44 1l-.51-.41s-.15-1-.27-1.89a.67.67 0 00.12-.51l-.12-1c0-.42.1-.78.34-.8l.45-.05c.24 0 .47.29.52.7z"/><path class="cls-4" d="M300.44 360c-.61 5.19 1.3 9.68 4.27 10s5.87-3.57 6.48-8.76-1.3-9.68-4.27-10-5.87 3.57-6.48 8.76"/><path class="cls-8" d="M300.05 359.93c.65-5.55 3.77-9.77 6.95-9.39s5.23 5.19 4.58 10.75-3.77 9.77-6.94 9.39-5.23-5.19-4.58-10.75m.78.09c-.56 4.81 1.21 9 4 9.3s5.45-3.32 6-8.13-1.21-9-4-9.3-5.45 3.32-6 8.13"/><path class="cls-8" d="M304.53 355.18v-.1h.09l.28.11h.13l.34-.93h.06l.33.57h.13l.39-.66a.07.07 0 01.05 0l.23.73h.13l.45-.48h.06l.08.69v.29h.44v.28l-.17.7v.2h-.15a4.2 4.2 0 00-1.4-.49 3.75 3.75 0 00-1.51.15h-.14v-1.18M303 361.3l.18 2.1c.15 1.69.8 3.88 1.81 4s2.15-1.85 2.68-3.47l.66-2a10.84 10.84 0 00.34-3.71 3.92 3.92 0 00-5.15-.6 10.81 10.81 0 00-.53 3.69m3 3.25l-.4-.51s.09-1 .18-1.9a.66.66 0 00.23-.46l.12-1c0-.42.28-.73.52-.7l.45.05c.24 0 .39.39.34.8l-.09.79c0 .42-.28.73-.52.7l-.16 1.32c-.06.54-.36.94-.67.91m-1.31.63a.41.41 0 01.07-.34 3.4 3.4 0 01.48-.46.18.18 0 01.28 0 3.41 3.41 0 01.36.56.41.41 0 010 .34c-.15.28-.38.56-.56.54h-.19c-.18 0-.34-.35-.42-.66m-.5-4.73c0-.42.28-.73.52-.7l.45.05c.24 0 .39.39.34.8l-.12 1a.66.66 0 00.12.51c-.12.86-.26 1.87-.27 1.89l-.51.41c-.31 0-.51-.5-.44-1l.16-1.32c-.24 0-.39-.39-.34-.8z"/></g></g><rect class="cls-6" x="304.26" y="335.58" width="4.76" height="12.18" rx="2.38" ry="2.38" transform="rotate(-63.52 306.653 341.676)" id="brand-puma"/><rect class="cls-6" x="359.9" y="364.75" width="4.76" height="12.18" rx="2.38" ry="2.38" transform="rotate(-63.52 362.309 370.846)" id="brand-puma-2" data-name="brand-puma"/><rect class="cls-6" x="490.82" y="335.58" width="4.76" height="12.18" rx="2.38" ry="2.38" transform="rotate(-116.48 493.186 341.676)" id="brand-puma-3" data-name="brand-puma"/><path class="cls-6" d="M308.48 343.2a1 1 0 01-1-1c-.1-5.56 2.41-10.4 7.44-14.4a27.6 27.6 0 0116.35-5.87l37.73-1.31a1 1 0 01.07 2l-37.71 1.32a25.69 25.69 0 00-15.21 5.45c-4.52 3.59-6.77 7.89-6.68 12.79a1 1 0 01-1 1zm182.88 0a1 1 0 001-1c.1-5.56-2.41-10.4-7.44-14.4a27.6 27.6 0 00-16.35-5.87l-37.71-1.32a1 1 0 00-.07 2l37.71 1.32a25.69 25.69 0 0115.21 5.45c4.52 3.59 6.77 7.89 6.68 12.79a1 1 0 001 1z"/></g></g><path id="neck" fill="#9b6e46" d="M427.63 340.26l-27.59 8.62-28.6-9.62-1.92-23.62h61.04l-2.93 24.62z"/><path d="M502.88 368.43l-2.47-30.36c-1.19-11.87-11.83-22.25-23.72-23.14l-37.14-2.71c-4.07-.45-20.52-.09-39.55.53-19-.62-35.48-1-39.55-.53l-37.14 2.71c-11.89.89-22.53 11.27-23.72 23.14l-2.47 30.36a20.15 20.15 0 005 15.74 19.92 19.92 0 001.69 1.64v66.36c0 12.81 9.32 23.22 20.78 23.22a19.8 19.8 0 0015.25-7.39v21.79a12.23 12.23 0 007.74 11.36v68h-5.93c-10.93 0-19.83 5.8-19.83 17.11 0 8.06 0 17 11.72 19.7v1.6a1.38 1.38 0 001.38 1.38h1.63a1.38 1.38 0 001.38-1.37v-.95c1.16.09 2.39.15 3.73.15h1.89v.8a1.38 1.38 0 001.38 1.38h1.63a1.38 1.38 0 001.38-1.37v-.8h5.62v.8a1.38 1.38 0 001.38 1.38h1.63a1.38 1.38 0 001.38-1.37v-.8h5.62v.8a1.38 1.38 0 001.38 1.38h1.63a1.38 1.38 0 001.38-1.37v-.8h5.62v.8a1.38 1.38 0 001.38 1.38h1.63a1.38 1.38 0 001.38-1.37v-.8h5.62v.8a1.38 1.38 0 001.38 1.38h1.63a1.38 1.38 0 001.38-1.37v-.8h5.62v.8a1.38 1.38 0 001.38 1.38h1.63a1.38 1.38 0 001.38-1.37v-.81l.06-55.45V502h4v49.21l.06 54.67v1.6a1.38 1.38 0 001.38 1.38h1.63a1.38 1.38 0 001.38-1.37v-.8h5.62v.8a1.38 1.38 0 001.38 1.38h1.63a1.38 1.38 0 001.38-1.37v-.8h5.62v.8a1.38 1.38 0 001.38 1.38h1.63a1.38 1.38 0 001.38-1.37v-.8h5.62v.8a1.38 1.38 0 001.38 1.38h1.63a1.38 1.38 0 001.38-1.37v-.8h5.62v.8a1.38 1.38 0 001.38 1.38h1.63a1.38 1.38 0 001.38-1.37v-.8h5.62v.8a1.38 1.38 0 001.38 1.38h1.63a1.38 1.38 0 001.38-1.37v-.8h1.89c1.33 0 2.57-.05 3.72-.15v.95a1.38 1.38 0 001.38 1.38h1.63a1.38 1.38 0 001.38-1.37v-1.6c11.71-2.68 11.72-11.64 11.72-19.7 0-11.3-8.89-17.11-19.83-17.11h-5.93v-68a12.23 12.23 0 007.74-11.36V468a19.8 19.8 0 0015.21 7.42c11.46 0 20.78-10.42 20.78-23.22v-66.39a19.92 19.92 0 001.69-1.64 20.15 20.15 0 004.95-15.74zm-130.49-46.18c3.46 1.84 15.64 2.07 27.61 1.79 12 .28 24.15 0 27.61-1.79V334c0 4.8-22.42 12-27.23 12l-.38-.08-.38.08c-4.8 0-27.23-7.19-27.23-12zm-33 75.43v55c0 9.5-6.63 17.22-14.78 17.22s-14.78-7.73-14.78-17.22V389.9a21.08 21.08 0 007.47 1.36h22.09zm52.9 203.42h-50.64c-14.22 0-14.22-5-14.22-14.89 0-8.21 6.38-11.5 14.22-11.5h11.67l38.93-2.71.06 15.37zm-38.74-76.4h38.67v41.7l-38.67 2.68h-.26V524.7zm-.26-5.74V502h38.94v17h-38.91zm104.77 55.75h.26c7.84 0 14.22 3.29 14.22 11.5 0 9.91 0 14.89-14.22 14.89h-50.64v-13.7l.06-15.37 38.93 2.69h11.42zm-11.67-50h.26v44.4h-.26l-38.67-2.68V524.7zM407.75 519v-17h38.95v17h-38.95zm46.84-73.77h-.07v44.58a6.6 6.6 0 01-6.58 6.58H403s-.11-3.73-.16-8.75v-2.79c0-3.51-1.41-5.09-2.82-5-1.41-.09-2.82 1.49-2.82 5v2.79c0 5-.16 8.75-.16 8.75H352.1a6.6 6.6 0 01-6.58-6.58v-44.63h-.07v-.33l30.24.33h48.69l30.24-.33zm35.57 7.51c0 9.5-6.63 17.22-14.78 17.22s-14.78-7.73-14.78-17.22v-61.48h22.09a21.08 21.08 0 007.47-1.36zm6-77.21a13.53 13.53 0 01-6 7.29 14.69 14.69 0 01-7.47 2l-22.09.09v-20.19c0-5.56-6.07-5.94-6.07 0s.07 14.37.07 14.37v59.59H345.41v-59.61s.07-8.46.07-14.37-6.07-5.54-6.07 0v20.11l-22.09-.09a14.69 14.69 0 01-7.47-2 13.53 13.53 0 01-6-7.29 14.89 14.89 0 01-.75-6.46l2.47-30.36c.89-9 9.23-17.08 18.2-17.75l11.12-.83 32.22-2.29c.68.54.48 17.49.48 17.49 0 8.43 23.34 15.29 31.77 15.29h1.3c8.43 0 31.77-6.86 31.77-15.29 0 0-.2-16.95.48-17.49l32.22 2.29 11.12.83c9 .67 17.3 8.8 18.2 17.75L496.9 369a14.89 14.89 0 01-.75 6.48z" id="border"/><g id="collars"><g id="shirt-collars"><path class="cls-5" d="M380.74 339.13l-8.52 8.72s-13.49-4.45-12.38-19.85.31-12.55.31-12.55l8 .36z"/><path class="cls-10" d="M372.21 350.16a2.3 2.3 0 01-.72-.12c-.15 0-15.17-5.21-13.95-22.22.52-7.2.6-10.12.58-11.29a2.31 2.31 0 01-.19-1.72 2.41 2.41 0 012.74-1.86 2.64 2.64 0 01.73.23l6.88.31a2.31 2.31 0 011.93 1.21l12.56 23.3a2.31 2.31 0 01-.38 2.71l-8.52 8.72a2.31 2.31 0 01-1.66.73zm-9.49-32.29c-.05 2.19-.25 5.65-.58 10.29-.41 5.66 1.29 10.33 5 13.86a18.58 18.58 0 004.47 3.09l6.23-6.38L366.76 318z"/></g><g id="shirt-collars-2" data-name="shirt-collars"><path class="cls-5" d="M419.35 339.13l8.52 8.72s13.48-4.45 12.37-19.86-.31-12.55-.31-12.55l-8 .36z"/><path class="cls-10" d="M426.22 349.46l-8.52-8.72a2.31 2.31 0 01-.38-2.71l12.56-23.33a2.31 2.31 0 011.93-1.21l6.88-.31a2.64 2.64 0 01.73-.23 2.41 2.41 0 012.74 1.86 2.31 2.31 0 01-.19 1.72c0 1.16.07 4.08.58 11.29 1.23 17-13.8 22.17-13.95 22.22a2.31 2.31 0 01-2.37-.58zm7.1-31.41l-11.14 20.68 6.23 6.38a18.58 18.58 0 004.49-3.11c3.76-3.53 5.46-8.2 5-13.86-.33-4.64-.53-8.1-.58-10.29z"/></g></g><g id="head"><path id="skin-2" data-name="skin" class="cls-2" d="M446.38 253.1c0-.91.08-1.81.08-2.73 0-30.51-21.06-55.25-47-55.25s-47 24.74-47 55.25c0 1.11 0 2.21.1 3.31-4 2.46-6.9 8.44-6.9 15.43 0 9.19 4.93 16.64 11 16.64a7.47 7.47 0 002.1-.31c.82 24.5 18.74 44.08 40.73 44.08s40.12-19.81 40.74-44.5a7.65 7.65 0 003.25.74c6.08 0 11-7.45 11-16.64-.05-7.65-3.48-14.06-8.1-16.02z"/><path d="M445 228.54l-14-7.6 8.53 44.54-4.53 26.08-3.38 3.56a10.48 10.48 0 01-10.84 2.75l-20.25-6.58-20.25 6.58a10.48 10.48 0 01-10.84-2.75l-4.71-5-4.6-24.68 8.53-44.55-14 7.6s.88 54 3.63 59.13a10 10 0 002.56 3.2c0 2.24 0 5.19.13 8.67.32 8.13 14.3 23 20.55 28.25s19 6.75 19 6.75 12.79-1.5 19-6.75 20.23-20.12 20.55-28.25c.17-4.28.16-7.74.11-10.08a12 12 0 001.17-1.8c2.81-5.07 3.64-59.07 3.64-59.07zm-31.59 87.31c0 4.15-6.09.46-9.18-1.67a7.19 7.19 0 00-4.1-1.27 7.24 7.24 0 00-4.32 1.43c-2.9 2.15-8.24 5.56-8.24 1.51 0-7.18-1.12-17.06 6.06-17.06l6.86-2 6.86 2c7.23 0 6.11 9.88 6.11 17.06z" fill="#472d1b" opacity=".5"/><path class="cls-10" d="M427.33 204.71c-7.85-8.12-24.79-9.42-27.33-9.57h-.33c-2.54.15-19.48 1.45-27.33 9.57-8.5 8.79-17.08 12.35-14.5 28.45 0 0 10-7.86 12.41-16.7 2.12-7.59 5.19-5.6 29.42-4.27h.33c24.23-1.33 27.3-3.32 29.42 4.27 2.46 8.84 12.41 16.7 12.41 16.7 2.58-16.1-6-19.66-14.5-28.45z"/><path class="cls-10" d="M399.42 332.51c-22.68 0-41.28-19-43.53-43.79-7.52-.49-13.31-8.93-13.31-19.61 0-7 2.64-13.45 6.84-16.92v-1.82c0-32.12 22.45-58.25 50-58.25s50 26.13 50 58.25v1c4.85 3.17 8 10 8 17.76 0 11-6.15 19.64-14 19.64H443c-2.3 24.79-20.83 43.74-43.58 43.74zm-40.73-50.08a3 3 0 013 2.9c.77 23.09 17.35 41.18 37.73 41.18 20.58 0 37.15-18.26 37.74-41.58a3 3 0 014.27-2.64 4.68 4.68 0 002 .46c4.34 0 8-6.24 8-13.64 0-7-3.13-11.94-6.21-13.24a3 3 0 01-1.83-2.89v-.18c0-.8.07-1.61.07-2.42 0-28.81-19.75-52.25-44-52.25s-44 23.44-44 52.25c0 .92 0 1.89.09 3.16a3 3 0 01-1.44 2.71c-3.27 2-5.46 7.16-5.46 12.86 0 7.39 3.67 13.64 8 13.64a4.49 4.49 0 001.26-.19 3 3 0 01.78-.13z"/><path class="cls-10" d="M357.37 221.17s-1.2-25.17 9.38-24.92 13.5-9.58 28.5-1.67c0 0-28.25 13.2-30.33 19.56s-6.6 9.53-7.55 7.03z"/><path class="cls-10" d="M393.63 199.5s-10.37-14.62-1.5-13.12 43.77 1.7 46.63 14.79c2 9.19 10.58 5.59 6 34.83 0 0-4.25-11-7.37-14.5a20.46 20.46 0 00-6.94-5s-16.36-3.62-20.12-3.12-24.58-4.38-16.7-13.88z"/></g></svg>