<svg id="player" xmlns="http://www.w3.org/2000/svg" viewBox="0 0 800 800"><defs><clipPath id="clip-path"><path fill="none" d="M300.06 350.58h199.97v20.19H300.06z"/></clipPath><style>.cls-2{fill:#cb9866}.cls-3{fill:#212121}.cls-4{fill:#fff}.cls-5{fill:#333}.cls-6{fill:#fee200}.cls-7{fill:#ee2424}.cls-8{fill:#ed2024}.cls-9{fill:#181818}.cls-10{clip-path:url(#clip-path)}.cls-11{fill:#3e1952}.cls-13{fill:#231f20}</style></defs><g id="skin"><path id="arm-left" class="cls-2" d="M305.93 382h36.78v72.4a18.39 18.39 0 01-18.39 18.39 18.39 18.39 0 01-18.39-18.39V382z"/><path id="arm-right" class="cls-2" d="M457.19 382H494v72.4a18.39 18.39 0 01-18.39 18.39 18.39 18.39 0 01-18.39-18.39V382h-.03z"/><path id="leg-left" class="cls-2" d="M349.88 492.02h45.67v45.67h-45.67z"/><path id="leg-right" class="cls-2" d="M404.78 492.02h45.67v45.67h-45.67z"/></g><g id="boots"><path id="left" class="cls-3" d="M395.33 570.04H372.5l-22.83 1.97h-12.5l-7.5 2.53-5.25 8.5v9.83l1.91 4.17 3.84 4.05 6.33 1.95h58.83v-33z"/><path id="right" class="cls-3" d="M404.61 570.27h22.83l22.83 1.97h12.5l7.5 2.53 5.25 8.5v9.83l-1.91 4.17-3.84 4.05-6.33 1.95h-58.83v-33z"/><path class="cls-4" d="M387.16 569.81l8.17.23-1.21 4.29s-41.67 24.17-58 19.67 7.95-13 7.95-13 29.84-12 43.09-11.19z" id="details"/><path class="cls-4" d="M412.94 569.81l-8.17.23 1.21 4.29S447.65 598.5 464 594s-8-13-8-13-29.8-12-43.06-11.19z" id="details-2" data-name="details"/></g><g id="socks"><g id="socks-2" data-name="socks"><path id="left-2" data-name="left" class="cls-5" d="M349.88 522h45.67v48.04h-45.67z"/><path id="right-2" data-name="right" class="cls-5" d="M404.38 522h45.67v48.04h-45.67z"/></g><path class="cls-6" d="M350.17 522.33h45.16v13.5h-45.16zm54.46 0h45.16v13.5h-45.16z" id="details-3" data-name="details"/></g><g id="shorts"><path id="shorts-2" data-name="shorts" class="cls-5" d="M341.67 442.54h116.49v47a9.95 9.95 0 01-9.95 9.95h-96.6a9.95 9.95 0 01-9.95-9.95v-47h.01z"/></g><g id="shirt"><path id="shirt-2" data-name="shirt" class="cls-6" d="M369.5 314.8l-48.29 2.99-11.36 6.25-6.83 10.1-3.31 40.73 5.17 7.67 7.66 4.67h29.5l.17 54h114.83v-53.5l29.34-.17 7.01-4 6.99-10.5-3.4-37.33-6.83-11.84-9.77-6.08-49.84-2.99-1 21.24-6.5 6.5-11.16 3.48-11.88 2.02-15.46-3.17-11-5.66-3.66-3.84-.38-20.57z"/><g id="details-4" data-name="details"><g id="chest"><path class="cls-7" d="M342 364h1.64a7.27 7.27 0 017.27 7.27v69.93H342V364z"/><path class="cls-7" d="M449.27 364h8.91v69.93a7.27 7.27 0 01-7.27 7.27h-1.64V364z" transform="rotate(-180 453.72 402.605)"/></g><g id="arm-l"><path class="cls-5" d="M341.99 383.12l-39.86-3.63v-8.18l39.86 3.63v8.18z"/><path class="cls-7" d="M341.99 387.21l-39.86-3.63v-8.18l39.86 3.63v8.18z"/></g><g id="arm-r"><path class="cls-5" d="M458.21 383.12l39.86-3.63v-8.18l-39.86 3.63v8.18z"/><path class="cls-7" d="M458.21 387.21l39.86-3.63v-8.18l-39.86 3.63v8.18z"/></g><g id="crest-watford-16"><path class="cls-7" d="M431.17 376.57a3.55 3.55 0 01-2.29-.84l-4.61-3.89a3.54 3.54 0 01-.86-4.33l2-3.81a2.75 2.75 0 011.51-5h8.57a2.75 2.75 0 011.51 5l2 3.81a3.54 3.54 0 01-.86 4.33l-4.61 3.89a3.55 3.55 0 01-2.36.84zm-4-12.41l-2.17 4.19a1.7 1.7 0 00.42 2.09l4.61 3.89a1.76 1.76 0 002.21 0l4.61-3.89a1.7 1.7 0 00.42-2.09l-2.16-4.19zm-.31-3.66a.91.91 0 00-.3 1.78.9.9 0 00.3 0h8.57a.91.91 0 000-1.83z"/><path class="cls-5" d="M427.95 361.62l-3.35 6.5a2.21 2.21 0 00.54 2.7l4.61 3.89a2.21 2.21 0 001.43.52v-13.61z"/><path class="cls-6" d="M437.74 368.12l-3.35-6.5h-3.22v13.62a2.21 2.21 0 001.43-.52l4.61-3.89a2.21 2.21 0 00.53-2.71z"/><rect class="cls-6" x="425.47" y="360" width="11.39" height="2.83" rx="1.41" ry="1.41"/><path class="cls-7" d="M438.48 367.74l-2.19-4.25a2.24 2.24 0 00-.84-4.33h-8.57a2.24 2.24 0 00-.84 4.33l-2.19 4.25a3 3 0 00.74 3.72l4.61 3.89a3 3 0 003.93 0l4.61-3.89a3 3 0 00.74-3.72zm-13-6.33a1.41 1.41 0 011.41-1.41h8.57a1.41 1.41 0 010 2.83h-8.57a1.41 1.41 0 01-1.41-1.41zm11.73 9.41l-4.61 3.89a2.21 2.21 0 01-2.86 0l-4.61-3.89a2.21 2.21 0 01-.54-2.7l2.3-4.46h8.55l2.3 4.46a2.21 2.21 0 01-.54 2.7z"/><path class="cls-7" d="M435 366.88l-.17-1.1a.27.27 0 00-.52.08v.28a.41.41 0 01-.75.17l-.08-.13a.32.32 0 00-.6.18v.45a.38.38 0 01-.63.29l-.14-.13a.27.27 0 00-.45.28l.13.3a.27.27 0 01-.25.38h-.65a.27.27 0 01-.25-.38l.13-.3a.27.27 0 00-.45-.28l-.14.13a.38.38 0 01-.63-.29v-.45a.32.32 0 00-.6-.18l-.08.13a.41.41 0 01-.75-.17v-.28a.27.27 0 00-.52-.08l-.17 1.1a1.25 1.25 0 00.67 1.31h.09a3.1 3.1 0 011.37 1.8l.34.82a4.69 4.69 0 00.82 1.14.76.76 0 001.12 0 3.84 3.84 0 00.74-1.14l.34-.82a3.1 3.1 0 011.37-1.8h.09a1.25 1.25 0 00.62-1.31z"/></g><path id="sponsor-dryworld" class="cls-5" d="M368.53 363.22h-6.24a1.39 1.39 0 00-1.39 1.39 1.39 1.39 0 001.39 1.39 1.81 1.81 0 011.81 1.81V369a1.81 1.81 0 01-1.81 1.81 1.39 1.39 0 00-1.39 1.39 1.39 1.39 0 001.39 1.39h6.24a2.78 2.78 0 002.78-2.78V366a2.78 2.78 0 00-2.78-2.78zm-1 7.63a1 1 0 01-1-1V367a1 1 0 011-1 1 1 0 011 1v2.78a1 1 0 01-1.03 1.07z"/><g id="sponsor-138.com"><rect class="cls-8" x="400.6" y="379.65" width="13.6" height="15.25" rx="4.19" ry="4.19"/><rect class="cls-8" x="385.89" y="379.65" width="13.6" height="15.25" rx="4.19" ry="4.19"/><rect class="cls-9" x="376.15" y="396.13" width="15.19" height="17.03" rx="4.82" ry="4.82"/><rect class="cls-9" x="392.45" y="396.13" width="15.19" height="17.03" rx="4.82" ry="4.82"/><rect class="cls-9" x="408.74" y="396.13" width="15.19" height="17.03" rx="4.82" ry="4.82"/></g><g class="cls-10" id="logo-pl-ready-16"><g class="cls-10"><path class="cls-4" d="M499.52 360c.61 5.19-1.3 9.68-4.27 10s-5.87-3.57-6.48-8.76 1.3-9.68 4.27-10 5.87 3.57 6.48 8.76"/><path class="cls-11" d="M495.33 370.75c-3.18.37-6.29-3.84-6.95-9.4s1.4-10.37 4.58-10.75 6.29 3.84 6.95 9.39-1.4 10.38-4.58 10.75M493.12 352c-2.75.32-4.53 4.5-4 9.3s3.26 8.45 6 8.13 4.53-4.49 4-9.3-3.26-8.45-6-8.13"/><path class="cls-11" d="M495.43 355.25v-.1h-.09l-.28.11h-.13l-.34-.93h-.06l-.33.57h-.13l-.39-.66a.07.07 0 00-.05 0l-.23.73h-.13l-.45-.48h-.06l-.08.69v.29h-1.04v.22l.17.7v.2h.15a4.2 4.2 0 011.4-.49 3.75 3.75 0 011.51.15h.14v-1.09zm.97 2.43a3.91 3.91 0 00-5.14.6 10.81 10.81 0 00.34 3.71l.66 2c.54 1.61 1.68 3.58 2.68 3.47s1.66-2.3 1.81-4l.18-2.1a10.78 10.78 0 00-.53-3.69m-3.11 6l-.15-1.32c-.24 0-.47-.29-.52-.7l-.09-.79c0-.42.1-.78.34-.8l.45-.05c.24 0 .47.29.52.7l.12 1a.66.66 0 00.23.46c.09.86.18 1.88.18 1.9l-.4.51c-.31 0-.61-.37-.67-.91m1.56 2.19h-.19c-.18 0-.41-.26-.56-.54a.4.4 0 010-.34 3.35 3.35 0 01.36-.56.18.18 0 01.28 0 3.44 3.44 0 01.48.46.41.41 0 01.06.34c-.08.3-.24.64-.42.66m1-4.6c0 .42-.1.78-.34.8l.16 1.32c.06.54-.13 1-.44 1l-.51-.41s-.15-1-.27-1.89a.67.67 0 00.12-.51l-.12-1c0-.42.1-.78.34-.8l.45-.05c.24 0 .47.29.52.7z"/><path class="cls-4" d="M300.57 360c-.61 5.19 1.3 9.68 4.27 10s5.87-3.57 6.48-8.76-1.3-9.68-4.27-10-5.87 3.57-6.48 8.76"/><path class="cls-11" d="M300.18 360c.65-5.55 3.77-9.77 6.95-9.39s5.23 5.19 4.58 10.75-3.77 9.77-6.94 9.39-5.23-5.19-4.58-10.75m.78.09c-.56 4.81 1.21 9 4 9.3s5.45-3.32 6-8.13-1.21-9-4-9.3-5.45 3.32-6 8.13"/><path class="cls-11" d="M304.65 355.25v-.1h.09l.28.11h.13l.34-.93h.06l.33.57h.13l.39-.66a.07.07 0 01.05 0l.23.73h.13l.45-.48h.06l.08.69v.29h.44v.28l-.17.7v.2h-.15a4.2 4.2 0 00-1.4-.49 3.75 3.75 0 00-1.51.15h-.14v-1.18m-1.31 6.24l.18 2.1c.15 1.69.8 3.88 1.81 4s2.15-1.85 2.68-3.47l.66-2a10.84 10.84 0 00.34-3.71 3.92 3.92 0 00-5.15-.6 10.81 10.81 0 00-.53 3.69m3 3.25l-.4-.51s.09-1 .18-1.9a.66.66 0 00.23-.46l.12-1c0-.41.28-.73.52-.7l.45.05c.24 0 .39.39.34.8l-.09.79c0 .42-.28.73-.52.7l-.16 1.32c-.06.54-.36.94-.67.91m-1.31.63a.41.41 0 01.06-.34 3.4 3.4 0 01.48-.46.18.18 0 01.28 0 3.41 3.41 0 01.36.56.41.41 0 010 .34c-.15.28-.38.56-.56.54h-.19c-.18 0-.34-.35-.42-.66m-.5-4.73c0-.42.28-.73.52-.7l.45.05c.24 0 .39.39.34.8l-.12 1a.66.66 0 00.12.51c-.12.86-.26 1.87-.27 1.89l-.51.41c-.31 0-.51-.5-.44-1l.16-1.32c-.24 0-.39-.39-.34-.8z"/></g></g></g></g><path id="neck" fill="#a37954" d="M427.63 340.26l-27.59 8.62-28.6-9.62-1.92-23.62h61.04l-2.93 24.62z"/><path d="M502.88 368.43l-2.47-30.36c-1.19-11.87-11.83-22.25-23.72-23.14l-37.14-2.71c-4.07-.45-20.52-.09-39.55.53-19-.62-35.48-1-39.55-.53l-37.14 2.71c-11.89.89-22.53 11.27-23.72 23.14l-2.47 30.36a20.15 20.15 0 005 15.74 19.92 19.92 0 001.69 1.64v66.36c0 12.81 9.32 23.22 20.78 23.22a19.8 19.8 0 0015.25-7.39v21.79a12.23 12.23 0 007.74 11.36v68h-5.93c-10.93 0-19.83 5.8-19.83 17.11 0 8.06 0 17 11.72 19.7v1.6a1.38 1.38 0 001.38 1.38h1.63a1.38 1.38 0 001.38-1.37v-.95c1.16.09 2.39.15 3.73.15h1.89v.8a1.38 1.38 0 001.38 1.38h1.63a1.38 1.38 0 001.38-1.37v-.8h5.62v.8a1.38 1.38 0 001.38 1.38h1.63a1.38 1.38 0 001.38-1.37v-.8h5.62v.8a1.38 1.38 0 001.38 1.38h1.63a1.38 1.38 0 001.38-1.37v-.8h5.62v.8a1.38 1.38 0 001.38 1.38h1.63a1.38 1.38 0 001.38-1.37v-.8h5.62v.8a1.38 1.38 0 001.38 1.38h1.63a1.38 1.38 0 001.38-1.37v-.8h5.62v.8a1.38 1.38 0 001.38 1.38h1.63a1.38 1.38 0 001.38-1.37v-.81l.06-55.45V502h4v49.21l.06 54.67v1.6a1.38 1.38 0 001.38 1.38h1.63a1.38 1.38 0 001.38-1.37v-.8h5.62v.8a1.38 1.38 0 001.38 1.38h1.63a1.38 1.38 0 001.38-1.37v-.8h5.62v.8a1.38 1.38 0 001.38 1.38h1.63a1.38 1.38 0 001.38-1.37v-.8h5.62v.8a1.38 1.38 0 001.38 1.38h1.63a1.38 1.38 0 001.38-1.37v-.8h5.62v.8a1.38 1.38 0 001.38 1.38h1.63a1.38 1.38 0 001.38-1.37v-.8h5.62v.8a1.38 1.38 0 001.38 1.38h1.63a1.38 1.38 0 001.38-1.37v-.8h1.89c1.33 0 2.57-.05 3.72-.15v.95a1.38 1.38 0 001.38 1.38h1.63a1.38 1.38 0 001.38-1.37v-1.6c11.71-2.68 11.72-11.64 11.72-19.7 0-11.3-8.89-17.11-19.83-17.11h-5.93v-68a12.23 12.23 0 007.74-11.36V468a19.8 19.8 0 0015.21 7.42c11.46 0 20.78-10.42 20.78-23.22v-66.39a19.92 19.92 0 001.69-1.64 20.15 20.15 0 004.95-15.74zm-130.49-46.18c3.46 1.84 15.64 2.07 27.61 1.79 12 .28 24.15 0 27.61-1.79V334c0 4.8-22.42 12-27.23 12l-.38-.08-.38.08c-4.8 0-27.23-7.19-27.23-12zm-33 75.43v55c0 9.5-6.63 17.22-14.78 17.22s-14.78-7.73-14.78-17.22V389.9a21.08 21.08 0 007.47 1.36h22.09zm52.9 203.42h-50.64c-14.22 0-14.22-5-14.22-14.89 0-8.21 6.38-11.5 14.22-11.5h11.67l38.93-2.71.06 15.37zm-38.74-76.4h38.67v41.7l-38.67 2.68h-.26V524.7zm-.26-5.74V502h38.94v17h-38.91zm104.77 55.75h.26c7.84 0 14.22 3.29 14.22 11.5 0 9.91 0 14.89-14.22 14.89h-50.64v-13.7l.06-15.37 38.93 2.69h11.42zm-11.67-50h.26v44.4h-.26l-38.67-2.68V524.7zM407.75 519v-17h38.95v17h-38.95zm46.84-73.77h-.07v44.58a6.6 6.6 0 01-6.58 6.58H403s-.11-3.73-.16-8.75v-2.79c0-3.51-1.41-5.09-2.82-5-1.41-.09-2.82 1.49-2.82 5v2.79c0 5-.16 8.75-.16 8.75H352.1a6.6 6.6 0 01-6.58-6.58v-44.63h-.07v-.33l30.24.33h48.69l30.24-.33zm35.57 7.51c0 9.5-6.63 17.22-14.78 17.22s-14.78-7.73-14.78-17.22v-61.48h22.09a21.08 21.08 0 007.47-1.36zm6-77.21a13.53 13.53 0 01-6 7.29 14.69 14.69 0 01-7.47 2l-22.09.09v-20.19c0-5.56-6.07-5.94-6.07 0s.07 14.37.07 14.37v59.59H345.41v-59.61s.07-8.46.07-14.37-6.07-5.54-6.07 0v20.11l-22.09-.09a14.69 14.69 0 01-7.47-2 13.53 13.53 0 01-6-7.29 14.89 14.89 0 01-.75-6.46l2.47-30.36c.89-9 9.23-17.08 18.2-17.75l11.12-.83 32.22-2.29c.68.54.48 17.49.48 17.49 0 8.43 23.34 15.29 31.77 15.29h1.3c8.43 0 31.77-6.86 31.77-15.29 0 0-.2-16.95.48-17.49l32.22 2.29 11.12.83c9 .67 17.3 8.8 18.2 17.75L496.9 369a14.89 14.89 0 01-.75 6.48z" id="border"/><g id="shirt-collars"><path class="cls-5" d="M381.74 340.1l-8.52 8.72s-13.48-4.45-12.37-19.86.31-12.55.31-12.55l8 .36z"/><path class="cls-7" d="M373.35 346.58c-.25-.16-6.17-4.08-8.83-8.67s-.85-19.28-.77-19.9l2.16.31c0 .15-2.18 14.66.33 19s8 8 7.65 8.41z"/><path class="cls-13" d="M373.21 351.13a2.3 2.3 0 01-.72-.12c-.15 0-15.17-5.21-13.95-22.22.52-7.2.6-10.12.58-11.29a2.31 2.31 0 01-.19-1.72 2.41 2.41 0 012.74-1.86 2.64 2.64 0 01.73.23l6.88.31a2.31 2.31 0 011.93 1.21L383.77 339a2.31 2.31 0 01-.38 2.71l-8.52 8.72a2.31 2.31 0 01-1.66.7zm-9.49-32.29c-.05 2.19-.25 5.65-.58 10.29-.41 5.66 1.29 10.33 5 13.86a18.58 18.58 0 004.47 3.09l6.23-6.38-11.08-20.7z"/></g><g id="shirt-collars-2" data-name="shirt-collars"><path class="cls-5" d="M417.35 340.1l8.52 8.72s13.48-4.45 12.37-19.86-.31-12.55-.31-12.55l-8 .36z"/><path class="cls-7" d="M425.74 346.58c.25-.16 6.17-4.08 8.83-8.67s.85-19.28.77-19.9l-2.16.31c0 .15 2.18 14.66-.33 19s-8 8-7.65 8.41z"/><path class="cls-13" d="M424.22 350.43l-8.52-8.72a2.31 2.31 0 01-.38-2.71l12.56-23.33a2.31 2.31 0 011.93-1.21l6.88-.31a2.64 2.64 0 01.73-.23 2.41 2.41 0 012.74 1.86 2.31 2.31 0 01-.19 1.72c0 1.16.07 4.08.58 11.29 1.23 17-13.8 22.17-13.95 22.22a2.31 2.31 0 01-2.37-.58zm7.1-31.41l-11.13 20.68 6.23 6.38a18.58 18.58 0 004.48-3.08c3.76-3.53 5.46-8.2 5-13.86-.33-4.64-.53-8.1-.58-10.29z"/></g><g id="head"><path id="skin-2" data-name="skin" class="cls-2" d="M446.38 253.1c0-.91.08-1.81.08-2.73 0-30.51-21.06-55.25-47-55.25s-47 24.74-47 55.25c0 1.11 0 2.21.1 3.31-4 2.46-6.9 8.44-6.9 15.43 0 9.19 4.93 16.64 11 16.64a7.47 7.47 0 002.1-.31c.82 24.5 18.74 44.08 40.73 44.08s40.12-19.81 40.74-44.5a7.65 7.65 0 003.25.74c6.08 0 11-7.45 11-16.64-.05-7.65-3.48-14.06-8.1-16.02z"/><path d="M438.23 292.08v-8.37c.22-1.91-18.37 13.2-23.8 12.76h-.32l-14.57-.29-14.57.29h-.32c-5.43.44-20.48-4.47-23.85-12.14-.77-1.76 0 7.75 0 7.75a17.48 17.48 0 002.76 10.58l13.5 20.92 22.44 7.57 22.5-7.57 13.5-20.92a17.48 17.48 0 002.73-10.58zm-24.81 17.66s-2.19 9.23-10.29 11c-.29-2-1-4-2.84-4.29-.27 0-.52-.06-.77-.07s-.5 0-.77.07c-1.81.27-2.55 2.32-2.84 4.29-8.1-1.75-10.29-11-10.29-11-.41-7.49 11.49-8.11 13.9-8.16s14.31.67 13.9 8.16z" fill="#332e2b"/><path class="cls-13" d="M399.42 332.51c-22.68 0-41.28-19-43.53-43.79-7.52-.49-13.31-8.93-13.31-19.61 0-7 2.64-13.45 6.84-16.92v-1.82c0-32.12 22.45-58.25 50-58.25s50 26.13 50 58.25v1c4.85 3.17 8 10 8 17.76 0 11-6.15 19.64-14 19.64H443c-2.3 24.79-20.83 43.74-43.58 43.74zm-40.73-50.08a3 3 0 013 2.9c.77 23.09 17.35 41.18 37.73 41.18 20.58 0 37.15-18.26 37.74-41.58a3 3 0 014.27-2.64 4.68 4.68 0 002 .46c4.34 0 8-6.24 8-13.64 0-7-3.13-11.94-6.21-13.24a3 3 0 01-1.83-2.89v-.18c0-.8.07-1.61.07-2.42 0-28.81-19.75-52.25-44-52.25s-44 23.44-44 52.25c0 .92 0 1.89.09 3.16a3 3 0 01-1.44 2.71c-3.27 2-5.46 7.16-5.46 12.86 0 7.39 3.67 13.64 8 13.64a4.49 4.49 0 001.26-.19 3 3 0 01.78-.13z"/></g></svg>