<svg id="player" xmlns="http://www.w3.org/2000/svg" viewBox="0 0 800 800"><defs><clipPath id="clip-path"><path class="cls-1" d="M299.79 351.01h199.97v20.19H299.79z"/></clipPath><clipPath id="clip-path-3"><path class="cls-1" d="M433.49 374.22l-1.59-.48-1.59-.48-1.59-.48-6.37-1.93v1c0 2.57 1.17 4.1 3.17 5.71l2.63 2.12a.91.91 0 001.14 0l1-.82 1.59-1.28a12.68 12.68 0 001.58-1.47 6.52 6.52 0 001-1.52z"/></clipPath><style>.cls-1{fill:none}.cls-2{fill:#8e572a}.cls-3{fill:#112437}.cls-4{fill:#fff}.cls-5{fill:#282827}.cls-6{fill:#d71f27}.cls-7{fill:#d5a55f}.cls-8{fill:#231f20}.cls-9{clip-path:url(#clip-path)}.cls-10{fill:#3e1952}.cls-13{fill:#2b2b2b}.cls-15{fill:#2f1913}</style></defs><g id="skin"><path id="arm-left" class="cls-2" d="M305.93 382h36.78v72.4a18.39 18.39 0 01-18.39 18.39 18.39 18.39 0 01-18.39-18.39V382z"/><path id="arm-right" class="cls-2" d="M457.19 382H494v72.4a18.39 18.39 0 01-18.39 18.39 18.39 18.39 0 01-18.39-18.39V382h-.03z"/><path id="leg-left" class="cls-2" d="M349.88 492.02h45.67v45.67h-45.67z"/><path id="leg-right" class="cls-2" d="M404.78 492.02h45.67v45.67h-45.67z"/></g><g id="boots"><path id="left" class="cls-3" d="M395.33 570.04H372.5l-22.83 1.97h-12.5l-7.5 2.53-5.25 8.5v9.83l1.91 4.17 3.84 4.05 6.33 1.95h58.83v-33z"/><path id="right" class="cls-3" d="M404.61 570.27h22.83l22.83 1.97h12.5l7.5 2.53 5.25 8.5v9.83l-1.91 4.17-3.84 4.05-6.33 1.95h-58.83v-33z"/><path class="cls-4" d="M325.75 584.88S339 596.25 366.6 572c0 0 15 26.88-16.72 23.37-16.71-1.85-21.11 7-21.11 7s-7.19-13.49-3.02-17.49z" id="details"/><path class="cls-4" d="M474.22 584.88S461 596.25 433.37 572c0 0-15 26.88 16.72 23.37 16.71-1.85 21.11 7 21.11 7s7.19-13.49 3.02-17.49z" id="details-2" data-name="details"/></g><g id="socks"><g id="socks-2" data-name="socks"><path id="left-2" data-name="left" class="cls-5" d="M349.88 522h45.67v48.04h-45.67z"/><path id="right-2" data-name="right" class="cls-5" d="M404.38 522h45.67v48.04h-45.67z"/></g></g><g id="shorts"><path id="shorts-2" data-name="shorts" class="cls-5" d="M341.67 442.54h116.49v47a9.95 9.95 0 01-9.95 9.95h-96.6a9.95 9.95 0 01-9.95-9.95v-47h.01z"/><path class="cls-6" d="M350.5 522.63h44.83v12.38H350.5zm54.3 0h44.83v12.38H404.8z" id="details-3" data-name="details"/><path class="cls-6" d="M454.3 443h-3.86v40.15a10.22 10.22 0 01-10.22 10.22h-80.89a10.22 10.22 0 01-10.22-10.22V443h-3.86v54.75h1.93v.75H453v-.75h1.3z"/></g><g id="shirt"><path id="shirt-2" data-name="shirt" class="cls-6" d="M369.5 314.8l-48.29 2.99-11.36 6.25-6.83 10.1-3.31 40.73 5.17 7.67 7.66 4.67h29.5l.17 54h114.83v-53.5l29.34-.17 7.01-4 6.99-10.5-3.4-37.33-6.83-11.84-9.77-6.08-49.84-2.99-1 21.24-6.5 6.5-11.16 3.48-11.88 2.02-15.46-3.17-11-5.66-3.66-3.84-.38-20.57z"/><g id="details-4" data-name="details"><path class="cls-5" d="M406.98 342.2h14.4v99.14h-14.4zm28.79-26.56h14.4v125.69h-14.4zm-57.59 26.56h14.4v99.14h-14.4zm-28.79-26.56h14.4v125.69h-14.4z" id="chest"/><path id="neck" class="cls-5" d="M429.79 315.64l.68 20.42-6.6 3.81-8.62 4.13-15.25 4-15.25-4-8.62-4.12-6.6-3.81.68-20.42-6.71.61V336a8.23 8.23 0 003.47 6.71c6.29 4.48 18.53 9.77 33 11.27 14.5-1.5 26.74-6.79 33-11.27a8.23 8.23 0 003.53-6.71v-19.75z"/><g id="arm-l"><path class="cls-5" d="M306.08 386.08h36.63l-1.38-6L303 378l3.08 8.08zm64.3-63.2l-26.79 3.92a59.63 59.63 0 01-6.12.57c-6.95.29-12.89.77-20.42 3.22a13.77 13.77 0 00-5.11 3.58 50.64 50.64 0 01-8.32 6.59l2.31-10.92s3.9-8.44 9.07-10 29.73-3.54 29.73-3.54l26.79.76z"/><path class="cls-7" d="M302.16 342.84l2.84-13.43c.17-.36 4.15-8.87 9.7-10.49 5.21-1.53 28.92-3.5 29.93-3.58h.06l28 .8-1.52 7.63-27.49 4a60.8 60.8 0 01-6.22.58c-6.54.28-12.58.71-20.15 3.17a12.43 12.43 0 00-4.56 3.19l-.16.16a51.26 51.26 0 01-8.49 6.71zm4.72-12.69l-1.78 8.42a52.1 52.1 0 006.14-5.12l.16-.15a14.24 14.24 0 015.33-3.66c7.81-2.54 14-3 20.68-3.26a59 59 0 006-.56l26.12-3.82.78-3.93-25.55-.73c-1.3.11-24.58 2.06-29.48 3.5-4.39 1.28-7.95 8.39-8.4 9.31z"/></g><g id="arm-r"><path class="cls-5" d="M494.16 386.08h-36.63l1.38-6 38.33-2.08-3.08 8.08zm-64.29-63.2l26.79 3.92a59.63 59.63 0 006.12.57c6.95.29 12.89.77 20.42 3.22a13.77 13.77 0 015.11 3.58 50.64 50.64 0 008.32 6.59l-2.31-10.92s-3.9-8.44-9.07-10-29.73-3.54-29.73-3.54l-26.79.76z"/><path class="cls-7" d="M496.09 341.6a51.26 51.26 0 01-8.49-6.71l-.16-.16a12.43 12.43 0 00-4.56-3.19c-7.57-2.46-13.6-2.89-20.15-3.17a60.8 60.8 0 01-6.22-.58l-27.49-4-1.52-7.63 28-.8h.06c1 .08 24.72 2.05 29.93 3.58 5.55 1.62 9.53 10.13 9.7 10.49l2.86 13.43zM485 320.83c-4.9-1.44-28.18-3.39-29.48-3.5l-25.55.73.78 3.93 26.09 3.82a59 59 0 006 .56c6.69.28 12.87.72 20.68 3.26a14.24 14.24 0 015.33 3.66l.16.15a52.1 52.1 0 006.14 5.12l-1.78-8.42c-.46-.91-4.02-8.02-8.37-9.31z"/></g><g id="brand-jd"><circle class="cls-4" cx="370.84" cy="371.19" r="7.34"/><path class="cls-8" d="M368.62 367.18h3a3.87 3.87 0 013.81 4.57v.26a3.87 3.87 0 01-3.81 3.18h-3.87a1.56 1.56 0 01-1.53-1.84l.9-4.9a1.56 1.56 0 011.5-1.27z"/></g><g class="cls-9" id="logo-pl-ready-16"><g class="cls-9"><path class="cls-4" d="M499.25 360.48c.61 5.19-1.3 9.68-4.27 10s-5.87-3.57-6.48-8.76 1.3-9.68 4.27-10 5.87 3.57 6.48 8.76"/><path class="cls-10" d="M495.06 371.18c-3.18.37-6.29-3.84-6.95-9.4s1.4-10.37 4.58-10.75 6.29 3.84 6.95 9.39-1.4 10.38-4.58 10.75m-2.21-18.79c-2.75.32-4.53 4.5-4 9.3s3.26 8.45 6 8.13 4.53-4.49 4-9.3-3.26-8.45-6-8.13"/><path class="cls-10" d="M495.17 355.68v-.1H495l-.28.11h-.13l-.34-.93h-.06l-.33.57h-.13l-.39-.66a.07.07 0 00-.05 0l-.23.73h-.13l-.45-.48h-.06l-.08.69v.29h-.45v.22l.17.7v.2h.15a4.2 4.2 0 011.4-.49 3.75 3.75 0 011.51.15H495v-1.09zm.97 2.43a3.91 3.91 0 00-5.14.6 10.81 10.81 0 00.34 3.71l.66 2c.54 1.61 1.68 3.58 2.68 3.47s1.66-2.3 1.81-4l.18-2.1a10.78 10.78 0 00-.53-3.69m-3.11 6l-.15-1.32c-.24 0-.47-.29-.52-.7l-.09-.79c0-.42.1-.78.34-.8l.45-.05c.24 0 .47.29.52.7l.12 1a.66.66 0 00.23.46c.09.86.18 1.88.18 1.9l-.4.51c-.31 0-.61-.37-.67-.91m1.56 2.19h-.19c-.18 0-.41-.26-.56-.54a.4.4 0 010-.34 3.35 3.35 0 01.36-.56.18.18 0 01.28 0 3.44 3.44 0 01.48.46.41.41 0 01.06.34c-.08.3-.24.64-.42.66m1-4.6c0 .42-.1.78-.34.8l.16 1.32c.06.54-.13 1-.44 1l-.51-.41s-.15-1-.27-1.89a.67.67 0 00.12-.51l-.12-1c0-.42.1-.78.34-.8l.45-.05c.24 0 .47.29.52.7z"/><path class="cls-4" d="M300.3 360.48c-.61 5.19 1.3 9.68 4.27 10s5.87-3.57 6.48-8.76-1.3-9.68-4.27-10-5.87 3.57-6.48 8.76"/><path class="cls-10" d="M299.91 360.43c.65-5.55 3.77-9.77 6.95-9.39s5.23 5.19 4.58 10.75-3.77 9.77-6.94 9.39-5.23-5.19-4.58-10.75m.78.09c-.56 4.81 1.21 9 4 9.3s5.45-3.32 6-8.13-1.21-9-4-9.3-5.45 3.32-6 8.13"/><path class="cls-10" d="M304.39 355.68v-.1h.09l.28.11h.13l.34-.93h.06l.33.57h.13l.39-.66a.07.07 0 01.05 0l.23.73h.13l.45-.48h.06l.08.69v.29h.44v.28l-.17.7v.2h-.15a4.2 4.2 0 00-1.4-.49 3.75 3.75 0 00-1.51.15h-.14v-1.18m-1.32 6.24l.18 2.1c.15 1.69.8 3.88 1.81 4s2.15-1.85 2.68-3.47l.66-2a10.84 10.84 0 00.34-3.71 3.92 3.92 0 00-5.15-.6 10.81 10.81 0 00-.53 3.69m3 3.25l-.4-.51s.09-1 .18-1.9a.66.66 0 00.23-.46l.12-1c0-.41.28-.73.52-.7l.45.05c.24 0 .39.39.34.8l-.09.79c0 .42-.28.73-.52.7l-.16 1.32c-.06.54-.36.94-.67.91m-1.31.63a.41.41 0 01.07-.34 3.4 3.4 0 01.48-.46.18.18 0 01.28 0 3.41 3.41 0 01.36.56.41.41 0 010 .34c-.15.28-.38.56-.56.54h-.2c-.18 0-.34-.35-.42-.66m-.5-4.73c0-.42.28-.73.52-.7l.45.05c.24 0 .39.39.34.8l-.12 1a.66.66 0 00.12.51c-.12.86-.26 1.87-.27 1.89l-.51.41c-.31 0-.51-.5-.44-1l.16-1.32c-.24 0-.39-.39-.34-.8z"/></g></g><g id="brand-jd-2" data-name="brand-jd"><path class="cls-4" d="M310.78 341.53c-.63 4-3.12 6.74-5.56 6.17s-3.91-4.27-3.29-8.25 3.12-6.74 5.56-6.17 3.92 4.27 3.29 8.25z"/><path class="cls-8" d="M305.64 336.24l1.82.43c1.46.34 2.22 2.76 1.59 5l-.07.25c-.49 1.76-1.66 2.84-2.79 2.58l-2.33-.55c-.59-.14-.89-1.11-.64-2l1.3-4.68c.2-.7.67-1.14 1.12-1.03z"/></g><g id="brand-jd-3" data-name="brand-jd"><path class="cls-4" d="M488.77 341.53c.63 4 3.12 6.74 5.56 6.17s3.91-4.27 3.29-8.25-3.12-6.74-5.56-6.17-3.92 4.27-3.29 8.25z"/><path class="cls-8" d="M493.91 336.24l-1.82.43c-1.46.34-2.22 2.76-1.59 5l.07.25c.49 1.76 1.66 2.84 2.79 2.58l2.33-.55c.59-.14.89-1.11.64-2l-1.3-4.68c-.19-.7-.66-1.14-1.12-1.03z"/></g><g id="crest-afc-bournemouth-16"><path class="cls-5" d="M428.72 362.54a22.09 22.09 0 014.11.38 2.78 2.78 0 012.26 2.73v6.16c0 2.57-1.17 4.1-3.17 5.71l-2.63 2.12a.91.91 0 01-1.14 0l-2.63-2.12c-2-1.61-3.17-3.14-3.17-5.71v-6.16a2.78 2.78 0 012.26-2.73 22.09 22.09 0 014.11-.38m0-1.2a23.35 23.35 0 00-4.33.41 4 4 0 00-3.25 3.92v6.16a7.25 7.25 0 001 3.83 10.69 10.69 0 002.61 2.81l2.63 2.12a2.11 2.11 0 002.64 0l2.63-2.12a10.69 10.69 0 002.61-2.81 7.25 7.25 0 001-3.83v-6.16a4 4 0 00-3.25-3.92 23.35 23.35 0 00-4.33-.41z"/><path class="cls-6" d="M428.72 362.54a22.09 22.09 0 00-4.11.38 2.78 2.78 0 00-2.26 2.73v5.19l6.37 1.93z"/><path class="cls-5" d="M430.31 373.26V362.6q-.8-.06-1.59-.06v10.24z"/><path class="cls-6" d="M431.9 373.74v-11q-.79-.12-1.59-.17v10.66zm3.19-8.08a2.78 2.78 0 00-1.59-2.51v11.08l1 .31a6.19 6.19 0 00.57-2.72z"/><path class="cls-5" d="M433.49 374.22v-11.08a2.78 2.78 0 00-.67-.22l-.92-.15v11z"/><path class="cls-4" d="M433.49 374.22l-1.59-.48-1.59-.48-1.59-.48-6.37-1.93v1c0 2.57 1.17 4.1 3.17 5.71l2.63 2.12a.91.91 0 001.14 0l1-.82 1.59-1.28a12.68 12.68 0 001.58-1.47 6.52 6.52 0 001-1.52z"/><g clip-path="url(#clip-path-3)"><path class="cls-5" transform="rotate(-72.83 426.552 381.87)" d="M426.46 373.9h.18v15.94h-.18z"/><path class="cls-5" transform="rotate(-72.83 426.662 381.521)" d="M426.57 373.55h.18v15.94h-.18z"/><path class="cls-5" transform="rotate(-72.83 426.767 381.18)" d="M426.67 373.21h.18v15.94h-.18z"/><path class="cls-5" transform="rotate(-72.83 426.877 380.832)" d="M426.78 372.86h.18v15.94h-.18z"/><path class="cls-5" transform="rotate(-72.83 426.982 380.491)" d="M426.89 372.52h.18v15.94h-.18z"/><path class="cls-5" transform="rotate(-72.83 427.092 380.143)" d="M426.99 372.17h.18v15.94h-.18z"/><path class="cls-5" transform="rotate(-72.83 427.19 379.797)" d="M427.1 371.83h.18v15.94h-.18z"/><path class="cls-5" transform="rotate(-72.83 427.3 379.45)" d="M427.21 371.48h.18v15.94h-.18z"/><path class="cls-5" transform="rotate(-72.83 427.406 379.108)" d="M427.31 371.14h.18v15.94h-.18z"/><path class="cls-5" transform="rotate(-72.83 427.516 378.76)" d="M427.42 370.79h.18v15.94h-.18z"/><path class="cls-5" transform="rotate(-72.83 427.621 378.419)" d="M427.53 370.45h.18v15.94h-.18z"/><path class="cls-5" transform="matrix(.3 -.96 .96 .3 -59.76 675.13)" d="M427.63 370.1h.18v15.94h-.18z"/><path class="cls-5" transform="rotate(-72.83 427.83 377.725)" d="M427.74 369.76h.18v15.94h-.18z"/><path class="cls-5" transform="rotate(-72.83 427.94 377.377)" d="M427.85 369.41h.18v15.94h-.18z"/><path class="cls-5" transform="rotate(-72.83 428.045 377.036)" d="M427.95 369.07h.18v15.94h-.18z"/><path class="cls-5" transform="rotate(-72.83 428.155 376.688)" d="M428.06 368.72h.18v15.94h-.18z"/><path class="cls-5" transform="rotate(-72.83 428.26 376.347)" d="M428.17 368.37h.18v15.94h-.18z"/><path class="cls-5" transform="rotate(-72.83 428.37 375.999)" d="M428.27 368.03h.18v15.94h-.18z"/><path class="cls-5" transform="rotate(-72.83 428.475 375.658)" d="M428.38 367.68h.18v15.94h-.18z"/><path class="cls-5" transform="rotate(-72.83 428.578 375.305)" d="M428.49 367.34h.18v15.94h-.18z"/><path class="cls-5" transform="rotate(-72.83 428.684 374.964)" d="M428.59 366.99h.18v15.94h-.18z"/><path class="cls-5" transform="rotate(-72.83 428.794 374.616)" d="M428.7 366.65h.18v15.94h-.18z"/><path class="cls-5" transform="rotate(-72.83 428.904 374.268)" d="M428.81 366.3h.18v15.94h-.18z"/><path class="cls-5" transform="rotate(-72.83 429.009 373.927)" d="M428.91 365.96h.18v15.94h-.18z"/><path class="cls-5" transform="rotate(-72.83 429.119 373.579)" d="M429.02 365.61h.18v15.94h-.18z"/><path class="cls-5" transform="rotate(-72.83 429.224 373.238)" d="M429.13 365.27h.18v15.94h-.18z"/></g><circle class="cls-4" cx="428.72" cy="370.59" r="3.58"/></g><g id="sponsor-mansion"><path d="M385.28 381.63h20.57v26.07h-26.08v-20.56a5.51 5.51 0 015.51-5.51z" fill="#e11f26"/><path class="cls-7" d="M405.34 382.13v25.07h-25.07v-20.06a5 5 0 015-5h20.07m.5-.5h-20.56a5.51 5.51 0 00-5.51 5.51v20.57h26.07v-26.09z"/><rect class="cls-4" x="384.67" y="385.3" width="16.27" height="18.75" rx="4.92" ry="4.92"/><path class="cls-13" d="M394.22 393.85h5.57a5.51 5.51 0 015.51 5.51v29a5.51 5.51 0 01-5.51 5.51h-5.57v-40.02z" transform="rotate(90 399.76 413.84)"/><path class="cls-7" d="M419.25 408.8v5.07a5 5 0 01-5 5h-29a5 5 0 01-5-5v-5.07h39m.5-.5h-40v5.57a5.51 5.51 0 005.51 5.51h29a5.51 5.51 0 005.51-5.51v-5.57z"/><rect class="cls-4" x="382.63" y="411.91" width="34.27" height="3.85" rx="1.92" ry="1.92"/><path class="cls-13" d="M405.84 382.22h8.4a5.51 5.51 0 015.51 5.51v20.57h-13.91v-26.08z"/><path class="cls-7" d="M414.24 382.72a5 5 0 015 5v20.08h-12.9v-25.08h7.9m0-.5h-8.4v26.08h13.91v-20.57a5.51 5.51 0 00-5.51-5.51z"/><rect class="cls-4" x="408.14" y="385.95" width="9.31" height="7.45" rx="3.08" ry="3.08"/><rect class="cls-4" x="408.14" y="397.12" width="9.31" height="7.45" rx="3.08" ry="3.08"/></g></g></g><path id="neck-2" data-name="neck" fill="#7d4921" d="M427.63 340.26l-27.59 8.62-28.6-9.62-1.92-23.62h61.04l-2.93 24.62z"/><path d="M502.88 368.43l-2.47-30.36c-1.19-11.87-11.83-22.25-23.72-23.14l-37.14-2.71c-4.07-.45-20.52-.09-39.55.53-19-.62-35.48-1-39.55-.53l-37.14 2.71c-11.89.89-22.53 11.27-23.72 23.14l-2.47 30.36a20.15 20.15 0 005 15.74 19.92 19.92 0 001.69 1.64v66.36c0 12.81 9.32 23.22 20.78 23.22a19.8 19.8 0 0015.25-7.39v21.79a12.23 12.23 0 007.74 11.36v68h-5.93c-10.93 0-19.83 5.8-19.83 17.11 0 8.06 0 17 11.72 19.7v1.6a1.38 1.38 0 001.38 1.38h1.63a1.38 1.38 0 001.38-1.37v-.95c1.16.09 2.39.15 3.73.15h1.89v.8a1.38 1.38 0 001.38 1.38h1.63a1.38 1.38 0 001.38-1.37v-.8h5.62v.8a1.38 1.38 0 001.38 1.38h1.63a1.38 1.38 0 001.38-1.37v-.8h5.62v.8a1.38 1.38 0 001.38 1.38h1.63a1.38 1.38 0 001.38-1.37v-.8h5.62v.8a1.38 1.38 0 001.38 1.38h1.63a1.38 1.38 0 001.38-1.37v-.8h5.62v.8a1.38 1.38 0 001.38 1.38h1.63a1.38 1.38 0 001.38-1.37v-.8h5.62v.8a1.38 1.38 0 001.38 1.38h1.63a1.38 1.38 0 001.38-1.37v-.81l.06-55.45V502h4v49.21l.06 54.67v1.6a1.38 1.38 0 001.38 1.38h1.63a1.38 1.38 0 001.38-1.37v-.8h5.62v.8a1.38 1.38 0 001.38 1.38h1.63a1.38 1.38 0 001.38-1.37v-.8h5.62v.8a1.38 1.38 0 001.38 1.38h1.63a1.38 1.38 0 001.38-1.37v-.8h5.62v.8a1.38 1.38 0 001.38 1.38h1.63a1.38 1.38 0 001.38-1.37v-.8h5.62v.8a1.38 1.38 0 001.38 1.38h1.63a1.38 1.38 0 001.38-1.37v-.8h5.62v.8a1.38 1.38 0 001.38 1.38h1.63a1.38 1.38 0 001.38-1.37v-.8h1.89c1.33 0 2.57-.05 3.72-.15v.95a1.38 1.38 0 001.38 1.38h1.63a1.38 1.38 0 001.38-1.37v-1.6c11.71-2.68 11.72-11.64 11.72-19.7 0-11.3-8.89-17.11-19.83-17.11h-5.93v-68a12.23 12.23 0 007.74-11.36V468a19.8 19.8 0 0015.21 7.42c11.46 0 20.78-10.42 20.78-23.22v-66.39a19.92 19.92 0 001.69-1.64 20.15 20.15 0 004.95-15.74zm-130.49-46.18c3.46 1.84 15.64 2.07 27.61 1.79 12 .28 24.15 0 27.61-1.79V334c0 4.8-22.42 12-27.23 12l-.38-.08-.38.08c-4.8 0-27.23-7.19-27.23-12zm-33 75.43v55c0 9.5-6.63 17.22-14.78 17.22s-14.78-7.73-14.78-17.22V389.9a21.08 21.08 0 007.47 1.36h22.09zm52.9 203.42h-50.64c-14.22 0-14.22-5-14.22-14.89 0-8.21 6.38-11.5 14.22-11.5h11.67l38.93-2.71.06 15.37zm-38.74-76.4h38.67v41.7l-38.67 2.68h-.26V524.7zm-.26-5.74V502h38.94v17h-38.91zm104.77 55.75h.26c7.84 0 14.22 3.29 14.22 11.5 0 9.91 0 14.89-14.22 14.89h-50.64v-13.7l.06-15.37 38.93 2.69h11.42zm-11.67-50h.26v44.4h-.26l-38.67-2.68V524.7zM407.75 519v-17h38.95v17h-38.95zm46.84-73.77h-.07v44.58a6.6 6.6 0 01-6.58 6.58H403s-.11-3.73-.16-8.75v-2.79c0-3.51-1.41-5.09-2.82-5-1.41-.09-2.82 1.49-2.82 5v2.79c0 5-.16 8.75-.16 8.75H352.1a6.6 6.6 0 01-6.58-6.58v-44.63h-.07v-.33l30.24.33h48.69l30.24-.33zm35.57 7.51c0 9.5-6.63 17.22-14.78 17.22s-14.78-7.73-14.78-17.22v-61.48h22.09a21.08 21.08 0 007.47-1.36zm6-77.21a13.53 13.53 0 01-6 7.29 14.69 14.69 0 01-7.47 2l-22.09.09v-20.19c0-5.56-6.07-5.94-6.07 0s.07 14.37.07 14.37v59.59H345.41v-59.61s.07-8.46.07-14.37-6.07-5.54-6.07 0v20.11l-22.09-.09a14.69 14.69 0 01-7.47-2 13.53 13.53 0 01-6-7.29 14.89 14.89 0 01-.75-6.46l2.47-30.36c.89-9 9.23-17.08 18.2-17.75l11.12-.83 32.22-2.29c.68.54.48 17.49.48 17.49 0 8.43 23.34 15.29 31.77 15.29h1.3c8.43 0 31.77-6.86 31.77-15.29 0 0-.2-16.95.48-17.49l32.22 2.29 11.12.83c9 .67 17.3 8.8 18.2 17.75L496.9 369a14.89 14.89 0 01-.75 6.48z" id="border"/><g id="head"><path class="cls-8" d="M400.06 184.67a1.59 1.59 0 01.57.1c3.12.58 7.37 3.63 16.1 5.52a37.13 37.13 0 0111.54 4.58c1.33.82 3.83 4.66 4.21 5.3 0 0 10.21 3.08 10.71 6.21 0 0 6.5 4.5 7.5 11.63 0 0 10.85 15 10.3 21.7l.49 2.08 9.45 22.21a2 2 0 11-3.6 1.54l-.61-1.44 3.48 14.78a2 2 0 11-3.81.9l-1.49-6.33a2 2 0 01-.43.16l2.13 9.07a2 2 0 01-1.46 2.35 1.93 1.93 0 01-.44.05 2 2 0 01-1-.27l1.32 7a2 2 0 11-3.85.72l-.53-2.81a2 2 0 01-1.57 1.14l.78 2.84a15.16 15.16 0 00-5 3.1h-.2a2 2 0 01-.52-.07l.6 5.53a2 2 0 01-1.74 2.16h-.21a2 2 0 01-1.94-1.75l-.35-3.23v.77a2 2 0 01-3.78.71v.69a2 2 0 11-3.92 0v-42.7a2 2 0 011.18-1.79l.85-19.31a4.85 4.85 0 00-1.32-1.57s-.08-1.45-.3-3.48l-.12-.17-1 22.65a1.88 1.88 0 01-2 1.69H440a1.85 1.85 0 01-1.88-1.83l1.23-28-1.35-2-1.1 25.1a1.88 1.88 0 01-2 1.69h-.08a1.85 1.85 0 01-1.82-1.79v-.55a2 2 0 01-1.5.64h-.08a1.85 1.85 0 01-1.88-1.83l1-23.63a8.77 8.77 0 01-1.73.9l.68 16.95a1.85 1.85 0 01-1.89 1.82h-.07a1.88 1.88 0 01-2-1.69l-.69-17.19-1-.34.67 16.6a1.85 1.85 0 01-1.89 1.82h-.07a1.88 1.88 0 01-2-1.69l-.74-18.35-1-.42-.89 22.05a1.88 1.88 0 01-2 1.69h-.07a1.85 1.85 0 01-1.89-1.82l.32-7.81a2 2 0 01-1.28.75h-.07a2 2 0 00-2.66 0h-.07a1.88 1.88 0 01-2-1.69l-.73-18.11.5 12.46a1.85 1.85 0 01-1.89 1.82H406a2.14 2.14 0 01-.8-.16 1.89 1.89 0 01-1.86 1.51h-.07a1.88 1.88 0 01-2-1.69l-.74-18.37c-.11-.47-.21-1-.31-1.51-.5 4.52-1.26 8-2 8a.34.34 0 01-.23-.11l-.65 16.16a1.88 1.88 0 01-2 1.69h-.07a1.85 1.85 0 01-1.89-1.82l.65-16.14c-.72.11-1.51.25-2.35.41l-.2 16.08a1.88 1.88 0 01-2 1.75 1.85 1.85 0 01-1.94-1.77l.15-12.6-1.38 15.49a1.89 1.89 0 01-1.95 1.62h-.16a1.78 1.78 0 00-1.64.05h-.07a1.85 1.85 0 01-1.89-1.82l.7-17.37h-1.44l-.81 20.09a1.88 1.88 0 01-2 1.69h-.07a2 2 0 01-1.68-1l.18 3.73a1.88 1.88 0 01-1.87 1.86h-.12a1.83 1.83 0 01-1.92-1.65l-1-20.19-1 18.87a1.83 1.83 0 01-1.91 1.64h-.14a2.11 2.11 0 01-1.12-.41v.64a1.85 1.85 0 01-1.88 1.83h-.08a1.94 1.94 0 01-1.86-1.23l.42 9.51a1.85 1.85 0 01-1.88 1.83h-.08a1.93 1.93 0 01-1.89-1.31v1.06a1.85 1.85 0 01-1.88 1.83h-.08a1.88 1.88 0 01-2-1.69l-.89-20.16a16.23 16.23 0 00-.83 8.1 11.56 11.56 0 01-.15 3.34v.92h.06a2 2 0 011.37 2.41l-1.14 4.16.21 4.88a1.95 1.95 0 012.94 1.68V307a2 2 0 01-3.92 0v-6a2 2 0 01-3.78-.71v-.77l-.35 3.23a2 2 0 01-1.94 1.75h-.21a2 2 0 01-1.74-2.16l.6-5.53a2 2 0 01-.52.07h.1a1.78 1.78 0 00-3.14-.62 2 2 0 01-.51-.07 2 2 0 01-1.35-2.49l.78-2.84a2 2 0 01-1.57-1.14l-.53 2.81a2 2 0 11-3.85-.72l1.32-7a2 2 0 01-1 .27 1.93 1.93 0 01-.44-.05 2 2 0 01-1.46-2.35l2.13-9.07a2 2 0 01-.43-.16l-1.49 6.33a2 2 0 01-3.81-.9l3.48-14.78-.61 1.44a2 2 0 01-3.6-1.54l9.46-22.18.49-2.08c-.55-6.67 10.3-21.7 10.3-21.7 1-7.12 7.5-11.62 7.5-11.62.5-3.12 10.71-6.21 10.71-6.21.38-.64 2.88-4.49 4.21-5.3a37.13 37.13 0 0111.54-4.58c8.73-1.89 13-4.94 16.1-5.52a1.58 1.58 0 01.57-.1h.32m-24.82 55.13l.78-19.27a3.78 3.78 0 01-.47-.43 1.39 1.39 0 00-1.07-.51h-.2l1 20.2m39.4-7.75l.43-10.67-.88-.39.45 11.06m-48.51 6l.59-11.12c-.35.41-.69.8-1 1.18l.44 9.94m89.63 41.05l-1.84-17c-.23-.2-.61-.52-1.08-1l1.31 12.12 1.61 5.87m-111.83 0l1.61-5.87 1.31-12.12c-.47.44-.84.77-1.08 1l-1.84 17m56.07-100.46h-.32a7.61 7.61 0 00-2.06.28 28.78 28.78 0 00-5.26 1.9 52.88 52.88 0 01-10.62 3.57 43 43 0 00-13.4 5.33c-1.86 1.14-3.77 3.62-5 5.4-1 .37-2.36.87-3.69 1.47-2.94 1.31-6.27 3.11-8 6-2.38 2-6.82 6.51-8.28 13-3.3 4.71-10.5 15.85-10.65 23.46l-.2.84-9.25 21.71a8 8 0 002 9.06l-1.6 6.8a8 8 0 004.13 8.91 8 8 0 001.42 2.13l-.41 2.19a8 8 0 006.35 9.29 8 8 0 001.3.14 7.9 7.9 0 002.61 1.57 8 8 0 007.06 8.69 8 8 0 001.7 0 8 8 0 0015.12-3.41v-42.18a8 8 0 004.06-2.35 7.6 7.6 0 002-5.53l-.15-3.32q.32-.21.62-.44a8.05 8.05 0 004 1h.45a8 8 0 007.26-5.73 7.9 7.9 0 001.78-1.45l.65-.06h.69a8 8 0 006.14-2.8 8.12 8.12 0 002.24-.62 8.12 8.12 0 002.3.41h.27a8 8 0 007.09-4.23h.62a7.9 7.9 0 005.13 4v1.06a7.6 7.6 0 002.05 5.52 8.09 8.09 0 005.63 2.54h.27a8 8 0 006.51-3.28h.26q.35 0 .7-.05a7.63 7.63 0 002 4.09 230 230 0 006.91 3.92 7.69 7.69 0 001.67 2.82 8 8 0 002.58 1.85v39.4a8 8 0 0011.19 7.3 7.93 7.93 0 004.75 1.57 8 8 0 007.92-8.74 7.9 7.9 0 002.61-1.57 8 8 0 001.3-.14 8 8 0 006.35-9.29l-.41-2.19a8 8 0 001.42-2.13 8 8 0 004.13-8.91l-1.6-6.8a8 8 0 002-9.06l-9.27-21.71-.2-.84c-.15-7.6-7.36-18.75-10.65-23.46-1.45-6.51-5.9-11-8.28-13-1.71-2.85-5-4.66-8-6-1.33-.59-2.65-1.09-3.69-1.47-1.22-1.78-3.12-4.26-5-5.4a43 43 0 00-13.4-5.33 52.87 52.87 0 01-10.62-3.57 28.78 28.78 0 00-5.26-1.9 7.61 7.61 0 00-2.06-.28z"/><rect class="cls-8" x="349.39" y="255.56" width="3.92" height="46.62" rx="1.96" ry="1.96"/><rect class="cls-8" x="446.51" y="255.56" width="3.92" height="46.62" rx="1.96" ry="1.96" transform="rotate(180 448.47 278.875)"/><rect class="cls-8" x="345.57" y="250.32" width="3.92" height="46.62" rx="1.96" ry="1.96" transform="rotate(15.33 347.472 273.573)"/><rect class="cls-15" x="442.73" y="256.96" width="3.92" height="46.62" rx="1.96" ry="1.96" transform="rotate(-180 444.69 280.27)"/><rect class="cls-15" x="448.47" y="257.94" width="3.92" height="46.62" rx="1.96" ry="1.96" transform="rotate(173.82 450.414 281.271)"/><rect class="cls-8" x="347.43" y="257.94" width="3.92" height="46.62" rx="1.96" ry="1.96" transform="rotate(6.18 349.115 281.008)"/><rect class="cls-15" x="345.57" y="250.32" width="3.92" height="46.62" rx="1.96" ry="1.96" transform="rotate(6.18 347.31 273.395)"/><rect class="cls-8" x="341.3" y="244.38" width="3.92" height="46.62" rx="1.96" ry="1.96" transform="rotate(6.18 342.998 267.497)"/><rect class="cls-8" x="450.32" y="250.32" width="3.92" height="46.62" rx="1.96" ry="1.96" transform="rotate(164.67 452.275 273.634)"/><rect class="cls-8" x="450.32" y="250.32" width="3.92" height="46.62" rx="1.96" ry="1.96" transform="rotate(173.82 452.27 273.644)"/><rect class="cls-15" x="338.73" y="247.88" width="3.92" height="46.62" rx="1.96" ry="1.96" transform="rotate(10.66 340.747 271.269)"/><rect class="cls-8" x="338.08" y="239" width="3.92" height="46.62" rx="1.96" ry="1.96" transform="rotate(13.24 339.91 262.214)"/><rect class="cls-8" x="338.73" y="227.57" width="3.92" height="46.62" rx="1.96" ry="1.96" transform="rotate(13.24 340.592 250.782)"/><rect class="cls-15" x="334.46" y="235.2" width="3.92" height="46.62" rx="1.96" ry="1.96" transform="rotate(13.24 336.28 258.4)"/><rect class="cls-8" x="337.1" y="221.78" width="3.92" height="46.62" rx="1.96" ry="1.96" transform="rotate(23.09 339.032 245.043)"/><rect class="cls-15" x="353.17" y="262.31" width="3.92" height="46.62" rx="1.96" ry="1.96"/><path id="skin-2" data-name="skin" class="cls-2" d="M446.38 253.1c0-.91.08-1.81.08-2.73 0-30.51-21.06-55.25-47-55.25s-47 24.74-47 55.25c0 1.11 0 2.21.1 3.31-4 2.46-6.9 8.44-6.9 15.43 0 9.19 4.93 16.64 11 16.64a7.47 7.47 0 002.1-.31c.82 24.5 18.74 44.08 40.73 44.08s40.12-19.81 40.74-44.5a7.65 7.65 0 003.25.74c6.08 0 11-7.45 11-16.64-.05-7.65-3.48-14.06-8.1-16.02z"/><path class="cls-8" d="M436.26 211.89c-5.45-12.44-24-15.69-24-15.69l-12.26-.3-12.17.3s-18.6 3.24-24 15.69c0 0-9 8.4-10.62 26.36 0 0 14-20.33 17.15-26s18.35-1.68 29.69-1.68 26.59-4 29.73 1.68 17.15 26 17.15 26c-1.72-17.96-10.67-26.36-10.67-26.36z"/><path class="cls-8" d="M399.42 332.51c-22.68 0-41.28-19-43.53-43.79-7.52-.49-13.31-8.93-13.31-19.61 0-7 2.64-13.45 6.84-16.92v-1.82c0-32.12 22.45-58.25 50-58.25s50 26.13 50 58.25v1c4.85 3.17 8 10 8 17.76 0 11-6.15 19.64-14 19.64H443c-2.3 24.79-20.83 43.74-43.58 43.74zm-40.73-50.08a3 3 0 013 2.9c.77 23.09 17.35 41.18 37.73 41.18 20.58 0 37.15-18.26 37.74-41.58a3 3 0 014.27-2.64 4.68 4.68 0 002 .46c4.34 0 8-6.24 8-13.64 0-7-3.13-11.94-6.21-13.24a3 3 0 01-1.83-2.89v-.18c0-.8.07-1.61.07-2.42 0-28.81-19.75-52.25-44-52.25s-44 23.44-44 52.25c0 .92 0 1.89.09 3.16a3 3 0 01-1.44 2.71c-3.27 2-5.46 7.16-5.46 12.86 0 7.39 3.67 13.64 8 13.64a4.49 4.49 0 001.26-.19 3 3 0 01.78-.13z"/><path class="cls-8" d="M400 193.5s3.58-9 0-8.83c-3.21.11-7.4 3.56-16.92 5.62a37.13 37.13 0 00-11.54 4.58c-1.33.82-3.83 4.66-4.21 5.3 0 0-10.21 3.08-10.71 6.21 0 0-6.5 4.5-7.5 11.63 0 0-10.85 15-10.3 21.7 0 0 3.7 17.67 6.75 22.61 0 0 9.05-7.06 8.18-15.44s2.63-10.62 2.63-10.62 1.71-4.65 5.58-5.24 10.72-14.15 13.65-10.88c4.21 4.7 20.39-1.87 22.39 0s4-21.14 2-26.64z"/><path class="cls-8" d="M395.31 238a1.85 1.85 0 01-1.89-1.82l1.58-38.33a1.88 1.88 0 012-1.69 1.85 1.85 0 011.89 1.82l-1.55 38.32a1.88 1.88 0 01-2.03 1.7zm-5.76.26a1.85 1.85 0 01-1.94-1.77l.47-38.34a1.88 1.88 0 012-1.75 1.85 1.85 0 011.94 1.77l-.47 38.34a1.88 1.88 0 01-2 1.75zm-6.98 2.74a1.85 1.85 0 01-1.89-1.82l1.55-38.32a1.88 1.88 0 012-1.69 1.85 1.85 0 011.89 1.82l-1.55 38.32a1.88 1.88 0 01-2 1.69z"/><path class="cls-15" d="M384.28 241a1.83 1.83 0 01-1.8-1.89l3.42-38.22a1.91 1.91 0 012.11-1.61 1.83 1.83 0 011.8 1.89l-3.42 38.22a1.91 1.91 0 01-2.11 1.61zm-7.18 2.6a1.85 1.85 0 01-1.89-1.82l1.55-38.32a1.88 1.88 0 012-1.69 1.85 1.85 0 011.89 1.82l-1.55 38.32a1.88 1.88 0 01-2 1.69zm-9.42 3.27a1.89 1.89 0 01-1.86-1.88l2-38.29a1.85 1.85 0 012-1.64 1.89 1.89 0 011.86 1.88l-2 38.29a1.85 1.85 0 01-2 1.64z"/><path class="cls-8" d="M364.7 248.93a1.89 1.89 0 01-2-1.69l-1.7-38.31a1.85 1.85 0 011.88-1.83 1.89 1.89 0 012 1.69l1.69 38.31a1.85 1.85 0 01-1.87 1.83z"/><path class="cls-8" d="M361.31 259a1.89 1.89 0 01-2-1.69L357.59 219a1.85 1.85 0 011.88-1.83 1.89 1.89 0 012 1.69l1.69 38.31a1.85 1.85 0 01-1.85 1.83z"/><path class="cls-15" d="M357.51 260.62a1.89 1.89 0 01-2-1.69l-1.69-38.31a1.85 1.85 0 011.88-1.83 1.89 1.89 0 012 1.69l1.69 38.31a1.85 1.85 0 01-1.88 1.83z"/><path class="cls-8" d="M352.27 264.51a1.89 1.89 0 01-2-1.69l-1.69-38.31a1.85 1.85 0 011.88-1.83 1.89 1.89 0 012 1.69l1.69 38.31a1.85 1.85 0 01-1.88 1.83zm21.46-16.3a1.85 1.85 0 01-2-1.65l-1.83-38.3a1.88 1.88 0 011.87-1.87 1.85 1.85 0 012 1.65l1.83 38.3a1.88 1.88 0 01-1.87 1.87z"/><rect class="cls-15" x="454.59" y="244.38" width="3.92" height="46.62" rx="1.96" ry="1.96" transform="rotate(173.82 456.542 267.707)"/><rect class="cls-8" x="457.17" y="247.88" width="3.92" height="46.62" rx="1.96" ry="1.96" transform="rotate(169.34 459.136 271.176)"/><rect class="cls-8" x="457.81" y="239" width="3.92" height="46.62" rx="1.96" ry="1.96" transform="rotate(166.76 459.764 262.337)"/><rect class="cls-8" x="457.17" y="227.57" width="3.92" height="46.62" rx="1.96" ry="1.96" transform="rotate(166.76 459.12 250.906)"/><rect class="cls-15" x="461.44" y="235.2" width="3.92" height="46.62" rx="1.96" ry="1.96" transform="rotate(166.76 463.388 258.526)"/><rect class="cls-8" x="458.8" y="221.78" width="3.92" height="46.62" rx="1.96" ry="1.96" transform="rotate(156.91 460.754 245.101)"/><path class="cls-8" d="M399.77 193.5s-3.58-9 0-8.83c3.21.11 7.4 3.56 16.92 5.62a37.13 37.13 0 0111.54 4.58c1.33.82 3.83 4.66 4.21 5.3 0 0 10.21 3.08 10.71 6.21 0 0 6.5 4.5 7.5 11.63 0 0 10.85 15 10.3 21.7 0 0-3.7 17.67-6.75 22.61 0 0-9.05-7.06-8.18-15.44s-2.62-10.62-2.62-10.62-.87-15.58-4.75-16.17-7.52 6.26-11.89 5.88-22.3-10.51-24.3-8.63-4.69-18.34-2.69-23.84z"/><path class="cls-8" d="M403.35 233.8a1.85 1.85 0 001.89-1.82l-1.55-38.32a1.88 1.88 0 00-2-1.69 1.85 1.85 0 00-1.89 1.82l1.55 38.32a1.88 1.88 0 002 1.69z"/><path class="cls-15" d="M406.08 232.45a1.85 1.85 0 001.89-1.82l-1.55-38.32a1.88 1.88 0 00-2-1.69 1.85 1.85 0 00-1.89 1.82l1.55 38.32a1.88 1.88 0 002 1.69z"/><path class="cls-8" d="M410.25 238a1.85 1.85 0 001.89-1.82l-1.55-38.32a1.88 1.88 0 00-2-1.69 1.85 1.85 0 00-1.89 1.82l1.55 38.32a1.88 1.88 0 002 1.69z"/><path class="cls-15" d="M413 238a1.85 1.85 0 001.89-1.82l-1.55-38.32a1.88 1.88 0 00-2-1.69 1.85 1.85 0 00-1.94 1.83l1.55 38.32A1.88 1.88 0 00413 238z"/><path class="cls-8" d="M416.06 246.88a1.88 1.88 0 002-1.69l1.55-38.32a1.85 1.85 0 00-1.89-1.82 1.88 1.88 0 00-2 1.69l-1.55 38.32a1.85 1.85 0 001.89 1.82z"/><path class="cls-8" d="M422.71 243.6a1.85 1.85 0 001.89-1.82l-1.6-38.32a1.88 1.88 0 00-2-1.69 1.85 1.85 0 00-1.89 1.82l1.55 38.32a1.88 1.88 0 002.05 1.69zm4.93.8a1.85 1.85 0 001.89-1.82L428 204.27a1.88 1.88 0 00-2-1.69 1.85 1.85 0 00-1.89 1.82l1.55 38.32a1.88 1.88 0 001.98 1.68zm3.77 5.79a1.89 1.89 0 002-1.69l1.69-38.31a1.85 1.85 0 00-1.88-1.83 1.89 1.89 0 00-2 1.69l-1.69 38.31a1.85 1.85 0 001.88 1.83z"/><path class="cls-15" d="M434.85 251.93a1.89 1.89 0 002-1.69l1.69-38.31a1.85 1.85 0 00-1.88-1.83 1.89 1.89 0 00-2 1.69L433 250.1a1.85 1.85 0 001.85 1.83z"/><path class="cls-8" d="M440 256.93a1.89 1.89 0 002-1.69l1.69-38.31a1.85 1.85 0 00-1.88-1.83 1.89 1.89 0 00-2 1.69l-1.69 38.31a1.85 1.85 0 001.88 1.83z"/><path class="cls-15" d="M445.59 263.46a1.89 1.89 0 002-1.69l1.69-38.31a1.85 1.85 0 00-1.88-1.83 1.89 1.89 0 00-2 1.69l-1.69 38.31a1.85 1.85 0 001.88 1.83z"/></g></svg>