<svg id="player" xmlns="http://www.w3.org/2000/svg" viewBox="0 0 800 800"><defs><linearGradient id="linear-gradient" x1="400" y1="335.38" x2="400" y2="215.04" gradientUnits="userSpaceOnUse"><stop offset="0" stop-color="#472d1b"/><stop offset=".32" stop-color="#593b27"/><stop offset=".68" stop-color="#674530"/><stop offset="1" stop-color="#6c4933"/></linearGradient><style>.cls-1{fill:#7f5434}.cls-2{fill:#ca3227}.cls-3{fill:#333}.cls-4{fill:#e52225}.cls-5{fill:#d3aa5f}.cls-6{fill:#fff}.cls-8{fill:#3e1952}.cls-9{fill:none}.cls-12{fill:#231f20}</style></defs><g id="skin"><path id="arm-left" class="cls-1" d="M305.93 382h36.78v72.4a18.39 18.39 0 01-18.39 18.39 18.39 18.39 0 01-18.39-18.39V382z"/><path id="arm-right" class="cls-1" d="M457.19 382H494v72.4a18.39 18.39 0 01-18.39 18.39 18.39 18.39 0 01-18.39-18.39V382h-.03z"/><path id="leg-left" class="cls-1" d="M349.88 492.02h45.67v45.67h-45.67z"/><path id="leg-right" class="cls-1" d="M404.78 492.02h45.67v45.67h-45.67z"/></g><g id="boots"><path id="left" class="cls-2" d="M395.33 570.04H372.5l-22.83 1.97h-12.5l-7.5 2.53-5.25 8.5v9.83l1.91 4.17 3.84 4.05 6.33 1.95h58.83v-33z"/><path id="right" class="cls-2" d="M404.61 570.27h22.83l22.83 1.97h12.5l7.5 2.53 5.25 8.5v9.83l-1.91 4.17-3.84 4.05-6.33 1.95h-58.83v-33z"/><path class="cls-3" d="M343.87 573.25s9.08 11.67 24.83 11.25 25.92 6.58 26.25-2.67l.38-11.79zm112.05 0s-9.08 11.67-24.83 11.25-25.92 6.58-26.25-2.67l-.38-11.83z" id="details"/></g><g id="socks"><g id="socks-2" data-name="socks"><path id="left-2" data-name="left" class="cls-4" d="M349.88 522h45.67v48.04h-45.67z"/><path id="right-2" data-name="right" class="cls-4" d="M404.38 522h45.67v48.04h-45.67z"/></g><path class="cls-3" d="M350.38 528.62h45.5v8h-45.5zm54.08 0h45.5v8h-45.5z" id="details-2" data-name="details"/></g><g id="shorts"><path id="shorts-2" data-name="shorts" class="cls-3" d="M341.67 442.54h116.49v47a9.95 9.95 0 01-9.95 9.95h-96.6a9.95 9.95 0 01-9.95-9.95v-47h.01z"/><g id="details-3" data-name="details"><path class="cls-5" d="M344.5 443h3v53.63h-3zm5.75 0h3v53.63h-3z" id="left-3" data-name="left"/><path class="cls-5" d="M444.59 443h3v53.63h-3zm5.75 0h3v53.63h-3z" id="right-3" data-name="right"/></g></g><path class="cls-4" d="M306 387.9h36.71v47.83H306zm151.23 0h36.71v47.83h-36.71z" id="under-shirt"/><g id="shirt"><path id="shirt-2" data-name="shirt" class="cls-4" d="M369.5 314.8l-48.29 2.99-11.36 6.25-6.83 10.1-3.31 40.73 5.17 7.67 7.66 4.67h29.5l.17 54h114.83v-53.5l29.34-.17 7.01-4 6.99-10.5-3.4-37.33-6.83-11.84-9.77-6.08-49.84-2.99-1 21.24-6.5 6.5-11.16 3.48-11.88 2.02-15.46-3.17-11-5.66-3.66-3.84-.38-20.57z"/><g id="details-4" data-name="details"><path class="cls-6" d="M390.16 351.84h19.77v89.36h-19.77zm56.31 89.37H426.7v-85.78a5.83 5.83 0 013.2-5.2l8.11-4.1a5.83 5.83 0 018.46 5.2zm-73.09 0h-19.77v-89.88a5.83 5.83 0 018.46-5.2l8.11 4.1a5.83 5.83 0 013.2 5.2z" id="chest"/><path id="neck" class="cls-5" d="M437.2 332.44l-.87-15.27-5.83-2.37s.17 8.7-.38 20.57-20.46 12.29-20.46 12.29l-9.67.55-9.67-.55s-19.91-.42-20.46-12.29-.38-20.57-.38-20.57l-5.83 2.37-.87 15.27a15.67 15.67 0 009.85 15.46c8.62 3.42 21.36 6.32 27.35 6.32s18.74-2.89 27.35-6.32a15.67 15.67 0 009.87-15.46z"/><g id="arm-l"><path class="cls-5" d="M368 320l-34.07 1.38c-9.59.81-16.63 3.46-20.93 7.87-4.8 4.93-5.64 11.28-6.47 17.51l-.19 2.7a1.5 1.5 0 001.5 1.6 1.5 1.5 0 001.5-1.39l.18-2.6c.78-5.91 1.52-11.5 5.63-15.72 3.78-3.88 10.18-6.23 19-7l34-1.37a1.5 1.5 0 00-.12-3z"/><path class="cls-5" d="M316.1 344.2c.85-8.39 6.32-13.09 16.73-14.37 4.06-.5 33.73-2.32 34-2.34a1.5 1.5 0 00-.18-3c-1.23.08-30.06 1.84-34.22 2.35-11.84 1.45-18.35 7.19-19.35 17 0 .36-.24 2.47-.53 5.52a1.5 1.5 0 001.49 1.65 1.5 1.5 0 001.49-1.36c.33-2.99.53-5.1.57-5.45z"/></g><g id="arm-r"><path class="cls-5" d="M493.52 346.76c-.82-6.23-1.66-12.58-6.47-17.51-4.3-4.41-11.34-7.06-20.93-7.87L432.07 320a1.5 1.5 0 10-.12 3l34 1.38c8.78.75 15.18 3.1 19 7 4.11 4.22 4.85 9.8 5.63 15.72l.18 2.6a1.5 1.5 0 001.5 1.39 1.5 1.5 0 001.5-1.6z"/><path class="cls-5" d="M467.56 326.86c-4.15-.51-33-2.28-34.22-2.35a1.5 1.5 0 00-.18 3c.3 0 30 1.84 34 2.34 10.41 1.28 15.88 6 16.73 14.37 0 .35.24 2.45.53 5.5a1.5 1.5 0 001.49 1.36 1.5 1.5 0 001.49-1.65c-.29-3-.49-5.16-.53-5.52-.95-9.91-7.46-15.6-19.31-17.05z"/></g><g id="adidas"><rect id="bottom" class="cls-5" x="367.12" y="369.08" width="11.04" height="1.56" rx=".78" ry=".78"/><path class="cls-5" d="M372.7 362.76a1 1 0 00-.35 1.32l2.26 3.94a1 1 0 00.84.49h1.7l-3.15-5.4a1 1 0 00-1.3-.35zm-1.94 1.95a1 1 0 00-.36 1.31l1.11 2a1 1 0 00.85.5H374l-2-3.43a1 1 0 00-1.24-.38zm-2.13 1.71a1 1 0 00-.36 1.31l.15.27a1 1 0 00.85.5H371l-1-1.73a1 1 0 00-1.37-.35z"/></g><g id="sponsor-dafabet"><circle class="cls-4" cx="399.78" cy="382.28" r="9.16"/><path d="M400 392a10.34 10.34 0 1110.34-10.34A10.35 10.35 0 01400 392zm0-18a7.65 7.65 0 107.65 7.65A7.66 7.66 0 00400 374z" fill="#f3cb14"/><rect class="cls-3" x="361.32" y="395.67" width="77.44" height="12.3" rx="6.15" ry="6.15"/></g><g id="logo-pl-ready-16"><g id="logo-pl-16"><ellipse class="cls-6" cx="494.19" cy="361.58" rx="5.41" ry="9.46" transform="rotate(-6.7 494.217 361.575)"/><path class="cls-8" d="M495.37 371.65c-3.18.37-6.29-3.84-6.95-9.39s1.4-10.37 4.58-10.75 6.29 3.84 6.95 9.39-1.4 10.38-4.58 10.75zm-2.21-18.79c-2.75.32-4.53 4.5-4 9.3s3.26 8.45 6 8.13 4.53-4.5 4-9.3-3.25-8.45-6-8.12z"/><path class="cls-8" d="M495.47 356.16v-.07h-.09l-.28.11h-.13l-.34-.93h-.06l-.33.57h-.13l-.39-.66a.07.07 0 00-.05 0l-.23.73h-.13l-.45-.48h-.06l-.08.7v.29h-.45v.22l.17.7v.2h.15a4.2 4.2 0 011.4-.49 3.76 3.76 0 011.51.15h.14v-1.16z"/><path class="cls-9" d="M494.4 365s-.09-1-.18-1.9a.66.66 0 01-.23-.46l-.12-1c0-.42-.28-.73-.52-.7l-.45.05c-.24 0-.39.39-.34.8l.09.79c0 .42.28.73.52.7l.16 1.32c.06.54.36.94.67.91v.33z"/><path class="cls-8" d="M496.44 358.59a3.92 3.92 0 00-5.15.6 10.81 10.81 0 00.34 3.71l.66 2c.53 1.61 1.68 3.58 2.68 3.47s1.66-2.3 1.8-4l.18-2.1a10.81 10.81 0 00-.51-3.68zm-3.11 6l-.16-1.32c-.24 0-.47-.29-.52-.7l-.09-.79c0-.42.1-.78.34-.8l.45-.05c.24 0 .47.29.52.7l.12 1a.66.66 0 00.23.46c.09.86.18 1.88.18 1.9l-.4.52c-.3.05-.61-.35-.67-.89zm1.56 2.19h-.19c-.18 0-.41-.27-.56-.54a.41.41 0 010-.34 3.4 3.4 0 01.36-.56.18.18 0 01.28 0 3.4 3.4 0 01.48.46.41.41 0 01.07.34c-.1.32-.26.65-.44.67zm1-4.6c0 .42-.1.78-.34.8l.16 1.32c.06.54-.13 1-.44 1l-.51-.41s-.15-1-.27-1.89a.66.66 0 00.12-.5l-.12-1c0-.42.1-.78.34-.8l.45-.05c.24 0 .47.29.52.7z"/></g><g id="logo-pl-16-2" data-name="logo-pl-16"><ellipse class="cls-6" cx="305.98" cy="361.58" rx="9.46" ry="5.41" transform="rotate(-83.3 305.977 361.578)"/><path class="cls-8" d="M300.22 360.91c.65-5.55 3.77-9.77 6.95-9.39s5.23 5.19 4.58 10.75-3.75 9.73-6.95 9.38-5.24-5.19-4.58-10.74zm.78.09c-.56 4.81 1.21 9 4 9.3s5.45-3.32 6-8.13-1.21-9-4-9.3-5.44 3.32-6 8.13z"/><path class="cls-8" d="M304.69 356.16v-.07h.09l.28.11h.13l.34-.93h.06l.33.57h.13l.39-.66a.07.07 0 01.05 0l.23.73h.13l.45-.48h.06l.08.7v.29h.45v.22l-.17.7v.2h-.15a4.2 4.2 0 00-1.4-.49 3.76 3.76 0 00-1.51.15h-.14v-1.16z"/><path class="cls-9" d="M305.76 365s.09-1 .18-1.9a.66.66 0 00.23-.46l.12-1c0-.42.28-.73.52-.7l.45.05c.24 0 .39.39.34.8l-.09.79c0 .42-.28.73-.52.7l-.16 1.32c-.06.54-.36.94-.67.91v.33z"/><path class="cls-8" d="M303.2 362.28l.18 2.1c.15 1.69.8 3.88 1.8 4s2.15-1.85 2.68-3.47l.66-2a10.81 10.81 0 00.34-3.71 3.92 3.92 0 00-5.15-.6 10.81 10.81 0 00-.51 3.68zm3 3.25l-.4-.52s.09-1 .18-1.9a.66.66 0 00.23-.46l.12-1c0-.42.28-.73.52-.7l.45.05c.24 0 .39.39.34.8l-.09.79c0 .42-.28.73-.52.7l-.16 1.32c-.1.55-.4.95-.71.92zm-1.31.63a.41.41 0 01.07-.34 3.4 3.4 0 01.48-.46.18.18 0 01.28 0 3.4 3.4 0 01.36.56.41.41 0 010 .34c-.15.28-.38.56-.56.54h-.19c-.24-.01-.4-.34-.48-.65zm-.5-4.73c0-.42.28-.73.52-.7l.45.05c.24 0 .39.39.34.8l-.12 1a.66.66 0 00.12.5c-.12.86-.26 1.87-.27 1.89l-.51.41c-.31 0-.51-.5-.44-1l.16-1.32c-.24 0-.39-.39-.34-.8z"/></g></g><g id="crest-sunderland-16"><path class="cls-6" d="M429.23 359.48a3.58 3.58 0 013.58 3.58v4.33a7 7 0 01-.47 2.57h.07a1.13 1.13 0 011.13 1.13v.12a1.13 1.13 0 01-.85 1.1L430 373a9.14 9.14 0 01-1.88 1.06 2 2 0 00-.35.26 1.29 1.29 0 01-2 0 2 2 0 00-.35-.26 9.14 9.14 0 01-1.88-1.06l-2.73-.7a1.13 1.13 0 01-.85-1.1v-.13a1.13 1.13 0 011.13-1.13h.06a7 7 0 01-.47-2.56v-4.33a3.58 3.58 0 013.58-3.58h5.07m-2.45 11.78a3.49 3.49 0 00.88-.11l3.49-.91a5.9 5.9 0 00.7-2.85v-4.33a2.62 2.62 0 00-2.62-2.62h-5.07a2.62 2.62 0 00-2.62 2.62v4.33a5.9 5.9 0 00.69 2.83l3.69.93a3.49 3.49 0 00.85.11m-.08 2.61a.81.81 0 00.25-.15h-.51a.79.79 0 00.26.15m2.53-15.06h-5.07a4.26 4.26 0 00-4.25 4.25v4.33a7.83 7.83 0 00.27 2.07 1.82 1.82 0 00-.45.33 1.79 1.79 0 00-.54 1.29v.13a1.81 1.81 0 001.36 1.75l2.6.66a9.92 9.92 0 001.91 1.06l.19.15a1.94 1.94 0 002.91 0 2.11 2.11 0 01.22-.17 9.74 9.74 0 001.88-1l2.6-.67a1.81 1.81 0 001.36-1.75v-.12a1.81 1.81 0 00-1-1.62 7.83 7.83 0 00.27-2.08v-4.33a4.26 4.26 0 00-4.25-4.25zm-6.53 10.84a5.3 5.3 0 01-.48-2.25v-4.33a2 2 0 011.95-1.95h5.07a2 2 0 011.95 1.95v4.33a5.29 5.29 0 01-.49 2.28l-3.2.83a2.81 2.81 0 01-1.39 0l-3.39-.86z"/><path class="cls-6" d="M432.33 367.15v-4.09a3.1 3.1 0 00-3.1-3.1h-2.53v7.19z"/><path class="cls-4" d="M426.7 360h-2.53a3.1 3.1 0 00-3.1 3.1v4.09h5.63zm0 7.15v7.19c.41 0 .81-.56 1.19-.72a6.66 6.66 0 004.44-6.24v-.24z"/><path class="cls-6" d="M421.07 367.15v.24a6.66 6.66 0 004.44 6.24c.38.16.79.72 1.19.72v-7.19z"/><path class="cls-5" d="M426.07 359.96h1.41v14.39h-1.41zm3.42.04h1.41v11.36a1.41 1.41 0 01-1.41 1.41V360zm-6.99 0h1.41v12.78a1.41 1.41 0 01-1.41-1.41V360z"/><path class="cls-3" d="M426.7 374.82a1.67 1.67 0 01-1-.5 2 2 0 00-.35-.26 8.09 8.09 0 01-3.43-2.61 6.71 6.71 0 01-1.3-4.07v-4.33a3.58 3.58 0 013.58-3.58h5.07a3.58 3.58 0 013.58 3.58v4.33a6.71 6.71 0 01-1.3 4.07 8.09 8.09 0 01-3.43 2.61 2 2 0 00-.35.26 1.67 1.67 0 01-1.07.5zm-2.53-14.39a2.62 2.62 0 00-2.62 2.62v4.33a6.16 6.16 0 004.15 5.8 2.49 2.49 0 01.59.4 1.59 1.59 0 00.42.29 1.66 1.66 0 00.41-.29 2.49 2.49 0 01.59-.4 6.16 6.16 0 004.15-5.8v-4.33a2.62 2.62 0 00-2.62-2.62zm3.72 13.19z"/><path class="cls-4" d="M432.68 372.3l-5.12 1.31a3.49 3.49 0 01-1.73 0l-5.12-1.31a1.13 1.13 0 01-.85-1.1v-.13a1.13 1.13 0 011.41-1.1l4.66 1.17a3.49 3.49 0 001.73 0l4.46-1.16a1.13 1.13 0 011.41 1.09v.12a1.13 1.13 0 01-.85 1.11z"/></g></g></g><path id="neck-2" data-name="neck" fill="#63422b" d="M427.63 340.26l-27.59 8.62-28.6-9.62-1.92-23.62h61.04l-2.93 24.62z"/><path d="M502.88 368.43l-2.47-30.36c-1.19-11.87-11.83-22.25-23.72-23.14l-37.14-2.71c-4.07-.45-20.52-.09-39.55.53-19-.62-35.48-1-39.55-.53l-37.14 2.71c-11.89.89-22.53 11.27-23.72 23.14l-2.47 30.36a20.15 20.15 0 005 15.74 19.92 19.92 0 001.69 1.64v66.36c0 12.81 9.32 23.22 20.78 23.22a19.8 19.8 0 0015.25-7.39v21.79a12.23 12.23 0 007.74 11.36v68h-5.93c-10.93 0-19.83 5.8-19.83 17.11 0 8.06 0 17 11.72 19.7v1.6a1.38 1.38 0 001.38 1.38h1.63a1.38 1.38 0 001.38-1.37v-.95c1.16.09 2.39.15 3.73.15h1.89v.8a1.38 1.38 0 001.38 1.38h1.63a1.38 1.38 0 001.38-1.37v-.8h5.62v.8a1.38 1.38 0 001.38 1.38h1.63a1.38 1.38 0 001.38-1.37v-.8h5.62v.8a1.38 1.38 0 001.38 1.38h1.63a1.38 1.38 0 001.38-1.37v-.8h5.62v.8a1.38 1.38 0 001.38 1.38h1.63a1.38 1.38 0 001.38-1.37v-.8h5.62v.8a1.38 1.38 0 001.38 1.38h1.63a1.38 1.38 0 001.38-1.37v-.8h5.62v.8a1.38 1.38 0 001.38 1.38h1.63a1.38 1.38 0 001.38-1.37v-.81l.06-55.45V502h4v49.21l.06 54.67v1.6a1.38 1.38 0 001.38 1.38h1.63a1.38 1.38 0 001.38-1.37v-.8h5.62v.8a1.38 1.38 0 001.38 1.38h1.63a1.38 1.38 0 001.38-1.37v-.8h5.62v.8a1.38 1.38 0 001.38 1.38h1.63a1.38 1.38 0 001.38-1.37v-.8h5.62v.8a1.38 1.38 0 001.38 1.38h1.63a1.38 1.38 0 001.38-1.37v-.8h5.62v.8a1.38 1.38 0 001.38 1.38h1.63a1.38 1.38 0 001.38-1.37v-.8h5.62v.8a1.38 1.38 0 001.38 1.38h1.63a1.38 1.38 0 001.38-1.37v-.8h1.89c1.33 0 2.57-.05 3.72-.15v.95a1.38 1.38 0 001.38 1.38h1.63a1.38 1.38 0 001.38-1.37v-1.6c11.71-2.68 11.72-11.64 11.72-19.7 0-11.3-8.89-17.11-19.83-17.11h-5.93v-68a12.23 12.23 0 007.74-11.36V468a19.8 19.8 0 0015.21 7.42c11.46 0 20.78-10.42 20.78-23.22v-66.39a19.92 19.92 0 001.69-1.64 20.15 20.15 0 004.95-15.74zm-130.49-46.18c3.46 1.84 15.64 2.07 27.61 1.79 12 .28 24.15 0 27.61-1.79V334c0 4.8-22.42 12-27.23 12l-.38-.08-.38.08c-4.8 0-27.23-7.19-27.23-12zm-33 75.43v34.59h-29.54V389.9a21.08 21.08 0 007.47 1.36h22.09zm-14.78 72.24c-8.15 0-14.78-7.73-14.78-17.22v-14h29.57v14c.01 9.49-6.62 17.22-14.77 17.22zm67.68 131.18h-50.64c-14.22 0-14.22-5-14.22-14.89 0-8.21 6.38-11.5 14.22-11.5h11.67l38.93-2.71.06 15.37zm-38.74-76.4h38.67v41.7l-38.67 2.68h-.26V524.7zm-.26-5.74V502h38.94v17h-38.91zm104.77 55.75h.26c7.84 0 14.22 3.29 14.22 11.5 0 9.91 0 14.89-14.22 14.89h-50.64v-13.7l.06-15.37 38.93 2.69h11.42zm-11.67-50h.26v44.4h-.26l-38.67-2.68V524.7zM407.75 519v-17h38.95v17h-38.95zm46.84-73.77h-.07v44.58a6.6 6.6 0 01-6.58 6.58H403s-.11-3.73-.16-8.75v-2.79c0-3.51-1.41-5.09-2.82-5-1.41-.09-2.82 1.49-2.82 5v2.79c0 5-.16 8.75-.16 8.75H352.1a6.6 6.6 0 01-6.58-6.58v-44.63h-.07v-.33l30.24.33h48.69l30.24-.33zm35.57-12.91h-29.57v-41h22.09a21.08 21.08 0 007.47-1.36zm-14.78 37.64c-8.15 0-14.78-7.73-14.78-17.22v-14h29.57v14c-.02 9.45-6.65 17.18-14.8 17.18zm20.78-94.44a13.53 13.53 0 01-6 7.29 14.69 14.69 0 01-7.47 2l-22.09.09v-20.18c0-5.56-6.07-5.94-6.07 0s.07 14.37.07 14.37v59.59H345.41v-59.61s.07-8.46.07-14.37-6.07-5.54-6.07 0v20.11l-22.09-.09a14.69 14.69 0 01-7.47-2 13.53 13.53 0 01-6-7.29 14.89 14.89 0 01-.75-6.46l2.47-30.36c.89-9 9.23-17.08 18.2-17.75l11.12-.83 32.22-2.29c.68.54.48 17.49.48 17.49 0 8.43 23.34 15.29 31.77 15.29h1.3c8.43 0 31.77-6.86 31.77-15.29 0 0-.2-16.95.48-17.49l32.22 2.29 11.12.83c9 .67 17.3 8.8 18.2 17.75L496.9 369a14.89 14.89 0 01-.75 6.48z"/><g id="head"><path id="skin-2" data-name="skin" class="cls-1" d="M446.38 253.1c0-.91.08-1.81.08-2.73 0-30.51-21.06-55.25-47-55.25s-47 24.74-47 55.25c0 1.11 0 2.21.1 3.31-4 2.46-6.9 8.44-6.9 15.43 0 9.19 4.93 16.64 11 16.64a7.47 7.47 0 002.1-.31c.82 24.5 18.74 44.08 40.73 44.08s40.12-19.81 40.74-44.5a7.65 7.65 0 003.25.74c6.08 0 11-7.45 11-16.64-.05-7.65-3.48-14.06-8.1-16.02z"/><path d="M446.23 246.17c-.15-8.26-1.25-19.6-5.74-26.16-7.65-11.17-5.48 0-5.48 0l4.27 21.83a72.68 72.68 0 01.19 26.91l-4.28 23.65-3.39 3.6a10.48 10.48 0 01-10.8 2.71l-20.25.42-20.25-.42a10.48 10.48 0 01-10.89-2.71l-4.71-5-4.18-21.94a72.68 72.68 0 01.07-27.56L365 220s2.17-11.17-5.48 0-5.52 36.24-5.52 36.24a4.29 4.29 0 001.09-.29c.47 11.56 1.47 29.16 3.28 32.54a10 10 0 002.56 3.2c0 2.24 0 5.19.13 8.67.32 8.13 14.3 23 20.55 28.25s19 6.75 19 6.75 12.79-1.5 19-6.75S440 308.5 440.3 300.38c.17-4.28.16-7.74.11-10.08a12 12 0 001.17-1.8c1.82-3.4 3.27-20.92 4-32.33.11 0 .22.06.34.08s.41-4.25.31-10.08zm-32.69 63a10.36 10.36 0 01-10.39 11.57h-4.89a10.36 10.36 0 01-10.39-11.57c.39-2.86 1.74-4.56 6-4.56h13.71c4.22.02 5.56 1.71 5.96 4.57z" opacity=".5" fill="url(#linear-gradient)"/><path class="cls-12" d="M399.42 332.51c-22.68 0-41.28-19-43.53-43.79-7.52-.49-13.31-8.93-13.31-19.61 0-7 2.64-13.45 6.84-16.92v-1.82c0-32.12 22.45-58.25 50-58.25s50 26.13 50 58.25v1c4.85 3.17 8 10 8 17.76 0 11-6.15 19.64-14 19.64H443c-2.3 24.79-20.83 43.74-43.58 43.74zm-40.73-50.08a3 3 0 013 2.9c.77 23.09 17.35 41.18 37.73 41.18 20.58 0 37.15-18.26 37.74-41.58a3 3 0 014.27-2.64 4.68 4.68 0 002 .46c4.34 0 8-6.24 8-13.64 0-7-3.13-11.94-6.21-13.24a3 3 0 01-1.83-2.89v-.18c0-.8.07-1.61.07-2.42 0-28.81-19.75-52.25-44-52.25s-44 23.44-44 52.25c0 .92 0 1.89.09 3.16a3 3 0 01-1.44 2.71c-3.27 2-5.46 7.16-5.46 12.86 0 7.39 3.67 13.64 8 13.64a4.49 4.49 0 001.26-.19 3 3 0 01.78-.13z"/><path class="cls-12" d="M447.92 220.83c0-3.15.4-5.93-.54-8.41a23.2 23.2 0 00-3.86-6.58c-1.82-2.2-4.89-2.84-7.35-4.35s-3.72-4.12-5.71-5.43a32.34 32.34 0 00-8.7-3.95 30.33 30.33 0 00-7.42-2.2 35.17 35.17 0 00-8.67-.67 22.19 22.19 0 01-5.67-.06 22.19 22.19 0 01-5.67.06 34.59 34.59 0 00-8.67.58 30.88 30.88 0 00-7.42 2.28 32.34 32.34 0 00-8.7 3.95c-2 1.31-3.36 4-5.71 5.43s-5.53 2.15-7.35 4.35a23.2 23.2 0 00-3.86 6.58c-.94 2.48-.59 5.26-.54 8.41 0 0-2.29 14.92 4.17 8.79 0 0 12-7.62 13.5-12s22.25-8.83 30.25-8.83 28.75 4.47 30.25 8.84 13.5 12 13.5 12c6.46 6.14 4.17-8.79 4.17-8.79z"/></g></svg>