<svg id="player" xmlns="http://www.w3.org/2000/svg" viewBox="0 0 800 800"><defs><style>.cls-1{fill:#efc7b0}.cls-2{fill:#414042}.cls-3{fill:#fff}.cls-4{fill:#ec2027}.cls-5{fill:#495aa8}.cls-6{fill:#ffcb58}.cls-8{fill:#231f20}</style></defs><g id="skin"><path id="arm-left" class="cls-1" d="M305.93 382h36.78v72.4a18.39 18.39 0 01-18.39 18.39 18.39 18.39 0 01-18.39-18.39V382z"/><path id="arm-right" class="cls-1" d="M457.19 382H494v72.4a18.39 18.39 0 01-18.39 18.39 18.39 18.39 0 01-18.39-18.39V382h-.03z"/><path id="leg-left" class="cls-1" d="M349.88 492.02h45.67v45.67h-45.67z"/><path id="leg-right" class="cls-1" d="M404.78 492.02h45.67v45.67h-45.67z"/></g><g id="boots"><g id="boots-2" data-name="boots"><path id="left" class="cls-2" d="M395.33 570.04H372.5l-22.83 1.97h-12.5l-7.5 2.53-5.25 8.5v9.83l1.91 4.17 3.84 4.05 6.33 1.95h58.83v-33z"/><path id="right" class="cls-2" d="M404.61 570.27h22.83l22.83 1.97h12.5l7.5 2.53 5.25 8.5v9.83l-1.91 4.17-3.84 4.05-6.33 1.95h-58.83v-33z"/></g><g id="details"><path class="cls-3" d="M369.47 572s-18.25 18-16.37 31.25l14.5-.23s22.63-14.91 16.75-31.54zm61.16 0s18.25 18 16.38 31.25L432.5 603s-22.62-14.91-16.75-31.54z"/><path class="cls-4" d="M343.32 572s30.7 28.32 52 12.82V569.1zm113.42 0s-30.7 28.32-52 12.82V569.1z"/></g></g><g id="socks"><g id="socks-2" data-name="socks"><g id="socks-3" data-name="socks"><path id="left-2" data-name="left" class="cls-4" d="M349.88 522h45.67v48.04h-45.67z"/><path id="right-2" data-name="right" class="cls-4" d="M404.38 522h45.67v48.04h-45.67z"/></g></g><g id="details-2" data-name="details"><path id="left-3" data-name="left" class="cls-3" d="M349.88 555.62h45.67v13.47h-45.67z"/><path id="right-3" data-name="right" class="cls-3" d="M404.78 555.62h45.67v13.47h-45.67z"/></g></g><g id="shorts"><g id="shorts-2" data-name="shorts"><path id="shorts-3" data-name="shorts" class="cls-3" d="M341.67 442.54h116.49v47a9.95 9.95 0 01-9.95 9.95h-96.6a9.95 9.95 0 01-9.95-9.95v-47h.01z"/></g><g id="details-3" data-name="details"><g id="left-4" data-name="left"><path id="stripe-2" class="cls-4" d="M345.41 441.21h3.63v55.14h-3.63z"/><path id="stripe-1" class="cls-5" d="M352.05 441.21h3.63v55.14h-3.63z"/></g><g id="right-4" data-name="right"><path id="stripe-2-2" data-name="stripe-2" class="cls-4" transform="rotate(-180 452.77 468.775)" d="M450.95 441.21h3.63v55.14h-3.63z"/><path id="stripe-1-2" data-name="stripe-1" class="cls-5" transform="rotate(-180 446.14 468.775)" d="M444.32 441.21h3.63v55.14h-3.63z"/></g></g></g><g id="shirt"><g id="shirt-2" data-name="shirt"><path id="shirt-3" data-name="shirt" class="cls-5" d="M369.5 314.8l-48.29 2.99-7.22 3.97-4.14 2.28-6.83 10.1-3.31 40.73 5.17 7.67 7.66 4.67h29.5l.17 54h114.83v-53.5l29.34-.17 7.01-4 6.99-10.5-3.4-37.33-6.83-11.84-9.77-6.08-49.84-2.99-1 21.24-6.5 6.5-11.16 3.48-11.88 2.02-15.46-3.17-11-5.66-3.66-3.84-.38-20.57z"/></g><g id="details-4" data-name="details"><g id="left-5" data-name="left"><path id="white" class="cls-3" d="M342.6 372.02h-34.14l4.13-48.27-9.04 9.04-3.84 42.08 7.71 9.38.24-2.84h34.27l.67-9.39z"/><path id="red" class="cls-4" d="M299.71 374.72h39.7v4h-39.7z"/></g><g id="right-5" data-name="right"><path id="white-2" data-name="white" class="cls-3" d="M500.08 374.87l-3.83-42.08-9.05-9.04 4.13 48.27h-34.14l.67 9.39h34.27l.24 2.84 7.71-9.38z"/><path id="red-2" data-name="red" class="cls-4" transform="rotate(-180 480.23 376.715)" d="M460.38 374.72h39.7v4h-39.7z"/></g><path id="neck" class="cls-3" d="M436.17 338v-22.36h-72.51V338c0 12.33 33.68 19.92 36.25 19.92 2.32-.01 36.26-7.84 36.26-19.92z"/><g id="adidas"><path id="top" class="cls-3" d="M402.34 375.64h-5.46a1 1 0 01-.76-1.54l4.54-5.93a1.13 1.13 0 012 .43l1.2 5.11a1.56 1.56 0 01-1.52 1.93z"/><rect id="bottom" class="cls-3" x="395.93" y="376.7" width="7.98" height="1.23" rx=".62" ry=".62"/></g><g id="text"><rect class="cls-3" x="351.4" y="372.73" width="17.18" height="1.28" rx=".64" ry=".64"/><rect class="cls-3" x="351.4" y="375.64" width="12.07" height="1.28" rx=".54" ry=".54"/></g><rect class="cls-4" x="351.4" y="389.9" width="97.19" height="8.82" rx="4.41" ry="4.41"/><rect class="cls-3" x="351.4" y="406.72" width="97.19" height="3.34" rx="1.67" ry="1.67"/><rect class="cls-3" x="351.4" y="418.06" width="97.19" height="3.34" rx="1.67" ry="1.67"/><rect class="cls-3" x="351.4" y="428.41" width="97.19" height="3.34" rx="1.67" ry="1.67"/><g id="number-10"><path class="cls-3" d="M394.58 416.36a1.61 1.61 0 01-1.59-1.59v-9.54l-1.7 1.75a1.24 1.24 0 01-.89.36 1.36 1.36 0 01-1.34-1.34 1.34 1.34 0 01.41-1l3.5-3.54a1.94 1.94 0 011.36-.55 1.87 1.87 0 011.88 1.84v12a1.62 1.62 0 01-1.63 1.61z"/><path class="cls-5" d="M394.33 401a1.87 1.87 0 011.88 1.84v12a1.61 1.61 0 01-3.23 0v-9.54l-1.7 1.75a1.24 1.24 0 01-.89.36 1.36 1.36 0 01-1.34-1.34 1.34 1.34 0 01.41-1l3.5-3.54a1.94 1.94 0 011.36-.55m0-1a2.94 2.94 0 00-2.07.84l-3.5 3.55a2.33 2.33 0 00-.7 1.66 2.37 2.37 0 002.34 2.34 2.24 2.24 0 001.59-.65v7.08a2.61 2.61 0 005.23 0v-12a2.87 2.87 0 00-2.88-2.84z"/><path class="cls-3" d="M404.76 416.5c-4.34 0-6.27-3.93-6.27-7.84s1.93-7.82 6.27-7.82 6.27 3.91 6.27 7.82-1.95 7.84-6.27 7.84zm0-12.79c-2.18 0-3 2.16-3 5s.82 5 3 5 3-2.18 3-5-.84-5-3-5z"/><path class="cls-5" d="M404.76 400.85c4.32 0 6.27 3.91 6.27 7.82s-2 7.84-6.27 7.84-6.27-3.93-6.27-7.84 1.93-7.82 6.27-7.82m0 12.79c2.16 0 3-2.18 3-5s-.82-5-3-5-3 2.16-3 5 .82 5 3 5m0-13.79c-3.62 0-7.27 2.73-7.27 8.82s3.65 8.84 7.27 8.84c5 0 7.27-4.58 7.27-8.84 0-6.09-3.65-8.82-7.27-8.82zm0 12.79c-1.65 0-2-2.16-2-4s.35-4 2-4 2 2.15 2 4-.34 4-2 4z"/></g><g id="france-crest-2006"><path class="cls-6" d="M442.68 380.54h-6.59a2 2 0 01-1.95-1.95v-.7a2 2 0 011.95-1.95h6.59a2 2 0 011.95 1.95v.7a2 2 0 01-1.95 1.95zm-6.24-.7h5.89a1.6 1.6 0 001.6-1.6 1.6 1.6 0 00-1.6-1.6h-5.89a1.6 1.6 0 00-1.6 1.6 1.6 1.6 0 001.6 1.6z"/><rect class="cls-6" x="435.79" y="377.49" width="7.18" height="1.51" rx=".67" ry=".67"/><path class="cls-6" d="M437.6 364.23a10.94 10.94 0 00-1.39 5.07c0 2-.43 2.06 2.52 6.31 1 1.41 1.48.33 1.48.33l.31-3.54 2.63.81a.72.72 0 00.91-.52 28 28 0 00.61-3.46 3.16 3.16 0 00-4.64-3.12s.55-2.42-1-2.61a1.5 1.5 0 00-1.43.73z"/></g></g></g><path id="neck-2" data-name="neck" fill="#cca997" d="M427.63 340.26l-27.59 8.62-28.6-9.62-1.92-23.62h61.04l-2.93 24.62z"/><path d="M502.88 368.43l-2.47-30.36c-1.19-11.87-11.83-22.25-23.72-23.14l-37.14-2.71c-4.07-.45-20.52-.09-39.55.53-19-.62-35.48-1-39.55-.53l-37.14 2.71c-11.89.89-22.53 11.27-23.72 23.14l-2.47 30.36a20.15 20.15 0 005 15.74 19.92 19.92 0 001.69 1.64v66.36c0 12.81 9.32 23.22 20.78 23.22a19.8 19.8 0 0015.25-7.39v21.79a12.23 12.23 0 007.74 11.36v68h-5.93c-10.93 0-19.83 5.8-19.83 17.11 0 8.06 0 17 11.72 19.7v1.6a1.38 1.38 0 001.38 1.38h1.63a1.38 1.38 0 001.38-1.37v-.95c1.16.09 2.39.15 3.73.15h1.89v.8a1.38 1.38 0 001.38 1.38h1.63a1.38 1.38 0 001.38-1.37v-.8h5.62v.8a1.38 1.38 0 001.38 1.38h1.63a1.38 1.38 0 001.38-1.37v-.8h5.62v.8a1.38 1.38 0 001.38 1.38h1.63a1.38 1.38 0 001.38-1.37v-.8h5.62v.8a1.38 1.38 0 001.38 1.38h1.63a1.38 1.38 0 001.38-1.37v-.8h5.62v.8a1.38 1.38 0 001.38 1.38h1.63a1.38 1.38 0 001.38-1.37v-.8h5.62v.8a1.38 1.38 0 001.38 1.38h1.63a1.38 1.38 0 001.38-1.37v-.81l.06-55.45V502h4v49.21l.06 54.67v1.6a1.38 1.38 0 001.38 1.38h1.63a1.38 1.38 0 001.38-1.37v-.8h5.62v.8a1.38 1.38 0 001.38 1.38h1.63a1.38 1.38 0 001.38-1.37v-.8h5.62v.8a1.38 1.38 0 001.38 1.38h1.63a1.38 1.38 0 001.38-1.37v-.8h5.62v.8a1.38 1.38 0 001.38 1.38h1.63a1.38 1.38 0 001.38-1.37v-.8h5.62v.8a1.38 1.38 0 001.38 1.38h1.63a1.38 1.38 0 001.38-1.37v-.8h5.62v.8a1.38 1.38 0 001.38 1.38h1.63a1.38 1.38 0 001.38-1.37v-.8h1.89c1.33 0 2.57-.05 3.72-.15v.95a1.38 1.38 0 001.38 1.38h1.63a1.38 1.38 0 001.38-1.37v-1.6c11.71-2.68 11.72-11.64 11.72-19.7 0-11.3-8.89-17.11-19.83-17.11h-5.93v-68a12.23 12.23 0 007.74-11.36V468a19.8 19.8 0 0015.21 7.42c11.46 0 20.78-10.42 20.78-23.22v-66.39a19.92 19.92 0 001.69-1.64 20.15 20.15 0 004.95-15.74zm-130.49-46.18c3.46 1.84 15.64 2.07 27.61 1.79 12 .28 24.15 0 27.61-1.79V334c0 4.8-22.42 12-27.23 12l-.38-.08-.38.08c-4.8 0-27.23-7.19-27.23-12zm-33 75.43v55c0 9.5-6.63 17.22-14.78 17.22s-14.78-7.73-14.78-17.22V389.9a21.08 21.08 0 007.47 1.36h22.09zm52.9 203.42h-50.64c-14.22 0-14.22-5-14.22-14.89 0-8.21 6.38-11.5 14.22-11.5h11.67l38.93-2.71.06 15.37zm-38.74-76.4h38.67v41.7l-38.67 2.68h-.26V524.7zm-.26-5.74V502h38.94v17h-38.91zm104.77 55.75h.26c7.84 0 14.22 3.29 14.22 11.5 0 9.91 0 14.89-14.22 14.89h-50.64v-13.7l.06-15.37 38.93 2.69h11.42zm-11.67-50h.26v44.4h-.26l-38.67-2.68V524.7zM407.75 519v-17h38.95v17h-38.95zm46.84-73.77h-.07v44.58a6.6 6.6 0 01-6.58 6.58H403s-.11-3.73-.16-8.75v-2.79c0-3.51-1.41-5.09-2.82-5-1.41-.09-2.82 1.49-2.82 5v2.79c0 5-.16 8.75-.16 8.75H352.1a6.6 6.6 0 01-6.58-6.58v-44.63h-.07v-.33l30.24.33h48.69l30.24-.33zm35.57 7.51c0 9.5-6.63 17.22-14.78 17.22s-14.78-7.73-14.78-17.22v-61.48h22.09a21.08 21.08 0 007.47-1.36zm6-77.21a13.53 13.53 0 01-6 7.29 14.69 14.69 0 01-7.47 2l-22.09.09v-20.19c0-5.56-6.07-5.94-6.07 0s.07 14.37.07 14.37v59.59H345.41v-59.61s.07-8.46.07-14.37-6.07-5.54-6.07 0v20.11l-22.09-.09a14.69 14.69 0 01-7.47-2 13.53 13.53 0 01-6-7.29 14.89 14.89 0 01-.75-6.46l2.47-30.36c.89-9 9.23-17.08 18.2-17.75l11.12-.83 32.22-2.29c.68.54.48 17.49.48 17.49 0 8.43 23.34 15.29 31.77 15.29h1.3c8.43 0 31.77-6.86 31.77-15.29 0 0-.2-16.95.48-17.49l32.22 2.29 11.12.83c9 .67 17.3 8.8 18.2 17.75L496.9 369a14.89 14.89 0 01-.75 6.48z" id="border"/><g id="over-border-details"><g id="shirt-collars"><path class="cls-3" d="M422.48 339.81l9.63 8.69s16.59-6.44 11.48-22.19c-4.46-13.75-10.59-17.77-10.59-17.77l-7.57 1.26z"/><path class="cls-4" d="M427.4 345.33a2 2 0 01-1-.27c-1-.55-1.55-2-.73-2.73 14-12.75.64-33.21.56-33.4a2 2 0 113.72-1.47c.34.86 13.4 21.05-.82 36.88a2.43 2.43 0 01-1.73.99z"/><path class="cls-8" d="M430.5 350.35l-9.63-8.69a2.51 2.51 0 01-.61-2.87l2.93-30.79a2.43 2.43 0 011.93-1.44l7.21-.85a2.75 2.75 0 01.74-.3 2.66 2.66 0 013 3.64c.08 1.25 8.87 9.27 10 16.95 2.6 18.11-12.8 24.77-13 24.84a2.38 2.38 0 01-.75.18 2.41 2.41 0 01-1.82-.67zm-3.43-39.07l-1.64 27.89 7 6.36a19.58 19.58 0 004.47-3.65c3.68-4.07 5.11-9.19 4.24-15.22-.71-4.94-9.66-13.53-9.89-15.88z"/></g><g id="shirt-collars-2" data-name="shirt-collars"><path class="cls-3" d="M377.49 339.81l-9.63 8.69s-16.59-6.44-11.48-22.19c4.45-13.74 10.56-17.77 10.56-17.77l7.57 1.26z"/><path class="cls-4" d="M372.56 345.33a2 2 0 001-.27c1-.55 1.55-2 .73-2.73-14-12.75-.64-33.21-.56-33.4a2 2 0 10-3.72-1.47c-.34.86-13.4 21.05.82 36.88a2.43 2.43 0 001.73.99z"/><path class="cls-8" d="M367.68 351a2.38 2.38 0 01-.75-.18c-.16-.06-15.55-6.72-13-24.84 1.1-7.67 9.89-15.7 10-16.95a2.66 2.66 0 013-3.64 2.75 2.75 0 01.74.3l7.21.85a2.43 2.43 0 011.93 1.44l2.93 30.83a2.51 2.51 0 01-.61 2.87l-9.63 8.69a2.41 2.41 0 01-1.82.63zm1-40.19c-.22 2.35-9.18 10.94-9.89 15.88-.86 6 .56 11.15 4.24 15.22a19.58 19.58 0 004.47 3.65l7-6.36-1.64-27.89z"/></g></g><g id="head"><path id="skin-2" data-name="skin" class="cls-1" d="M446.38 253.1c0-.91.08-1.81.08-2.73 0-30.51-21.06-55.25-47-55.25s-47 24.74-47 55.25c0 1.11 0 2.21.1 3.31-4 2.46-6.9 8.44-6.9 15.43 0 9.19 4.93 16.64 11 16.64a7.47 7.47 0 002.1-.31c.82 24.5 18.74 44.08 40.73 44.08s40.12-19.81 40.74-44.5a7.65 7.65 0 003.25.74c6.08 0 11-7.45 11-16.64-.05-7.65-3.48-14.06-8.1-16.02z"/><path id="border-2" data-name="border" d="M446.38 253.1c0-.91.08-1.81.08-2.73 0-30.51-21.06-55.25-47-55.25s-47 24.74-47 55.25c0 1.11 0 2.21.1 3.31-4 2.46-6.9 8.44-6.9 15.43 0 9.19 4.93 16.64 11 16.64a7.47 7.47 0 002.1-.31c.82 24.5 18.74 44.08 40.73 44.08s40.12-19.81 40.74-44.5a7.65 7.65 0 003.25.74c6.08 0 11-7.45 11-16.64-.05-7.65-3.48-14.06-8.1-16.02z" stroke="#231f20" stroke-linecap="round" stroke-linejoin="round" stroke-width="6" fill="#efc7b0"/><g id="hair"><path class="cls-8" d="M445.25 229.58l-14.77-22.5-15.38-9.28-13.71-2.21v-.48l-1.5.24-1.5-.24v.48l-13.71 2.21-15.39 9.28-14.77 22.5-2.37 20.79 2.37 4.21s12.56-13.17 12.2-18.17-2.7-16 1.8-16.33 24.83 6.17 31.16 6.17l.17-3.21.17 3.21c6.34 0 26.66-6.5 31.16-6.17s2.17 11.33 1.8 16.33 12.2 18.17 12.2 18.17l2.37-4.21zm-45.34-19.74c-9.17 0-16.61-1.46-16.61-3.26s7.43-3.26 16.61-3.26 16.61 1.46 16.61 3.26-7.43 3.26-16.6 3.26z"/><path d="M400 203.32c-9.17 0-16.61 1.46-16.61 3.26s7.43 3.26 16.61 3.26 16.61-1.46 16.61-3.26-7.4-3.26-16.61-3.26zm0 5.4c-6 0-10.88-1-10.88-2.14s4.87-2.14 10.88-2.14 10.88 1 10.88 2.14-4.83 2.14-10.88 2.14z" opacity=".2" fill="#231f20"/></g></g></svg>