<svg id="player" xmlns="http://www.w3.org/2000/svg" viewBox="0 0 800 800"><defs><style>.cls-1{fill:#e4b9a5}.cls-2{fill:#111233}.cls-3{fill:#242363}.cls-4{fill:#fff}.cls-5{fill:#8e8e8e;opacity:.1}.cls-6{fill:#242020}.cls-8{fill:#3e1952}.cls-9{fill:none}.cls-11{fill:#231f20}.cls-12{fill:#472d1b;opacity:.15}.cls-14{fill:#422917}</style></defs><g id="skin"><path id="arm-left" class="cls-1" d="M305.93 382h36.78v72.4a18.39 18.39 0 01-18.39 18.39 18.39 18.39 0 01-18.39-18.39V382z"/><path id="arm-right" class="cls-1" d="M457.19 382H494v72.4a18.39 18.39 0 01-18.39 18.39 18.39 18.39 0 01-18.39-18.39V382h-.03z"/><path id="leg-left" class="cls-1" d="M349.88 492.02h45.67v45.67h-45.67z"/><path id="leg-right" class="cls-1" d="M404.78 492.02h45.67v45.67h-45.67z"/></g><g id="boots"><path id="left" class="cls-2" d="M395.54 570.04h-22.83l-22.83 1.97h-12.5l-7.5 2.53-5.25 8.5v9.83l1.91 4.17 3.84 4.05 6.33 1.95h58.83v-33z"/><path id="right" class="cls-2" d="M404.67 570.04h22.83l22.83 1.97h12.5l7.5 2.53 5.25 8.5v9.83l-1.91 4.17-3.84 4.05-6.33 1.95h-58.83v-33z"/><g id="details"><path class="cls-3" d="M355 572.17s12.5 24.5 40 12.83l.54-15zM325.5 593s36.75-3.17 42.08 10l-35.08-.37s-6.13.37-7-9.63z"/><path class="cls-4" d="M335 573.75s4.67 6.27 20 5.34 22.27-8.1 22.27-8.1z"/><path class="cls-3" d="M444.92 572.17s-12.5 24.5-40 12.83l-.54-15zm29.5 20.83s-36.75-3.17-42.08 10l35.08-.37s6.13.37 7-9.63z"/><path class="cls-4" d="M464.92 573.75s-4.67 6.27-20 5.34-22.27-8.1-22.27-8.1z"/></g></g><g id="socks"><path id="left-2" data-name="left" class="cls-4" d="M349.88 522h45.67v48.04h-45.67z"/><path id="right-2" data-name="right" class="cls-4" d="M404.38 522h45.67v48.04h-45.67z"/><path class="cls-5" d="M351 528.67h44.54v4.01H351zm53.94 0h44.54v4.01h-44.54z" id="details-2" data-name="details"/></g><path id="shorts" class="cls-4" d="M341.67 442.54h116.49v47a9.95 9.95 0 01-9.95 9.95h-96.6a9.95 9.95 0 01-9.95-9.95v-47h.01z"/><g id="shirt"><path id="shirt-2" data-name="shirt" class="cls-4" d="M369.5 314.8l-48.29 2.99-11.36 6.25-6.83 10.1-1.93 98.78 11.16 7.16 29.96 1.13h147.21l10.96-12.79-3.4-92.71-6.83-11.84-9.77-6.08-49.84-2.99-1 21.24-6.5 6.5-11.16 3.48-11.88 2.02-15.46-3.17-11-5.66-3.66-3.84-.38-20.57z"/><g id="details-3" data-name="details"><path class="cls-5" d="M430.55 314.8l5 1.57v20.2c0 4.19-2.6 6.49-6.25 8.55a62.61 62.61 0 01-23.36 7.88 3.7 3.7 0 00-3.31 3.66v7.95c0 1-1.18 1.81-2.62 1.81s-2.62-.81-2.62-1.81v-8a3.7 3.7 0 00-3.31-3.66 62.62 62.62 0 01-23.32-7.87c-3.65-2.07-6.25-4.36-6.25-8.55v-20.2l5-1.57.63 22.82 9.88 5.75 20 4.49 20-4.49 9.88-5.75.63-22.82m-2.89-4.06l-.11 4-.53 21.17-8 4.68-19 4.24-18.9-4.24-8-4.68-.58-21.15-.11-4-3.79 1.19-5 1.57-2.1.66v22.4c0 6 3.93 9 7.77 11.16a66.76 66.76 0 0022 7.89 3.7 3.7 0 013.13 3.64v5.34c0 2.7 2.47 4.81 5.63 4.81s5.63-2.11 5.63-4.81v-5.33a3.7 3.7 0 013.14-3.64 66.74 66.74 0 0022-7.9c3.84-2.18 7.77-5.21 7.77-11.16v-22.4l-2.1-.66-5-1.57-3.79-1.19zm29.68 57.85c-6.43-35.89-.2-50.71.07-51.33l1.83.8-.92-.4.92.4c-.06.15-6.23 15 .07 50.17zm-114.64 0c6.43-35.89.2-50.71-.07-51.33l-1.83.8.92-.4-.92.4c.06.15 6.23 15-.07 50.17z"/><g id="crest-swansea-16"><circle class="cls-4" cx="434.66" cy="364.73" r="8.35"/><path class="cls-6" d="M434.66 373.5a8.77 8.77 0 118.77-8.77 8.78 8.78 0 01-8.77 8.77zm0-16.7a7.93 7.93 0 107.93 7.93 7.94 7.94 0 00-7.93-7.93z"/><path id="crest-liverpool-16" class="cls-6" d="M437.34 366.19a13.92 13.92 0 00-.77-2.64c-.35-1.1-1.5-2.56-.88-3.52.08-.13 1.57-1.59 2.13-.33a.88.88 0 00.43.44c.3.14.7.35.63.43s0 .12-.05.15-.26 0-1-.17h-.18c-.64-.24-.69.41-.73.41-.31.55.75 2.56 1.15 3.24.3.51 1.78 4.17.66 5l-.18.05-.49.13a48.77 48.77 0 01-6.35-.24c-6.23-7.54 1.01-7.19 5.63-2.95z"/></g><rect id="jorma" class="cls-6" x="355.57" y="363.94" width="15.87" height="5.61" rx="2.55" ry="2.55"/><g id="sponsor-beteast"><path class="cls-6" d="M355.57 395.92a12.25 12.25 0 0012.25 12.25h29.24v-24.5h-29.24a12.25 12.25 0 00-12.25 12.25z"/><path d="M431.18 383.67h-34.12v24.5h34.11a12.25 12.25 0 0012.25-12.25 12.25 12.25 0 00-12.24-12.25z" fill="#00a8dd"/></g><g id="logo-pl-ready-16"><g id="logo-pl-16"><ellipse class="cls-4" cx="494.13" cy="361.37" rx="5.41" ry="9.46" transform="rotate(-6.7 494.142 361.399)"/><path class="cls-8" d="M495.31 371.44c-3.18.37-6.29-3.84-6.95-9.39s1.4-10.37 4.58-10.75 6.29 3.84 6.95 9.39-1.4 10.38-4.58 10.75zm-2.21-18.79c-2.75.32-4.53 4.5-4 9.3s3.26 8.45 6 8.13 4.53-4.5 4-9.3-3.25-8.44-6-8.12z"/><path class="cls-8" d="M495.41 355.95v-.07h-.09l-.28.11h-.13l-.34-.93h-.06l-.33.57h-.13l-.39-.66a.07.07 0 00-.05 0l-.23.73h-.13l-.45-.48h-.06l-.08.7v.29h-1.02v.22l.17.7v.2h.15a4.2 4.2 0 011.4-.49 3.76 3.76 0 011.51.15h.14V356z"/><path class="cls-9" d="M494.34 364.8s-.09-1-.18-1.9a.66.66 0 01-.23-.46l-.12-1c0-.42-.28-.73-.52-.7l-.45.05c-.24 0-.39.39-.34.8l.09.79c0 .42.28.73.52.7l.16 1.32c.06.54.36.94.67.91v.33z"/><path class="cls-8" d="M496.38 358.38a3.92 3.92 0 00-5.15.6 10.81 10.81 0 00.34 3.71l.66 2c.53 1.61 1.68 3.58 2.68 3.47s1.66-2.3 1.8-4l.18-2.1a10.81 10.81 0 00-.51-3.68zm-3.11 6l-.16-1.32c-.24 0-.47-.29-.52-.7l-.09-.79c0-.42.1-.78.34-.8l.45-.05c.24 0 .47.29.52.7l.12 1a.66.66 0 00.23.46c.09.86.18 1.88.18 1.9l-.4.52c-.3.06-.6-.35-.67-.89zm1.56 2.19h-.19c-.18 0-.41-.27-.56-.54a.41.41 0 010-.34 3.4 3.4 0 01.36-.56.18.18 0 01.28 0 3.4 3.4 0 01.48.46.41.41 0 01.07.34c-.1.32-.27.65-.44.67zm1-4.6c0 .42-.1.78-.34.8l.16 1.32c.06.54-.13 1-.44 1l-.51-.41s-.15-1-.27-1.89a.66.66 0 00.12-.5l-.12-1c0-.42.1-.78.34-.8l.45-.05c.24 0 .47.29.52.7z"/></g><g id="logo-pl-16-2" data-name="logo-pl-16"><ellipse class="cls-4" cx="305.92" cy="361.37" rx="9.46" ry="5.41" transform="rotate(-83.3 305.917 361.374)"/><path class="cls-8" d="M300.16 360.7c.65-5.55 3.77-9.77 6.95-9.39s5.23 5.19 4.58 10.75-3.77 9.77-6.95 9.39-5.23-5.2-4.58-10.75zm.78.09c-.56 4.81 1.21 9 4 9.3s5.45-3.32 6-8.13-1.21-9-4-9.3-5.44 3.34-6.01 8.13z"/><path class="cls-8" d="M304.63 355.95v-.07h.09l.28.11h.13l.34-.93h.06l.33.57h.13l.39-.66a.07.07 0 01.05 0l.23.73h.13l.45-.48h.06l.08.7v.29h.98v.22l-.17.7v.2h-.15a4.2 4.2 0 00-1.4-.49 3.76 3.76 0 00-1.51.15h-.14V356z"/><path class="cls-9" d="M305.7 364.8s.09-1 .18-1.9a.66.66 0 00.23-.46l.12-1c0-.42.28-.73.52-.7l.45.05c.24 0 .39.39.34.8l-.09.79c0 .42-.28.73-.52.7l-.16 1.32c-.06.54-.36.94-.67.91v.33z"/><path class="cls-8" d="M303.14 362.07l.18 2.1c.15 1.69.8 3.88 1.8 4s2.15-1.85 2.68-3.47l.66-2a10.81 10.81 0 00.34-3.71 3.92 3.92 0 00-5.15-.6 10.81 10.81 0 00-.51 3.68zm3 3.25l-.4-.52s.09-1 .18-1.9a.66.66 0 00.23-.46l.12-1c0-.42.28-.73.52-.7l.45.05c.24 0 .39.39.34.8l-.09.79c0 .42-.28.73-.52.7l-.16 1.32c-.1.55-.4.96-.71.92zm-1.31.63a.41.41 0 01.07-.34 3.4 3.4 0 01.48-.46.18.18 0 01.28 0 3.4 3.4 0 01.36.56.41.41 0 010 .34c-.15.28-.38.56-.56.54h-.19c-.27-.01-.4-.34-.48-.64zm-.5-4.73c0-.42.28-.73.52-.7l.45.05c.24 0 .39.39.34.8l-.12 1a.66.66 0 00.12.5c-.12.86-.26 1.87-.27 1.89l-.51.41c-.31 0-.51-.5-.44-1l.16-1.32c-.24 0-.39-.39-.34-.8z"/></g></g></g></g><path id="neck" fill="#c9a394" d="M427.61 339.42l-27.59 8.62-28.6-9.62-1.92-23.62h61.04l-2.93 24.62z"/><path d="M502.88 421.91l-2.47-83.84c-1.19-11.87-11.83-22.25-23.72-23.14l-37.14-2.71c-4.07-.45-20.52-.09-39.55.53-19-.62-35.48-1-39.55-.53l-37.14 2.71c-11.89.89-22.53 11.27-23.72 23.14l-2.47 83.84a20.15 20.15 0 005 15.74 19.92 19.92 0 001.69 1.64v12.87c0 12.81 9.32 23.22 20.78 23.22a19.8 19.8 0 0015.25-7.38v21.79a12.23 12.23 0 007.74 11.36v68h-5.93c-10.93 0-19.83 5.8-19.83 17.11 0 8.06 0 17 11.72 19.7v1.6a1.38 1.38 0 001.38 1.38h1.63a1.38 1.38 0 001.38-1.37v-.95c1.16.09 2.39.15 3.73.15h1.89v.8a1.38 1.38 0 001.38 1.38h1.63a1.38 1.38 0 001.38-1.37v-.8h5.62v.8a1.38 1.38 0 001.38 1.38h1.63a1.38 1.38 0 001.38-1.37v-.8h5.62v.8a1.38 1.38 0 001.38 1.38h1.63a1.38 1.38 0 001.38-1.37v-.8h5.62v.8a1.38 1.38 0 001.38 1.38h1.63a1.38 1.38 0 001.38-1.37v-.8h5.62v.8a1.38 1.38 0 001.38 1.38h1.63a1.38 1.38 0 001.38-1.37v-.8h5.62v.8a1.38 1.38 0 001.38 1.38h1.63a1.38 1.38 0 001.38-1.37v-.81l.06-55.45V502h4v49.21l.06 54.67v1.6a1.38 1.38 0 001.38 1.38h1.63a1.38 1.38 0 001.38-1.37v-.8h5.62v.8a1.38 1.38 0 001.38 1.38h1.63a1.38 1.38 0 001.38-1.37v-.8h5.62v.8a1.38 1.38 0 001.38 1.38h1.63a1.38 1.38 0 001.38-1.37v-.8h5.62v.8a1.38 1.38 0 001.38 1.38h1.63a1.38 1.38 0 001.38-1.37v-.8h5.62v.8a1.38 1.38 0 001.38 1.38h1.63a1.38 1.38 0 001.38-1.37v-.8h5.62v.8a1.38 1.38 0 001.38 1.38h1.63a1.38 1.38 0 001.38-1.37v-.8h1.89c1.33 0 2.57-.05 3.72-.15v.95a1.38 1.38 0 001.38 1.38h1.63a1.38 1.38 0 001.38-1.37v-1.6c11.71-2.68 11.72-11.64 11.72-19.7 0-11.3-8.89-17.11-19.83-17.11h-5.93v-68a12.23 12.23 0 007.74-11.36V468a19.8 19.8 0 0015.21 7.42c11.46 0 20.78-10.42 20.78-23.22v-12.9a19.92 19.92 0 001.69-1.64 20.15 20.15 0 004.95-15.75zm-130.49-99.66c3.46 1.84 15.64 2.07 27.61 1.79 12 .28 24.15 0 27.61-1.79V334c0 4.8-22.42 12-27.23 12l-.38-.08-.38.08c-4.8 0-27.23-7.19-27.23-12zm-33 128.91v1.53c0 9.5-6.63 17.22-14.78 17.22s-14.78-7.73-14.78-17.22v-9.31a21.08 21.08 0 007.47 1.36h22.09zm52.9 149.93h-50.64c-14.22 0-14.22-5-14.22-14.89 0-8.21 6.38-11.5 14.22-11.5h11.67l38.93-2.7.06 15.37zm-38.74-76.4h38.67v41.71l-38.67 2.68h-.26V524.7zm-.26-5.74V502h38.94v17h-38.91zm104.77 55.75h.26c7.84 0 14.22 3.29 14.22 11.5 0 9.91 0 14.89-14.22 14.89h-50.64V587.4l.06-15.37 38.93 2.69h11.42zm-11.67-50h.26v44.4h-.26l-38.67-2.68V524.7zm-38.64-5.7v-17h38.95v17h-38.95zm46.84-73.77h-.07v44.58a6.6 6.6 0 01-6.58 6.58H403s-.11-3.73-.16-8.75v-2.79c0-3.51-1.41-5.09-2.82-5-1.41-.09-2.82 1.49-2.82 5v2.79c0 5-.16 8.75-.16 8.75H352.1a6.6 6.6 0 01-6.58-6.58v-44.63h-.07v-.33l30.24.33h48.69l30.24-.33zm35.57 7.51c0 9.5-6.63 17.22-14.78 17.22s-14.78-7.73-14.78-17.22v-7.94h22.09a21.08 21.08 0 007.47-1.36zm6-23.73a13.53 13.53 0 01-6 7.29 14.69 14.69 0 01-7.47 2l-22.09.09v-73.67c0-5.56-6.07-5.94-6.07 0s.07 14.37.07 14.37v59.59H345.41v-59.61s.07-8.46.07-14.37-6.07-5.54-6.07 0v73.59l-22.09-.09a14.69 14.69 0 01-7.47-2 13.53 13.53 0 01-6-7.29 14.89 14.89 0 01-.75-6.46l2.47-83.84c.89-9 9.23-17.08 18.2-17.75l11.12-.83 32.22-2.29c.68.54.48 17.49.48 17.49 0 8.43 23.34 15.29 31.77 15.29h1.3c8.43 0 31.77-6.86 31.77-15.29 0 0-.2-16.95.48-17.49l32.22 2.29 11.12.83c9 .67 17.3 8.8 18.2 17.75l2.47 83.84a14.89 14.89 0 01-.77 6.55z" id="border"/><g id="head"><path class="cls-11" d="M367.23 222.39a18.2 18.2 0 01.61 6.44c-.5 8.17-4.5 11.5-4.5 11.5-2.5 12-9.3 15.91-9.3 15.91-3.36-.47-.72-28.53-.72-28.53a14.91 14.91 0 01-.79-2.28l14.69-3m-1.22-5.91l-14.69 3-4.58 7.4c.15.57.31 1.1.49 1.62-.21 2.45-.62 7.68-.8 13a94.28 94.28 0 00.11 10.49c.21 2.54.77 9.27 6.67 10.1l3.83-.74c.9-.52 8.57-5.26 11.8-18.24 1.84-2.27 4.55-6.78 5-14a24.17 24.17 0 00-.82-8.42l-7-4.26zm66.77 5.87l14.69 3a14.91 14.91 0 01-.79 2.28s2.64 28.05-.72 28.53c0 0-6.8-3.91-9.3-15.91 0 0-4-3.33-4.5-11.5a18.2 18.2 0 01.61-6.44m1.22-5.88l-7 4.26a24.17 24.17 0 00-.82 8.42c.06 1 .68 9 5 14.12 3.25 12.89 10.88 17.61 11.77 18.12l3.83.74c5.9-.83 6.46-7.56 6.67-10.1a94.28 94.28 0 00.11-10.49c-.18-5.34-.59-10.57-.8-13 .18-.51.34-1.05.49-1.62l-4.58-7.4-14.69-3z"/><path class="cls-11" d="M406.63 190.67a33.86 33.86 0 017.37.71c11.83 2.68 37.09 20.31 33.47 34.06l-14.69-3c.52-1.85.76-2.06-1.94-2.56a80.81 80.81 0 00-10-.37c-9.14 0-20.84.37-20.84.37s-11.7-.37-20.84-.37a80.83 80.83 0 00-10 .37c-2.7.5-2.46.71-1.94 2.56l-14.69 3c-.2-7.69-4.77-4.89 1-14.77 5.45-9.39 26-15.55 26-15.55s14.89-4.45 27.13-4.45m0-6c-13 0-28.21 4.51-28.85 4.7a96.26 96.26 0 00-11.81 4.56c-8.85 4.13-14.81 8.75-17.7 13.72-4 7-4.6 10.32-2.47 15a6.19 6.19 0 01.7 3l7.22 5.72 14.69-3 1.51-2.48.31-.06a71.11 71.11 0 018.9-.27c8.94 0 20.53.36 20.65.37h.38c.12 0 11.72-.37 20.65-.37a71 71 0 018.9.27l.31.06 1.51 2.48 14.69 3 7-4.35c1.33-5.06.28-10.49-3.14-16.12-7-11.57-24.16-22.91-34.8-25.32a39.75 39.75 0 00-8.69-.86zm-37.12 41.22z"/><path id="skin-2" data-name="skin" class="cls-1" d="M446.38 253.1c0-.91.08-1.81.08-2.73 0-30.51-21.06-55.25-47-55.25s-47 24.74-47 55.25c0 1.11 0 2.21.1 3.31-4 2.46-6.9 8.44-6.9 15.43 0 9.19 4.93 16.64 11 16.64a7.47 7.47 0 002.1-.31c.82 24.5 18.74 44.08 40.73 44.08s40.12-19.81 40.74-44.5a7.65 7.65 0 003.25.74c6.08 0 11-7.45 11-16.64-.05-7.65-3.48-14.06-8.1-16.02z"/><path class="cls-12" d="M386.17 299.58l-5.72.73c-3.84 1.25-8.06-6.82-10.84-9.75l-4.71-5-4.6-24.68 8.53-44.55-14 7.6s.88 54 3.63 59.13a10 10 0 002.56 3.2c0 2.24 0 5.19.13 8.67.32 8.13 14.3 23 20.55 28.25a17.62 17.62 0 002.39 1.67c-2.26-7.73.48-17.15 2.08-25.27zm-1.59 26.79l.08-1.14-.6-.34a11.07 11.07 0 00.52 1.48zm29.25-26.79l5.72.73c3.84 1.25 8.06-6.82 10.84-9.75l4.71-5 4.6-24.68-8.53-44.55 14 7.6s-.87 54-3.62 59.13a10 10 0 01-2.56 3.2c0 2.24 0 5.19-.13 8.67-.32 8.13-14.3 23-20.55 28.25-.72.61-4.47 4.09-5.34 4.6 2.25-7.72 2.46-20.08.86-28.2z"/><path class="cls-12" d="M386.17 299.58c-1.6 8.12-4.33 17.54-2.11 25.31l.6.34 2.2-25.74z"/><path d="M411.72 298.06l-11.72-.24-11.72.24a5 5 0 00-4.85 5.16l1.22 22c5.54 3 13 4.32 15.35 4.65 2.3-.33 9.8-1.61 15.35-4.65l1.22-22a5 5 0 00-4.85-5.16zm-2.23 21.2c-1.21-2.23-4-4.46-9.73-4.46a9.89 9.89 0 00-8.76 4.52c-3.78-.34-3.18-7.35-3.25-11.36-.1-6.09 0-4.74 6.11-4.74h12.3c6.08 0 6.21-1.35 6.11 4.74-.08 3.84.48 10.44-2.79 11.3z" opacity=".5" fill="#472d1b"/><path class="cls-11" d="M399.42 332.51c-22.68 0-41.28-19-43.53-43.79-7.52-.49-13.31-8.93-13.31-19.61 0-7 2.64-13.45 6.84-16.92v-1.82c0-32.12 22.45-58.25 50-58.25s50 26.13 50 58.25v1c4.85 3.17 8 10 8 17.76 0 11-6.15 19.64-14 19.64H443c-2.3 24.79-20.83 43.74-43.58 43.74zm-40.73-50.08a3 3 0 013 2.9c.77 23.09 17.35 41.18 37.73 41.18 20.58 0 37.15-18.26 37.74-41.58a3 3 0 014.27-2.64 4.68 4.68 0 002 .46c4.34 0 8-6.24 8-13.64 0-7-3.13-11.94-6.21-13.24a3 3 0 01-1.83-2.89v-.18c0-.8.07-1.61.07-2.42 0-28.81-19.75-52.25-44-52.25s-44 23.44-44 52.25c0 .92 0 1.89.09 3.16a3 3 0 01-1.44 2.71c-3.27 2-5.46 7.16-5.46 12.86 0 7.39 3.67 13.64 8 13.64a4.49 4.49 0 001.26-.19 3 3 0 01.78-.13z"/><path class="cls-14" d="M353.32 227.72s-2.64 28.05.72 28.53c0 0 6.8-3.91 9.3-15.91 0 0 4-3.33 4.5-11.5a18.2 18.2 0 00-.61-6.44l-14.69 3a14.91 14.91 0 00.78 2.32z"/><path d="M414 191.38c-12.5-2.83-34.5 3.74-34.5 3.74s-20.55 6.16-26 15.55c-5.73 9.88-1.17 7.08-1 14.77l14.69-3c-.52-1.85-.76-2.06 1.94-2.56 4.5-.83 30.83 0 30.83 0s26.33-.83 30.83 0c2.7.5 2.46.71 1.94 2.56l14.69 3c3.67-13.76-21.59-31.38-33.42-34.06z" fill="#392513"/><path class="cls-14" d="M446.68 227.72s2.64 28.05-.72 28.53c0 0-6.8-3.91-9.3-15.91 0 0-4-3.33-4.5-11.5a18.2 18.2 0 01.61-6.44l14.69 3a14.91 14.91 0 01-.78 2.32z"/></g></svg>