<svg id="player" xmlns="http://www.w3.org/2000/svg" viewBox="0 0 800 800"><defs><style>.cls-1{fill:#eac6ad}.cls-2{fill:#bfa795}.cls-3{fill:#fff}.cls-5{fill:#ffcd05}.cls-6,.cls-8{fill:#015031}.cls-7{fill:#e4b922}.cls-8{opacity:.25}</style></defs><g id="skin"><path id="arm-left" class="cls-1" d="M306.43 383h36.78v72.38a18.39 18.39 0 01-18.39 18.39 18.39 18.39 0 01-18.39-18.39V383z"/><path id="arm-right" class="cls-1" d="M457.69 383h36.78v72.38a18.39 18.39 0 01-18.39 18.39 18.39 18.39 0 01-18.39-18.39V383z"/><path id="leg-left" class="cls-1" d="M350.38 492.97h45.67v45.67h-45.67z"/><path id="leg-right" class="cls-1" d="M405.28 492.97h45.67v45.67h-45.67z"/></g><path class="cls-2" d="M463.78 390.05s1.32 5.54.47 9.57-4.87 8.72-4.87 8.72l-.47-12.19s-1.69-8.26 4.87-6.1zm2.72 4.32s-1.68 8.72-1 11.07 2.44 1.87 4 .56 2.06-15.15 2.06-15.15l-5-.71zm6.5.28s18.2 2.91 19.6.75 0 7.69 0 7.69-8 4.22-12.24 1.31-8.13-2.06-7.36-9.75z"/><path class="cls-2" d="M476.74 390.14l-.66 3.38s14.06 2.35 15.66.38.56-6.15.56-6.15zm-3.37 13.7s-1.8 2.09-1.05 3.25 3.91 1.12 3.55-1.63-2.5-1.62-2.5-1.62zm19.26 18.98s-4 2.78-4.16 4.34-1.67 22.45 3.26 23.18c0 0 1.92-22.45.9-27.52zm-149.32-1.61s-8.6 3.45-7.28 8.27 1.47 23.9 6.45 19.53.83-27.8.83-27.8z"/><g id="boots"><path id="left" class="cls-3" d="M395.83 570.99H373l-22.83 1.98h-12.5l-7.5 2.52-5.25 8.5v9.83l1.91 4.17 3.84 4.06 6.33 1.94h58.83v-33z"/><path id="right" class="cls-3" d="M405.11 571.22h22.83l22.83 1.97h12.5l7.5 2.53 5.25 8.5v9.83l-1.91 4.17-3.84 4.05-6.33 1.95h-58.83v-33z"/><path d="M394.81 585.91s-48.28.38-50.76 5.91-1.34 7.26 2.67 7.64 45.8.19 48.09-3.63 0-9.92 0-9.92zm11.09 0s48.28.38 50.76 5.91 1.34 7.26-2.67 7.64-45.8.19-48.09-3.63 0-9.92 0-9.92z" fill="#383838"/></g><g id="socks"><g id="socks-2" data-name="socks"><path id="left-2" data-name="left" class="cls-5" d="M350.38 522.95h45.67v48.04h-45.67z"/><path id="right-2" data-name="right" class="cls-5" d="M404.88 522.95h45.67v48.04h-45.67z"/></g><path class="cls-6" d="M351.02 541.08h45.11v9.82h-45.11zm54.43 0h45.11v9.82h-45.11z"/></g><g id="shorts"><path id="shorts-2" data-name="shorts" class="cls-5" d="M342.17 443.49h116.49v47a9.95 9.95 0 01-9.95 9.95h-96.6a9.95 9.95 0 01-9.95-9.95v-47h.01z"/></g><g id="shirt"><path id="shirt-2" data-name="shirt" class="cls-5" d="M370 315.75l-48.29 2.99-7.43 4.09-3.93 2.16-6.83 10.1-3.31 40.73 5.17 7.67 7.66 4.67h29.5l.17 54h114.83v-53.5l29.34-.17 7.01-4 6.99-10.5-3.4-37.33-6.83-11.84-9.77-6.08-49.84-2.99-1 21.24-6.5 6.5-11.16 3.48-11.88 2.02-15.46-3.17-11-5.66-3.66-3.84-.38-20.57z"/><path class="cls-7" d="M342.25 364.51c-.05-.31-4.56-31.8 27.46-44.25l.36.93c-31.28 12.16-26.88 42.86-26.84 43.17z"/><path class="cls-6" d="M359.34 326.22a8.84 8.84 0 011-10l.72.7c-.14.15-3.37 3.56-.81 8.84z"/><path class="cls-8" d="M355.2 329.47c-2.81-5.79-1.06-12.71-1-13l1 .25c0 .07-1.73 6.86.91 12.31z"/><path class="cls-6" d="M351.43 333.72a3.66 3.66 0 01-2.62-.88c-1.23-1.16-1.25-3.19-1.27-5a10.89 10.89 0 00-.21-2.57c-.8-2.85 2.32-8.4 2.46-8.64l.87.49c-.85 1.5-2.94 5.85-2.37 7.88a11.21 11.21 0 01.25 2.83c0 1.68 0 3.41.95 4.27a3 3 0 002.28.6l.06 1z"/><path class="cls-8" d="M347.47 339.6c-4.3 0-5.3-6.33-5.9-10.15a22.15 22.15 0 00-.43-2.3c-.8-2.85 2.32-8.41 2.46-8.65l.87.5c-.86 1.5-2.94 5.84-2.37 7.88.16.57.3 1.43.46 2.41.59 3.79 1.48 9.5 5.11 9.31l.05 1z"/><path class="cls-6" d="M344.78 345c-5.8 0-8.17-6.61-9.46-10.2-.19-.51-.35-1-.5-1.35-1.28-3.17 2.64-13.66 3.09-14.85l.94.36c-1.19 3.12-4.06 11.74-3.1 14.12.15.38.32.85.51 1.38 1.32 3.69 3.54 9.88 9 9.52l.07 1z"/><path class="cls-8" d="M343 352.05c-4.37 0-9-6.12-13.82-18.19l-.18-.45c-1.28-3.17 2.64-13.66 3.09-14.85l.94.36c-1.19 3.12-4.06 11.74-3.1 14.12l.18.45c5.9 14.82 10.4 17.72 13.12 17.55l.07 1z"/><path class="cls-6" d="M342.61 359.14c-1.56 0-4.64-1.51-7.36-2.85a34.72 34.72 0 00-3.64-1.64c-2.53-.74-7.05-12.84-7.93-15.26-1.47-4.06 1.19-19.28 1.31-19.92l1 .17c0 .16-2.73 15.6-1.35 19.41 2.47 6.79 5.86 14.23 7.27 14.64a31.72 31.72 0 013.8 1.71c2.49 1.22 5.6 2.74 6.92 2.74z"/><path class="cls-8" d="M342.48 367.66c-1.39 0-5.34-2.67-11.2-6.74-2.94-2-6-4.15-6.76-4.38-1.57-.46-2.87-4.93-4.68-11.7-.59-2.18-1.14-4.24-1.58-5.45-1.47-4.06 1.19-19.28 1.31-19.92l1 .17c0 .16-2.73 15.6-1.35 19.41.46 1.25 1 3.33 1.6 5.53 1.07 4 2.86 10.66 4 11 .89.26 3.26 1.89 7.05 4.52 4 2.77 9.45 6.56 10.63 6.56z"/><path class="cls-6" d="M337.77 371.93c-7 0-13.84-7.17-17.15-10.64a16.05 16.05 0 00-1.65-1.61c-1.17-.63-2-3.17-3.53-8-.61-1.94-1.31-4.14-2.1-6.29-2.39-6.56-.12-22 0-22.67l1 .15c0 .16-2.33 15.86 0 22.18.8 2.17 1.5 4.38 2.11 6.33 1.13 3.56 2.19 6.92 3.05 7.39a11.26 11.26 0 011.9 1.8c4 4.16 13.27 13.88 21.14 8.95l.53.85a9.75 9.75 0 01-5.3 1.56z"/><path class="cls-8" d="M337.67 378.32c-8.07 0-17.55-8.61-21.57-12.26a22.11 22.11 0 00-1.74-1.51c-1.53-.82-4-7.38-7.11-15.86l-.38-1c-2.4-6.56-.13-22 0-22.67l1 .15c0 .16-2.33 15.86 0 22.17l.38 1.05c2 5.47 5.32 14.61 6.64 15.32a15.69 15.69 0 011.95 1.65c4.75 4.32 17.38 15.79 25.43 10.74l.53.85a9.33 9.33 0 01-5.13 1.37z"/><path class="cls-6" d="M342.54 383.47c-2.34 0-21.89-.2-25.81-6.73a59.73 59.73 0 00-4.44-6c-4.46-5.6-10-12.56-9.74-20.31h1c-.26 7.38 4.94 13.9 9.52 19.65a62.81 62.81 0 014.52 6.13c3.78 6.31 24.92 6.24 25.15 6.24v1z"/><path class="cls-8" d="M342 389.66c-1.14-.14-28-3.46-32.06-10.23-.66-1.11-1.42-2.28-2.21-3.51-3.9-6.06-8.77-13.61-8.46-22.49h1c-.3 8.57 4.47 16 8.3 21.91.8 1.24 1.56 2.42 2.23 3.54 3.81 6.35 31.05 9.71 31.32 9.75z"/><path class="cls-7" d="M458.75 364.51l-1-.15c0-.31 4.42-31-26.84-43.17l.36-.93c16.73 6.5 23.31 18.19 25.88 26.85a43.13 43.13 0 011.6 17.4z"/><path class="cls-6" d="M441.66 326.22a8.84 8.84 0 00-1-10l-.72.7c.14.15 3.37 3.56.81 8.84z"/><path class="cls-8" d="M445.8 329.47c2.81-5.79 1.06-12.71 1-13l-1 .25c0 .07 1.73 6.86-.91 12.31z"/><path class="cls-6" d="M449.57 333.72a3.66 3.66 0 002.62-.88c1.23-1.16 1.25-3.19 1.27-5a10.89 10.89 0 01.21-2.57c.8-2.85-2.32-8.41-2.46-8.64l-.87.49c.85 1.5 2.94 5.85 2.37 7.88a11.21 11.21 0 00-.25 2.83c0 1.68 0 3.41-.95 4.27a3 3 0 01-2.28.6l-.06 1z"/><path class="cls-8" d="M453.53 339.6c4.3 0 5.3-6.33 5.9-10.15a22.15 22.15 0 01.43-2.3c.8-2.85-2.32-8.41-2.46-8.65l-.87.5c.86 1.5 2.94 5.84 2.37 7.88-.16.57-.3 1.43-.46 2.41-.59 3.79-1.48 9.5-5.11 9.31l-.05 1z"/><path class="cls-6" d="M456.22 345c5.8 0 8.17-6.61 9.46-10.2.19-.51.35-1 .5-1.35 1.28-3.17-2.64-13.66-3.09-14.85l-.94.36c1.19 3.12 4.06 11.74 3.1 14.12-.15.38-.32.85-.51 1.38-1.32 3.69-3.54 9.88-9 9.52l-.07 1z"/><path class="cls-8" d="M458 352.05c4.37 0 9-6.12 13.82-18.19l.18-.45c1.28-3.17-2.64-13.66-3.09-14.85l-.94.36c1.19 3.12 4.06 11.74 3.1 14.12l-.18.45c-5.9 14.82-10.4 17.72-13.12 17.55l-.07 1z"/><path class="cls-6" d="M458.39 359.14c1.56 0 4.64-1.51 7.36-2.85a34.72 34.72 0 013.64-1.64c2.53-.74 7.05-12.84 7.93-15.26 1.47-4.06-1.19-19.28-1.31-19.92l-1 .17c0 .16 2.73 15.6 1.35 19.41-2.47 6.79-5.86 14.23-7.27 14.64a31.72 31.72 0 00-3.8 1.71c-2.49 1.22-5.6 2.74-6.92 2.74z"/><path class="cls-8" d="M458.52 367.66c1.39 0 5.34-2.67 11.2-6.74 2.94-2 6-4.15 6.76-4.38 1.57-.46 2.87-4.93 4.68-11.7.59-2.18 1.14-4.24 1.58-5.45 1.47-4.06-1.19-19.28-1.31-19.92l-1 .17c0 .16 2.73 15.6 1.35 19.41-.46 1.25-1 3.33-1.6 5.53-1.07 4-2.86 10.66-4 11-.89.26-3.26 1.89-7.05 4.52-4 2.77-9.45 6.56-10.63 6.56z"/><path class="cls-6" d="M463.23 371.93c7 0 13.84-7.17 17.15-10.64a16.05 16.05 0 011.65-1.61c1.17-.63 2-3.17 3.53-8 .61-1.94 1.31-4.14 2.1-6.29 2.39-6.56.12-22 0-22.67l-1 .15c0 .16 2.33 15.86 0 22.18-.8 2.17-1.5 4.38-2.11 6.33-1.13 3.56-2.19 6.92-3.05 7.39a11.26 11.26 0 00-1.9 1.8c-4 4.16-13.27 13.88-21.14 8.95l-.53.85a9.75 9.75 0 005.3 1.56z"/><path class="cls-8" d="M463.33 378.32c8.07 0 17.55-8.61 21.57-12.26a22.11 22.11 0 011.74-1.51c1.53-.82 4-7.38 7.11-15.86l.38-1c2.4-6.56.13-22 0-22.67l-1 .15c0 .16 2.33 15.86 0 22.17l-.38 1.05c-2 5.47-5.32 14.61-6.64 15.32a15.69 15.69 0 00-1.95 1.65c-4.75 4.32-17.38 15.79-25.43 10.74l-.53.85a9.33 9.33 0 005.13 1.37z"/><path class="cls-6" d="M458.46 383.47c2.34 0 21.89-.2 25.81-6.73a59.73 59.73 0 014.44-6c4.46-5.6 10-12.56 9.74-20.31h-1c.26 7.38-4.94 13.9-9.52 19.65a62.81 62.81 0 00-4.52 6.13c-3.78 6.31-24.92 6.24-25.15 6.24v1z"/><path class="cls-8" d="M459 389.66c1.14-.14 28-3.46 32.06-10.23.66-1.11 1.42-2.28 2.21-3.51 3.9-6.06 8.77-13.61 8.46-22.49h-1c.3 8.57-4.47 16-8.3 21.91-.8 1.24-1.56 2.42-2.23 3.54-3.81 6.35-31.05 9.71-31.32 9.75z"/><path class="cls-6" d="M361.16 315.69s-7.47 29.55 19.34 30.38l-10.15-10.52 1.14-20.7zm78.68 0s7.47 29.55-19.34 30.38l10.15-10.52-1.14-20.7z"/><g id="crest-australia"><path class="cls-5" d="M440.65 377.78l-6.29 2.38-6.28-2.38a5.54 5.54 0 01-3.34-5.56l.44-7.79a2.77 2.77 0 012.62-2.76h13.13a2.77 2.77 0 012.62 2.76l.44 7.79a5.54 5.54 0 01-3.34 5.56z"/><path class="cls-6" d="M434.36 381.15l-6.61-2.49a6.48 6.48 0 01-3.93-6.5l.43-7.78a3.71 3.71 0 013.55-3.64h13.13a3.71 3.71 0 013.55 3.64l.43 7.78a6.48 6.48 0 01-3.93 6.5zm-6.56-18.55a1.86 1.86 0 00-1.69 1.88l-.44 7.79a4.62 4.62 0 002.73 4.64l6 2.26 6-2.26a4.62 4.62 0 002.73-4.64l-.44-7.79a1.86 1.86 0 00-1.69-1.88z"/><path class="cls-3" d="M439.4 368.4a2.45 2.45 0 00-.8-.14h-.46a1.06 1.06 0 01-1.05-1.06v-3.32a.29.29 0 00-.23-.29 2.11 2.11 0 00-1.79.73.08.08 0 000 .13l1.13.36v.38a3 3 0 01-.3 1.18l-.53 1.09-.25 1.06a2.56 2.56 0 000 1.4 5.43 5.43 0 00.78 1.48h5.27c-.68-1.87-.99-2.69-1.77-3z"/><path d="M431.73 371.09a2 2 0 00.4-.42l.76-1.11c.34.49.66.9.66.9s.71 0 .37-.74a5.92 5.92 0 00-.59-1 2 2 0 00.06-.55l-.06-1.86a.47.47 0 01.42-.49l1.15-.12a.16.16 0 00.09-.29l-2.18-1.73a.56.56 0 00-.9.44v1.63a.64.64 0 01-.19.45l-3.29 3.33a4.3 4.3 0 00-1.08 1.87h4a.69.69 0 01.13-.11z" fill="#aa6849"/><rect class="cls-6" x="426.44" y="371.4" width="15.85" height="2.93" rx="1.46" ry="1.46"/></g><g id="brand-nike"><path id="nike" class="cls-6" d="M373.82 364.17c0 1.19-1.57 2.17-3.49 2.17h-9.25c-1.92 0-3.5-1-3.5-2.17s1.58-2.17 3.5-2.17h9.25c1.92 0 3.49 1 3.49 2.17z"/></g><path class="cls-6" d="M357.54 389.32V376.6l-2.05 2.27a1.66 1.66 0 01-1.2.54 1.73 1.73 0 01-1.68-1.78 1.93 1.93 0 01.49-1.28l4.5-4.78a2.27 2.27 0 011.68-.73 2.43 2.43 0 012.34 2.49v16a2 2 0 11-4.08 0zm7.46.24a2 2 0 01-.74-1.52 1.83 1.83 0 011.79-1.87 1.63 1.63 0 01.94.33 7.26 7.26 0 004.16 1.36c2.31 0 3.59-1.06 3.59-2.6s-1.17-2.39-3.82-2.39h-.79a1.82 1.82 0 01-1.77-1.88 1.8 1.8 0 011.74-1.82h.82c2.11 0 3.51-.73 3.51-2.24s-1.54-2.42-3.54-2.42a6.37 6.37 0 00-3.81 1.27 1.6 1.6 0 01-.91.3 1.76 1.76 0 01-1.69-1.79 1.87 1.87 0 01.69-1.42 9.39 9.39 0 016.15-2.12c4.45 0 7.18 2.12 7.18 5.48a4.84 4.84 0 01-4.16 4.61 4.92 4.92 0 014.45 4.84c0 3.49-2.94 5.94-7.5 5.94a9.88 9.88 0 01-6.29-2.06z"/></g><path id="neck" fill="#d8b59e" d="M428.13 341.21l-27.59 8.62-28.6-9.62-1.92-23.62h61.04l-2.93 24.62z"/><path d="M503.38 369.38L500.91 339c-1.19-11.87-11.83-22.25-23.72-23.14l-37.14-2.7c-4.07-.45-20.52-.09-39.55.53-19-.62-35.48-1-39.55-.53l-37.14 2.7c-11.89.89-22.53 11.27-23.72 23.14l-2.47 30.36a20.14 20.14 0 005 15.74 18.65 18.65 0 001.69 1.64v66.36c0 12.81 9.32 23.23 20.78 23.23a19.8 19.8 0 0015.21-7.43v21.79a12.24 12.24 0 007.74 11.36v68h-5.93c-10.93 0-19.83 5.8-19.83 17.11 0 8.06 0 17 11.72 19.7v1.6a1.37 1.37 0 001.38 1.37h1.63a1.37 1.37 0 001.38-1.37v-1q1.72.15 3.72.15H344v.8a1.37 1.37 0 001.38 1.37h1.63a1.37 1.37 0 001.38-1.37v-.8H354v.8a1.37 1.37 0 001.38 1.37h1.63a1.37 1.37 0 001.38-1.37v-.8H364v.8a1.37 1.37 0 001.38 1.37h1.63a1.37 1.37 0 001.38-1.37v-.8H374v.8a1.37 1.37 0 001.38 1.37h1.63a1.37 1.37 0 001.38-1.37v-.8H384v.8a1.37 1.37 0 001.38 1.37h1.63a1.37 1.37 0 001.38-1.37v-.8H394v.8a1.37 1.37 0 001.38 1.37h1.63a1.37 1.37 0 001.38-1.37v-.81l.06-55.46V503h4v49.21l.06 54.67v1.6a1.37 1.37 0 001.38 1.37h1.63a1.37 1.37 0 001.38-1.37v-.8h5.61v.8a1.37 1.37 0 001.38 1.37h1.63a1.37 1.37 0 001.38-1.37v-.8h5.61v.8a1.37 1.37 0 001.38 1.37h1.63a1.37 1.37 0 001.38-1.37v-.8h5.61v.8a1.37 1.37 0 001.38 1.37h1.63a1.37 1.37 0 001.38-1.37v-.8h5.61v.8a1.37 1.37 0 001.38 1.37h1.63a1.37 1.37 0 001.38-1.37v-.8h5.61v.8a1.37 1.37 0 001.38 1.37h1.63a1.37 1.37 0 001.38-1.37v-.8h1.89c1.33 0 2.56 0 3.72-.15v1a1.37 1.37 0 001.38 1.37h1.63a1.37 1.37 0 001.38-1.37v-1.6c11.71-2.68 11.72-11.64 11.72-19.7 0-11.31-8.9-17.11-19.83-17.11h-5.93v-68a12.24 12.24 0 007.74-11.36v-21.84a19.8 19.8 0 0015.21 7.43c11.46 0 20.78-10.42 20.78-23.23v-66.36a18.65 18.65 0 001.69-1.64 20.14 20.14 0 005.1-15.74zM372.89 323.2c3.46 1.85 15.64 2.08 27.61 1.8 12 .28 24.15.05 27.61-1.8V335c0 4.81-22.42 12-27.23 12l-.38-.07-.38.07c-4.81 0-27.23-7.18-27.23-12zm-33 75.43v55c0 9.5-6.63 17.23-14.78 17.23s-14.78-7.73-14.78-17.23v-62.78a21.07 21.07 0 007.47 1.36h22.09zm52.91 203.42h-50.65c-14.21 0-14.21-5-14.21-14.89 0-8.22 6.37-11.5 14.21-11.5h11.67l38.93-2.7.07 15.37zm-38.74-76.4h38.67v41.7L354.08 570h-.26v-44.4zm-.26-5.74v-17h38.93v16.93h-38.91zm104.77 55.75h.26c7.84 0 14.21 3.28 14.21 11.5 0 9.91 0 14.89-14.21 14.89h-50.65v-13.7l.07-15.37 38.93 2.7h11.41zm-11.67-50h.26v44.4h-.26l-38.67-2.68v-41.7zm-38.67-5.74V503h38.93v17h-38.91zm46.84-73.78H455v44.58a6.6 6.6 0 01-6.58 6.58h-1.26l-43.68-.05s-.11-3.72-.16-8.75v-2.8c0-3.52-1.41-5.09-2.82-5-1.41-.08-2.82 1.49-2.82 5v2.79c-.05 5-.16 8.75-.16 8.75l-43.68.05h-1.26a6.6 6.6 0 01-6.58-6.58v-44.58h-.07v-.33l30.25.33h48.68l30.25-.33zm35.56 7.51c0 9.5-6.63 17.23-14.78 17.23s-14.78-7.73-14.78-17.23v-61.44h22.09a21.07 21.07 0 007.47-1.36zm6-77.21a13.55 13.55 0 01-2.76 4.66 13.85 13.85 0 01-3.24 2.63 14.72 14.72 0 01-7.47 2l-22.09.09v-20.15c0-5.56-6.08-5.93-6.08 0s.08 14.37.08 14.37v59.59H345.91V380s.08-8.45.08-14.37-6.08-5.54-6.08 0v20.11l-22.09-.09a14.72 14.72 0 01-7.47-2 13.85 13.85 0 01-3.24-2.63 13.55 13.55 0 01-2.76-4.66 14.79 14.79 0 01-.75-6.46l2.46-30.35c.9-8.95 9.23-17.08 18.2-17.75l11.12-.84 32.21-2.29c.68.55.49 17.49.49 17.49 0 8.43 23.34 15.29 31.77 15.29h1.3c8.43 0 31.77-6.86 31.77-15.29 0 0-.19-16.94.49-17.49l32.21 2.33 11.12.84c9 .67 17.3 8.8 18.2 17.75L497.4 370a14.79 14.79 0 01-.75 6.43z" id="border"/><g id="head"><path id="skin-2" data-name="skin" class="cls-1" d="M446.88 254.05c0-.91.08-1.81.08-2.73 0-30.51-21.06-55.25-47-55.25s-47 24.74-47 55.25c0 1.11 0 2.22.1 3.31-4.05 2.46-6.91 8.44-6.91 15.43 0 9.19 4.93 16.64 11 16.64a7.48 7.48 0 002.1-.32c.82 24.5 18.73 44.08 40.73 44.08S440 310.65 440.66 286a7.65 7.65 0 003.25.74c6.09 0 11-7.45 11-16.64.02-7.67-3.39-14.1-8.03-16.05z"/><path d="M356 254.48s13.77-22.91 12.33-30.18 16.56-22.09 16.56-22.09a34.09 34.09 0 00-13.33 5.62c-8.5 6-17.31 17-16.68 27.65zm86.9 0s-13.78-22.91-12.34-30.18S414 202.21 414 202.21a34.1 34.1 0 0113.34 5.62c8.5 6 17.31 17 16.68 27.65z" fill="#d6b6a1"/><path d="M399.92 333.46c-22.68 0-41.28-19-43.53-43.79-7.52-.49-13.32-8.93-13.32-19.61 0-7 2.64-13.45 6.84-16.92v-1.82c0-32.12 22.45-58.25 50-58.25s50 26.13 50 58.25v1c4.85 3.18 8 10 8 17.76 0 11-6.16 19.64-14 19.64h-.46c-2.25 24.79-20.78 43.74-43.53 43.74zm-40.73-50.08a3 3 0 013 2.9c.77 23.09 17.34 41.18 37.73 41.18 20.58 0 37.15-18.26 37.74-41.58a3 3 0 014.27-2.64 4.73 4.73 0 002 .46c4.35 0 8-6.25 8-13.64 0-7-3.13-11.94-6.22-13.25a3 3 0 01-1.83-2.89v-.18c0-.8.07-1.6.07-2.42 0-28.81-19.76-52.25-44-52.25s-44 23.44-44 52.25c0 .92 0 1.89.09 3.16a3 3 0 01-1.43 2.71c-3.27 2-5.47 7.16-5.47 12.87 0 7.39 3.67 13.64 8 13.64a4.69 4.69 0 001.25-.19 2.74 2.74 0 01.8-.13z" fill="#231f20"/></g></svg>