<svg id="player" xmlns="http://www.w3.org/2000/svg" viewBox="0 0 800 800"><defs><style>.cls-1{fill:#efc7b0}.cls-3{fill:#a31d21}.cls-4{fill:#831618}.cls-5{fill:#fff}.cls-6{fill:#e41e26}.cls-8{fill:#b49d54}.cls-9{fill:#1d4499}.cls-12{fill:#4f3f39}</style></defs><g id="skin"><path id="arm-left" class="cls-1" d="M306 383h36.78v72.38a18.39 18.39 0 01-18.39 18.39A18.39 18.39 0 01306 455.35V383z"/><path id="arm-right" class="cls-1" d="M457.24 383H494v72.38a18.39 18.39 0 01-18.39 18.39 18.39 18.39 0 01-18.39-18.39V383h.02z"/><path id="leg-left" class="cls-1" d="M349.93 492.97h45.67v45.67h-45.67z"/><path id="leg-right" class="cls-1" d="M404.83 492.97h45.67v45.67h-45.67z"/></g><g id="boots"><path d="M467.16 384.41s-6 13.31-1.19 20.46 10.53 8.35 12.91 6 11.13-24.53 2.19-29.75-13.91 3.29-13.91 3.29zm25.43 15.3a21.57 21.57 0 00-8.54 16.09c-.4 10.53 6.35 8.74 8.54 7.15s5.29-15.95 0-23.24zM458.28 418s15 1.79 14.36 4.87 3 17.95-2.15 19.23-10.83 12.43-12.21 8.78 0-32.88 0-32.88m-116.11-8.67s-24.95 11.78.59 46" fill="#614f47"/><path id="left" class="cls-3" d="M395.83 570.99H373l-22.83 1.98h-12.5l-7.5 2.52-5.25 8.5v9.83l1.91 4.17 3.84 4.06 6.33 1.94h58.83v-33z"/><path id="right" class="cls-3" d="M405.11 571.22h22.83l22.83 1.97h12.5l7.5 2.53 5.25 8.5v9.83l-1.91 4.17-3.84 4.05-6.33 1.95h-58.83v-33z"/><path class="cls-4" d="M395.83 577.53s-34.5 12.08-46.12 10.19-9.29-14.5-9.29-14.5L368 571.4l27.8-.41z"/><path class="cls-5" d="M394.63 587.72s-17.24 5.07-16.08 8.38 2.16 4 4.64 3.32 12.19-2.49 12.19-2.49z"/><path class="cls-4" d="M405.11 577.53s34.5 12.08 46.11 10.19 9.3-14.5 9.3-14.5l-27.61-1.82-27.8-.41z"/><path class="cls-5" d="M406.31 587.72s17.24 5.07 16.08 8.38-2.16 4-4.64 3.32-12.19-2.49-12.19-2.49z"/></g><g id="socks"><g id="socks-2" data-name="socks"><path id="left-2" data-name="left" class="cls-5" d="M350.38 522.95h45.67v48.04h-45.67z"/><path id="right-2" data-name="right" class="cls-5" d="M404.88 522.95h45.67v48.04h-45.67z"/></g></g><g id="shorts"><path id="shorts-2" data-name="shorts" class="cls-5" d="M342.17 443.49h116.49v47a9.95 9.95 0 01-9.95 9.95h-96.6a9.95 9.95 0 01-9.95-9.95v-47h.01z"/></g><g id="shirt"><path id="shirt-2" data-name="shirt" class="cls-5" d="M370 315.75l-48.29 2.99-11.36 6.25-6.83 10.1-3.31 40.73 5.17 7.67 7.66 4.67h29.5l.17 54h114.83v-53.5l29.34-.17 7.01-4 6.99-10.5-3.4-37.33-6.83-11.84-9.77-6.08-49.84-2.99-1 21.24-6.5 6.5-11.16 3.48-11.88 2.02-15.46-3.17-11-5.66-3.66-3.84-.38-20.57z"/><path class="cls-6" d="M343.89 387.46l.67-3.19-29.37-1.21c-4.7-1-7.83-12.45-7.17-17.21l3.36-24.08a18.27 18.27 0 015.67-12.47 18.29 18.29 0 0110.63-4.92c3.64-.39 18.1 1.12 21.12.78 3.28-.37 5.76-5.15 5.76-8.45h-10s-30.89-.29-35.29 8.69-5.37 20.87-5.37 20.87l-2.34 28.85S311 388.94 318 388.94s25.89-1.48 25.89-1.48zm113.31 0l-.67-3.19 29.36-1.21c4.7-1 7.83-12.45 7.17-17.21l-3.35-24.08A18.28 18.28 0 00484 329.3a18.26 18.26 0 00-10.63-4.92c-3.63-.39-18.1 1.12-21.12.78-3.28-.37-5.75-5.15-5.75-8.45h10s30.88-.29 35.29 8.69 5.37 20.87 5.37 20.87l2.34 28.85s-9.46 13.82-16.48 13.82-25.82-1.48-25.82-1.48zm-22.88-71.68a3 3 0 00-3.44 2.64l-1.33 16.45a2.86 2.86 0 01-.48 1.35l-2.76 4.14a3 3 0 01-1.35 1.09l-13.85 5.61a2.74 2.74 0 01-.51.15l-9.93 2.11a3.07 3.07 0 01-1.28 0l-9.93-2.11a2.74 2.74 0 01-.51-.15l-13.84-5.61a2.92 2.92 0 01-1.36-1.09l-2.75-4.14a2.74 2.74 0 01-.47-1.35l-1.34-16.45a3 3 0 00-3.44-2.64 2.93 2.93 0 00-2.51 2.65c-.45 6.06-1.15 22.24 3.92 25 6.1 3.37 22.59 13.31 32.18 11.35a3.3 3.3 0 011.4 0c9.59 2 26.08-8 32.18-11.35 5.07-2.8 4.37-19 3.92-25a2.93 2.93 0 00-2.52-2.65z"/><g id="brand-puma"><rect class="cls-6" x="364.07" y="366.33" width="6.25" height="16.01" rx="3.13" ry="3.13" transform="rotate(-63.52 367.23 374.339)" id="brand-puma-2" data-name="brand-puma"/></g><g id="crest-serbia"><path d="M433.2 363.35h-3.78a2.17 2.17 0 00-2.17 2.16v5h5.95zm-5.95 11.07a17.5 17.5 0 00.23 2.54 7.73 7.73 0 005.72 6.12v-8.66zm15.75-3.88v-5a2.17 2.17 0 00-2.17-2.16h-3.78v7.19zm-5.93 12.54a7.73 7.73 0 005.72-6.12 16.21 16.21 0 00.23-2.54h-5.95z" fill="#b92d3c"/><path class="cls-5" d="M433.2 374.52V384a6.94 6.94 0 001.94.27 6.92 6.92 0 001.93-.27v-9.48zm0-12.12h3.88v7.87h-3.88zm-.2 8.14h-6.45v3.88H433zm4.24 0h6.45v3.88h-6.45zm-4.04 0h3.88v3.88h-3.88z"/><path class="cls-8" d="M440.85 363.35a2.17 2.17 0 012.17 2.16v8.91a16.21 16.21 0 01-.23 2.54 7.79 7.79 0 01-15.31 0 17.5 17.5 0 01-.23-2.54v-8.91a2.17 2.17 0 012.17-2.16h11.43m0-1.91h-11.43a4.07 4.07 0 00-4.07 4.07v8.94a16.93 16.93 0 00.26 2.84 9.66 9.66 0 007.11 7.64 9.87 9.87 0 004.83 0 9.66 9.66 0 007.11-7.64 16.93 16.93 0 00.26-2.84v-8.94a4.08 4.08 0 00-4.08-4.07z"/><circle class="cls-8" cx="435.14" cy="373.34" r="3.85"/></g><path class="cls-6" d="M392.54 400.92a1.84 1.84 0 011.83-1.83 1.63 1.63 0 01.85.21 5.34 5.34 0 002.78.7c3.22 0 5-2.74 5-5.77v-.42a6.62 6.62 0 01-5.17 2.58c-3.61 0-6.85-2.22-6.85-6.49 0-3.91 3.12-6.89 7.69-6.89 6.08 0 8.63 4.69 8.63 10.38 0 6-3.4 10.34-9.32 10.34a8.81 8.81 0 01-4.45-1.15 1.8 1.8 0 01-.99-1.66zm6.34-14.25a3.23 3.23 0 00-3.51 3c0 2.13 1.77 3.06 3.69 3.06a5 5 0 003.91-1.86c-.15-1.87-1.23-4.2-4.09-4.2z"/><path class="cls-9" d="M399.17 443.49h7.48V415a6.57 6.57 0 00-6.57-6.57h-.91z"/><path class="cls-6" d="M391.68 415v28.52h7.49V408.4h-.91a6.58 6.58 0 00-6.58 6.6z"/><path class="cls-9" d="M399.17 349.32v27.86h.91a6.57 6.57 0 006.57-6.57v-21.29z"/><path class="cls-6" d="M391.68 349.32v21.29a6.58 6.58 0 006.58 6.57h.91v-27.86z"/></g><path id="neck" fill="#e4b69d" d="M428.13 341.21l-27.59 8.62-28.6-9.62-1.92-23.62h61.04l-2.93 24.62z"/><path d="M503.38 369.38L500.91 339c-1.19-11.87-11.83-22.25-23.72-23.14l-37.14-2.7c-4.07-.45-20.52-.09-39.55.53-19-.62-35.48-1-39.55-.53l-37.14 2.7c-11.89.89-22.53 11.27-23.72 23.14l-2.47 30.36a20.14 20.14 0 005 15.74 18.65 18.65 0 001.69 1.64v66.36c0 12.81 9.32 23.23 20.78 23.23a19.8 19.8 0 0015.21-7.43v21.79a12.24 12.24 0 007.74 11.36v68h-5.93c-10.93 0-19.83 5.8-19.83 17.11 0 8.06 0 17 11.72 19.7v1.6a1.37 1.37 0 001.38 1.37h1.63a1.37 1.37 0 001.38-1.37v-1q1.72.15 3.72.15H344v.8a1.37 1.37 0 001.38 1.37h1.63a1.37 1.37 0 001.38-1.37v-.8H354v.8a1.37 1.37 0 001.38 1.37h1.63a1.37 1.37 0 001.38-1.37v-.8H364v.8a1.37 1.37 0 001.38 1.37h1.63a1.37 1.37 0 001.38-1.37v-.8H374v.8a1.37 1.37 0 001.38 1.37h1.63a1.37 1.37 0 001.38-1.37v-.8H384v.8a1.37 1.37 0 001.38 1.37h1.63a1.37 1.37 0 001.38-1.37v-.8H394v.8a1.37 1.37 0 001.38 1.37h1.63a1.37 1.37 0 001.38-1.37v-.81l.06-55.46V503h4v49.21l.06 54.67v1.6a1.37 1.37 0 001.38 1.37h1.63a1.37 1.37 0 001.38-1.37v-.8h5.61v.8a1.37 1.37 0 001.38 1.37h1.63a1.37 1.37 0 001.38-1.37v-.8h5.61v.8a1.37 1.37 0 001.38 1.37h1.63a1.37 1.37 0 001.38-1.37v-.8h5.61v.8a1.37 1.37 0 001.38 1.37h1.63a1.37 1.37 0 001.38-1.37v-.8h5.61v.8a1.37 1.37 0 001.38 1.37h1.63a1.37 1.37 0 001.38-1.37v-.8h5.61v.8a1.37 1.37 0 001.38 1.37h1.63a1.37 1.37 0 001.38-1.37v-.8h1.89c1.33 0 2.56 0 3.72-.15v1a1.37 1.37 0 001.38 1.37h1.63a1.37 1.37 0 001.38-1.37v-1.6c11.71-2.68 11.72-11.64 11.72-19.7 0-11.31-8.9-17.11-19.83-17.11h-5.93v-68a12.24 12.24 0 007.74-11.36v-21.84a19.8 19.8 0 0015.21 7.43c11.46 0 20.78-10.42 20.78-23.23v-66.36a18.65 18.65 0 001.69-1.64 20.14 20.14 0 005.1-15.74zM372.89 323.2c3.46 1.85 15.64 2.08 27.61 1.8 12 .28 24.15.05 27.61-1.8V335c0 4.81-22.42 12-27.23 12l-.38-.07-.38.07c-4.81 0-27.23-7.18-27.23-12zm-33 75.43v55c0 9.5-6.63 17.23-14.78 17.23s-14.78-7.73-14.78-17.23v-62.78a21.07 21.07 0 007.47 1.36h22.09zm52.91 203.42h-50.65c-14.21 0-14.21-5-14.21-14.89 0-8.22 6.37-11.5 14.21-11.5h11.67l38.93-2.7.07 15.37zm-38.74-76.4h38.67v41.7L354.08 570h-.26v-44.4zm-.26-5.74v-17h38.93v16.93h-38.91zm104.77 55.75h.26c7.84 0 14.21 3.28 14.21 11.5 0 9.91 0 14.89-14.21 14.89h-50.65v-13.7l.07-15.37 38.93 2.7h11.41zm-11.67-50h.26v44.4h-.26l-38.67-2.68v-41.7zm-38.67-5.74V503h38.93v17h-38.91zm46.84-73.78H455v44.58a6.6 6.6 0 01-6.58 6.58h-1.26l-43.68-.05s-.11-3.72-.16-8.75v-2.8c0-3.52-1.41-5.09-2.82-5-1.41-.08-2.82 1.49-2.82 5v2.79c-.05 5-.16 8.75-.16 8.75l-43.68.05h-1.26a6.6 6.6 0 01-6.58-6.58v-44.58h-.07v-.33l30.25.33h48.68l30.25-.33zm35.56 7.51c0 9.5-6.63 17.23-14.78 17.23s-14.78-7.73-14.78-17.23v-61.44h22.09a21.07 21.07 0 007.47-1.36zm6-77.21a13.55 13.55 0 01-2.76 4.66 13.85 13.85 0 01-3.24 2.63 14.72 14.72 0 01-7.47 2l-22.09.09v-20.15c0-5.56-6.08-5.93-6.08 0s.08 14.37.08 14.37v59.59H345.91V380s.08-8.45.08-14.37-6.08-5.54-6.08 0v20.11l-22.09-.09a14.72 14.72 0 01-7.47-2 13.85 13.85 0 01-3.24-2.63 13.55 13.55 0 01-2.76-4.66 14.79 14.79 0 01-.75-6.46l2.46-30.35c.9-8.95 9.23-17.08 18.2-17.75l11.12-.84 32.21-2.29c.68.55.49 17.49.49 17.49 0 8.43 23.34 15.29 31.77 15.29h1.3c8.43 0 31.77-6.86 31.77-15.29 0 0-.19-16.94.49-17.49l32.21 2.33 11.12.84c9 .67 17.3 8.8 18.2 17.75L497.4 370a14.79 14.79 0 01-.75 6.43z" id="border"/><g id="head"><path id="skin-2" data-name="skin" class="cls-1" d="M446.43 254.05c0-.91.08-1.81.08-2.73 0-30.51-21.06-55.25-47-55.25s-47 24.74-47 55.25c0 1.11 0 2.22.1 3.31-4 2.46-6.91 8.44-6.91 15.43 0 9.19 4.93 16.64 11 16.64a7.48 7.48 0 002.1-.32c.82 24.5 18.73 44.08 40.73 44.08s40.12-19.81 40.74-44.5a7.65 7.65 0 003.25.74c6.09 0 11-7.45 11-16.64-.04-7.63-3.45-14.06-8.09-16.01z"/><path d="M440.11 246.7s-4 50.07-9.08 57c-2.6 3.55-10.18 5.61-16.6 9.76 0-2.52 0-4.27-.25-4.48-2.89-2.3-13.64-3.32-14.16-3.27s-11.26 1-14.15 3.27c-.28.21-.29 2-.25 4.48-6.43-4.15-14-6.21-16.6-9.76-5.07-6.94-9.08-57-9.08-57l-5.38.79s4.63 35.89 4.73 42.6 7.19 22.27 13.6 29.28c6.24 6.84 26.08 11.32 27.11 11.55h.05c1-.23 20.87-4.71 27.11-11.55 6.41-7 13.49-22.58 13.6-29.28s4.73-42.6 4.73-42.6zm-40.06 72v6.09-6.09a23.35 23.35 0 01-11.24-3.3c0-1 0-2.12.09-3.25.16-3.15 10.86-2.15 11.1-2.15v-1 1c.26 0 11-1 11.17 2.2.07 1.13.09 2.26.09 3.25a23.35 23.35 0 01-11.21 3.29z" opacity=".2" fill="#332823"/><path class="cls-12" d="M356 254.48s10.66-20.13 11.23-25.55c.4-3.77.08-6.73.91-8a12.35 12.35 0 00-6-3.08c-4.86 7.51-10.8 20.88-6.14 36.63z"/><path d="M432.9 211.21c-9.68-16.27-28.43-15.64-32.9-15.21-4.45-.39-23.2-1-32.88 15.25a45.05 45.05 0 00-5 6.6 12.35 12.35 0 016 3.08 1.75 1.75 0 011.91-.72c3.17.42 22.88 3.76 30 3.76v-.85.85c7.09 0 26.8-3.34 30-3.76a1.75 1.75 0 011.91.72 12.35 12.35 0 016-3.08 45.92 45.92 0 00-5.04-6.64z" fill="#332823"/><path class="cls-12" d="M444.06 254.48s-10.65-20.13-11.22-25.55c-.4-3.77-.08-6.73-.91-8a12.35 12.35 0 016-3.08c4.83 7.51 10.77 20.88 6.13 36.63z"/><path d="M399.92 333.46c-22.68 0-41.28-19-43.53-43.79-7.52-.49-13.32-8.93-13.32-19.61 0-7 2.64-13.45 6.84-16.92v-1.82c0-32.12 22.45-58.25 50-58.25s50 26.13 50 58.25v1c4.85 3.18 8 10 8 17.76 0 11-6.16 19.64-14 19.64h-.46c-2.25 24.79-20.78 43.74-43.53 43.74zm-40.73-50.08a3 3 0 013 2.9c.77 23.09 17.34 41.18 37.73 41.18 20.58 0 37.15-18.26 37.74-41.58a3 3 0 014.27-2.64 4.73 4.73 0 002 .46c4.35 0 8-6.25 8-13.64 0-7-3.13-11.94-6.22-13.25a3 3 0 01-1.83-2.89v-.18c0-.8.07-1.6.07-2.42 0-28.81-19.76-52.25-44-52.25s-44 23.44-44 52.25c0 .92 0 1.89.09 3.16a3 3 0 01-1.43 2.71c-3.27 2-5.47 7.16-5.47 12.87 0 7.39 3.67 13.64 8 13.64a4.69 4.69 0 001.25-.19 2.74 2.74 0 01.8-.13z" fill="#231f20"/></g></svg>