<svg id="player" xmlns="http://www.w3.org/2000/svg" viewBox="0 0 800 800"><defs><style>.cls-1{fill:#f0beb4}.cls-2{fill:#f04c27}.cls-4{fill:#fff}.cls-5{fill:#3a4a68}.cls-8{fill:none}.cls-11{fill:#231f20}</style></defs><g id="skin"><path id="arm-left" class="cls-1" d="M306.43 383h36.78v72.38a18.39 18.39 0 01-18.39 18.39 18.39 18.39 0 01-18.39-18.39V383z"/><path id="arm-right" class="cls-1" d="M457.69 383h36.78v72.38a18.39 18.39 0 01-18.39 18.39 18.39 18.39 0 01-18.39-18.39V383z"/><path id="leg-left" class="cls-1" d="M350.38 492.97h45.67v45.67h-45.67z"/><path id="leg-right" class="cls-1" d="M405.28 492.97h45.67v45.67h-45.67z"/></g><g id="boots"><path id="left" class="cls-2" d="M395.83 570.99H373l-22.83 1.98h-12.5l-7.5 2.52-5.25 8.5v9.83l1.91 4.17 3.84 4.06 6.33 1.94h58.83v-33z"/><path id="right" class="cls-2" d="M405.11 571.22h22.83l22.83 1.97h12.5l7.5 2.53 5.25 8.5v9.83l-1.91 4.17-3.84 4.05-6.33 1.95h-58.83v-33z"/><path d="M333.4 574.67s15.21 12 32.6 10.5 29.83-10.23 29.83-12.21v-2zm134.14 0s-15.22 12-32.6 10.5-29.83-10.23-29.83-12.17v-2z" fill="#262626"/></g><g id="socks"><g id="socks-2" data-name="socks"><path id="left-2" data-name="left" class="cls-4" d="M350.38 522.95h45.67v48.04h-45.67z"/><path id="right-2" data-name="right" class="cls-4" d="M404.88 522.95h45.67v48.04h-45.67z"/></g><path class="cls-5" d="M350.54 528.65h45.5v3.18h-45.5zm54.42 0h45.5v3.18h-45.5zM350.54 535h45.5v3.18h-45.5zm54.42 0h45.5v3.18h-45.5z"/></g><g id="shorts"><path id="shorts-2" data-name="shorts" class="cls-4" d="M342.17 443.49h116.49v47a9.95 9.95 0 01-9.95 9.95h-96.6a9.95 9.95 0 01-9.95-9.95v-47h.01z"/><path class="cls-5" transform="rotate(90 349.09 470.71)" d="M321.38 469.54h55.42v2.35h-55.42z"/><path class="cls-5" transform="rotate(90 353.78 470.71)" d="M326.07 469.54h55.42v2.35h-55.42z"/><path class="cls-5" transform="rotate(90 447.22 470.71)" d="M419.51 469.54h55.42v2.35h-55.42z"/><path class="cls-5" transform="rotate(90 451.91 470.71)" d="M424.2 469.54h55.42v2.35H424.2z"/></g><g id="shirt"><path id="shirt-2" data-name="shirt" class="cls-4" d="M370 315.75l-48.29 2.99-11.36 6.25-6.83 10.1-3.31 40.73 5.17 7.67 7.66 4.67h29.5l.17 54h114.83v-53.5l29.34-.17 7.01-4 6.99-10.5-3.4-37.33-6.83-11.84-9.77-6.08-49.84-2.99-1 21.24-6.5 6.5-11.16 3.48-11.88 2.02-15.46-3.17-11-5.66-3.66-3.84-.38-20.57z"/><path d="M354.31 430.86h8.4v8.75h-8.4zm16.8 0h8.4v8.75h-8.4zm16.79 0h8.4v8.75h-8.4zm16.8 0h8.4v8.75h-8.4zm16.79 0h8.4v8.75h-8.4zm16.8 0h8.4v8.75h-8.4zm-92.38-8.75h8.4v8.75h-8.4zm16.8 0h8.4v8.75h-8.4zm16.8 0h8.4v8.75h-8.4zm16.79 0h8.4v8.75h-8.4zm16.8 0h8.4v8.75h-8.4zm16.79 0h8.4v8.75h-8.4zm16.8 0h8.4v8.75h-8.4zm-92.38-8.76h8.4v8.75h-8.4zm16.8 0h8.4v8.75h-8.4zm16.79 0h8.4v8.75h-8.4zm16.8 0h8.4v8.75h-8.4zm16.79 0h8.4v8.75h-8.4zm16.8 0h8.4v8.75h-8.4zm-92.38-8.75h8.4v8.75h-8.4zm16.8 0h8.4v8.75h-8.4zm16.8 0h8.4v8.75h-8.4zm16.79 0h8.4v8.75h-8.4zm16.8 0h8.4v8.75h-8.4zm16.79 0h8.4v8.75h-8.4zm16.8 0h8.4v8.75h-8.4zm-92.38-8.75h8.4v8.75h-8.4zm16.8 0h8.4v8.75h-8.4zm16.79 0h8.4v8.75h-8.4zm16.8 0h8.4v8.75h-8.4zm16.79 0h8.4v8.75h-8.4zm16.8 0h8.4v8.75h-8.4zm-92.38-8.75h8.4v8.75h-8.4zm16.8 0h8.4v8.75h-8.4zm16.8 0h8.4v8.75h-8.4zm16.79 0h8.4v8.75h-8.4zm16.8 0h8.4v8.75h-8.4zm16.79 0h8.4v8.75h-8.4zm16.8 0h8.4v8.75h-8.4zm-92.38-8.76h8.4v8.75h-8.4zm16.8 0h8.4v8.75h-8.4zm16.79 0h8.4v8.75h-8.4zm16.8 0h8.4v8.75h-8.4zm16.79 0h8.4v8.75h-8.4zm16.8 0h8.4v8.75h-8.4zm-92.38-8.75h8.4v8.75h-8.4zm16.8 0h8.4v8.75h-8.4zm16.8 0h8.4v8.75h-8.4zm16.79 0h8.4v8.75h-8.4zm16.8 0h8.4v8.75h-8.4zm16.79 0h8.4v8.75h-8.4zm16.8 0h8.4v8.75h-8.4zm-92.38-8.75h8.4v8.75h-8.4zm16.8 0h8.4v8.75h-8.4zm16.79 0h8.4v8.75h-8.4zm16.8 0h8.4v8.75h-8.4zm16.79 0h8.4v8.75h-8.4zm16.8 0h8.4v8.75h-8.4zm-92.38-8.76h8.4v8.75h-8.4zm16.8 0h8.4v8.75h-8.4zm16.8 0h8.4v8.75h-8.4zm16.79 0h8.4v8.75h-8.4zm16.8 0h8.4v8.75h-8.4zm16.79 0h8.4v8.75h-8.4zm16.8 0h8.4v8.75h-8.4zm-92.38-8.75h8.4v8.75h-8.4zm16.8 0h8.4v8.75h-8.4zm16.79 0h8.4v8.75h-8.4zm16.8 0h8.4v8.75h-8.4zm16.79 0h8.4v8.75h-8.4zm16.8 0h8.4v8.75h-8.4zm-92.38-8.75h8.4v8.75h-8.4zm16.8 0h8.4v8.75h-8.4zm16.8 0h8.4v8.75h-8.4zm16.79 0h8.4v8.75h-8.4zm16.8 0h8.4v8.75h-8.4zm16.79 0h8.4v8.75h-8.4zm16.8 0h8.4v8.75h-8.4zm-92.38-8.76h8.4v8.75h-8.4zm16.8 0h8.4v8.75h-8.4zm16.79 0h8.4v8.75h-8.4zm16.8 0h8.4v8.75h-8.4zm16.79 0h8.4v8.75h-8.4zm16.8 0h8.4v8.75h-8.4zm-92.38-8.75h8.4v8.75h-8.4zm16.8 0h8.4v8.75h-8.4zm16.8 0h8.4v8.75h-8.4zm16.79 0h8.4v8.75h-8.4zm16.8 0h8.4v8.75h-8.4zm16.79 0h8.4v8.75h-8.4zm16.8 0h8.4v8.75h-8.4z" fill="#e0e0e0" opacity=".3"/><path class="cls-5" d="M370.36 336.09l-.36-20.57-6.07 2S352.45 346 378 351.2c20.38 4.17 22 3.69 22 3.69v-6.08l-19.88-4.18zm65.69-18.57l-6.06-2-.38 20.57-9.75 8.54-19.86 4.18v6.08s1.64.48 22-3.69c25.52-5.2 14.05-33.68 14.05-33.68z"/><path class="cls-8" d="M469.9 326.19l-.9 1.22.9-1.22z"/><path class="cls-5" d="M435.41 318.65l-.41 4 33.76 3.44a2 2 0 001.82-.8 2 2 0 00-1.41-3.17zm0 5.35l-.41 4 30.11 3a2 2 0 001.82-.81 2 2 0 00-1.41-3.17z"/><path class="cls-8" d="M330.98 327.41l-.89-1.22.89 1.22z"/><path class="cls-5" d="M365 322.63l-.41-4-33.76 3.45a2 2 0 00-1.41 3.17 2 2 0 001.81.8zm-.42 1.37l-30.11 3.07a2 2 0 00-1.41 3.17 2 2 0 001.81.81L365 328z"/><g id="brand-adidas"><g id="adidas"><rect id="bottom" class="cls-5" x="357.07" y="371.9" width="14.43" height="2.04" rx=".62" ry=".62"/><path class="cls-5" d="M364.36 363.63a1.26 1.26 0 00-.46 1.72l3 5.15a1.28 1.28 0 001.1.64h2.21l-4.07-7.05a1.27 1.27 0 00-1.78-.46zm-2.53 2.55a1.27 1.27 0 00-.47 1.72l1.45 2.59a1.28 1.28 0 001.11.65h2.21l-2.56-4.49a1.28 1.28 0 00-1.74-.47zm-2.83 2.23a1.27 1.27 0 00-.47 1.72l.19.35a1.29 1.29 0 001.12.66h2.2l-1.29-2.26a1.27 1.27 0 00-1.75-.47z"/></g></g><path class="cls-5" d="M391.28 396.86v-12.78l-2.19 2.28a1.78 1.78 0 01-3.07-1.25 1.87 1.87 0 01.51-1.27l4.81-4.81a2.52 2.52 0 014.29 1.76v16.07a2.18 2.18 0 01-4.35 0zm10.99 0a3.13 3.13 0 01.18-.89l6.05-13.65H400a1.91 1.91 0 110-3.81h11.68a2.08 2.08 0 012.07 2.07 1.8 1.8 0 01-.19.82l-7.12 16.31a2.1 2.1 0 01-2 1.31 2.17 2.17 0 01-2.17-2.16z"/><path d="M444.13 362.85a1.73 1.73 0 00-2.56-1.48l-3.73 2.06c-.76.53-.67 1.88.79 2.14h-1.92a2.37 2.37 0 01-1.95-1s-1.68-2.67 1.35-3.56h1.94a.53.53 0 00.36-.91l-1.26-1.21a.68.68 0 00-.35-.17c-.7-.08-3-.32-3 0a4 4 0 00.63 1.33 5.48 5.48 0 00-1.32 2 .23.23 0 01-.22.15.25.25 0 01-.23-.15 5.39 5.39 0 00-1.31-2 4 4 0 00.62-1.33c0-.35-2.3-.11-3 0a.68.68 0 00-.35.17l-1.27 1.11a.53.53 0 00.35.91h1.95c3 .89 1.35 3.56 1.35 3.56a2.34 2.34 0 01-1.94 1h-1.93c1.47-.26 1.56-1.61.8-2.14l-3.73-2.06a1.73 1.73 0 00-2.56 1.48v1.75a5.16 5.16 0 002 4.16 5.4 5.4 0 002.9 1.26l4.2.68a1.11 1.11 0 01.63.45l.28.93a2.6 2.6 0 01-.39 2.32l-.58.77a1.25 1.25 0 001 2h2.59a1.25 1.25 0 001-2l-.57-.77a2.63 2.63 0 01-.4-2.32l.29-.93a1.11 1.11 0 01.63-.45l4.19-.68a5.43 5.43 0 002.9-1.26 5.16 5.16 0 002-4.16z" fill="#ffd278"/><path class="cls-4" d="M434.63 358.47c.73 0 1.74.1 2.17.15a.68.68 0 01.35.17l1.26 1.21a.53.53 0 01-.36.91h-1.94c-3 .89-1.35 3.56-1.35 3.56a2.37 2.37 0 001.95 1h1.92c-1.46-.26-1.55-1.61-.79-2.14l3.73-2.06a1.69 1.69 0 01.83-.22 1.74 1.74 0 011.73 1.7v1.75a5.16 5.16 0 01-2 4.16 5.43 5.43 0 01-2.9 1.26l-4.19.68a1.11 1.11 0 00-.63.45l-.29.93a2.63 2.63 0 00.4 2.32l.57.77a1.25 1.25 0 01-1 2h-2.59a1.25 1.25 0 01-1-2l.58-.77a2.6 2.6 0 00.39-2.32l-.28-.93a1.11 1.11 0 00-.63-.45l-4.2-.68a5.4 5.4 0 01-2.9-1.26 5.16 5.16 0 01-2-4.16v-1.75a1.74 1.74 0 011.73-1.7 1.69 1.69 0 01.83.22l3.73 2.06c.76.53.67 1.88-.8 2.14h1.93a2.34 2.34 0 001.94-1s1.67-2.67-1.35-3.56h-1.95a.53.53 0 01-.35-.91l1.26-1.21a.68.68 0 01.35-.17c.42-.05 1.44-.15 2.17-.15.48 0 .83 0 .83.18a4 4 0 01-.62 1.33 5.39 5.39 0 011.31 2 .25.25 0 00.23.15.23.23 0 00.22-.15 5.48 5.48 0 011.32-2 4 4 0 01-.63-1.33c0-.14.36-.18.84-.18m0-2a4.43 4.43 0 01-3.5 0 21.76 21.76 0 00-2.4.17 2.57 2.57 0 00-1.51.71l-1.04 1.21a2.48 2.48 0 00-.69 1.13l-.12-.07a3.72 3.72 0 00-5.53 3.19v1.75a7.19 7.19 0 002.72 5.78 7.65 7.65 0 003.62 1.63h.19l3.48.56v.11a.58.58 0 01-.09.54l-.58.82a3.25 3.25 0 002.6 5.19h2.59a3.25 3.25 0 002.61-5.19l-.57-.77a.61.61 0 01-.1-.54v-.11l3.48-.56h.19a7.69 7.69 0 003.62-1.63 7.22 7.22 0 002.72-5.78v-1.75a3.76 3.76 0 00-3.73-3.66 3.66 3.66 0 00-1.8.47l-.13.07a2.55 2.55 0 00-.68-1.13l-1.26-1.21a2.51 2.51 0 00-1.5-.71 21.76 21.76 0 00-2.4-.17z"/></g><path id="neck" fill="#e0ada6" d="M428.13 341.21l-27.59 8.62-28.6-9.62-1.92-23.62h61.04l-2.93 24.62z"/><path d="M503.38 369.38L500.91 339c-1.19-11.87-11.83-22.25-23.72-23.14l-37.14-2.7c-4.07-.45-20.52-.09-39.55.53-19-.62-35.48-1-39.55-.53l-37.14 2.7c-11.89.89-22.53 11.27-23.72 23.14l-2.47 30.36a20.14 20.14 0 005 15.74 18.65 18.65 0 001.69 1.64v66.36c0 12.81 9.32 23.23 20.78 23.23a19.8 19.8 0 0015.21-7.43v21.79a12.24 12.24 0 007.74 11.36v68h-5.93c-10.93 0-19.83 5.8-19.83 17.11 0 8.06 0 17 11.72 19.7v1.6a1.37 1.37 0 001.38 1.37h1.63a1.37 1.37 0 001.38-1.37v-1q1.72.15 3.72.15H344v.8a1.37 1.37 0 001.38 1.37h1.63a1.37 1.37 0 001.38-1.37v-.8H354v.8a1.37 1.37 0 001.38 1.37h1.63a1.37 1.37 0 001.38-1.37v-.8H364v.8a1.37 1.37 0 001.38 1.37h1.63a1.37 1.37 0 001.38-1.37v-.8H374v.8a1.37 1.37 0 001.38 1.37h1.63a1.37 1.37 0 001.38-1.37v-.8H384v.8a1.37 1.37 0 001.38 1.37h1.63a1.37 1.37 0 001.38-1.37v-.8H394v.8a1.37 1.37 0 001.38 1.37h1.63a1.37 1.37 0 001.38-1.37v-.81l.06-55.46V503h4v49.21l.06 54.67v1.6a1.37 1.37 0 001.38 1.37h1.63a1.37 1.37 0 001.38-1.37v-.8h5.61v.8a1.37 1.37 0 001.38 1.37h1.63a1.37 1.37 0 001.38-1.37v-.8h5.61v.8a1.37 1.37 0 001.38 1.37h1.63a1.37 1.37 0 001.38-1.37v-.8h5.61v.8a1.37 1.37 0 001.38 1.37h1.63a1.37 1.37 0 001.38-1.37v-.8h5.61v.8a1.37 1.37 0 001.38 1.37h1.63a1.37 1.37 0 001.38-1.37v-.8h5.61v.8a1.37 1.37 0 001.38 1.37h1.63a1.37 1.37 0 001.38-1.37v-.8h1.89c1.33 0 2.56 0 3.72-.15v1a1.37 1.37 0 001.38 1.37h1.63a1.37 1.37 0 001.38-1.37v-1.6c11.71-2.68 11.72-11.64 11.72-19.7 0-11.31-8.9-17.11-19.83-17.11h-5.93v-68a12.24 12.24 0 007.74-11.36v-21.84a19.8 19.8 0 0015.21 7.43c11.46 0 20.78-10.42 20.78-23.23v-66.36a18.65 18.65 0 001.69-1.64 20.14 20.14 0 005.1-15.74zM372.89 323.2c3.46 1.85 15.64 2.08 27.61 1.8 12 .28 24.15.05 27.61-1.8V335c0 4.81-22.42 12-27.23 12l-.38-.07-.38.07c-4.81 0-27.23-7.18-27.23-12zm-33 75.43v55c0 9.5-6.63 17.23-14.78 17.23s-14.78-7.73-14.78-17.23v-62.78a21.07 21.07 0 007.47 1.36h22.09zm52.91 203.42h-50.65c-14.21 0-14.21-5-14.21-14.89 0-8.22 6.37-11.5 14.21-11.5h11.67l38.93-2.7.07 15.37zm-38.74-76.4h38.67v41.7L354.08 570h-.26v-44.4zm-.26-5.74v-17h38.93v16.93h-38.91zm104.77 55.75h.26c7.84 0 14.21 3.28 14.21 11.5 0 9.91 0 14.89-14.21 14.89h-50.65v-13.7l.07-15.37 38.93 2.7h11.41zm-11.67-50h.26v44.4h-.26l-38.67-2.68v-41.7zm-38.67-5.74V503h38.93v17h-38.91zm46.84-73.78H455v44.58a6.6 6.6 0 01-6.58 6.58h-1.26l-43.68-.05s-.11-3.72-.16-8.75v-2.8c0-3.52-1.41-5.09-2.82-5-1.41-.08-2.82 1.49-2.82 5v2.79c-.05 5-.16 8.75-.16 8.75l-43.68.05h-1.26a6.6 6.6 0 01-6.58-6.58v-44.58h-.07v-.33l30.25.33h48.68l30.25-.33zm35.56 7.51c0 9.5-6.63 17.23-14.78 17.23s-14.78-7.73-14.78-17.23v-61.44h22.09a21.07 21.07 0 007.47-1.36zm6-77.21a13.55 13.55 0 01-2.76 4.66 13.85 13.85 0 01-3.24 2.63 14.72 14.72 0 01-7.47 2l-22.09.09v-20.15c0-5.56-6.08-5.93-6.08 0s.08 14.37.08 14.37v59.59H345.91V380s.08-8.45.08-14.37-6.08-5.54-6.08 0v20.11l-22.09-.09a14.72 14.72 0 01-7.47-2 13.85 13.85 0 01-3.24-2.63 13.55 13.55 0 01-2.76-4.66 14.79 14.79 0 01-.75-6.46l2.46-30.35c.9-8.95 9.23-17.08 18.2-17.75l11.12-.84 32.21-2.29c.68.55.49 17.49.49 17.49 0 8.43 23.34 15.29 31.77 15.29h1.3c8.43 0 31.77-6.86 31.77-15.29 0 0-.19-16.94.49-17.49l32.21 2.33 11.12.84c9 .67 17.3 8.8 18.2 17.75L497.4 370a14.79 14.79 0 01-.75 6.43z" id="border"/><g id="head"><path class="cls-11" d="M413.6 185.55c8.28 0 3.73 7.49 7.33 8.57 10 3 3.65 2.36 10.13 3.8s6.7 4.49 9.76 7.91c2.16 2.41 6.05 16.16 4.92 21.67 4.71 11.39 1.36 17.9-.63 25.47a2 2 0 01-3.88.23c-2.67-6.77-6.31-16.47-6.2-18.61.19-3.35.24-9.56-2.15-11.19-14.08-9.59-24.88-10.93-29.88-10.93a17.8 17.8 0 00-3 .2c-25.67 1.8-30 10.73-32.85 10.73s-2.34 7.84-2.15 11.19c.12 2.3-3.92 12.88-6.49 19.32a1.55 1.55 0 01-1.47 1 1.6 1.6 0 01-1.53-1.11c-2.31-7-7.61-10.23-2.61-22.33-1.13-5.51 1.9-18.43 4.06-20.84 3.06-3.42 4.43-6.62 10.91-8.06s3-10.9 21.45-15.25c4.29-1 17.22-.69 18.64-1a26 26 0 015.67-.77m0-5a30.48 30.48 0 00-6.58.85c-.65 0-2.63.08-4.24.11-6.22.1-11.61.24-14.64 1-13.53 3.2-17.29 9.2-19.77 13.18-1.08 1.71-1.32 2-1.62 2.06-7 1.54-9.7 4.92-12.11 7.89-.49.6-.94 1.16-1.44 1.71-3.29 3.68-6.12 16.43-5.46 23.56-3.89 10.37-1.08 16 1.2 20.48a29.37 29.37 0 011.8 4 6.59 6.59 0 0012.39.38c7-17.68 6.9-20.13 6.83-21.44v-.42a43.15 43.15 0 01-.05-6.1 17.28 17.28 0 003-1.87c3.44-2.46 9.83-7 27.39-8.27a5.73 5.73 0 00.58-.07 13.56 13.56 0 012.07-.12c4.54 0 14 1.27 26.64 9.75.21.61.68 2.54.43 7.1-.07 1.35-.2 3.62 6.54 20.71a7 7 0 0013.37-.79c.28-1.06.58-2.11.91-3.21 1.88-6.37 4-13.56 0-24.18.56-7.33-3.12-20.79-6.31-24.35a20.74 20.74 0 01-1.6-2.1c-1.83-2.61-4.1-5.87-10.8-7.36-1-.23-1.57-.37-1.86-.45-1.11-.87-2.56-1.58-6.16-2.72a11.17 11.17 0 00-1.94-5.62c-1.82-2.46-4.71-3.7-8.59-3.7z"/><path id="skin-2" data-name="skin" class="cls-1" d="M446.88 254.05c0-.91.08-1.81.08-2.73 0-30.51-21.06-55.25-47-55.25s-47 24.74-47 55.25c0 1.11 0 2.22.1 3.31-4.05 2.46-6.91 8.44-6.91 15.43 0 9.19 4.93 16.64 11 16.64a7.48 7.48 0 002.1-.32c.82 24.5 18.73 44.08 40.73 44.08S440 310.65 440.66 286a7.65 7.65 0 003.25.74c6.09 0 11-7.45 11-16.64.02-7.67-3.39-14.1-8.03-16.05z"/><path class="cls-11" d="M399.92 333.46c-22.68 0-41.28-19-43.53-43.79-7.52-.49-13.32-8.93-13.32-19.61 0-7 2.64-13.45 6.84-16.92v-1.82c0-32.12 22.45-58.25 50-58.25s50 26.13 50 58.25v1c4.85 3.18 8 10 8 17.76 0 11-6.16 19.64-14 19.64h-.46c-2.25 24.79-20.78 43.74-43.53 43.74zm-40.73-50.08a3 3 0 013 2.9c.77 23.09 17.34 41.18 37.73 41.18 20.58 0 37.15-18.26 37.74-41.58a3 3 0 014.27-2.64 4.73 4.73 0 002 .46c4.35 0 8-6.25 8-13.64 0-7-3.13-11.94-6.22-13.25a3 3 0 01-1.83-2.89v-.18c0-.8.07-1.6.07-2.42 0-28.81-19.76-52.25-44-52.25s-44 23.44-44 52.25c0 .92 0 1.89.09 3.16a3 3 0 01-1.43 2.71c-3.27 2-5.47 7.16-5.47 12.87 0 7.39 3.67 13.64 8 13.64a4.69 4.69 0 001.25-.19 2.74 2.74 0 01.8-.13z"/><path d="M445.74 227.5c1.13-5.51-2.76-19.26-4.92-21.67-3.06-3.42-3.28-6.47-9.76-7.91s-.13-.8-10.13-3.8c-4.23-1.27 2.8-11.4-13-7.8-1.42.32-14.35 0-18.64 1-18.41 4.35-15 13.81-21.45 15.25s-7.85 4.64-10.91 8.06c-2.16 2.41-5.19 15.33-4.06 20.84-5 12.1.3 15.32 2.61 22.33a1.59 1.59 0 003 .1c2.57-6.44 6.61-17 6.49-19.32-.19-3.35-.75-11.19 2.15-11.19s7.18-8.93 32.85-10.73c0 0 13.32-2.6 32.91 10.73 2.39 1.63 2.34 7.84 2.15 11.19-.11 2.14 3.53 11.84 6.2 18.61a2 2 0 003.88-.23c1.99-7.56 5.34-14.07.63-25.46z" fill="#572000"/><path d="M382.11 210.59s22.2 19.93 41 14.5 17.64-4.76 15.5-9.29-11.19-14.5-56.5-5.21z" fill="#5f250c"/></g></svg>