<svg id="player" xmlns="http://www.w3.org/2000/svg" viewBox="0 0 800 800"><defs><style>.cls-1{fill:#e9c2b5}.cls-2{fill:#fff}.cls-5{fill:#e42526}.cls-6{fill:#0c4ea0}.cls-11{fill:#231f20}</style></defs><g id="skin"><path id="arm-left" class="cls-1" d="M306.43 383h36.78v72.38a18.39 18.39 0 01-18.39 18.39 18.39 18.39 0 01-18.39-18.39V383z"/><path id="arm-right" class="cls-1" d="M457.69 383h36.78v72.38a18.39 18.39 0 01-18.39 18.39 18.39 18.39 0 01-18.39-18.39V383z"/><path id="leg-left" class="cls-1" d="M350.38 492.97h45.67v45.67h-45.67z"/><path id="leg-right" class="cls-1" d="M405.28 492.97h45.67v45.67h-45.67z"/></g><g id="boots"><path id="left" class="cls-2" d="M395.83 570.99H373l-22.83 1.98h-12.5l-7.5 2.52-5.25 8.5v9.83l1.91 4.17 3.84 4.06 6.33 1.94h58.83v-33z"/><path id="right" class="cls-2" d="M405.11 571.22h22.83l22.83 1.97h12.5l7.5 2.53 5.25 8.5v9.83l-1.91 4.17-3.84 4.05-6.33 1.95h-58.83v-33z"/><path d="M395.83 578.51s-13.08 9.24-20.52 5.83-5.42-13 0-13.12 20.52-.23 20.52-.23zm0 14.07l-.21 11.42s-34.25 2.81-30.69-5.71 24.38-14.15 30.9-5.71zM360.16 573s-15.28 37.75-29.71 29.09c0 0-9.32-4.94-5.74-18.06s14.63-10.71 14.63-10.71zm45.12 5.51s13.08 9.24 20.51 5.83 5.43-13 0-13.12-20.51-.23-20.51-.23zm0 14.07l.21 11.41s34.25 2.81 30.69-5.71-24.38-14.14-30.9-5.7zM440.94 573s15.29 37.75 29.72 29.09c0 0 9.32-4.94 5.74-18.06s-14.63-10.71-14.63-10.71z" fill="#f0efef"/></g><g id="socks"><g id="socks-2" data-name="socks"><path id="left-2" data-name="left" fill="#d62027" d="M350.38 522.95h45.67v48.04h-45.67z"/><path id="right-2" data-name="right" class="cls-5" d="M404.88 522.95h45.67v48.04h-45.67z"/></g><path class="cls-2" d="M350.78 522.62h45.06v7.81h-45.06z"/><path class="cls-6" d="M350.78 530.44h45.06v3.16h-45.06z"/><path class="cls-2" d="M405.19 522.62h45.06v7.81h-45.06z"/><path class="cls-6" d="M405.19 530.44h45.06v3.16h-45.06z"/></g><g id="shorts"><path id="shorts-2" data-name="shorts" class="cls-5" d="M342.17 443.49h116.49v47a9.95 9.95 0 01-9.95 9.95h-96.6a9.95 9.95 0 01-9.95-9.95v-47h.01z"/><path class="cls-2" d="M344.31 443.48h112.31a7 7 0 01-7 7h-98.36a7 7 0 01-7-7zm6.46 14.06a2.33 2.33 0 01-1.53 2.12l-4.93 1.75.14-5.2 3.4-.95a2.31 2.31 0 012.92 2.28zm0 12.46a2.33 2.33 0 01-1.53 2.12l-4.93 1.75.14-5.2 3.4-.95a2.31 2.31 0 012.92 2.28zm0 12.46a2.33 2.33 0 01-1.53 2.12l-4.93 1.75.14-5.2 3.4-.95a2.31 2.31 0 012.92 2.28zm99.39-24.92a2.31 2.31 0 001.53 2.12l4.93 1.75-.14-5.2-3.4-.95a2.31 2.31 0 00-2.92 2.28zm0 12.46a2.31 2.31 0 001.53 2.12l4.93 1.75-.14-5.2-3.4-.95a2.31 2.31 0 00-2.92 2.28zm0 12.46a2.31 2.31 0 001.53 2.12l4.93 1.75-.14-5.2-3.4-.95a2.31 2.31 0 00-2.92 2.28z"/></g><g id="shirt"><path id="shirt-2" data-name="shirt" class="cls-5" d="M370 315.75l-48.29 2.99-11.36 6.25-6.83 10.1-3.31 40.73 5.17 7.67 7.66 4.67h29.5l.17 54h114.83v-53.5l29.34-.17 7.01-4 6.99-10.5-3.4-37.33-6.83-11.84-9.77-6.08-49.84-2.99-1 21.24-6.5 6.5-11.16 3.48-11.88 2.02-15.46-3.17-11-5.66-3.66-3.84-.38-20.57z"/><path d="M457.69 342.32l-56.09 35.51a2.05 2.05 0 01-2.21 0l-56.09-35.51v25.4l33.93 22.08a2.06 2.06 0 010 3.47l-33.93 21.46v27.43l56.07-36.49a2.08 2.08 0 012.25 0l56.07 36.49v-27.43l-33.91-21.46a2.06 2.06 0 010-3.47l33.93-22.08z" fill="#d8302f"/><path d="M343.21 364.69S336 328 370 315.75l-48.29 3s-14.16 5-18.19 16.35l-3.31 40.73s3 13.63 20.38 13.06l22-.72zm114.59 0S465 328 431 315.75l48.29 3s14.16 5 18.19 16.35l3.31 40.73s-3 13.63-20.39 13.06l-22-.72z" fill="#d81f29"/><path fill="none" d="M373.95 341.59l16.83 6.85 5.53 1.35 4.23.3 4.24-.3 5.53-1.35 16.82-6.85 3.77-3.74.15-7.39h-61.01l.14 7.39 3.77 3.74z"/><path class="cls-6" d="M435.45 319.14l-4.16-1.39-.24 12.71h4.4v-11.32zm-65.66-1.39l-4.16 1.39v11.32h4.41l-.25-12.71z"/><path class="cls-2" d="M431.05 330.46l-.15 7.39-3.77 3.74-16.82 6.85-5.53 1.35-4.24.3-4.23-.3-5.53-1.35-16.78-6.85-3.77-3.74-.14-7.39h-4.41v7.31s1.22 6.1 10.08 9.56c0 0 16.67 6.76 24.83 6.93 8.17-.17 24.84-6.93 24.84-6.93 8.86-3.46 10.07-9.56 10.07-9.56v-7.31zm16.71-6.35a2.31 2.31 0 002.15-1.48l1.88-4.88h-5.2l-1 3.38a2.31 2.31 0 002.17 2.98zm12.31 1.36a2.3 2.3 0 002.31-1.21l2.43-4.63-5.16-.6-1.42 3.23a2.3 2.3 0 001.84 3.21zm12.8 1.15a2.32 2.32 0 002.26-1.31l2.25-4.72-5.18-.4-1.3 3.28a2.31 2.31 0 001.97 3.15zm11.59 1.95a2.33 2.33 0 002.59-.36l3.86-3.53-4.66-2.32-2.43 2.56a2.3 2.3 0 00.64 3.65zm-131.13-4.46a2.3 2.3 0 01-2.15-1.48l-1.88-4.88h5.2l1 3.38a2.3 2.3 0 01-2.17 2.98zM341 325.47a2.32 2.32 0 01-2.31-1.21l-2.43-4.63 5.17-.6 1.42 3.23a2.3 2.3 0 01-1.85 3.21zm-12.78 1.15a2.32 2.32 0 01-2.26-1.31l-2.26-4.72 5.19-.4 1.29 3.28a2.31 2.31 0 01-1.96 3.15zm-11.6 1.95a2.31 2.31 0 01-2.58-.36l-3.86-3.53 4.65-2.32 2.43 2.56a2.3 2.3 0 01-.64 3.65z"/><circle class="cls-5" cx="436.49" cy="368.52" r="9.33"/><path class="cls-2" d="M436.49 359.19a9.33 9.33 0 11-9.33 9.33 9.33 9.33 0 019.33-9.33m0-1.1a10.45 10.45 0 107.38 3.06 10.36 10.36 0 00-7.38-3.06z"/><path class="cls-2" d="M440.89 364.58l-.73.46a.14.14 0 01-.19-.19l.47-.72c0-1.22-2-2.2-3.24-2.2h-1.42c-1.21 0-3.23 1-3.23 2.2l.46.72a.14.14 0 01-.19.19l-.72-.46c-1.22 0-2.2 2-2.2 3.23v1.42c0 1.22 1 3.24 2.2 3.24l.72-.47a.14.14 0 01.19.19l-.46.73c0 1.21 2 2.2 3.23 2.2h1.42c1.22 0 3.24-1 3.24-2.2l-.47-.73a.14.14 0 01.19-.19l.73.47c1.21 0 2.2-2 2.2-3.24v-1.42c0-1.21-.99-3.23-2.2-3.23zm-5.11-1.93h1.42a3.18 3.18 0 012.48 1.32l-1.44 2.22a2.93 2.93 0 00-3.5 0L433.3 364a3.2 3.2 0 012.48-1.35zm-3.84 9.06a3.18 3.18 0 01-1.32-2.48v-1.42a3.2 3.2 0 011.32-2.48l2.22 1.44a2.93 2.93 0 000 3.5zm5.26 2.69h-1.42a3.2 3.2 0 01-2.48-1.32l1.44-2.23a2.89 2.89 0 003.5 0l1.44 2.23a3.18 3.18 0 01-2.48 1.32zm5.17-5.17a3.18 3.18 0 01-1.32 2.48l-2.23-1.44a2.89 2.89 0 000-3.5l2.23-1.44a3.2 3.2 0 011.32 2.48zm-82.21 5.91l-3-4.41a2.86 2.86 0 010-3.24l3-4.41a1.19 1.19 0 012 0l3 4.41a2.86 2.86 0 010 3.24l-3 4.41a1.19 1.19 0 01-2 0z"/><path class="cls-2" d="M392.42 398.75a2.12 2.12 0 01-2.09-2.09v-12.54l-2.24 2.3a1.66 1.66 0 01-1.17.47 1.78 1.78 0 01-1.76-1.76 1.75 1.75 0 01.54-1.25l4.6-4.66a2.52 2.52 0 011.79-.72 2.47 2.47 0 012.48 2.42v15.74a2.13 2.13 0 01-2.15 2.09zm13.38.18c-5.7 0-8.24-5.17-8.24-10.3s2.54-10.28 8.24-10.28 8.24 5.14 8.24 10.28-2.57 10.3-8.24 10.3zm0-16.81c-2.87 0-3.94 2.83-3.94 6.51s1.07 6.53 3.94 6.53 3.91-2.86 3.91-6.53-1.07-6.51-3.91-6.51z" id="number-10"/></g><path id="neck" fill="#d3aba1" d="M428.13 341.21l-27.59 8.62-28.6-9.62-1.92-23.62h61.04l-2.93 24.62z"/><path d="M503.38 369.38L500.91 339c-1.19-11.87-11.83-22.25-23.72-23.14l-37.14-2.7c-4.07-.45-20.52-.09-39.55.53-19-.62-35.48-1-39.55-.53l-37.14 2.7c-11.89.89-22.53 11.27-23.72 23.14l-2.47 30.36a20.14 20.14 0 005 15.74 18.65 18.65 0 001.69 1.64v66.36c0 12.81 9.32 23.23 20.78 23.23a19.8 19.8 0 0015.21-7.43v21.79a12.24 12.24 0 007.74 11.36v68h-5.93c-10.93 0-19.83 5.8-19.83 17.11 0 8.06 0 17 11.72 19.7v1.6a1.37 1.37 0 001.38 1.37h1.63a1.37 1.37 0 001.38-1.37v-1q1.72.15 3.72.15H344v.8a1.37 1.37 0 001.38 1.37h1.63a1.37 1.37 0 001.38-1.37v-.8H354v.8a1.37 1.37 0 001.38 1.37h1.63a1.37 1.37 0 001.38-1.37v-.8H364v.8a1.37 1.37 0 001.38 1.37h1.63a1.37 1.37 0 001.38-1.37v-.8H374v.8a1.37 1.37 0 001.38 1.37h1.63a1.37 1.37 0 001.38-1.37v-.8H384v.8a1.37 1.37 0 001.38 1.37h1.63a1.37 1.37 0 001.38-1.37v-.8H394v.8a1.37 1.37 0 001.38 1.37h1.63a1.37 1.37 0 001.38-1.37v-.81l.06-55.46V503h4v49.21l.06 54.67v1.6a1.37 1.37 0 001.38 1.37h1.63a1.37 1.37 0 001.38-1.37v-.8h5.61v.8a1.37 1.37 0 001.38 1.37h1.63a1.37 1.37 0 001.38-1.37v-.8h5.61v.8a1.37 1.37 0 001.38 1.37h1.63a1.37 1.37 0 001.38-1.37v-.8h5.61v.8a1.37 1.37 0 001.38 1.37h1.63a1.37 1.37 0 001.38-1.37v-.8h5.61v.8a1.37 1.37 0 001.38 1.37h1.63a1.37 1.37 0 001.38-1.37v-.8h5.61v.8a1.37 1.37 0 001.38 1.37h1.63a1.37 1.37 0 001.38-1.37v-.8h1.89c1.33 0 2.56 0 3.72-.15v1a1.37 1.37 0 001.38 1.37h1.63a1.37 1.37 0 001.38-1.37v-1.6c11.71-2.68 11.72-11.64 11.72-19.7 0-11.31-8.9-17.11-19.83-17.11h-5.93v-68a12.24 12.24 0 007.74-11.36v-21.84a19.8 19.8 0 0015.21 7.43c11.46 0 20.78-10.42 20.78-23.23v-66.36a18.65 18.65 0 001.69-1.64 20.14 20.14 0 005.1-15.74zM372.89 323.2c3.46 1.85 15.64 2.08 27.61 1.8 12 .28 24.15.05 27.61-1.8V335c0 4.81-22.42 12-27.23 12l-.38-.07-.38.07c-4.81 0-27.23-7.18-27.23-12zm-33 75.43v55c0 9.5-6.63 17.23-14.78 17.23s-14.78-7.73-14.78-17.23v-62.78a21.07 21.07 0 007.47 1.36h22.09zm52.91 203.42h-50.65c-14.21 0-14.21-5-14.21-14.89 0-8.22 6.37-11.5 14.21-11.5h11.67l38.93-2.7.07 15.37zm-38.74-76.4h38.67v41.7L354.08 570h-.26v-44.4zm-.26-5.74v-17h38.93v16.93h-38.91zm104.77 55.75h.26c7.84 0 14.21 3.28 14.21 11.5 0 9.91 0 14.89-14.21 14.89h-50.65v-13.7l.07-15.37 38.93 2.7h11.41zm-11.67-50h.26v44.4h-.26l-38.67-2.68v-41.7zm-38.67-5.74V503h38.93v17h-38.91zm46.84-73.78H455v44.58a6.6 6.6 0 01-6.58 6.58h-1.26l-43.68-.05s-.11-3.72-.16-8.75v-2.8c0-3.52-1.41-5.09-2.82-5-1.41-.08-2.82 1.49-2.82 5v2.79c-.05 5-.16 8.75-.16 8.75l-43.68.05h-1.26a6.6 6.6 0 01-6.58-6.58v-44.58h-.07v-.33l30.25.33h48.68l30.25-.33zm35.56 7.51c0 9.5-6.63 17.23-14.78 17.23s-14.78-7.73-14.78-17.23v-61.44h22.09a21.07 21.07 0 007.47-1.36zm6-77.21a13.55 13.55 0 01-2.76 4.66 13.85 13.85 0 01-3.24 2.63 14.72 14.72 0 01-7.47 2l-22.09.09v-20.15c0-5.56-6.08-5.93-6.08 0s.08 14.37.08 14.37v59.59H345.91V380s.08-8.45.08-14.37-6.08-5.54-6.08 0v20.11l-22.09-.09a14.72 14.72 0 01-7.47-2 13.85 13.85 0 01-3.24-2.63 13.55 13.55 0 01-2.76-4.66 14.79 14.79 0 01-.75-6.46l2.46-30.35c.9-8.95 9.23-17.08 18.2-17.75l11.12-.84 32.21-2.29c.68.55.49 17.49.49 17.49 0 8.43 23.34 15.29 31.77 15.29h1.3c8.43 0 31.77-6.86 31.77-15.29 0 0-.19-16.94.49-17.49l32.21 2.33 11.12.84c9 .67 17.3 8.8 18.2 17.75L497.4 370a14.79 14.79 0 01-.75 6.43z" id="border"/><g id="head"><path class="cls-11" d="M406.52 184.67c32.57 0 17.75 9.91 21.59 14.4s9.4 6.89 12.77 15.47 9.81 11.82 10.75 24.21c.86 11.44 0 14.85-1.72 14.85a2.29 2.29 0 01-1-.29 4 4 0 00-1.92-.46 2.68 2.68 0 00-.4 0l-1.22 4.32h-3.07a5 5 0 01-5-5.39l1.1-13.78a10.66 10.66 0 00-1-5.39c-2.73-5.8-9.52-19.65-13.9-23.77-3.46-3.26-5.77-4.64-7.94-4.64-3.11 0-5.95 2.81-11.5 7a19.22 19.22 0 01-5.25.77c-7.91 0-12.37-5.54-17.15-5.54a7.42 7.42 0 00-5.18 2.41c-4.38 4.12-11.17 18-13.9 23.77a10.66 10.66 0 00-1 5.39l1.09 13.79a5 5 0 01-5 5.39h-3.08l-1.59-5.86v-.19l-.08.19c-.16 0-2.51-.14-3.8-8.11-1.33-8.25 3.37-22.49 6.56-26.37s5-12.2 10-15.9 3.32-3.11 8.42-5c4.87-1.77 19.95-11.24 31.37-11.31h1.1m0-5h-1.13c-9.67.06-20.74 5.6-28.07 9.26-2.06 1-4 2-5 2.35-4 1.46-4.62 1.72-7 3.6-.63.5-1.42 1.12-2.66 2-4.08 3-6.25 7.64-8.17 11.73a28.56 28.56 0 01-2.72 5c-4.15 5-9.21 20.63-7.64 30.35.95 5.89 2.69 9.08 4.59 10.73l1.08 3.81a5 5 0 004.81 3.64h3.08a10 10 0 0010-10.78l-1.08-13.79a5.66 5.66 0 01.52-2.87c5.33-11.31 10.24-19.84 12.8-22.26a3.37 3.37 0 011.76-1.05c.86 0 2.5.85 4.09 1.68 3.11 1.63 7.38 3.86 13.06 3.86a24.08 24.08 0 006.61-1 5.1 5.1 0 001.65-.82c1.12-.84 2.13-1.63 3.06-2.36 2.07-1.62 4.66-3.63 5.43-3.63.1 0 1.13.09 4.52 3.28 2.56 2.42 7.47 10.95 12.8 22.26a5.66 5.66 0 01.52 2.87l-1.08 13.79a10 10 0 0010 10.78h3.08a5 5 0 004.8-3.6 6.15 6.15 0 004.29-2c2.11-2.28 3.08-5.86 2.14-18.22-.69-9.2-4.1-14.24-7.11-18.69a35 35 0 01-4-7c-2.76-7.07-6.87-10.67-10.16-13.58-1-.91-2-1.78-2.88-2.68.06-.31.14-.68.2-1 .54-2.35 1.43-6.28-1.43-9.86-3.39-4.24-10.55-6-24.74-6z"/><path id="skin-2" data-name="skin" class="cls-1" d="M446.88 254.05c0-.91.08-1.81.08-2.73 0-30.51-21.06-55.25-47-55.25s-47 24.74-47 55.25c0 1.11 0 2.22.1 3.31-4.05 2.46-6.91 8.44-6.91 15.43 0 9.19 4.93 16.64 11 16.64a7.48 7.48 0 002.1-.32c.82 24.5 18.73 44.08 40.73 44.08S440 310.65 440.66 286a7.65 7.65 0 003.25.74c6.09 0 11-7.45 11-16.64.02-7.67-3.39-14.1-8.03-16.05z"/><path d="M447 251.32c-1.19-4.08-9.73.48-9.73.48s-4.58 28.74-4.35 35.4-12.09 18.66-15.42 18.66-5.85-2.44-17.62-2.62c-11.77.18-14.13 2.62-17.46 2.62s-15.66-12-15.42-18.66-4.35-35.4-4.35-35.4-8.54-4.56-9.73-.48 5.85 19.23 6.23 35.06S370 315.74 370 315.74c8.85 12.89 30 14.72 30 14.72s21.15-1.83 30-14.72c0 0 10.44-13.52 10.81-29.36s7.42-30.97 6.19-35.06zm-39.31 68.26h-15.58a4.67 4.67 0 010-9.34h15.62a4.67 4.67 0 010 9.34z" opacity=".3" fill="#b08874"/><path class="cls-11" d="M399.92 333.46c-22.68 0-41.28-19-43.53-43.79-7.52-.49-13.32-8.93-13.32-19.61 0-7 2.64-13.45 6.84-16.92v-1.82c0-32.12 22.45-58.25 50-58.25s50 26.13 50 58.25v1c4.85 3.18 8 10 8 17.76 0 11-6.16 19.64-14 19.64h-.46c-2.25 24.79-20.78 43.74-43.53 43.74zm-40.73-50.08a3 3 0 013 2.9c.77 23.09 17.34 41.18 37.73 41.18 20.58 0 37.15-18.26 37.74-41.58a3 3 0 014.27-2.64 4.73 4.73 0 002 .46c4.35 0 8-6.25 8-13.64 0-7-3.13-11.94-6.22-13.25a3 3 0 01-1.83-2.89v-.18c0-.8.07-1.6.07-2.42 0-28.81-19.76-52.25-44-52.25s-44 23.44-44 52.25c0 .92 0 1.89.09 3.16a3 3 0 01-1.43 2.71c-3.27 2-5.47 7.16-5.47 12.87 0 7.39 3.67 13.64 8 13.64a4.69 4.69 0 001.25-.19 2.74 2.74 0 01.8-.13z"/><path d="M451.63 238.75c-.94-12.39-7.4-15.64-10.75-24.21s-8.89-10.93-12.77-15.47 11.32-14.62-22.69-14.4c-11.42.07-26.5 9.54-31.37 11.31-5.1 1.85-3.38 1.26-8.42 5s-6.8 12-10 15.9-7.89 18.12-6.56 26.37 3.81 8.11 3.81 8.11l.08-.19v.19l1.66 5.87h3.08a5 5 0 005-5.39L361.6 238a10.66 10.66 0 011-5.39c2.73-5.8 9.52-19.65 13.9-23.77 8.4-7.91 13 6.52 27.58 2.36 9.45-7.13 11-10.27 19.44-2.36 4.38 4.12 11.17 18 13.9 23.77a10.66 10.66 0 011 5.39l-1.09 13.79a5 5 0 005 5.39h3.08l1.22-4.32a4.15 4.15 0 012.32.44c2.34 1.25 3.7-1.1 2.68-14.55zm-7.38-6.19z" fill="#b08874"/></g></svg>