<svg id="player" xmlns="http://www.w3.org/2000/svg" viewBox="0 0 800 800"><defs><style>.cls-1{fill:#d3ad98}.cls-2{fill:#fff}.cls-4{fill:#e41e26}.cls-5{fill:#af1f24}.cls-6{fill:#fee07e}.cls-7{fill:#fcd23c}.cls-8{fill:#333}.cls-10{fill:#231f20}.cls-13{fill:#2d2317}.cls-12{fill:none}.cls-13{opacity:.1}</style></defs><g id="skin"><path id="arm-left" class="cls-1" d="M306.43 383h36.78v72.38a18.39 18.39 0 01-18.39 18.39 18.39 18.39 0 01-18.39-18.39V383z"/><path id="arm-right" class="cls-1" d="M457.69 383h36.78v72.38a18.39 18.39 0 01-18.39 18.39 18.39 18.39 0 01-18.39-18.39V383z"/><path id="leg-left" class="cls-1" d="M350.38 492.97h45.67v45.67h-45.67z"/><path id="leg-right" class="cls-1" d="M405.28 492.97h45.67v45.67h-45.67z"/></g><g id="boots"><path id="left" class="cls-2" d="M395.83 570.99H373l-22.83 1.98h-12.5l-7.5 2.52-5.25 8.5v9.83l1.91 4.17 3.84 4.06 6.33 1.94h58.83v-33z"/><path id="right" class="cls-2" d="M405.11 571.22h22.83l22.83 1.97h12.5l7.5 2.53 5.25 8.5v9.83l-1.91 4.17-3.84 4.05-6.33 1.95h-58.83v-33z"/><path d="M325.55 587.49S384.87 604.39 396 571c0 0-50.88-.55-58.38 2s-11.91 10.22-12.07 14.49zm149.82 0s-59.32 16.9-70.49-16.5c0 0 50.88-.55 58.38 2s11.95 10.23 12.11 14.5z" fill="#ededed"/></g><g id="socks"><g id="socks-2" data-name="socks"><path id="left-2" data-name="left" class="cls-4" d="M350.38 522.95h45.67v48.04h-45.67z"/><path id="right-2" data-name="right" class="cls-4" d="M404.88 522.95h45.67v48.04h-45.67z"/></g><path class="cls-5" d="M350.72 527.68h45.08v2.25h-45.08zm54.42 0h45.08v2.25h-45.08zm-54.42 4.5h45.08v2.25h-45.08zm54.42 0h45.08v2.25h-45.08z"/></g><g id="shorts"><path id="shorts-2" data-name="shorts" class="cls-4" d="M342.17 443.49h116.49v47a9.95 9.95 0 01-9.95 9.95h-96.6a9.95 9.95 0 01-9.95-9.95v-47h.01z"/><path class="cls-5" d="M347.91 443.49H350v53.8h-2.09zm4.17 0h2.09v53.8h-2.09zm94.75 0h2.09v53.8h-2.09zm4.17 0h2.09v53.8H451z"/></g><g id="shirt"><path id="shirt-2" data-name="shirt" class="cls-4" d="M370 315.75l-48.29 2.99-11.36 6.25-6.83 10.1-3.31 40.73 5.17 7.67 7.66 4.67h29.5l.17 54h114.83v-53.5l29.34-.17 7.01-4 6.99-10.5-3.4-37.33-6.83-11.84-9.77-6.08-49.84-2.99-1 21.24-6.5 6.5-11.16 3.48-11.88 2.02-15.46-3.17-11-5.66-3.66-3.84-.38-20.57z"/><path class="cls-5" d="M370.38 336.32l-.38-20.57-6.07 2s-11.46 28.46 14.07 33.68c20.37 4.17 22 3.69 22 3.69V349l-19.88-4.18zm65.69-18.56l-6.07-2-.38 20.57-9.74 8.54L400 349v6.08s1.65.48 22-3.69c25.53-5.18 14.07-33.63 14.07-33.63z"/><path class="cls-5" transform="rotate(45 367.117 373.485)" d="M355.71 361.54h22.81v23.89h-22.81z"/><path class="cls-6" transform="rotate(45 350.74 364.811)" d="M344.49 358.25h12.52v13.11h-12.52z"/><path class="cls-6" transform="rotate(45 350.325 382.93)" d="M344.07 376.37h12.52v13.11h-12.52z"/><path class="cls-6" transform="rotate(45 383.815 364.051)" d="M377.56 357.49h12.52v13.11h-12.52z"/><path class="cls-6" transform="rotate(45 383.4 382.17)" d="M377.14 375.61h12.52v13.11h-12.52z"/><path class="cls-5" transform="rotate(45 400.04 372.732)" d="M388.63 360.78h22.81v23.89h-22.81z"/><path class="cls-6" transform="rotate(45 416.75 363.293)" d="M410.49 356.74h12.52v13.11h-12.52z"/><path class="cls-6" transform="rotate(45 416.334 381.411)" d="M410.07 374.86h12.52v13.11h-12.52z"/><path class="cls-5" transform="rotate(45 432.974 371.974)" d="M421.56 360.03h22.81v23.89h-22.81z"/><path class="cls-6" transform="rotate(45 449.671 362.54)" d="M443.41 355.98h12.52v13.11h-12.52z"/><path class="cls-6" transform="rotate(45 449.256 380.658)" d="M443 374.1h12.52v13.11H443z"/><g id="brand-adidas"><g id="adidas"><rect id="bottom" class="cls-7" x="357.51" y="360.84" width="14.43" height="2.04" rx=".62" ry=".62"/><path class="cls-7" d="M364.79 352.57a1.26 1.26 0 00-.46 1.72l3 5.15a1.26 1.26 0 001.1.64h2.21l-4.11-7.08a1.27 1.27 0 00-1.74-.43zm-2.53 2.56a1.26 1.26 0 00-.47 1.71l1.45 2.59a1.28 1.28 0 001.11.65h2.21l-2.56-4.49a1.26 1.26 0 00-1.74-.46zm-2.79 2.22a1.27 1.27 0 00-.47 1.72l.2.35a1.26 1.26 0 001.11.66h2.2l-1.29-2.26a1.29 1.29 0 00-1.75-.47z"/></g></g><path class="cls-8" d="M394.63 363.08a1.67 1.67 0 00-1.54 2l.41 2.86a19.93 19.93 0 004.42 7.79v-12.65z"/><path class="cls-4" d="M406.07 363.08h-3.3v12.63a19.68 19.68 0 004.42-7.79l.42-2.86a1.67 1.67 0 00-1.54-1.98z"/><path class="cls-7" d="M397.92 363.08v12.63c.29.3.59.6.9.89l1.53 1.43 1.53-1.43c.31-.29.61-.59.89-.89v-12.63z"/><path d="M405.58 363.72a1.53 1.53 0 011.41 1.81l-.38 2.62a18 18 0 01-4.86 7.94l-.6.56a1.17 1.17 0 01-1.6 0l-.6-.56a17.91 17.91 0 01-4.86-7.94l-.38-2.62a1.52 1.52 0 011.4-1.81h10.47m0-2.27h-10.47a3.63 3.63 0 00-2.74 1.27 3.88 3.88 0 00-.9 3.13l.38 2.62v.17l.05.16a20.17 20.17 0 005.48 8.94l1.4 1.31 1.55 1.44 1.54-1.44 1.4-1.31a20.08 20.08 0 005.48-8.94l.05-.16v-.17l.38-2.62a3.92 3.92 0 00-.91-3.13 3.6 3.6 0 00-2.74-1.27z"/><path class="cls-7" d="M393.34 402.26a2.12 2.12 0 01-2.09-2.09v-12.54l-2.24 2.3a1.62 1.62 0 01-1.16.47 1.78 1.78 0 01-1.77-1.76 1.75 1.75 0 01.54-1.25l4.6-4.66A2.54 2.54 0 01393 382a2.46 2.46 0 012.48 2.42v15.74a2.13 2.13 0 01-2.14 2.1zm13.38.18c-5.7 0-8.24-5.17-8.24-10.3s2.54-10.28 8.24-10.28S415 387 415 392.14s-2.6 10.3-8.28 10.3zm0-16.81c-2.86 0-3.94 2.83-3.94 6.51s1.08 6.54 3.94 6.54 3.92-2.87 3.92-6.54-1.08-6.51-3.92-6.51z" id="number-10"/><g id="asset-captain-band-two-colour"><g id="asset-captain-band-two-colour-2" data-name="asset-captain-band-two-colour"><path class="cls-8" d="M457.93 364.85h42.82v10.26h-42.82z"/><path class="cls-7" d="M462.64 354.58h38.11v10.26h-42.82v-5.55a4.71 4.71 0 014.71-4.71z"/></g></g></g><path id="neck" fill="#a88a7b" d="M428.13 341.21l-27.59 8.62-28.6-9.62-1.92-23.62h61.04l-2.93 24.62z"/><path d="M503.38 369.38L500.91 339c-1.19-11.87-11.83-22.25-23.72-23.14l-37.14-2.7c-4.07-.45-20.52-.09-39.55.53-19-.62-35.48-1-39.55-.53l-37.14 2.7c-11.89.89-22.53 11.27-23.72 23.14l-2.47 30.36a20.14 20.14 0 005 15.74 18.65 18.65 0 001.69 1.64v66.36c0 12.81 9.32 23.23 20.78 23.23a19.8 19.8 0 0015.21-7.43v21.79a12.24 12.24 0 007.74 11.36v68h-5.93c-10.93 0-19.83 5.8-19.83 17.11 0 8.06 0 17 11.72 19.7v1.6a1.37 1.37 0 001.38 1.37h1.63a1.37 1.37 0 001.38-1.37v-1q1.72.15 3.72.15H344v.8a1.37 1.37 0 001.38 1.37h1.63a1.37 1.37 0 001.38-1.37v-.8H354v.8a1.37 1.37 0 001.38 1.37h1.63a1.37 1.37 0 001.38-1.37v-.8H364v.8a1.37 1.37 0 001.38 1.37h1.63a1.37 1.37 0 001.38-1.37v-.8H374v.8a1.37 1.37 0 001.38 1.37h1.63a1.37 1.37 0 001.38-1.37v-.8H384v.8a1.37 1.37 0 001.38 1.37h1.63a1.37 1.37 0 001.38-1.37v-.8H394v.8a1.37 1.37 0 001.38 1.37h1.63a1.37 1.37 0 001.38-1.37v-.81l.06-55.46V503h4v49.21l.06 54.67v1.6a1.37 1.37 0 001.38 1.37h1.63a1.37 1.37 0 001.38-1.37v-.8h5.61v.8a1.37 1.37 0 001.38 1.37h1.63a1.37 1.37 0 001.38-1.37v-.8h5.61v.8a1.37 1.37 0 001.38 1.37h1.63a1.37 1.37 0 001.38-1.37v-.8h5.61v.8a1.37 1.37 0 001.38 1.37h1.63a1.37 1.37 0 001.38-1.37v-.8h5.61v.8a1.37 1.37 0 001.38 1.37h1.63a1.37 1.37 0 001.38-1.37v-.8h5.61v.8a1.37 1.37 0 001.38 1.37h1.63a1.37 1.37 0 001.38-1.37v-.8h1.89c1.33 0 2.56 0 3.72-.15v1a1.37 1.37 0 001.38 1.37h1.63a1.37 1.37 0 001.38-1.37v-1.6c11.71-2.68 11.72-11.64 11.72-19.7 0-11.31-8.9-17.11-19.83-17.11h-5.93v-68a12.24 12.24 0 007.74-11.36v-21.84a19.8 19.8 0 0015.21 7.43c11.46 0 20.78-10.42 20.78-23.23v-66.36a18.65 18.65 0 001.69-1.64 20.14 20.14 0 005.1-15.74zM372.89 323.2c3.46 1.85 15.64 2.08 27.61 1.8 12 .28 24.15.05 27.61-1.8V335c0 4.81-22.42 12-27.23 12l-.38-.07-.38.07c-4.81 0-27.23-7.18-27.23-12zm-33 75.43v55c0 9.5-6.63 17.23-14.78 17.23s-14.78-7.73-14.78-17.23v-62.78a21.07 21.07 0 007.47 1.36h22.09zm52.91 203.42h-50.65c-14.21 0-14.21-5-14.21-14.89 0-8.22 6.37-11.5 14.21-11.5h11.67l38.93-2.7.07 15.37zm-38.74-76.4h38.67v41.7L354.08 570h-.26v-44.4zm-.26-5.74v-17h38.93v16.93h-38.91zm104.77 55.75h.26c7.84 0 14.21 3.28 14.21 11.5 0 9.91 0 14.89-14.21 14.89h-50.65v-13.7l.07-15.37 38.93 2.7h11.41zm-11.67-50h.26v44.4h-.26l-38.67-2.68v-41.7zm-38.67-5.74V503h38.93v17h-38.91zm46.84-73.78H455v44.58a6.6 6.6 0 01-6.58 6.58h-1.26l-43.68-.05s-.11-3.72-.16-8.75v-2.8c0-3.52-1.41-5.09-2.82-5-1.41-.08-2.82 1.49-2.82 5v2.79c-.05 5-.16 8.75-.16 8.75l-43.68.05h-1.26a6.6 6.6 0 01-6.58-6.58v-44.58h-.07v-.33l30.25.33h48.68l30.25-.33zm35.56 7.51c0 9.5-6.63 17.23-14.78 17.23s-14.78-7.73-14.78-17.23v-61.44h22.09a21.07 21.07 0 007.47-1.36zm6-77.21a13.55 13.55 0 01-2.76 4.66 13.85 13.85 0 01-3.24 2.63 14.72 14.72 0 01-7.47 2l-22.09.09v-20.15c0-5.56-6.08-5.93-6.08 0s.08 14.37.08 14.37v59.59H345.91V380s.08-8.45.08-14.37-6.08-5.54-6.08 0v20.11l-22.09-.09a14.72 14.72 0 01-7.47-2 13.85 13.85 0 01-3.24-2.63 13.55 13.55 0 01-2.76-4.66 14.79 14.79 0 01-.75-6.46l2.46-30.35c.9-8.95 9.23-17.08 18.2-17.75l11.12-.84 32.21-2.29c.68.55.49 17.49.49 17.49 0 8.43 23.34 15.29 31.77 15.29h1.3c8.43 0 31.77-6.86 31.77-15.29 0 0-.19-16.94.49-17.49l32.21 2.33 11.12.84c9 .67 17.3 8.8 18.2 17.75L497.4 370a14.79 14.79 0 01-.75 6.43z" id="border"/><g id="head"><path class="cls-10" d="M400.35 197.4s17.38 1 23.21 7.41c0 0 13.35 7.29 17.16 18.28 0 0 5.68 10.51 5.38 20.37-.13 4.43-.64 5.63-1.31 5.63s-1.82-1.64-2.76-1.64h-.11s-4.19-1.86-4.53-2.87.41-7.75-.71-10-5.53-9.72-9-12.41c-1.2-.92-4.08-1.22-7.59-1.22-6.82 0-16 1.14-19.7 1.14S387.46 221 380.64 221c-3.5 0-6.39.31-7.58 1.22-3.52 2.69-7.93 10.17-9.05 12.41s-.37 9-.71 10-4.52 2.87-4.52 2.87h-.12c-.93 0-2 1.64-2.75 1.64s-1.18-1.2-1.32-5.63c-.3-9.86 5.38-20.37 5.38-20.37 3.82-11 17.16-18.28 17.16-18.28 5.83-6.4 23.22-7.41 23.22-7.41m0-5.68h-.33a79.35 79.35 0 00-10.24 1.42c-7.51 1.55-12.81 3.89-16.16 7.12-3.17 1.89-14.77 9.4-18.85 20.53-1.14 2.22-6.16 12.62-5.85 22.82.08 2.62.34 13.36.71 14.73 1.06 3.95 3.91-3.6 6.28-3.6a7.21 7.21 0 004.68-1.9l.49-.22c5.69-2.52 7-4.5 7.6-6.26a13.35 13.35 0 00.37-4.67 32.53 32.53 0 01.15-4.79c1.37-2.68 4.79-8 7-10a21.13 21.13 0 014.46-.32c3.7 0 8.21.37 12.18.68 3.08.25 5.73.46 7.53.46s4.45-.21 7.52-.46c4-.31 8.48-.68 12.18-.68a21.19 21.19 0 014.47.32c2.18 1.94 5.6 7.28 7 10a32.57 32.57 0 01.14 4.79 13.86 13.86 0 00.37 4.67c.59 1.76 1.92 3.74 7.61 6.26l.49.22a7.21 7.21 0 004.68 1.9c2.37 0 5.94 8.69 7 4.74.37-1.37-.09-13.25 0-15.87.31-10.2-4.7-20.59-5.84-22.82-4.08-11.13-15.68-18.64-18.86-20.53-3.34-3.23-8.64-5.57-16.15-7.12a79.58 79.58 0 00-10.24-1.42h-.33z"/><path id="skin-2" data-name="skin" class="cls-1" d="M446.88 254.05c0-.91.08-1.81.08-2.73 0-30.51-21.06-55.25-47-55.25s-47 24.74-47 55.25c0 1.11 0 2.22.1 3.31-4.05 2.46-6.91 8.44-6.91 15.43 0 9.19 4.93 16.64 11 16.64a7.48 7.48 0 002.1-.32c.82 24.5 18.73 44.08 40.73 44.08S440 310.65 440.66 286a7.65 7.65 0 003.25.74c6.09 0 11-7.45 11-16.64.02-7.67-3.39-14.1-8.03-16.05z"/><path class="cls-10" d="M399.92 333.46c-22.68 0-41.28-19-43.53-43.79-7.52-.49-13.32-8.93-13.32-19.61 0-7 2.64-13.45 6.84-16.92v-1.82c0-32.12 22.45-58.25 50-58.25s50 26.13 50 58.25v1c4.85 3.18 8 10 8 17.76 0 11-6.16 19.64-14 19.64h-.46c-2.25 24.79-20.78 43.74-43.53 43.74zm-40.73-50.08a3 3 0 013 2.9c.77 23.09 17.34 41.18 37.73 41.18 20.58 0 37.15-18.26 37.74-41.58a3 3 0 014.27-2.64 4.73 4.73 0 002 .46c4.35 0 8-6.25 8-13.64 0-7-3.13-11.94-6.22-13.25a3 3 0 01-1.83-2.89v-.18c0-.8.07-1.6.07-2.42 0-28.81-19.76-52.25-44-52.25s-44 23.44-44 52.25c0 .92 0 1.89.09 3.16a3 3 0 01-1.43 2.71c-3.27 2-5.47 7.16-5.47 12.87 0 7.39 3.67 13.64 8 13.64a4.69 4.69 0 001.25-.19 2.74 2.74 0 01.8-.13z"/><path d="M440.72 223.09c-3.81-11-17.16-18.28-17.16-18.28-5.83-6.4-23.21-7.41-23.21-7.41s-17.39 1-23.22 7.41c0 0-13.34 7.29-17.16 18.28 0 0-5.68 10.51-5.38 20.37s2.43 3.73 4.19 4c0 0 4.19-1.86 4.52-2.87s-.41-7.75.71-10 5.53-9.72 9.05-12.41 21.68-.08 27.29-.08 23.77-2.61 27.29.08 7.92 10.17 9 12.41.38 9 .71 10 4.53 2.87 4.53 2.87c1.76-.27 3.88 5.83 4.18-4s-5.34-20.37-5.34-20.37z" fill="#2d2317"/><path class="cls-12" d="M412.34 308.45h-24a1 1 0 00-.18.39 29.85 29.85 0 01-1.41 4h27.15a33 33 0 01-1.41-4 1 1 0 00-.15-.39z"/><path class="cls-12" d="M400.47 305.54a1 1 0 00-.25 0c-1.18.07-10.41.68-11.86 2.91h24c-1.48-2.23-10.71-2.84-11.89-2.91zM383.66 313v-.1H378l2.37 1.48a2.21 2.21 0 003.29-1.38zm2.12 2.36a2.2 2.2 0 001 2.75c2.9 1.63 5.74 3.11 8.14 4.19a2.21 2.21 0 003.1-2v-.49a2.2 2.2 0 012.2-2.21 2.21 2.21 0 012.21 2.21v.63a2.2 2.2 0 003.09 2c2.47-1.09 5.43-2.63 8.46-4.33a2.21 2.21 0 001-2.75l-1-2.48h-27.21c-.32.82-.66 1.66-.99 2.48z"/><path class="cls-13" d="M400.22 306.07h.25c1.18.08 10.41.81 11.87 3.48h3.51c-.47-1.8-.93-3.09-1.33-3.21-1.26-.38-11.47-2.87-13.73-3.43a1.87 1.87 0 00-.88 0c-2.26.56-12.48 3-13.74 3.43-.39.12-.86 1.41-1.33 3.21h3.52c1.45-2.67 10.64-3.4 11.86-3.48z"/><path class="cls-13" d="M431.3 306.71c-.22.68-5.08 4.05-11 7.65-1.28.78-5.42 3.21-6.39 3.75-3 1.7-6 3.24-8.46 4.33a2.2 2.2 0 01-3.09-2v-.63a2.21 2.21 0 00-2.21-2.21 2.2 2.2 0 00-2.2 2.21v.49a2.21 2.21 0 01-3.1 2c-2.4-1.08-5.24-2.56-8.14-4.19-1-.54-5.11-3-6.4-3.75l-2.31-1.48c-4.76-3-8.39-5.59-8.58-6.17-2-6.14-3.62-22.28-5.44-21.85a3.76 3.76 0 00-2.65 3 98.18 98.18 0 002.09 11.89c1.8 8.07 13.74 21.38 17.63 24.18 3.44 2.48 16 5.8 18.77 6.51a2.05 2.05 0 001.1 0c2.78-.71 15.32-4 18.77-6.51 3.88-2.8 15.83-16.11 17.63-24.18 1.63-7.31 4-11 4.08-11.7 0-.07-6.2-2.64-6.18-2.71.32-1.85-1.98 15.32-3.92 21.37z"/></g></svg>