<svg id="player" xmlns="http://www.w3.org/2000/svg" viewBox="0 0 800 800"><defs><style>.cls-1{fill:#dbb391}.cls-2{fill:#e2e2e2}.cls-4{fill:#20428d}.cls-5{fill:#ffed22}.cls-6{fill:#234e9c}.cls-7{fill:#005696}.cls-10{fill:#231f20}</style></defs><g id="skin"><path id="arm-left" class="cls-1" d="M306.43 383h36.78v72.38a18.39 18.39 0 01-18.39 18.39 18.39 18.39 0 01-18.39-18.39V383z"/><path id="arm-right" class="cls-1" d="M457.69 383h36.78v72.38a18.39 18.39 0 01-18.39 18.39 18.39 18.39 0 01-18.39-18.39V383z"/><path id="leg-left" class="cls-1" d="M350.38 492.97h45.67v45.67h-45.67z"/><path id="leg-right" class="cls-1" d="M405.28 492.97h45.67v45.67h-45.67z"/></g><g id="boots"><path id="left" class="cls-2" d="M395.83 570.99H373l-22.83 1.98h-12.5l-7.5 2.52-5.25 8.5v9.83l1.91 4.17 3.84 4.06 6.33 1.94h58.83v-33z"/><path id="right" class="cls-2" d="M405.11 571.22h22.83l22.83 1.97h12.5l7.5 2.53 5.25 8.5v9.83l-1.91 4.17-3.84 4.05-6.33 1.95h-58.83v-33z"/><path d="M387.89 580.19c-7.31 3.09-18.58 8-29.45 13a5.66 5.66 0 002.39 10.8h34.83l.17-18.48a5.71 5.71 0 00-7.94-5.32zm24.93 0c7.31 3.09 18.58 8 29.45 13a5.66 5.66 0 01-2.39 10.8h-34.83l-.17-18.48a5.71 5.71 0 017.94-5.32z" fill="#f47422"/></g><g id="socks"><g id="socks-2" data-name="socks"><path id="left-2" data-name="left" class="cls-4" d="M350.38 522.95h45.67v48.04h-45.67z"/><path id="right-2" data-name="right" class="cls-4" d="M404.88 522.95h45.67v48.04h-45.67z"/></g><path class="cls-5" d="M352.06 528.41h44.61v1.76h-44.61zm0 4.87h44.61v1.76h-44.61zm53.75-4.87h44.61v1.76h-44.61zm0 4.87h44.61v1.76h-44.61z"/></g><g id="shorts"><path id="shorts-2" data-name="shorts" class="cls-5" d="M342.17 443.49h116.49v47a9.95 9.95 0 01-9.95 9.95h-96.6a9.95 9.95 0 01-9.95-9.95v-47z"/><path class="cls-4" d="M348.91 444.03h3.15v54.6h-3.15zm6.3 0h3.15v54.6h-3.15zm87.44 0h3.15v54.6h-3.15zm6.29 0h3.15v54.6h-3.15z"/></g><g id="shirt"><path id="shirt-2" data-name="shirt" class="cls-4" d="M370 315.75l-48.29 2.99-11.36 6.25-6.83 10.1-3.31 40.73 5.17 7.67 7.66 4.67h29.5l.17 54h114.83v-53.5l29.34-.17 7.01-4 6.99-10.5-3.4-37.33-6.83-11.84-9.77-6.08-49.84-2.99-1 21.24-6.5 6.5-11.16 3.48-11.88 2.02-15.46-3.17-11-5.66-3.66-3.84-.38-20.57z"/><path class="cls-6" d="M345.91 417.78h21.83v21.83h-21.83zm43.67 0h21.83v21.83h-21.83zm43.67 0h21.83v21.83h-21.83zM367.75 396h21.83v21.83h-21.83zm43.67 0h21.83v21.83h-21.83zm-65.51-21.83h21.83V396h-21.83zm43.67 0h21.83V396h-21.83zm43.67 0h21.83V396h-21.83zm-65.5-21.78h21.83v21.83h-21.83zm43.67 0h21.83v21.83h-21.83zm-65.51-21.83h21.83v21.83h-13.1a8.74 8.74 0 01-8.74-8.74v-13.1l.01.01zm43.67 16.37h21.83v5.46h-21.83z"/><path class="cls-6" d="M433.25 330.56h21.83v13.1a8.74 8.74 0 01-8.74 8.74h-13.1v-21.84h.01z"/><g id="crest-sweden"><path class="cls-7" d="M434.84 360.2a4.77 4.77 0 014.47 3.12 5 5 0 011.75 1.65h.46a1.59 1.59 0 011.59 1.59v4.54a14.19 14.19 0 01-.11 1.72 15.94 15.94 0 01-4.32 9.08l-.9 1-.78.84a3 3 0 01-4.33 0l-.78-.84-.9-1a15.94 15.94 0 01-4.32-9.08 14.19 14.19 0 01-.11-1.72v-4.54a1.59 1.59 0 011.59-1.59h.46a5 5 0 011.75-1.65 4.77 4.77 0 014.48-3.12m-4.16 4.8h.05-.05m8.31 0h-.05.05m.55.54l-.06-.06.06.06m.38.69a.36.36 0 000-.09.36.36 0 010 .09m-10.17-.09a.3.3 0 000 .08.3.3 0 010-.08m6.85 4.41v-3.8 3.8m-3.57 0v-3.8 3.8m6.4 7.69c.16-.27.32-.54.47-.82-.15.28-.31.55-.47.82m-.24.38l-.39.57.39-.57m-1.65 2.11l-.9 1 .9-1 .43-.48-.43.48m-2.7 2.27a1.27 1.27 0 01-.28 0 1.27 1.27 0 00.28 0h.28-.28m0-24.67a6.65 6.65 0 00-5.95 3.71 6.36 6.36 0 00-1.22 1.1 3.43 3.43 0 00-2.95 3.39v4.54a15.91 15.91 0 00.12 1.94 17.79 17.79 0 004.8 10.12l.9 1 .78.84a4.89 4.89 0 007 0l.78-.84.9-1a17.73 17.73 0 004.8-10.12 15.91 15.91 0 00.12-1.94v-4.54a3.43 3.43 0 00-2.95-3.39 6.36 6.36 0 00-1.22-1.1 6.65 6.65 0 00-5.94-3.71z"/><g id="crest-sweden-2" data-name="crest-sweden"><path class="cls-5" d="M434.84 361.79a3.2 3.2 0 013.14 2.66 3.46 3.46 0 012.1 2.11h1.44v4.54a13.25 13.25 0 01-.09 1.54 14.44 14.44 0 01-3.91 8.18l-.9 1-.78.83a1.41 1.41 0 01-2 0l-.78-.83-.9-1a14.44 14.44 0 01-3.91-8.18 13.25 13.25 0 01-.09-1.54v-4.54h1.44a3.46 3.46 0 012.1-2.11 3.2 3.2 0 013.15-2.66m0-1.59a4.77 4.77 0 00-4.48 3.12 5 5 0 00-1.75 1.65h-.46a1.59 1.59 0 00-1.59 1.59v4.54a14.19 14.19 0 00.11 1.72 15.94 15.94 0 004.32 9.08l.9 1 .78.84a3 3 0 004.33 0l.78-.84.9-1a15.94 15.94 0 004.32-9.08 14.19 14.19 0 00.11-1.72v-4.54a1.59 1.59 0 00-1.59-1.59h-.46a5 5 0 00-1.75-1.65 4.77 4.77 0 00-4.47-3.12z"/><path class="cls-5" d="M440.08 366.56h-10.49a3.43 3.43 0 013.23-2.3h4a3.43 3.43 0 013.23 2.3z"/><circle class="cls-7" cx="434.84" cy="364.98" r="2.55"/><path d="M437.22 365a2.39 2.39 0 10-4.77 0 2.33 2.33 0 00.6 1.58h3.57a2.33 2.33 0 00.6-1.58z" fill="none"/><path class="cls-7" d="M428.24 372.64a14.44 14.44 0 003.91 8.18l.9 1v-9.14zm4.81-4.12a4 4 0 01-1.85-2h-3.05v4h4.9zm3.57 13.26l.9-1a14.44 14.44 0 003.91-8.18h-4.81zm1.85-15.22a4 4 0 01-1.85 2v2.08h4.9v-4z"/><path class="cls-5" d="M436.62 370.6v-4h-3.57v4h-4.9v.5c0 .51 0 2.56.09 3.07h4.81v7.61l.78.83a1.43 1.43 0 002 0l.78-.83v-7.61h4.81c.06-.51.09-2.56.09-3.07v-.5zm-3.57-4.04a2.33 2.33 0 01-.6-1.58 2.39 2.39 0 114.77 0 2.33 2.33 0 01-.6 1.58h1.85a3.79 3.79 0 00.33-1.58 4 4 0 10-7.93 0 3.79 3.79 0 00.33 1.58z"/><path class="cls-7" d="M433.05 368.52v-2h-1.85a4 4 0 001.85 2zm3.57 0a4 4 0 001.85-2h-1.85z"/></g></g><path class="cls-5" d="M362.15 316.59s-5.07 31.71 14.31 33.24H391l-9.7-5.38-12.37-8.13-.38-20.57zm76.7 0s5.07 31.71-14.31 33.24H410l9.7-5.38 12.37-8.13.38-20.57z"/><g id="brand-adidas"><g id="adidas"><rect id="bottom" class="cls-5" x="359.25" y="372.49" width="14.43" height="2.04" rx=".62" ry=".62"/><path class="cls-5" d="M366.54 364.22a1.26 1.26 0 00-.46 1.73l3 5.15a1.25 1.25 0 001.09.63h2.22l-4.08-7.05a1.27 1.27 0 00-1.77-.46zm-2.54 2.56a1.27 1.27 0 00-.46 1.72l1.45 2.58a1.27 1.27 0 001.11.65h2.2l-2.56-4.48a1.26 1.26 0 00-1.74-.47zm-2.78 2.22a1.26 1.26 0 00-.47 1.71l.19.36a1.28 1.28 0 001.11.65h2.2l-1.25-2.25a1.26 1.26 0 00-1.78-.47z"/></g></g><path class="cls-5" d="M322.48 331.36a1.83 1.83 0 01-.4-.05 1.5 1.5 0 01-1.05-1.84c.69-2.53 4-5.65 23.33-7.37 10.34-.92 20.59-1 20.69-1a1.51 1.51 0 011.5 1.5 1.48 1.48 0 01-1.49 1.5c-19 .08-40.13 2.44-41.14 6.13a1.49 1.49 0 01-1.44 1.13z"/><path class="cls-5" d="M322.48 337.23a1.39 1.39 0 01-.4-.06 1.49 1.49 0 01-1.05-1.84c.69-2.53 4-5.65 23.33-7.37 10.34-.91 20.59-1 20.69-1a1.5 1.5 0 010 3c-19 .07-40.13 2.43-41.14 6.12a1.49 1.49 0 01-1.43 1.15zm156.04-5.87a1.83 1.83 0 00.4-.05 1.5 1.5 0 001.05-1.84c-.69-2.53-4-5.65-23.33-7.37-10.34-.92-20.59-1-20.69-1a1.51 1.51 0 00-1.5 1.5 1.48 1.48 0 001.49 1.5c19 .08 40.13 2.44 41.14 6.13a1.49 1.49 0 001.44 1.13z"/><path class="cls-5" d="M478.52 337.23a1.39 1.39 0 00.4-.06 1.49 1.49 0 001.05-1.84c-.69-2.53-4-5.65-23.33-7.37-10.34-.91-20.59-1-20.69-1a1.5 1.5 0 000 3c19 .07 40.13 2.43 41.14 6.12a1.49 1.49 0 001.43 1.15z"/><path class="cls-5" d="M391.42 406.91a2.12 2.12 0 01-2.09-2.09v-12.54l-2.24 2.3a1.61 1.61 0 01-1.16.48 1.78 1.78 0 01-1.76-1.76 1.81 1.81 0 01.53-1.26l4.6-4.66a2.59 2.59 0 011.79-.71 2.45 2.45 0 012.48 2.42v15.73a2.12 2.12 0 01-2.15 2.09zm13.39.18c-5.71 0-8.25-5.16-8.25-10.3s2.54-10.27 8.25-10.27 8.24 5.13 8.24 10.27-2.57 10.3-8.24 10.3zm0-16.81c-2.87 0-3.95 2.84-3.95 6.51s1.08 6.54 3.95 6.54 3.91-2.87 3.91-6.54-1.08-6.51-3.91-6.51z" id="number-10"/></g><path id="neck" fill="#bb987d" d="M428.13 341.21l-27.59 8.62-28.6-9.62-1.92-23.62h61.04l-2.93 24.62z"/><path d="M503.38 369.38L500.91 339c-1.19-11.87-11.83-22.25-23.72-23.14l-37.14-2.7c-4.07-.45-20.52-.09-39.55.53-19-.62-35.48-1-39.55-.53l-37.14 2.7c-11.89.89-22.53 11.27-23.72 23.14l-2.47 30.36a20.14 20.14 0 005 15.74 18.65 18.65 0 001.69 1.64v66.36c0 12.81 9.32 23.23 20.78 23.23a19.8 19.8 0 0015.21-7.43v21.79a12.24 12.24 0 007.74 11.36v68h-5.93c-10.93 0-19.83 5.8-19.83 17.11 0 8.06 0 17 11.72 19.7v1.6a1.37 1.37 0 001.38 1.37h1.63a1.37 1.37 0 001.38-1.37v-1q1.72.15 3.72.15H344v.8a1.37 1.37 0 001.38 1.37h1.63a1.37 1.37 0 001.38-1.37v-.8H354v.8a1.37 1.37 0 001.38 1.37h1.63a1.37 1.37 0 001.38-1.37v-.8H364v.8a1.37 1.37 0 001.38 1.37h1.63a1.37 1.37 0 001.38-1.37v-.8H374v.8a1.37 1.37 0 001.38 1.37h1.63a1.37 1.37 0 001.38-1.37v-.8H384v.8a1.37 1.37 0 001.38 1.37h1.63a1.37 1.37 0 001.38-1.37v-.8H394v.8a1.37 1.37 0 001.38 1.37h1.63a1.37 1.37 0 001.38-1.37v-.81l.06-55.46V503h4v49.21l.06 54.67v1.6a1.37 1.37 0 001.38 1.37h1.63a1.37 1.37 0 001.38-1.37v-.8h5.61v.8a1.37 1.37 0 001.38 1.37h1.63a1.37 1.37 0 001.38-1.37v-.8h5.61v.8a1.37 1.37 0 001.38 1.37h1.63a1.37 1.37 0 001.38-1.37v-.8h5.61v.8a1.37 1.37 0 001.38 1.37h1.63a1.37 1.37 0 001.38-1.37v-.8h5.61v.8a1.37 1.37 0 001.38 1.37h1.63a1.37 1.37 0 001.38-1.37v-.8h5.61v.8a1.37 1.37 0 001.38 1.37h1.63a1.37 1.37 0 001.38-1.37v-.8h1.89c1.33 0 2.56 0 3.72-.15v1a1.37 1.37 0 001.38 1.37h1.63a1.37 1.37 0 001.38-1.37v-1.6c11.71-2.68 11.72-11.64 11.72-19.7 0-11.31-8.9-17.11-19.83-17.11h-5.93v-68a12.24 12.24 0 007.74-11.36v-21.84a19.8 19.8 0 0015.21 7.43c11.46 0 20.78-10.42 20.78-23.23v-66.36a18.65 18.65 0 001.69-1.64 20.14 20.14 0 005.1-15.74zM372.89 323.2c3.46 1.85 15.64 2.08 27.61 1.8 12 .28 24.15.05 27.61-1.8V335c0 4.81-22.42 12-27.23 12l-.38-.07-.38.07c-4.81 0-27.23-7.18-27.23-12zm-33 75.43v55c0 9.5-6.63 17.23-14.78 17.23s-14.78-7.73-14.78-17.23v-62.78a21.07 21.07 0 007.47 1.36h22.09zm52.91 203.42h-50.65c-14.21 0-14.21-5-14.21-14.89 0-8.22 6.37-11.5 14.21-11.5h11.67l38.93-2.7.07 15.37zm-38.74-76.4h38.67v41.7L354.08 570h-.26v-44.4zm-.26-5.74v-17h38.93v16.93h-38.91zm104.77 55.75h.26c7.84 0 14.21 3.28 14.21 11.5 0 9.91 0 14.89-14.21 14.89h-50.65v-13.7l.07-15.37 38.93 2.7h11.41zm-11.67-50h.26v44.4h-.26l-38.67-2.68v-41.7zm-38.67-5.74V503h38.93v17h-38.91zm46.84-73.78H455v44.58a6.6 6.6 0 01-6.58 6.58h-1.26l-43.68-.05s-.11-3.72-.16-8.75v-2.8c0-3.52-1.41-5.09-2.82-5-1.41-.08-2.82 1.49-2.82 5v2.79c-.05 5-.16 8.75-.16 8.75l-43.68.05h-1.26a6.6 6.6 0 01-6.58-6.58v-44.58h-.07v-.33l30.25.33h48.68l30.25-.33zm35.56 7.51c0 9.5-6.63 17.23-14.78 17.23s-14.78-7.73-14.78-17.23v-61.44h22.09a21.07 21.07 0 007.47-1.36zm6-77.21a13.55 13.55 0 01-2.76 4.66 13.85 13.85 0 01-3.24 2.63 14.72 14.72 0 01-7.47 2l-22.09.09v-20.15c0-5.56-6.08-5.93-6.08 0s.08 14.37.08 14.37v59.59H345.91V380s.08-8.45.08-14.37-6.08-5.54-6.08 0v20.11l-22.09-.09a14.72 14.72 0 01-7.47-2 13.85 13.85 0 01-3.24-2.63 13.55 13.55 0 01-2.76-4.66 14.79 14.79 0 01-.75-6.46l2.46-30.35c.9-8.95 9.23-17.08 18.2-17.75l11.12-.84 32.21-2.29c.68.55.49 17.49.49 17.49 0 8.43 23.34 15.29 31.77 15.29h1.3c8.43 0 31.77-6.86 31.77-15.29 0 0-.19-16.94.49-17.49l32.21 2.33 11.12.84c9 .67 17.3 8.8 18.2 17.75L497.4 370a14.79 14.79 0 01-.75 6.43z" id="border"/><g id="head"><path class="cls-10" d="M399.52 191.82c8.49 0 8.86 2.25 13.56 2.25a20.93 20.93 0 002.53-.18 24.45 24.45 0 013.15-.2c21.55 0 31.67 28.81 33.17 33.69 1.17 3.83-1.2 5.14-5.25 5.14-8.86 0-25.8-6.27-31.53-6.27a5.14 5.14 0 00-.71 0 5.79 5.79 0 01-.61 0c-6.11 0-22.06-9.25-36.34-9.25a23.94 23.94 0 00-10.95 2.38c-3.72 1.87-12 37.74-12 37.74.59-13.81-5.66-31.79 1.69-46.26s7.58-14.75 29.21-17.86a102.48 102.48 0 0114.08-1.25m0-5a107.33 107.33 0 00-14.79 1.3c-11.6 1.67-17.38 2.59-21.87 5.36-4.91 3-7.23 7.6-11.08 15.19-5.63 11.08-4.29 23.52-3.11 34.5a95.94 95.94 0 01.87 13.81 5 5 0 009.87 1.34c3.27-14.15 7.95-30.93 10.15-34.77a19.58 19.58 0 017.93-1.48c7.74 0 16.46 3.19 23.46 5.75 5.35 2 9.58 3.5 12.88 3.5a9.7 9.7 0 001.23-.07h.09c1.91 0 6.94 1.31 11.38 2.47 6.84 1.78 14.6 3.8 20.15 3.8 1.57 0 6.36 0 9-3.62 1.11-1.5 2.18-4.1 1-8s-12.14-37.23-37.95-37.23a30.06 30.06 0 00-3.77.24 16 16 0 01-1.91.14 8.17 8.17 0 01-3-.62 29 29 0 00-10.53-1.63z"/><path id="skin-2" data-name="skin" class="cls-1" d="M446.88 254.05c0-.91.08-1.81.08-2.73 0-30.51-21.06-55.25-47-55.25s-47 24.74-47 55.25c0 1.11 0 2.22.1 3.31-4.05 2.46-6.91 8.44-6.91 15.43 0 9.19 4.93 16.64 11 16.64a7.48 7.48 0 002.1-.32c.82 24.5 18.73 44.08 40.73 44.08S440 310.65 440.66 286a7.65 7.65 0 003.25.74c6.09 0 11-7.45 11-16.64.02-7.67-3.39-14.1-8.03-16.05z"/><path d="M447.69 248.32c-1.18-4.08-14.31 29.22-14.07 35.88s-12.09 18.66-15.42 18.66-5.85-2.44-17.62-2.62c-11.78.18-14.13 2.62-17.46 2.62s-15.66-12-15.43-18.66-12.88-40-14.07-35.88 5.85 19.23 6.22 35.06 10.82 29.36 10.82 29.36c8.85 12.89 30 14.72 30 14.72s21.14-1.83 30-14.72c0 0 10.43-13.52 10.81-29.36s7.41-30.97 6.22-35.06zm-39.31 68.26h-15.61a4.67 4.67 0 010-9.34h15.61a4.67 4.67 0 010 9.34z" opacity=".1" fill="#ba9b55"/><path d="M440.75 223.57c-7.94-20.34-33-26-40-27.22v-.28l-.91.13-.92-.13v.28c-6.91 1.21-31.79 6.89-39.72 27.22-9.24 23.69-5.85 23.5-4.71 33.62 0 0 6.9-9.69 8.83-20.13s4.19-16.87 6.68-16.06 25.31 2 30-.06c4.67 2.07 27.46.87 30 .06s4.71 5.63 6.65 16.07 8.83 20.13 8.83 20.13c1.12-10.13 4.52-9.94-4.73-33.63z" fill="#a3864b"/><path class="cls-10" d="M399.92 333.46c-22.68 0-41.28-19-43.53-43.79-7.52-.49-13.32-8.93-13.32-19.61 0-7 2.64-13.45 6.84-16.92v-1.82c0-32.12 22.45-58.25 50-58.25s50 26.13 50 58.25v1c4.85 3.18 8 10 8 17.76 0 11-6.16 19.64-14 19.64h-.46c-2.25 24.79-20.78 43.74-43.53 43.74zm-40.73-50.08a3 3 0 013 2.9c.77 23.09 17.34 41.18 37.73 41.18 20.58 0 37.15-18.26 37.74-41.58a3 3 0 014.27-2.64 4.73 4.73 0 002 .46c4.35 0 8-6.25 8-13.64 0-7-3.13-11.94-6.22-13.25a3 3 0 01-1.83-2.89v-.18c0-.8.07-1.6.07-2.42 0-28.81-19.76-52.25-44-52.25s-44 23.44-44 52.25c0 .92 0 1.89.09 3.16a3 3 0 01-1.43 2.71c-3.27 2-5.47 7.16-5.47 12.87 0 7.39 3.67 13.64 8 13.64a4.69 4.69 0 001.25-.19 2.74 2.74 0 01.8-.13z"/><path d="M356 254.48s6.85-33.16 10.57-35c16.37-8.26 40.85 7.72 47.9 6.84s41.33 13.66 37.49 1.09c-1.57-5.11-12.59-36.49-36.32-33.49-9.73 1.23-4.69-4.48-30.17-.82-21.63 3.11-21.86 3.39-29.21 17.86s-1.36 30.73-.26 43.52z" fill="#ba9b55"/></g></svg>