<svg id="player" xmlns="http://www.w3.org/2000/svg" viewBox="0 0 800 800"><defs><style>.cls-1{fill:#755137}.cls-2{fill:#fff}.cls-4{fill:#008753}.cls-7{fill:#231f20}</style></defs><g id="skin"><path id="arm-left" class="cls-1" d="M306.43 383h36.78v72.38a18.39 18.39 0 01-18.39 18.39 18.39 18.39 0 01-18.39-18.39V383z"/><path id="arm-right" class="cls-1" d="M457.69 383h36.78v72.38a18.39 18.39 0 01-18.39 18.39 18.39 18.39 0 01-18.39-18.39V383z"/><path id="leg-left" class="cls-1" d="M350.38 492.97h45.67v45.67h-45.67z"/><path id="leg-right" class="cls-1" d="M405.28 492.97h45.67v45.67h-45.67z"/></g><g id="boots"><path id="left" class="cls-2" d="M395.83 570.99H373l-22.83 1.98h-12.5l-7.5 2.52-5.25 8.5v9.83l1.91 4.17 3.84 4.06 6.33 1.94h58.83v-33z"/><path id="right" class="cls-2" d="M405.11 571.22h22.83l22.83 1.97h12.5l7.5 2.53 5.25 8.5v9.83l-1.91 4.17-3.84 4.05-6.33 1.95h-58.83v-33z"/><path d="M394.53 596.34s-48.3-1.48-67.53 1.66l3.84 4.06L344 604h52zm11.7 0s48.3-1.48 67.48 1.65l-3.83 4.06-13.14 2h-52z" fill="#ec8025"/></g><g id="socks"><g id="socks-2" data-name="socks"><path id="left-2" data-name="left" class="cls-2" d="M350.38 522.95h45.67v48.04h-45.67z"/><path id="right-2" data-name="right" class="cls-2" d="M404.88 522.95h45.67v48.04h-45.67z"/></g><path class="cls-4" d="M350.22 540.56h46v10.88h-46zm54.49 0h46v10.88h-46z"/></g><g id="shorts"><path id="shorts-2" data-name="shorts" class="cls-2" d="M342.17 443.49h116.49v47a9.95 9.95 0 01-9.95 9.95h-96.6a9.95 9.95 0 01-9.95-9.95v-47h.01z"/></g><g id="shirt"><path id="shirt-2" data-name="shirt" class="cls-2" d="M370 315.75l-48.29 2.99-11.36 6.25-6.83 10.1-3.31 40.73 5.17 7.67 7.66 4.67h29.5l.17 54h114.83v-53.5l29.34-.17 7.01-4 6.99-10.5-3.4-37.33-6.83-11.84-9.77-6.08-49.84-2.99-1 21.24-6.5 6.5-11.16 3.48-11.88 2.02-15.46-3.17-11-5.66-3.66-3.84-.38-20.57z"/><g id="brand-nike"><path id="nike" class="cls-4" d="M373.82 359.22c0 1.19-1.57 2.16-3.49 2.16h-9.25c-1.92 0-3.5-1-3.5-2.16s1.58-2.17 3.5-2.17h9.25c1.92 0 3.49.95 3.49 2.17z"/></g><circle class="cls-4" cx="432.29" cy="363.62" r="11.74"/><path class="cls-2" d="M432.28 368.05c-.18-4 2.75-4.48 2.75-4.48l.25-.07a2.9 2.9 0 012.64.49.41.41 0 00.62-.11c.4-.69 1-2.14-.25-3l-1.48-.37s-1.2-3.32-5.66-2.77a9.05 9.05 0 00-4.31 1.76c-1.75 1.31-4.27 3.7-4.35 6.71a9.85 9.85 0 009.84 9.65 10 10 0 003.69-.71c.61-.31 1.25-.65 1.92-1 0-.05-5.48-2.09-5.66-6.1z"/><path d="M432.29 353a10.6 10.6 0 11-10.6 10.6 10.59 10.59 0 0110.6-10.6m0-2a12.6 12.6 0 108.92 3.69 12.55 12.55 0 00-8.92-3.69z" fill="#015031"/><path class="cls-4" d="M357.35 384.36v-12.65l-2.17 2.29a1.77 1.77 0 01-3-1.24 1.89 1.89 0 01.51-1.27l4.76-4.76a2.52 2.52 0 011.78-.72 2.49 2.49 0 012.47 2.47v15.91a2.16 2.16 0 01-4.31 0zm8.74-.51a1.85 1.85 0 011.84-1.84 1.63 1.63 0 01.85.21 5.35 5.35 0 002.8.66c3.22 0 5-2.74 5-5.78v-.42a6.65 6.65 0 01-5.18 2.59c-3.62 0-6.87-2.23-6.87-6.51 0-3.92 3.13-6.9 7.71-6.9 6.09 0 8.65 4.7 8.65 10.4 0 6.05-3.41 10.36-9.34 10.36a8.92 8.92 0 01-4.46-1.14 1.84 1.84 0 01-1-1.63zm6.36-14.28a3.23 3.23 0 00-3.52 3c0 2.14 1.77 3.07 3.7 3.07a5 5 0 003.92-1.87c-.15-1.91-1.24-4.2-4.1-4.2zm-11.25-53.88s-7.47 29.55 19.34 30.38l-10.15-10.52 1.14-20.7zm78.68 0s7.47 29.55-19.34 30.38l10.15-10.52-1.14-20.7z"/></g><path id="neck" fill="#5e422f" d="M428.13 341.21l-27.59 8.62-28.6-9.62-1.92-23.62h61.04l-2.93 24.62z"/><path d="M503.38 369.38L500.91 339c-1.19-11.87-11.83-22.25-23.72-23.14l-37.14-2.7c-4.07-.45-20.52-.09-39.55.53-19-.62-35.48-1-39.55-.53l-37.14 2.7c-11.89.89-22.53 11.27-23.72 23.14l-2.47 30.36a20.14 20.14 0 005 15.74 18.65 18.65 0 001.69 1.64v66.36c0 12.81 9.32 23.23 20.78 23.23a19.8 19.8 0 0015.21-7.43v21.79a12.24 12.24 0 007.74 11.36v68h-5.93c-10.93 0-19.83 5.8-19.83 17.11 0 8.06 0 17 11.72 19.7v1.6a1.37 1.37 0 001.38 1.37h1.63a1.37 1.37 0 001.38-1.37v-1q1.72.15 3.72.15H344v.8a1.37 1.37 0 001.38 1.37h1.63a1.37 1.37 0 001.38-1.37v-.8H354v.8a1.37 1.37 0 001.38 1.37h1.63a1.37 1.37 0 001.38-1.37v-.8H364v.8a1.37 1.37 0 001.38 1.37h1.63a1.37 1.37 0 001.38-1.37v-.8H374v.8a1.37 1.37 0 001.38 1.37h1.63a1.37 1.37 0 001.38-1.37v-.8H384v.8a1.37 1.37 0 001.38 1.37h1.63a1.37 1.37 0 001.38-1.37v-.8H394v.8a1.37 1.37 0 001.38 1.37h1.63a1.37 1.37 0 001.38-1.37v-.81l.06-55.46V503h4v49.21l.06 54.67v1.6a1.37 1.37 0 001.38 1.37h1.63a1.37 1.37 0 001.38-1.37v-.8h5.61v.8a1.37 1.37 0 001.38 1.37h1.63a1.37 1.37 0 001.38-1.37v-.8h5.61v.8a1.37 1.37 0 001.38 1.37h1.63a1.37 1.37 0 001.38-1.37v-.8h5.61v.8a1.37 1.37 0 001.38 1.37h1.63a1.37 1.37 0 001.38-1.37v-.8h5.61v.8a1.37 1.37 0 001.38 1.37h1.63a1.37 1.37 0 001.38-1.37v-.8h5.61v.8a1.37 1.37 0 001.38 1.37h1.63a1.37 1.37 0 001.38-1.37v-.8h1.89c1.33 0 2.56 0 3.72-.15v1a1.37 1.37 0 001.38 1.37h1.63a1.37 1.37 0 001.38-1.37v-1.6c11.71-2.68 11.72-11.64 11.72-19.7 0-11.31-8.9-17.11-19.83-17.11h-5.93v-68a12.24 12.24 0 007.74-11.36v-21.84a19.8 19.8 0 0015.21 7.43c11.46 0 20.78-10.42 20.78-23.23v-66.36a18.65 18.65 0 001.69-1.64 20.14 20.14 0 005.1-15.74zM372.89 323.2c3.46 1.85 15.64 2.08 27.61 1.8 12 .28 24.15.05 27.61-1.8V335c0 4.81-22.42 12-27.23 12l-.38-.07-.38.07c-4.81 0-27.23-7.18-27.23-12zm-33 75.43v55c0 9.5-6.63 17.23-14.78 17.23s-14.78-7.73-14.78-17.23v-62.78a21.07 21.07 0 007.47 1.36h22.09zm52.91 203.42h-50.65c-14.21 0-14.21-5-14.21-14.89 0-8.22 6.37-11.5 14.21-11.5h11.67l38.93-2.7.07 15.37zm-38.74-76.4h38.67v41.7L354.08 570h-.26v-44.4zm-.26-5.74v-17h38.93v16.93h-38.91zm104.77 55.75h.26c7.84 0 14.21 3.28 14.21 11.5 0 9.91 0 14.89-14.21 14.89h-50.65v-13.7l.07-15.37 38.93 2.7h11.41zm-11.67-50h.26v44.4h-.26l-38.67-2.68v-41.7zm-38.67-5.74V503h38.93v17h-38.91zm46.84-73.78H455v44.58a6.6 6.6 0 01-6.58 6.58h-1.26l-43.68-.05s-.11-3.72-.16-8.75v-2.8c0-3.52-1.41-5.09-2.82-5-1.41-.08-2.82 1.49-2.82 5v2.79c-.05 5-.16 8.75-.16 8.75l-43.68.05h-1.26a6.6 6.6 0 01-6.58-6.58v-44.58h-.07v-.33l30.25.33h48.68l30.25-.33zm35.56 7.51c0 9.5-6.63 17.23-14.78 17.23s-14.78-7.73-14.78-17.23v-61.44h22.09a21.07 21.07 0 007.47-1.36zm6-77.21a13.55 13.55 0 01-2.76 4.66 13.85 13.85 0 01-3.24 2.63 14.72 14.72 0 01-7.47 2l-22.09.09v-20.15c0-5.56-6.08-5.93-6.08 0s.08 14.37.08 14.37v59.59H345.91V380s.08-8.45.08-14.37-6.08-5.54-6.08 0v20.11l-22.09-.09a14.72 14.72 0 01-7.47-2 13.85 13.85 0 01-3.24-2.63 13.55 13.55 0 01-2.76-4.66 14.79 14.79 0 01-.75-6.46l2.46-30.35c.9-8.95 9.23-17.08 18.2-17.75l11.12-.84 32.21-2.29c.68.55.49 17.49.49 17.49 0 8.43 23.34 15.29 31.77 15.29h1.3c8.43 0 31.77-6.86 31.77-15.29 0 0-.19-16.94.49-17.49l32.21 2.33 11.12.84c9 .67 17.3 8.8 18.2 17.75L497.4 370a14.79 14.79 0 01-.75 6.43z" id="border"/><g id="head"><path class="cls-7" d="M406.46 185.21c7.87 0 10.71 4.44 10.71 4.44h.68c5.48 0 5 5.42 5 5.42a8 8 0 014.81-2c3.51 0 5.25 3.59 5.25 3.59 13.82 2.8 3.91 23.12 3.91 23.12v-.05c.23.55.47 1.11.68 1.69 0 0-11.64-5.72-13.76-8.26-.87-1.05-4.67-1.27-9-1.27-3.11 0-6.48.11-9.25.11s-4.79-.1-5.53-.52c-.74.42-2.85.52-5.53.52s-6.15-.11-9.25-.11c-4.32 0-8.12.22-9 1.27-2.12 2.54-13.76 8.26-13.76 8.26.21-.58.45-1.14.68-1.69v.05s-9.91-20.32 3.91-23.12c0 0 1.74-3.59 5.25-3.59a8 8 0 014.81 2s-.45-5.42 5-5.42h.68a4.94 4.94 0 014.89-3.74 8.71 8.71 0 012.31.35s4.73.35 7.33 2.53a2.07 2.07 0 003-.33l.71-.9a5.91 5.91 0 014.34-2.32h1.16m0-5h-1.42a10.89 10.89 0 00-7 3.1 21.67 21.67 0 00-7.2-2 13.28 13.28 0 00-3.18-.41 9.81 9.81 0 00-8.05 4 9.31 9.31 0 00-4.95 2.78c-.18.2-.35.39-.5.59a10.29 10.29 0 00-1.91-.18 10.6 10.6 0 00-8.36 4.26 12.92 12.92 0 00-7.66 6.57c-1.95 4-2.1 9.14-.43 15.41a50 50 0 001.88 5.59 5 5 0 007 6c4.27-2.1 11.47-5.85 14.58-8.71a37.46 37.46 0 016-.31c1.55 0 3.2 0 4.8.06s3.06.05 4.45.05a32.17 32.17 0 005.53-.32 32.17 32.17 0 005.53.32c1.39 0 2.88 0 4.45-.05s3.25-.06 4.8-.06a37.57 37.57 0 016 .31c3.11 2.86 10.31 6.61 14.58 8.71a5 5 0 007-6 50 50 0 001.88-5.59c1.67-6.27 1.52-11.45-.43-15.41a12.92 12.92 0 00-7.66-6.57 10.6 10.6 0 00-8.36-4.26 10.29 10.29 0 00-1.91.18c-.15-.2-.32-.39-.5-.59a9.41 9.41 0 00-5.87-2.93c-2.18-2-6.28-4.51-13-4.51z"/><path id="skin-2" data-name="skin" class="cls-1" d="M446.88 254.05c0-.91.08-1.81.08-2.73 0-30.51-21.06-55.25-47-55.25s-47 24.74-47 55.25c0 1.11 0 2.22.1 3.31-4.05 2.46-6.91 8.44-6.91 15.43 0 9.19 4.93 16.64 11 16.64a7.48 7.48 0 002.1-.32c.82 24.5 18.73 44.08 40.73 44.08S440 310.65 440.66 286a7.65 7.65 0 003.25.74c6.09 0 11-7.45 11-16.64.02-7.67-3.39-14.1-8.03-16.05z"/><path d="M359 254c4.79-7.53 13.66-23.93 12.9-41l-9.19 2.2s-11.45 20.62-8.15 37.93a2.43 2.43 0 004.44.87zm82.91 0c-4.79-7.53-13.66-23.93-12.9-41l9.19 2.2s11.45 20.62 8.15 37.93a2.43 2.43 0 01-4.44.87z" fill="#5b3f2d"/><path class="cls-7" d="M399.92 333.46c-22.68 0-41.28-19-43.53-43.79-7.52-.49-13.32-8.93-13.32-19.61 0-7 2.64-13.45 6.84-16.92v-1.82c0-32.12 22.45-58.25 50-58.25s50 26.13 50 58.25v1c4.85 3.18 8 10 8 17.76 0 11-6.16 19.64-14 19.64h-.46c-2.25 24.79-20.78 43.74-43.53 43.74zm-40.73-50.08a3 3 0 013 2.9c.77 23.09 17.34 41.18 37.73 41.18 20.58 0 37.15-18.26 37.74-41.58a3 3 0 014.27-2.64 4.73 4.73 0 002 .46c4.35 0 8-6.25 8-13.64 0-7-3.13-11.94-6.22-13.25a3 3 0 01-1.83-2.89v-.18c0-.8.07-1.6.07-2.42 0-28.81-19.76-52.25-44-52.25s-44 23.44-44 52.25c0 .92 0 1.89.09 3.16a3 3 0 01-1.43 2.71c-3.27 2-5.47 7.16-5.47 12.87 0 7.39 3.67 13.64 8 13.64a4.69 4.69 0 001.25-.19 2.74 2.74 0 01.8-.13z"/><path class="cls-7" d="M436.85 219.77s9.91-20.32-3.91-23.12c0 0-3.32-6.86-10.06-1.61 0 0 .49-5.86-5.71-5.39 0 0-3.12-4.87-11.87-4.41a5.91 5.91 0 00-4.34 2.32l-.71.9a2.08 2.08 0 01-3 .33c-2.6-2.18-7.33-2.53-7.33-2.53-6.06-1.7-7.2 3.39-7.2 3.39-6.2-.47-5.71 5.39-5.71 5.39-6.74-5.25-10.06 1.61-10.06 1.61-13.82 2.8-3.91 23.12-3.91 23.12v-.05c-.23.55-.47 1.11-.68 1.69 0 0 11.64-5.72 13.76-8.26s21.19-.23 23.77-1.68c2.58 1.45 21.66-.85 23.77 1.68s13.76 8.26 13.76 8.26c-.21-.58-.45-1.14-.68-1.69zM400 302.11c4.41-.45 18 5.19 12.88-3.61-1.22-2.11-12.73-1.16-12.73-1.16-1 .1-12.2-1.09-13.11 1.16-2.95 7.33 8.51 3.16 12.96 3.61z"/><path class="cls-7" d="M438.89 284a17.66 17.66 0 00-12.89 9.57c-4 8.38-25.25 19.66-26.09 20.1-.84-.44-22.1-11.72-26.1-20.1A17.63 17.63 0 00361 284c-1.92 6-1.92 11.09 6.19 27.9s32.77 26.61 32.78 26.61 24.68-9.8 32.78-26.61 8.06-21.9 6.14-27.9z"/></g></svg>