<svg id="player" xmlns="http://www.w3.org/2000/svg" viewBox="0 0 800 800"><defs><style>.cls-1{fill:#c39c7f}.cls-2{fill:#e2e2c9}.cls-3{fill:#333}.cls-4{fill:#fff}.cls-5{fill:#759fd4}.cls-6{fill:#cbad2d}.cls-7{fill:#70d0f5}.cls-8{fill:#ffe500}.cls-10{fill:#231f20}</style></defs><g id="skin"><path id="arm-left" class="cls-1" d="M306.43 383h36.78v72.38a18.39 18.39 0 01-18.39 18.39 18.39 18.39 0 01-18.39-18.39V383z"/><path id="arm-right" class="cls-1" d="M457.69 383h36.78v72.38a18.39 18.39 0 01-18.39 18.39 18.39 18.39 0 01-18.39-18.39V383z"/><path id="leg-left" class="cls-1" d="M350.38 492.97h45.67v45.67h-45.67z"/><path id="leg-right" class="cls-1" d="M405.28 492.97h45.67v45.67h-45.67z"/></g><g id="boots"><path id="left" class="cls-2" d="M395.83 570.99H373l-22.83 1.98h-12.5l-7.5 2.52-5.25 8.5v9.83l1.91 4.17 3.84 4.06 6.33 1.94h58.83v-33z"/><path id="right" class="cls-2" d="M405.11 571.22h22.83l22.83 1.97h12.5l7.5 2.53 5.25 8.5v9.83l-1.91 4.17-3.84 4.05-6.33 1.95h-58.83v-33z"/><path class="cls-3" d="M365 573s-1.86 10.21-19.63 10.55-18.8-3.46-18.8-3.46l13.36-7.09zm71.41 0s1.86 10.21 19.63 10.55 18.81-3.46 18.81-3.46L461.52 573z"/></g><g id="socks"><g id="socks-2" data-name="socks"><path id="left-2" data-name="left" class="cls-4" d="M350.38 522.95h45.67v48.04h-45.67z"/><path id="right-2" data-name="right" class="cls-4" d="M404.88 522.95h45.67v48.04h-45.67z"/></g></g><g id="shorts"><path id="shorts-2" data-name="shorts" class="cls-5" d="M342.17 443.49h116.49v47a9.95 9.95 0 01-9.95 9.95h-96.6a9.95 9.95 0 01-9.95-9.95v-47h.01z"/></g><g id="shirt"><path id="shirt-2" data-name="shirt" class="cls-4" d="M370 315.75l-48.29 2.99-11.36 6.25-6.83 10.1-3.31 40.73 5.17 7.67 7.66 4.67h29.5l.17 54h114.83v-53.5l29.34-.17 7.01-4 6.99-10.5-3.4-37.33-6.83-11.84-9.77-6.08-49.84-2.99-1 21.24-6.5 6.5-11.16 3.48-11.88 2.02-15.46-3.17-11-5.66-3.66-3.84-.38-20.57z"/><g id="crest-uruguay"><path class="cls-4" d="M438 380.64l-3 1.7a1.55 1.55 0 01-1.53 0l-3-1.7a8.64 8.64 0 01-4.4-7.53V362h16.37v11.16a8.64 8.64 0 01-4.44 7.48z"/><path class="cls-6" d="M441.78 362.67v10.38a8.06 8.06 0 01-4.1 7l-2.8 1.58a1.51 1.51 0 01-.71.19 1.55 1.55 0 01-.72-.19l-2.8-1.58a8.06 8.06 0 01-4.1-7v-10.38h15.23m0-2.15h-15.23a2.14 2.14 0 00-2.14 2.15v10.38a10.21 10.21 0 005.18 8.88l2.81 1.58a3.62 3.62 0 003.53 0l2.81-1.58a10.22 10.22 0 005.19-8.88v-10.38a2.15 2.15 0 00-2.15-2.15z"/><path class="cls-6" d="M436.84 377.08l-1.6-1.19a1.19 1.19 0 00-1.43 0l-1.6 1.19a.35.35 0 01-.56-.29V365a.35.35 0 01.56-.28l1.6 1.18a1.19 1.19 0 001.43 0l1.6-1.18a.35.35 0 01.56.28v11.84a.35.35 0 01-.56.24z"/><rect class="cls-7" x="428.36" y="367.82" width="12.34" height="1.19" rx=".46" ry=".46"/><rect class="cls-7" x="428.36" y="370.28" width="12.34" height="1.19" rx=".46" ry=".46"/><rect class="cls-7" x="428.36" y="372.73" width="12.34" height="1.19" rx=".46" ry=".46"/><circle class="cls-8" cx="425.52" cy="356.93" r="1.11"/><circle class="cls-8" cx="431.28" cy="356.93" r="1.11"/><circle class="cls-8" cx="437.05" cy="356.93" r="1.11"/><circle class="cls-8" cx="442.81" cy="356.93" r="1.11"/></g><g id="brand-puma"><rect class="cls-3" x="360.28" y="359.62" width="6.25" height="16.01" rx="3.13" ry="3.13" transform="rotate(-63.52 363.437 367.634)" id="brand-puma-2" data-name="brand-puma"/></g><path class="cls-3" d="M392.45 396v-9.46l-1.62 1.69a1.33 1.33 0 01-2.28-.93 1.35 1.35 0 01.39-.94l3.56-3.56a1.87 1.87 0 013.18 1.3V396a1.62 1.62 0 01-3.23 0zm11.7-13.83c4.29 0 6.23 3.87 6.23 7.75s-1.94 7.78-6.23 7.78-6.22-3.9-6.22-7.78 1.92-7.75 6.22-7.75zm0 2.84c-2.16 0-3 2.14-3 4.91s.81 4.94 3 4.94 3-2.17 3-4.94-.85-4.92-3-4.92z"/><path class="cls-5" d="M435 316.59l-5.5-.84-.39 22.25-7.11 5.72-8.47 3.28s-12.84 2.68-13.38 2.86c-.06 0-.11.13-.15.28 0-.15-.09-.26-.15-.28-.54-.18-13.38-2.86-13.38-2.86l-8.47-3.28-7.11-5.72-.37-22.28-5.5.84s-.18 16.62 2.2 23.83c3 9.13 10.41 15.41 32.78 15.41s29.75-6.28 32.78-15.41c2.38-7.18 2.22-23.8 2.22-23.8z"/></g><path id="neck" fill="#aa856b" d="M428.13 341.21l-27.59 8.62-28.6-9.62-1.92-23.62h61.04l-2.93 24.62z"/><path d="M503.38 369.38L500.91 339c-1.19-11.87-11.83-22.25-23.72-23.14l-37.14-2.7c-4.07-.45-20.52-.09-39.55.53-19-.62-35.48-1-39.55-.53l-37.14 2.7c-11.89.89-22.53 11.27-23.72 23.14l-2.47 30.36a20.14 20.14 0 005 15.74 18.65 18.65 0 001.69 1.64v66.36c0 12.81 9.32 23.23 20.78 23.23a19.8 19.8 0 0015.21-7.43v21.79a12.24 12.24 0 007.74 11.36v68h-5.93c-10.93 0-19.83 5.8-19.83 17.11 0 8.06 0 17 11.72 19.7v1.6a1.37 1.37 0 001.38 1.37h1.63a1.37 1.37 0 001.38-1.37v-1q1.72.15 3.72.15H344v.8a1.37 1.37 0 001.38 1.37h1.63a1.37 1.37 0 001.38-1.37v-.8H354v.8a1.37 1.37 0 001.38 1.37h1.63a1.37 1.37 0 001.38-1.37v-.8H364v.8a1.37 1.37 0 001.38 1.37h1.63a1.37 1.37 0 001.38-1.37v-.8H374v.8a1.37 1.37 0 001.38 1.37h1.63a1.37 1.37 0 001.38-1.37v-.8H384v.8a1.37 1.37 0 001.38 1.37h1.63a1.37 1.37 0 001.38-1.37v-.8H394v.8a1.37 1.37 0 001.38 1.37h1.63a1.37 1.37 0 001.38-1.37v-.81l.06-55.46V503h4v49.21l.06 54.67v1.6a1.37 1.37 0 001.38 1.37h1.63a1.37 1.37 0 001.38-1.37v-.8h5.61v.8a1.37 1.37 0 001.38 1.37h1.63a1.37 1.37 0 001.38-1.37v-.8h5.61v.8a1.37 1.37 0 001.38 1.37h1.63a1.37 1.37 0 001.38-1.37v-.8h5.61v.8a1.37 1.37 0 001.38 1.37h1.63a1.37 1.37 0 001.38-1.37v-.8h5.61v.8a1.37 1.37 0 001.38 1.37h1.63a1.37 1.37 0 001.38-1.37v-.8h5.61v.8a1.37 1.37 0 001.38 1.37h1.63a1.37 1.37 0 001.38-1.37v-.8h1.89c1.33 0 2.56 0 3.72-.15v1a1.37 1.37 0 001.38 1.37h1.63a1.37 1.37 0 001.38-1.37v-1.6c11.71-2.68 11.72-11.64 11.72-19.7 0-11.31-8.9-17.11-19.83-17.11h-5.93v-68a12.24 12.24 0 007.74-11.36v-21.84a19.8 19.8 0 0015.21 7.43c11.46 0 20.78-10.42 20.78-23.23v-66.36a18.65 18.65 0 001.69-1.64 20.14 20.14 0 005.1-15.74zM372.89 323.2c3.46 1.85 15.64 2.08 27.61 1.8 12 .28 24.15.05 27.61-1.8V335c0 4.81-22.42 12-27.23 12l-.38-.07-.38.07c-4.81 0-27.23-7.18-27.23-12zm-33 75.43v55c0 9.5-6.63 17.23-14.78 17.23s-14.78-7.73-14.78-17.23v-62.78a21.07 21.07 0 007.47 1.36h22.09zm52.91 203.42h-50.65c-14.21 0-14.21-5-14.21-14.89 0-8.22 6.37-11.5 14.21-11.5h11.67l38.93-2.7.07 15.37zm-38.74-76.4h38.67v41.7L354.08 570h-.26v-44.4zm-.26-5.74v-17h38.93v16.93h-38.91zm104.77 55.75h.26c7.84 0 14.21 3.28 14.21 11.5 0 9.91 0 14.89-14.21 14.89h-50.65v-13.7l.07-15.37 38.93 2.7h11.41zm-11.67-50h.26v44.4h-.26l-38.67-2.68v-41.7zm-38.67-5.74V503h38.93v17h-38.91zm46.84-73.78H455v44.58a6.6 6.6 0 01-6.58 6.58h-1.26l-43.68-.05s-.11-3.72-.16-8.75v-2.8c0-3.52-1.41-5.09-2.82-5-1.41-.08-2.82 1.49-2.82 5v2.79c-.05 5-.16 8.75-.16 8.75l-43.68.05h-1.26a6.6 6.6 0 01-6.58-6.58v-44.58h-.07v-.33l30.25.33h48.68l30.25-.33zm35.56 7.51c0 9.5-6.63 17.23-14.78 17.23s-14.78-7.73-14.78-17.23v-61.44h22.09a21.07 21.07 0 007.47-1.36zm6-77.21a13.55 13.55 0 01-2.76 4.66 13.85 13.85 0 01-3.24 2.63 14.72 14.72 0 01-7.47 2l-22.09.09v-20.15c0-5.56-6.08-5.93-6.08 0s.08 14.37.08 14.37v59.59H345.91V380s.08-8.45.08-14.37-6.08-5.54-6.08 0v20.11l-22.09-.09a14.72 14.72 0 01-7.47-2 13.85 13.85 0 01-3.24-2.63 13.55 13.55 0 01-2.76-4.66 14.79 14.79 0 01-.75-6.46l2.46-30.35c.9-8.95 9.23-17.08 18.2-17.75l11.12-.84 32.21-2.29c.68.55.49 17.49.49 17.49 0 8.43 23.34 15.29 31.77 15.29h1.3c8.43 0 31.77-6.86 31.77-15.29 0 0-.19-16.94.49-17.49l32.21 2.33 11.12.84c9 .67 17.3 8.8 18.2 17.75L497.4 370a14.79 14.79 0 01-.75 6.43z" id="border"/><g id="head"><path class="cls-10" d="M402.08 190.06c7.46 0 8.56 2.52 13.88 3 6 .55 21 12.11 23.34 15.23.69.93 1.43 6 2 10.72a7.2 7.2 0 01-7.14 8h-.59c-8.08-.65-21-1.54-34.05-1.86-13 .32-26 1.21-34.05 1.86h-.59a7.2 7.2 0 01-7.14-8c.55-4.73 1.29-9.79 2-10.72 2.32-3.12 17.37-14.68 23.34-15.23 5.32-.49 6.42-3 13.88-3 .79 0 1.64 0 2.58.09s1.79-.09 2.58-.09m0-5c-.82 0-1.68 0-2.58.08s-1.76-.08-2.58-.08a25.56 25.56 0 00-10.36 2 13.46 13.46 0 01-4 1.06c-8 .73-24.19 13.58-26.9 17.23-1 1.3-1.75 3-2.94 13.12a12.21 12.21 0 0012.11 13.63h1c8.34-.67 20.94-1.52 33.66-1.84 12.72.32 25.32 1.17 33.66 1.84h1a12.21 12.21 0 0012.11-13.63c-1.19-10.11-2-11.82-2.94-13.12-2.71-3.65-18.92-16.5-26.9-17.23a13.46 13.46 0 01-4-1.06 25.56 25.56 0 00-10.36-2z"/><path id="skin-2" data-name="skin" class="cls-1" d="M446.88 254.05c0-.91.08-1.81.08-2.73 0-30.51-21.06-55.25-47-55.25s-47 24.74-47 55.25c0 1.11 0 2.22.1 3.31-4.05 2.46-6.91 8.44-6.91 15.43 0 9.19 4.93 16.64 11 16.64a7.48 7.48 0 002.1-.32c.82 24.5 18.73 44.08 40.73 44.08S440 310.65 440.66 286a7.65 7.65 0 003.25.74c6.09 0 11-7.45 11-16.64.02-7.67-3.39-14.1-8.03-16.05z"/><path d="M447 252.44c-1.19-4.08-14.31 29.22-14.08 35.88S420.87 307 417.54 307s-5.85-2.44-17.62-2.62c-11.77.18-14.13 2.62-17.46 2.62S366.8 295 367 288.32s-12.89-40-14.08-35.88 5.85 19.23 6.23 35.06S370 316.86 370 316.86c8.85 12.89 30 14.72 30 14.72s21.15-1.83 30-14.72c0 0 10.44-13.52 10.81-29.36s7.42-30.97 6.19-35.06zm-39.27 68.26h-15.62a4.67 4.67 0 110-9.34h15.62a4.67 4.67 0 110 9.34z" opacity=".4" fill="#8c715d"/><path class="cls-10" d="M399.92 333.46c-22.68 0-41.28-19-43.53-43.79-7.52-.49-13.32-8.93-13.32-19.61 0-7 2.64-13.45 6.84-16.92v-1.82c0-32.12 22.45-58.25 50-58.25s50 26.13 50 58.25v1c4.85 3.18 8 10 8 17.76 0 11-6.16 19.64-14 19.64h-.46c-2.25 24.79-20.78 43.74-43.53 43.74zm-40.73-50.08a3 3 0 013 2.9c.77 23.09 17.34 41.18 37.73 41.18 20.58 0 37.15-18.26 37.74-41.58a3 3 0 014.27-2.64 4.73 4.73 0 002 .46c4.35 0 8-6.25 8-13.64 0-7-3.13-11.94-6.22-13.25a3 3 0 01-1.83-2.89v-.18c0-.8.07-1.6.07-2.42 0-28.81-19.76-52.25-44-52.25s-44 23.44-44 52.25c0 .92 0 1.89.09 3.16a3 3 0 01-1.43 2.71c-3.27 2-5.47 7.16-5.47 12.87 0 7.39 3.67 13.64 8 13.64a4.69 4.69 0 001.25-.19 2.74 2.74 0 01.8-.13z"/><path d="M356 254.48s9.57-14.27 10.74-23.42 4.46-10.56 4.46-10.56l-7.6-4.25s-14.84 16.36-7.6 38.23zm88 0s-9.57-14.27-10.74-23.42-4.46-10.56-4.46-10.56l7.6-4.25s14.84 16.36 7.6 38.23z" fill="#8c715d"/><path d="M441.28 219c-.55-4.73-1.29-9.79-2-10.72-2.32-3.12-17.37-14.68-23.34-15.23s-6.61-3.56-16.46-2.92c-9.85-.64-10.58 2.38-16.46 2.92s-21 12.11-23.34 15.23c-.69.93-1.43 6-2 10.72-.54 4.52 3.19 2.39 7.73 2 8.08-.65 21 8.46 34.05 8.14 13 .32 26-8.79 34.05-8.14 4.58.41 8.31 2.54 7.77-2z" fill="#261c19"/></g></svg>