<svg id="player" xmlns="http://www.w3.org/2000/svg" xmlns:xlink="http://www.w3.org/1999/xlink" viewBox="0 0 800 800"><defs><linearGradient id="linear-gradient" x1="-1721.55" y1="337.99" x2="-1680.69" y2="362.55" gradientTransform="matrix(-1 0 0 1 -1237.46 0)" gradientUnits="userSpaceOnUse"><stop offset="0" stop-color="#1b4599"/><stop offset=".39" stop-color="#1b4599" stop-opacity=".58"/><stop offset=".8" stop-color="#1b4599" stop-opacity=".16"/><stop offset="1" stop-color="#1b4599" stop-opacity="0"/></linearGradient><linearGradient id="linear-gradient-2" x1="-1853.39" y1="337.99" x2="-1812.53" y2="362.55" gradientTransform="translate(2170.81)" xlink:href="#linear-gradient"/><style>.cls-1{fill:#e3b9a4}.cls-2{fill:#f15523}.cls-4{fill:#fff}.cls-5{fill:#1b4599}.cls-6{fill:#ed1e24}.cls-10{fill:#231f20}.cls-12{fill:#543e36}</style></defs><g id="skin"><path id="arm-left" class="cls-1" d="M306.43 383h36.78v72.38a18.39 18.39 0 01-18.39 18.39 18.39 18.39 0 01-18.39-18.39V383z"/><path id="arm-right" class="cls-1" d="M457.69 383h36.78v72.38a18.39 18.39 0 01-18.39 18.39 18.39 18.39 0 01-18.39-18.39V383z"/><path id="leg-left" class="cls-1" d="M350.38 492.97h45.67v45.67h-45.67z"/><path id="leg-right" class="cls-1" d="M405.28 492.97h45.67v45.67h-45.67z"/></g><g id="boots"><path id="left" class="cls-2" d="M395.83 570.99H373l-22.83 1.98h-12.5l-7.5 2.52-5.25 8.5v9.83l1.91 4.17 3.84 4.06 6.33 1.94h58.83v-33z"/><path id="right" class="cls-2" d="M405.11 571.22h22.83l22.83 1.97h12.5l7.5 2.53 5.25 8.5v9.83l-1.91 4.17-3.84 4.05-6.33 1.95h-58.83v-33z"/><path d="M346.51 573a31.88 31.88 0 0024.14 14.54c16.86 1.55 16.94 14.55 25.18 3.72V571zm107.92 0a31.88 31.88 0 01-24.14 14.54c-16.86 1.55-16.94 14.55-25.18 3.72V571z" fill="#1b1b1b"/></g><g id="socks"><g id="socks-2" data-name="socks"><path id="left-2" data-name="left" class="cls-4" d="M350.38 522.95h45.67v48.04h-45.67z"/><path id="right-2" data-name="right" class="cls-4" d="M404.88 522.95h45.67v48.04h-45.67z"/></g><path class="cls-5" d="M352.45 525.65h42.52v3.59h-42.52z"/><path class="cls-6" d="M352.45 529.24h42.52v3.59h-42.52z"/><path class="cls-5" d="M352.45 532.84h42.52v3.59h-42.52zm53.32-7.19h42.52v3.59h-42.52z"/><path class="cls-6" d="M405.77 529.24h42.52v3.59h-42.52z"/><path class="cls-5" d="M405.77 532.84h42.52v3.59h-42.52z"/></g><g id="shorts"><path id="shorts-2" data-name="shorts" class="cls-4" d="M342.17 443.49h116.49v47a9.95 9.95 0 01-9.95 9.95h-96.6a9.95 9.95 0 01-9.95-9.95v-47h.01z"/></g><g id="shirt"><path id="shirt-2" data-name="shirt" class="cls-4" d="M370 315.75l-48.29 2.99-11.36 6.25-6.83 10.1-3.31 40.73 5.17 7.67 7.66 4.67h29.5l.17 54h114.83v-53.5l29.34-.17 7.01-4 6.99-10.5-3.4-37.33-6.83-11.84-9.77-6.08-49.84-2.99-1 21.24-6.5 6.5-11.16 3.48-11.88 2.02-15.46-3.17-11-5.66-3.66-3.84-.38-20.57z"/><path class="cls-5" d="M475.91 317.41c23.53 3.21 37.38 51.28 10.51 71.85-8.36-7.15-23.28-50.21-42.62-51.63a118.65 118.65 0 00-9.8-10.17s-4.16-7.79 1.54-10.87c5.98-3.21 22.19-1.66 40.37.82z"/><path class="cls-6" d="M480 387.91l-21.35.25-.57-22.16c0-9.56-7.62-20.57-14.28-28.36 13.41 1 26.83 8.34 36.59 15.15a28.45 28.45 0 0112.08 21v.36A12.74 12.74 0 01480 387.91z"/><path d="M458 317.41c20.92 3.28 29.59 23.61 32.92 43.47.8 4.75 1.31 9.29 1.63 13.23a12.74 12.74 0 01-12.55 13.8l-21.35.25-.57-22.16c0-9.56-7.62-20.57-14.28-28.36a118.65 118.65 0 00-9.8-10.18s-11.52-15.61 24-10.05z" fill="url(#linear-gradient)"/><path class="cls-5" d="M325.6 317.41c-23.53 3.21-37.38 51.28-10.51 71.85 8.36-7.15 23.28-50.21 42.62-51.63a118.65 118.65 0 019.78-10.17s4.16-7.79-1.54-10.87c-5.95-3.21-22.17-1.66-40.35.82z"/><path class="cls-6" d="M321.54 387.91l21.35.25.54-22.17c0-9.56 7.62-20.57 14.28-28.36-13.41 1-26.83 8.34-36.59 15.15a28.45 28.45 0 00-12.08 21v.36a12.74 12.74 0 0012.5 13.77z"/><path d="M343.56 317.41c-20.92 3.28-29.56 23.59-32.92 43.47-.8 4.75-1.31 9.29-1.63 13.23a12.74 12.74 0 0012.53 13.8l21.35.25.54-22.17c0-9.56 7.62-20.57 14.28-28.36a118.65 118.65 0 019.78-10.17s11.51-15.61-23.93-10.05z" fill="url(#linear-gradient-2)"/><path class="cls-4" d="M385 345.82l-7.65-2.42-5.45-3.19-1.9-24.46-5.56.84v18.56a10.17 10.17 0 004.39 8.37 62 62 0 0020.68 9.35v-5.64zm45-30.07l-1.94 24.46-5.45 3.19-7.61 2.42-4.47 1.41v5.64a62 62 0 0020.68-9.35 10.17 10.17 0 004.39-8.37v-18.56z"/><path class="cls-6" d="M407.23 348.25l-7.23.81-7.23-.81-3.26-1v5.64a44.64 44.64 0 0021 0v-5.64z"/><path class="cls-5" d="M421.16 366.01h15.7v3.87h-15.7z"/><path class="cls-6" d="M421.16 369.88h15.7v3.87h-15.7z"/><path class="cls-5" d="M421.16 373.75h15.7v3.87h-15.7z"/><circle class="cls-4" cx="436.86" cy="371.81" r="6.59"/><path class="cls-5" d="M436.86 365.22a6.6 6.6 0 010 13.19 6.5 6.5 0 01-3.13-.8h-12.57V366h12.57a6.61 6.61 0 013.13-.79m0-1.63a8.23 8.23 0 00-3.52.79h-12.18a1.63 1.63 0 00-1.63 1.63v11.6a1.63 1.63 0 001.63 1.64h12.18a8.23 8.23 0 103.52-15.66zm-44.71 34.09v-10.11l-1.73 1.81a1.41 1.41 0 01-2.43-1 1.47 1.47 0 01.41-1l3.8-3.8a2 2 0 011.42-.58 2 2 0 012 2v12.71a1.73 1.73 0 01-3.45 0zm12.5-14.75c4.57 0 6.64 4.14 6.64 8.28s-2.07 8.3-6.64 8.3-6.64-4.16-6.64-8.3 2.04-8.28 6.64-8.28zm0 3c-2.31 0-3.18 2.29-3.18 5.25s.87 5.27 3.18 5.27 3.15-2.31 3.15-5.27-.86-5.17-3.15-5.17zm-27.82-14.67l-5.43-3.6a1.48 1.48 0 00-1.64 0l-3.29 2.18-3.29-2.18a1.48 1.48 0 00-1.64 0l-5.43 3.6a.67.67 0 000 1.13l5.43 3.6a1.48 1.48 0 001.64 0l3.29-2.18 3.29 2.18a1.48 1.48 0 001.64 0l5.43-3.6a.67.67 0 000-1.13z"/></g><path id="neck" fill="#bb9888" d="M428.13 341.21l-27.59 8.62-28.6-9.62-1.92-23.62h61.04l-2.93 24.62z"/><path d="M503.38 369.38L500.91 339c-1.19-11.87-11.83-22.25-23.72-23.14l-37.14-2.7c-4.07-.45-20.52-.09-39.55.53-19-.62-35.48-1-39.55-.53l-37.14 2.7c-11.89.89-22.53 11.27-23.72 23.14l-2.47 30.36a20.14 20.14 0 005 15.74 18.65 18.65 0 001.69 1.64v66.36c0 12.81 9.32 23.23 20.78 23.23a19.8 19.8 0 0015.21-7.43v21.79a12.24 12.24 0 007.74 11.36v68h-5.93c-10.93 0-19.83 5.8-19.83 17.11 0 8.06 0 17 11.72 19.7v1.6a1.37 1.37 0 001.38 1.37h1.63a1.37 1.37 0 001.38-1.37v-1q1.72.15 3.72.15H344v.8a1.37 1.37 0 001.38 1.37h1.63a1.37 1.37 0 001.38-1.37v-.8H354v.8a1.37 1.37 0 001.38 1.37h1.63a1.37 1.37 0 001.38-1.37v-.8H364v.8a1.37 1.37 0 001.38 1.37h1.63a1.37 1.37 0 001.38-1.37v-.8H374v.8a1.37 1.37 0 001.38 1.37h1.63a1.37 1.37 0 001.38-1.37v-.8H384v.8a1.37 1.37 0 001.38 1.37h1.63a1.37 1.37 0 001.38-1.37v-.8H394v.8a1.37 1.37 0 001.38 1.37h1.63a1.37 1.37 0 001.38-1.37v-.81l.06-55.46V503h4v49.21l.06 54.67v1.6a1.37 1.37 0 001.38 1.37h1.63a1.37 1.37 0 001.38-1.37v-.8h5.61v.8a1.37 1.37 0 001.38 1.37h1.63a1.37 1.37 0 001.38-1.37v-.8h5.61v.8a1.37 1.37 0 001.38 1.37h1.63a1.37 1.37 0 001.38-1.37v-.8h5.61v.8a1.37 1.37 0 001.38 1.37h1.63a1.37 1.37 0 001.38-1.37v-.8h5.61v.8a1.37 1.37 0 001.38 1.37h1.63a1.37 1.37 0 001.38-1.37v-.8h5.61v.8a1.37 1.37 0 001.38 1.37h1.63a1.37 1.37 0 001.38-1.37v-.8h1.89c1.33 0 2.56 0 3.72-.15v1a1.37 1.37 0 001.38 1.37h1.63a1.37 1.37 0 001.38-1.37v-1.6c11.71-2.68 11.72-11.64 11.72-19.7 0-11.31-8.9-17.11-19.83-17.11h-5.93v-68a12.24 12.24 0 007.74-11.36v-21.84a19.8 19.8 0 0015.21 7.43c11.46 0 20.78-10.42 20.78-23.23v-66.36a18.65 18.65 0 001.69-1.64 20.14 20.14 0 005.1-15.74zM372.89 323.2c3.46 1.85 15.64 2.08 27.61 1.8 12 .28 24.15.05 27.61-1.8V335c0 4.81-22.42 12-27.23 12l-.38-.07-.38.07c-4.81 0-27.23-7.18-27.23-12zm-33 75.43v55c0 9.5-6.63 17.23-14.78 17.23s-14.78-7.73-14.78-17.23v-62.78a21.07 21.07 0 007.47 1.36h22.09zm52.91 203.42h-50.65c-14.21 0-14.21-5-14.21-14.89 0-8.22 6.37-11.5 14.21-11.5h11.67l38.93-2.7.07 15.37zm-38.74-76.4h38.67v41.7L354.08 570h-.26v-44.4zm-.26-5.74v-17h38.93v16.93h-38.91zm104.77 55.75h.26c7.84 0 14.21 3.28 14.21 11.5 0 9.91 0 14.89-14.21 14.89h-50.65v-13.7l.07-15.37 38.93 2.7h11.41zm-11.67-50h.26v44.4h-.26l-38.67-2.68v-41.7zm-38.67-5.74V503h38.93v17h-38.91zm46.84-73.78H455v44.58a6.6 6.6 0 01-6.58 6.58h-1.26l-43.68-.05s-.11-3.72-.16-8.75v-2.8c0-3.52-1.41-5.09-2.82-5-1.41-.08-2.82 1.49-2.82 5v2.79c-.05 5-.16 8.75-.16 8.75l-43.68.05h-1.26a6.6 6.6 0 01-6.58-6.58v-44.58h-.07v-.33l30.25.33h48.68l30.25-.33zm35.56 7.51c0 9.5-6.63 17.23-14.78 17.23s-14.78-7.73-14.78-17.23v-61.44h22.09a21.07 21.07 0 007.47-1.36zm6-77.21a13.55 13.55 0 01-2.76 4.66 13.85 13.85 0 01-3.24 2.63 14.72 14.72 0 01-7.47 2l-22.09.09v-20.15c0-5.56-6.08-5.93-6.08 0s.08 14.37.08 14.37v59.59H345.91V380s.08-8.45.08-14.37-6.08-5.54-6.08 0v20.11l-22.09-.09a14.72 14.72 0 01-7.47-2 13.85 13.85 0 01-3.24-2.63 13.55 13.55 0 01-2.76-4.66 14.79 14.79 0 01-.75-6.46l2.46-30.35c.9-8.95 9.23-17.08 18.2-17.75l11.12-.84 32.21-2.29c.68.55.49 17.49.49 17.49 0 8.43 23.34 15.29 31.77 15.29h1.3c8.43 0 31.77-6.86 31.77-15.29 0 0-.19-16.94.49-17.49l32.21 2.33 11.12.84c9 .67 17.3 8.8 18.2 17.75L497.4 370a14.79 14.79 0 01-.75 6.43z" id="border"/><g id="head"><path class="cls-10" d="M408.73 189.92c10 0 10.79 1.44 10.79 1.44h.06c.16 0 .56.23.09 2.75a7.84 7.84 0 013.85-1 7.61 7.61 0 013.49.85c20.88 10.72 22.22 41.87 18.57 43a2.72 2.72 0 01-.75.1c-5.29 0-22.48-10.69-27.59-15.4-2-1.86-2.52-6.66-2.36-11.93-1 2.77-2.18 6-3.59 9.64h-1.68c-7.52 0-38.32.56-52.46 9.37a3.81 3.81 0 01-5.85-2.9c-.95-10.82 1.78-31.06 34.57-34.4 10.61-1.08 17.88-1.44 22.86-1.44m0-5c-6 0-13.82.5-23.37 1.47-15.87 1.62-27.16 7.18-33.56 16.55-5.51 8.07-6 17.1-5.48 23.26a8.81 8.81 0 0013.47 6.71c10.19-6.35 32.42-8.62 49.82-8.62h1.59l1.17-.79a9.77 9.77 0 001.49 1.76 97.18 97.18 0 0014.59 10.1c11.36 6.56 15.14 6.56 16.38 6.56a7.52 7.52 0 002.21-.32c4.38-1.33 4.85-6.6 5-8.34.89-10-3.48-34-22.75-43.86a12.59 12.59 0 00-5.78-1.41h-.09a5.27 5.27 0 00-1.37-1.08c-2-1.31-5.76-2.07-13.33-2.07z"/><path id="skin-2" data-name="skin" class="cls-1" d="M446.88 254.05c0-.91.08-1.81.08-2.73 0-30.51-21.06-55.25-47-55.25s-47 24.74-47 55.25c0 1.11 0 2.22.1 3.31-4.05 2.46-6.91 8.44-6.91 15.43 0 9.19 4.93 16.64 11 16.64a7.48 7.48 0 002.1-.32c.82 24.5 18.73 44.08 40.73 44.08S440 310.65 440.66 286a7.65 7.65 0 003.25.74c6.09 0 11-7.45 11-16.64.02-7.67-3.39-14.1-8.03-16.05z"/><path d="M445.94 244.67c-5.08-3-8.68-2.67-8.68-2.67s-.47 17.45-1.16 24.7c-.54 5.76-10.28 35.16-13.88 35.79s-8-5.5-21.68-5.5-18.08 6.14-21.68 5.5-13.33-30-13.88-35.79c-.68-7.25-1.15-24.7-1.15-24.7s-3.61-.3-8.69 2.67 2.77 27.53 2.77 27.53c-.61 19.29 1.26 18.43 9.1 37.71s33.53 20.55 33.53 20.55 25.68-1.28 33.53-20.55 9.72-18.42 9.11-37.71c0 0 7.82-24.57 2.76-27.53zm-46 70.64c-5.51 0-11.18-.66-11.35-4.11s11.41-5.76 11.41-5.76c4.89.25 12.42 2.06 12.42 5.54s-6.95 4.33-12.42 4.33z" opacity=".2" fill="#543e36"/><path class="cls-12" d="M438.08 219.05c-11.75-26-38.08-23-38.08-23s-26.33-3-38.08 23-10.17 21.47-7.38 38.14c0 0 12.14-14.11 12.6-21.4s-.9-18.09 4.5-17.55 28.36 1.35 28.36 1.35 23-.81 28.36-1.35 4.05 10.26 4.5 17.55 12.6 21.4 12.6 21.4c2.79-16.67 4.37-12.12-7.38-38.14z"/><path class="cls-10" d="M399.92 333.46c-22.68 0-41.28-19-43.53-43.79-7.52-.49-13.32-8.93-13.32-19.61 0-7 2.64-13.45 6.84-16.92v-1.82c0-32.12 22.45-58.25 50-58.25s50 26.13 50 58.25v1c4.85 3.18 8 10 8 17.76 0 11-6.16 19.64-14 19.64h-.46c-2.25 24.79-20.78 43.74-43.53 43.74zm-40.73-50.08a3 3 0 013 2.9c.77 23.09 17.34 41.18 37.73 41.18 20.58 0 37.15-18.26 37.74-41.58a3 3 0 014.27-2.64 4.73 4.73 0 002 .46c4.35 0 8-6.25 8-13.64 0-7-3.13-11.94-6.22-13.25a3 3 0 01-1.83-2.89v-.18c0-.8.07-1.6.07-2.42 0-28.81-19.76-52.25-44-52.25s-44 23.44-44 52.25c0 .92 0 1.89.09 3.16a3 3 0 01-1.43 2.71c-3.27 2-5.47 7.16-5.47 12.87 0 7.39 3.67 13.64 8 13.64a4.69 4.69 0 001.25-.19 2.74 2.74 0 01.8-.13z"/><path class="cls-12" d="M427 193.92a7.69 7.69 0 00-7.34.18c.57-3.07-.15-2.74-.15-2.74s-1.84-3.24-33.65 0c-32.79 3.34-35.52 23.58-34.57 34.4a3.82 3.82 0 005.85 2.9c16.18-10.08 54.14-9.35 54.14-9.35 1.41-3.68 2.6-6.87 3.59-9.64-.16 5.27.35 10.07 2.36 11.93 5.39 5 24.19 16.56 28.34 15.3 3.66-1.11 2.32-32.26-18.57-42.98z"/></g></svg>