<svg id="player" xmlns="http://www.w3.org/2000/svg" viewBox="0 0 800 800"><defs><clipPath id="clip-path"><path fill="none" d="M423.51 361.33h21.42v29.53h-21.42z"/></clipPath><style>.cls-2{fill:#dca689}.cls-3{fill:#e31e26}.cls-5{fill:#d3202c}.cls-6{fill:#fff}.cls-8{clip-path:url(#clip-path)}.cls-10{fill:#c1272e}.cls-13{fill:#130e0e;opacity:.1}</style></defs><g id="skin"><path id="arm-left" class="cls-2" d="M306.43 383h36.78v72.38a18.39 18.39 0 01-18.39 18.39 18.39 18.39 0 01-18.39-18.39V383z"/><path id="arm-right" class="cls-2" d="M457.69 383h36.78v72.38a18.39 18.39 0 01-18.39 18.39 18.39 18.39 0 01-18.39-18.39V383z"/><path id="leg-left" class="cls-2" d="M350.38 492.97h45.67v45.67h-45.67z"/><path id="leg-right" class="cls-2" d="M405.28 492.97h45.67v45.67h-45.67z"/></g><g id="boots"><path id="left" class="cls-3" d="M395.83 570.99H373l-22.83 1.98h-12.5l-7.5 2.52-5.25 8.5v9.83l1.91 4.17 3.84 4.06 6.33 1.94h58.83v-33z"/><path id="right" class="cls-3" d="M405.11 571.22h22.83l22.83 1.97h12.5l7.5 2.53 5.25 8.5v9.83l-1.91 4.17-3.84 4.05-6.33 1.95h-58.83v-33z"/><path d="M466.88 574.58s-25.44 11.56-41.94 9.32-19.44-6.52-19.44-6.52l-.39-6.39s51.89-.43 61.77 3.59zm-61.38 21.25s21-1 22.84 8.16l-23 .23zm-71.44-21.25s25.44 11.56 41.94 9.32 19.43-6.52 19.43-6.52l.4-6.39s-51.89-.43-61.77 3.59zm61.37 21.25s-21-1-22.83 8.16l23 .23z" fill="#270e0e"/></g><g id="socks"><g id="socks-2" data-name="socks"><path id="left-2" data-name="left" class="cls-5" d="M350.38 522.95h45.67v48.04h-45.67z"/><path id="right-2" data-name="right" class="cls-5" d="M404.88 522.95h45.67v48.04h-45.67z"/></g><path class="cls-6" d="M351.83 527.3h44.74v1.75h-44.74zm0 3.5h44.74v1.75h-44.74zm53.05-3.5h44.74v1.75h-44.74zm0 3.5h44.74v1.75h-44.74z"/></g><g id="shorts"><path id="shorts-2" data-name="shorts" d="M342.17 443.49h116.49v47a9.95 9.95 0 01-9.95 9.95h-96.6a9.95 9.95 0 01-9.95-9.95v-47h.01z" fill="#007e46"/><path class="cls-6" d="M347.89 443.49h1.97v56.08h-1.97zm3.94 0h1.97v56.08h-1.97zm95.34 0h1.97v56.08h-1.97zm3.94 0h1.97v56.08h-1.97z"/></g><g id="shirt"><path id="shirt-2" data-name="shirt" class="cls-5" d="M370 315.75l-48.29 2.99-11.36 6.25-6.83 10.1-3.31 40.73 5.17 7.67 7.66 4.67h29.5l.17 54h114.83v-53.5l29.34-.17 7.01-4 6.99-10.5-3.4-37.33-6.83-11.84-9.77-6.08-49.84-2.99-1 21.24-6.5 6.5-11.16 3.48-11.88 2.02-15.46-3.17-11-5.66-3.66-3.84-.38-20.57z"/><path class="cls-6" d="M343.07 379.18s-30.62-.42-38.52 1.6l4 5.15s18.67 3.73 34 2.23zm115.59 0s30.63-.42 38.53 1.6l-4 5.15s-18.67 3.73-33.95 2.23zM431 315.75l-.39 21.25-3.76 3.95-5.38 2.73-5.9 3.12-5.75 1.2-9.57 2.78-9.57-2.78-5.75-1.19-5.9-3.12-5.38-2.73-3.76-3.96-.39-21.23-4.75.87v18.05a12.88 12.88 0 004 9.37c5.08 4.8 15.18 11.58 31.48 11.27 16.3.31 26.39-6.47 31.47-11.27a12.88 12.88 0 004-9.37v-18.07z"/><path class="cls-6" d="M310 328.28l-1.16-1.63c4.68-3.34 52.32-5.36 57.74-5.58l.08 2c-21 .85-53.45 2.93-56.66 5.21zm-5.29 5.72l-1.16-1.63c4.68-3.33 57.1-5.35 63.06-5.57l.08 2c-23.17.82-58.8 2.91-61.98 5.2zm187-5.72l1.16-1.63c-4.68-3.34-52.32-5.36-57.74-5.58l-.08 2c21.03.85 53.48 2.93 56.66 5.21zM497 334l1.17-1.63c-4.68-3.33-57.1-5.35-63.07-5.57l-.07 2c23.19.82 58.82 2.91 61.97 5.2z"/><g class="cls-8" id="crest-morocco-98"><g class="cls-8"><path d="M441.79 364.46a10.71 10.71 0 10-12.1 17.28v4.58a4.53 4.53 0 009.06 0v-4.58a10.71 10.71 0 003-17.28m.56 11.74a8.31 8.31 0 01-.44.76c-.07.12-.16.25-.24.37s-.26.35-.4.52l-.29.33-.3.32-.32.3-.16.14-.34.28-.18.14a5.14 5.14 0 01-.54.37l-.39.24a8.5 8.5 0 01-1.57.71v5.94a.77.77 0 010 .15 1.36 1.36 0 01-.06.29.57.57 0 010 .14c0 .09-.06.18-.1.27a2.81 2.81 0 01-.19.39l-.16.23a2.92 2.92 0 01-.28.32 1.8 1.8 0 01-.21.19l-.18.14-.17.11-.12.07-.26.13-.27.1H435a3.06 3.06 0 01-.74.09 3.19 3.19 0 01-.45 0 2.65 2.65 0 01-.57-.15 3.11 3.11 0 01-.52-.25l-.12-.07a2.16 2.16 0 01-.33-.27l-.11-.1a2.08 2.08 0 01-.27-.32 1.88 1.88 0 01-.16-.23 2.87 2.87 0 01-.2-.39c0-.09-.07-.18-.1-.27s0-.09 0-.14l-.06-.29v-6.09l-.19-.06a7.32 7.32 0 01-.81-.35l-.4-.2a1 1 0 01-.17-.1l-.21-.12-.37-.24-.36-.25a5.17 5.17 0 01-.51-.42l-.17-.14c-.21-.2-.42-.4-.62-.62l-.28-.33c-.1-.11-.19-.23-.28-.35s-.25-.35-.37-.54-.23-.37-.34-.57-.14-.26-.2-.39-.24-.54-.35-.82l-.21-.64c0-.15-.07-.29-.11-.44a9.39 9.39 0 010-4.13c0-.15.07-.29.11-.44l.12-.37.09-.27c.11-.28.22-.55.35-.82s.13-.26.2-.39l.15-.26a3.21 3.21 0 01.19-.31c.12-.19.24-.37.37-.54l.28-.35.28-.33.31-.32.31-.3.17-.14a5.17 5.17 0 01.51-.42l.36-.25.37-.24c.12-.08.25-.15.38-.22l.4-.2a7.32 7.32 0 01.81-.35l.27-.09.37-.12.66-.16c.3-.06.6-.1.91-.14s.62 0 .94 0a9.33 9.33 0 011.84.18l.44.11.22.05.43.14a8.92 8.92 0 012 1l.26.17.28.2.18.14.34.28.16.14c.22.2.42.41.62.62l.29.33.19.25.21.28c.08.11.17.24.24.36a3.21 3.21 0 01.19.31.64.64 0 01.08.14l.17.31c.06.12.12.23.17.34a1 1 0 00.07.15 9.94 9.94 0 01.35 1c0 .13.08.25.11.39v.08a9.24 9.24 0 01.27 2.25 9 9 0 01-.41 2.71 8.32 8.32 0 01-.59 1.45" fill="#d3a42a"/><path class="cls-10" d="M434.22 365.37a6.67 6.67 0 00-4.53 11.56 6.35 6.35 0 001.57 1.08 6.69 6.69 0 005.92 0 6.75 6.75 0 001.57-1.08 6.67 6.67 0 00-4.53-11.56"/><path class="cls-6" d="M434.5 366.09l.83 1.69a3.26 3.26 0 002.48 1.8l1.87.27a.32.32 0 01.17.54l-1.35 1.31a3.29 3.29 0 00-.95 2.91l.32 1.87a.31.31 0 01-.45.32l-1.67-.87a3.25 3.25 0 00-3.06 0l-1.67.87a.31.31 0 01-.46-.32l.32-1.87a3.32 3.32 0 00-.94-2.91l-1.36-1.31a.32.32 0 01.18-.54l1.86-.27a3.25 3.25 0 002.48-1.8l.84-1.69a.31.31 0 01.56 0"/><path d="M443.08 369.79v-.08c0-.14-.07-.26-.11-.39a9.94 9.94 0 00-.35-1 1 1 0 01-.07-.15l-.17-.33a3.24 3.24 0 00-.17-.32.64.64 0 00-.08-.14 3.21 3.21 0 00-.19-.31c-.07-.12-.16-.25-.24-.36l-.21-.28-.19-.25-.29-.33c-.2-.22-.4-.42-.62-.62l-.16-.14-.34-.28-.18-.14-.28-.2-.26-.17a9.13 9.13 0 00-2-1l-.43-.14-.22-.06-.44-.1a9.33 9.33 0 00-1.84-.18h-.94c-.31 0-.61.08-.91.14l-.65.16-.38.12-.27.09a8.41 8.41 0 00-.82.35l-.39.2c-.13.07-.26.14-.38.22l-.37.24-.36.25a5.17 5.17 0 00-.51.42l-.17.14-.32.3-.3.32-.29.33-.27.35c-.13.17-.25.35-.37.54a3.21 3.21 0 00-.19.31l-.15.26c-.07.13-.14.26-.2.39s-.24.54-.35.82l-.09.27c0 .12-.08.25-.11.37s-.08.29-.12.44a9.39 9.39 0 000 4.13c0 .15.07.29.12.44s.13.43.2.64.22.55.35.82.13.26.2.39.22.39.34.57.24.37.37.54l.27.35.29.33c.2.22.41.42.62.62l.17.15c.16.14.33.28.51.41l.36.25.37.24.21.12a1 1 0 00.17.1l.39.2a8.41 8.41 0 00.82.35l.19.06V378a6.69 6.69 0 005.92 0 6.75 6.75 0 001.57-1.08 6.67 6.67 0 00-4.53-11.56 6.67 6.67 0 014.53 11.56 6.66 6.66 0 01-4.53 1.77v10.58a3.06 3.06 0 00.74-.09h.14l.27-.1.26-.13.12-.07.17-.11.18-.14.21-.19a2.92 2.92 0 00.28-.32l.16-.23a2.81 2.81 0 00.19-.39c0-.09.07-.18.1-.27a.74.74 0 000-.14 1.36 1.36 0 00.06-.29v-6.09a8.5 8.5 0 001.57-.71l.39-.24c.19-.12.37-.24.54-.37l.18-.14.34-.27.16-.15.32-.3.3-.32.29-.33c.14-.17.27-.35.4-.53s.17-.24.24-.36a8.84 8.84 0 001-2.21 9 9 0 00.41-2.71 9.24 9.24 0 00-.27-2.25m-3.36 2.18a5.37 5.37 0 01-1.74 4 5.55 5.55 0 01-1.27.88 5.42 5.42 0 113-4.85" fill="#008251"/><path class="cls-10" d="M431.26 376.58v4.1l.22.08-.22-.08v6.09l.06.29v.14c0 .05.06.18.1.27a2.87 2.87 0 00.2.39 1.88 1.88 0 00.16.23 2.08 2.08 0 00.27.32l.11.1a2.16 2.16 0 00.33.27l.12.07a3.11 3.11 0 00.52.25 2.65 2.65 0 00.57.15 3.19 3.19 0 00.45 0v-11.8a6.8 6.8 0 01-3-.87"/></g></g><g id="brand-adidas"><g id="adidas"><rect id="bottom" class="cls-6" x="356.05" y="376.81" width="15.19" height="2.14" rx=".62" ry=".62"/><path class="cls-6" d="M363.72 368.11a1.33 1.33 0 00-.48 1.82l3.11 5.41a1.33 1.33 0 001.16.67h2.33l-4.29-7.42a1.34 1.34 0 00-1.83-.48zm-2.67 2.69a1.33 1.33 0 00-.49 1.81l1.53 2.72a1.34 1.34 0 001.17.68h2.32l-2.69-4.72a1.35 1.35 0 00-1.84-.49zm-2.93 2.35a1.34 1.34 0 00-.5 1.8l.21.37a1.33 1.33 0 001.17.68h2.32l-1.32-2.36a1.33 1.33 0 00-1.88-.49z"/></g></g><path class="cls-6" d="M395.62 387.75a2.91 2.91 0 01.16-.8l5.52-12.46h-7.77a1.74 1.74 0 110-3.47h10.66a1.89 1.89 0 011.89 1.88 1.66 1.66 0 01-.17.75l-6.49 14.88a1.94 1.94 0 01-1.83 1.2 2 2 0 01-1.97-1.98z"/></g><path id="neck" fill="#ba8772" d="M428.13 341.21l-27.59 8.62-28.6-9.62-1.92-23.62h61.04l-2.93 24.62z"/><path d="M503.38 369.38L500.91 339c-1.19-11.87-11.83-22.25-23.72-23.14l-37.14-2.7c-4.07-.45-20.52-.09-39.55.53-19-.62-35.48-1-39.55-.53l-37.14 2.7c-11.89.89-22.53 11.27-23.72 23.14l-2.47 30.36a20.14 20.14 0 005 15.74 18.65 18.65 0 001.69 1.64v66.36c0 12.81 9.32 23.23 20.78 23.23a19.8 19.8 0 0015.21-7.43v21.79a12.24 12.24 0 007.74 11.36v68h-5.93c-10.93 0-19.83 5.8-19.83 17.11 0 8.06 0 17 11.72 19.7v1.6a1.37 1.37 0 001.38 1.37h1.63a1.37 1.37 0 001.38-1.37v-1q1.72.15 3.72.15H344v.8a1.37 1.37 0 001.38 1.37h1.63a1.37 1.37 0 001.38-1.37v-.8H354v.8a1.37 1.37 0 001.38 1.37h1.63a1.37 1.37 0 001.38-1.37v-.8H364v.8a1.37 1.37 0 001.38 1.37h1.63a1.37 1.37 0 001.38-1.37v-.8H374v.8a1.37 1.37 0 001.38 1.37h1.63a1.37 1.37 0 001.38-1.37v-.8H384v.8a1.37 1.37 0 001.38 1.37h1.63a1.37 1.37 0 001.38-1.37v-.8H394v.8a1.37 1.37 0 001.38 1.37h1.63a1.37 1.37 0 001.38-1.37v-.81l.06-55.46V503h4v49.21l.06 54.67v1.6a1.37 1.37 0 001.38 1.37h1.63a1.37 1.37 0 001.38-1.37v-.8h5.61v.8a1.37 1.37 0 001.38 1.37h1.63a1.37 1.37 0 001.38-1.37v-.8h5.61v.8a1.37 1.37 0 001.38 1.37h1.63a1.37 1.37 0 001.38-1.37v-.8h5.61v.8a1.37 1.37 0 001.38 1.37h1.63a1.37 1.37 0 001.38-1.37v-.8h5.61v.8a1.37 1.37 0 001.38 1.37h1.63a1.37 1.37 0 001.38-1.37v-.8h5.61v.8a1.37 1.37 0 001.38 1.37h1.63a1.37 1.37 0 001.38-1.37v-.8h1.89c1.33 0 2.56 0 3.72-.15v1a1.37 1.37 0 001.38 1.37h1.63a1.37 1.37 0 001.38-1.37v-1.6c11.71-2.68 11.72-11.64 11.72-19.7 0-11.31-8.9-17.11-19.83-17.11h-5.93v-68a12.24 12.24 0 007.74-11.36v-21.84a19.8 19.8 0 0015.21 7.43c11.46 0 20.78-10.42 20.78-23.23v-66.36a18.65 18.65 0 001.69-1.64 20.14 20.14 0 005.1-15.74zM372.89 323.2c3.46 1.85 15.64 2.08 27.61 1.8 12 .28 24.15.05 27.61-1.8V335c0 4.81-22.42 12-27.23 12l-.38-.07-.38.07c-4.81 0-27.23-7.18-27.23-12zm-33 75.43v55c0 9.5-6.63 17.23-14.78 17.23s-14.78-7.73-14.78-17.23v-62.78a21.07 21.07 0 007.47 1.36h22.09zm52.91 203.42h-50.65c-14.21 0-14.21-5-14.21-14.89 0-8.22 6.37-11.5 14.21-11.5h11.67l38.93-2.7.07 15.37zm-38.74-76.4h38.67v41.7L354.08 570h-.26v-44.4zm-.26-5.74v-17h38.93v16.93h-38.91zm104.77 55.75h.26c7.84 0 14.21 3.28 14.21 11.5 0 9.91 0 14.89-14.21 14.89h-50.65v-13.7l.07-15.37 38.93 2.7h11.41zm-11.67-50h.26v44.4h-.26l-38.67-2.68v-41.7zm-38.67-5.74V503h38.93v17h-38.91zm46.84-73.78H455v44.58a6.6 6.6 0 01-6.58 6.58h-1.26l-43.68-.05s-.11-3.72-.16-8.75v-2.8c0-3.52-1.41-5.09-2.82-5-1.41-.08-2.82 1.49-2.82 5v2.79c-.05 5-.16 8.75-.16 8.75l-43.68.05h-1.26a6.6 6.6 0 01-6.58-6.58v-44.58h-.07v-.33l30.25.33h48.68l30.25-.33zm35.56 7.51c0 9.5-6.63 17.23-14.78 17.23s-14.78-7.73-14.78-17.23v-61.44h22.09a21.07 21.07 0 007.47-1.36zm6-77.21a13.55 13.55 0 01-2.76 4.66 13.85 13.85 0 01-3.24 2.63 14.72 14.72 0 01-7.47 2l-22.09.09v-20.15c0-5.56-6.08-5.93-6.08 0s.08 14.37.08 14.37v59.59H345.91V380s.08-8.45.08-14.37-6.08-5.54-6.08 0v20.11l-22.09-.09a14.72 14.72 0 01-7.47-2 13.85 13.85 0 01-3.24-2.63 13.55 13.55 0 01-2.76-4.66 14.79 14.79 0 01-.75-6.46l2.46-30.35c.9-8.95 9.23-17.08 18.2-17.75l11.12-.84 32.21-2.29c.68.55.49 17.49.49 17.49 0 8.43 23.34 15.29 31.77 15.29h1.3c8.43 0 31.77-6.86 31.77-15.29 0 0-.19-16.94.49-17.49l32.21 2.33 11.12.84c9 .67 17.3 8.8 18.2 17.75L497.4 370a14.79 14.79 0 01-.75 6.43z" id="border"/><g id="head"><path id="skin-2" data-name="skin" class="cls-2" d="M446.88 254.05c0-.91.08-1.81.08-2.73 0-30.51-21.06-55.25-47-55.25s-47 24.74-47 55.25c0 1.11 0 2.22.1 3.31-4.05 2.46-6.91 8.44-6.91 15.43 0 9.19 4.93 16.64 11 16.64a7.48 7.48 0 002.1-.32c.82 24.5 18.73 44.08 40.73 44.08S440 310.65 440.66 286a7.65 7.65 0 003.25.74c6.09 0 11-7.45 11-16.64.02-7.67-3.39-14.1-8.03-16.05z"/><path class="cls-13" d="M436.87 278.17l-2.09 12.07-3.38 3.55a10.48 10.48 0 01-10.84 2.75L400.31 294l-20.26 2.58a10.48 10.48 0 01-10.84-2.75l-4.71-5-2.11-11.35a2.55 2.55 0 00-5.05.22c-.35 3.52-.3 6.82.67 8.63a9.94 9.94 0 002.57 3.2c0 2.24 0 5.19.13 8.67.32 8.13 14.3 23 20.55 28.25s19.05 6.75 19.05 6.75 12.79-1.5 19-6.75 20.23-20.12 20.55-28.25c.17-4.27.16-7.74.12-10.08a12.07 12.07 0 001.17-1.79c.91-1.69 1-4.67.74-7.91a2.55 2.55 0 00-5.02-.25zm-23.6 32.92c-.07 4.16-13 3.5-13 3.5s-12.9.66-13-3.5c0-3.31.07-6.53.19-8.91a4.69 4.69 0 014.27-4.43 114.51 114.51 0 0116.57 0 5.13 5.13 0 014.74 4.86c.18 2.3.28 5.39.23 8.48z"/><path d="M429.86 207.22l-10-7.31c-8.25-4.12-17.62-4-19.86-3.87-2.24-.1-11.6-.25-19.86 3.87l-10 7.31c-1.67 7.08 20.86 19.64 29.86 19.64s31.53-12.56 29.86-19.64z" fill="#130e0e"/><path class="cls-13" d="M443 227.54c-7.54-25.61-42.54-31.47-42.54-31.47s-35 5.86-42.54 31.47c0 0-5.46 16.79-2.87 28.32a2.29 2.29 0 004.28.55c3.19-6.2 8.43-17.31 8.27-23.1-.23-8.3 1.39-12.86 4.1-12.86 2.42 0 28.29 3.73 28.29 3.73l.47-.06.47.06s25.87-3.73 28.29-3.73c2.71 0 4.33 4.56 4.1 12.86-.16 5.79 5.08 16.9 8.27 23.1a2.29 2.29 0 004.28-.55c2.63-11.53-2.87-28.32-2.87-28.32z"/><path d="M399.92 333.46c-22.68 0-41.28-19-43.53-43.79-7.52-.49-13.32-8.93-13.32-19.61 0-7 2.64-13.45 6.84-16.92v-1.82c0-32.12 22.45-58.25 50-58.25s50 26.13 50 58.25v1c4.85 3.18 8 10 8 17.76 0 11-6.16 19.64-14 19.64h-.46c-2.25 24.79-20.78 43.74-43.53 43.74zm-40.73-50.08a3 3 0 013 2.9c.77 23.09 17.34 41.18 37.73 41.18 20.58 0 37.15-18.26 37.74-41.58a3 3 0 014.27-2.64 4.73 4.73 0 002 .46c4.35 0 8-6.25 8-13.64 0-7-3.13-11.94-6.22-13.25a3 3 0 01-1.83-2.89v-.18c0-.8.07-1.6.07-2.42 0-28.81-19.76-52.25-44-52.25s-44 23.44-44 52.25c0 .92 0 1.89.09 3.16a3 3 0 01-1.43 2.71c-3.27 2-5.47 7.16-5.47 12.87 0 7.39 3.67 13.64 8 13.64a4.69 4.69 0 001.25-.19 2.74 2.74 0 01.8-.13z" fill="#231f20"/></g></svg>