<svg id="player" xmlns="http://www.w3.org/2000/svg" viewBox="0 0 800 800"><defs><style>.cls-1{fill:#be9177}.cls-2{fill:#785b4c}.cls-3{fill:#4378bc}.cls-5{fill:#0e52a4}.cls-6{fill:#f26552}.cls-8{fill:#1a4275}.cls-10{fill:#231f20}</style></defs><g id="skin"><path id="arm-left" class="cls-1" d="M306.43 383h36.78v72.38a18.39 18.39 0 01-18.39 18.39 18.39 18.39 0 01-18.39-18.39V383z"/><path id="arm-right" class="cls-1" d="M457.69 383h36.78v72.38a18.39 18.39 0 01-18.39 18.39 18.39 18.39 0 01-18.39-18.39V383z"/><path id="leg-left" class="cls-1" d="M350.38 492.97h45.67v45.67h-45.67z"/><path id="leg-right" class="cls-1" d="M405.28 492.97h45.67v45.67h-45.67z"/></g><path class="cls-2" d="M483.34 383s-7 19.73-5.53 24.68 16.08-12.06 12.84-23.93zm-12.23 0v2.82a49.07 49.07 0 01-10 29.72V383zm-4.36 28.4s-6.67 8.81-4 13.26 12.4-.92 4-13.26zm27.72-12.18c-1.24.84-9.66 8.48-10.11 15s-1 15.38 1.31 16.62 7.27-6.7 7.27-6.7z"/><path class="cls-2" d="M473.67 402.41s9.23 19.69 5.38 24.28-9 3.53-8.11-1.74-2.94-24.04 2.73-22.54zm20.8 32.46s-12.14 10.3-17.16 7.44-6.07-7.45-1.61-7.29 17.86-5.31 18.77-.15zm-35.68-.73s5.23-3.85 8.82-3.87.79 10.38-5.44 9.9-3.38-6.03-3.38-6.03zm14.85-42.94l-1.38 5.13c-.46 1.75.88 3.39 2.23 2.72l1.38-.68a2.24 2.24 0 001.08-2v-4.44c.05-2.47-2.69-3.04-3.31-.73z"/><g id="boots"><path id="left" class="cls-3" d="M395.83 570.99H373l-22.83 1.98h-12.5l-7.5 2.52-5.25 8.5v9.83l1.91 4.17 3.84 4.06 6.33 1.94h58.83v-33z"/><path id="right" class="cls-3" d="M405.11 571.22h22.83l22.83 1.97h12.5l7.5 2.53 5.25 8.5v9.83l-1.91 4.17-3.84 4.05-6.33 1.95h-58.83v-33z"/><path d="M375.32 571.22s-17.26 9.08-6.5 33h13s4.56-33-6.5-33zm52.9 0s-17.26 9.08-6.5 33h13s4.55-33-6.5-33z" fill="#fff"/></g><g id="socks"><g id="socks-2" data-name="socks"><path id="left-2" data-name="left" class="cls-5" d="M350.38 522.95h45.67v48.04h-45.67z"/><path id="right-2" data-name="right" class="cls-5" d="M404.88 522.95h45.67v48.04h-45.67z"/></g><path class="cls-6" d="M350.72 527.68h45.08v2.25h-45.08zm54.42 0h45.08v2.25h-45.08zm-54.42 4.5h45.08v2.25h-45.08zm54.42 0h45.08v2.25h-45.08z"/></g><g id="shorts"><path id="shorts-2" data-name="shorts" class="cls-6" d="M342.17 443.49h116.49v47a9.95 9.95 0 01-9.95 9.95h-96.6a9.95 9.95 0 01-9.95-9.95v-47h.01z"/><path class="cls-5" d="M347.91 443.49H350v53.8h-2.09zm4.17 0h2.09v53.8h-2.09zm94.75 0h2.09v53.8h-2.09zm4.17 0h2.09v53.8H451z"/></g><g id="shirt"><path id="shirt-2" data-name="shirt" class="cls-5" d="M370 315.75l-48.29 2.99-11.36 6.25-6.83 10.1-3.31 40.73 5.17 7.67 7.66 4.67h29.5l.17 54h114.83v-53.5l29.34-.17 7.01-4 6.99-10.5-3.4-37.33-6.83-11.84-9.77-6.08-49.84-2.99-1 21.24-6.5 6.5-11.16 3.48-11.88 2.02-15.46-3.17-11-5.66-3.66-3.84-.38-20.57z"/><g opacity=".7"><path class="cls-8" d="M422.45 357.57a5.48 5.48 0 01-.57.05 5.48 5.48 0 01.57.05zm19.12.23h.12a4.76 4.76 0 01-.65-.06v.07zm-9.17 4.2a.36.36 0 010-.1h-.67a4.76 4.76 0 01.67.1zm8.6 56.34a5.05 5.05 0 01.67-.06 4.76 4.76 0 01-.65-.06.5.5 0 01-.02.12zm-18.55-.28a5.48 5.48 0 01-.57.05 5.48 5.48 0 01.57.05zm0-69.14a3.68 3.68 0 01-.57.06 5.48 5.48 0 01.57 0zm8.73 4.33v.1a5.48 5.48 0 01.57-.05 5.48 5.48 0 01-.57-.05z"/><path class="cls-8" d="M432.4 353.36a.5.5 0 010-.12 4.91 4.91 0 01-.67.06 4.76 4.76 0 01.67.06zm-1.22 8.64a5.48 5.48 0 01.57-.05h-.57zm9.82 65a5.05 5.05 0 01.67-.06 4.76 4.76 0 01-.65-.06.5.5 0 01-.02.12zm-9.82-56.37a5.48 5.48 0 01.57-.05h-.57zm1.22.01v-.08h-.6a4.76 4.76 0 01.6.08zm-9.95 38.78a5.48 5.48 0 01-.57.05 5.48 5.48 0 01.57 0zm0-8.64a5.48 5.48 0 01-.57.05 5.48 5.48 0 01.57.05zm18.61-68.98zm.26 34.66h.37a4.76 4.76 0 01-.65-.06v.09zm-8.92 21.43h-.34.34zm-9.95-21.68a5.48 5.48 0 01-.57.05 5.48 5.48 0 01.57.05zm0-34.57a3.66 3.66 0 01-.57.05 3.68 3.68 0 01.57.06zm12.56-13.32l2.3-.71h-.17l-2.18.71h.05zm6.3 22.15h-.27zm-8.91-4.4a.5.5 0 010-.12 3.71 3.71 0 01-.67.06 4.76 4.76 0 01.67.06zm1.8-17.5l-.08.03.08-.03zm7.36 30.56a4.73 4.73 0 01-.52 0zm-19.11 86.21a3.66 3.66 0 01-.57.05 5.48 5.48 0 01.57.05zm0-112.34a5.48 5.48 0 01-.57.05 5.48 5.48 0 01.57.05zm15.46-5.64h.2l1.93-.6a4 4 0 01.52-.11h-.6zm3.09 83.7a3.81 3.81 0 01.67-.07 4.74 4.74 0 01-.65-.05.5.5 0 01-.02.12zM433.11 319a1.82 1.82 0 01.28-.13 2.48 2.48 0 01-.39.1zm-1.93 25.6v.11a5.48 5.48 0 01.57 0 3.68 3.68 0 01-.57-.11zm1.22-17.17a.5.5 0 010-.12 4.91 4.91 0 01-.67.06 4.76 4.76 0 01.67.06zm-9.95 99.27a5.48 5.48 0 01-.57.05 3.68 3.68 0 01.57.06zm9.95-81.98a.5.5 0 010-.12 4.91 4.91 0 01-.67.06 4.76 4.76 0 01.67.06zm8.6 64.98a5.05 5.05 0 01.67-.06 4.76 4.76 0 01-.65-.06.5.5 0 01-.02.12z"/><path class="cls-8" d="M431.18 327.32v.11a3.68 3.68 0 01.57-.06 5.48 5.48 0 01-.57-.05zm-1.1 113.08l-.57.2h5.15l-1.18-.39a1.91 1.91 0 01-.62-.33h-2a2 2 0 01-.78.52zm-7.63-100.12a3.68 3.68 0 01-.57.06 3.66 3.66 0 01.57.05zm19.24 43.43a4.76 4.76 0 01-.65-.06.5.5 0 010 .12 5.05 5.05 0 01.65-.06zm-.63-8.58a4.48 4.48 0 01.63-.06 4.76 4.76 0 01-.69-.07.5.5 0 010 .12zm.63 17.22a4.76 4.76 0 01-.65-.06.5.5 0 010 .12 5.05 5.05 0 01.65-.06zm-19.24-.22a3.68 3.68 0 01-.57.06 5.48 5.48 0 01.57.05zm8.74 4.43h-.01.01zm1.22-17.33h-.6a5.87 5.87 0 01.59 0s.01.02.01 0zm-9.96 4.26a3.66 3.66 0 01-.57.05 3.68 3.68 0 01.57.06zm8.73-47.49v.11a3.68 3.68 0 01.57-.06 3.66 3.66 0 01-.57-.05zm1.22 60.56zm-.71-17.33h-.5a2.94 2.94 0 01.5 0zm-9.24-4.38a5.48 5.48 0 01-.57 0 3.68 3.68 0 01.57.06zM441 435.61c.23 0 .45-.05.67-.05a4.76 4.76 0 01-.65-.06.36.36 0 01-.02.11zm-9.56-47.72h-.26z"/><path class="cls-8" d="M433.48 440.21l1.18.39h14.07l1.17-.39a2 2 0 00.63-.33h-17.67a1.91 1.91 0 00.62.33zm-.07-.81a3.83 3.83 0 01-.8.23h18.18a.86.86 0 00.18-.71h-16.36zm1.83-.73h15.64a1.62 1.62 0 00-1-.71H437zm4.76 3.68a5.5 5.5 0 003.31 0l4.61-1.5h-12.5zm1-6.57h2.21a5.48 5.48 0 00-1.52-.22c-.22 0-.44 0-.67.05-.02.06-.02.12-.02.17zm-3.36 1.93h11.51l-2.18-.71h-7.54l-1.79.71zm2.36-.96h6.17L444 436h-3.15a1.79 1.79 0 01-.85.75zm-4.7-6.75h14.88a1.87 1.87 0 00-.28-.16l-1.4-.56h-11.42zm5.6 4.82h3.53l1.78-.71h-6.07a1.65 1.65 0 01.76.71zm-3.72-1.93h12.06l.66-.26a1.75 1.75 0 00.67-.45H435.4zm-3.77-1.5l1.36.54h16a1.26 1.26 0 00.22-.71h-18.16a3.86 3.86 0 01.58.17zm6.17 2.47h7.25l1.78-.72H437.8l1.78.72zm-6.17-3.1a4.27 4.27 0 01-.72.21H451a1.44 1.44 0 00-.43-.71h-15.9zm7.59-3.64h2a4.55 4.55 0 00-1.27-.2 5.05 5.05 0 00-.67.06s-.06.09-.06.14z"/><path class="cls-8" d="M441 435.5a4.76 4.76 0 00.65.06 4.45 4.45 0 001.66-.31l.45-.18H441a1 1 0 010 .43zm-3.3-6.46h10.18l-1.78-.71h-6.61l-1.79.71zm2.37-.96h5.4l-1.78-.71h-2.81a1.79 1.79 0 01-.81.71zm.93-1.22a4.76 4.76 0 00.65.06 4.45 4.45 0 001.66-.31l.51-.2H441a1 1 0 010 .45zm-7.59-4.12l1.3.53h16.08a1.28 1.28 0 00.21-.72h-18.25a5 5 0 01.66.19zm0-.62a4.67 4.67 0 01-.64.18H451a1.35 1.35 0 00-.45-.71h-15.82zm7.59-3.67h1.88a4.75 4.75 0 00-1.19-.17 5.05 5.05 0 00-.67.06.36.36 0 01-.02.11zm-.89.97h5.3l-1.78-.72h-2.74a1.78 1.78 0 01-.78.72zm-4.75 1.92h14.78l-.24-.13-1.46-.58h-11.3zm5.53 4.82h3.59l1.79-.72h-6.17a1.65 1.65 0 01.79.72zm-1.36-.97h7.36l1.78-.71h-10.92l1.78.71zm-2.41-.96h12.18l.6-.24a2 2 0 00.7-.47h-15.26zm.64-3.85h10.06l-1.78-.71h-6.5l-1.78.71zm3.12-2.89h3.66l1.78-.71h-6.26a1.77 1.77 0 01.82.71zm-3.06-5.78h9.94l-1.78-.71h-6.38l-1.78.71zm-4.41 2.39l1.25.5h16.15a1.22 1.22 0 00.18-.71h-18.32a4.79 4.79 0 01.74.21zm3.65 1.46h12.29l.55-.21a2 2 0 00.72-.5h-15.34zm-3.65-2.08a5.15 5.15 0 01-.56.16H451a1.41 1.41 0 00-.47-.71h-15.74zm2-.8h14.69l-.2-.11-1.51-.61H437.2zm4.74-1.93h5.21l-1.79-.71h-2.67a1.67 1.67 0 01-.75.71zm-.68 5.78h7.48l1.78-.72h-11.04l1.78.72zm1.53-6.74h1.78a4.42 4.42 0 00-1.1-.15 5.05 5.05 0 00-.67.06.28.28 0 01-.01.09zm0 8.43a4.76 4.76 0 00.65.06 4.66 4.66 0 001.66-.31l.57-.23H441a1.12 1.12 0 010 .48zm0-8.64a4.76 4.76 0 00.65.06 4.66 4.66 0 001.66-.31l.63-.26h-3a1.11 1.11 0 01.06.51zm-1.59-1.72h7.6l1.78-.71h-11.16l1.78.71zm1.59-6.74h1.7a4.91 4.91 0 00-1-.13 3.81 3.81 0 00-.67.07.13.13 0 01-.03.06zm-.14 7.7h3.74l1.78-.71H440a1.81 1.81 0 01.86.71zm-2.98-5.77h9.82l-1.78-.71h-6.26l-1.78.71zm-4.47 2.41l1.19.48h16.22a1.24 1.24 0 00.17-.72h-18.42a4.76 4.76 0 01.84.24zm3.59 1.44h12.41l.49-.2a2 2 0 00.74-.51h-15.42zm-3.59-2.06a3.76 3.76 0 01-.48.13h18a1.46 1.46 0 00-.5-.71h-15.6zm2.06-.84h14.58a.71.71 0 00-.15-.08l-1.57-.63h-11.08zm4.73-1.91h5.1l-1.78-.72h-2.6a1.72 1.72 0 01-.72.72zm-7.8-5.52a4.27 4.27 0 011 .25l1.13.45h16.29a1.21 1.21 0 00.15-.71H432.4zm8.45 3.59h3.81l1.78-.71H440a1.78 1.78 0 01.85.71z"/><path class="cls-8" d="M441 400.94a4.74 4.74 0 00.65.05 4.45 4.45 0 001.66-.31l.68-.27h-3a1.19 1.19 0 01.01.53zm-1.65-1.74h7.71l1.79-.72h-11.28l1.78.72zm-2.35-.97h12.52l.43-.17a1.81 1.81 0 00.77-.54h-15.56zm3.24-4.81h5l-1.78-.71h-2.53a1.67 1.67 0 01-.69.71zm-6.83 2.78c-.13.05-.26.07-.4.11h17.93a1.44 1.44 0 00-.51-.71h-15.52zm8.28-3.85a5.05 5.05 0 00-.67.06h1.61a4.24 4.24 0 00-.94-.11zm-6.16 3H450a.6.6 0 00-.11-.06l-1.63-.66h-11zm2.41-.97h9.7l-1.78-.71h-6.14l-1.78.71zm-2.35-7.7H450h-.07l-1.69-.67h-10.87zm2.41-.96h9.59l-1.78-.71h-6.03l-1.78.71zm-5.6 2.2a4.28 4.28 0 011 .26l1.07.43h16.36a1.22 1.22 0 00.14-.72H432.4zm7.88-3.16h4.9l-1.78-.76h-2.46a1.61 1.61 0 01-.66.76zm-3.39 4.81h12.64l.37-.15a1.93 1.93 0 00.79-.56h-15.58z"/><path class="cls-8" d="M441 392.29a4.76 4.76 0 00.65.06 4.45 4.45 0 001.66-.31l.74-.3H441a1.16 1.16 0 010 .55zm-1-1.49a1.8 1.8 0 01.88.69h3.88l1.78-.71h-6.58zm-.71-.27h7.83l1.78-.71h-11.39l1.78.71zm-5.88-2.98c-.1 0-.21.06-.31.09h17.84a1.55 1.55 0 00-.53-.71H435zm8.28-3.84a5.05 5.05 0 00-.67.06h1.53a4.91 4.91 0 00-.86-.08zm-1.69-1.55a1.9 1.9 0 01.87.67h3.95l1.78-.71h-6.7zm1.69-7.09a4.48 4.48 0 00-.63.06h1.26a4.48 4.48 0 00-.63-.06zm-8.28 3.84l-.23.07h17.75a1.47 1.47 0 00-.55-.71H435zm-1.01.37a4.82 4.82 0 011 .25l1 .41h16.44a1.26 1.26 0 00.12-.71h-18.55s-.01.03-.01.05zm4.43 1.62h12.76l.31-.12a2 2 0 00.82-.59h-15.67zm2.41.97h7.94l1.78-.72h-11.51l1.79.72zm-1.19-4.82h9.48l-1.78-.71h-5.92l-1.78.71zm-2.4.95h14.28l-1.75-.7h-10.75z"/><path class="cls-8" d="M441 383.65a4.76 4.76 0 00.65.06 4.45 4.45 0 001.66-.31l.8-.32H441a1.13 1.13 0 010 .57zm-.68-7.56h4.8l-1.77-.71H441a1.65 1.65 0 01-.68.71zm-1.14-2.89h8.06l1.78-.71H437.4l1.78.71zm-5.77-2.93h-.15 17.66a1.54 1.54 0 00-.58-.71h-15.26zm2.29-.92h14.18l-1.78-.71h-10.61l-1.79.71zm5.99-2.92h-.37.75-.38zm-9.29 4.21a4.82 4.82 0 011 .25l1 .39h16.5a1.2 1.2 0 00.1-.72h-18.59s-.01.06-.01.08zm5.71-2.25h9.36l-1.78-.71h-5.8l-1.78.71zm2.26-.96h4.69l-1.71-.69H441a1.63 1.63 0 01-.63.69zm-3.6 4.81h12.87l.26-.1a1.94 1.94 0 00.83-.61H435zm3.23 1.27a1.87 1.87 0 01.85.65h4l1.78-.71h-6.83zm1 1.49a4.76 4.76 0 00.65.06 4.45 4.45 0 001.66-.31l.86-.35H441a1.26 1.26 0 010 .6zm-4.29-11.43h13l.2-.07a2 2 0 00.85-.64h-15.83zm4.29 2.8a4.76 4.76 0 00.65.06 4.66 4.66 0 001.66-.31l.92-.37h-3.33a1.21 1.21 0 01.1.62zm-1-1.5a1.94 1.94 0 01.84.63h4.09l1.78-.71h-6.93zm-.88-.33h8.18l1.78-.72h-11.74l1.78.72zm2.57-6.75zm-3.52 1.93h9.24l-1.78-.71h-5.68l-1.78.71zm-2.41.97h14.06l-1.78-.72h-10.5l-1.78.72zm-2.35.94h-.07 17.57a1.52 1.52 0 00-.61-.71h-15.16zm-1.01.37a4.27 4.27 0 011 .25l.9.36h16.57a1.24 1.24 0 00.09-.71h-18.54a.36.36 0 00-.02.1zm8.01-3.24H445l-1.66-.66-.17-.05H441a1.58 1.58 0 01-.59.71zm-4.59-6.74h13.94l-1.78-.71H437.6l-1.78.71zm4.18-1.65l-1.73.69h9.12l-1.78-.71H440zm.45-.27H445l-1.6-.64a2.41 2.41 0 00-.25-.08H441a1.53 1.53 0 01-.55.72zm-.45 6.13a2 2 0 01.83.6H445l1.78-.71h-7zm-.94-.36h8.3l1.78-.71h-11.86l1.78.71zm1.94 1.86a4.76 4.76 0 00.65.06 4.66 4.66 0 001.66-.31l1-.4h-3.41a1.24 1.24 0 01.1.65zm-4.34-2.82h13.1l.14-.06a1.79 1.79 0 00.86-.65h-15.89zm-4.24-1.67a.5.5 0 000 .12 4.27 4.27 0 011 .25l.84.34h16.64a1.19 1.19 0 00.07-.72h-18.55zm1-.24h17.47a1.53 1.53 0 00-.64-.71H435.2zm7.58-3.91a4.73 4.73 0 00.52 0h.26a4.39 4.39 0 001.53-.3l1-.41h-3.47a1.21 1.21 0 01.16.71zm-5.12-5.73h13.82l-1.78-.72h-10.26l-1.78.72zm4.12 4.23a2 2 0 01.81.58H445l1.78-.71h-7.16zm-7.58-2.99a.5.5 0 000 .12 4.27 4.27 0 011 .25l.78.31h16.72a1.23 1.23 0 000-.71h-18.29a1.52 1.52 0 00-.21.03zm1.05-.28h17.41a1.56 1.56 0 00-.67-.71h-15zm3.13 1.92h13.3a1.76 1.76 0 00.87-.68h-15.95zm3.4-4.52l-1.67.67h9l-1.79-.71H440zm.47-.29h4.42l-1.54-.62c-.11 0-.22-.06-.33-.09h-2a1.55 1.55 0 01-.55.71zm-1.47 5.78h8.41l1.78-.72h-11.97l1.78.72zm1-14.13l-1.62.65h8.9l-1.78-.71h-5.38zm-6.47 2.57h17.34a1.64 1.64 0 00-.7-.71h-14.86zM440 339a2 2 0 01.78.55h4.33l1.78-.71h-7.28zm1 1.44h1.04a4.5 4.5 0 001.27-.28l1.09-.44h-3.5a1.32 1.32 0 01.1.72zm-5.06-5.75h13.7l-1.78-.71h-10.14l-1.78.71zm3 3.85h8.53l1.78-.71h-12.09l1.78.71zm-6.52-2.54a.5.5 0 000 .12 4.28 4.28 0 011 .26l.72.29h16.79a1.27 1.27 0 000-.72h-18.22zm4.12 1.58h13.36a1.82 1.82 0 00.88-.7h-16zm3.95-4.81h4.34l-1.48-.6c-.13-.05-.28-.08-.42-.12H441a1.51 1.51 0 01-.51.72zm-8.07-5.46a.5.5 0 000 .12 4.82 4.82 0 011 .25l.66.27h16.86a1.23 1.23 0 000-.71h-18.15zm4.06 1.6h13.45a1.8 1.8 0 00.87-.71h-16.1zm4.04-4.81h4.25l-1.42-.57a4.1 4.1 0 00-.5-.14H441a1.41 1.41 0 01-.48.71zm-6.93 2.9h17.27a1.62 1.62 0 00-.73-.71h-14.76zm5.3 2.88h8.64l1.78-.72h-12.2l1.78.72zm-2.89-3.85h13.58l-1.78-.72h-10.02l-1.78.72zm4 4.28a1.91 1.91 0 01.76.53h4.4l1.79-.71h-7.4zm1 1.49h1.29a4.35 4.35 0 001-.25l1.15-.46h-3.61a1.29 1.29 0 01.17.71zm-1-7.36l-1.56.62h8.78l-1.78-.71h-5.28a.83.83 0 01-.16.09zm-1.17-3.23h10.22l.85-.26a2 2 0 00.81-.45h-13.66zm1.17.45a1.94 1.94 0 01.73.51h5.25l2.3-.71h-8.79zm-5.88-3.06l-.71.23a1.82 1.82 0 00-.28.13c.1 0 .2 0 .3.08l.61.25h16.73a1.87 1.87 0 00-.85-.49l-.72-.23h-15zm6.93 4.54h1.59a5.62 5.62 0 00.71-.16l1.78-.56h-4.26a1.33 1.33 0 01.18.72zm-4.63-2.89h14.47a.75.75 0 000-.71h-16.25zm3.58-3.49l-1.93.6h7.16l-1.92-.6a4.36 4.36 0 00-.52-.11h-2.27a4 4 0 00-.52.11zm-4.99 1.56h13.37l-2.3-.71h-8.77l-2.3.71zm-.24 113.61l-1.36-.54a3.86 3.86 0 00-.58-.17h-1.67a1.31 1.31 0 01-.32.71zm4.81 1.93l-1.78-.72h-9.42l-1.78.72h12.98zm-9.5-1.4l-1.08.43h8.18l-1.78-.71h-4.82a2 2 0 01-.5.28zm.98 7.17h1.55a3.83 3.83 0 00.8-.23l1.2-.48h-3.47a1 1 0 01-.08.71zm8.94-2.88a1.79 1.79 0 00.84-.72h-16.3l2 .72zm.9-1.93a1.65 1.65 0 00-.76-.71H426l-1.78.71zm-3.26 2.89l1.79-.71h-12.11l2.03.71h8.29zm-15.19-2.37v.1a4.83 4.83 0 011.08.23l.33.11H441v-.17a.36.36 0 000-.11 1 1 0 000-.43h-17.47a4 4 0 01-1.08.27zm8.55 3.33h4.22L437 438h-6.94a1.75 1.75 0 01.94.67zm1.69-7.67a4.27 4.27 0 00.72-.21l1.26-.5h-3.79a1.23 1.23 0 01.29.71zm7.38-2.92a1.79 1.79 0 00.81-.71h-16.59l1.78.71zm-17.62-1.38v.11a4.35 4.35 0 011.08.25l.14.06H441v-.14a.5.5 0 000-.12 1 1 0 000-.45h-17.47a4.37 4.37 0 01-1.08.29zm7.63-2.88l-1 .41h8.06l-1.78-.71h-4.73a2.23 2.23 0 01-.55.3zm9.45 1.37l-1.78-.71h-9.31l-1.79.71h12.88zm1.36.97a1.65 1.65 0 00-.79-.72H426l-1.78.72zm-6.18-2.89l-1.3-.53a5 5 0 00-.66-.19h-1.58a1.4 1.4 0 01-.31.72zm2.99 5.77l1.79-.71H426.7l1.78.71h9.22zm-7.08.96h4.68l1.78-.72h-8l1 .4a1.68 1.68 0 01.54.32zm4.04-15.4l-1.25-.5a4.79 4.79 0 00-.74-.21h-1.5a1.32 1.32 0 01-.28.71zm-4.58.58l-1 .38h7.94l-1.78-.71h-4.65a2 2 0 01-.51.33zm7.68 5.2l1.78-.71h-12.9l1.78.71h9.34zm-15.31-2.32v.1a4.87 4.87 0 011.08.26H441a.36.36 0 000-.11.5.5 0 000-.12 1.12 1.12 0 000-.48h-17.32l-.15.06a4.37 4.37 0 01-1.08.29zm8.15 3.28h4.76l1.78-.71H429l1 .41a2.15 2.15 0 01.6.3zm9.51-1.92a1.78 1.78 0 00.78-.72h-16.66l1.78.72zm-7.34 2.88a4.67 4.67 0 00.64-.18l1.32-.53h-3.87a1.27 1.27 0 01.3.71zm8.11-4.81a1.77 1.77 0 00-.82-.71h-14l-1.78.71zm-1.41-.96l-1.78-.72h-9.2l-1.78.72h12.76zm-.06-8.67l-1.78-.71h-9.08l-1.78.71h12.64zm1.45.96a1.81 1.81 0 00-.85-.71h-13.86l-1.78.71zm-10.78-2.28l-.9.36H437l-1.78-.71h-4.57a2.22 2.22 0 01-.57.35zm.5 6.14h4.83l1.79-.72H429l1.09.44a2.17 2.17 0 01.49.28zm4.02-6.74l-1.19-.48a4.76 4.76 0 00-.84-.24h-1.4a1.25 1.25 0 01-.26.72zm3.22 5.77l1.78-.71h-13.02l1.78.71h9.46zm-4.97 1.93a5.15 5.15 0 00.56-.16l1.38-.55h-4a1.29 1.29 0 01.33.71zm-10.4-4.22v.1a4.37 4.37 0 011.08.26H441a.28.28 0 000-.09.5.5 0 000-.12 1.11 1.11 0 00-.05-.51h-17.21l-.21.09a4.37 4.37 0 01-1.08.27zm17.7 1.33a1.67 1.67 0 00.75-.71h-16.73l1.79.71zm.7-10.59a1.78 1.78 0 00-.88-.71H426.2l-1.78.71zm-2.97 2.89l1.78-.71h-13.14l1.78.71h9.58zm2.32-.96a1.72 1.72 0 00.72-.72h-16.8l1.78.72zm-7.27 2.91a3.76 3.76 0 00.48-.13l1.44-.58h-4a1.36 1.36 0 01.35.71zm-2.39-1h4.93l1.78-.71h-8.32l1.15.46a2.21 2.21 0 01.46.25zm.38-6.73h3.62l-1.13-.45a4.27 4.27 0 00-1-.25h-1.22a1.29 1.29 0 01-.27.7zm8.43 1.93l-1.78-.72h-8.96l-1.78.72h12.52zm-9.27-1.3l-.84.33H437l-1.79-.71h-4.48a1.87 1.87 0 01-.65.38zm-7.63 2.88v.1a4.54 4.54 0 011 .24H441a.13.13 0 000-.06.5.5 0 000-.12 1.19 1.19 0 00-.05-.53H423.8l-.27.11a4.87 4.87 0 01-1.08.26zm8.49-12.17h3.54l-1.07-.43a4.28 4.28 0 00-1-.26h-1.22a1.31 1.31 0 01-.25.69zm-.86.64l-.79.32h7.6l-1.78-.71h-4.41a1.88 1.88 0 01-.62.39zm10.16 4.17a1.67 1.67 0 00.69-.71h-16.87l1.78.71zm-2.3.96l1.78-.71h-13.26l1.79.71h9.69zm2.9-2.89a1.8 1.8 0 00-.88-.69h-13.7l-1.78.71zm-7.84 4.82c.14 0 .27-.06.4-.11l1.5-.6h-4.12a1.31 1.31 0 01.36.71zm6.29-5.78l-1.78-.71h-8.84l-1.78.71h12.4zm-8.79 4.82h5l1.78-.72h-8.44l1.21.49a1.88 1.88 0 01.45.23zm-8.05-3.22v.11a4.51 4.51 0 01.95.22H441a.5.5 0 000-.12 1.16 1.16 0 00-.07-.55h-17.07l-.33.13a4 4 0 01-1.08.21zm16.79-10.26l-1.79-.72h-8.72l-1.78.72h12.29zm-8.78 4.81h5.13l1.78-.71h-8.56l1.27.51a1.94 1.94 0 01.38.2zm10.37-3.85a1.9 1.9 0 00-.87-.67h-13.64l-1.78.71zm-10.75-2.22l-.73.29h7.48l-1.78-.71h-4.32a2.09 2.09 0 01-.65.42zm3.02 7.03c.1 0 .21-.05.31-.09l1.55-.62h-4.2a1.44 1.44 0 01.39.71zm-2.1-7.7h3.47l-1-.41a4.82 4.82 0 00-1-.25 5.87 5.87 0 00-.59 0h-.12a2.94 2.94 0 00-.51 0 1.28 1.28 0 01-.25.66zm9.28 4.82a1.61 1.61 0 00.66-.72H424l1.78.72zm-2.28.96l1.78-.71h-13.37l1.78.71H438z"/><path class="cls-8" d="M422.45 383.49v.11a4.27 4.27 0 01.86.19H441a.5.5 0 000-.12 1.13 1.13 0 00-.08-.57h-17l-.39.15a4 4 0 01-1.08.24zm8.73-12.86a1.33 1.33 0 01-.22.65h3.41l-1-.39a4.82 4.82 0 00-1-.25 4.76 4.76 0 00-.65-.06 5.48 5.48 0 00-.54.05zm2 8.37l.23-.07 1.61-.64h-4.28a1.4 1.4 0 01.41.71zm-3.1-7l-.67.27h7.36l-1.78-.71h-4.24a1.86 1.86 0 01-.67.44zm9.1 1.2l-1.78-.71h-8.61l-1.79.71h12.18zm1.63.96a1.87 1.87 0 00-.85-.65l-.16-.06h-13.42l-1.78.71zm-.49 1.93a1.65 1.65 0 00.64-.71h-17l1.78.71zm-17.87-1.24v.15a4 4 0 01.78.17H441a.5.5 0 000-.12 1.26 1.26 0 00-.09-.6H424l-.44.18a4.37 4.37 0 01-1.11.22zm7.96 3.15h5.24l1.78-.72h-8.68l1.33.54a1.48 1.48 0 01.33.18zm7.64-.95l1.78-.71h-13.48l1.78.71h9.92zm-6.05-6.49h-.4.2zm-1.63-1.21h5.34l1.78-.71h-8.79l1.38.55c.11.05.2.11.29.16zm-.29-6.02l-.61.24h7.24l-1.78-.71h-4.16a1.91 1.91 0 01-.69.47zm3.18 6.98h.15l1.67-.67h-4.37a1.41 1.41 0 01.43.71zm7.54-4.81a1.94 1.94 0 00-.84-.63l-.22-.08h-13.3l-1.78.71zm-2.69 2.89l1.78-.71h-13.6l1.78.71h10.04zm-15.66-2.18v.1a4.15 4.15 0 01.7.15H441v-.09a1.21 1.21 0 00-.1-.62H424l-.5.2a4.37 4.37 0 01-1.05.26zm17.92 1.22a1.63 1.63 0 00.6-.72h-17.09l1.78.72zm-1.25-2.89l-1.78-.72h-8.5l-1.78.72h12.06zm-7.94-2.54a1.18 1.18 0 01-.21.62h3.34l-.9-.36a4.27 4.27 0 00-1-.25 4.76 4.76 0 00-.65-.06 5.48 5.48 0 00-.58.05zm2.16-.35h.07l1.73-.69h-4.45a1.48 1.48 0 01.45.71zm-3.01-.96h5.43l1.78-.72h-8.9l1.44.58a1.48 1.48 0 01.25.14zm8.73-4.82l-1.78-.71h-8.38l-1.78.71h11.94zm-7.88-2.52a1.32 1.32 0 01-.19.6h3.26l-.84-.34a4.27 4.27 0 00-1-.25 4.76 4.76 0 00-.65-.06 5.48 5.48 0 00-.58.05zm1.02 8.55h-.9.45c.15 0 .3.01.45 0zm-2.12-7.21l-.55.22h7.13l-1.79-.71h-4.07a2.07 2.07 0 01-.72.49zm10.71 2.14a2 2 0 00-.83-.6l-.27-.11H426.5l-1.79.71zm-.38 1.93a1.58 1.58 0 00.57-.71h-17.15l1.78.71zm-2.24.96l1.78-.71h-13.72l1.78.71h10.16zm-15.72-2.15v.1a4.26 4.26 0 01.62.13h18v-.07a1.24 1.24 0 00-.12-.65h-16.86l-.56.23a4.37 4.37 0 01-1.08.26zm7.84-5.57h5.53l1.78-.71h-9l1.5.6a1.39 1.39 0 01.19.11zm1.46 1.3a4.91 4.91 0 00.67-.06h-1.24a5.48 5.48 0 00.57.06zm1.67-.3l1.78-.71h-4.53a1.43 1.43 0 01.46.71zm4.81-1.94l1.73-.69h-13.79l1.78.71zm-8.15-5.06l-.5.2h7l-1.78-.71h-4a1.87 1.87 0 01-.72.51zm8.92 1.21l-1.78-.72h-8.26l-1.78.72H439zm-7.82-2.5a1.31 1.31 0 01-.18.57h3.19l-.78-.31a4.27 4.27 0 00-1-.25 4.76 4.76 0 00-.65-.06 5.48 5.48 0 00-.58.05zm9.27 5.39a1.53 1.53 0 00.54-.72h-17.22l1.78.72zm-18-1.18v.08a5.12 5.12 0 01.54.1H441a1.21 1.21 0 00-.13-.67h-16.72l-.62.25a4.35 4.35 0 01-1.08.24zm18.32-.75a2 2 0 00-.81-.58l-.33-.13h-13.08l-1.78.71zm-9.02-3.51a4.91 4.91 0 00.67-.06 1.52 1.52 0 01.21 0h-1.46a3.68 3.68 0 00.58.06zm7.19-6.12l-1.78-.71h-8.14l-1.78.71h11.7zm-16.49 1.74v.11a3.69 3.69 0 01.46.08H441a1.32 1.32 0 00-.14-.69h-16.65l-.68.27a4 4 0 01-1.08.23zm18.29-.78a2 2 0 00-.74-.5l-.39-.16h-13l-1.78.71zm-10.66-2.1l-.44.18h6.9l-1.78-.71h-3.91a2 2 0 01-.77.53zm1.1-1.33a1.26 1.26 0 01-.17.55h3.12l-.72-.29a4.28 4.28 0 00-1-.26 4.76 4.76 0 00-.65-.06 3.68 3.68 0 00-.58.06zm2.29 8.25l1.78-.71h-4.61a1.46 1.46 0 01.49.71zm7-2.89a1.55 1.55 0 00.53-.71h-17.29l1.78.71zm-10.23 1.93h5.64l1.78-.72h-9.14l1.56.63a.83.83 0 01.16.09zm8.05-.97l1.67-.67h.08-13.93l1.79.71zm.6-12.51l-1.78-.72h-8.03l-1.78.72h11.59zm-5.36 5.77l1.78-.71h-4.69a1.55 1.55 0 01.51.71zm-1.78.35a3.71 3.71 0 00.67-.06l.29-.05h-1.54v.06a3.66 3.66 0 00.58.05zm-9.3-4.36v.11l.38.05H441a1.29 1.29 0 00-.15-.71h-16.59l-.73.29a4 4 0 01-1.08.26zm7.75 3.05h5.74l1.78-.71h-9.26l1.62.65a.45.45 0 01.12.06zm10.52-3.85a1.91 1.91 0 00-.76-.53l-.45-.18h-12.84l-1.78.71zm-.23 1.93a1.51 1.51 0 00.51-.72h-17.35l1.78.72zm-10.41-4.01l-.38.15h6.78l-1.78-.71h-3.83a1.84 1.84 0 01-.79.56zm1.1-1.33a1.26 1.26 0 01-.16.52h3.05l-.66-.27a4.82 4.82 0 00-1-.25 4.76 4.76 0 00-.65-.06 3.68 3.68 0 00-.58.06zm7.16 6.3l1.62-.65.12-.06h-14l1.78.71zm2.35-11.56a1.94 1.94 0 00-.73-.51l-.51-.2h-12.72l-1.78.71zm-8.94 5.2a4.91 4.91 0 00.67-.06l.37-.07h-1.63a.24.24 0 010 .08 5.48 5.48 0 00.59.05zm-9.3-4.37v.1h18.6a1.33 1.33 0 00-.18-.72h-16.55l-.79.32a4.37 4.37 0 01-1.08.3zm11.14 4l1.78-.71h-4.78a1.42 1.42 0 01.53.71zm-2.46-8a1.52 1.52 0 01-.09.25h3l-.61-.25c-.1 0-.2-.05-.3-.08h-.11a5.57 5.57 0 01-1.89.08zm-1.05 1.12l-.32.13h6.66l-1.78-.71h-3.75a1.88 1.88 0 01-.81.58zm8.75 1.09l-1.78-.71h-7.92l-1.78.71h11.48zm-8.67 4.79H436l1.78-.72h-9.38l1.68.68zm10.36-1.9a1.41 1.41 0 00.48-.71h-17.41l1.78.71zm-2.12.96l1.56-.62a.83.83 0 00.16-.09H426l1.78.71zm-13.08-9.62H441a1.42 1.42 0 00-1.08-1l-6.55-2.14a5.53 5.53 0 00-3.32 0l-6.55 2.14a2.1 2.1 0 00-.4.18c.13 0 .27.06.39.11zm4.8 1.92h7.79l2-.67h.1-11.66l1.73.69zm-4.18-1.67l1.78.71h12.82a1.18 1.18 0 00.5-.71z"/><path class="cls-8" d="M431.13 319a5.57 5.57 0 001.87-.11 2.48 2.48 0 00.39-.1l.71-.23h.08-3a1.23 1.23 0 01-.05.44zm3.87-.68l2.19-.71h-6.58a1.53 1.53 0 01.55.71zm-6 114.57l1.08-.43a2 2 0 00.5-.28h-17.41a2 2 0 00.5.28l1.08.43zm1.84-.96a1.31 1.31 0 00.32-.71h-18.57a1.31 1.31 0 00.32.71zm-7.31 3.15h-3.31a4.45 4.45 0 001.66.31 3.66 3.66 0 00.57-.05 4 4 0 001.08-.26zm3.07-1.22l1.78-.72h-13.01l1.78.72h9.45zm-2.41.96l1.78-.71h-8.19l1.78.71h4.63zm1.88-6.74l-1.78-.71h-4.83l-1.78.71h8.39zm2.41.96l-1.78-.71h-9.65l-1.78.71h13.21zm2.69 1.96a1.23 1.23 0 00-.29-.71h-18a1.23 1.23 0 00-.29.71zm-7.5-3.88l-.14-.06a4.35 4.35 0 00-1.08-.25 3.68 3.68 0 00-.57-.06 4.66 4.66 0 00-1.66.31l-.14.06zm6.95 2.88a1.68 1.68 0 00-.54-.32l-1-.4h-14.43l-1 .4a1.68 1.68 0 00-.54.32zm-.54 10.4a2 2 0 00.82-.52h-18a2 2 0 00.82.52l.57.2h15.27zm-9.86 2.29a5.07 5.07 0 003.31 0l5.27-1.84H415zm10.84-3.06a1 1 0 00.08-.71h-18.53a1 1 0 00.08.71zm-4.45-2.88l-2.04-.72h-5.39l-2.04.72h9.47zm2.74.96l-2.03-.71h-10.89l-2.03.71h14.95z"/><path class="cls-8" d="M423.86 435.78l-.33-.11a4.83 4.83 0 00-1.08-.23 5.48 5.48 0 00-.57-.05 5.12 5.12 0 00-1.66.28l-.33.11zm7.14 2.89a1.75 1.75 0 00-.94-.71h-16.39a1.75 1.75 0 00-.94.71zm-7.47-12.23h.09-3.49.09a4.45 4.45 0 001.66.31 5.48 5.48 0 00.57-.05 4.37 4.37 0 001.08-.26zm5.53-2.21l1-.41a2.23 2.23 0 00.53-.3h-17.45a2.23 2.23 0 00.53.3l1 .41zm-2.41.96l1.79-.71h-13.13l1.79.71h9.55zm4.21-1.92a1.4 1.4 0 00.31-.72h-18.59a1.4 1.4 0 00.31.72zm-6.61 2.88l1.78-.71h-8.31l1.78.71h4.75zm6.91-3.85a1.27 1.27 0 00-.3-.71h-18a1.27 1.27 0 00-.3.71zm-5.15-2.88l-1.78-.72h-4.71l-1.78.72h8.27zm2.41.96l-1.78-.71h-9.53l-1.78.71h13.09zm2.18.96a2.15 2.15 0 00-.52-.3l-1-.41h-14.37l-1 .41a2.36 2.36 0 00-.52.3zm-6.99-2.89h-.08a4.87 4.87 0 00-1.08-.26 5.48 5.48 0 00-.57-.05 4.66 4.66 0 00-1.66.31h-.08zm.7-.96l1.78-.71h-8.43l1.78.71h4.87zm2.4-.96l1.78-.72h-13.23l1.78.72h9.67zm4.18-1.93a1.32 1.32 0 00.28-.71h-18.59a1.32 1.32 0 00.28.71zm-7.36 3.2l.15-.06h-3.61l.15.06a4.45 4.45 0 001.66.31 5.48 5.48 0 00.57-.05 4.37 4.37 0 001.08-.26zm5.59-2.24l1-.38a2 2 0 00.55-.33h-17.55a2 2 0 00.55.33l1 .38zm-5.57-5.77a4.37 4.37 0 00-1.08-.26 5.48 5.48 0 00-.57 0 4.45 4.45 0 00-1.66.31h3.33zm2.41.96l-1.78-.71h-4.6l-1.78.71h8.16zm4.62 1.93a2.17 2.17 0 00-.5-.28L429 412h-14.24l-1.09.44a2.4 2.4 0 00-.5.28zm.58.96a1.29 1.29 0 00-.33-.71h-17.91a1.29 1.29 0 00-.33.71zm-2.8-1.93l-1.78-.71h-9.41l-1.78.71h12.97zm-4.83-2.55l.21-.09H420l.21.09a4.45 4.45 0 001.66.31 5.48 5.48 0 00.57-.05 4.37 4.37 0 001.09-.26zm.84-.34l1.78-.71h-8.55l1.78.71h4.99zm2.4-.96l1.78-.71H415.2l1.78.71h9.79zm4.14-1.92a1.25 1.25 0 00.26-.72h-18.59a1.25 1.25 0 00.26.72zm-1.73.96l.9-.36a2.22 2.22 0 00.57-.35H413.1a2.22 2.22 0 00.57.35l.9.36zm1.36-2.9a2.21 2.21 0 00-.46-.25l-1.15-.46h-14.11l-1.15.46a2.21 2.21 0 00-.46.25zm-4.64-1.91l-1.78-.72h-4.49l-1.78.72h8.05zm-2.42-.97a4.54 4.54 0 00-1-.24 5.48 5.48 0 00-.57-.05 4.63 4.63 0 00-1.61.29zm4.82 1.93l-1.78-.71h-9.29l-1.78.71h12.85zm2.86 1.95a1.36 1.36 0 00-.35-.71h-17.87a1.36 1.36 0 00-.35.71zm-7.63-4.48l.27-.11H420l.27.11a4.66 4.66 0 001.66.31 5.48 5.48 0 00.57-.05 4.87 4.87 0 001.03-.26zm7.39-3.25a1.29 1.29 0 00.26-.71h-18.61a1.29 1.29 0 00.26.71zm-6.5 2.89l1.78-.71h-8.65l1.78.71h5.09zm4.82-1.93l.84-.33a1.87 1.87 0 00.6-.38h-17.61a2 2 0 00.6.38l.85.33zm-2.41.97l1.78-.72h-13.47l1.78.72h9.91zm-3.43-6.74a4.51 4.51 0 00-.95-.22 5.48 5.48 0 00-.57-.05 4.31 4.31 0 00-1.52.27zm4.85 1.92l-1.79-.71h-9.17l-1.79.71h12.75zm2.25.97a1.88 1.88 0 00-.42-.23l-1.21-.49h-14l-1.21.49a1.88 1.88 0 00-.42.23zm-4.66-1.93l-1.78-.71h-4.37l-1.78.71h7.93zm5.31 2.89a1.31 1.31 0 00-.36-.71H413a1.26 1.26 0 00-.37.71zm-6.67-4.81l1.78-.72h-8.77l1.78.72h5.21zm2.41-.97l1.78-.71h-13.59l1.78.71h10.03z"/><path class="cls-8" d="M423.53 391.87l.33-.13h-4l.33.13a4.46 4.46 0 001.66.32 3.68 3.68 0 00.57-.06 4 4 0 001.11-.26zm5.76-2.3l.79-.32a1.88 1.88 0 00.62-.39h-17.65a2 2 0 00.62.39l.79.32zm1.65-.96a1.31 1.31 0 00.24-.69h-18.61a1.32 1.32 0 00.24.72zm-5.16-3.85l-1.78-.72h-4.25l-1.78.72h7.81zm2.41.96l-1.78-.71h-9.06l-1.79.71h12.63zm-4.88-1.93a4.27 4.27 0 00-.86-.19 3.68 3.68 0 00-.57-.06 4.63 4.63 0 00-1.44.25zm7.84 3.85a1.44 1.44 0 00-.39-.71H413a1.44 1.44 0 00-.39.71zm-.69-.96a1.94 1.94 0 00-.38-.2l-1.27-.51h-13.87l-1.27.51a2.28 2.28 0 00-.38.2zm-6.93-3.45l.39-.15h-4.08l.38.15a4.45 4.45 0 001.66.31 3.66 3.66 0 00.57-.05 4 4 0 001.08-.26zm1.01-.4l1.78-.71h-8.89l1.78.71h5.33zm4.81-1.93l.73-.29a2.09 2.09 0 00.65-.42H413a2.21 2.21 0 00.65.42l.73.29zm-2.4.97l1.78-.72h-13.71l1.79.72h10.14zm4.05-1.93a1.28 1.28 0 00.23-.66h-18.67a1.34 1.34 0 00.24.71zm.15-.94a1.4 1.4 0 00-.41-.71H413a1.31 1.31 0 00-.4.71zm-7.92-3.87a4 4 0 00-.78-.17 3.68 3.68 0 00-.57-.06 4.41 4.41 0 00-1.36.23zm2.49.96l-1.78-.71h-4.13l-1.78.71h7.69zm4.69 1.91a1.48 1.48 0 00-.33-.18l-1.33-.54H415l-1.33.54a1.48 1.48 0 00-.33.18zm-2.28-.95l-1.78-.71h-8.95l-1.78.71h12.51zm-3.53-2.88l1.78-.72h-9.01l1.78.72h5.45zm6.4-2.89a1.33 1.33 0 00.22-.65v-.07h-18.65a1.22 1.22 0 00.22.72zm-4 1.92l1.79-.71h-13.83l1.79.71H427z"/><path class="cls-8" d="M423.53 374.59l.44-.18h-4.19l.44.18a4.45 4.45 0 001.66.31 5.48 5.48 0 00.57 0 4.37 4.37 0 001.08-.31zm5.88-2.35l.67-.27a1.86 1.86 0 00.67-.44H413a2 2 0 00.67.44l.67.27zm1.73-1.93a1.41 1.41 0 00-.43-.71H413a1.41 1.41 0 00-.43.71zm-3.07-1.92l-1.78-.71h-8.83l-1.78.71h12.39zm-4.92-1.93a4.15 4.15 0 00-.7-.15 5.48 5.48 0 00-.57-.05 4.56 4.56 0 00-1.28.2zm2.52.97l-1.79-.72h-4.01l-1.78.72h7.58zm4.7 1.92c-.09-.05-.18-.11-.29-.16l-1.38-.55h-13.64l-1.39.55c-.11.05-.2.11-.29.16zm-.9-5.78l.61-.24a1.91 1.91 0 00.69-.47H413a1.91 1.91 0 00.69.47l.61.24zm1.53-.96a1.18 1.18 0 00.21-.62v-.09h-18.64a1.25 1.25 0 00.21.71zm-6.34 2.89l1.78-.71h-9.13l1.78.71h5.57zm2.4-.96l1.78-.72h-13.93l1.78.72h10.37z"/><path class="cls-8" d="M423.53 366l.5-.2h-4.31l.5.2a4.45 4.45 0 001.66.31 5.48 5.48 0 00.57-.05 4.37 4.37 0 001.08-.26zm7.61-4.35a1.48 1.48 0 00-.45-.71h-17.63a1.48 1.48 0 00-.45.71zm-3.13-1.93l-1.78-.71h-8.71l-1.78.71h12.27zm-2.4-.96l-1.79-.71h-3.89l-1.79.71h7.47zm-2.54-.96a4.26 4.26 0 00-.62-.13 5.48 5.48 0 00-.57-.05 4.41 4.41 0 00-1.2.18zm7.26 2.89a1.48 1.48 0 00-.25-.14l-1.44-.58h-13.53l-1.44.58a1.48 1.48 0 00-.25.14zM431 354a1.32 1.32 0 00.19-.6v-.12h-18.6a1.25 1.25 0 00.18.72zm-1.47.91l.55-.22a2.07 2.07 0 00.72-.49H413a2.07 2.07 0 00.72.49l.55.22zm-2.41.96l1.78-.71h-14.05l1.78.71h10.49zm-2.41.96l1.79-.71h-9.25l1.79.71h5.67zm-1.18.48l.56-.23h-4.43l.56.23a4.45 4.45 0 001.66.31 5.48 5.48 0 00.57-.05 4.37 4.37 0 001.08-.26zm7.6-4.31a1.43 1.43 0 00-.46-.71h-17.58a1.39 1.39 0 00-.47.71zm-8.13-3.87a5.12 5.12 0 00-.54-.1 5.48 5.48 0 00-.57 0 4.65 4.65 0 00-1.12.15zm4.95 1.93l-1.78-.71h-8.59l-1.78.71h12.15zm-2.4-.96l-1.78-.72h-3.79l-1.78.72h7.35zm4.74 1.9a1.39 1.39 0 00-.21-.11l-1.5-.6h-13.41l-1.5.6a1 1 0 00-.2.11zm-3.11-4.79l1.78-.72h-14.17l1.78.72h10.61zm3.82-1.93a1.31 1.31 0 00.18-.57v-.11h-18.6a1.23 1.23 0 00.17.71zm-6.23 2.89l1.78-.71h-9.35l1.78.71h5.79zm-1.24.5l.62-.25h-4.55l.62.25a4.66 4.66 0 001.66.31 3.68 3.68 0 00.57-.06 4.35 4.35 0 001.08-.25zm6.05-2.43l.5-.2a1.87 1.87 0 00.74-.51h-17.89a1.87 1.87 0 00.74.51l.5.2zm-4.09-4.81l-1.78-.71h-3.67l-1.78.71h7.23zm5.64 2.89a1.46 1.46 0 00-.49-.71h-17.53a1.46 1.46 0 00-.49.71zm-8.22-3.85a6.14 6.14 0 00-1-.13 4.49 4.49 0 00-1 .13zm4.99 1.92l-1.78-.71h-8.48l-1.79.71h12.05zm2.34.97a.83.83 0 00-.16-.09l-1.56-.63h-13.29l-1.56.63a.83.83 0 00-.16.09zm-5.41-3.86l1.78-.71h-9.47l1.78.71h5.91zm-1.3.5l.68-.27h-4.67l.68.27a4.46 4.46 0 001.66.32 3.68 3.68 0 00.57-.06 4 4 0 001.08-.26zm7.47-3.38a1.26 1.26 0 00.17-.55v-.13h-18.59a1.23 1.23 0 00.16.72zm-1.36.96l.44-.18a2 2 0 00.77-.53h-18a2 2 0 00.77.53l.44.18zm-2.4.96l1.78-.71h-14.29l1.78.71h10.73zm.6-4.81l-1.78-.72h-8.37l-1.78.72h11.93zm-5.01-1.93l-.38-.05a3.68 3.68 0 00-.57-.06 5 5 0 00-1 .11zm7.37 2.89a.45.45 0 00-.12-.06l-1.62-.65h-13.17l-1.62.65a.45.45 0 00-.12.06zm-4.77-1.93l-1.78-.71h-3.55l-1.78.71h7.11zm5.7 2.89a1.55 1.55 0 00-.51-.71h-17.49a1.53 1.53 0 00-.5.71z"/><path class="cls-8" d="M423.53 331.38l.73-.29h-4.77l.73.29a4.45 4.45 0 001.66.31 3.66 3.66 0 00.57-.05 4 4 0 001.08-.26zm3.77-1.5l1.78-.72h-14.41l1.79.72h10.84zm2.4-.97l.38-.15a1.84 1.84 0 00.79-.56h-18a1.84 1.84 0 00.79.56l.38.15zm1.3-.91a1.26 1.26 0 00.16-.52v-.11a.24.24 0 000-.08h-18.57a1.2 1.2 0 00.14.71zm-6.11 2.84l1.78-.71h-9.59l1.78.71h6.03zm6.23-3.84a1.42 1.42 0 00-.53-.71h-17.43a1.48 1.48 0 00-.53.71zm-8.37-3.86h-.3a5.48 5.48 0 00-.57-.05 4.31 4.31 0 00-.88.09zm5.03 1.92l-1.78-.71h-8.25l-1.78.71h11.81zm-2.41-.96l-1.78-.71h-3.43l-1.78.71h6.99zm4.79 1.9h-.08l-1.68-.68h-13l-1.68.68h-.08zm-5.21-3.82l1.78-.72h-9.71l1.78.72h6.15zm2.4-.97l1.78-.71h-14.51l1.78.71h10.95zm2.41-.96l.32-.13a1.88 1.88 0 00.81-.58h-18a1.88 1.88 0 00.81.58l.32.13zm-6.23 2.49l.79-.32h-4.89l.79.32a4.45 4.45 0 001.66.31 5.48 5.48 0 00.57-.05 4.37 4.37 0 001.08-.26zm7.47-3.45a1.52 1.52 0 00.09-.25 1.23 1.23 0 000-.47h-18.5a1.28 1.28 0 00.12.72zm-5.68-3.85l-1.79-.72c-.12-.05-.26-.07-.39-.11a4.56 4.56 0 00-2.92.11l-1.79.72zm2.4.96l-1.78-.71h-8.13l-1.78.71h11.69zm2.4.96l-1.73-.69h-13l-1.73.69zm1 .96a1.53 1.53 0 00-.55-.71h-17.39a1.6 1.6 0 00-.55.71z"/></g><path class="cls-6" transform="rotate(-5.81 339.281 324.043)" d="M310 321.81h57.95v4H310z"/><path class="cls-6" transform="rotate(-5.81 337.218 329.668)" d="M305.9 327.35h62.06v4H305.9z"/><path class="cls-6" transform="rotate(-84.19 461.983 323.82)" d="M460.02 294.84h4v57.95h-4z"/><path class="cls-6" transform="rotate(-84.19 464.028 329.356)" d="M462.06 298.33h4v62.06h-4z"/><path class="cls-6" d="M370.38 336.32l-.38-20.57-6.07 2s-11.46 28.46 14.07 33.68c20.37 4.17 22 3.69 22 3.69V349l-19.88-4.18zm65.69-18.56l-6.07-2-.38 20.57-9.74 8.54L400 349v6.08s1.65.48 22-3.69c25.53-5.18 14.07-33.63 14.07-33.63z"/><g id="brand-adidas"><g id="adidas"><rect id="bottom" class="cls-6" x="364.51" y="367.84" width="14.43" height="2.04" rx=".62" ry=".62"/><path class="cls-6" d="M371.79 359.57a1.26 1.26 0 00-.46 1.72l3 5.15a1.26 1.26 0 001.1.64h2.21l-4.11-7.08a1.27 1.27 0 00-1.74-.43zm-2.53 2.56a1.26 1.26 0 00-.47 1.71l1.45 2.59a1.28 1.28 0 001.11.65h2.21l-2.56-4.49a1.26 1.26 0 00-1.74-.46zm-2.79 2.22a1.27 1.27 0 00-.47 1.72l.2.35a1.26 1.26 0 001.11.66h2.2l-1.29-2.26a1.29 1.29 0 00-1.75-.47z"/></g></g><path class="cls-6" d="M434 380.9a12.64 12.64 0 1112.64-12.64A12.65 12.65 0 01434 380.9zm0-22.81a10.17 10.17 0 1010.17 10.17A10.18 10.18 0 00434 358.09z"/><circle class="cls-6" cx="434.01" cy="368.26" r="5.89"/><path class="cls-6" d="M434 375.58v1.12a8.38 8.38 0 006-2.48l-.79-.79a7.26 7.26 0 01-5.21 2.15zm0-14.64a7.32 7.32 0 017.32 7.32h1.12a8.44 8.44 0 00-16.88 0h1.12a7.32 7.32 0 017.32-7.32z"/><path class="cls-6" d="M442.45 368.26h-1.12a7.26 7.26 0 01-2.15 5.17l.79.79a8.38 8.38 0 002.48-5.96zm-15.76 0h-1.12a8.45 8.45 0 008.43 8.44v-1.12a7.33 7.33 0 01-7.31-7.32zm-34.08 24.36v-11.48l-1.81 2.05a1.43 1.43 0 01-1.05.49 1.55 1.55 0 01-1.48-1.61 1.76 1.76 0 01.43-1.15l4-4.32a2 2 0 011.48-.66 2.17 2.17 0 012.06 2.25v14.43a1.8 1.8 0 11-3.59 0zm13.03-16.76c4.77 0 6.92 4.71 6.92 9.41s-2.15 9.42-6.92 9.42-6.92-4.72-6.92-9.42 2.13-9.41 6.92-9.41zm0 3.45c-2.41 0-3.31 2.59-3.31 6s.9 6 3.31 6 3.29-2.62 3.29-6-.93-6-3.29-6z"/></g><path id="neck" fill="#936a58" d="M428.13 341.21l-27.59 8.62-28.6-9.62-1.92-23.62h61.04l-2.93 24.62z"/><path d="M503.38 369.38L500.91 339c-1.19-11.87-11.83-22.25-23.72-23.14l-37.14-2.7c-4.07-.45-20.52-.09-39.55.53-19-.62-35.48-1-39.55-.53l-37.14 2.7c-11.89.89-22.53 11.27-23.72 23.14l-2.47 30.36a20.14 20.14 0 005 15.74 18.65 18.65 0 001.69 1.64v66.36c0 12.81 9.32 23.23 20.78 23.23a19.8 19.8 0 0015.21-7.43v21.79a12.24 12.24 0 007.74 11.36v68h-5.93c-10.93 0-19.83 5.8-19.83 17.11 0 8.06 0 17 11.72 19.7v1.6a1.37 1.37 0 001.38 1.37h1.63a1.37 1.37 0 001.38-1.37v-1q1.72.15 3.72.15H344v.8a1.37 1.37 0 001.38 1.37h1.63a1.37 1.37 0 001.38-1.37v-.8H354v.8a1.37 1.37 0 001.38 1.37h1.63a1.37 1.37 0 001.38-1.37v-.8H364v.8a1.37 1.37 0 001.38 1.37h1.63a1.37 1.37 0 001.38-1.37v-.8H374v.8a1.37 1.37 0 001.38 1.37h1.63a1.37 1.37 0 001.38-1.37v-.8H384v.8a1.37 1.37 0 001.38 1.37h1.63a1.37 1.37 0 001.38-1.37v-.8H394v.8a1.37 1.37 0 001.38 1.37h1.63a1.37 1.37 0 001.38-1.37v-.81l.06-55.46V503h4v49.21l.06 54.67v1.6a1.37 1.37 0 001.38 1.37h1.63a1.37 1.37 0 001.38-1.37v-.8h5.61v.8a1.37 1.37 0 001.38 1.37h1.63a1.37 1.37 0 001.38-1.37v-.8h5.61v.8a1.37 1.37 0 001.38 1.37h1.63a1.37 1.37 0 001.38-1.37v-.8h5.61v.8a1.37 1.37 0 001.38 1.37h1.63a1.37 1.37 0 001.38-1.37v-.8h5.61v.8a1.37 1.37 0 001.38 1.37h1.63a1.37 1.37 0 001.38-1.37v-.8h5.61v.8a1.37 1.37 0 001.38 1.37h1.63a1.37 1.37 0 001.38-1.37v-.8h1.89c1.33 0 2.56 0 3.72-.15v1a1.37 1.37 0 001.38 1.37h1.63a1.37 1.37 0 001.38-1.37v-1.6c11.71-2.68 11.72-11.64 11.72-19.7 0-11.31-8.9-17.11-19.83-17.11h-5.93v-68a12.24 12.24 0 007.74-11.36v-21.84a19.8 19.8 0 0015.21 7.43c11.46 0 20.78-10.42 20.78-23.23v-66.36a18.65 18.65 0 001.69-1.64 20.14 20.14 0 005.1-15.74zM372.89 323.2c3.46 1.85 15.64 2.08 27.61 1.8 12 .28 24.15.05 27.61-1.8V335c0 4.81-22.42 12-27.23 12l-.38-.07-.38.07c-4.81 0-27.23-7.18-27.23-12zm-33 75.43v55c0 9.5-6.63 17.23-14.78 17.23s-14.78-7.73-14.78-17.23v-62.78a21.07 21.07 0 007.47 1.36h22.09zm52.91 203.42h-50.65c-14.21 0-14.21-5-14.21-14.89 0-8.22 6.37-11.5 14.21-11.5h11.67l38.93-2.7.07 15.37zm-38.74-76.4h38.67v41.7L354.08 570h-.26v-44.4zm-.26-5.74v-17h38.93v16.93h-38.91zm104.77 55.75h.26c7.84 0 14.21 3.28 14.21 11.5 0 9.91 0 14.89-14.21 14.89h-50.65v-13.7l.07-15.37 38.93 2.7h11.41zm-11.67-50h.26v44.4h-.26l-38.67-2.68v-41.7zm-38.67-5.74V503h38.93v17h-38.91zm46.84-73.78H455v44.58a6.6 6.6 0 01-6.58 6.58h-1.26l-43.68-.05s-.11-3.72-.16-8.75v-2.8c0-3.52-1.41-5.09-2.82-5-1.41-.08-2.82 1.49-2.82 5v2.79c-.05 5-.16 8.75-.16 8.75l-43.68.05h-1.26a6.6 6.6 0 01-6.58-6.58v-44.58h-.07v-.33l30.25.33h48.68l30.25-.33zm35.56 7.51c0 9.5-6.63 17.23-14.78 17.23s-14.78-7.73-14.78-17.23v-61.44h22.09a21.07 21.07 0 007.47-1.36zm6-77.21a13.55 13.55 0 01-2.76 4.66 13.85 13.85 0 01-3.24 2.63 14.72 14.72 0 01-7.47 2l-22.09.09v-20.15c0-5.56-6.08-5.93-6.08 0s.08 14.37.08 14.37v59.59H345.91V380s.08-8.45.08-14.37-6.08-5.54-6.08 0v20.11l-22.09-.09a14.72 14.72 0 01-7.47-2 13.85 13.85 0 01-3.24-2.63 13.55 13.55 0 01-2.76-4.66 14.79 14.79 0 01-.75-6.46l2.46-30.35c.9-8.95 9.23-17.08 18.2-17.75l11.12-.84 32.21-2.29c.68.55.49 17.49.49 17.49 0 8.43 23.34 15.29 31.77 15.29h1.3c8.43 0 31.77-6.86 31.77-15.29 0 0-.19-16.94.49-17.49l32.21 2.33 11.12.84c9 .67 17.3 8.8 18.2 17.75L497.4 370a14.79 14.79 0 01-.75 6.43z" id="border"/><g id="head"><path class="cls-10" d="M413.13 192c19 0 25.14 14.21 30.8 18.68 3.73 2.94 2 12.16-.26 19.88-1.1 3.72-4.05 5.09-7.65 5.09a27.6 27.6 0 01-10.39-2.58c-3.62-1.57-7.75-3.14-11.82-4.6a29.57 29.57 0 00-10.11-1.75c-7.64 0-15.17 2.76-22.5 6.47-1.68.85-8.49.38-10.5 1.25a20.33 20.33 0 01-7.63 2c-3.22 0-5.53-1.69-6.77-5.9-2.3-7.72-4-16.94-.27-19.88 5.66-4.47 11.79-18.68 30.81-18.68A50.25 50.25 0 01400 194a50.26 50.26 0 0113.13-2m0-5a54.3 54.3 0 00-13.13 1.8 54.22 54.22 0 00-13.16-1.8c-16.79 0-24.93 9.57-30.32 15.91a33.08 33.08 0 01-3.58 3.84c-4.94 3.89-5.39 11.91-1.44 25.24 2.45 8.24 8.3 9.47 11.57 9.47a24.14 24.14 0 009.47-2.37 37.13 37.13 0 013.76-.29c3.32-.15 5.45-.28 7.16-1.15 8-4.05 14.43-5.93 20.24-5.93a24.44 24.44 0 018.42 1.45c4.48 1.61 8.36 3.12 11.52 4.49a33 33 0 0012.38 3c6.27 0 10.81-3.16 12.44-8.66 4-13.33 3.5-21.35-1.43-25.24a33 33 0 01-3.59-3.84c-5.38-6.34-13.52-15.91-30.31-15.91z"/><path id="skin-2" data-name="skin" class="cls-1" d="M446.88 254c0-.9.08-1.81.08-2.72 0-30.52-21.06-55.26-47-55.26s-47 24.74-47 55.26c0 1.11 0 2.21.1 3.31-4.05 2.46-6.91 8.43-6.91 15.42 0 9.19 4.93 16.64 11 16.64a7.47 7.47 0 002.1-.31c.82 24.5 18.73 44.07 40.73 44.07s40.12-19.8 40.74-44.5a7.65 7.65 0 003.25.74c6.09 0 11-7.45 11-16.64-.04-7.6-3.45-14.01-8.09-16.01z"/><path d="M442.84 226.11c-7.59-27-42.41-30.06-42.41-30.06h-.51s-34.82 3-42.41 30.06c-5.72 20.35-7 22.28-4.14 26.52a4.18 4.18 0 007.33-.81 41.52 41.52 0 003.3-17.24c-.6-12.46 9.05-12.41 9.05-12.41s21.26-4.58 27.11-9.92c5.86 5.34 27.12 9.92 27.12 9.92s9.65 0 9 12.41a41.52 41.52 0 003.31 17.24 4.18 4.18 0 007.33.81c2.92-4.24 1.64-6.17-4.08-26.52z" fill="#332e2d" opacity=".6"/><path class="cls-10" d="M399.92 333.44c-22.68 0-41.28-19-43.53-43.78-7.52-.5-13.32-8.94-13.32-19.62 0-7 2.64-13.44 6.84-16.91v-1.82c0-32.13 22.45-58.26 50-58.26s50 26.13 50 58.26v1c4.85 3.17 8 10 8 17.75 0 11-6.16 19.64-14 19.64h-.46c-2.25 24.79-20.78 43.74-43.53 43.74zm-40.73-50.07a3 3 0 011.76.57 3 3 0 011.24 2.33c.77 23.09 17.34 41.17 37.73 41.17 20.58 0 37.15-18.26 37.74-41.58a3 3 0 014.27-2.64 4.73 4.73 0 002 .46c4.35 0 8-6.25 8-13.64 0-7-3.13-11.94-6.22-13.24a3 3 0 01-1.83-2.89v-.18c0-.81.07-1.61.07-2.42 0-28.82-19.76-52.26-44-52.26s-44 23.44-44 52.26c0 .91 0 1.88.09 3.15a3 3 0 01-1.43 2.72c-3.27 2-5.47 7.16-5.47 12.86 0 7.39 3.67 13.64 8 13.64a4.32 4.32 0 001.25-.19 3.06 3.06 0 01.8-.12z"/><path d="M443.93 210.72c-6.8-5.36-14.28-24.79-43.95-16.75-29.67-8-37.15 11.39-44 16.75-3.73 2.94-2 12.16.27 19.88 2.08 7 7.11-3 14.4-6.12 2-.87 8.82-.4 10.5-1.25 10.55-5.33 21.49-8.71 32.61-4.72 4.07 1.46 8.2 3 11.82 4.6 7.29 3.16 15.95 14.51 18 7.49 2.42-7.72 4.08-16.94.35-19.88z" fill="#1d1514"/></g></svg>