<svg id="player" xmlns="http://www.w3.org/2000/svg" viewBox="0 0 800 800"><defs><clipPath id="clip-path"><path class="cls-1" d="M451.78 359.83c2.57-2.22 6.4-.24 6.36 3.29l-.37 38.71v12.4h-38.7v-26.1z"/></clipPath><clipPath id="clip-path-2"><path class="cls-1" d="M349.05 359.83c-2.56-2.22-6.39-.24-6.36 3.29l.37 38.71v12.4h38.74v-26.1z"/></clipPath><style>.cls-1{fill:none}.cls-2{fill:#be9177}.cls-3{fill:#785b4c}.cls-4{fill:#4378bc}.cls-5{fill:#fff}.cls-6{fill:#e41e26}.cls-7{fill:#fae300}.cls-8{fill:#353c61}.cls-12{fill:#231f20}</style></defs><g id="skin"><path id="arm-left" class="cls-2" d="M306.43 383h36.78v72.38a18.39 18.39 0 01-18.39 18.39 18.39 18.39 0 01-18.39-18.39V383z"/><path id="arm-right" class="cls-2" d="M457.69 383h36.78v72.38a18.39 18.39 0 01-18.39 18.39 18.39 18.39 0 01-18.39-18.39V383z"/><path id="leg-left" class="cls-2" d="M350.38 492.97h45.67v45.67h-45.67z"/><path id="leg-right" class="cls-2" d="M405.28 492.97h45.67v45.67h-45.67z"/></g><path class="cls-3" d="M483.34 383s-7 19.73-5.53 24.68 16.08-12.06 12.84-23.93zm-12.23 0v2.82a49.07 49.07 0 01-10 29.72V383zm-4.36 28.42s-6.67 8.81-4 13.26 12.4-.93 4-13.26zm27.72-12.18c-1.24.84-9.66 8.48-10.11 15s-1 15.39 1.31 16.63 7.27-6.7 7.27-6.7z"/><path class="cls-3" d="M473.67 402.42s9.23 19.7 5.38 24.28-9 3.53-8.11-1.73-2.94-24.04 2.73-22.55zm20.8 32.46s-12.14 10.31-17.16 7.45-6.07-7.45-1.61-7.29 17.86-5.31 18.77-.16zm-35.68-.72s5.23-3.85 8.82-3.87.79 10.37-5.44 9.9-3.38-6.03-3.38-6.03zm14.85-42.94l-1.38 5.13c-.46 1.74.88 3.39 2.23 2.72l1.38-.69a2.22 2.22 0 001.08-2v-4.44c.05-2.47-2.69-3.03-3.31-.72z"/><g id="boots"><path id="left" class="cls-4" d="M395.83 570.99H373l-22.83 1.98h-12.5l-7.5 2.52-5.25 8.5v9.83l1.91 4.17 3.84 4.06 6.33 1.94h58.83v-33z"/><path id="right" class="cls-4" d="M405.11 571.22h22.83l22.83 1.97h12.5l7.5 2.53 5.25 8.5v9.83l-1.91 4.17-3.84 4.05-6.33 1.95h-58.83v-33z"/><path class="cls-5" d="M375.32 571.22s-17.26 9.08-6.5 33h13s4.56-33-6.5-33zm52.9 0s-17.26 9.08-6.5 33h13s4.55-33-6.5-33z"/></g><g id="socks"><g id="socks-2" data-name="socks"><path id="left-2" data-name="left" class="cls-6" d="M350.38 522.95h45.67v48.04h-45.67z"/><path id="right-2" data-name="right" class="cls-6" d="M404.88 522.95h45.67v48.04h-45.67z"/></g><path class="cls-7" d="M350.72 527.68h45.08v2.25h-45.08zm54.42 0h45.08v2.25h-45.08zm-54.42 4.5h45.08v2.25h-45.08zm54.42 0h45.08v2.25h-45.08z"/></g><g id="shorts"><path id="shorts-2" data-name="shorts" class="cls-8" d="M342.17 443.49h116.49v47a9.95 9.95 0 01-9.95 9.95h-96.6a9.95 9.95 0 01-9.95-9.95v-47h.01z"/><path class="cls-7" d="M347.91 443.49H350v53.8h-2.09zm4.17 0h2.09v53.8h-2.09zm94.75 0h2.09v53.8h-2.09zm4.17 0h2.09v53.8H451z"/></g><g id="shirt"><path id="shirt-2" data-name="shirt" class="cls-7" d="M370 315.75l-48.29 2.99-11.36 6.25-6.83 10.1-3.31 40.73 5.17 7.67 7.66 4.67h29.5l.17 54h114.83v-53.5l29.34-.17 7.01-4 6.99-10.5-3.4-37.33-6.83-11.84-9.77-6.08-49.84-2.99-1 21.24-6.5 6.5-11.16 3.48-11.88 2.02-15.46-3.17-11-5.66-3.66-3.84-.38-20.57z"/><path class="cls-8" transform="rotate(-5.81 339.281 324.043)" d="M310 321.81h57.95v4H310z"/><path class="cls-8" transform="rotate(-5.81 337.218 329.668)" d="M305.9 327.35h62.06v4H305.9z"/><path class="cls-8" transform="rotate(-84.19 461.983 323.82)" d="M460.02 294.84h4v57.95h-4z"/><path class="cls-8" transform="rotate(-84.19 464.028 329.356)" d="M462.06 298.33h4v62.06h-4z"/><path class="cls-8" d="M370.38 336.32l-.38-20.57-6.07 2s-11.46 28.46 14.07 33.68c20.37 4.17 22 3.69 22 3.69V349l-19.88-4.18zm65.69-18.56l-6.07-2-.38 20.57-9.74 8.54L400 349v6.08s1.65.48 22-3.69c25.53-5.18 14.07-33.63 14.07-33.63z"/><g id="brand-adidas"><g id="adidas"><rect id="bottom" class="cls-8" x="364.51" y="367.84" width="14.43" height="2.04" rx=".62" ry=".62"/><path class="cls-8" d="M371.79 359.57a1.26 1.26 0 00-.46 1.72l3 5.15a1.26 1.26 0 001.1.64h2.21l-4.11-7.08a1.27 1.27 0 00-1.74-.43zm-2.53 2.56a1.26 1.26 0 00-.47 1.71l1.45 2.59a1.28 1.28 0 001.11.65h2.21l-2.56-4.49a1.26 1.26 0 00-1.74-.46zm-2.79 2.22a1.27 1.27 0 00-.47 1.72l.2.35a1.26 1.26 0 001.11.66h2.2l-1.29-2.26a1.29 1.29 0 00-1.75-.47z"/></g></g><g clip-path="url(#clip-path)"><path class="cls-8" d="M421.27 386.42l-1.37 1.19h18.49l1.37-1.19h-18.49zm9.94-8.65l-1.37 1.19h18.49l1.37-1.19h-18.49zm11.88-10.34h15.14v-1.19h-13.77l-1.37 1.19zm6.62-5.77h8.52v-1.19h-7.15l-1.37 1.19zm3.32-2.88h5.2v-1.2h-3.83l-1.37 1.2zm-27.94 40.61h-.17l.05.1.12-.1zm31.25-43.5h1.89v-1.19h-.52l-1.37 1.19zm-9.94 8.65h11.83v-1.19h-10.46l-1.37 1.19zm-22.24 33.41l.63 1.19h.58l1.36-1.19h-2.57zm3.73-17.3l-1.37 1.2h18.49l1.37-1.2h-18.49zm-3.31 2.89l-1.37 1.19h18.49l1.37-1.19h-18.49zm9.94-8.65l-1.37 1.19h18.49l1.37-1.19h-18.49zm-14.94 14.41l.63 1.2h14.86l1.37-1.2h-16.86zm18.25-17.3l-1.37 1.19h18.49l1.37-1.19h-18.49zm-16.72 20.19l.63 1.19h10.02l1.37-1.19h-12.02zm18.67-21.88h18.45v-1.19h-17.09l-1.36 1.19zm-17.15 24.76l.63 1.19h5.4l1.36-1.19h-7.39z"/><path class="cls-6" d="M434.68 400.84l.63 1.19h5.2l1.36-1.19h-7.19zm-1.52-2.89l.63 1.19h9.84l1.37-1.19h-11.84zm3.28-8.65l-1.37 1.2h18.49l1.37-1.2h-18.49zm-.23 14.42l.63 1.19h.4l1.35-1.19h-2.38zm-4.58-8.65l.63 1.19h14.68l1.37-1.19h-16.68zm1.5-2.88l-1.37 1.19h18.49l1.37-1.19h-18.49zm19.88-17.3l-1.37 1.19h6.59v-1.19h-5.22zm-6.63 5.76l-1.37 1.2h13.22v-1.2h-11.85zm3.32-2.88l-1.37 1.19h9.9v-1.19h-8.53zm-9.94 8.65l-1.37 1.19h18.49l1.35-1.17v-.02h-18.47zM456.32 372l-1.37 1.19h3.28V372h-1.91zm-13.25 11.54l-1.37 1.19h16.53v-1.19h-15.16z"/><path class="cls-8" d="M447.37 407.8h5.05l1.37-1.2h-7.05l.63 1.2zm-1.53-2.89h9.89l1.37-1.19h-11.89l.63 1.19zm3.05 5.77h.21l1.37-1.19h-2.21l.63 1.19zm-4.58-8.65h13.46l.03-1.19h-14.12l.63 1.19zm7.31-9.84l-1.37 1.19h7.77l.04-1.19h-6.44zm-3.31 2.88l-1.37 1.19h11l.03-1.19h-9.66zm-3.31 2.88l-1.37 1.19h14.22l.04-1.19H445zm13.19-10.34l.04-1.17-1.35 1.17h1.31zm-3.26 1.69l-1.37 1.2h4.55l.03-1.2h-3.21z"/></g><g clip-path="url(#clip-path-2)"><path class="cls-8" d="M379.56 386.42l1.38 1.19h-18.5l-1.37-1.19h18.49zm-9.93-8.65l1.37 1.19h-18.49l-1.37-1.19h18.49zm-11.89-10.34H342.6v-1.19h13.77l1.37 1.19zm-6.62-5.77h-8.52v-1.19h7.15l1.37 1.19zm-3.32-2.88h-5.2v-1.2h3.84l1.36 1.2zm27.95 40.61h.16l-.05.1-.11-.1zm-31.26-43.5h-1.89v-1.19h.52l1.37 1.19zm9.94 8.65H342.6v-1.19h10.46l1.37 1.19zm22.24 33.41l-.63 1.19h-.58l-1.36-1.19h2.57zm-3.73-17.3l1.37 1.2h-18.49l-1.37-1.2h18.49zm3.31 2.89l1.37 1.19h-18.49l-1.37-1.19h18.49zm-9.94-8.65l1.37 1.19h-18.49l-1.37-1.19h18.49zm14.94 14.41l-.63 1.2h-14.86l-1.37-1.2h16.86zM363 372l1.37 1.19h-18.49l-1.37-1.19H363zm16.73 20.19l-.63 1.19h-10.03l-1.37-1.19h12.03zm-18.67-21.88H342.6v-1.19h17.09l1.37 1.19zm17.14 24.76l-.63 1.19h-5.4l-1.36-1.19h7.39z"/><path class="cls-6" d="M366.15 400.84l-.63 1.19h-5.2l-1.35-1.19h7.18zm1.53-2.89l-.64 1.19h-9.83l-1.37-1.19h11.84zm-3.29-8.65l1.37 1.2h-18.49l-1.37-1.2h18.49zm.23 14.42l-.63 1.19h-.39l-1.36-1.19h2.38zm4.58-8.65l-.63 1.19h-14.68l-1.37-1.19h16.68zm-1.5-2.88l1.37 1.19h-18.49l-1.37-1.19h18.49zm-19.88-17.3l1.37 1.19h-6.59v-1.19h5.22zm6.63 5.76l1.37 1.2H342.6v-1.2h11.85zm-3.31-2.88l1.37 1.19h-9.91v-1.19h8.54zm9.93 8.65l1.37 1.19h-18.49l-1.35-1.17v-.02h18.47zM344.51 372l1.37 1.19h-3.28V372h1.91zm13.25 11.54l1.37 1.19H342.6v-1.19h15.16z"/><path class="cls-8" d="M353.47 407.8h-5.05l-1.37-1.2h7.05l-.63 1.2zm1.52-2.89h-9.89l-1.37-1.19h11.89l-.63 1.19zm-3.05 5.77h-.21l-1.37-1.19h2.21l-.63 1.19zm4.58-8.65h-13.46l-.03-1.19h14.12l-.63 1.19zm-7.31-9.84l1.37 1.19h-7.77l-.04-1.19h6.44zm3.31 2.88l1.37 1.19h-11l-.03-1.19h9.66zm3.32 2.88l1.37 1.19h-14.23l-.04-1.19h12.9zm-13.2-10.34l-.04-1.17 1.35 1.17h-1.31zm3.26 1.69l1.37 1.2h-4.55l-.03-1.2h3.21z"/></g><circle class="cls-5" cx="434.01" cy="368.26" r="11.4"/><path d="M434 380.9a12.64 12.64 0 1112.64-12.64A12.65 12.65 0 01434 380.9zm0-22.81a10.17 10.17 0 1010.17 10.17A10.18 10.18 0 00434 358.09z" fill="#c1b351"/><circle class="cls-6" cx="434.01" cy="368.26" r="5.89"/><path class="cls-8" d="M434 375.58v1.12a8.38 8.38 0 006-2.48l-.79-.79a7.26 7.26 0 01-5.21 2.15z"/><path class="cls-12" d="M434 360.94a7.32 7.32 0 017.32 7.32h1.12a8.44 8.44 0 00-16.88 0h1.12a7.32 7.32 0 017.32-7.32z"/><path class="cls-6" d="M442.45 368.26h-1.12a7.26 7.26 0 01-2.15 5.17l.79.79a8.38 8.38 0 002.48-5.96z"/><path class="cls-7" d="M426.69 368.26h-1.12a8.45 8.45 0 008.43 8.44v-1.12a7.33 7.33 0 01-7.31-7.32z"/><path class="cls-8" d="M392.61 392.62v-11.48l-1.81 2.05a1.43 1.43 0 01-1.05.49 1.55 1.55 0 01-1.48-1.61 1.76 1.76 0 01.43-1.15l4-4.32a2 2 0 011.48-.66 2.17 2.17 0 012.06 2.25v14.43a1.8 1.8 0 11-3.59 0zm13.03-16.76c4.77 0 6.92 4.71 6.92 9.41s-2.15 9.42-6.92 9.42-6.92-4.72-6.92-9.42 2.13-9.41 6.92-9.41zm0 3.45c-2.41 0-3.31 2.59-3.31 6s.9 6 3.31 6 3.29-2.62 3.29-6-.93-6-3.29-6z"/></g><path id="neck" fill="#936a58" d="M428.13 341.21l-27.59 8.62-28.6-9.62-1.92-23.62h61.04l-2.93 24.62z"/><path d="M503.38 369.38L500.91 339c-1.19-11.87-11.83-22.25-23.72-23.14l-37.14-2.7c-4.07-.45-20.52-.09-39.55.53-19-.62-35.48-1-39.55-.53l-37.14 2.7c-11.89.89-22.53 11.27-23.72 23.14l-2.47 30.36a20.14 20.14 0 005 15.74 18.65 18.65 0 001.69 1.64v66.36c0 12.81 9.32 23.23 20.78 23.23a19.8 19.8 0 0015.21-7.43v21.79a12.24 12.24 0 007.74 11.36v68h-5.93c-10.93 0-19.83 5.8-19.83 17.11 0 8.06 0 17 11.72 19.7v1.6a1.37 1.37 0 001.38 1.37h1.63a1.37 1.37 0 001.38-1.37v-1q1.72.15 3.72.15H344v.8a1.37 1.37 0 001.38 1.37h1.63a1.37 1.37 0 001.38-1.37v-.8H354v.8a1.37 1.37 0 001.38 1.37h1.63a1.37 1.37 0 001.38-1.37v-.8H364v.8a1.37 1.37 0 001.38 1.37h1.63a1.37 1.37 0 001.38-1.37v-.8H374v.8a1.37 1.37 0 001.38 1.37h1.63a1.37 1.37 0 001.38-1.37v-.8H384v.8a1.37 1.37 0 001.38 1.37h1.63a1.37 1.37 0 001.38-1.37v-.8H394v.8a1.37 1.37 0 001.38 1.37h1.63a1.37 1.37 0 001.38-1.37v-.81l.06-55.46V503h4v49.21l.06 54.67v1.6a1.37 1.37 0 001.38 1.37h1.63a1.37 1.37 0 001.38-1.37v-.8h5.61v.8a1.37 1.37 0 001.38 1.37h1.63a1.37 1.37 0 001.38-1.37v-.8h5.61v.8a1.37 1.37 0 001.38 1.37h1.63a1.37 1.37 0 001.38-1.37v-.8h5.61v.8a1.37 1.37 0 001.38 1.37h1.63a1.37 1.37 0 001.38-1.37v-.8h5.61v.8a1.37 1.37 0 001.38 1.37h1.63a1.37 1.37 0 001.38-1.37v-.8h5.61v.8a1.37 1.37 0 001.38 1.37h1.63a1.37 1.37 0 001.38-1.37v-.8h1.89c1.33 0 2.56 0 3.72-.15v1a1.37 1.37 0 001.38 1.37h1.63a1.37 1.37 0 001.38-1.37v-1.6c11.71-2.68 11.72-11.64 11.72-19.7 0-11.31-8.9-17.11-19.83-17.11h-5.93v-68a12.24 12.24 0 007.74-11.36v-21.84a19.8 19.8 0 0015.21 7.43c11.46 0 20.78-10.42 20.78-23.23v-66.36a18.65 18.65 0 001.69-1.64 20.14 20.14 0 005.1-15.74zM372.89 323.2c3.46 1.85 15.64 2.08 27.61 1.8 12 .28 24.15.05 27.61-1.8V335c0 4.81-22.42 12-27.23 12l-.38-.07-.38.07c-4.81 0-27.23-7.18-27.23-12zm-33 75.43v55c0 9.5-6.63 17.23-14.78 17.23s-14.78-7.73-14.78-17.23v-62.78a21.07 21.07 0 007.47 1.36h22.09zm52.91 203.42h-50.65c-14.21 0-14.21-5-14.21-14.89 0-8.22 6.37-11.5 14.21-11.5h11.67l38.93-2.7.07 15.37zm-38.74-76.4h38.67v41.7L354.08 570h-.26v-44.4zm-.26-5.74v-17h38.93v16.93h-38.91zm104.77 55.75h.26c7.84 0 14.21 3.28 14.21 11.5 0 9.91 0 14.89-14.21 14.89h-50.65v-13.7l.07-15.37 38.93 2.7h11.41zm-11.67-50h.26v44.4h-.26l-38.67-2.68v-41.7zm-38.67-5.74V503h38.93v17h-38.91zm46.84-73.78H455v44.58a6.6 6.6 0 01-6.58 6.58h-1.26l-43.68-.05s-.11-3.72-.16-8.75v-2.8c0-3.52-1.41-5.09-2.82-5-1.41-.08-2.82 1.49-2.82 5v2.79c-.05 5-.16 8.75-.16 8.75l-43.68.05h-1.26a6.6 6.6 0 01-6.58-6.58v-44.58h-.07v-.33l30.25.33h48.68l30.25-.33zm35.56 7.51c0 9.5-6.63 17.23-14.78 17.23s-14.78-7.73-14.78-17.23v-61.44h22.09a21.07 21.07 0 007.47-1.36zm6-77.21a13.55 13.55 0 01-2.76 4.66 13.85 13.85 0 01-3.24 2.63 14.72 14.72 0 01-7.47 2l-22.09.09v-20.15c0-5.56-6.08-5.93-6.08 0s.08 14.37.08 14.37v59.59H345.91V380s.08-8.45.08-14.37-6.08-5.54-6.08 0v20.11l-22.09-.09a14.72 14.72 0 01-7.47-2 13.85 13.85 0 01-3.24-2.63 13.55 13.55 0 01-2.76-4.66 14.79 14.79 0 01-.75-6.46l2.46-30.35c.9-8.95 9.23-17.08 18.2-17.75l11.12-.84 32.21-2.29c.68.55.49 17.49.49 17.49 0 8.43 23.34 15.29 31.77 15.29h1.3c8.43 0 31.77-6.86 31.77-15.29 0 0-.19-16.94.49-17.49l32.21 2.33 11.12.84c9 .67 17.3 8.8 18.2 17.75L497.4 370a14.79 14.79 0 01-.75 6.43z" id="border"/><g id="head"><path class="cls-12" d="M413.13 192.06c19 0 25.14 14.21 30.8 18.67 3.73 3 2 12.17-.26 19.89-1.1 3.71-4.05 5.08-7.65 5.08a27.57 27.57 0 01-10.39-2.57c-3.62-1.57-7.75-3.15-11.82-4.61a29.8 29.8 0 00-10.11-1.74c-7.64 0-15.17 2.76-22.5 6.47-1.68.85-8.49.38-10.5 1.25a20.33 20.33 0 01-7.63 2c-3.22 0-5.53-1.69-6.77-5.9-2.3-7.72-4-16.94-.27-19.89 5.66-4.46 11.79-18.67 30.81-18.67A50.62 50.62 0 01400 194a50.21 50.21 0 0113.15-1.92m0-5a54.3 54.3 0 00-13.15 1.74 54.22 54.22 0 00-13.14-1.76c-16.79 0-24.93 9.57-30.32 15.9a32.49 32.49 0 01-3.58 3.85c-4.94 3.89-5.39 11.91-1.44 25.23 2.45 8.25 8.3 9.48 11.57 9.48a24.31 24.31 0 009.47-2.37 34.42 34.42 0 013.76-.29c3.32-.15 5.45-.29 7.16-1.15 8-4.05 14.43-5.93 20.24-5.93a24.44 24.44 0 018.42 1.45c4.48 1.61 8.36 3.12 11.52 4.49a33 33 0 0012.38 3c6.27 0 10.81-3.15 12.44-8.66 4-13.32 3.5-21.34-1.43-25.23a32.44 32.44 0 01-3.59-3.85c-5.38-6.33-13.52-15.9-30.31-15.9z"/><path id="skin-2" data-name="skin" class="cls-2" d="M446.88 254.05c0-.91.08-1.81.08-2.73 0-30.51-21.06-55.25-47-55.25s-47 24.74-47 55.25c0 1.11 0 2.22.1 3.31-4.05 2.46-6.91 8.44-6.91 15.43 0 9.19 4.93 16.64 11 16.64a7.48 7.48 0 002.1-.32c.82 24.5 18.73 44.08 40.73 44.08S440 310.65 440.66 286a7.65 7.65 0 003.25.74c6.09 0 11-7.45 11-16.64.02-7.67-3.39-14.1-8.03-16.05z"/><path d="M442.84 226.13c-7.59-27-42.41-30.06-42.41-30.06h-.51s-34.82 3-42.41 30.06c-5.72 20.35-7 22.28-4.14 26.52a4.19 4.19 0 007.33-.82 41.43 41.43 0 003.3-17.23c-.6-12.46 9.05-12.41 9.05-12.41s21.26-4.58 27.11-9.93c5.86 5.35 27.12 9.93 27.12 9.93s9.65-.05 9 12.41a41.43 41.43 0 003.31 17.23 4.19 4.19 0 007.33.82c2.92-4.24 1.64-6.17-4.08-26.52z" fill="#332e2d" opacity=".6"/><path class="cls-12" d="M399.92 333.46c-22.68 0-41.28-19-43.53-43.79-7.52-.49-13.32-8.93-13.32-19.61 0-7 2.64-13.45 6.84-16.92v-1.82c0-32.12 22.45-58.25 50-58.25s50 26.13 50 58.25v1c4.85 3.18 8 10 8 17.76 0 11-6.16 19.64-14 19.64h-.46c-2.25 24.79-20.78 43.74-43.53 43.74zm-40.73-50.08a3 3 0 013 2.9c.77 23.09 17.34 41.18 37.73 41.18 20.58 0 37.15-18.26 37.74-41.58a3 3 0 014.27-2.64 4.73 4.73 0 002 .46c4.35 0 8-6.25 8-13.64 0-7-3.13-11.94-6.22-13.25a3 3 0 01-1.83-2.89v-.18c0-.8.07-1.6.07-2.42 0-28.81-19.76-52.25-44-52.25s-44 23.44-44 52.25c0 .92 0 1.89.09 3.16a3 3 0 01-1.43 2.71c-3.27 2-5.47 7.16-5.47 12.87 0 7.39 3.67 13.64 8 13.64a4.69 4.69 0 001.25-.19 2.74 2.74 0 01.8-.13z"/><path d="M443.93 210.73c-6.8-5.36-14.28-24.79-43.95-16.75-29.67-8-37.15 11.39-44 16.75-3.73 3-2 12.17.27 19.89 2.08 7 7.11-3 14.4-6.12 2-.87 8.82-.4 10.5-1.25 10.55-5.34 21.49-8.72 32.61-4.73 4.07 1.46 8.2 3 11.82 4.61 7.29 3.16 15.95 14.51 18 7.49 2.42-7.72 4.08-16.94.35-19.89z" fill="#1d1514"/></g></svg>