<svg id="player" xmlns="http://www.w3.org/2000/svg" viewBox="0 0 800 800"><defs><clipPath id="clip-path"><path class="cls-1" d="M422.34 359.24h21.86v26.64h-21.86z"/></clipPath><clipPath id="clip-path-2"><path class="cls-1" d="M422.34 359.24h21.86v26.64h-21.86z"/></clipPath><style>.cls-1{fill:none}.cls-2{fill:#6e402b}.cls-3{fill:#fff}.cls-4{fill:#f3e8ce}.cls-5{fill:#e5d8bd}.cls-6{fill:#bb2029}.cls-7{fill:#f0efef}.cls-10{fill:#e52a27}.cls-11{fill:#d4c07e}.cls-14{fill:#261915;opacity:.2}</style></defs><g id="skin"><path id="arm-left" class="cls-2" d="M306.43 383h36.78v72.38a18.39 18.39 0 01-18.39 18.39 18.39 18.39 0 01-18.39-18.39V383z"/><path id="arm-right" class="cls-2" d="M457.69 383h36.78v72.38a18.39 18.39 0 01-18.39 18.39 18.39 18.39 0 01-18.39-18.39V383z"/><path id="leg-left" class="cls-2" d="M350.38 492.97h45.67v45.67h-45.67z"/><path id="leg-right" class="cls-2" d="M405.28 492.97h45.67v45.67h-45.67z"/></g><g id="boots"><path id="left" class="cls-3" d="M395.83 570.99H373l-22.83 1.98h-12.5l-7.5 2.52-5.25 8.5v9.83l1.91 4.17 3.84 4.06 6.33 1.94h58.83v-33z"/><path id="right" class="cls-3" d="M405.11 571.22h22.83l22.83 1.97h12.5l7.5 2.53 5.25 8.5v9.83l-1.91 4.17-3.84 4.05-6.33 1.95h-58.83v-33z"/><path class="cls-4" d="M396 578.32V604l-61.43-.83s-11.69-2.32-8.85-15.65c-.04-.01 47.34-11.34 70.28-9.2z"/><path class="cls-5" d="M396 585.89s-38.09.42-52.64 5.13-15.32 8.35-15.32 8.35-1.81 5.72 25.16 4 42.8.63 42.8.63z"/><path class="cls-4" d="M404.88 578.32L405 604l61.43-.83s11.69-2.32 8.85-15.65c-.03-.01-47.42-11.34-70.4-9.2z"/><path class="cls-5" d="M404.91 585.89s38.08.42 52.64 5.13 15.31 8.35 15.31 8.35 1.81 5.72-25.16 4-42.7.63-42.7.63z"/></g><g id="socks"><g id="socks-2" data-name="socks"><path id="left-2" data-name="left" class="cls-3" d="M350.38 522.95h45.67v48.04h-45.67z"/><path id="right-2" data-name="right" class="cls-3" d="M404.88 522.95h45.67v48.04h-45.67z"/></g><path class="cls-6" d="M351.46 540.8h44.52v9.39h-44.52zm53.99 0h44.52v9.39h-44.52z"/></g><g id="shorts"><path id="shorts-2" data-name="shorts" class="cls-3" d="M342.17 443.49h116.49v47a9.95 9.95 0 01-9.95 9.95h-96.6a9.95 9.95 0 01-9.95-9.95v-47h.01z"/></g><g id="shirt"><path id="shirt-2" data-name="shirt" class="cls-3" d="M370 315.75l-48.29 2.99-11.36 6.25-6.83 10.1-3.31 40.73 5.17 7.67 7.66 4.67h29.5l.17 54h114.83v-53.5l29.34-.17 7.01-4 6.99-10.5-3.4-37.33-6.83-11.84-9.77-6.08-49.84-2.99-1 21.24-6.5 6.5-11.16 3.48-11.88 2.02-15.46-3.17-11-5.66-3.66-3.84-.38-20.57z"/><path class="cls-7" transform="rotate(-45 406.808 356.285)" d="M403.78 353.27h6.03v6.03h-6.03z"/><path class="cls-7" transform="rotate(-45 369.407 381.197)" d="M366.4 378.19h6.03v6.03h-6.03z"/><path class="cls-7" transform="rotate(-45 413.026 362.509)" d="M410.01 359.5h6.03v6.03h-6.03z"/><path class="cls-7" transform="rotate(-45 419.256 368.738)" d="M416.24 365.73h6.03v6.03h-6.03z"/><path class="cls-7" transform="rotate(-45 394.336 356.28)" d="M391.32 353.27h6.03v6.03h-6.03z"/><path class="cls-7" transform="rotate(-45 381.878 368.741)" d="M378.86 365.73h6.03v6.03h-6.03z"/><path class="cls-7" transform="rotate(-45 425.499 374.973)" d="M422.48 371.96h6.03v6.03h-6.03z"/><path class="cls-7" transform="rotate(-45 400.577 337.596)" d="M397.55 334.57h6.03v6.03h-6.03z"/><path class="cls-7" transform="rotate(-45 388.107 362.51)" d="M385.09 359.5h6.03v6.03h-6.03z"/><path class="cls-7" transform="rotate(-45 400.578 350.055)" d="M397.55 347.04h6.03v6.03h-6.03z"/><path class="cls-7" transform="rotate(-45 406.783 418.585)" d="M403.78 415.57h6.03v6.03h-6.03z"/><path class="cls-7" transform="rotate(-45 431.729 381.202)" d="M428.71 378.19h6.03v6.03h-6.03z"/><path class="cls-7" transform="rotate(-45 394.348 418.596)" d="M391.32 415.57h6.03v6.03h-6.03z"/><path class="cls-7" transform="rotate(-45 388.106 412.361)" d="M385.09 409.34h6.03v6.03h-6.03z"/><path class="cls-7" transform="rotate(-45 413.025 412.36)" d="M410.01 409.34h6.03v6.03h-6.03z"/><path class="cls-7" transform="rotate(-45 419.266 406.134)" d="M416.24 403.11h6.03v6.03h-6.03z"/><path class="cls-7" transform="rotate(-45 437.96 387.431)" d="M434.94 384.42h6.03v6.03h-6.03z"/><path class="cls-7" transform="rotate(-45 431.713 393.669)" d="M428.71 390.65h6.03v6.03h-6.03z"/><path class="cls-7" transform="rotate(-45 425.484 399.899)" d="M422.48 396.88h6.03v6.03h-6.03z"/><path class="cls-7" transform="rotate(-45 413.025 350.05)" d="M410.01 347.04h6.03v6.03h-6.03z"/><path class="cls-7" transform="rotate(-45 444.189 381.201)" d="M441.17 378.19h6.03v6.03h-6.03z"/><path class="cls-7" transform="rotate(-45 437.958 374.972)" d="M434.94 371.96h6.03v6.03h-6.03z"/><path class="cls-7" transform="rotate(-45 444.185 393.673)" d="M441.17 390.65h6.03v6.03h-6.03z"/><path class="cls-7" transform="rotate(-45 363.19 387.432)" d="M360.17 384.42h6.03v6.03h-6.03z"/><path class="cls-7" transform="rotate(-45 431.714 406.128)" d="M428.71 403.11h6.03v6.03h-6.03z"/><path class="cls-7" transform="rotate(-45 437.955 399.903)" d="M434.94 396.88h6.03v6.03h-6.03z"/><path class="cls-7" transform="rotate(-45 406.807 343.825)" d="M403.78 340.81h6.03v6.03h-6.03z"/><path class="cls-7" transform="rotate(-45 381.875 406.132)" d="M378.86 403.11h6.03v6.03h-6.03z"/><path class="cls-7" transform="rotate(-45 419.255 356.279)" d="M416.24 353.27h6.03v6.03h-6.03z"/><path class="cls-7" transform="rotate(-45 425.498 362.513)" d="M422.48 359.5h6.03v6.03h-6.03z"/><path class="cls-7" transform="rotate(-45 431.728 368.742)" d="M428.71 365.73h6.03v6.03h-6.03z"/><path class="cls-7" transform="rotate(-45 375.658 412.367)" d="M372.63 409.34h6.03v6.03h-6.03z"/><path class="cls-7" transform="rotate(-45 425.485 412.359)" d="M422.48 409.34h6.03v6.03h-6.03z"/><path class="cls-7" transform="rotate(-45 369.416 406.133)" d="M366.4 403.11h6.03v6.03h-6.03z"/><path class="cls-7" transform="rotate(-45 356.96 393.662)" d="M353.94 390.65h6.03v6.03h-6.03z"/><path class="cls-7" transform="rotate(-45 363.178 399.887)" d="M360.17 396.88h6.03v6.03h-6.03z"/><path class="cls-7" transform="rotate(-45 413.026 424.82)" d="M410.01 421.8h6.03v6.03h-6.03z"/><path class="cls-7" transform="rotate(-45 381.876 418.592)" d="M378.86 415.57h6.03v6.03h-6.03z"/><path class="cls-7" transform="rotate(-45 419.267 418.594)" d="M416.24 415.57h6.03v6.03h-6.03z"/><path class="cls-7" transform="rotate(-45 388.107 424.821)" d="M385.09 421.8h6.03v6.03h-6.03z"/><path class="cls-7" transform="rotate(-45 375.636 374.966)" d="M372.63 371.96h6.03v6.03h-6.03z"/><path class="cls-7" d="M390.52 430.61a43.38 43.38 0 007.39 1.13l.69-.69-4.26-4.26z"/><path class="cls-7" transform="rotate(-45 400.568 387.43)" d="M397.55 384.42h6.03v6.03h-6.03z"/><path class="cls-7" transform="rotate(-45 400.58 374.975)" d="M397.55 371.96h6.03v6.03h-6.03z"/><path class="cls-7" d="M406.8 426.79l-4.27 4.26.7.69a43.53 43.53 0 007.39-1.13z"/><path class="cls-7" transform="rotate(-45 400.566 424.82)" d="M397.55 421.8h6.03v6.03h-6.03z"/><path class="cls-7" transform="rotate(-45 406.81 381.204)" d="M403.78 378.19h6.03v6.03h-6.03z"/><path class="cls-7" transform="rotate(-45 413.04 387.433)" d="M410.01 384.42h6.03v6.03h-6.03z"/><path class="cls-7" transform="rotate(-45 406.787 393.653)" d="M403.78 390.65h6.03v6.03h-6.03z"/><path class="cls-7" transform="rotate(-45 400.576 399.906)" d="M397.55 396.88h6.03v6.03h-6.03z"/><path class="cls-7" transform="rotate(-45 394.34 393.66)" d="M391.32 390.65h6.03v6.03h-6.03z"/><path class="cls-7" d="M408.83 321.13h-4.07l2.04 2.03 2.03-2.03zm-64.34 14.49l4.26-4.26-4.26-4.26-1.28 1.28v5.96l1.28 1.28zm112.15 0l1.29-1.28v-5.96l-1.29-1.28-4.26 4.26 4.26 4.26zm0-12.46l1.29-1.28v-.75h-3.32l2.03 2.03zm-51.81 1.97l-4-4h-.52l-4.01 4 4.27 4.26 4.26-4.26zm-41.65 82.96l-2.61 2.61c1.29 1.57 2.64 3.06 4 4.49l2.84-2.83zm74.82 0l-4.26 4.27 2.84 2.83c1.4-1.43 2.74-2.92 4-4.49zm8.15-20.66l4.26 4.27 2.79-2.79c.28-.72.53-1.44.78-2.17l-3.57-3.57zm-49.78-66.3h-4.07l2.04 2.03 2.03-2.03z"/><path class="cls-7" transform="rotate(-45 388.105 399.902)" d="M385.09 396.88h6.03v6.03h-6.03z"/><path class="cls-7" transform="rotate(-45 394.326 381.195)" d="M391.32 378.19h6.03v6.03h-6.03z"/><path class="cls-7" transform="rotate(-45 406.809 368.744)" d="M403.78 365.73h6.03v6.03h-6.03z"/><path class="cls-7" transform="rotate(-45 394.337 368.74)" d="M391.32 365.73h6.03v6.03h-6.03z"/><path class="cls-7" transform="rotate(-45 419.257 381.198)" d="M416.24 378.19h6.03v6.03h-6.03z"/><path class="cls-7" transform="rotate(-45 413.027 374.969)" d="M410.01 371.96h6.03v6.03h-6.03z"/><path class="cls-7" transform="rotate(-45 369.408 393.656)" d="M366.4 390.65h6.03v6.03h-6.03z"/><path class="cls-7" transform="rotate(-45 388.108 374.97)" d="M385.09 371.96h6.03v6.03h-6.03z"/><path class="cls-7" transform="rotate(-45 375.637 387.426)" d="M372.63 384.42h6.03v6.03h-6.03z"/><path class="cls-7" transform="rotate(-45 381.879 381.2)" d="M378.86 378.19h6.03v6.03h-6.03z"/><path class="cls-7" transform="rotate(-45 400.579 362.515)" d="M397.55 359.5h6.03v6.03h-6.03z"/><path class="cls-7" transform="rotate(-45 375.645 399.903)" d="M372.63 396.88h6.03v6.03h-6.03z"/><path class="cls-7" transform="rotate(-45 381.88 393.66)" d="M378.86 390.65h6.03v6.03h-6.03z"/><path class="cls-7" transform="rotate(-45 394.347 406.136)" d="M391.32 403.11h6.03v6.03h-6.03z"/><path class="cls-7" transform="rotate(-45 388.109 387.43)" d="M385.09 384.42h6.03v6.03h-6.03z"/><path class="cls-7" transform="rotate(-45 413.024 399.9)" d="M410.01 396.88h6.03v6.03h-6.03z"/><path class="cls-7" transform="rotate(-45 425.488 387.427)" d="M422.48 384.42h6.03v6.03h-6.03z"/><path class="cls-7" transform="rotate(-45 419.27 393.663)" d="M416.24 390.65h6.03v6.03h-6.03z"/><path class="cls-7" transform="rotate(-45 400.577 412.365)" d="M397.55 409.34h6.03v6.03h-6.03z"/><path class="cls-7" transform="rotate(-45 406.783 406.125)" d="M403.78 403.11h6.03v6.03h-6.03z"/><path class="cls-7" d="M343.72 372.24l.77.77 4.27-4.27-4.27-4.26-1.25 1.25a65.21 65.21 0 00.48 6.51zm112.92-11.69l1.29-1.29v-5.96l-1.29-1.28-4.26 4.26 4.26 4.27z"/><path class="cls-7" transform="rotate(-45 444.186 343.822)" d="M441.17 340.81h6.03v6.03h-6.03z"/><path class="cls-7" transform="rotate(-45 363.187 350.053)" d="M360.17 347.04h6.03v6.03h-6.03z"/><path class="cls-7" transform="rotate(-45 356.957 356.283)" d="M353.94 353.27h6.03v6.03h-6.03z"/><path class="cls-7" d="M371.45 321.13h-4.07l2.03 2.03 2.04-2.03z"/><path class="cls-7" transform="rotate(-45 450.428 350.057)" d="M447.4 347.04h6.03v6.03h-6.03z"/><path class="cls-7" d="M429.69 321.13l2.03 2.03 2.03-2.03h-4.06z"/><path class="cls-7" transform="rotate(-45 437.943 337.588)" d="M434.94 334.57h6.03v6.03h-6.03z"/><path class="cls-7" d="M425.23 321.13l-4 4 4.26 4.26 4.26-4.26-4-4h-.52z"/><path class="cls-7" transform="rotate(-45 431.725 331.364)" d="M428.71 328.34h6.03v6.03h-6.03z"/><path class="cls-7" transform="rotate(-45 350.716 362.509)" d="M347.71 359.5h6.03v6.03h-6.03z"/><path class="cls-7" d="M412.77 321.13l-4 4 4.26 4.26 4.26-4.26-4-4h-.52z"/><path class="cls-7" transform="rotate(-45 419.254 331.36)" d="M416.24 328.34h6.03v6.03h-6.03z"/><path class="cls-7" d="M417.23 321.13l2.03 2.03 2.03-2.03h-4.06z"/><path class="cls-7" transform="rotate(-45 425.496 337.594)" d="M422.48 334.57h6.03v6.03h-6.03z"/><path class="cls-7" transform="rotate(-45 381.875 331.362)" d="M378.86 328.34h6.03v6.03h-6.03z"/><path class="cls-7" transform="rotate(-45 375.645 337.593)" d="M372.63 334.57h6.03v6.03h-6.03z"/><path class="cls-7" transform="rotate(-45 369.404 343.818)" d="M366.4 340.81h6.03v6.03h-6.03z"/><path class="cls-7" d="M383.91 321.13h-4.07l2.04 2.03 2.03-2.03zm8.46 4l-4-4h-.53l-4 4 4.27 4.26 4.26-4.26zm-41.65 4.26l4.27-4.26-4-4h-.53l-4 4 4.26 4.26zm6.23-6.23l2.04-2.03h-4.07l2.03 2.03z"/><path class="cls-7" transform="rotate(-45 350.714 337.59)" d="M347.71 334.57h6.03v6.03h-6.03z"/><path class="cls-7" transform="rotate(-45 356.956 331.364)" d="M353.94 328.34h6.03v6.03h-6.03z"/><path class="cls-7" d="M442.15 321.13l2.03 2.03 2.04-2.03h-4.07zm-74.7 4l-4-4h-.53l-4 4 4.26 4.26 4.27-4.26zm-24.24 21.67l1.28 1.28 4.26-4.26-4.26-4.26-1.28 1.28v5.96zm1.28-23.64l2.04-2.03h-3.32v.75l1.28 1.28z"/><path class="cls-7" transform="rotate(-45 431.726 343.823)" d="M428.71 340.81h6.03v6.03h-6.03z"/><path class="cls-7" d="M450.15 321.13l-4 4 4.26 4.26 4.27-4.26-4-4h-.53z"/><path class="cls-7" transform="rotate(-45 363.186 337.594)" d="M360.17 334.57h6.03v6.03h-6.03z"/><path class="cls-7" d="M437.69 321.13l-4 4 4.26 4.26 4.26-4.26-4-4h-.52zm-57.78 4l-4-4h-.53l-4 4 4.26 4.26 4.27-4.26z"/><path class="cls-7" transform="rotate(-45 356.956 343.824)" d="M353.94 340.81h6.03v6.03h-6.03z"/><path class="cls-7" transform="rotate(-45 369.403 331.358)" d="M366.4 328.34h6.03v6.03h-6.03z"/><path class="cls-7" transform="rotate(-45 350.715 350.05)" d="M347.71 347.04h6.03v6.03h-6.03z"/><path class="cls-7" transform="rotate(-45 450.427 337.597)" d="M447.4 334.57h6.03v6.03h-6.03z"/><path class="cls-7" d="M343.21 359.26l1.28 1.29 4.26-4.27-4.26-4.26-1.28 1.28v5.96z"/><path class="cls-7" transform="rotate(-45 444.173 331.358)" d="M441.17 328.34h6.03v6.03h-6.03z"/><path class="cls-7" d="M456.64 348.08l1.29-1.28v-5.96l-1.29-1.28-4.26 4.26 4.26 4.26zm-108.71 40.83l2.79 2.79 4.27-4.27-4.27-4.26-3.57 3.57c.25.73.51 1.45.78 2.17zm77.56 31.64l-4.26 4.27 1.19 1.19a53.4 53.4 0 005.26-3.27zm-6.23 6.24l-1.47 1.47c.68-.29 1.35-.6 2-.92zm-37.38 0l-.56.55c.67.32 1.35.63 2 .92zm-1.97-1.97l-4.26-4.27-2.2 2.19a54.6 54.6 0 005.26 3.27zm64.27-22.96l-4.26 4.27 2.38 2.38q1.86-2.43 3.52-5zm-12.46 12.46l-4.26 4.27 2.48 2.48c1.59-1.22 3.12-2.54 4.6-3.93zm14.43-14.42l1.17 1.17q1.5-2.52 2.81-5.15zm8.85-16.13q1-3.39 1.71-6.82l-4.26 4.26zm-81.32 34.82l-4.27-4.27-2.81 2.82c1.48 1.39 3 2.71 4.59 3.93z"/><path class="cls-7" transform="rotate(-45 388.106 350.051)" d="M385.09 347.04h6.03v6.03h-6.03z"/><path class="cls-7" transform="rotate(-45 369.406 368.737)" d="M366.4 365.73h6.03v6.03h-6.03z"/><path class="cls-7" transform="rotate(-45 375.635 362.507)" d="M372.63 359.5h6.03v6.03h-6.03z"/><path class="cls-7" transform="rotate(-45 381.877 356.282)" d="M378.86 353.27h6.03v6.03h-6.03z"/><path class="cls-7" transform="rotate(-45 450.43 374.976)" d="M447.4 371.96h6.03v6.03h-6.03z"/><path class="cls-7" transform="rotate(-45 356.96 381.203)" d="M353.94 378.19h6.03v6.03h-6.03z"/><path class="cls-7" transform="rotate(-45 394.335 343.821)" d="M391.32 340.81h6.03v6.03h-6.03z"/><path class="cls-7" d="M355 399.9l-4-4c.88 1.76 1.81 3.48 2.81 5.16z"/><path class="cls-7" transform="rotate(-45 363.189 374.972)" d="M360.17 371.96h6.03v6.03h-6.03z"/><path class="cls-7" transform="rotate(-45 437.956 350.052)" d="M434.94 347.04h6.03v6.03h-6.03z"/><path class="cls-7" d="M361.22 406.13l-4.22-4.27-1.63 1.64a73.38 73.38 0 003.51 5z"/><path class="cls-7" transform="rotate(-45 356.958 368.743)" d="M353.94 365.73h6.03v6.03h-6.03z"/><path class="cls-7" transform="rotate(-45 375.646 350.052)" d="M372.63 347.04h6.03v6.03h-6.03z"/><path class="cls-7" transform="rotate(-45 444.188 368.741)" d="M441.17 365.73h6.03v6.03h-6.03z"/><path class="cls-7" transform="rotate(-45 350.717 374.968)" d="M347.71 371.96h6.03v6.03h-6.03z"/><path class="cls-7" transform="rotate(-45 363.188 362.513)" d="M360.17 359.5h6.03v6.03h-6.03z"/><path class="cls-7" transform="rotate(-45 444.187 356.282)" d="M441.17 353.27h6.03v6.03h-6.03z"/><path class="cls-7" transform="rotate(-45 450.43 362.516)" d="M447.4 359.5h6.03v6.03h-6.03z"/><path class="cls-7" d="M456.64 373l.77-.77a59.75 59.75 0 00.48-6.51l-1.25-1.25-4.26 4.26zm-110.45 10.77l2.57-2.57-4.27-4.26c.44 2.3 1.02 4.57 1.7 6.83z"/><path class="cls-7" transform="rotate(-45 369.405 356.277)" d="M366.4 353.27h6.03v6.03h-6.03z"/><path class="cls-7" transform="rotate(-45 381.876 343.822)" d="M378.86 340.81h6.03v6.03h-6.03z"/><path class="cls-7" transform="rotate(-45 431.727 356.283)" d="M428.71 353.27h6.03v6.03h-6.03z"/><path class="cls-7" transform="rotate(-45 437.957 362.512)" d="M434.94 359.5h6.03v6.03h-6.03z"/><path class="cls-7" transform="rotate(-45 419.255 343.82)" d="M416.24 340.81h6.03v6.03h-6.03z"/><path class="cls-7" transform="rotate(-45 425.497 350.053)" d="M422.48 347.04h6.03v6.03h-6.03z"/><path class="cls-7" transform="rotate(-45 394.334 331.361)" d="M391.32 328.34h6.03v6.03h-6.03z"/><path class="cls-7" transform="rotate(-45 388.105 337.592)" d="M385.09 334.57h6.03v6.03h-6.03z"/><path class="cls-7" transform="rotate(-45 406.806 331.365)" d="M403.78 328.34h6.03v6.03h-6.03z"/><path class="cls-7" transform="rotate(-45 413.024 337.59)" d="M410.01 334.57h6.03v6.03h-6.03z"/><path class="cls-7" d="M369.89 321.25c-32 12.45-27.15 43.71-27.15 43.71l-.2 23.2s1.76 1.2-19.48.83-22.85-13.17-22.85-13.17 1.84-22.72 2-35.77 17.91-21.31 17.91-21.31l48.57-3.36zm61.17 0c32 12.45 27.15 43.71 27.15 43.71l.2 23.2s-1.75 1.2 19.48.83 22.85-13.17 22.85-13.17-1.84-22.72-2-35.77-17.91-21.31-17.91-21.31l-48.57-3.36z"/><path class="cls-7" d="M361.16 316.22s-7.47 29.54 19.34 30.38l-10.15-10.53 1.14-20.69zm78.68 0s7.47 29.54-19.34 30.38l10.15-10.53-1.14-20.69z"/><g id="brand-nike"><path id="nike" class="cls-6" d="M373.82 364.69c0 1.2-1.57 2.17-3.49 2.17h-9.25c-1.92 0-3.5-1-3.5-2.17s1.58-2.16 3.5-2.16h9.25c1.92 0 3.49.97 3.49 2.16z"/></g><g clip-path="url(#clip-path)"><g clip-path="url(#clip-path-2)" id="crest-portugal-02"><path class="cls-10" d="M433.27 385.17a3 3 0 01-3-3V363a3 3 0 016 0v19.23a3 3 0 01-3 3"/><path class="cls-11" d="M433.27 385.89a3.72 3.72 0 01-3.71-3.71V363a3.71 3.71 0 117.41 0v19.23a3.71 3.71 0 01-3.7 3.71m0-25.21A2.27 2.27 0 00431 363v19.23a2.28 2.28 0 004.55 0V363a2.27 2.27 0 00-2.27-2.27"/><path class="cls-10" d="M423.06 370.24a3 3 0 013-3h14.45a3 3 0 010 6H426a3 3 0 01-3-3"/><path class="cls-11" d="M440.49 373.94H426a3.71 3.71 0 010-7.41h14.45a3.71 3.71 0 010 7.41M426 368a2.28 2.28 0 000 4.55h14.45a2.28 2.28 0 000-4.55z"/><path class="cls-10" d="M435.6 379.38h-4.43a3.58 3.58 0 01-3.58-3.59v-7.38a3.58 3.58 0 013.58-3.59h4.43a3.58 3.58 0 013.58 3.59v7.38a3.58 3.58 0 01-3.58 3.59"/><path class="cls-11" d="M435.6 380.1h-4.43a4.31 4.31 0 01-4.3-4.31v-7.38a4.31 4.31 0 014.3-4.3h4.43a4.31 4.31 0 014.3 4.3v7.38a4.31 4.31 0 01-4.3 4.31m-4.43-14.56a2.88 2.88 0 00-2.87 2.87v7.38a2.87 2.87 0 002.87 2.87h4.43a2.87 2.87 0 002.87-2.87v-7.38a2.88 2.88 0 00-2.87-2.87z"/><path class="cls-3" d="M434.55 375.94h-2.33a1.89 1.89 0 01-1.89-1.89v-3.89a1.89 1.89 0 011.89-1.89h2.33a1.88 1.88 0 011.89 1.89v3.89a1.89 1.89 0 01-1.89 1.89"/><path d="M434 374.13h-1.23a1 1 0 01-1-1v-2.05a1 1 0 011-1H434a1 1 0 011 1v2.05a1 1 0 01-1 1" fill="#154a94"/></g></g><path class="cls-6" d="M355.81 389.71v-12.63l-2.16 2.25a1.81 1.81 0 01-1.26.55 1.78 1.78 0 01-1.78-1.78 1.85 1.85 0 01.51-1.26l4.75-4.75a2.5 2.5 0 011.78-.72 2.47 2.47 0 012.46 2.46v15.88a2.15 2.15 0 01-4.3 0zm15.61-18.43c5.72 0 8.3 5.17 8.3 10.34s-2.58 10.38-8.3 10.38-8.29-5.2-8.29-10.37 2.55-10.35 8.29-10.35zm0 3.78c-2.88 0-4 2.86-4 6.56s1.08 6.58 4 6.58 3.94-2.88 3.94-6.58-1.08-6.56-3.94-6.56z"/></g><path id="neck" fill="#593325" d="M428.13 341.21l-27.59 8.62-28.6-9.62-1.92-23.62h61.04l-2.93 24.62z"/><path d="M503.38 369.38L500.91 339c-1.19-11.87-11.83-22.25-23.72-23.14l-37.14-2.7c-4.07-.45-20.52-.09-39.55.53-19-.62-35.48-1-39.55-.53l-37.14 2.7c-11.89.89-22.53 11.27-23.72 23.14l-2.47 30.36a20.14 20.14 0 005 15.74 18.65 18.65 0 001.69 1.64v66.36c0 12.81 9.32 23.23 20.78 23.23a19.8 19.8 0 0015.21-7.43v21.79a12.24 12.24 0 007.74 11.36v68h-5.93c-10.93 0-19.83 5.8-19.83 17.11 0 8.06 0 17 11.72 19.7v1.6a1.37 1.37 0 001.38 1.37h1.63a1.37 1.37 0 001.38-1.37v-1q1.72.15 3.72.15H344v.8a1.37 1.37 0 001.38 1.37h1.63a1.37 1.37 0 001.38-1.37v-.8H354v.8a1.37 1.37 0 001.38 1.37h1.63a1.37 1.37 0 001.38-1.37v-.8H364v.8a1.37 1.37 0 001.38 1.37h1.63a1.37 1.37 0 001.38-1.37v-.8H374v.8a1.37 1.37 0 001.38 1.37h1.63a1.37 1.37 0 001.38-1.37v-.8H384v.8a1.37 1.37 0 001.38 1.37h1.63a1.37 1.37 0 001.38-1.37v-.8H394v.8a1.37 1.37 0 001.38 1.37h1.63a1.37 1.37 0 001.38-1.37v-.81l.06-55.46V503h4v49.21l.06 54.67v1.6a1.37 1.37 0 001.38 1.37h1.63a1.37 1.37 0 001.38-1.37v-.8h5.61v.8a1.37 1.37 0 001.38 1.37h1.63a1.37 1.37 0 001.38-1.37v-.8h5.61v.8a1.37 1.37 0 001.38 1.37h1.63a1.37 1.37 0 001.38-1.37v-.8h5.61v.8a1.37 1.37 0 001.38 1.37h1.63a1.37 1.37 0 001.38-1.37v-.8h5.61v.8a1.37 1.37 0 001.38 1.37h1.63a1.37 1.37 0 001.38-1.37v-.8h5.61v.8a1.37 1.37 0 001.38 1.37h1.63a1.37 1.37 0 001.38-1.37v-.8h1.89c1.33 0 2.56 0 3.72-.15v1a1.37 1.37 0 001.38 1.37h1.63a1.37 1.37 0 001.38-1.37v-1.6c11.71-2.68 11.72-11.64 11.72-19.7 0-11.31-8.9-17.11-19.83-17.11h-5.93v-68a12.24 12.24 0 007.74-11.36v-21.84a19.8 19.8 0 0015.21 7.43c11.46 0 20.78-10.42 20.78-23.23v-66.36a18.65 18.65 0 001.69-1.64 20.14 20.14 0 005.1-15.74zM372.89 323.2c3.46 1.85 15.64 2.08 27.61 1.8 12 .28 24.15.05 27.61-1.8V335c0 4.81-22.42 12-27.23 12l-.38-.07-.38.07c-4.81 0-27.23-7.18-27.23-12zm-33 75.43v55c0 9.5-6.63 17.23-14.78 17.23s-14.78-7.73-14.78-17.23v-62.78a21.07 21.07 0 007.47 1.36h22.09zm52.91 203.42h-50.65c-14.21 0-14.21-5-14.21-14.89 0-8.22 6.37-11.5 14.21-11.5h11.67l38.93-2.7.07 15.37zm-38.74-76.4h38.67v41.7L354.08 570h-.26v-44.4zm-.26-5.74v-17h38.93v16.93h-38.91zm104.77 55.75h.26c7.84 0 14.21 3.28 14.21 11.5 0 9.91 0 14.89-14.21 14.89h-50.65v-13.7l.07-15.37 38.93 2.7h11.41zm-11.67-50h.26v44.4h-.26l-38.67-2.68v-41.7zm-38.67-5.74V503h38.93v17h-38.91zm46.84-73.78H455v44.58a6.6 6.6 0 01-6.58 6.58h-1.26l-43.68-.05s-.11-3.72-.16-8.75v-2.8c0-3.52-1.41-5.09-2.82-5-1.41-.08-2.82 1.49-2.82 5v2.79c-.05 5-.16 8.75-.16 8.75l-43.68.05h-1.26a6.6 6.6 0 01-6.58-6.58v-44.58h-.07v-.33l30.25.33h48.68l30.25-.33zm35.56 7.51c0 9.5-6.63 17.23-14.78 17.23s-14.78-7.73-14.78-17.23v-61.44h22.09a21.07 21.07 0 007.47-1.36zm6-77.21a13.55 13.55 0 01-2.76 4.66 13.85 13.85 0 01-3.24 2.63 14.72 14.72 0 01-7.47 2l-22.09.09v-20.15c0-5.56-6.08-5.93-6.08 0s.08 14.37.08 14.37v59.59H345.91V380s.08-8.45.08-14.37-6.08-5.54-6.08 0v20.11l-22.09-.09a14.72 14.72 0 01-7.47-2 13.85 13.85 0 01-3.24-2.63 13.55 13.55 0 01-2.76-4.66 14.79 14.79 0 01-.75-6.46l2.46-30.35c.9-8.95 9.23-17.08 18.2-17.75l11.12-.84 32.21-2.29c.68.55.49 17.49.49 17.49 0 8.43 23.34 15.29 31.77 15.29h1.3c8.43 0 31.77-6.86 31.77-15.29 0 0-.19-16.94.49-17.49l32.21 2.33 11.12.84c9 .67 17.3 8.8 18.2 17.75L497.4 370a14.79 14.79 0 01-.75 6.43z" id="border"/><g id="head"><path id="skin-2" data-name="skin" class="cls-2" d="M446.88 254.05c0-.91.08-1.81.08-2.73 0-30.51-21.06-55.25-47-55.25s-47 24.74-47 55.25c0 1.11 0 2.22.1 3.31-4.05 2.46-6.91 8.44-6.91 15.43 0 9.19 4.93 16.64 11 16.64a7.48 7.48 0 002.1-.32c.82 24.5 18.73 44.08 40.73 44.08S440 310.65 440.66 286a7.65 7.65 0 003.25.74c6.09 0 11-7.45 11-16.64.02-7.67-3.39-14.1-8.03-16.05z"/><path class="cls-14" d="M383.33 325.64s3.28 4.82 16.59 4.82 18.21-4.82 18.21-4.82-7.5-8.64-18.23-8.64-16.57 8.64-16.57 8.64zm60.53-95.3c-6.47-30.16-40.17-33.94-43.63-34.24h-.31c-3.46.3-37.16 4.08-43.64 34.24 0 0-5 17 0 24.14 0 0 12.36-14.94 12.63-23.61s-1.67-13.93 4.29-12.88 13 3.91 26.77 3.94h.21C414 221.9 421 219 427 218s4 4.2 4.29 12.88 12.62 23.61 12.62 23.61c4.95-7.15-.05-24.15-.05-24.15z"/><path d="M399.92 333.46c-22.68 0-41.28-19-43.53-43.79-7.52-.49-13.32-8.93-13.32-19.61 0-7 2.64-13.45 6.84-16.92v-1.82c0-32.12 22.45-58.25 50-58.25s50 26.13 50 58.25v1c4.85 3.18 8 10 8 17.76 0 11-6.16 19.64-14 19.64h-.46c-2.25 24.79-20.78 43.74-43.53 43.74zm-40.73-50.08a3 3 0 013 2.9c.77 23.09 17.34 41.18 37.73 41.18 20.58 0 37.15-18.26 37.74-41.58a3 3 0 014.27-2.64 4.73 4.73 0 002 .46c4.35 0 8-6.25 8-13.64 0-7-3.13-11.94-6.22-13.25a3 3 0 01-1.83-2.89v-.18c0-.8.07-1.6.07-2.42 0-28.81-19.76-52.25-44-52.25s-44 23.44-44 52.25c0 .92 0 1.89.09 3.16a3 3 0 01-1.43 2.71c-3.27 2-5.47 7.16-5.47 12.87 0 7.39 3.67 13.64 8 13.64a4.69 4.69 0 001.25-.19 2.74 2.74 0 01.8-.13z" fill="#231f20"/><path class="cls-14" d="M390.66 301.57a3.06 3.06 0 00-2.34 4.28 2.27 2.27 0 002.32 1.26c3.58-.13 3.11-1.17 9.43-1.17a29.23 29.23 0 016.56.6 3.13 3.13 0 003.35-1.32c.74-1.15 1.08-2.44-.81-2.79-2.98-.54-13.07-1.81-18.51-.86z"/></g></svg>