<svg id="player" xmlns="http://www.w3.org/2000/svg" viewBox="0 0 800 800"><defs><clipPath id="clip-path"><circle cx="433.97" cy="370.12" r="9.22" fill="none"/></clipPath><style>.cls-2{fill:#492f21}.cls-3{fill:#fff7ea}.cls-5{fill:#fff}.cls-6{fill:#244ea1}.cls-7{fill:#e41e26}.cls-9{fill:#fdba13}.cls-12{fill:#231f20}.cls-13{fill:#2d1c15}</style></defs><g id="skin"><path id="arm-left" class="cls-2" d="M306.43 383h36.78v72.38a18.39 18.39 0 01-18.39 18.39 18.39 18.39 0 01-18.39-18.39V383z"/><path id="arm-right" class="cls-2" d="M457.69 383h36.78v72.38a18.39 18.39 0 01-18.39 18.39 18.39 18.39 0 01-18.39-18.39V383z"/><path id="leg-left" class="cls-2" d="M350.38 492.97h45.67v45.67h-45.67z"/><path id="leg-right" class="cls-2" d="M405.28 492.97h45.67v45.67h-45.67z"/></g><g id="boots"><path id="left" class="cls-3" d="M395.83 570.99H373l-22.83 1.98h-12.5l-7.5 2.52-5.25 8.5v9.83l1.91 4.17 3.84 4.06 6.33 1.94h58.83v-33z"/><path id="right" class="cls-3" d="M405.11 571.22h22.83l22.83 1.97h12.5l7.5 2.53 5.25 8.5v9.83l-1.91 4.17-3.84 4.05-6.33 1.95h-58.83v-33z"/><path d="M395.83 582.25s-75.93-2.86-49 22h49zm9.28 0s75.93-2.86 49 22h-49z" fill="#f8e8cd"/></g><g id="socks"><g id="socks-2" data-name="socks"><path id="left-2" data-name="left" class="cls-5" d="M350.38 522.95h45.67v48.04h-45.67z"/><path id="right-2" data-name="right" class="cls-5" d="M404.88 522.95h45.67v48.04h-45.67z"/></g><path class="cls-6" d="M350.77 552.19h45.06v5.85h-45.06zm54.41 0h45.06v5.85h-45.06z"/></g><g id="shorts"><path id="shorts-2" data-name="shorts" class="cls-6" d="M342.17 443.49h116.49v47a9.95 9.95 0 01-9.95 9.95h-96.6a9.95 9.95 0 01-9.95-9.95v-47h.01z"/></g><g id="shirt"><path id="shirt-2" data-name="shirt" class="cls-7" d="M370 315.75l-48.29 2.99-11.36 6.25-6.83 10.1-3.31 40.73 5.17 7.67 7.66 4.67h29.5l.17 54h114.83v-53.5l29.34-.17 7.01-4 6.99-10.5-3.4-37.33-6.83-11.84-9.77-6.08-49.84-2.99-1 21.24-6.5 6.5-11.16 3.48-11.88 2.02-15.46-3.17-11-5.66-3.66-3.84-.38-20.57z"/><path class="cls-5" d="M436 323.52h-.37c-.05-4-.11-7.17-.11-7.17l-6.86.21-.42 21.7-7.02 4.74-8.52 4-12.43 2.74-12.43-2.74-8.52-4-7.06-4.75-.42-21.7-6.86-.21s-.06 3.17-.11 7.17h-.37c-6.83 1-15 3.08-15.36 6.94a4.23 4.23 0 004.29 4.24 26.74 26.74 0 0011.37-3 79.49 79.49 0 00.18 8c.42 1.45 21.53 15.06 35.27 15.09 13.74 0 34.85-13.64 35.27-15.09a79.49 79.49 0 00.18-8 26.74 26.74 0 0011.37 3 4.23 4.23 0 004.29-4.24c-.36-3.85-8.49-5.89-15.36-6.93z"/><path d="M449 345.62l-105.95 48-.36 48.53 22.43 1.33 91.4-86.7a6.86 6.86 0 002.12-5 6.82 6.82 0 00-9.64-6.16z" fill="#ce2227"/><path class="cls-9" d="M434 381.07a11 11 0 01-6.37-19.86 11.8 11.8 0 011.1-.69 12.31 12.31 0 011.22-.58 10.78 10.78 0 011.36-.44 11 11 0 011.52-.27 11.28 11.28 0 011.74-.05 10.76 10.76 0 012.11.32 10.93 10.93 0 018 7.94 11.55 11.55 0 01.31 2.11v.57a11.48 11.48 0 01-.07 1.17 9.67 9.67 0 01-.27 1.52 10.78 10.78 0 01-.44 1.36 12.21 12.21 0 01-.57 1.22 9.73 9.73 0 01-.7 1.1 11 11 0 01-8.94 4.58zm0-19.44c-.3 0-.61 0-.91.05a7.88 7.88 0 00-1.18.21 8 8 0 00-1.05.34 10.08 10.08 0 00-.94.44 9.38 9.38 0 00-.85.54 8.49 8.49 0 1011.84 11.84 6.79 6.79 0 00.54-.85 6.69 6.69 0 00.44-.94 8 8 0 00.34-1.05 7.88 7.88 0 00.21-1.18 6.94 6.94 0 000-.91v-.44a9.14 9.14 0 00-.24-1.64 8.51 8.51 0 00-6.16-6.16 9 9 0 00-1.64-.24z"/><g clip-path="url(#clip-path)"><path class="cls-6" d="M426.07 367.73a10.26 10.26 0 011.92-6 10.29 10.29 0 1014.36 14.36 10.29 10.29 0 01-16.28-8.37z"/><path class="cls-5" d="M438.05 376.34a10.3 10.3 0 01-9-15.25 12 12 0 00-1 .65 10.29 10.29 0 0014.36 14.36 9.93 9.93 0 00.65-1 10.23 10.23 0 01-5.01 1.24z"/><path class="cls-7" d="M429.44 364.36a10.25 10.25 0 01.73-3.81 11 11 0 00-1.15.54 10.3 10.3 0 0014 14 11.87 11.87 0 00.54-1.14 10.45 10.45 0 01-3.81.72 10.29 10.29 0 01-10.31-10.31z"/><path class="cls-5" d="M441.42 373a10.3 10.3 0 01-10.3-10.3 10.08 10.08 0 01.32-2.53 10.46 10.46 0 00-1.27.41 10.29 10.29 0 009.56 14.1 10.45 10.45 0 003.81-.72 11.22 11.22 0 00.41-1.28 10.08 10.08 0 01-2.53.32z"/><path class="cls-6" d="M432.81 361a10.32 10.32 0 01.06-1.11 11 11 0 00-1.43.26 10.08 10.08 0 00-.32 2.53 10.3 10.3 0 0010.3 10.3 10.08 10.08 0 002.53-.32 9.5 9.5 0 00.26-1.43 10.18 10.18 0 01-1.11.06A10.29 10.29 0 01432.81 361z"/><path class="cls-5" d="M444.25 369.58a10.29 10.29 0 01-9.74-9.74h-.54a10 10 0 00-1.1.06 10.29 10.29 0 0010.23 11.4 10.18 10.18 0 001.11-.06 10 10 0 00.06-1.1c0-.2-.01-.38-.02-.56z"/><path class="cls-7" d="M436.49 360.13a10 10 0 00-2-.29 10.29 10.29 0 009.74 9.74 10 10 0 00-.29-2 10.29 10.29 0 01-7.45-7.45z"/><path class="cls-5" d="M436.49 360.13a10.29 10.29 0 007.51 7.47 10.34 10.34 0 00-7.51-7.47z"/></g><circle class="cls-9" cx="433.97" cy="370.12" r="5.22"/><g id="brand-new-balance"><path id="brand-new-balance-2" data-name="brand-new-balance" class="cls-5" d="M364.4 364h-7a1.22 1.22 0 00-1.22 1.22 1.22 1.22 0 001.22 1.22h3.07a1.22 1.22 0 011.16 1.6 1.23 1.23 0 01-1.16.84h-3.07a1.22 1.22 0 00-1.22 1.22 1.22 1.22 0 001.22 1.22h2.26a1.22 1.22 0 011.16 1.6 1.23 1.23 0 01-1.16.84h-2.26a1.22 1.22 0 00-1.22 1.22 1.22 1.22 0 001.22 1.22h8.92a3.14 3.14 0 003-2.15l2.12-6.34a2.83 2.83 0 00-2.68-3.71z"/></g><path class="cls-5" d="M392.4 396.53v-13.42l-2.3 2.4a1.91 1.91 0 01-1.34.57 1.89 1.89 0 01-1.89-1.88 2 2 0 01.54-1.34l5-5.05a2.66 2.66 0 011.89-.77 2.63 2.63 0 012.62 2.62v16.87a2.29 2.29 0 01-4.57 0zm13.04 0v-13.42l-2.3 2.4a1.91 1.91 0 01-1.34.57 1.89 1.89 0 01-1.89-1.88 2 2 0 01.54-1.34l5.05-5.05a2.66 2.66 0 011.89-.77 2.63 2.63 0 012.62 2.62v16.87a2.29 2.29 0 01-4.57 0z"/></g><path id="neck" fill="#382319" d="M428.13 341.21l-27.59 8.62-28.6-9.62-1.92-23.62h61.04l-2.93 24.62z"/><path d="M503.38 369.38L500.91 339c-1.19-11.87-11.83-22.25-23.72-23.14l-37.14-2.7c-4.07-.45-20.52-.09-39.55.53-19-.62-35.48-1-39.55-.53l-37.14 2.7c-11.89.89-22.53 11.27-23.72 23.14l-2.47 30.36a20.14 20.14 0 005 15.74 18.65 18.65 0 001.69 1.64v66.36c0 12.81 9.32 23.23 20.78 23.23a19.8 19.8 0 0015.21-7.43v21.79a12.24 12.24 0 007.74 11.36v68h-5.93c-10.93 0-19.83 5.8-19.83 17.11 0 8.06 0 17 11.72 19.7v1.6a1.37 1.37 0 001.38 1.37h1.63a1.37 1.37 0 001.38-1.37v-1q1.72.15 3.72.15H344v.8a1.37 1.37 0 001.38 1.37h1.63a1.37 1.37 0 001.38-1.37v-.8H354v.8a1.37 1.37 0 001.38 1.37h1.63a1.37 1.37 0 001.38-1.37v-.8H364v.8a1.37 1.37 0 001.38 1.37h1.63a1.37 1.37 0 001.38-1.37v-.8H374v.8a1.37 1.37 0 001.38 1.37h1.63a1.37 1.37 0 001.38-1.37v-.8H384v.8a1.37 1.37 0 001.38 1.37h1.63a1.37 1.37 0 001.38-1.37v-.8H394v.8a1.37 1.37 0 001.38 1.37h1.63a1.37 1.37 0 001.38-1.37v-.81l.06-55.46V503h4v49.21l.06 54.67v1.6a1.37 1.37 0 001.38 1.37h1.63a1.37 1.37 0 001.38-1.37v-.8h5.61v.8a1.37 1.37 0 001.38 1.37h1.63a1.37 1.37 0 001.38-1.37v-.8h5.61v.8a1.37 1.37 0 001.38 1.37h1.63a1.37 1.37 0 001.38-1.37v-.8h5.61v.8a1.37 1.37 0 001.38 1.37h1.63a1.37 1.37 0 001.38-1.37v-.8h5.61v.8a1.37 1.37 0 001.38 1.37h1.63a1.37 1.37 0 001.38-1.37v-.8h5.61v.8a1.37 1.37 0 001.38 1.37h1.63a1.37 1.37 0 001.38-1.37v-.8h1.89c1.33 0 2.56 0 3.72-.15v1a1.37 1.37 0 001.38 1.37h1.63a1.37 1.37 0 001.38-1.37v-1.6c11.71-2.68 11.72-11.64 11.72-19.7 0-11.31-8.9-17.11-19.83-17.11h-5.93v-68a12.24 12.24 0 007.74-11.36v-21.84a19.8 19.8 0 0015.21 7.43c11.46 0 20.78-10.42 20.78-23.23v-66.36a18.65 18.65 0 001.69-1.64 20.14 20.14 0 005.1-15.74zM372.89 323.2c3.46 1.85 15.64 2.08 27.61 1.8 12 .28 24.15.05 27.61-1.8V335c0 4.81-22.42 12-27.23 12l-.38-.07-.38.07c-4.81 0-27.23-7.18-27.23-12zm-33 75.43v55c0 9.5-6.63 17.23-14.78 17.23s-14.78-7.73-14.78-17.23v-62.78a21.07 21.07 0 007.47 1.36h22.09zm52.91 203.42h-50.65c-14.21 0-14.21-5-14.21-14.89 0-8.22 6.37-11.5 14.21-11.5h11.67l38.93-2.7.07 15.37zm-38.74-76.4h38.67v41.7L354.08 570h-.26v-44.4zm-.26-5.74v-17h38.93v16.93h-38.91zm104.77 55.75h.26c7.84 0 14.21 3.28 14.21 11.5 0 9.91 0 14.89-14.21 14.89h-50.65v-13.7l.07-15.37 38.93 2.7h11.41zm-11.67-50h.26v44.4h-.26l-38.67-2.68v-41.7zm-38.67-5.74V503h38.93v17h-38.91zm46.84-73.78H455v44.58a6.6 6.6 0 01-6.58 6.58h-1.26l-43.68-.05s-.11-3.72-.16-8.75v-2.8c0-3.52-1.41-5.09-2.82-5-1.41-.08-2.82 1.49-2.82 5v2.79c-.05 5-.16 8.75-.16 8.75l-43.68.05h-1.26a6.6 6.6 0 01-6.58-6.58v-44.58h-.07v-.33l30.25.33h48.68l30.25-.33zm35.56 7.51c0 9.5-6.63 17.23-14.78 17.23s-14.78-7.73-14.78-17.23v-61.44h22.09a21.07 21.07 0 007.47-1.36zm6-77.21a13.55 13.55 0 01-2.76 4.66 13.85 13.85 0 01-3.24 2.63 14.72 14.72 0 01-7.47 2l-22.09.09v-20.15c0-5.56-6.08-5.93-6.08 0s.08 14.37.08 14.37v59.59H345.91V380s.08-8.45.08-14.37-6.08-5.54-6.08 0v20.11l-22.09-.09a14.72 14.72 0 01-7.47-2 13.85 13.85 0 01-3.24-2.63 13.55 13.55 0 01-2.76-4.66 14.79 14.79 0 01-.75-6.46l2.46-30.35c.9-8.95 9.23-17.08 18.2-17.75l11.12-.84 32.21-2.29c.68.55.49 17.49.49 17.49 0 8.43 23.34 15.29 31.77 15.29h1.3c8.43 0 31.77-6.86 31.77-15.29 0 0-.19-16.94.49-17.49l32.21 2.33 11.12.84c9 .67 17.3 8.8 18.2 17.75L497.4 370a14.79 14.79 0 01-.75 6.43z" id="border"/><g id="head"><path class="cls-12" d="M400 196.27c24.79 0 31.88 12.79 31.88 12.79 9.63 4.94 5.1 18.78 5.1 18.78a1.88 1.88 0 00-1.05-.37c-2.08 0-2.9 4.78-5.4 4.78-.79 0-1.76-.48-3-1.74-2.76-2.84-8.58-3.64-14.25-3.64a86.51 86.51 0 00-12.37 1 1.12 1.12 0 01-.65.17h-.56a1.12 1.12 0 01-.65-.17 86.51 86.51 0 00-12.37-1c-5.67 0-11.49.8-14.25 3.64-1.22 1.26-2.19 1.74-3 1.74-2.5 0-3.32-4.78-5.4-4.78a1.88 1.88 0 00-1.05.37s-4.53-13.84 5.1-18.78c0 0 7.09-12.79 31.88-12.79m0-5c-11.27 0-20.69 2.43-28 7.21a28.59 28.59 0 00-7.4 6.82c-4.84 3-7.54 8.26-7.66 14.92a30.42 30.42 0 001.31 9.17 5 5 0 003.12 3.17 4.87 4.87 0 001.19.26c3 4.43 5.62 4.43 6.89 4.43 2.29 0 4.44-1.07 6.57-3.26.34-.35 2.47-2.12 10.66-2.12a80.33 80.33 0 0111 .86 6.38 6.38 0 002 .31h.56a6.38 6.38 0 002-.31 80.33 80.33 0 0111-.86c8.19 0 10.32 1.77 10.66 2.12 2.13 2.19 4.28 3.26 6.57 3.26 1.27 0 3.87 0 6.89-4.43a4.87 4.87 0 001.19-.26 5 5 0 003.12-3.17 30.42 30.42 0 001.31-9.17c-.12-6.66-2.82-11.9-7.66-14.92a28.59 28.59 0 00-7.4-6.82c-7.29-4.78-16.71-7.21-28-7.21z"/><path id="skin-2" data-name="skin" class="cls-2" d="M446.88 254.05c0-.91.08-1.81.08-2.73 0-30.51-21.06-55.25-47-55.25s-47 24.74-47 55.25c0 1.11 0 2.22.1 3.31-4.05 2.46-6.91 8.44-6.91 15.43 0 9.19 4.93 16.64 11 16.64a7.48 7.48 0 002.1-.32c.82 24.5 18.73 44.08 40.73 44.08S440 310.65 440.66 286a7.65 7.65 0 003.25.74c6.09 0 11-7.45 11-16.64.02-7.67-3.39-14.1-8.03-16.05z"/><path class="cls-13" d="M356 253.18s11.6-18.71 12.45-25.53 1.66-8.52 4.56-8.1 21.43 3.62 27 3.62l.06-25.24s-28.91-3.06-39.47 26.1-9.84 18.46-4.6 29.15z"/><path class="cls-12" d="M399.92 333.46c-22.68 0-41.28-19-43.53-43.79-7.52-.49-13.32-8.93-13.32-19.61 0-7 2.64-13.45 6.84-16.92v-1.82c0-32.12 22.45-58.25 50-58.25s50 26.13 50 58.25v1c4.85 3.18 8 10 8 17.76 0 11-6.16 19.64-14 19.64h-.46c-2.25 24.79-20.78 43.74-43.53 43.74zm-40.73-50.08a3 3 0 013 2.9c.77 23.09 17.34 41.18 37.73 41.18 20.58 0 37.15-18.26 37.74-41.58a3 3 0 014.27-2.64 4.73 4.73 0 002 .46c4.35 0 8-6.25 8-13.64 0-7-3.13-11.94-6.22-13.25a3 3 0 01-1.83-2.89v-.18c0-.8.07-1.6.07-2.42 0-28.81-19.76-52.25-44-52.25s-44 23.44-44 52.25c0 .92 0 1.89.09 3.16a3 3 0 01-1.43 2.71c-3.27 2-5.47 7.16-5.47 12.87 0 7.39 3.67 13.64 8 13.64a4.69 4.69 0 001.25-.19 2.74 2.74 0 01.8-.13z"/><path class="cls-13" d="M444 253.18s-11.6-18.71-12.45-25.53-1.66-8.52-4.56-8.1-21.43 3.62-27 3.62l.01-25.24s28.91-3.06 39.47 26.1 9.77 18.46 4.53 29.15z"/><path d="M431.88 209.06s-7.09-12.79-31.88-12.79-31.88 12.79-31.88 12.79c-9.63 4.94-5.1 18.78-5.1 18.78 3.71-2.48 3.75 8.52 9.43 2.67 5.17-5.33 21.13-3.47 26.62-2.64a3.16 3.16 0 001.86 0c5.49-.83 21.45-2.69 26.62 2.64 5.68 5.85 5.72-5.15 9.43-2.67.02 0 4.53-13.84-5.1-18.78z" fill="#0c0a0a"/></g></svg>