<svg id="player" xmlns="http://www.w3.org/2000/svg" viewBox="0 0 800 800"><defs><style>.cls-1{fill:#502b18}.cls-2{fill:#f1f2f2}.cls-3{fill:#fff}.cls-5{fill:#044e9f}.cls-8{fill:#231f20}.cls-11{fill:#d83439}</style></defs><g id="skin"><path id="arm-left" class="cls-1" d="M306.43 383h36.78v72.38a18.39 18.39 0 01-18.39 18.39 18.39 18.39 0 01-18.39-18.39V383z"/><path id="arm-right" class="cls-1" d="M457.69 383h36.78v72.38a18.39 18.39 0 01-18.39 18.39 18.39 18.39 0 01-18.39-18.39V383z"/><path id="leg-left" class="cls-1" d="M350.38 492.97h45.67v45.67h-45.67z"/><path id="leg-right" class="cls-1" d="M405.28 492.97h45.67v45.67h-45.67z"/></g><g id="boots"><path id="left" class="cls-2" d="M395.83 570.99H373l-22.83 1.98h-12.5l-7.5 2.52-5.25 8.5v9.83l1.91 4.17 3.84 4.06 6.33 1.94h58.83v-33z"/><path id="right" class="cls-2" d="M405.11 571.22h22.83l22.83 1.97h12.5l7.5 2.53 5.25 8.5v9.83l-1.91 4.17-3.84 4.05-6.33 1.95h-58.83v-33z"/></g><g id="socks"><g id="socks-2" data-name="socks"><path id="left-2" data-name="left" class="cls-3" d="M350.38 522.95h45.67v48.04h-45.67z"/><path id="right-2" data-name="right" class="cls-3" d="M404.88 522.95h45.67v48.04h-45.67z"/></g></g><g id="shorts"><path id="shorts-2" data-name="shorts" class="cls-3" d="M342.17 443.49h116.49v47a9.95 9.95 0 01-9.95 9.95h-96.6a9.95 9.95 0 01-9.95-9.95v-47h.01z"/></g><g id="shirt"><path id="shirt-2" data-name="shirt" class="cls-3" d="M370 315.75l-48.29 2.99-11.36 6.25-6.83 10.1-3.31 40.73 5.17 7.67 7.66 4.67h29.5l.17 54h114.83v-53.5l29.34-.17 7.01-4 6.99-10.5-3.4-37.33-6.83-11.84-9.77-6.08-49.84-2.99-1 21.24-6.5 6.5-11.16 3.48-11.88 2.02-15.46-3.17-11-5.66-3.66-3.84-.38-20.57z"/><g opacity=".1"><path class="cls-5" d="M412.65 339.64l7.66-4.05H380.8l7.67 4.05h24.18zm-3.32 62.19l1.19-.63H390.6l1.19.63a18.77 18.77 0 0017.54 0zM375 332.54l3.88 2h43.3l3.88-2a21.58 21.58 0 015.4-2h-61.83a21.58 21.58 0 015.37 2zm34.33 8.85l1.43-.75h-20.4l1.43.75a18.77 18.77 0 0017.54 0zm-20.66 94.15h23.78l7.66-4.05h-39.1l7.66 4.05zm-9.55-5.05H422l7.66-4.05h-58.2l7.66 4.05z"/><path class="cls-5" d="M409.33 401.83a18.77 18.77 0 01-17.54 0l-1.19-.63h-46.83v4.05h113.58v-4.05h-46.83zm-39.77 23.61h62l7.66-4.05H361.9l7.66 4.05zm42.85-25.24h44.94v-4.04h-37.28l-7.66 4.04zm19.11-10.09h25.83v-4.05h-18.17l-7.66 4.05zm9.55-5.05h16.28v-4.05h-8.61l-7.67 4.05zm-19.11 10.1h35.39v-4.05h-27.72l-7.67 4.05zm-30.17 42.02a18.77 18.77 0 0017.54 0l1.22-.64h-20zm-39.41-56.17h-8.61v4.05h16.28l-7.67-4.05zm19.11 10.1h-27.72v4.05h35.38l-7.66-4.05zm-9.55-5.05h-18.17v4.05h25.83l-7.66-4.05zm95.41-9.6l-6.72 3.55h6.72v-3.55zm-113.58 0v3.55h6.72l-6.72-3.55zm0 29.79h113.58v4.05H343.77zm37.28-10.09h-37.28v4.04h44.94l-7.66-4.04zm-37.28 15.65l6.68 3.54h100.21l6.69-3.54v-.51H343.77v.51zm16.24 8.58h81.1l7.66-4.04h-96.42l7.66 4.04zm-16.17-70.66h113.44a20.65 20.65 0 00-.69-4.05H344.52a21.41 21.41 0 00-.68 4.05zm25.48 15.14h62.48l7.66-4.05h-77.8l7.66 4.05zm19.11 10.1h24.26l7.66-4.05h-39.58l7.66 4.05zm-9.55-5.05h43.37l7.66-4.05h-58.7l7.67 4.05zm-35.11-18.54l6.44 3.4h100.7l6.44-3.4v-.65H343.79c0 .27-.02.43-.02.65zm48.02 25.36a18.77 18.77 0 0017.54 0l1.47-.77h-20.48zM375 332.54a21.58 21.58 0 00-5.4-2h-9.05a21.46 21.46 0 00-8.62 4h27zm-15.23 27.28h81.58l7.66-4.04H352.1l7.67 4.04zm52.88-20.18h41.2a21.55 21.55 0 00-3.5-4.05h-30zm-31.85-4.05h-30a21.2 21.2 0 00-3.5 4.05h41.2zm50.69-5.05a21.58 21.58 0 00-5.4 2l-3.88 2h27a21.46 21.46 0 00-8.62-4zm-22.16 10.85a18.77 18.77 0 01-17.54 0l-1.43-.75h-43.72a21.35 21.35 0 00-1.81 4h111.46a20.77 20.77 0 00-1.82-4h-43.71z"/></g><path class="cls-5" d="M430 315.75l-.38 20.57-9.09 7.19-20.53 6.15-20.51-6.15-9.09-7.19-.4-20.57-4.86.84v18.31a12.38 12.38 0 005.47 10.27c6.27 4.2 16.79 7.34 25.43 7.94l2.81 12.56a1.17 1.17 0 002.28 0l2.8-12.56c8.64-.6 19.16-3.74 25.43-7.94a12.38 12.38 0 005.47-10.27v-18.31z"/><path class="cls-3" d="M339.85 337.59a2 2 0 01-2-2c0-6.74 16-10.76 20.86-11.83a2 2 0 01.85 3.91c-9.27 2-17.71 5.8-17.71 7.92a2 2 0 01-2 2zm120.32 0a2 2 0 002-2c0-6.74-16-10.76-20.86-11.83a2 2 0 00-.86 3.91c9.28 2 17.72 5.8 17.72 7.92a2 2 0 002 2zM433.23 364h-.34l-5.95.65c-1.13.12-1.87 1-1.59 1.89l1.15 3.68a5.18 5.18 0 01.15 2.53h6.58z"/><path d="M439.81 372.77a5.06 5.06 0 01.14-2.53l1.16-3.68c.28-.89-.47-1.77-1.6-1.89l-5.94-.65h-.34v8.77z" fill="#ed1e24"/><path class="cls-3" d="M440.22 374a5.38 5.38 0 01-.41-1.27h-6.58v10.92a3.09 3.09 0 001.31-.29l3.88-1.86c2.52-1.21 3.6-3.69 2.56-5.89z"/><path d="M426.65 372.77a5.41 5.41 0 01-.42 1.27l-.76 1.61c-1 2.2 0 4.68 2.56 5.89l3.88 1.86a3.14 3.14 0 001.32.29v-10.92z" fill="#18488f"/><circle class="cls-3" cx="433.23" cy="373.85" r="4.38"/><path class="cls-8" d="M433.23 378.77a4.93 4.93 0 114.92-4.92 4.92 4.92 0 01-4.92 4.92zm0-8.77a3.85 3.85 0 103.84 3.85 3.85 3.85 0 00-3.84-3.85z"/><path d="M433.43 383.93c-4.69 0-7-1.49-8.13-2.88a1.56 1.56 0 011.06-2.55c0 .13.53 3.3 7.07 3.3s7.06-3.17 7.08-3.3a1.56 1.56 0 011.06 2.55c-1.13 1.39-3.44 2.88-8.14 2.88z" fill="#198c44"/><path d="M433.23 364h.34l5.94.65c1.13.12 1.88 1 1.6 1.89l-1.11 3.7a5.06 5.06 0 00-.14 2.53 5.38 5.38 0 00.41 1.27l.76 1.61a3.91 3.91 0 01.16 3.05 1.57 1.57 0 01.43 2.35c-1.13 1.39-3.44 2.88-8.14 2.88s-7-1.49-8.13-2.88a1.56 1.56 0 01.11-2.11 3.94 3.94 0 01.06-3.29l.76-1.61a5.41 5.41 0 00.42-1.27 5.18 5.18 0 00-.15-2.53l-1.15-3.68c-.28-.89.46-1.77 1.59-1.89l5.95-.65h.34m0-2.15a5.63 5.63 0 00-.58 0l-5.94.65a4.06 4.06 0 00-3 1.77 3.43 3.43 0 00-.42 2.9l1.16 3.68a3.1 3.1 0 01.09 1.48 3.39 3.39 0 01-.25.76l-.76 1.61a6.06 6.06 0 00-.46 3.92 3.71 3.71 0 00.56 3.76 9.09 9.09 0 003.52 2.6 18.54 18.54 0 0012.47 0 9.09 9.09 0 003.57-2.59 3.7 3.7 0 00.77-3 3.77 3.77 0 00-.53-1.35 6.14 6.14 0 00-.55-3.31l-.76-1.61a3 3 0 01-.25-.76 3 3 0 01.08-1.48l1.16-3.68a3.4 3.4 0 00-.41-2.9 4.08 4.08 0 00-3-1.77l-5.94-.65h-.57z" fill="#e6d41c"/><g id="brand-new-balance"><path id="brand-new-balance-2" data-name="brand-new-balance" class="cls-11" d="M364.34 367.87h-7a1.22 1.22 0 00-1.22 1.22 1.22 1.22 0 001.22 1.22h3.07a1.21 1.21 0 011.16 1.6 1.22 1.22 0 01-1.16.84h-3.07a1.22 1.22 0 00-1.22 1.22 1.22 1.22 0 001.22 1.22h2.26a1.22 1.22 0 011.16 1.6 1.23 1.23 0 01-1.16.84h-2.26a1.22 1.22 0 00-1.22 1.22 1.22 1.22 0 001.22 1.22h8.92a3.16 3.16 0 003-2.16l2.11-6.33a2.82 2.82 0 00-2.68-3.71z"/></g><path class="cls-11" d="M387.91 399.29a2.13 2.13 0 01.76-1.62c6.24-5.09 8.08-6.91 8.08-9.11a2.43 2.43 0 00-2.68-2.39 5.45 5.45 0 00-3.46 1.23 1.35 1.35 0 01-.86.31 1.66 1.66 0 01-1.57-1.74 1.84 1.84 0 01.66-1.4 8 8 0 015.16-1.87c3.49 0 6.26 2.2 6.26 5.86 0 3.14-2.31 5.86-6.7 9.33H399a1.73 1.73 0 010 3.44h-9.3a2 2 0 01-1.79-2.04zm18.64.28V388l-1.77 2.06a1.38 1.38 0 01-1 .5 1.55 1.55 0 01-1.48-1.56 1.78 1.78 0 01.42-1.16l3.88-4.35a1.94 1.94 0 011.45-.66 2.16 2.16 0 012 2.26v14.53a1.76 1.76 0 11-3.51 0z"/><path class="cls-5" d="M488.72 330.46H311.81c-3 0-4.42-2.77-2.25-4.32l12.29-8.79h155.9l13.14 8.73c2.28 1.52.87 4.38-2.17 4.38z"/></g><path id="neck" fill="#2d1811" d="M428.13 341.21l-27.59 8.62-28.6-9.62-1.92-23.62h61.04l-2.93 24.62z"/><path d="M503.38 369.38L500.91 339c-1.19-11.87-11.83-22.25-23.72-23.14l-37.14-2.7c-4.07-.45-20.52-.09-39.55.53-19-.62-35.48-1-39.55-.53l-37.14 2.7c-11.89.89-22.53 11.27-23.72 23.14l-2.47 30.36a20.14 20.14 0 005 15.74 18.65 18.65 0 001.69 1.64v66.36c0 12.81 9.32 23.23 20.78 23.23a19.8 19.8 0 0015.21-7.43v21.79a12.24 12.24 0 007.74 11.36v68h-5.93c-10.93 0-19.83 5.8-19.83 17.11 0 8.06 0 17 11.72 19.7v1.6a1.37 1.37 0 001.38 1.37h1.63a1.37 1.37 0 001.38-1.37v-1q1.72.15 3.72.15H344v.8a1.37 1.37 0 001.38 1.37h1.63a1.37 1.37 0 001.38-1.37v-.8H354v.8a1.37 1.37 0 001.38 1.37h1.63a1.37 1.37 0 001.38-1.37v-.8H364v.8a1.37 1.37 0 001.38 1.37h1.63a1.37 1.37 0 001.38-1.37v-.8H374v.8a1.37 1.37 0 001.38 1.37h1.63a1.37 1.37 0 001.38-1.37v-.8H384v.8a1.37 1.37 0 001.38 1.37h1.63a1.37 1.37 0 001.38-1.37v-.8H394v.8a1.37 1.37 0 001.38 1.37h1.63a1.37 1.37 0 001.38-1.37v-.81l.06-55.46V503h4v49.21l.06 54.67v1.6a1.37 1.37 0 001.38 1.37h1.63a1.37 1.37 0 001.38-1.37v-.8h5.61v.8a1.37 1.37 0 001.38 1.37h1.63a1.37 1.37 0 001.38-1.37v-.8h5.61v.8a1.37 1.37 0 001.38 1.37h1.63a1.37 1.37 0 001.38-1.37v-.8h5.61v.8a1.37 1.37 0 001.38 1.37h1.63a1.37 1.37 0 001.38-1.37v-.8h5.61v.8a1.37 1.37 0 001.38 1.37h1.63a1.37 1.37 0 001.38-1.37v-.8h5.61v.8a1.37 1.37 0 001.38 1.37h1.63a1.37 1.37 0 001.38-1.37v-.8h1.89c1.33 0 2.56 0 3.72-.15v1a1.37 1.37 0 001.38 1.37h1.63a1.37 1.37 0 001.38-1.37v-1.6c11.71-2.68 11.72-11.64 11.72-19.7 0-11.31-8.9-17.11-19.83-17.11h-5.93v-68a12.24 12.24 0 007.74-11.36v-21.84a19.8 19.8 0 0015.21 7.43c11.46 0 20.78-10.42 20.78-23.23v-66.36a18.65 18.65 0 001.69-1.64 20.14 20.14 0 005.1-15.74zM372.89 323.2c3.46 1.85 15.64 2.08 27.61 1.8 12 .28 24.15.05 27.61-1.8V335c0 4.81-22.42 12-27.23 12l-.38-.07-.38.07c-4.81 0-27.23-7.18-27.23-12zm-33 75.43v55c0 9.5-6.63 17.23-14.78 17.23s-14.78-7.73-14.78-17.23v-62.78a21.07 21.07 0 007.47 1.36h22.09zm52.91 203.42h-50.65c-14.21 0-14.21-5-14.21-14.89 0-8.22 6.37-11.5 14.21-11.5h11.67l38.93-2.7.07 15.37zm-38.74-76.4h38.67v41.7L354.08 570h-.26v-44.4zm-.26-5.74v-17h38.93v16.93h-38.91zm104.77 55.75h.26c7.84 0 14.21 3.28 14.21 11.5 0 9.91 0 14.89-14.21 14.89h-50.65v-13.7l.07-15.37 38.93 2.7h11.41zm-11.67-50h.26v44.4h-.26l-38.67-2.68v-41.7zm-38.67-5.74V503h38.93v17h-38.91zm46.84-73.78H455v44.58a6.6 6.6 0 01-6.58 6.58h-1.26l-43.68-.05s-.11-3.72-.16-8.75v-2.8c0-3.52-1.41-5.09-2.82-5-1.41-.08-2.82 1.49-2.82 5v2.79c-.05 5-.16 8.75-.16 8.75l-43.68.05h-1.26a6.6 6.6 0 01-6.58-6.58v-44.58h-.07v-.33l30.25.33h48.68l30.25-.33zm35.56 7.51c0 9.5-6.63 17.23-14.78 17.23s-14.78-7.73-14.78-17.23v-61.44h22.09a21.07 21.07 0 007.47-1.36zm6-77.21a13.55 13.55 0 01-2.76 4.66 13.85 13.85 0 01-3.24 2.63 14.72 14.72 0 01-7.47 2l-22.09.09v-20.15c0-5.56-6.08-5.93-6.08 0s.08 14.37.08 14.37v59.59H345.91V380s.08-8.45.08-14.37-6.08-5.54-6.08 0v20.11l-22.09-.09a14.72 14.72 0 01-7.47-2 13.85 13.85 0 01-3.24-2.63 13.55 13.55 0 01-2.76-4.66 14.79 14.79 0 01-.75-6.46l2.46-30.35c.9-8.95 9.23-17.08 18.2-17.75l11.12-.84 32.21-2.29c.68.55.49 17.49.49 17.49 0 8.43 23.34 15.29 31.77 15.29h1.3c8.43 0 31.77-6.86 31.77-15.29 0 0-.19-16.94.49-17.49l32.21 2.33 11.12.84c9 .67 17.3 8.8 18.2 17.75L497.4 370a14.79 14.79 0 01-.75 6.43z" id="border"/><g id="head"><path class="cls-8" d="M402.49 192.07c4.69 0 14.57.35 17 3.18 0 0 10.15 3.11 15.11 10.88 0 0 4.62 3.4 2.23 14a2.46 2.46 0 01-3.65 1.57c-4.18-2.44-11.65-7-12-8.2-.09-.36-.84-.51-2-.51-4 0-12.8 1.61-18.29 1.95v.06h-1.84v-.07c-5.49-.34-14.33-1.95-18.29-1.95-1.18 0-1.93.15-2 .51-.31 1.24-7.78 5.76-12 8.2a2.46 2.46 0 01-3.65-1.57c-2.39-10.57 2.23-14 2.23-14 5-7.77 15.11-10.88 15.11-10.88 2.44-2.84 12.32-3.18 17-3.18h4.98m0-5h-4.98c-13.08 0-17.75 2.23-19.71 3.83-3.12 1.17-11.39 4.8-16.27 12-1.89 1.94-5.71 7.4-3.25 18.3a7.47 7.47 0 0011.11 4.81c6.92-4 10.37-6.37 12.17-8 1.93.09 5 .5 8.05.9s5.84.76 8.36 1a4.57 4.57 0 001.17.14h1.84a4.57 4.57 0 001.17-.14c2.52-.2 5.48-.59 8.36-1s6.12-.81 8.05-.9c1.8 1.64 5.25 4 12.17 8a7.47 7.47 0 0011.05-4.79c2.46-10.9-1.36-16.36-3.25-18.3-4.88-7.2-13.15-10.83-16.27-12-2-1.6-6.63-3.83-19.71-3.83z"/><path id="skin-2" data-name="skin" class="cls-1" d="M446.88 254.05c0-.91.08-1.81.08-2.73 0-30.51-21.06-55.25-47-55.25s-47 24.74-47 55.25c0 1.11 0 2.22.1 3.31-4.05 2.46-6.91 8.44-6.91 15.43 0 9.19 4.93 16.64 11 16.64a7.48 7.48 0 002.1-.32c.82 24.5 18.73 44.08 40.73 44.08S440 310.65 440.66 286a7.65 7.65 0 003.25.74c6.09 0 11-7.45 11-16.64.02-7.67-3.39-14.1-8.03-16.05z"/><path class="cls-8" d="M399.92 333.46c-22.68 0-41.28-19-43.53-43.79-7.52-.49-13.32-8.93-13.32-19.61 0-7 2.64-13.45 6.84-16.92v-1.82c0-32.12 22.45-58.25 50-58.25s50 26.13 50 58.25v1c4.85 3.18 8 10 8 17.76 0 11-6.16 19.64-14 19.64h-.46c-2.25 24.79-20.78 43.74-43.53 43.74zm-40.73-50.08a3 3 0 013 2.9c.77 23.09 17.34 41.18 37.73 41.18 20.58 0 37.15-18.26 37.74-41.58a3 3 0 014.27-2.64 4.73 4.73 0 002 .46c4.35 0 8-6.25 8-13.64 0-7-3.13-11.94-6.22-13.25a3 3 0 01-1.83-2.89v-.18c0-.8.07-1.6.07-2.42 0-28.81-19.76-52.25-44-52.25s-44 23.44-44 52.25c0 .92 0 1.89.09 3.16a3 3 0 01-1.43 2.71c-3.27 2-5.47 7.16-5.47 12.87 0 7.39 3.67 13.64 8 13.64a4.69 4.69 0 001.25-.19 2.74 2.74 0 01.8-.13z"/><path d="M434.61 206.13c-5-7.77-15.11-10.88-15.11-10.88-3.24-3.75-19.5-3.15-19.5-3.15s-16.26-.6-19.5 3.15c0 0-10.15 3.11-15.11 10.88 0 0-4.62 3.4-2.23 14a2.47 2.47 0 003.65 1.57c4.18-2.44 11.65-7 12-8.2.4-1.58 13.18 1 20.31 1.44v.06h1.84v-.07c7.13-.45 19.91-3 20.31-1.44.31 1.24 7.78 5.76 12 8.2a2.47 2.47 0 003.65-1.57c2.31-10.59-2.31-13.99-2.31-13.99z" fill="#16100e"/></g></svg>