<svg id="player" xmlns="http://www.w3.org/2000/svg" viewBox="0 0 800 800"><defs><style>.cls-1{fill:#ddb397}.cls-2{fill:#ffecd1}.cls-4{fill:#fff}.cls-5{fill:#e41e26}.cls-6{fill:#231f20}.cls-11{fill:#261a18}</style></defs><g id="skin"><path id="arm-left" class="cls-1" d="M306.43 383h36.78v72.38a18.39 18.39 0 01-18.39 18.39 18.39 18.39 0 01-18.39-18.39V383z"/><path id="arm-right" class="cls-1" d="M457.69 383h36.78v72.38a18.39 18.39 0 01-18.39 18.39 18.39 18.39 0 01-18.39-18.39V383z"/><path id="leg-left" class="cls-1" d="M350.38 492.97h45.67v45.67h-45.67z"/><path id="leg-right" class="cls-1" d="M405.28 492.97h45.67v45.67h-45.67z"/></g><g id="boots"><path id="left" class="cls-2" d="M395.83 570.99H373l-22.83 1.98h-12.5l-7.5 2.52-5.25 8.5v9.83l1.91 4.17 3.84 4.06 6.33 1.94h58.83v-33z"/><path id="right" class="cls-2" d="M405.11 571.22h22.83l22.83 1.97h12.5l7.5 2.53 5.25 8.5v9.83l-1.91 4.17-3.84 4.05-6.33 1.95h-58.83v-33z"/><path d="M466.88 574.58s-25.44 11.56-41.94 9.32-19.44-6.52-19.44-6.52l-.39-6.39s51.89-.43 61.77 3.59zm-132.82 0s25.44 11.56 41.94 9.32 19.43-6.52 19.43-6.52l.4-6.39s-51.89-.43-61.77 3.59z" fill="#dbc0a1"/></g><g id="socks"><g id="socks-2" data-name="socks"><path id="left-2" data-name="left" class="cls-4" d="M350.38 522.95h45.67v48.04h-45.67z"/><path id="right-2" data-name="right" class="cls-4" d="M404.88 522.95h45.67v48.04h-45.67z"/></g><path class="cls-5" d="M351.83 527.3h44.74v1.75h-44.74zm0 3.5h44.74v1.75h-44.74zm53.05-3.5h44.74v1.75h-44.74zm0 3.5h44.74v1.75h-44.74z"/></g><g id="shorts"><path id="shorts-2" data-name="shorts" class="cls-4" d="M342.17 443.49h116.49v47a9.95 9.95 0 01-9.95 9.95h-96.6a9.95 9.95 0 01-9.95-9.95v-47h.01z"/><path class="cls-5" d="M347.89 443.49h1.97v56.08h-1.97zm3.94 0h1.97v56.08h-1.97zm95.34 0h1.97v56.08h-1.97zm3.94 0h1.97v56.08h-1.97z"/></g><g id="shirt"><path id="shirt-2" data-name="shirt" class="cls-4" d="M370 315.75l-48.29 2.99-11.36 6.25-6.83 10.1-3.31 40.73 5.17 7.67 7.66 4.67h29.5l.17 54h114.83v-53.5l29.34-.17 7.01-4 6.99-10.5-3.4-37.33-6.83-11.84-9.77-6.08-49.84-2.99-1 21.24-6.5 6.5-11.16 3.48-11.88 2.02-15.46-3.17-11-5.66-3.66-3.84-.38-20.57z"/><path class="cls-5" d="M343.07 379.18s-30.62-.42-38.52 1.6l4 5.15s18.67 3.73 34 2.23zm115.59 0s30.63-.42 38.53 1.6l-4 5.15s-18.67 3.73-33.95 2.23zM431 315.75l-.39 21.25-3.76 3.95-5.38 2.73-5.9 3.12-5.75 1.2-9.57 2.78-9.57-2.78-5.75-1.19-5.9-3.12-5.38-2.73-3.76-3.96-.39-21.23-4.75.87v18.05a12.88 12.88 0 004 9.37c5.08 4.8 15.18 11.58 31.48 11.27 16.3.31 26.39-6.47 31.47-11.27a12.88 12.88 0 004-9.37v-18.07z"/><path class="cls-5" d="M310 328.28l-1.16-1.63c4.68-3.34 52.32-5.36 57.74-5.58l.08 2c-21 .85-53.45 2.93-56.66 5.21zm-5.29 5.72l-1.16-1.63c4.68-3.33 57.1-5.35 63.06-5.57l.08 2c-23.17.82-58.8 2.91-61.98 5.2zm187-5.72l1.16-1.63c-4.68-3.34-52.32-5.36-57.74-5.58l-.08 2c21.03.85 53.48 2.93 56.66 5.21zM497 334l1.17-1.63c-4.68-3.33-57.1-5.35-63.07-5.57l-.07 2c23.19.82 58.82 2.91 61.97 5.2z"/><g id="brand-adidas"><g id="adidas"><rect id="bottom" class="cls-5" x="356.05" y="376.81" width="15.19" height="2.14" rx=".62" ry=".62"/><path class="cls-5" d="M363.72 368.11a1.33 1.33 0 00-.48 1.82l3.11 5.41a1.33 1.33 0 001.16.67h2.33l-4.29-7.42a1.34 1.34 0 00-1.83-.48zm-2.67 2.69a1.33 1.33 0 00-.49 1.81l1.53 2.72a1.34 1.34 0 001.17.68h2.32l-2.69-4.72a1.35 1.35 0 00-1.84-.49zm-2.93 2.35a1.34 1.34 0 00-.5 1.8l.21.37a1.33 1.33 0 001.17.68h2.32l-1.32-2.36a1.33 1.33 0 00-1.88-.49z"/></g></g><g id="crest-iran"><path class="cls-4" d="M440.36 386.38a8.05 8.05 0 01-9.34 0 6 6 0 01-2.5-4.85v-16.07h14.35v16.07a6 6 0 01-2.51 4.85z"/><path class="cls-6" d="M442.5 366v15.25a5.65 5.65 0 01-2.37 4.61 7.68 7.68 0 01-8.87 0 5.66 5.66 0 01-2.38-4.61V366h13.62m0-2.42h-13.62a2.42 2.42 0 00-2.42 2.42v15.25a8.09 8.09 0 003.39 6.58 10.05 10.05 0 0011.68 0 8.08 8.08 0 003.4-6.58V366a2.42 2.42 0 00-2.43-2.42z"/><rect x="429.65" y="367.24" width="12.09" height="1.88" rx=".84" ry=".84" fill="#17a049"/><rect x="429.65" y="371" width="12.09" height="1.88" rx=".84" ry=".84" fill="#db1f26"/><path class="cls-6" d="M435.69 384.88a5 5 0 115-5 5 5 0 01-5 5zm0-8.82a3.81 3.81 0 103.81 3.81 3.82 3.82 0 00-3.81-3.81z"/></g><path class="cls-6" d="M391 387.51V376l-2 2.05a1.65 1.65 0 01-1.15.5 1.62 1.62 0 01-1.61-1.62 1.67 1.67 0 01.47-1.15l4.31-4.32a2.3 2.3 0 011.62-.65 2.25 2.25 0 012.24 2.24v14.43a2 2 0 01-3.91 0zm14.19-16.75c5.2 0 7.55 4.7 7.55 9.4s-2.35 9.43-7.55 9.43-7.54-4.73-7.54-9.43 2.35-9.4 7.54-9.4zm0 3.44c-2.62 0-3.6 2.6-3.6 6s1 6 3.6 6 3.59-2.63 3.59-6-.99-6-3.59-6z"/></g><path id="neck" fill="#c39f86" d="M428.13 341.21l-27.59 8.62-28.6-9.62-1.92-23.62h61.04l-2.93 24.62z"/><path d="M503.38 369.38L500.91 339c-1.19-11.87-11.83-22.25-23.72-23.14l-37.14-2.7c-4.07-.45-20.52-.09-39.55.53-19-.62-35.48-1-39.55-.53l-37.14 2.7c-11.89.89-22.53 11.27-23.72 23.14l-2.47 30.36a20.14 20.14 0 005 15.74 18.65 18.65 0 001.69 1.64v66.36c0 12.81 9.32 23.23 20.78 23.23a19.8 19.8 0 0015.21-7.43v21.79a12.24 12.24 0 007.74 11.36v68h-5.93c-10.93 0-19.83 5.8-19.83 17.11 0 8.06 0 17 11.72 19.7v1.6a1.37 1.37 0 001.38 1.37h1.63a1.37 1.37 0 001.38-1.37v-1q1.72.15 3.72.15H344v.8a1.37 1.37 0 001.38 1.37h1.63a1.37 1.37 0 001.38-1.37v-.8H354v.8a1.37 1.37 0 001.38 1.37h1.63a1.37 1.37 0 001.38-1.37v-.8H364v.8a1.37 1.37 0 001.38 1.37h1.63a1.37 1.37 0 001.38-1.37v-.8H374v.8a1.37 1.37 0 001.38 1.37h1.63a1.37 1.37 0 001.38-1.37v-.8H384v.8a1.37 1.37 0 001.38 1.37h1.63a1.37 1.37 0 001.38-1.37v-.8H394v.8a1.37 1.37 0 001.38 1.37h1.63a1.37 1.37 0 001.38-1.37v-.81l.06-55.46V503h4v49.21l.06 54.67v1.6a1.37 1.37 0 001.38 1.37h1.63a1.37 1.37 0 001.38-1.37v-.8h5.61v.8a1.37 1.37 0 001.38 1.37h1.63a1.37 1.37 0 001.38-1.37v-.8h5.61v.8a1.37 1.37 0 001.38 1.37h1.63a1.37 1.37 0 001.38-1.37v-.8h5.61v.8a1.37 1.37 0 001.38 1.37h1.63a1.37 1.37 0 001.38-1.37v-.8h5.61v.8a1.37 1.37 0 001.38 1.37h1.63a1.37 1.37 0 001.38-1.37v-.8h5.61v.8a1.37 1.37 0 001.38 1.37h1.63a1.37 1.37 0 001.38-1.37v-.8h1.89c1.33 0 2.56 0 3.72-.15v1a1.37 1.37 0 001.38 1.37h1.63a1.37 1.37 0 001.38-1.37v-1.6c11.71-2.68 11.72-11.64 11.72-19.7 0-11.31-8.9-17.11-19.83-17.11h-5.93v-68a12.24 12.24 0 007.74-11.36v-21.84a19.8 19.8 0 0015.21 7.43c11.46 0 20.78-10.42 20.78-23.23v-66.36a18.65 18.65 0 001.69-1.64 20.14 20.14 0 005.1-15.74zM372.89 323.2c3.46 1.85 15.64 2.08 27.61 1.8 12 .28 24.15.05 27.61-1.8V335c0 4.81-22.42 12-27.23 12l-.38-.07-.38.07c-4.81 0-27.23-7.18-27.23-12zm-33 75.43v55c0 9.5-6.63 17.23-14.78 17.23s-14.78-7.73-14.78-17.23v-62.78a21.07 21.07 0 007.47 1.36h22.09zm52.91 203.42h-50.65c-14.21 0-14.21-5-14.21-14.89 0-8.22 6.37-11.5 14.21-11.5h11.67l38.93-2.7.07 15.37zm-38.74-76.4h38.67v41.7L354.08 570h-.26v-44.4zm-.26-5.74v-17h38.93v16.93h-38.91zm104.77 55.75h.26c7.84 0 14.21 3.28 14.21 11.5 0 9.91 0 14.89-14.21 14.89h-50.65v-13.7l.07-15.37 38.93 2.7h11.41zm-11.67-50h.26v44.4h-.26l-38.67-2.68v-41.7zm-38.67-5.74V503h38.93v17h-38.91zm46.84-73.78H455v44.58a6.6 6.6 0 01-6.58 6.58h-1.26l-43.68-.05s-.11-3.72-.16-8.75v-2.8c0-3.52-1.41-5.09-2.82-5-1.41-.08-2.82 1.49-2.82 5v2.79c-.05 5-.16 8.75-.16 8.75l-43.68.05h-1.26a6.6 6.6 0 01-6.58-6.58v-44.58h-.07v-.33l30.25.33h48.68l30.25-.33zm35.56 7.51c0 9.5-6.63 17.23-14.78 17.23s-14.78-7.73-14.78-17.23v-61.44h22.09a21.07 21.07 0 007.47-1.36zm6-77.21a13.55 13.55 0 01-2.76 4.66 13.85 13.85 0 01-3.24 2.63 14.72 14.72 0 01-7.47 2l-22.09.09v-20.15c0-5.56-6.08-5.93-6.08 0s.08 14.37.08 14.37v59.59H345.91V380s.08-8.45.08-14.37-6.08-5.54-6.08 0v20.11l-22.09-.09a14.72 14.72 0 01-7.47-2 13.85 13.85 0 01-3.24-2.63 13.55 13.55 0 01-2.76-4.66 14.79 14.79 0 01-.75-6.46l2.46-30.35c.9-8.95 9.23-17.08 18.2-17.75l11.12-.84 32.21-2.29c.68.55.49 17.49.49 17.49 0 8.43 23.34 15.29 31.77 15.29h1.3c8.43 0 31.77-6.86 31.77-15.29 0 0-.19-16.94.49-17.49l32.21 2.33 11.12.84c9 .67 17.3 8.8 18.2 17.75L497.4 370a14.79 14.79 0 01-.75 6.43z" id="border"/><g id="head"><path class="cls-6" d="M390.77 187.55c22.08 0 37.17 4.44 46 13.06 9 8.88 10.53 11.52 7.89 12-2.2.41-5.2 9.78-19.37 9.78a43.55 43.55 0 01-9.75-1.22c-17.82-4.14-17-13.64-26.85-13.64-2.71 0-6.23.71-11.16 2.45-22.92 8.07-9.38 29.61-15.3 36.36s-7.65 10.84-7.65 10.84-9.3-12.81-2.72-31.9 11.36-20.4 16-25 19.3-12.7 21-12.72h2m0-5h-2.1c-.9 0-2.77 0-11.82 5.32-3.36 2-9.45 5.72-12.6 8.86-.69.69-1.42 1.32-2.19 2-4.26 3.71-9.1 7.92-15 24.93-7.35 21.3 2.95 35.86 3.39 36.47l8.66-1s1.63-3.61 6.8-9.49c3.38-3.86 3-9.32 2.71-14.61-.54-8.74-1-16.29 10.49-20.34 4.14-1.45 7.25-2.16 9.5-2.16 2.54 0 3.57.81 6.41 3.36 3.59 3.23 8.5 7.64 19.31 10.15a48.67 48.67 0 0010.88 1.35c12.7 0 18.33-6.5 21-9.63l.5-.57a5.94 5.94 0 003.74-3.87c1.24-4.07-1.48-7.63-10.3-16.29-9.94-9.75-26.12-14.49-49.46-14.49z"/><path id="skin-2" data-name="skin" class="cls-1" d="M446.88 254.05c0-.91.08-1.81.08-2.73 0-30.51-21.06-55.25-47-55.25s-47 24.74-47 55.25c0 1.11 0 2.22.1 3.31-4.05 2.46-6.91 8.44-6.91 15.43 0 9.19 4.93 16.64 11 16.64a7.48 7.48 0 002.1-.32c.82 24.5 18.73 44.08 40.73 44.08S440 310.65 440.66 286a7.65 7.65 0 003.25.74c6.09 0 11-7.45 11-16.64.02-7.67-3.39-14.1-8.03-16.05z"/><path d="M436.87 258.17l-2.09 32.07-3.38 3.55a10.48 10.48 0 01-10.84 2.75L400.31 294l-20.26 2.58a10.48 10.48 0 01-10.84-2.75l-4.71-5-2.11-31.35a2.55 2.55 0 00-5.05.22c-.35 3.52-.3 26.82.67 28.63a9.94 9.94 0 002.57 3.2c0 2.24 0 5.19.13 8.67.32 8.13 14.3 23 20.55 28.25s19.05 6.75 19.05 6.75 12.79-1.5 19-6.75 20.23-20.12 20.55-28.25c.17-4.27.16-7.74.12-10.08a12.07 12.07 0 001.17-1.79c.91-1.69 1-24.67.74-27.91a2.55 2.55 0 00-5.02-.25zm-23.6 45.92c-.07 4.16-13 3.5-13 3.5s-12.9.66-13-3.5c0-3.31.07.47.19-1.91s1.94-2.22 4.27-2.43a114.51 114.51 0 0116.57 0c2.58.2 4.61.27 4.74 2.86.18 2.3.28-1.61.23 1.48z" fill="#130e0e" opacity=".1"/><path class="cls-11" d="M437.19 216.76c-10.74-20.82-35.34-20.74-37.43-20.69s-26.68-.13-37.43 20.69c-11.23 21.75-9.08 34.93-7.79 40.43 0 0 11.06-1.41 12.15-17.36s4.24-16.36 5.29-21.6c1-5 25.14-1.47 27.67-1.08h.23c2.53-.39 26.67-3.89 27.66 1.08 1 5.24 4.2 5.66 5.29 21.6S445 257.19 445 257.19c1.27-5.5 3.42-18.68-7.81-40.43z"/><path class="cls-6" d="M399.92 333.46c-22.68 0-41.28-19-43.53-43.79-7.52-.49-13.32-8.93-13.32-19.61 0-7 2.64-13.45 6.84-16.92v-1.82c0-32.12 22.45-58.25 50-58.25s50 26.13 50 58.25v1c4.85 3.18 8 10 8 17.76 0 11-6.16 19.64-14 19.64h-.46c-2.25 24.79-20.78 43.74-43.53 43.74zm-40.73-50.08a3 3 0 013 2.9c.77 23.09 17.34 41.18 37.73 41.18 20.58 0 37.15-18.26 37.74-41.58a3 3 0 014.27-2.64 4.73 4.73 0 002 .46c4.35 0 8-6.25 8-13.64 0-7-3.13-11.94-6.22-13.25a3 3 0 01-1.83-2.89v-.18c0-.8.07-1.6.07-2.42 0-28.81-19.76-52.25-44-52.25s-44 23.44-44 52.25c0 .92 0 1.89.09 3.16a3 3 0 01-1.43 2.71c-3.27 2-5.47 7.16-5.47 12.87 0 7.39 3.67 13.64 8 13.64a4.69 4.69 0 001.25-.19 2.74 2.74 0 01.8-.13z"/><path class="cls-11" d="M354.54 257.19s-9.3-12.81-2.72-31.9 11.36-20.4 16-25 19.3-12.7 21-12.72c23.2-.28 38.95 4.16 48 13.05s10.53 11.52 7.89 12-6.41 13.82-29.12 8.56-15.09-19.26-38-11.19-9.38 29.61-15.3 36.36-7.75 10.84-7.75 10.84z"/></g></svg>