<svg id="player" xmlns="http://www.w3.org/2000/svg" viewBox="0 0 800 800"><defs><clipPath id="clip-path"><path class="cls-1" d="M451.9 350.77c2.57-2.22 6.4-.24 6.37 3.29l-.38 38.71v12.4h-38.7v-26.1z"/></clipPath><clipPath id="clip-path-2"><path class="cls-1" d="M349.18 350.77c-2.57-2.22-6.4-.24-6.36 3.29l.37 38.71v12.4h38.73v-26.1z"/></clipPath><clipPath id="clip-path-3"><path class="cls-1" d="M424.2 361.54h20.73v23.31H424.2z"/></clipPath><clipPath id="clip-path-5"><path class="cls-1" d="M457.69 351.28h42.03v20.53h-42.03z"/></clipPath><style>.cls-1{fill:none}.cls-2{fill:#dca689}.cls-3{fill:#896556}.cls-4{fill:#98cc65}.cls-6{fill:#333}.cls-7{fill:#86d4e9}.cls-8{fill:#fff}.cls-11{clip-path:url(#clip-path-3)}.cls-12{fill:#ead552}.cls-13{fill:#28367e}.cls-14{fill:#ead553}.cls-15{clip-path:url(#clip-path-5)}.cls-17{fill:#231f20}</style></defs><g id="skin"><path id="arm-left" class="cls-2" d="M306.43 383h36.78v72.38a18.39 18.39 0 01-18.39 18.39 18.39 18.39 0 01-18.39-18.39V383z"/><path id="arm-right" class="cls-2" d="M457.69 383h36.78v72.38a18.39 18.39 0 01-18.39 18.39 18.39 18.39 0 01-18.39-18.39V383z"/><path id="leg-left" class="cls-2" d="M350.38 492.97h45.67v45.67h-45.67z"/><path id="leg-right" class="cls-2" d="M405.28 492.97h45.67v45.67h-45.67z"/></g><g id="boots"><path class="cls-3" d="M316.32 381.72s-6.18 17.17-2.92 25.41 18.14-10.71 11.73-21.41-8.81-4-8.81-4zm26.23 8.28l-.38 25s-6.45 8.76-9 7.21-9.44-4.29-7.21-9.27 9.27-2.57 9.44-5 2.75-17.51.52-17.94 6.63 0 6.63 0z"/><path class="cls-3" d="M334 396.31s.49 11.16-4.83 11.33-3.88-9.1 4.83-11.33zm-9.18 15.11s-14.51 20.86-17.08 19.44 0-13.95 0-13.95 8.07-8.07 17.08-5.49zm16.39 14.07c-.09-.51-13.22 0-13.22 0s-3.83 3.84-1.91 5.44 16.43 2.26 15.13-5.44zm-15.67-3.77s-4.24 13.39-7.33 13.21-3.04-13.07 7.33-13.21z"/><path id="left" class="cls-4" d="M395.83 570.99H373l-22.83 1.98h-12.5l-7.5 2.52-5.25 8.5v9.83l1.91 4.17 3.84 4.06 6.33 1.94h58.83v-33z"/><path id="right" class="cls-4" d="M405.11 571.22h22.83l22.83 1.97h12.5l7.5 2.53 5.25 8.5v9.83l-1.91 4.17-3.84 4.05-6.33 1.95h-58.83v-33z"/><path d="M466.88 574.58s-25.44 11.56-41.94 9.32-19.44-6.52-19.44-6.52l-.39-6.39s51.89-.43 61.77 3.59zm-61.38 21.25s21-1 22.84 8.16l-23 .23zm-71.44-21.25s25.44 11.56 41.94 9.32 19.43-6.52 19.43-6.52l.4-6.39s-51.89-.43-61.77 3.59zm61.37 21.25s-21-1-22.83 8.16l23 .23z" fill="#bed967"/><path class="cls-3" d="M313.5 439.61s10.08-4.11 14.62 0 14.59 2.55 14.59 2.55l-.54 7.89s-31.86.31-28.67-10.44z"/></g><g id="socks"><g id="socks-2" data-name="socks"><path id="left-2" data-name="left" class="cls-6" d="M350.38 522.95h45.67v48.04h-45.67z"/><path id="right-2" data-name="right" class="cls-6" d="M404.88 522.95h45.67v48.04h-45.67z"/></g><path class="cls-7" d="M351.83 527.3h44.74v1.75h-44.74z"/><path class="cls-8" d="M351.83 530.8h44.74v1.75h-44.74z"/><path class="cls-7" d="M404.88 527.3h44.74v1.75h-44.74z"/><path class="cls-8" d="M404.88 530.8h44.74v1.75h-44.74z"/></g><g id="shorts"><path id="shorts-2" data-name="shorts" class="cls-8" d="M342.17 443.49h116.49v47a9.95 9.95 0 01-9.95 9.95h-96.6a9.95 9.95 0 01-9.95-9.95v-47h.01z"/><path class="cls-6" d="M347.89 443.49h1.97v56.08h-1.97zm3.94 0h1.97v56.08h-1.97zm95.34 0h1.97v56.08h-1.97zm3.94 0h1.97v56.08h-1.97z"/></g><g id="shirt"><path id="shirt-2" data-name="shirt" class="cls-6" d="M370 315.75l-48.29 2.99-11.36 6.25-6.83 10.1-3.31 40.73 5.17 7.67 7.66 4.67h29.5l.17 54h114.83v-53.5l29.34-.17 7.01-4 6.99-10.5-3.4-37.33-6.83-11.84-9.77-6.08-49.84-2.99-1 21.24-6.5 6.5-11.16 3.48-11.88 2.02-15.46-3.17-11-5.66-3.66-3.84-.38-20.57z"/><path class="cls-8" d="M310 328.28l-1.16-1.63c4.68-3.34 52.32-5.36 57.74-5.58l.08 2c-21 .85-53.45 2.93-56.66 5.21zm-5.29 5.72l-1.16-1.63c4.68-3.33 57.1-5.35 63.06-5.57l.08 2c-23.17.82-58.8 2.91-61.98 5.2zm187-5.72l1.16-1.63c-4.68-3.34-52.32-5.36-57.74-5.58l-.08 2c21.03.85 53.48 2.93 56.66 5.21z"/><g clip-path="url(#clip-path)"><path class="cls-7" d="M421.39 377.36l-1.37 1.19h18.49l1.37-1.19h-18.49zm9.94-8.65l-1.37 1.19h18.49l1.37-1.19h-18.49zm11.88-10.34h15.15v-1.2h-13.78l-1.37 1.2zm6.63-5.77h8.52v-1.19h-7.15l-1.37 1.19zm3.31-2.89h5.21v-1.19h-3.84l-1.37 1.19zm-27.94 40.62h-.16l.05.1.11-.1zm31.26-43.5h1.89v-1.19h-.52l-1.37 1.19zm-9.94 8.65h11.83v-1.19H447.9l-1.37 1.19zm-22.24 33.41l.63 1.19h.58l1.36-1.19h-2.57zm3.73-17.3l-1.37 1.19h18.49l1.37-1.19h-18.49zm-3.31 2.89l-1.37 1.19h18.49l1.37-1.19h-18.49zm9.93-8.66l-1.36 1.2h18.49l1.37-1.2h-18.5zm-14.94 14.42l.64 1.19h14.86l1.37-1.19H419.7zm18.26-17.3l-1.37 1.19h18.49l1.37-1.19h-18.49zm-16.73 20.19l.63 1.19h10.03l1.37-1.19h-12.03zm18.67-21.88h18.46v-1.19h-17.09l-1.37 1.19zm-17.14 24.76l.63 1.19h5.4l1.36-1.19h-7.39z"/><path class="cls-8" d="M434.81 391.77l.63 1.2h5.2l1.35-1.2h-7.18zm-1.53-2.88l.64 1.19h9.83l1.37-1.19h-11.84zm3.29-8.65l-1.37 1.19h18.49l1.37-1.19h-18.49zm-.23 14.42l.63 1.19h.39l1.36-1.19h-2.38zm-4.58-8.65l.63 1.19h14.67l1.37-1.19h-16.67zm1.5-2.88l-1.37 1.19h18.49l1.37-1.19h-18.49zm19.88-17.31l-1.37 1.2h6.59v-1.2h-5.22zm-6.63 5.77l-1.37 1.19h13.22v-1.19h-11.85zm3.31-2.88l-1.37 1.19h9.91v-1.19h-8.54zm-9.94 8.65l-1.37 1.19H457l1.36-1.18v-.01h-18.48zm16.57-14.42l-1.37 1.19h3.28v-1.19h-1.91zm-13.25 11.54l-1.37 1.19h16.53v-1.19H443.2z"/><path class="cls-7" d="M447.49 398.73h5.05l1.37-1.19h-7.05l.63 1.19zm-1.52-2.88h9.89l1.37-1.19h-11.9l.64 1.19zm3.05 5.77h.21l1.37-1.19h-2.21l.63 1.19zm-4.58-8.65h13.45l.04-1.2h-14.12l.63 1.2zm7.31-9.84l-1.37 1.19h7.77l.04-1.19h-6.44zm-3.32 2.88l-1.37 1.19h11l.04-1.19h-9.67zm-3.31 2.88l-1.37 1.19h14.23l.03-1.19h-12.89zm13.2-10.34l.04-1.18-1.36 1.18h1.32zm-3.26 1.69l-1.37 1.19h4.55l.03-1.19h-3.21z"/></g><g clip-path="url(#clip-path-2)"><path class="cls-7" d="M379.69 377.36l1.37 1.19h-18.49l-1.37-1.19h18.49zm-9.94-8.65l1.37 1.19h-18.49l-1.37-1.19h18.49zm-11.88-10.34h-15.14v-1.2h13.77l1.37 1.2zm-6.63-5.77h-8.51v-1.19h7.15l1.36 1.19zm-3.31-2.89h-5.2v-1.19h3.83l1.37 1.19zm27.94 40.62h.17l-.06.1-.11-.1zm-31.25-43.5h-1.89v-1.19h.52l1.37 1.19zm9.94 8.65h-11.83v-1.19h10.46l1.37 1.19zm22.24 33.41l-.63 1.19h-.58l-1.36-1.19h2.57zm-3.73-17.3l1.37 1.19h-18.5l-1.36-1.19h18.49zm3.31 2.89l1.37 1.19h-18.49l-1.37-1.19h18.49zm-9.94-8.66l1.37 1.2h-18.49l-1.37-1.2h18.49zm14.94 14.42l-.63 1.19h-14.87l-1.37-1.19h16.87zm-18.25-17.3l1.37 1.19h-18.49l-1.37-1.19h18.49zm16.72 20.19l-.63 1.19H369.2l-1.37-1.19h12.02zm-18.67-21.88h-18.45v-1.19h17.08l1.37 1.19zm17.15 24.76l-.63 1.19h-5.4l-1.36-1.19h7.39z"/><path class="cls-8" d="M366.27 391.77l-.63 1.2h-5.19l-1.36-1.2h7.18zm1.53-2.88l-.63 1.19h-9.84l-1.37-1.19h11.84zm-3.29-8.65l1.37 1.19h-18.49l-1.37-1.19h18.49zm.24 14.42l-.63 1.19h-.4l-1.35-1.19h2.38zm4.58-8.65l-.63 1.19h-14.68l-1.37-1.19h16.68zm-1.5-2.88l1.37 1.19h-18.49l-1.37-1.19h18.49zm-19.88-17.31l1.37 1.2h-6.59v-1.2h5.22zm6.63 5.77l1.36 1.19h-13.21v-1.19h11.85zm-3.32-2.88l1.37 1.19h-9.9v-1.19h8.53zm9.94 8.65l1.37 1.19h-18.49l-1.35-1.18v-.01h18.47zm-16.56-14.42l1.37 1.19h-3.28v-1.19h1.91zm13.25 11.54l1.37 1.19h-16.53v-1.19h15.16z"/><path class="cls-7" d="M353.59 398.73h-5.05l-1.37-1.19h7.05l-.63 1.19zm1.53-2.88h-9.89l-1.37-1.19h11.89l-.63 1.19zm-3.05 5.77h-.21l-1.37-1.19h2.21l-.63 1.19zm4.58-8.65h-13.46l-.03-1.2h14.12l-.63 1.2zm-7.31-9.84l1.37 1.19h-7.77l-.04-1.19h6.44zm3.31 2.88l1.37 1.19h-11l-.03-1.19h9.66zm3.31 2.88l1.37 1.19h-14.22l-.04-1.19h12.89zm-13.2-10.34l-.03-1.18 1.35 1.18h-1.32zm3.26 1.69l1.37 1.19h-4.54l-.04-1.19h3.21z"/></g><path class="cls-8" d="M497 334l1.17-1.63c-4.68-3.33-57.1-5.35-63.07-5.57l-.07 2c23.19.82 58.82 2.91 61.97 5.2z"/><g id="brand-adidas"><g id="adidas"><rect id="bottom" class="cls-8" x="358.05" y="374.81" width="15.19" height="2.14" rx=".62" ry=".62"/><path class="cls-8" d="M365.72 366.11a1.33 1.33 0 00-.48 1.82l3.11 5.41a1.33 1.33 0 001.16.67h2.33l-4.29-7.42a1.34 1.34 0 00-1.83-.48zm-2.67 2.69a1.33 1.33 0 00-.49 1.81l1.53 2.72a1.34 1.34 0 001.17.68h2.32l-2.69-4.72a1.35 1.35 0 00-1.84-.49zm-2.93 2.35a1.34 1.34 0 00-.5 1.8l.21.37a1.33 1.33 0 001.17.68h2.32l-1.32-2.36a1.33 1.33 0 00-1.88-.49z"/></g></g><path class="cls-6" d="M432 315.75l-.4 21.23-3.84 3.95-5.51 2.73-6 3.12-5.92 1.22-9.79 2.78-9.78-2.78-5.88-1.19-6-3.12-5.5-2.73-3.88-3.96-.39-21.23-4.86.87v18.05a12.73 12.73 0 004.1 9.37c5.19 4.8 15.51 11.58 32.18 11.27 16.66.31 27-6.47 32.17-11.27a12.73 12.73 0 004.1-9.37v-18.07z"/><g class="cls-11" id="crest-argentina-98"><g class="cls-11"><path class="cls-12" d="M427.76 367.68h.65v8.23c0 1.28 2.65 2.44 3.81 3l1.79 1.23a1 1 0 001.1 0l1.79-1.23c1.16-.54 3.81-1.7 3.81-3v-8.23h.65a1.72 1.72 0 001.71-1.71v-1.08a1.72 1.72 0 00-1.71-1.71h-.73a2.24 2.24 0 00-2.16-1.64h-7.82a2.22 2.22 0 00-2.15 1.64h-.74a1.72 1.72 0 00-1.71 1.71V366a1.72 1.72 0 001.71 1.71m14.67-2.79V366a1.07 1.07 0 01-1.07 1.07h-.65v-3.23h.65a1.08 1.08 0 011.07 1.08m-15.74 0a1.08 1.08 0 011.07-1.08h.65V367h-.65a1.07 1.07 0 01-1.07-1.07z"/><path class="cls-12" d="M443.65 370.48a1.28 1.28 0 00-1.28 1.28v3.36c0 4.31-3.5 7.18-7.81 7.18s-7.81-2.87-7.81-7.18v-3.36a1.28 1.28 0 10-2.55 0v3.36c0 5.72 4.65 9.73 10.36 9.73s10.37-4 10.37-9.73v-3.36a1.28 1.28 0 00-1.28-1.28"/><path class="cls-7" d="M442.43 364.89h-15.74a1.08 1.08 0 011.07-1.08h13.6a1.08 1.08 0 011.07 1.08"/><path class="cls-8" d="M426.69 364.89h15.74v1.08h-15.74z"/><path class="cls-7" d="M441.36 367h-13.59a1.07 1.07 0 01-1.08-1.07h15.74a1.07 1.07 0 01-1.07 1.07"/><path class="cls-13" d="M432.57 376.22a1.33 1.33 0 01-1.32-1.33v-5.09a1.33 1.33 0 112.65 0v5.09a1.33 1.33 0 01-1.33 1.33m3.98 0a1.34 1.34 0 01-1.33-1.33v-5.09a1.33 1.33 0 112.65 0v5.09a1.33 1.33 0 01-1.32 1.33"/></g></g><circle class="cls-14" cx="432.29" cy="358.32" r="1.5"/><circle class="cls-14" cx="436.83" cy="358.32" r="1.5"/><path class="cls-8" d="M391.48 392.65v-11.47l-2 2.05a1.61 1.61 0 01-2.76-1.12 1.69 1.69 0 01.47-1.15l4.32-4.32a2.28 2.28 0 011.61-.65 2.25 2.25 0 012.23 2.24v14.42a2 2 0 01-3.9 0zm14.18-16.74c5.19 0 7.54 4.7 7.54 9.39s-2.35 9.43-7.54 9.43-7.54-4.73-7.54-9.43 2.32-9.39 7.54-9.39zm0 3.44c-2.62 0-3.61 2.59-3.61 5.95s1 6 3.61 6 3.58-2.62 3.58-6-.99-5.95-3.58-5.95z"/><g class="cls-15" id="asset-captain-band-c"><g class="cls-15"><path class="cls-13" d="M462.56 351.28a4.68 4.68 0 00-4.87 4.47v16.06h42v-20.53z"/><path class="cls-8" d="M483.86 357.4a1.1 1.1 0 01.25.68 1.16 1.16 0 01-1.2 1.13 1.27 1.27 0 01-.92-.4 3.38 3.38 0 00-2.42-1.13 3.87 3.87 0 000 7.73 3.29 3.29 0 002.43-1.11 1.29 1.29 0 01.95-.41 1.12 1.12 0 011.15 1.09 1 1 0 01-.25.69 5.27 5.27 0 01-4.27 2 6.09 6.09 0 110-12.18 5.33 5.33 0 014.29 1.95"/></g></g></g><path id="neck" fill="#ba8772" d="M428.13 341.21l-27.59 8.62-28.6-9.62-1.92-23.62h61.04l-2.93 24.62z"/><path d="M503.38 369.38L500.91 339c-1.19-11.87-11.83-22.25-23.72-23.14l-37.14-2.7c-4.07-.45-20.52-.09-39.55.53-19-.62-35.48-1-39.55-.53l-37.14 2.7c-11.89.89-22.53 11.27-23.72 23.14l-2.47 30.36a20.14 20.14 0 005 15.74 18.65 18.65 0 001.69 1.64v66.36c0 12.81 9.32 23.23 20.78 23.23a19.8 19.8 0 0015.21-7.43v21.79a12.24 12.24 0 007.74 11.36v68h-5.93c-10.93 0-19.83 5.8-19.83 17.11 0 8.06 0 17 11.72 19.7v1.6a1.37 1.37 0 001.38 1.37h1.63a1.37 1.37 0 001.38-1.37v-1q1.72.15 3.72.15H344v.8a1.37 1.37 0 001.38 1.37h1.63a1.37 1.37 0 001.38-1.37v-.8H354v.8a1.37 1.37 0 001.38 1.37h1.63a1.37 1.37 0 001.38-1.37v-.8H364v.8a1.37 1.37 0 001.38 1.37h1.63a1.37 1.37 0 001.38-1.37v-.8H374v.8a1.37 1.37 0 001.38 1.37h1.63a1.37 1.37 0 001.38-1.37v-.8H384v.8a1.37 1.37 0 001.38 1.37h1.63a1.37 1.37 0 001.38-1.37v-.8H394v.8a1.37 1.37 0 001.38 1.37h1.63a1.37 1.37 0 001.38-1.37v-.81l.06-55.46V503h4v49.21l.06 54.67v1.6a1.37 1.37 0 001.38 1.37h1.63a1.37 1.37 0 001.38-1.37v-.8h5.61v.8a1.37 1.37 0 001.38 1.37h1.63a1.37 1.37 0 001.38-1.37v-.8h5.61v.8a1.37 1.37 0 001.38 1.37h1.63a1.37 1.37 0 001.38-1.37v-.8h5.61v.8a1.37 1.37 0 001.38 1.37h1.63a1.37 1.37 0 001.38-1.37v-.8h5.61v.8a1.37 1.37 0 001.38 1.37h1.63a1.37 1.37 0 001.38-1.37v-.8h5.61v.8a1.37 1.37 0 001.38 1.37h1.63a1.37 1.37 0 001.38-1.37v-.8h1.89c1.33 0 2.56 0 3.72-.15v1a1.37 1.37 0 001.38 1.37h1.63a1.37 1.37 0 001.38-1.37v-1.6c11.71-2.68 11.72-11.64 11.72-19.7 0-11.31-8.9-17.11-19.83-17.11h-5.93v-68a12.24 12.24 0 007.74-11.36v-21.84a19.8 19.8 0 0015.21 7.43c11.46 0 20.78-10.42 20.78-23.23v-66.36a18.65 18.65 0 001.69-1.64 20.14 20.14 0 005.1-15.74zM372.89 323.2c3.46 1.85 15.64 2.08 27.61 1.8 12 .28 24.15.05 27.61-1.8V335c0 4.81-22.42 12-27.23 12l-.38-.07-.38.07c-4.81 0-27.23-7.18-27.23-12zm-33 75.43v55c0 9.5-6.63 17.23-14.78 17.23s-14.78-7.73-14.78-17.23v-62.78a21.07 21.07 0 007.47 1.36h22.09zm52.91 203.42h-50.65c-14.21 0-14.21-5-14.21-14.89 0-8.22 6.37-11.5 14.21-11.5h11.67l38.93-2.7.07 15.37zm-38.74-76.4h38.67v41.7L354.08 570h-.26v-44.4zm-.26-5.74v-17h38.93v16.93h-38.91zm104.77 55.75h.26c7.84 0 14.21 3.28 14.21 11.5 0 9.91 0 14.89-14.21 14.89h-50.65v-13.7l.07-15.37 38.93 2.7h11.41zm-11.67-50h.26v44.4h-.26l-38.67-2.68v-41.7zm-38.67-5.74V503h38.93v17h-38.91zm46.84-73.78H455v44.58a6.6 6.6 0 01-6.58 6.58h-1.26l-43.68-.05s-.11-3.72-.16-8.75v-2.8c0-3.52-1.41-5.09-2.82-5-1.41-.08-2.82 1.49-2.82 5v2.79c-.05 5-.16 8.75-.16 8.75l-43.68.05h-1.26a6.6 6.6 0 01-6.58-6.58v-44.58h-.07v-.33l30.25.33h48.68l30.25-.33zm35.56 7.51c0 9.5-6.63 17.23-14.78 17.23s-14.78-7.73-14.78-17.23v-61.44h22.09a21.07 21.07 0 007.47-1.36zm6-77.21a13.55 13.55 0 01-2.76 4.66 13.85 13.85 0 01-3.24 2.63 14.72 14.72 0 01-7.47 2l-22.09.09v-20.15c0-5.56-6.08-5.93-6.08 0s.08 14.37.08 14.37v59.59H345.91V380s.08-8.45.08-14.37-6.08-5.54-6.08 0v20.11l-22.09-.09a14.72 14.72 0 01-7.47-2 13.85 13.85 0 01-3.24-2.63 13.55 13.55 0 01-2.76-4.66 14.79 14.79 0 01-.75-6.46l2.46-30.35c.9-8.95 9.23-17.08 18.2-17.75l11.12-.84 32.21-2.29c.68.55.49 17.49.49 17.49 0 8.43 23.34 15.29 31.77 15.29h1.3c8.43 0 31.77-6.86 31.77-15.29 0 0-.19-16.94.49-17.49l32.21 2.33 11.12.84c9 .67 17.3 8.8 18.2 17.75L497.4 370a14.79 14.79 0 01-.75 6.43z" id="border"/><g id="head"><path class="cls-17" d="M395.82 185.9c10 0 13.88 3.7 14.9 8.55a4.05 4.05 0 013.1-1.28c3.14 0 7.16 2.57 10.94 3.61 17.27 4.74 23.45 16.44 20.77 28-1.46 6.32-5 8.66-9.58 8.66-5.27 0-12-3.05-18.74-6.7-5.63-3-8.92-6.59-10.59-10.29-1 .91-3.12 1.26-5.79 1.26-9.61 0-26.69-4.61-29-4.61-.18 0-.27 0-.25.1 1.13 4.56-10.82 27.62-14.42 27.62a.68.68 0 01-.39-.11c-.05 0-.93-17-.93-17h-.7c-13.36 0-18.16-20.18-12.7-20.18a2.69 2.69 0 01.61.08 3.33 3.33 0 00.75.09c3.48 0 6.47-5.59 9.32-7.67 2.44-1.78 10.71-4.93 13.55-5.94 9.08-3.21 2.74-3 26.94-4.18h2.19m0-5c-.78 0-1.6 0-2.43.06-18.79.91-19.91 1-24.5 2.94-1 .41-2.07.88-3.87 1.52-.45.16-11.22 4-14.82 6.61a24.54 24.54 0 00-3.9 3.86 22.38 22.38 0 01-2.7 2.77 7.3 7.3 0 00-1.14-.09 6.85 6.85 0 00-6 3.5c-2.54 4.4-.81 11.32 2 16.23 3.05 5.28 7.5 8.76 12.59 10l.23 4.22c.11 2.13.22 4.26.31 5.85.21 3.69.3 5.21 2.46 6.6a5.69 5.69 0 003.09.9c3.1 0 5.35-2.33 7.13-4.61 2.82-3.6 9.14-14.29 11.46-22.32l1.29.27c6.69 1.41 16.79 3.55 23.77 3.55a24.25 24.25 0 003.57-.23 31.1 31.1 0 0010.43 8.66c6.68 3.61 14.42 7.3 21.12 7.3 4.31 0 11.93-1.63 14.45-12.54 2.74-11.83-2-27.83-24.32-34a34.19 34.19 0 01-3.88-1.47c-2.69-1.14-5.46-2.32-8.38-2.32h-.34c-2.61-4-7.75-7.28-17.66-7.28z"/><path id="skin-2" data-name="skin" class="cls-2" d="M446.88 254.05c0-.91.08-1.81.08-2.73 0-30.51-21.06-55.25-47-55.25s-47 24.74-47 55.25c0 1.11 0 2.22.1 3.31-4.05 2.46-6.91 8.44-6.91 15.43 0 9.19 4.93 16.64 11 16.64a7.48 7.48 0 002.1-.32c.82 24.5 18.73 44.08 40.73 44.08S440 310.65 440.66 286a7.65 7.65 0 003.25.74c6.09 0 11-7.45 11-16.64.02-7.67-3.39-14.1-8.03-16.05z"/><path d="M436.53 265.52l-.91 19.88a16.19 16.19 0 01-4.22 8.39 10.48 10.48 0 01-10.84 2.75L400.31 294l-20.26 2.58a10.48 10.48 0 01-10.84-2.75 23.12 23.12 0 01-6-11.68l-.62-17.79c-.54-2.91-6.47-11.85-6.76-8.91-.34 3.51 1.17 29.12 2.14 30.93a9.94 9.94 0 002.57 3.2c0 2.24 0 5.19.13 8.67.32 8.13 14.3 23 20.55 28.25s19.05 6.75 19.05 6.75 12.79-1.5 19-6.75 20.23-20.12 20.55-28.25c.17-4.27.16-7.74.12-10.08a12.07 12.07 0 001.17-1.79c.91-1.69 3.48-27.36 3.22-30.6-.17-3.04-7.28 6.77-7.8 9.74zm-23.26 45.57c-.07 4.16-13 3.5-13 3.5s-12.9.66-13-3.5a23.07 23.07 0 01.19-3.91 4.69 4.69 0 014.27-4.43 114.51 114.51 0 0116.57 0 5.13 5.13 0 014.74 4.86 20.41 20.41 0 01.23 3.48z" fill="#704537"/><path d="M439.1 219.54c-8.35-22.67-39.1-22.76-39.1-22.76s-30.77.09-39.12 22.76-9.82 25-4.91 34.94c0 0 10.08-14.07 9.88-19.64s.4-21.62 5.77-21.62c5.2 0 18.35-3.66 28.38-3.89 10 .23 23.18 3.89 28.38 3.89 5.37 0 6 16.06 5.77 21.62s9.85 19.64 9.85 19.64c4.92-9.99 3.45-12.28-4.9-34.94z" fill="#3f2b21"/><path class="cls-17" d="M399.92 333.46c-22.68 0-41.28-19-43.53-43.79-7.52-.49-13.32-8.93-13.32-19.61 0-7 2.64-13.45 6.84-16.92v-1.82c0-32.12 22.45-58.25 50-58.25s50 26.13 50 58.25v1c4.85 3.18 8 10 8 17.76 0 11-6.16 19.64-14 19.64h-.46c-2.25 24.79-20.78 43.74-43.53 43.74zm-40.73-50.08a3 3 0 013 2.9c.77 23.09 17.34 41.18 37.73 41.18 20.58 0 37.15-18.26 37.74-41.58a3 3 0 014.27-2.64 4.73 4.73 0 002 .46c4.35 0 8-6.25 8-13.64 0-7-3.13-11.94-6.22-13.25a3 3 0 01-1.83-2.89v-.18c0-.8.07-1.6.07-2.42 0-28.81-19.76-52.25-44-52.25s-44 23.44-44 52.25c0 .92 0 1.89.09 3.16a3 3 0 01-1.43 2.71c-3.27 2-5.47 7.16-5.47 12.87 0 7.39 3.67 13.64 8 13.64a4.69 4.69 0 001.25-.19 2.74 2.74 0 01.8-.13z"/><path d="M425.17 196.57c-5.26-1.45-11-5.81-14.22-2.36-1.11-5.26-5.51-9.18-17.31-8.61-24.52 1.19-18.1 1-27.29 4.23-2.88 1-11.26 4.21-13.72 6-3.1 2.25-6.36 8.59-10.2 7.67-6.59-1.57-1.61 21.1 12.95 20.35 0 0 .89 17.19.94 17.22 3.07 2 16.19-23.07 15-27.88-.27-1.08 30.36 7.8 35.48 3.3 1.69 3.75 5 7.33 10.72 10.42 12.84 6.94 25.52 11.74 28.69-2 2.71-11.69-3.54-23.54-21.04-28.34z" fill="#2d1f17"/></g></svg>