<svg id="player" xmlns="http://www.w3.org/2000/svg" viewBox="0 0 800 800"><defs><style>.cls-1{fill:#d39a81}.cls-2{fill:#72635e}.cls-3{fill:#c1e1c0}.cls-5{fill:#f15f54}.cls-6{fill:#303842}.cls-7{fill:#313f5d}.cls-9{fill:#e21f26}.cls-10{fill:#c3a771}</style></defs><g id="skin"><path id="arm-left" class="cls-1" d="M306.43 383h36.78v72.38a18.39 18.39 0 01-18.39 18.39 18.39 18.39 0 01-18.39-18.39V383z"/><path id="arm-right" class="cls-1" d="M457.69 383h36.78v72.38a18.39 18.39 0 01-18.39 18.39 18.39 18.39 0 01-18.39-18.39V383z"/><path id="leg-left" class="cls-1" d="M350.38 492.97h45.67v45.67h-45.67z"/><path id="leg-right" class="cls-1" d="M405.28 492.97h45.67v45.67h-45.67z"/></g><path class="cls-2" d="M465 381.56v27.63s-1.46 5.69-6.33 4.8c-.01.01-3.98-30.74 6.33-32.43zm10.87 8.61s-7.5 9.17-7.5 9.83 4.09 1.12 5.15 0 6.58-9.15 6.58-9.15zm9.56 0s-8.35 8.82-8 9.83 5.87.41 6.4 0 6.82-9.15 6.82-9.15zm7.11 5.19c-.89.32-13.15 14-12.44 18.72s13.69 3.65 13.69 3.65z"/><path class="cls-2" d="M468.37 404.21s13.51-.71 13.51 0-7.64 14.79-8.88 15.11-13 2.84-13.33 1.6 7.29-5.5 7.47-6.84 1.23-9.87 1.23-9.87zm23.99 17.05s-25.73.55-26.46 3.57 20.78 4.44 26.46 2.66 0-6.23 0-6.23zm-32.71 5.52s12.1 5.16 12.27 6.22-13.26 2-13.26 2zm34.14 4.08c.15-1.25-17.6-1.23-19.55 4.1s-.74 4.69 3.18 4.65 15.3-.05 16.37-8.75z"/><g id="boots"><path id="left" class="cls-3" d="M395.83 570.99H373l-22.83 1.98h-12.5l-7.5 2.52-5.25 8.5v9.83l1.91 4.17 3.84 4.06 6.33 1.94h58.83v-33z"/><path id="right" class="cls-3" d="M405.11 571.22h22.83l22.83 1.97h12.5l7.5 2.53 5.25 8.5v9.83l-1.91 4.17-3.84 4.05-6.33 1.95h-58.83v-33z"/><path d="M396 577.91s-25.91 8.81-24.3 26.31h13.53s-3.44-18.28 10.77-18.28zm-52.93-2.25s-16.74 17.62-8.48 27.48c0 0-7.5-.57-8.26-9.86s-1.16-21.48 16.74-17.62zm61.81 2.25s25.91 8.81 24.31 26.31h-13.53s3.44-18.28-10.78-18.28zm52.98-2.25s16.73 17.62 8.48 27.48c0 0 7.5-.57 8.25-9.86s1.16-21.48-16.73-17.62z" fill="#cfdf6f"/></g><g id="socks"><g id="socks-2" data-name="socks"><path id="left-2" data-name="left" class="cls-5" d="M350.38 522.95h45.67v48.04h-45.67z"/><path id="right-2" data-name="right" class="cls-5" d="M404.88 522.95h45.67v48.04h-45.67z"/></g><path class="cls-6" d="M351.46 540.8h44.52v9.39h-44.52zm53.99 0h44.52v9.39h-44.52z"/></g><g id="shorts"><path id="shorts-2" data-name="shorts" class="cls-6" d="M342.17 443.49h116.49v47a9.95 9.95 0 01-9.95 9.95h-96.6a9.95 9.95 0 01-9.95-9.95v-47h.01z"/></g><g id="shirt"><path id="shirt-2" data-name="shirt" class="cls-6" d="M370 315.75l-48.29 2.99-11.36 6.25-6.83 10.1-3.31 40.73 5.17 7.67 7.66 4.67h29.5l.17 54h114.83v-53.5l29.34-.17 7.01-4 6.99-10.5-3.4-37.33-6.83-11.84-9.77-6.08-49.84-2.99-1 21.24-6.5 6.5-11.16 3.48-11.88 2.02-15.46-3.17-11-5.66-3.66-3.84-.38-20.57z"/><rect class="cls-7" x="345.91" y="417.73" width="21.88" height="21.88" rx="3.62" ry="3.62"/><rect class="cls-7" x="389.68" y="417.73" width="21.88" height="21.88" rx="3.62" ry="3.62"/><rect class="cls-7" x="433.44" y="417.73" width="21.88" height="21.88" rx="3.62" ry="3.62"/><rect class="cls-7" x="367.8" y="395.85" width="21.88" height="21.88" rx="3.62" ry="3.62"/><rect class="cls-7" x="411.56" y="395.85" width="21.88" height="21.88" rx="3.62" ry="3.62"/><rect class="cls-7" x="345.91" y="373.97" width="21.88" height="21.88" rx="3.62" ry="3.62"/><rect class="cls-7" x="389.68" y="373.97" width="21.88" height="21.88" rx="3.62" ry="3.62"/><rect class="cls-7" x="433.44" y="373.97" width="21.88" height="21.88" rx="3.62" ry="3.62"/><rect class="cls-7" x="367.8" y="352.09" width="21.88" height="21.88" rx="3.62" ry="3.62"/><rect class="cls-7" x="411.56" y="352.09" width="21.88" height="21.88" rx="3.62" ry="3.62"/><rect class="cls-7" x="345.91" y="330.21" width="21.88" height="21.88" rx="3.62" ry="3.62"/><rect class="cls-7" x="389.68" y="330.21" width="21.88" height="21.88" rx="3.62" ry="3.62"/><rect class="cls-7" x="433.44" y="330.21" width="21.88" height="21.88" rx="3.62" ry="3.62"/><path class="cls-6" d="M369.89 321.25c-32 12.45-27.15 43.71-27.15 43.71l-.2 23.2s1.76 1.2-19.48.83-22.85-13.17-22.85-13.17 1.84-22.72 2-35.77 17.91-21.31 17.91-21.31l48.57-3.36z"/><path class="cls-6" d="M361.16 316.22s-7.47 29.54 19.34 30.38l-10.15-10.53 1.14-20.69zm78.68 0s7.47 29.54-19.34 30.38l10.15-10.53-1.14-20.69z"/><g id="brand-nike"><path id="nike" class="cls-5" d="M373.82 364.69c0 1.2-1.57 2.17-3.49 2.17h-9.25c-1.92 0-3.5-1-3.5-2.17s1.58-2.16 3.5-2.16h9.25c1.92 0 3.49.97 3.49 2.16z"/></g><path class="cls-5" d="M358.71 389.71v-12.63l-2.17 2.25a1.76 1.76 0 01-3-1.23 1.85 1.85 0 01.52-1.26l4.75-4.75a2.49 2.49 0 014.24 1.74v15.88a2.15 2.15 0 01-4.3 0zm12.51 0v-12.63l-2.17 2.25a1.81 1.81 0 01-1.26.55 1.78 1.78 0 01-1.79-1.78 1.85 1.85 0 01.51-1.26l4.75-4.75a2.49 2.49 0 014.24 1.74v15.88a2.15 2.15 0 01-4.3 0z"/><path d="M438.07 382.72L435 386a2.67 2.67 0 01-3.76 0l-3.08-3.27a18 18 0 01-5.09-12.36v-6.82a29.59 29.59 0 006-4 .79.79 0 01.48-.16h7.16a.79.79 0 01.48.16 29.52 29.52 0 006 4v6.82a18.06 18.06 0 01-5.12 12.35z" fill="#fff"/><path class="cls-9" d="M432.62 364h-4.89a.49.49 0 01-.49-.49v-3.13a.48.48 0 01.34-.46l4.88-1.58a.5.5 0 01.65.47v4.7a.49.49 0 01-.49.49zm10.38 0h-3.5a.49.49 0 01-.49-.49V361a.5.5 0 01.79-.4l2.13 1.59 1.31.8A.52.52 0 01443 364z"/><rect class="cls-9" x="421.38" y="363.96" width="5.87" height="5.87" rx=".49" ry=".49"/><rect class="cls-9" x="433.11" y="363.96" width="5.87" height="5.87" rx=".49" ry=".49"/><rect class="cls-9" x="427.24" y="369.83" width="5.87" height="5.87" rx=".49" ry=".49"/><path class="cls-9" d="M441.49 375.69h-2a.49.49 0 01-.49-.49v-4.88a.49.49 0 01.49-.49h4.13a.49.49 0 01.49.49v2.78a2.59 2.59 0 01-2.62 2.59zm-14.77 5.87h-.64a.52.52 0 01-.48-.31l-2.22-4.86a.49.49 0 01.44-.7h2.93a.49.49 0 01.49.49V381a.52.52 0 01-.52.56z"/><rect class="cls-9" x="433.11" y="375.69" width="5.87" height="5.87" rx=".49" ry=".49"/><path class="cls-9" d="M427.24 381.56h3.31a2.55 2.55 0 012.55 2.55v.76a2.55 2.55 0 01-2.55 2.55h-.76a2.55 2.55 0 01-2.55-2.55v-3.31z"/><path class="cls-10" d="M436.61 360a.74.74 0 01.47.16A29.11 29.11 0 00443 364v6.68a17.66 17.66 0 01-5 12.1l-3 3.22a2.63 2.63 0 01-3.68 0l-3-3.21a17.65 17.65 0 01-5-12.1V364a28.76 28.76 0 005.86-3.87.76.76 0 01.47-.16h7m0-1.89h-7a2.61 2.61 0 00-1.69.61 27.15 27.15 0 01-5.49 3.61 1.9 1.9 0 00-1 1.7v6.68a19.61 19.61 0 005.49 13.39l3 3.21a4.52 4.52 0 006.44 0l3-3.21a19.58 19.58 0 005.5-13.39V364a1.9 1.9 0 00-1-1.7 27.08 27.08 0 01-5.48-3.61 2.66 2.66 0 00-1.7-.61z"/><path fill="#0c4ea0" d="M435.86 384.86h-5.5l-.95-26.76h7.39l-.94 26.76z"/><circle class="cls-10" cx="433.11" cy="386.76" r="6.23"/><path class="cls-6" d="M431.06 321.25c32 12.45 27.15 43.71 27.15 43.71l.2 23.2s-1.75 1.2 19.48.83 22.85-13.17 22.85-13.17-1.84-22.72-2-35.77-17.91-21.31-17.91-21.31l-48.57-3.36z"/></g><path id="neck" fill="#af7e6d" d="M428.13 341.21l-27.59 8.62-28.6-9.62-1.92-23.62h61.04l-2.93 24.62z"/><path d="M503.38 369.38L500.91 339c-1.19-11.87-11.83-22.25-23.72-23.14l-37.14-2.7c-4.07-.45-20.52-.09-39.55.53-19-.62-35.48-1-39.55-.53l-37.14 2.7c-11.89.89-22.53 11.27-23.72 23.14l-2.47 30.36a20.14 20.14 0 005 15.74 18.65 18.65 0 001.69 1.64v66.36c0 12.81 9.32 23.23 20.78 23.23a19.8 19.8 0 0015.21-7.43v21.79a12.24 12.24 0 007.74 11.36v68h-5.93c-10.93 0-19.83 5.8-19.83 17.11 0 8.06 0 17 11.72 19.7v1.6a1.37 1.37 0 001.38 1.37h1.63a1.37 1.37 0 001.38-1.37v-1q1.72.15 3.72.15H344v.8a1.37 1.37 0 001.38 1.37h1.63a1.37 1.37 0 001.38-1.37v-.8H354v.8a1.37 1.37 0 001.38 1.37h1.63a1.37 1.37 0 001.38-1.37v-.8H364v.8a1.37 1.37 0 001.38 1.37h1.63a1.37 1.37 0 001.38-1.37v-.8H374v.8a1.37 1.37 0 001.38 1.37h1.63a1.37 1.37 0 001.38-1.37v-.8H384v.8a1.37 1.37 0 001.38 1.37h1.63a1.37 1.37 0 001.38-1.37v-.8H394v.8a1.37 1.37 0 001.38 1.37h1.63a1.37 1.37 0 001.38-1.37v-.81l.06-55.46V503h4v49.21l.06 54.67v1.6a1.37 1.37 0 001.38 1.37h1.63a1.37 1.37 0 001.38-1.37v-.8h5.61v.8a1.37 1.37 0 001.38 1.37h1.63a1.37 1.37 0 001.38-1.37v-.8h5.61v.8a1.37 1.37 0 001.38 1.37h1.63a1.37 1.37 0 001.38-1.37v-.8h5.61v.8a1.37 1.37 0 001.38 1.37h1.63a1.37 1.37 0 001.38-1.37v-.8h5.61v.8a1.37 1.37 0 001.38 1.37h1.63a1.37 1.37 0 001.38-1.37v-.8h5.61v.8a1.37 1.37 0 001.38 1.37h1.63a1.37 1.37 0 001.38-1.37v-.8h1.89c1.33 0 2.56 0 3.72-.15v1a1.37 1.37 0 001.38 1.37h1.63a1.37 1.37 0 001.38-1.37v-1.6c11.71-2.68 11.72-11.64 11.72-19.7 0-11.31-8.9-17.11-19.83-17.11h-5.93v-68a12.24 12.24 0 007.74-11.36v-21.84a19.8 19.8 0 0015.21 7.43c11.46 0 20.78-10.42 20.78-23.23v-66.36a18.65 18.65 0 001.69-1.64 20.14 20.14 0 005.1-15.74zM372.89 323.2c3.46 1.85 15.64 2.08 27.61 1.8 12 .28 24.15.05 27.61-1.8V335c0 4.81-22.42 12-27.23 12l-.38-.07-.38.07c-4.81 0-27.23-7.18-27.23-12zm-33 75.43v55c0 9.5-6.63 17.23-14.78 17.23s-14.78-7.73-14.78-17.23v-62.78a21.07 21.07 0 007.47 1.36h22.09zm52.91 203.42h-50.65c-14.21 0-14.21-5-14.21-14.89 0-8.22 6.37-11.5 14.21-11.5h11.67l38.93-2.7.07 15.37zm-38.74-76.4h38.67v41.7L354.08 570h-.26v-44.4zm-.26-5.74v-17h38.93v16.93h-38.91zm104.77 55.75h.26c7.84 0 14.21 3.28 14.21 11.5 0 9.91 0 14.89-14.21 14.89h-50.65v-13.7l.07-15.37 38.93 2.7h11.41zm-11.67-50h.26v44.4h-.26l-38.67-2.68v-41.7zm-38.67-5.74V503h38.93v17h-38.91zm46.84-73.78H455v44.58a6.6 6.6 0 01-6.58 6.58h-1.26l-43.68-.05s-.11-3.72-.16-8.75v-2.8c0-3.52-1.41-5.09-2.82-5-1.41-.08-2.82 1.49-2.82 5v2.79c-.05 5-.16 8.75-.16 8.75l-43.68.05h-1.26a6.6 6.6 0 01-6.58-6.58v-44.58h-.07v-.33l30.25.33h48.68l30.25-.33zm35.56 7.51c0 9.5-6.63 17.23-14.78 17.23s-14.78-7.73-14.78-17.23v-61.44h22.09a21.07 21.07 0 007.47-1.36zm6-77.21a13.55 13.55 0 01-2.76 4.66 13.85 13.85 0 01-3.24 2.63 14.72 14.72 0 01-7.47 2l-22.09.09v-20.15c0-5.56-6.08-5.93-6.08 0s.08 14.37.08 14.37v59.59H345.91V380s.08-8.45.08-14.37-6.08-5.54-6.08 0v20.11l-22.09-.09a14.72 14.72 0 01-7.47-2 13.85 13.85 0 01-3.24-2.63 13.55 13.55 0 01-2.76-4.66 14.79 14.79 0 01-.75-6.46l2.46-30.35c.9-8.95 9.23-17.08 18.2-17.75l11.12-.84 32.21-2.29c.68.55.49 17.49.49 17.49 0 8.43 23.34 15.29 31.77 15.29h1.3c8.43 0 31.77-6.86 31.77-15.29 0 0-.19-16.94.49-17.49l32.21 2.33 11.12.84c9 .67 17.3 8.8 18.2 17.75L497.4 370a14.79 14.79 0 01-.75 6.43z" id="border"/><g id="head"><path id="skin-2" data-name="skin" class="cls-1" d="M446.88 254.05c0-.91.08-1.81.08-2.73 0-30.51-21.06-55.25-47-55.25s-47 24.74-47 55.25c0 1.11 0 2.22.1 3.31-4.05 2.46-6.91 8.44-6.91 15.43 0 9.19 4.93 16.64 11 16.64a7.48 7.48 0 002.1-.32c.82 24.5 18.73 44.08 40.73 44.08S440 310.65 440.66 286a7.65 7.65 0 003.25.74c6.09 0 11-7.45 11-16.64.02-7.67-3.39-14.1-8.03-16.05z"/><path d="M400.15 196.07h-.23s-27.05-3.64-40.45 27.88h6a3.82 3.82 0 003.67-2.74c.47-1.54 2.54-1.9 5-2 4.61-.07 24.48 4.37 25.81 4.67h.07c1.33-.3 21.21-4.74 25.81-4.67 2.5.05 4.58.41 5 2a3.83 3.83 0 003.67 2.74h6c-13.3-31.52-40.35-27.88-40.35-27.88z" fill="#261915"/><path d="M443.86 230.34c-6.47-30.16-40.17-33.94-43.63-34.24h-.31c-3.46.3-37.16 4.08-43.64 34.24 0 0-5 17 0 24.14 0 0 .92-1.1 2.25-2.89a94.13 94.13 0 006-8.94c2.34-4 4.29-8.39 4.4-11.78.26-8.68-1.67-13.93 4.29-12.88s13 3.91 26.77 3.94h.21C414 221.9 421 219 427 218s4 4.2 4.29 12.88 12.62 23.61 12.62 23.61c4.95-7.15-.05-24.15-.05-24.15z" opacity=".2" fill="#261915"/><path d="M399.92 333.46c-22.68 0-41.28-19-43.53-43.79-7.52-.49-13.32-8.93-13.32-19.61 0-7 2.64-13.45 6.84-16.92v-1.82c0-32.12 22.45-58.25 50-58.25s50 26.13 50 58.25v1c4.85 3.18 8 10 8 17.76 0 11-6.16 19.64-14 19.64h-.46c-2.25 24.79-20.78 43.74-43.53 43.74zm-40.73-50.08a3 3 0 013 2.9c.77 23.09 17.34 41.18 37.73 41.18 20.58 0 37.15-18.26 37.74-41.58a3 3 0 014.27-2.64 4.73 4.73 0 002 .46c4.35 0 8-6.25 8-13.64 0-7-3.13-11.94-6.22-13.25a3 3 0 01-1.83-2.89v-.18c0-.8.07-1.6.07-2.42 0-28.81-19.76-52.25-44-52.25s-44 23.44-44 52.25c0 .92 0 1.89.09 3.16a3 3 0 01-1.43 2.71c-3.27 2-5.47 7.16-5.47 12.87 0 7.39 3.67 13.64 8 13.64a4.69 4.69 0 001.25-.19 2.74 2.74 0 01.8-.13z" fill="#231f20"/><path d="M444.12 251.32l-6.24-4.83s-4 35.14-5.68 41.26c-.79 3-13.58 19.05-16.54 18.56s-8.1-3.61-15.66-3.61-12.71 3.12-15.66 3.61-15.75-15.56-16.54-18.56c-1.64-6.12-5.68-41.26-5.68-41.26l-6.24 4.83c-1.68 17.95 3.82 38.4 10.55 57.95 5.65 16.38 26.1 20.19 32.58 21v.2s.37 0 1-.09 1 .09 1 .09v-.2c6.48-.8 26.93-4.61 32.58-21 6.71-19.55 12.21-40 10.53-57.95zm-41.57 70.45s.26-3.66-2.55-3.92c-2.81.26-2.56 3.92-2.56 3.92-8.69.17-10.31-6.82-10.31-8.79s12.87-4.5 12.87-4.5 12.87 2.52 12.87 4.5-1.62 8.96-10.32 8.79z" opacity=".1" fill="#261915"/></g></svg>