<svg id="player" xmlns="http://www.w3.org/2000/svg" viewBox="0 0 800 800"><defs><style>.cls-1{fill:#7d4921}.cls-2{fill:#fffef1}.cls-4{fill:#fff}.cls-7{fill:#e41e26}.cls-8{fill:#2c5baa}.cls-10{fill:#231f20}</style></defs><g id="skin"><path id="arm-left" class="cls-1" d="M306.43 383h36.78v72.38a18.39 18.39 0 01-18.39 18.39 18.39 18.39 0 01-18.39-18.39V383z"/><path id="arm-right" class="cls-1" d="M457.69 383h36.78v72.38a18.39 18.39 0 01-18.39 18.39 18.39 18.39 0 01-18.39-18.39V383z"/><path id="leg-left" class="cls-1" d="M350.38 492.97h45.67v45.67h-45.67z"/><path id="leg-right" class="cls-1" d="M405.28 492.97h45.67v45.67h-45.67z"/></g><g id="boots"><path id="left" class="cls-2" d="M395.83 570.99H373l-22.83 1.98h-12.5l-7.5 2.52-5.25 8.5v9.83l1.91 4.17 3.84 4.06 6.33 1.94h58.83v-33z"/><path id="right" class="cls-2" d="M405.11 571.22h22.83l22.83 1.97h12.5l7.5 2.53 5.25 8.5v9.83l-1.91 4.17-3.84 4.05-6.33 1.95h-58.83v-33z"/><path d="M396 604s-11.73-9.17-26.75-12.41A12.65 12.65 0 00354 604h42zm9.28 0S417 594.82 432 591.58A12.65 12.65 0 01447.29 604h-42z" fill="#e1e0c5"/></g><g id="socks"><g id="socks-2" data-name="socks"><path id="left-2" data-name="left" class="cls-4" d="M350.38 522.95h45.67v48.04h-45.67z"/><path id="right-2" data-name="right" class="cls-4" d="M404.88 522.95h45.67v48.04h-45.67z"/></g><path d="M351.46 540.8h44.52v9.39h-44.52zm53.99 0h44.52v9.39h-44.52z" fill="#e6e7e8"/></g><g id="shorts"><path id="shorts-2" data-name="shorts" class="cls-4" d="M342.17 443.49h116.49v47a9.95 9.95 0 01-9.95 9.95h-96.6a9.95 9.95 0 01-9.95-9.95v-47h.01z"/></g><g id="shirt"><path id="shirt-2" data-name="shirt" class="cls-4" d="M370 315.75l-48.29 2.99-11.36 6.25-6.83 10.1-3.31 40.73 5.17 7.67 7.66 4.67h29.5l.17 54h114.83v-53.5l29.34-.17 7.01-4 6.99-10.5-3.4-37.33-6.83-11.84-9.77-6.08-49.84-2.99-1 21.24-6.5 6.5-11.16 3.48-11.88 2.02-15.46-3.17-11-5.66-3.66-3.84-.38-20.57z"/><path d="M369.89 321.25c-32 12.45-27.15 43.71-27.15 43.71l-.2 23.2s1.76 1.2-19.48.83-22.85-13.17-22.85-13.17 1.84-22.72 2-35.77 17.91-21.31 17.91-21.31l48.57-3.36zm61.17 0c32 12.45 27.15 43.71 27.15 43.71l.2 23.2s-1.75 1.2 19.48.83 22.85-13.17 22.85-13.17-1.84-22.72-2-35.77-17.91-21.31-17.91-21.31l-48.57-3.36z" fill="#efeff0"/><path class="cls-7" d="M361.16 316.22s-7.47 29.54 19.34 30.38l-10.15-10.53 1.14-20.69zm78.68 0s7.47 29.54-19.34 30.38l10.15-10.53-1.14-20.69z"/><g id="brand-nike"><path id="nike" class="cls-8" d="M373.82 364.69c0 1.2-1.57 2.17-3.49 2.17h-9.25c-1.92 0-3.5-1-3.5-2.17s1.58-2.16 3.5-2.16h9.25c1.92 0 3.49.97 3.49 2.16z"/></g><path class="cls-4" d="M437.79 381.53l-4 2.63a2.25 2.25 0 01-2.44 0l-4-2.63a9.37 9.37 0 01-4.29-7.79v-10.49a2.19 2.19 0 012.25-2.12h14.46a2.18 2.18 0 012.24 2.12v10.49a9.37 9.37 0 01-4.22 7.79z"/><path class="cls-8" d="M439.22 361.5a2.06 2.06 0 012.06 2.06v10.15a9.21 9.21 0 01-3.93 7.54l-3.63 2.54a2 2 0 01-1.11.35 2 2 0 01-1.12-.35l-3.62-2.54a9.18 9.18 0 01-3.93-7.54v-10.15a2.05 2.05 0 012.06-2.06h13.23m0-2H426a4.08 4.08 0 00-4.07 4.08v10.15a11.26 11.26 0 004.78 9.2l3.63 2.54a4 4 0 004.55 0l3.63-2.54a11.24 11.24 0 004.79-9.2v-10.17a4.08 4.08 0 00-4.08-4.08z"/><circle class="cls-7" cx="427.18" cy="364.87" r="1.22"/><circle class="cls-7" cx="438.03" cy="364.87" r="1.22"/><circle class="cls-7" cx="427.18" cy="371.01" r="1.22"/><circle class="cls-7" cx="438.03" cy="371.01" r="1.22"/><circle class="cls-7" cx="427.18" cy="377.16" r="1.22"/><circle class="cls-7" cx="438.03" cy="377.16" r="1.22"/><path class="cls-8" d="M435.53 363.3c.22-1.32-.16-1.26-1.12-1.38a2.69 2.69 0 00-1.77.47 2.65 2.65 0 00-1.76-.47c-1 .12-1.34.06-1.12 1.38 0 0-.61 1.18.41 1.57 0 0-.59 1.88.64 1.89 0 0-.36.54.6 1 0 0 .1 1.36 1.23.76 1.14.6 1.24-.76 1.24-.76 1-.45.6-1 .6-1 1.23 0 .64-1.89.64-1.89 1.02-.39.41-1.57.41-1.57z"/><path class="cls-7" d="M433.22 366.57l-.58.14-.57-.14s-.26 1.09.57 1.09.58-1.09.58-1.09z"/><path class="cls-4" d="M430.73 363.69v.08a.36.36 0 00.32.32l1 .17s.12-.63-.7-.9a.44.44 0 00-.62.33zm3.83 0v.08a.37.37 0 01-.32.32l-1 .17s-.12-.63.71-.9a.44.44 0 01.61.33z"/><path class="cls-4" d="M433.45 364c-.25 0-.41.2-.38.38s0 .58 0 .64a.9.9 0 01-.38.17.86.86 0 01-.37-.17c-.08-.06-.09-.33 0-.64s-.13-.34-.38-.38c-.07.23-.26 1 .07 1.24a1.94 1.94 0 00.73.29 1.82 1.82 0 00.73-.29c.24-.24.05-1.02-.02-1.24zm-.16 1.75a.35.35 0 00-.27.38c0 .31-.23.35-.3.38a.11.11 0 00-.08.11.11.11 0 00-.07-.11c-.08 0-.34-.07-.3-.38a.36.36 0 00-.27-.38c0 .23-.18.54.06.8a1 1 0 00.59.31 1 1 0 00.6-.31c.23-.26.09-.55.04-.8z"/><path class="cls-8" d="M435.53 370.42c.22-1.32-.16-1.26-1.12-1.38a2.69 2.69 0 00-1.77.47 2.65 2.65 0 00-1.76-.47c-1 .12-1.34.06-1.12 1.38 0 0-.61 1.18.41 1.57 0 0-.59 1.88.64 1.89 0 0-.36.54.6 1 0 0 .1 1.36 1.23.76 1.14.6 1.24-.76 1.24-.76 1-.45.6-1 .6-1 1.23 0 .64-1.89.64-1.89 1.02-.39.41-1.57.41-1.57z"/><path class="cls-7" d="M433.22 373.69l-.58.14-.57-.14s-.26 1.09.57 1.09.58-1.09.58-1.09z"/><path class="cls-4" d="M430.73 370.81v.08a.36.36 0 00.32.32l1 .17s.12-.63-.7-.9a.44.44 0 00-.62.33zm3.83 0v.08a.37.37 0 01-.32.32l-1 .17s-.12-.63.71-.9a.44.44 0 01.61.33z"/><path class="cls-4" d="M433.45 371.11c-.25 0-.41.2-.38.38s0 .58 0 .64a.9.9 0 01-.38.17.86.86 0 01-.37-.17c-.08-.06-.09-.33 0-.64s-.13-.34-.38-.38c-.07.23-.26 1 .07 1.24a1.94 1.94 0 00.73.29 1.82 1.82 0 00.73-.29c.24-.26.05-1.01-.02-1.24zm-.16 1.76a.35.35 0 00-.27.38c0 .31-.23.35-.3.38a.11.11 0 00-.08.11.11.11 0 00-.07-.11c-.08 0-.34-.07-.3-.38a.36.36 0 00-.27-.38c0 .23-.18.54.06.8a1 1 0 00.59.31 1 1 0 00.6-.31c.23-.26.09-.57.04-.8z"/><path class="cls-8" d="M435.53 377.54c.22-1.32-.16-1.26-1.12-1.39a2.73 2.73 0 00-1.77.48 2.69 2.69 0 00-1.76-.48c-1 .13-1.34.07-1.12 1.39 0 0-.61 1.18.41 1.57 0 0-.59 1.87.64 1.89 0 0-.36.54.6 1 0 0 .1 1.37 1.23.77 1.14.6 1.24-.77 1.24-.77 1-.44.6-1 .6-1 1.23 0 .64-1.89.64-1.89 1.02-.39.41-1.57.41-1.57z"/><path class="cls-7" d="M433.22 380.81l-.58.14-.57-.14s-.26 1.08.57 1.08.58-1.08.58-1.08z"/><path class="cls-4" d="M430.73 377.93v.07a.36.36 0 00.32.32l1 .17s.12-.63-.7-.9a.44.44 0 00-.62.34zm3.83 0v.07a.37.37 0 01-.32.32l-1 .17s-.12-.63.71-.9a.44.44 0 01.61.34z"/><path class="cls-4" d="M433.45 378.23c-.25 0-.41.2-.38.38s0 .58 0 .64a1 1 0 01-.38.17 1 1 0 01-.37-.17c-.08-.06-.09-.33 0-.64s-.13-.34-.38-.38c-.07.23-.26 1 .07 1.24a1.94 1.94 0 00.73.29 1.82 1.82 0 00.73-.29c.24-.26.05-1.01-.02-1.24zm-.16 1.77a.35.35 0 00-.27.38c0 .31-.23.35-.3.38a.11.11 0 00-.08.1.11.11 0 00-.07-.1c-.08 0-.34-.07-.3-.38a.36.36 0 00-.27-.38c0 .23-.18.54.06.8a1 1 0 00.59.31 1 1 0 00.6-.31c.23-.27.09-.58.04-.8z"/><path class="cls-7" d="M357.05 391.6v-12.53l-2 2.24a1.66 1.66 0 01-2.87-1.23 1.89 1.89 0 01.48-1.25l4.49-4.72a2.28 2.28 0 011.67-.72 2.41 2.41 0 012.33 2.45v15.76a2 2 0 11-4.06 0zm8.25-.5a1.78 1.78 0 011.73-1.82 1.5 1.5 0 01.79.2 4.87 4.87 0 002.65.66c3 0 4.74-2.72 4.74-5.73V384a6.29 6.29 0 01-11.36-3.88c0-3.88 2.95-6.83 7.27-6.83 5.74 0 8.15 4.65 8.15 10.29 0 6-3.21 10.27-8.8 10.27a8.14 8.14 0 01-4.21-1.13 1.8 1.8 0 01-.96-1.62zm6-14.15a3.11 3.11 0 00-3.32 3c0 2.12 1.67 3.05 3.49 3.05a4.68 4.68 0 003.69-1.85c-.16-1.93-1.16-4.15-3.87-4.15z"/></g><path id="neck" fill="#663b1d" d="M428.13 341.21l-27.59 8.62-28.6-9.62-1.92-23.62h61.04l-2.93 24.62z"/><path d="M503.38 369.38L500.91 339c-1.19-11.87-11.83-22.25-23.72-23.14l-37.14-2.7c-4.07-.45-20.52-.09-39.55.53-19-.62-35.48-1-39.55-.53l-37.14 2.7c-11.89.89-22.53 11.27-23.72 23.14l-2.47 30.36a20.14 20.14 0 005 15.74 18.65 18.65 0 001.69 1.64v66.36c0 12.81 9.32 23.23 20.78 23.23a19.8 19.8 0 0015.21-7.43v21.79a12.24 12.24 0 007.74 11.36v68h-5.93c-10.93 0-19.83 5.8-19.83 17.11 0 8.06 0 17 11.72 19.7v1.6a1.37 1.37 0 001.38 1.37h1.63a1.37 1.37 0 001.38-1.37v-1q1.72.15 3.72.15H344v.8a1.37 1.37 0 001.38 1.37h1.63a1.37 1.37 0 001.38-1.37v-.8H354v.8a1.37 1.37 0 001.38 1.37h1.63a1.37 1.37 0 001.38-1.37v-.8H364v.8a1.37 1.37 0 001.38 1.37h1.63a1.37 1.37 0 001.38-1.37v-.8H374v.8a1.37 1.37 0 001.38 1.37h1.63a1.37 1.37 0 001.38-1.37v-.8H384v.8a1.37 1.37 0 001.38 1.37h1.63a1.37 1.37 0 001.38-1.37v-.8H394v.8a1.37 1.37 0 001.38 1.37h1.63a1.37 1.37 0 001.38-1.37v-.81l.06-55.46V503h4v49.21l.06 54.67v1.6a1.37 1.37 0 001.38 1.37h1.63a1.37 1.37 0 001.38-1.37v-.8h5.61v.8a1.37 1.37 0 001.38 1.37h1.63a1.37 1.37 0 001.38-1.37v-.8h5.61v.8a1.37 1.37 0 001.38 1.37h1.63a1.37 1.37 0 001.38-1.37v-.8h5.61v.8a1.37 1.37 0 001.38 1.37h1.63a1.37 1.37 0 001.38-1.37v-.8h5.61v.8a1.37 1.37 0 001.38 1.37h1.63a1.37 1.37 0 001.38-1.37v-.8h5.61v.8a1.37 1.37 0 001.38 1.37h1.63a1.37 1.37 0 001.38-1.37v-.8h1.89c1.33 0 2.56 0 3.72-.15v1a1.37 1.37 0 001.38 1.37h1.63a1.37 1.37 0 001.38-1.37v-1.6c11.71-2.68 11.72-11.64 11.72-19.7 0-11.31-8.9-17.11-19.83-17.11h-5.93v-68a12.24 12.24 0 007.74-11.36v-21.84a19.8 19.8 0 0015.21 7.43c11.46 0 20.78-10.42 20.78-23.23v-66.36a18.65 18.65 0 001.69-1.64 20.14 20.14 0 005.1-15.74zM372.89 323.2c3.46 1.85 15.64 2.08 27.61 1.8 12 .28 24.15.05 27.61-1.8V335c0 4.81-22.42 12-27.23 12l-.38-.07-.38.07c-4.81 0-27.23-7.18-27.23-12zm-33 75.43v55c0 9.5-6.63 17.23-14.78 17.23s-14.78-7.73-14.78-17.23v-62.78a21.07 21.07 0 007.47 1.36h22.09zm52.91 203.42h-50.65c-14.21 0-14.21-5-14.21-14.89 0-8.22 6.37-11.5 14.21-11.5h11.67l38.93-2.7.07 15.37zm-38.74-76.4h38.67v41.7L354.08 570h-.26v-44.4zm-.26-5.74v-17h38.93v16.93h-38.91zm104.77 55.75h.26c7.84 0 14.21 3.28 14.21 11.5 0 9.91 0 14.89-14.21 14.89h-50.65v-13.7l.07-15.37 38.93 2.7h11.41zm-11.67-50h.26v44.4h-.26l-38.67-2.68v-41.7zm-38.67-5.74V503h38.93v17h-38.91zm46.84-73.78H455v44.58a6.6 6.6 0 01-6.58 6.58h-1.26l-43.68-.05s-.11-3.72-.16-8.75v-2.8c0-3.52-1.41-5.09-2.82-5-1.41-.08-2.82 1.49-2.82 5v2.79c-.05 5-.16 8.75-.16 8.75l-43.68.05h-1.26a6.6 6.6 0 01-6.58-6.58v-44.58h-.07v-.33l30.25.33h48.68l30.25-.33zm35.56 7.51c0 9.5-6.63 17.23-14.78 17.23s-14.78-7.73-14.78-17.23v-61.44h22.09a21.07 21.07 0 007.47-1.36zm6-77.21a13.55 13.55 0 01-2.76 4.66 13.85 13.85 0 01-3.24 2.63 14.72 14.72 0 01-7.47 2l-22.09.09v-20.15c0-5.56-6.08-5.93-6.08 0s.08 14.37.08 14.37v59.59H345.91V380s.08-8.45.08-14.37-6.08-5.54-6.08 0v20.11l-22.09-.09a14.72 14.72 0 01-7.47-2 13.85 13.85 0 01-3.24-2.63 13.55 13.55 0 01-2.76-4.66 14.79 14.79 0 01-.75-6.46l2.46-30.35c.9-8.95 9.23-17.08 18.2-17.75l11.12-.84 32.21-2.29c.68.55.49 17.49.49 17.49 0 8.43 23.34 15.29 31.77 15.29h1.3c8.43 0 31.77-6.86 31.77-15.29 0 0-.19-16.94.49-17.49l32.21 2.33 11.12.84c9 .67 17.3 8.8 18.2 17.75L497.4 370a14.79 14.79 0 01-.75 6.43z" id="border"/><g id="head"><path class="cls-10" d="M403.21 196a4.09 4.09 0 012.13.72 4.46 4.46 0 002.39.77 3.31 3.31 0 001.12-.2 1.92 1.92 0 01.66-.12 3.79 3.79 0 012.68 1.82 3.6 3.6 0 002.94 1.39 4.7 4.7 0 00.92-.09 2.91 2.91 0 01.57-.06 3.53 3.53 0 012.44 1.17 3.8 3.8 0 002.59 1.19c1.54.05 3 1.47 4 2.72a4 4 0 003.13 1.47h.47a3.6 3.6 0 013.61 2.95 4 4 0 002.36 2.69 5.63 5.63 0 012.77 2.44 4.19 4.19 0 002 1.73c2.54 1 3.69 4.35 3.69 4.35 2.13 2.7-2.84 6.71-6.65 9.23a3.88 3.88 0 01-5.43-1.12c-5.4-8.05-20.41-9.45-27.6-9.65a4.25 4.25 0 01-4-4.32 4.25 4.25 0 01-4 4.32c-7.22.2-22.24 1.61-27.62 9.67a3.87 3.87 0 01-5.42 1.12c-3.81-2.52-8.78-6.53-6.66-9.23 0 0 1.16-3.3 3.69-4.35a4.1 4.1 0 002-1.73 5.72 5.72 0 012.77-2.44 4 4 0 002.36-2.69 3.62 3.62 0 013.61-2.95h.48a3.92 3.92 0 003.12-1.47c1-1.25 2.47-2.67 4-2.72a3.82 3.82 0 002.59-1.19 3.51 3.51 0 012.44-1.17 2.91 2.91 0 01.57.06 4.68 4.68 0 00.91.09 3.61 3.61 0 002.96-1.4 3.75 3.75 0 012.68-1.82 1.91 1.91 0 01.65.12 3.41 3.41 0 001.13.2 4.49 4.49 0 002.39-.77 4.05 4.05 0 012.12-.72 2.83 2.83 0 011.89.75 2 2 0 001.33.57 2.06 2.06 0 001.34-.57 2.8 2.8 0 011.88-.75m0-5a7.75 7.75 0 00-3.22.71 7.72 7.72 0 00-3.22-.71 8.79 8.79 0 00-4.61 1.38 6.78 6.78 0 00-1.68-.21 8 8 0 00-6.12 3.12 8.06 8.06 0 00-6.72 2.34c-2.45.24-4.75 1.63-6.86 4.13a8.54 8.54 0 00-8.3 6.19 10.84 10.84 0 00-4.61 4.12 12.52 12.52 0 00-5.95 6.5 7.41 7.41 0 00-1 5c.57 3.51 3.53 6.93 9.32 10.74a8.87 8.87 0 0012.33-2.51c2.85-4.28 11.89-7.13 23.59-7.45a8.82 8.82 0 003.84-1 8.89 8.89 0 003.84 1c11.7.32 20.74 3.17 23.59 7.45a8.88 8.88 0 0012.34 2.51c5.78-3.81 8.74-7.23 9.31-10.74a7.3 7.3 0 00-1-5 12.52 12.52 0 00-5.95-6.5 10.73 10.73 0 00-4.61-4.12 8.53 8.53 0 00-8.3-6.19c-2.12-2.5-4.42-3.89-6.86-4.13a8.06 8.06 0 00-6.72-2.34 8 8 0 00-6.12-3.12 6.78 6.78 0 00-1.68.21 8.84 8.84 0 00-4.62-1.38z"/><path id="skin-2" data-name="skin" class="cls-1" d="M446.36 254.05c0-.91.08-1.81.08-2.73 0-30.51-21.06-55.25-47-55.25s-47 24.74-47 55.25c0 1.11 0 2.22.09 3.31-4 2.46-6.9 8.44-6.9 15.43 0 9.19 4.93 16.64 11 16.64a7.42 7.42 0 002.1-.32c.82 24.5 18.74 44.08 40.74 44.08s40.11-19.81 40.74-44.5a7.65 7.65 0 003.25.74c6.08 0 11-7.45 11-16.64-.05-7.63-3.46-14.06-8.1-16.01z"/><path d="M432.49 210.54c-2.79-5.95-20-12.58-20-12.58l-12.93-1.1h-.28L386.32 198s-17.25 6.63-20.05 12.58-14.5 20.46-14.45 30.84c0 5.26.43 8 1.16 9.44a2.11 2.11 0 003.76-.09c2.71-5.6 11.5-24.2 11.28-30-.25-6.76 21-17.09 29.91-17.08l1.31 10.92h.28l.47-10.14c8.86 0 31 9.54 30.75 16.3s12.11 31.65 12.11 31.65c2.52 0 4.06-.65 4.1-11s-11.67-24.92-14.46-30.88z" fill="#513325"/><path class="cls-10" d="M399.41 333.46c-22.68 0-41.28-19-43.54-43.79-7.52-.49-13.31-8.93-13.31-19.61 0-7 2.64-13.45 6.84-16.92v-1.82c0-32.12 22.45-58.25 50-58.25s50 26.13 50 58.25v1c4.85 3.18 8 10 8 17.76 0 11-6.15 19.64-14 19.64h-.46c-2.25 24.79-20.78 43.74-43.53 43.74zm-40.74-50.08a3 3 0 013 2.9c.77 23.09 17.35 41.18 37.74 41.18 20.57 0 37.15-18.26 37.74-41.58a3 3 0 014.27-2.64 4.73 4.73 0 002 .46c4.34 0 8-6.25 8-13.64 0-7-3.12-11.94-6.21-13.25a3 3 0 01-1.83-2.89v-.18c0-.8.07-1.6.07-2.42 0-28.81-19.75-52.25-44-52.25s-44 23.44-44 52.25c0 .92 0 1.89.09 3.16a3 3 0 01-1.44 2.71c-3.26 2-5.46 7.16-5.46 12.87 0 7.39 3.67 13.64 8 13.64a4.7 4.7 0 001.26-.19 2.72 2.72 0 01.77-.13z"/><path d="M443.66 221s-1.15-3.3-3.69-4.35a4.19 4.19 0 01-2-1.73 5.63 5.63 0 00-2.77-2.44 4 4 0 01-2.36-2.69 3.6 3.6 0 00-3.86-2.94 4 4 0 01-3.35-1.46c-1-1.25-2.46-2.67-4-2.72a3.8 3.8 0 01-2.59-1.19 3.27 3.27 0 00-3-1.11 3.78 3.78 0 01-3.86-1.3c-.88-1.17-2.05-2.17-3.34-1.7a4 4 0 01-3.51-.57 3.14 3.14 0 00-4 0 1.85 1.85 0 01-2.67 0 3.14 3.14 0 00-4 0 4 4 0 01-3.52.57c-1.28-.47-2.46.53-3.33 1.7a3.79 3.79 0 01-3.86 1.3 3.27 3.27 0 00-3 1.11 3.82 3.82 0 01-2.59 1.19c-1.54.05-3 1.47-4 2.72a4 4 0 01-3.34 1.46 3.61 3.61 0 00-3.87 2.94 4 4 0 01-2.36 2.69 5.72 5.72 0 00-2.77 2.44 4.1 4.1 0 01-2 1.73c-2.53 1-3.69 4.35-3.69 4.35-2.12 2.7 2.85 6.71 6.66 9.23a3.88 3.88 0 005.42-1.12c5.38-8.06 20.4-9.47 27.62-9.67a4.25 4.25 0 004-4.32 4.25 4.25 0 004 4.32c7.22.2 22.23 1.61 27.61 9.67a3.89 3.89 0 005.43 1.12c3.75-2.56 8.72-6.57 6.59-9.23z" fill="#1d130f"/></g></svg>