<svg id="player" xmlns="http://www.w3.org/2000/svg" viewBox="0 0 800 800"><defs><style>.cls-1{fill:#c38d73}.cls-2{fill:#3195d2}.cls-4{fill:#fff}.cls-5{fill:#333}.cls-9{fill:#231f20}</style></defs><g id="skin"><path id="arm-left" class="cls-1" d="M306.43 383h36.78v72.38a18.39 18.39 0 01-18.39 18.39 18.39 18.39 0 01-18.39-18.39V383z"/><path id="arm-right" class="cls-1" d="M457.69 383h36.78v72.38a18.39 18.39 0 01-18.39 18.39 18.39 18.39 0 01-18.39-18.39V383z"/><path id="leg-left" class="cls-1" d="M350.38 492.97h45.67v45.67h-45.67z"/><path id="leg-right" class="cls-1" d="M405.28 492.97h45.67v45.67h-45.67z"/></g><g id="boots"><path id="left" class="cls-2" d="M395.83 570.99H373l-22.83 1.98h-12.5l-7.5 2.52-5.25 8.5v9.83l1.91 4.17 3.84 4.06 6.33 1.94h58.83v-33z"/><path id="right" class="cls-2" d="M405.11 571.22h22.83l22.83 1.97h12.5l7.5 2.53 5.25 8.5v9.83l-1.91 4.17-3.84 4.05-6.33 1.95h-58.83v-33z"/><path d="M349.86 573s10.41 4.26 8.63 7.82-26.47 21.57-33.15 10c0-.03-5.68-22.33 24.52-17.82zm101.22 0s-10.41 4.26-8.63 7.82 26.47 21.57 33.15 10c0-.03 5.67-22.33-24.52-17.82z" fill="#c7db53"/></g><g id="socks"><g id="socks-2" data-name="socks"><path id="left-2" data-name="left" class="cls-4" d="M350.38 522.95h45.67v48.04h-45.67z"/><path id="right-2" data-name="right" class="cls-4" d="M404.88 522.95h45.67v48.04h-45.67z"/></g><path class="cls-5" d="M350.67 527.65h45.08v2.25h-45.08zm54.42 0h45.08v2.25h-45.08zm-54.42 4.5h45.08v2.25h-45.08zm54.42 0h45.08v2.25h-45.08z"/></g><g id="shorts"><path id="shorts-2" data-name="shorts" class="cls-5" d="M342.17 443.49h116.49v47a9.95 9.95 0 01-9.95 9.95h-96.6a9.95 9.95 0 01-9.95-9.95v-47h.01z"/><path class="cls-4" d="M347.91 443.97H350v53.8h-2.09zm4.17 0h2.09v53.8h-2.09zm94.75 0h2.09v53.8h-2.09zm4.17 0h2.09v53.8H451z"/></g><g id="shirt"><path id="shirt-2" data-name="shirt" class="cls-4" d="M370 315.75l-48.29 2.99-11.36 6.25-6.83 10.1-3.31 40.73 5.17 7.67 7.66 4.67h29.5l.17 54h114.83v-53.5l29.34-.17 7.01-4 6.99-10.5-3.4-37.33-6.83-11.84-9.77-6.08-49.84-2.99-1 21.24-6.5 6.5-11.16 3.48-11.88 2.02-15.46-3.17-11-5.66-3.66-3.84-.38-20.57z"/><g id="brand-adidas"><g id="adidas"><rect id="bottom" class="cls-5" x="355.91" y="367.96" width="14.43" height="2.04" rx=".62" ry=".62"/><path class="cls-5" d="M363.2 359.69a1.27 1.27 0 00-.46 1.73l3 5.15a1.26 1.26 0 001.1.63H369l-4.08-7.05a1.27 1.27 0 00-1.72-.46zm-2.53 2.56a1.27 1.27 0 00-.47 1.72l1.45 2.58a1.28 1.28 0 001.11.65H365l-2.56-4.48a1.26 1.26 0 00-1.77-.47zm-2.79 2.23a1.26 1.26 0 00-.47 1.71l.19.36a1.29 1.29 0 001.12.65h2.2l-1.29-2.26a1.28 1.28 0 00-1.75-.46z"/></g></g><path class="cls-5" d="M392.19 404.82a2 2 0 01-1.93-1.93v-11.58l-2.06 2.12a1.49 1.49 0 01-1.08.44 1.61 1.61 0 01-1.13-2.78l4.25-4.3a2.32 2.32 0 011.65-.66 2.27 2.27 0 012.29 2.23v14.53a2 2 0 01-1.99 1.93zm12.36.18c-5.27 0-7.61-4.77-7.61-9.51s2.34-9.48 7.61-9.48 7.61 4.74 7.61 9.48-2.37 9.51-7.61 9.51zm0-15.52c-2.65 0-3.64 2.62-3.64 6s1 6 3.64 6 3.61-2.65 3.61-6-.99-6.02-3.61-6.02z" id="number-10"/><g id="crest-egypt"><circle class="cls-4" cx="432.85" cy="366.75" r="10.11"/><path class="cls-5" d="M426.57 359.52l-3.22 6c0 .31-.06.62-.07.94l4-7.53c-.22.19-.47.38-.71.59zm2.57-1.6l-5.7 10.63v.05h.39l5.84-10.89q-.26.09-.53.21zm2.04-.6l-6.05 11.28h.42l6.09-11.35zm1.82-.15l-6.13 11.43h.42l6.13-11.41zm1.59.16l-6 11.27h.41l6-11.19zm1.5.4l-5.83 10.87h.43l5.75-10.73zm1.38.62L432 368.6h.43l5.39-10.06zm1.26.83l-5.05 9.42h.43l4.92-9.17zm1.15 1.06l-4.49 8.36h.43l4.32-8.06a2.55 2.55 0 00-.26-.3zm1.01 1.3l-3.79 7.06h.43l3.59-6.69c-.07-.13-.12-.25-.23-.37zm.85 1.61l-2.92 5.45h.42l2.67-5c-.05-.14-.11-.29-.17-.45zm.58 2.1l-1.79 3.35h.47l1.45-2.7c-.07-.21-.1-.43-.13-.65z"/><path fill="#e62f3c" d="M439.11 358.02l-5.76 10.57 2.7.06 4.9-9.31-1.84-1.32z"/><path class="cls-5" d="M422.43 368.04h20.86v1.11h-20.86z"/><rect x="427.31" y="370.52" width="12.2" height="2.21" rx="1.11" ry="1.11" fill="#2f8468"/><path d="M444.31 363.94c-.05-.18-.09-.35-.15-.53s-.1-.33-.16-.5-.11-.32-.17-.47-.12-.3-.19-.45-.13-.28-.2-.42a3.17 3.17 0 00-.21-.41c-.07-.13-.14-.26-.22-.39l-.22-.37-.24-.36-.25-.34-.25-.32-.26-.31-.27-.3-.27-.29-.28-.28-.29-.26a3.47 3.47 0 00-.29-.25l-.3-.24-.3-.23-.31-.22-.32-.21-.32-.2-.33-.18a11.77 11.77 0 00-11-.18 11.79 11.79 0 00-6.4 10.48 11.38 11.38 0 00.08 1.31c0 .18 0 .36.07.54a11.79 11.79 0 1023.1-4.66zm-11.46 12.39a9.57 9.57 0 01-9.4-7.73v-.05c0-.21-.07-.41-.1-.62s0-.46 0-.69v-.49a2.81 2.81 0 010-.29c0-.32 0-.63.07-.94a10.4 10.4 0 01.25-1.26 9.57 9.57 0 012.06-3.83 8.69 8.69 0 01.91-.91c.24-.21.49-.4.74-.59s.44-.29.66-.42.4-.23.61-.33a5.69 5.69 0 01.56-.26q.27-.12.54-.21l.52-.17c.16 0 .33-.09.5-.12l.48-.1.46-.07.45-.05h2.07l.39.06.39.08.38.09.37.11.36.12.35.14.35.14.34.17.34.17.32.19.32.2.32.22.3.22.3.25.29.25.28.27a3.83 3.83 0 01.28.29 2.55 2.55 0 01.26.3 3.88 3.88 0 01.26.31l.25.33c.09.12.16.24.24.36s.16.24.23.37a3.61 3.61 0 01.22.39c.07.13.14.27.2.41s.14.29.2.44.12.31.17.47.11.33.16.5.1.36.14.55.08.39.11.58.06.44.08.65 0 .49 0 .73a.49.49 0 010 .12v.73a9.58 9.58 0 01-9.58 8.92z"/><circle class="cls-4" cx="430.11" cy="363.09" r="3.58"/><path class="cls-5" d="M430.11 367.22a4.13 4.13 0 114.13-4.13 4.13 4.13 0 01-4.13 4.13zm0-7.15a3 3 0 103 3 3 3 0 00-3-3z"/></g><path class="cls-5" d="M370.88 335.31l-.38-20.57-6.07 2S353 345.2 378.48 350.42c20.37 4.17 22 3.69 22 3.69V348l-19.88-4.18zm65.69-18.57l-6.07-2-.38 20.57-9.74 8.54L400.5 348v6.08s1.65.48 22-3.69c25.5-5.19 14.07-33.65 14.07-33.65z"/><path class="cls-5" d="M329.68 327.46a1.5 1.5 0 01-.88-2.72c5.75-4.14 33.36-5.55 36.49-5.7a1.5 1.5 0 11.14 3c-11.93.57-31.07 2.4-34.87 5.15a1.53 1.53 0 01-.88.27zm0 5.42a1.5 1.5 0 01-.88-2.72c5.75-4.14 33.36-5.55 36.49-5.7a1.5 1.5 0 11.14 3c-11.93.56-31.07 2.39-34.87 5.14a1.53 1.53 0 01-.88.28zm141.64-5.42a1.5 1.5 0 00.88-2.72c-5.75-4.14-33.36-5.55-36.49-5.7a1.5 1.5 0 10-.14 3c11.93.57 31.07 2.4 34.87 5.15a1.53 1.53 0 00.88.27zm0 5.42a1.5 1.5 0 00.88-2.72c-5.75-4.14-33.36-5.55-36.49-5.7a1.5 1.5 0 00-.14 3c11.93.56 31.07 2.39 34.87 5.14a1.53 1.53 0 00.88.28z"/></g><path id="neck" fill="#ad7a66" d="M428.13 341.21l-27.59 8.62-28.6-9.62-1.92-23.62h61.04l-2.93 24.62z"/><path d="M503.38 369.38L500.91 339c-1.19-11.87-11.83-22.25-23.72-23.14l-37.14-2.7c-4.07-.45-20.52-.09-39.55.53-19-.62-35.48-1-39.55-.53l-37.14 2.7c-11.89.89-22.53 11.27-23.72 23.14l-2.47 30.36a20.14 20.14 0 005 15.74 18.65 18.65 0 001.69 1.64v66.36c0 12.81 9.32 23.23 20.78 23.23a19.8 19.8 0 0015.21-7.43v21.79a12.24 12.24 0 007.74 11.36v68h-5.93c-10.93 0-19.83 5.8-19.83 17.11 0 8.06 0 17 11.72 19.7v1.6a1.37 1.37 0 001.38 1.37h1.63a1.37 1.37 0 001.38-1.37v-1q1.72.15 3.72.15H344v.8a1.37 1.37 0 001.38 1.37h1.63a1.37 1.37 0 001.38-1.37v-.8H354v.8a1.37 1.37 0 001.38 1.37h1.63a1.37 1.37 0 001.38-1.37v-.8H364v.8a1.37 1.37 0 001.38 1.37h1.63a1.37 1.37 0 001.38-1.37v-.8H374v.8a1.37 1.37 0 001.38 1.37h1.63a1.37 1.37 0 001.38-1.37v-.8H384v.8a1.37 1.37 0 001.38 1.37h1.63a1.37 1.37 0 001.38-1.37v-.8H394v.8a1.37 1.37 0 001.38 1.37h1.63a1.37 1.37 0 001.38-1.37v-.81l.06-55.46V503h4v49.21l.06 54.67v1.6a1.37 1.37 0 001.38 1.37h1.63a1.37 1.37 0 001.38-1.37v-.8h5.61v.8a1.37 1.37 0 001.38 1.37h1.63a1.37 1.37 0 001.38-1.37v-.8h5.61v.8a1.37 1.37 0 001.38 1.37h1.63a1.37 1.37 0 001.38-1.37v-.8h5.61v.8a1.37 1.37 0 001.38 1.37h1.63a1.37 1.37 0 001.38-1.37v-.8h5.61v.8a1.37 1.37 0 001.38 1.37h1.63a1.37 1.37 0 001.38-1.37v-.8h5.61v.8a1.37 1.37 0 001.38 1.37h1.63a1.37 1.37 0 001.38-1.37v-.8h1.89c1.33 0 2.56 0 3.72-.15v1a1.37 1.37 0 001.38 1.37h1.63a1.37 1.37 0 001.38-1.37v-1.6c11.71-2.68 11.72-11.64 11.72-19.7 0-11.31-8.9-17.11-19.83-17.11h-5.93v-68a12.24 12.24 0 007.74-11.36v-21.84a19.8 19.8 0 0015.21 7.43c11.46 0 20.78-10.42 20.78-23.23v-66.36a18.65 18.65 0 001.69-1.64 20.14 20.14 0 005.1-15.74zM372.89 323.2c3.46 1.85 15.64 2.08 27.61 1.8 12 .28 24.15.05 27.61-1.8V335c0 4.81-22.42 12-27.23 12l-.38-.07-.38.07c-4.81 0-27.23-7.18-27.23-12zm-33 75.43v55c0 9.5-6.63 17.23-14.78 17.23s-14.78-7.73-14.78-17.23v-62.78a21.07 21.07 0 007.47 1.36h22.09zm52.91 203.42h-50.65c-14.21 0-14.21-5-14.21-14.89 0-8.22 6.37-11.5 14.21-11.5h11.67l38.93-2.7.07 15.37zm-38.74-76.4h38.67v41.7L354.08 570h-.26v-44.4zm-.26-5.74v-17h38.93v16.93h-38.91zm104.77 55.75h.26c7.84 0 14.21 3.28 14.21 11.5 0 9.91 0 14.89-14.21 14.89h-50.65v-13.7l.07-15.37 38.93 2.7h11.41zm-11.67-50h.26v44.4h-.26l-38.67-2.68v-41.7zm-38.67-5.74V503h38.93v17h-38.91zm46.84-73.78H455v44.58a6.6 6.6 0 01-6.58 6.58h-1.26l-43.68-.05s-.11-3.72-.16-8.75v-2.8c0-3.52-1.41-5.09-2.82-5-1.41-.08-2.82 1.49-2.82 5v2.79c-.05 5-.16 8.75-.16 8.75l-43.68.05h-1.26a6.6 6.6 0 01-6.58-6.58v-44.58h-.07v-.33l30.25.33h48.68l30.25-.33zm35.56 7.51c0 9.5-6.63 17.23-14.78 17.23s-14.78-7.73-14.78-17.23v-61.44h22.09a21.07 21.07 0 007.47-1.36zm6-77.21a13.55 13.55 0 01-2.76 4.66 13.85 13.85 0 01-3.24 2.63 14.72 14.72 0 01-7.47 2l-22.09.09v-20.15c0-5.56-6.08-5.93-6.08 0s.08 14.37.08 14.37v59.59H345.91V380s.08-8.45.08-14.37-6.08-5.54-6.08 0v20.11l-22.09-.09a14.72 14.72 0 01-7.47-2 13.85 13.85 0 01-3.24-2.63 13.55 13.55 0 01-2.76-4.66 14.79 14.79 0 01-.75-6.46l2.46-30.35c.9-8.95 9.23-17.08 18.2-17.75l11.12-.84 32.21-2.29c.68.55.49 17.49.49 17.49 0 8.43 23.34 15.29 31.77 15.29h1.3c8.43 0 31.77-6.86 31.77-15.29 0 0-.19-16.94.49-17.49l32.21 2.33 11.12.84c9 .67 17.3 8.8 18.2 17.75L497.4 370a14.79 14.79 0 01-.75 6.43z" id="border"/><g id="head"><path class="cls-9" d="M415.6 178.25c6.19 0 10.17 5.32 10.17 5.32 16.39.46 14.35 11.4 14.35 11.4 16.17 1.82 15.91 9.8 15.91 9.8 7 9.57 0 23.25 0 23.25 9.07 5.4-3.76 29.17-3.76 29.17a13.2 13.2 0 01-4.88 1.09c-14.31 0-9.32-34.41-14.56-44.36-5.76-10.94-18.4-9.8-27.33-12.3a15.82 15.82 0 01-5.51-3 15.69 15.69 0 01-5.5 3c-8.93 2.5-21.57 1.36-27.33 12.3-5.24 10-.25 44.36-14.56 44.36a13.16 13.16 0 01-4.88-1.09S334.89 233.42 344 228c0 0-7-13.68 0-23.25 0 0-.27-8 15.9-9.8 0 0-2-10.94 14.36-11.4 0 0 4-5.32 10.17-5.32 2.66 0 5.75 1 9.1 3.81a19.76 19.76 0 016.5-.39 18.88 18.88 0 012.06-.11 18.48 18.48 0 014.45.5c3.35-2.83 6.43-3.81 9.1-3.81m0-5a18 18 0 00-10.39 3.51 25.73 25.73 0 00-3.16-.2c-.69 0-1.38 0-2.06.09s-1.37-.09-2.05-.09a25.73 25.73 0 00-3.16.2 17.09 17.09 0 00-22.89 1.94c-6.35.54-11.07 2.67-14 6.34a13.7 13.7 0 00-2.71 5.61c-12.38 2.51-15.31 8.94-16 12.29-5.37 8.48-3 18.6-1.12 23.84-3 4.15-3.09 10.63-.36 19.35a86 86 0 005.65 13.44 4.94 4.94 0 002.53 2.26 18.18 18.18 0 006.75 1.45c4.47 0 10.46-2.13 13.58-12.26 1.75-5.67 2.34-12.64 2.92-19.38.51-6 1.08-12.74 2.48-15.39 3-5.66 8.29-6.91 16.68-8.29a73.15 73.15 0 007.58-1.53 18.14 18.14 0 004.15-1.76 18.4 18.4 0 004.16 1.76 73.15 73.15 0 007.58 1.53c8.38 1.38 13.69 2.63 16.68 8.29 1.39 2.65 2 9.42 2.48 15.39.58 6.74 1.17 13.71 2.92 19.38s5.48 12.26 13.58 12.26a18.18 18.18 0 006.75-1.45 4.94 4.94 0 002.53-2.26 86 86 0 005.65-13.44c2.73-8.72 2.61-15.2-.36-19.35 1.87-5.24 4.25-15.36-1.12-23.84-.68-3.35-3.62-9.78-16-12.29a13.7 13.7 0 00-2.71-5.61c-3-3.67-7.69-5.8-14.05-6.34a18 18 0 00-12.49-5.45z"/><path id="skin-2" data-name="skin" class="cls-1" d="M446.88 254.05c0-.91.08-1.81.08-2.73 0-30.51-21.06-55.25-47-55.25s-47 24.74-47 55.25c0 1.11 0 2.22.1 3.31-4.05 2.46-6.91 8.44-6.91 15.43 0 9.19 4.93 16.64 11 16.64a7.48 7.48 0 002.1-.32c.82 24.5 18.73 44.08 40.73 44.08S440 310.65 440.66 286a7.65 7.65 0 003.25.74c6.09 0 11-7.45 11-16.64.02-7.67-3.39-14.1-8.03-16.05z"/><path d="M444.63 252.77l-5.89-2.37c2.64 14.26-12.63 44-12.63 44h.14s-6.67 2.95-9.67 2.83L400.85 295a6.05 6.05 0 00-1.7 0l-15.73 2.29c-1.74.07-4.72-.9-6.92-1.72a7.26 7.26 0 01-4-3.66c-3.59-7.51-13.55-29.76-11.38-41.5l-5.89 2.37s-.08 29.4 5.27 39.48v4.28L377.13 322l22.87 7.66v-.37.18-.18.37l22.87-7.66 16.63-25.5V292c5.21-10.33 5.13-39.23 5.13-39.23zm-31.3 58.53s-1.87 9.15-13.33 8.14c-11.46 1-13.33-8.14-13.33-8.14-.46-8.25 13.33-7.1 13.33-7.1s13.79-1.15 13.33 7.1z" opacity=".8" fill="#1a1412"/><path class="cls-9" d="M399.92 333.46c-22.68 0-41.28-19-43.53-43.79-7.52-.49-13.32-8.93-13.32-19.61 0-7 2.64-13.45 6.84-16.92v-1.82c0-32.12 22.45-58.25 50-58.25s50 26.13 50 58.25v1c4.85 3.18 8 10 8 17.76 0 11-6.16 19.64-14 19.64h-.46c-2.25 24.79-20.78 43.74-43.53 43.74zm-40.73-50.08a3 3 0 013 2.9c.77 23.09 17.34 41.18 37.73 41.18 20.58 0 37.15-18.26 37.74-41.58a3 3 0 014.27-2.64 4.73 4.73 0 002 .46c4.35 0 8-6.25 8-13.64 0-7-3.13-11.94-6.22-13.25a3 3 0 01-1.83-2.89v-.18c0-.8.07-1.6.07-2.42 0-28.81-19.76-52.25-44-52.25s-44 23.44-44 52.25c0 .92 0 1.89.09 3.16a3 3 0 01-1.43 2.71c-3.27 2-5.47 7.16-5.47 12.87 0 7.39 3.67 13.64 8 13.64a4.69 4.69 0 001.25-.19 2.74 2.74 0 01.8-.13z"/><path d="M456 228s7-13.68 0-23.25c0 0 .26-8-15.91-9.8 0 0 2-10.94-14.35-11.4 0 0-8.14-10.9-19.27-1.51a19.6 19.6 0 00-6.51-.39 19.56 19.56 0 00-6.5.39c-11.13-9.39-19.27 1.51-19.27 1.51-16.4.46-14.36 11.4-14.36 11.4-16.17 1.82-15.9 9.8-15.9 9.8-7 9.57 0 23.25 0 23.25-9.07 5.4 3.76 29.17 3.76 29.17 9.19 3.71 12.86-2.58 14.66-11.58 2.47-4.56 4.62-9.88 4.78-14.82.39-12.08 4.72-14.13 4.72-14.13l28.15 3.89 28.11-3.87s4.33 2.05 4.72 14.13c.16 4.94 2.3 10.26 4.78 14.82 1.8 9 5.47 15.29 14.66 11.58 0 0 12.83-23.77 3.73-29.19z" fill="#1a1412"/></g></svg>