<svg id="player" xmlns="http://www.w3.org/2000/svg" viewBox="0 0 800 800"><defs><style>.cls-1{fill:#4c2b1e}.cls-2{fill:#fff}.cls-4{fill:#3a5d4b}.cls-5{fill:#b6d98f}.cls-10{fill:#231f20}</style></defs><g id="skin"><path id="arm-left" class="cls-1" d="M306.43 383h36.78v72.38a18.39 18.39 0 01-18.39 18.39 18.39 18.39 0 01-18.39-18.39V383z"/><path id="arm-right" class="cls-1" d="M457.69 383h36.78v72.38a18.39 18.39 0 01-18.39 18.39 18.39 18.39 0 01-18.39-18.39V383z"/><path id="leg-left" class="cls-1" d="M350.38 492.97h45.67v45.67h-45.67z"/><path id="leg-right" class="cls-1" d="M405.28 492.97h45.67v45.67h-45.67z"/></g><g id="boots"><path id="left" class="cls-2" d="M395.83 570.99H373l-22.83 1.98h-12.5l-7.5 2.52-5.25 8.5v9.83l1.91 4.17 3.84 4.06 6.33 1.94h58.83v-33z"/><path id="right" class="cls-2" d="M405.11 571.22h22.83l22.83 1.97h12.5l7.5 2.53 5.25 8.5v9.83l-1.91 4.17-3.84 4.05-6.33 1.95h-58.83v-33z"/><path d="M395.52 589.88c-.61.16-72.14-.22-70.23 3.94a36.4 36.4 0 005.75 8.23s62.42-8.81 65.09-5.45zm0-12.16c-.61.15-71.29 3.88-69.38 8s-.85 4.6-.85 4.6 68.17-9.28 70.84-5.92zm9.97 12.16c.61.16 72.14-.22 70.23 3.94a36.51 36.51 0 01-5.74 8.23s-62.43-8.81-65.1-5.45zm0-12.16c.61.15 71.3 3.88 69.39 8s.84 4.6.84 4.6-68.17-9.28-70.84-5.92z" fill="#dcdbdb"/></g><g id="socks"><g id="socks-2" data-name="socks"><path id="left-2" data-name="left" class="cls-4" d="M350.38 522.95h45.67v48.04h-45.67z"/><path id="right-2" data-name="right" class="cls-4" d="M404.88 522.95h45.67v48.04h-45.67z"/></g><path class="cls-5" d="M351.02 541.08h45.11v9.82h-45.11zm54.43 0h45.11v9.82h-45.11z"/></g><g id="shorts"><path id="shorts-2" data-name="shorts" class="cls-4" d="M342.17 443.49h116.49v47a9.95 9.95 0 01-9.95 9.95h-96.6a9.95 9.95 0 01-9.95-9.95v-47h.01z"/></g><g id="shirt"><path id="shirt-2" data-name="shirt" class="cls-4" d="M370 315.75l-48.29 2.99-7.43 4.09-3.93 2.16-6.83 10.1-3.31 40.73 5.17 7.67 7.66 4.67h29.5l.17 54h114.83v-53.5l29.34-.17 7.01-4 6.99-10.5-3.4-37.33-6.83-11.84-9.77-6.08-49.84-2.99-1 21.24-6.5 6.5-11.16 3.48-11.88 2.02-15.46-3.17-11-5.66-3.66-3.84-.38-20.57z"/><path d="M361.16 315.69s-7.47 29.55 19.34 30.38l-10.15-10.52 1.14-20.7zm78.68 0s7.47 29.55-19.34 30.38l10.15-10.52-1.14-20.7z" fill="#304c3c"/><g id="brand-nike"><path id="nike" class="cls-5" d="M373.82 364.17c0 1.19-1.57 2.17-3.49 2.17h-9.25c-1.92 0-3.5-1-3.5-2.17s1.58-2.17 3.5-2.17h9.25c1.92 0 3.49 1 3.49 2.17z"/></g><path class="cls-5" d="M362.27 380.76c-2-.75-3.63-2.22-3.63-4.72 0-3.76 3.66-5.29 7.06-5.29s7.06 1.53 7.06 5.29c0 2.5-1.62 4-3.65 4.72a5.69 5.69 0 014 5.15c0 3.72-3.52 5.56-7.37 5.56s-7.36-1.81-7.36-5.56a5.66 5.66 0 013.89-5.15zm3.43 1.9c-1.15.15-3.4 1-3.4 2.73 0 1.48 1.48 2.41 3.4 2.41s3.41-.93 3.41-2.41c0-1.74-2.28-2.58-3.41-2.73zm0-8.24c-1.81 0-3.1.87-3.1 2.29s2 2.25 3.1 2.43c1.13-.18 3.08-.87 3.08-2.43s-1.29-2.29-3.08-2.29z"/><path d="M434.36 361.58a8.88 8.88 0 11-8.87 8.87 8.87 8.87 0 018.87-8.87m0-2.44a11.32 11.32 0 108 3.31 11.23 11.23 0 00-8-3.31z" fill="#1e1e1e"/><path class="cls-2" d="M434.36 382.17a11.71 11.71 0 118.29-3.43 11.63 11.63 0 01-8.29 3.43zm0-22.62a10.89 10.89 0 107.72 3.19 10.83 10.83 0 00-7.72-3.19z"/><circle cx="434.36" cy="370.45" r="8.87" fill="#008a59"/><path class="cls-2" d="M435.51 369.06l.21-2.85a1 1 0 00-.75-1 1.75 1.75 0 00-1.87.4.15.15 0 01-.1 0 1.22 1.22 0 00-.46.09c-.37.14-1 .45-1.19.87a.13.13 0 00.12.17h1.59s.58 0 .49.68a4.67 4.67 0 01-.51 1.64c-1.3-1-3.52-2.47-3.39.1.18 3.74 0 6.61.36 6.67s1.25-.83 2.08-2a4.18 4.18 0 002.15.49h.06a4 4 0 002.28-.57 5.91 5.91 0 002.14 2.05c.37-.06.18-2.93.36-6.67.14-2.78-2.34-1.08-3.57-.07z"/></g><path id="neck" fill="#381f15" d="M428.13 341.21l-27.59 8.62-28.6-9.62-1.92-23.62h61.04l-2.93 24.62z"/><path d="M503.38 369.38L500.91 339c-1.19-11.87-11.83-22.25-23.72-23.14l-37.14-2.7c-4.07-.45-20.52-.09-39.55.53-19-.62-35.48-1-39.55-.53l-37.14 2.7c-11.89.89-22.53 11.27-23.72 23.14l-2.47 30.36a20.14 20.14 0 005 15.74 18.65 18.65 0 001.69 1.64v66.36c0 12.81 9.32 23.23 20.78 23.23a19.8 19.8 0 0015.21-7.43v21.79a12.24 12.24 0 007.74 11.36v68h-5.93c-10.93 0-19.83 5.8-19.83 17.11 0 8.06 0 17 11.72 19.7v1.6a1.37 1.37 0 001.38 1.37h1.63a1.37 1.37 0 001.38-1.37v-1q1.72.15 3.72.15H344v.8a1.37 1.37 0 001.38 1.37h1.63a1.37 1.37 0 001.38-1.37v-.8H354v.8a1.37 1.37 0 001.38 1.37h1.63a1.37 1.37 0 001.38-1.37v-.8H364v.8a1.37 1.37 0 001.38 1.37h1.63a1.37 1.37 0 001.38-1.37v-.8H374v.8a1.37 1.37 0 001.38 1.37h1.63a1.37 1.37 0 001.38-1.37v-.8H384v.8a1.37 1.37 0 001.38 1.37h1.63a1.37 1.37 0 001.38-1.37v-.8H394v.8a1.37 1.37 0 001.38 1.37h1.63a1.37 1.37 0 001.38-1.37v-.81l.06-55.46V503h4v49.21l.06 54.67v1.6a1.37 1.37 0 001.38 1.37h1.63a1.37 1.37 0 001.38-1.37v-.8h5.61v.8a1.37 1.37 0 001.38 1.37h1.63a1.37 1.37 0 001.38-1.37v-.8h5.61v.8a1.37 1.37 0 001.38 1.37h1.63a1.37 1.37 0 001.38-1.37v-.8h5.61v.8a1.37 1.37 0 001.38 1.37h1.63a1.37 1.37 0 001.38-1.37v-.8h5.61v.8a1.37 1.37 0 001.38 1.37h1.63a1.37 1.37 0 001.38-1.37v-.8h5.61v.8a1.37 1.37 0 001.38 1.37h1.63a1.37 1.37 0 001.38-1.37v-.8h1.89c1.33 0 2.56 0 3.72-.15v1a1.37 1.37 0 001.38 1.37h1.63a1.37 1.37 0 001.38-1.37v-1.6c11.71-2.68 11.72-11.64 11.72-19.7 0-11.31-8.9-17.11-19.83-17.11h-5.93v-68a12.24 12.24 0 007.74-11.36v-21.84a19.8 19.8 0 0015.21 7.43c11.46 0 20.78-10.42 20.78-23.23v-66.36a18.65 18.65 0 001.69-1.64 20.14 20.14 0 005.1-15.74zM372.89 323.2c3.46 1.85 15.64 2.08 27.61 1.8 12 .28 24.15.05 27.61-1.8V335c0 4.81-22.42 12-27.23 12l-.38-.07-.38.07c-4.81 0-27.23-7.18-27.23-12zm-33 75.43v55c0 9.5-6.63 17.23-14.78 17.23s-14.78-7.73-14.78-17.23v-62.78a21.07 21.07 0 007.47 1.36h22.09zm52.91 203.42h-50.65c-14.21 0-14.21-5-14.21-14.89 0-8.22 6.37-11.5 14.21-11.5h11.67l38.93-2.7.07 15.37zm-38.74-76.4h38.67v41.7L354.08 570h-.26v-44.4zm-.26-5.74v-17h38.93v16.93h-38.91zm104.77 55.75h.26c7.84 0 14.21 3.28 14.21 11.5 0 9.91 0 14.89-14.21 14.89h-50.65v-13.7l.07-15.37 38.93 2.7h11.41zm-11.67-50h.26v44.4h-.26l-38.67-2.68v-41.7zm-38.67-5.74V503h38.93v17h-38.91zm46.84-73.78H455v44.58a6.6 6.6 0 01-6.58 6.58h-1.26l-43.68-.05s-.11-3.72-.16-8.75v-2.8c0-3.52-1.41-5.09-2.82-5-1.41-.08-2.82 1.49-2.82 5v2.79c-.05 5-.16 8.75-.16 8.75l-43.68.05h-1.26a6.6 6.6 0 01-6.58-6.58v-44.58h-.07v-.33l30.25.33h48.68l30.25-.33zm35.56 7.51c0 9.5-6.63 17.23-14.78 17.23s-14.78-7.73-14.78-17.23v-61.44h22.09a21.07 21.07 0 007.47-1.36zm6-77.21a13.55 13.55 0 01-2.76 4.66 13.85 13.85 0 01-3.24 2.63 14.72 14.72 0 01-7.47 2l-22.09.09v-20.15c0-5.56-6.08-5.93-6.08 0s.08 14.37.08 14.37v59.59H345.91V380s.08-8.45.08-14.37-6.08-5.54-6.08 0v20.11l-22.09-.09a14.72 14.72 0 01-7.47-2 13.85 13.85 0 01-3.24-2.63 13.55 13.55 0 01-2.76-4.66 14.79 14.79 0 01-.75-6.46l2.46-30.35c.9-8.95 9.23-17.08 18.2-17.75l11.12-.84 32.21-2.29c.68.55.49 17.49.49 17.49 0 8.43 23.34 15.29 31.77 15.29h1.3c8.43 0 31.77-6.86 31.77-15.29 0 0-.19-16.94.49-17.49l32.21 2.33 11.12.84c9 .67 17.3 8.8 18.2 17.75L497.4 370a14.79 14.79 0 01-.75 6.43z" id="border"/><g id="head"><path class="cls-10" d="M407.1 195c2 0 4.89 2 4.89 2a3.42 3.42 0 011.57-.35c3.24 0 7.72 3.35 7.72 3.35a2.5 2.5 0 011-.2c2.49 0 5.3 3.2 5.3 3.2a1 1 0 01.42 0c1.79 0 5.07 3.78 6.06 5.44.49.8-.38 3.67-1.47 6.59a13.73 13.73 0 01-11.05 8.81 59.45 59.45 0 01-7.42.43 96.37 96.37 0 01-13.2-1 15.09 15.09 0 00-2-.14 14.7 14.7 0 00-2.38.2 66.66 66.66 0 01-10.93.92 56.25 56.25 0 01-6.95-.42 13.77 13.77 0 01-11.22-8.83c-1.09-2.9-1.95-5.76-1.47-6.56 1-1.66 4.28-5.44 6.07-5.44a1 1 0 01.36.06s2.81-3.2 5.3-3.2a2.5 2.5 0 011 .2s4.48-3.35 7.72-3.35a3.35 3.35 0 011.56.35s2.87-2 4.9-2a1.7 1.7 0 011.65.94 5.35 5.35 0 012.12-.5 2.8 2.8 0 011.69.5l1.64.71 1.65-.71a2.79 2.79 0 011.68-.5 5.36 5.36 0 012.13.5 1.7 1.7 0 011.65-.94m0-5a7.13 7.13 0 00-2.67.51 7.87 7.87 0 00-1.11-.07 8.08 8.08 0 00-3.33.7 8 8 0 00-3.33-.7 7.82 7.82 0 00-1.1.07 7.13 7.13 0 00-2.67-.51 12.73 12.73 0 00-5.78 1.73h-.68c-3.34 0-6.82 1.8-9 3.15-3.07.1-5.75 2-7.38 3.46-4.62 1.46-8.35 7.48-8.39 7.55-1.56 2.6-.83 5.83 1.07 10.89a18.7 18.7 0 0015.22 12 61.82 61.82 0 007.57.46 71.24 71.24 0 0011.76-1 10.13 10.13 0 011.55-.13 8.17 8.17 0 011.31.1 102.78 102.78 0 0013.9 1 64.47 64.47 0 008-.47 18.61 18.61 0 0015.1-12c1.91-5.08 2.65-8.32 1.09-10.92 0-.07-3.77-6.09-8.39-7.55-1.64-1.48-4.31-3.36-7.38-3.46-2.15-1.35-5.63-3.15-9-3.15h-.68a12.73 12.73 0 00-5.67-1.72z"/><path id="skin-2" data-name="skin" class="cls-1" d="M446.88 254.05c0-.91.08-1.81.08-2.73 0-30.51-21.06-55.25-47-55.25s-47 24.74-47 55.25c0 1.11 0 2.22.1 3.31-4.05 2.46-6.91 8.44-6.91 15.43 0 9.19 4.93 16.64 11 16.64a7.48 7.48 0 002.1-.32c.82 24.5 18.73 44.08 40.73 44.08S440 310.65 440.66 286a7.65 7.65 0 003.25.74c6.09 0 11-7.45 11-16.64.02-7.67-3.39-14.1-8.03-16.05z"/><path class="cls-10" d="M399.92 333.46c-22.68 0-41.28-19-43.53-43.79-7.52-.49-13.32-8.93-13.32-19.61 0-7 2.64-13.45 6.84-16.92v-1.82c0-32.12 22.45-58.25 50-58.25s50 26.13 50 58.25v1c4.85 3.18 8 10 8 17.76 0 11-6.16 19.64-14 19.64h-.46c-2.25 24.79-20.78 43.74-43.53 43.74zm-40.73-50.08a3 3 0 013 2.9c.77 23.09 17.34 41.18 37.73 41.18 20.58 0 37.15-18.26 37.74-41.58a3 3 0 014.27-2.64 4.73 4.73 0 002 .46c4.35 0 8-6.25 8-13.64 0-7-3.13-11.94-6.22-13.25a3 3 0 01-1.83-2.89v-.18c0-.8.07-1.6.07-2.42 0-28.81-19.76-52.25-44-52.25s-44 23.44-44 52.25c0 .92 0 1.89.09 3.16a3 3 0 01-1.43 2.71c-3.27 2-5.47 7.16-5.47 12.87 0 7.39 3.67 13.64 8 13.64a4.69 4.69 0 001.25-.19 2.74 2.74 0 01.8-.13z"/><path d="M359.27 223.51c-9.39 27.81-3.3 31-3.3 31s14.41-16.61 14-23.41.35-13.86 2.87-13.34 27.1 2.36 27.1 2.36l-.07-24s-31.2-.43-40.6 27.39zm81.44 0c-9.39-27.82-40.64-27.44-40.64-27.44l-.08 24s24.58-1.83 27.11-2.36 3.23 6.54 2.87 13.34 14 23.41 14 23.41 6.14-3.14-3.26-30.95z" fill="#130e0d" opacity=".4"/><path d="M434 208.45c-1.07-1.78-4.76-6-6.42-5.38 0 0-3.64-4.14-6.31-3 0 0-6.19-4.62-9.29-3 0 0-5.23-3.73-6.54-1.11 0 0-2.24-1.12-3.81 0l-1.65.71-1.64-.71c-1.57-1.12-3.81 0-3.81 0-1.31-2.62-6.55 1.11-6.55 1.11-3.09-1.62-9.28 3-9.28 3-2.68-1.14-6.31 3-6.31 3-1.67-.62-5.35 3.6-6.43 5.38-.48.8.38 3.66 1.47 6.56a13.77 13.77 0 0011.16 8.85 64 64 0 0017.88-.5 14.68 14.68 0 014.39-.06c4 .57 12.77 1.54 20.62.55a13.73 13.73 0 0011.06-8.85c1.09-2.88 1.96-5.75 1.46-6.55z" fill="#130e0d"/></g></svg>