<svg id="player" xmlns="http://www.w3.org/2000/svg" viewBox="0 0 800 800"><defs><clipPath id="clip-path"><path class="cls-1" d="M349.28 441.22c-2.57 2.22-6.4.24-6.37-3.29l.38-38.71v-12.4H382v26.1z"/></clipPath><clipPath id="clip-path-2"><path class="cls-1" d="M451.72 441.22c2.57 2.22 6.4.24 6.37-3.29l-.38-38.71v-12.4H419v26.1z"/></clipPath><style>.cls-1{fill:none}.cls-2{fill:#be9177}.cls-3{fill:#fff}.cls-5{fill:#d62027}.cls-6{fill:#3b766b}.cls-9{fill:#2d2d2d}.cls-12{fill:#45a593}.cls-13{fill:#34af98}.cls-16{fill:#231f20}</style></defs><g id="skin"><path id="arm-left" class="cls-2" d="M306.43 383h36.78v72.38a18.39 18.39 0 01-18.39 18.39 18.39 18.39 0 01-18.39-18.39V383z"/><path id="arm-right" class="cls-2" d="M457.69 383h36.78v72.38a18.39 18.39 0 01-18.39 18.39 18.39 18.39 0 01-18.39-18.39V383z"/><path id="leg-left" class="cls-2" d="M350.38 492.97h45.67v45.67h-45.67z"/><path id="leg-right" class="cls-2" d="M405.28 492.97h45.67v45.67h-45.67z"/></g><g id="boots"><path id="left" class="cls-3" d="M395.83 570.99H373l-22.83 1.98h-12.5l-7.5 2.52-5.25 8.5v9.83l1.91 4.17 3.84 4.06 6.33 1.94h58.83v-33z"/><path id="right" class="cls-3" d="M405.11 571.22h22.83l22.83 1.97h12.5l7.5 2.53 5.25 8.5v9.83l-1.91 4.17-3.84 4.05-6.33 1.95h-58.83v-33z"/><path d="M395.23 573.75s-23.4 18.4-34.85 17.06-30.47-.68-28.64 11.24L337 604h58.83zm10.48 0s23.4 18.4 34.85 17.06 30.47-.68 28.64 11.24l-5.26 1.95h-58.83z" fill="#c6c6c5"/></g><g id="socks"><g id="socks-2" data-name="socks"><path id="left-2" data-name="left" class="cls-5" d="M350.38 522.95h45.67v48.04h-45.67z"/><path id="right-2" data-name="right" class="cls-5" d="M404.88 522.95h45.67v48.04h-45.67z"/></g><path class="cls-3" d="M350.72 527.68h45.08v2.25h-45.08zm54.42 0h45.08v2.25h-45.08zm-54.42 4.5h45.08v2.25h-45.08zm54.42 0h45.08v2.25h-45.08z"/></g><g id="shorts"><path id="shorts-2" data-name="shorts" class="cls-3" d="M342.17 443.49h116.49v47a9.95 9.95 0 01-9.95 9.95h-96.6a9.95 9.95 0 01-9.95-9.95v-47h.01z"/><path class="cls-6" d="M347.91 443.49H350v53.8h-2.09zm4.17 0h2.09v53.8h-2.09zm94.75 0h2.09v53.8h-2.09zm4.17 0h2.09v53.8H451z"/></g><g id="shirt"><path id="shirt-2" data-name="shirt" class="cls-6" d="M370 315.75l-48.29 2.99-11.36 6.25-6.83 10.1-3.31 40.73 5.17 7.67 7.66 4.67h29.5l.17 54h114.83v-53.5l29.34-.17 7.01-4 6.99-10.5-3.4-37.33-6.83-11.84-9.77-6.08-49.84-2.99-1 21.24-6.5 6.5-11.16 3.48-11.88 2.02-15.46-3.17-11-5.66-3.66-3.84-.38-20.57z"/><path class="cls-3" transform="rotate(-5.81 339.281 324.043)" d="M310 321.81h57.95v4H310z"/><path class="cls-3" transform="rotate(-5.81 337.218 329.668)" d="M305.9 327.35h62.06v4H305.9z"/><path class="cls-3" transform="rotate(-84.19 461.983 323.82)" d="M460.02 294.84h4v57.95h-4z"/><path class="cls-3" transform="rotate(-84.19 464.028 329.356)" d="M462.06 298.33h4v62.06h-4z"/><path class="cls-3" d="M370.38 336.32l-.38-20.57-6.07 2s-11.46 28.46 14.07 33.68c20.37 4.17 22 3.69 22 3.69V349l-19.88-4.18zm65.69-18.56l-6.07-2-.38 20.57-9.74 8.54L400 349v6.08s1.65.48 22-3.69c25.53-5.18 14.07-33.63 14.07-33.63z"/><g id="brand-adidas"><g id="adidas"><rect id="bottom" class="cls-3" x="357.51" y="365.84" width="14.43" height="2.04" rx=".62" ry=".62"/><path class="cls-3" d="M364.79 357.57a1.26 1.26 0 00-.46 1.72l3 5.15a1.26 1.26 0 001.1.64h2.21l-4.11-7.08a1.27 1.27 0 00-1.74-.43zm-2.53 2.56a1.26 1.26 0 00-.47 1.71l1.45 2.59a1.28 1.28 0 001.11.65h2.21l-2.56-4.49a1.26 1.26 0 00-1.74-.46zm-2.79 2.22a1.27 1.27 0 00-.47 1.72l.2.35a1.26 1.26 0 001.11.66h2.2l-1.29-2.26a1.29 1.29 0 00-1.75-.47z"/></g></g><circle class="cls-3" cx="434.28" cy="369.28" r="8.62"/><path d="M440.55 363.37l-1.11 1.1c-.9.9-1.13 9.2-.19 10.14l.94.94a8.66 8.66 0 002.7-5.91v-.36a8.59 8.59 0 00-2.34-5.91z" fill="#ee2524"/><path d="M429.11 364.47l-1.1-1.1a8.56 8.56 0 00-2.35 5.91v.36a8.6 8.6 0 002.69 5.91l.94-.94c.96-.94.71-9.24-.18-10.14z" fill="#048342"/><path class="cls-9" d="M441.38 362.66c-1-4-7.5-5.33-7.5-5.33s-2.38 0-1.82 1.12a2.62 2.62 0 01.17 1.65.66.66 0 01-.82.54h-.1s.76-2.41-1.76-2.22l-2.39 1.2a.62.62 0 00-.24.92l.24.34a.47.47 0 00.76 0v-.05l1.16.17a.49.49 0 01.43.52l-.05 1.3a4.44 4.44 0 00.65 2.59 3.41 3.41 0 002.4 1.64l-.56 2.79a.79.79 0 00.86.94l2.15-.24a.78.78 0 00.66-1l-.91-2.75 6 1.09a.79.79 0 00.94-.83z"/><circle class="cls-9" cx="434.01" cy="374.67" r="5.71"/><path d="M433.88 357.33s6.46 1.37 7.5 5.33l.14 1.94.18.3v.05c.06.1.11.2.16.3a.16.16 0 010 .07c.05.09.1.19.14.28v.09l.12.28a.49.49 0 010 .11c0 .09.08.18.11.27s0 .08 0 .13l.09.26a.57.57 0 000 .14 1.82 1.82 0 00.07.25v.17l.06.24v.64a1.23 1.23 0 010 .19 2.45 2.45 0 010 .27.92.92 0 010 .16v1.23c0 .14 0 .28-.05.42 0 .14-.05.27-.07.41l-.09.4c0 .14-.07.27-.11.39 0 .13-.08.26-.13.38l-.15.37c-.05.12-.1.24-.16.36 0 .12-.11.24-.17.36l-.19.35-.21.34-.24.34a8.53 8.53 0 01-1.72 1.78 5.72 5.72 0 01-5.12 4.27h-.42a5.73 5.73 0 01-5.64-4.84 9.63 9.63 0 01-1.07-1.23 4 4 0 01-.23-.34l-.21-.34c-.07-.12-.14-.23-.2-.35a3 3 0 01-.18-.36l-.16-.36-.15-.37c0-.12-.09-.25-.12-.38a3.69 3.69 0 01-.1-.39l-.09-.4c0-.14-.05-.27-.07-.41 0-.14 0-.28-.05-.42v-1.66a1.23 1.23 0 000-.19v-.64l.06-.24a1.36 1.36 0 010-.17l.06-.25v-.14a2 2 0 01.08-.26.93.93 0 000-.13l.11-.27a.49.49 0 010-.11l.12-.28v-.09l.14-.28a.16.16 0 010-.07c.05-.1.1-.2.16-.3v-.05l.18-.3.2-.3a2.32 2.32 0 01.22-.3l.25-.3.27-.29a8.17 8.17 0 011.52-1.29v-.59a.49.49 0 00-.43-.52l-.29-.19v.05a.46.46 0 01-.38.2.47.47 0 01-.38-.2l-.24-.34a.62.62 0 01.24-.92l2.39-1.2h.26c2.21 0 1.5 2.23 1.5 2.23h.27a.66.66 0 00.65-.56 2.62 2.62 0 00-.17-1.65c-.56-1.08 1.82-1.12 1.82-1.12m0-2a9.74 9.74 0 00-1.13.12 3.71 3.71 0 00-2.07 1 4.28 4.28 0 00-.83-.07h-.41a2.05 2.05 0 00-.77.21l-2.39 1.2a2.67 2.67 0 00-1 3.92l.23.33a2.43 2.43 0 00.52.54l-.12.15c-.09.12-.19.24-.27.37-.08.12-.17.24-.25.37-.08.12-.15.24-.22.36v.06l-.2.36v.07c-.06.13-.12.24-.17.36a.59.59 0 000 .08l-.15.35v.11l-.13.34v.12c0 .11-.07.21-.11.33s0 .09 0 .14v.06a1.71 1.71 0 00-.08.29.85.85 0 000 .17v.08c0 .07 0 .16-.06.25v2.54a4.67 4.67 0 000 .52l.06.5c0 .16 0 .33.09.49 0 .15.07.31.11.48 0 .15.08.31.13.47a4.11 4.11 0 00.15.46c0 .15.11.3.17.45l.19.45a4.66 4.66 0 00.22.45l.24.43c.08.15.17.29.26.43.1.14.19.28.29.41a10.54 10.54 0 00.86 1 7.66 7.66 0 002.47 4 7.75 7.75 0 005 1.87h.57a7.75 7.75 0 006.73-5.12 10.82 10.82 0 001.61-1.77l.29-.42c.09-.13.18-.28.26-.42l.24-.43c.07-.15.15-.3.21-.45.07-.15.13-.3.19-.45.06-.15.12-.3.17-.45a4.11 4.11 0 00.15-.46c.05-.16.09-.32.13-.47 0-.17.07-.33.1-.48 0-.17.05-.33.08-.5l.06-.51a4.53 4.53 0 000-.52v-.98a.86.86 0 000-.16v-.37a1.23 1.23 0 000-.19v-.84c0-.09 0-.18-.06-.25v-.08a.85.85 0 000-.17c0-.11-.05-.21-.07-.29v-.2c0-.05-.07-.22-.11-.32s0-.08 0-.12-.09-.24-.13-.34a.49.49 0 000-.11l-.15-.34v-.08c-.05-.12-.11-.23-.17-.36v-.07c-.06-.11-.12-.23-.2-.36l-.11-1.45a2.2 2.2 0 00-.06-.37 7.25 7.25 0 00-2.2-3.49 12.44 12.44 0 00-3-2 18.55 18.55 0 00-3.82-1.34 2 2 0 00-.42 0zm-8.8 19.36z" fill="#be9f63"/><path class="cls-3" d="M394 395.18a1.67 1.67 0 011.66-1.67 1.52 1.52 0 01.77.19 4.85 4.85 0 002.54.61c2.92 0 4.56-2.49 4.56-5.25v-.38a6 6 0 01-4.7 2.35c-3.28 0-6.23-2-6.23-5.91 0-3.55 2.84-6.26 7-6.26 5.52 0 7.84 4.27 7.84 9.43 0 5.5-3.09 9.4-8.47 9.4a8.17 8.17 0 01-4.05-1 1.66 1.66 0 01-.92-1.51zm5.76-12.95a2.94 2.94 0 00-3.2 2.73c0 1.94 1.62 2.79 3.37 2.79a4.58 4.58 0 003.55-1.7c-.16-1.75-1.14-3.82-3.74-3.82z"/><g clip-path="url(#clip-path)"><path class="cls-12" d="M379.79 414.63l1.37-1.19h-18.49l-1.37 1.19h18.49zm-9.94 8.65l1.37-1.19h-18.49l-1.37 1.19h18.49zm-11.88 10.35h-15.14v1.19h13.77l1.37-1.19zm-6.63 5.76h-8.51v1.19h7.14l1.37-1.19zm-3.31 2.88h-5.2v1.2h3.83l1.37-1.2zm27.94-40.61h.16l-.05-.1-.11.1zm-31.25 43.5h-1.89v1.19h.52l1.37-1.19zm9.93-8.65h-11.82v1.19h10.46l1.36-1.19zm22.25-33.41l-.63-1.19h-.59l-1.36 1.19h2.58zm-3.74 17.3l1.37-1.19h-18.49l-1.37 1.19h18.49zm3.32-2.88l1.37-1.2h-18.49l-1.37 1.2h18.49zm-9.94 8.65l1.37-1.2h-18.49l-1.37 1.2h18.49zm14.94-14.42l-.63-1.19h-14.87l-1.37 1.19h16.87zm-18.25 17.3l1.36-1.19H346.1l-1.36 1.19h18.49zm16.72-20.18l-.63-1.2H369.3l-1.37 1.2h12.02zm-18.67 21.87h-18.45v1.19h17.08l1.37-1.19zm17.15-24.76l-.64-1.19h-5.4l-1.35 1.19h7.39z"/><path class="cls-13" d="M366.37 400.21l-.63-1.19h-5.19l-1.36 1.19h7.18zm1.53 2.89l-.63-1.19h-9.84l-1.37 1.19h11.84zm-3.29 8.65l1.37-1.19h-18.49l-1.37 1.19h18.49zm.24-14.42l-.64-1.19h-.39l-1.35 1.19h2.38zm4.58 8.65l-.63-1.19h-14.68l-1.37 1.19h16.68zm-1.5 2.89l1.37-1.2h-18.49l-1.37 1.2h18.49zm-19.88 17.3l1.37-1.2h-6.59v1.2h5.22zm6.62-5.77l1.37-1.19h-13.21v1.19h11.84zm-3.31 2.88l1.37-1.19h-9.9v1.19h8.53zm9.94-8.65l1.37-1.19h-18.49l-1.35 1.18v.01h18.47zm-16.56 14.42l1.36-1.19h-3.27v1.19h1.91zm13.25-11.53l1.37-1.2h-16.53v1.2h15.16z"/><path class="cls-12" d="M353.69 393.26h-5.05l-1.37 1.19h7.05l-.63-1.19zm1.53 2.88h-9.89l-1.37 1.19h11.89l-.63-1.19zm-3.06-5.77h-.21l-1.37 1.19h2.21l-.63-1.19zm4.58 8.65h-13.45l-.04 1.19h14.13l-.64-1.19zm-7.3 9.85l1.37-1.2h-7.78l-.03 1.2h6.44zm3.31-2.89l1.37-1.19h-11l-.04 1.19h9.67zm3.31-2.88l1.37-1.19H343.2l-.03 1.19h12.89zm-13.2 10.34l-.03 1.18 1.35-1.18h-1.32zm3.26-1.69l1.37-1.19h-4.54l-.04 1.19h3.21z"/></g><g clip-path="url(#clip-path-2)"><path class="cls-12" d="M421.21 414.63l-1.37-1.19h18.49l1.37 1.19h-18.49zm9.94 8.65l-1.37-1.19h18.49l1.37 1.19h-18.49zm11.88 10.35h15.14v1.19H444.4l-1.37-1.19zm6.63 5.76h8.51v1.19h-7.14l-1.37-1.19zm3.31 2.88h5.2v1.2h-3.83l-1.37-1.2zm-27.94-40.61h-.16l.05-.1.11.1zm31.25 43.5h1.89v1.19h-.52l-1.37-1.19zm-9.93-8.65h11.82v1.19h-10.46l-1.36-1.19zM424.1 403.1l.63-1.19h.59l1.36 1.19h-2.58zm3.74 17.3l-1.37-1.19h18.49l1.37 1.19h-18.49zm-3.32-2.88l-1.37-1.2h18.49l1.37 1.2h-18.49zm9.94 8.65l-1.37-1.2h18.49l1.37 1.2h-18.49zm-14.94-14.42l.63-1.19h14.87l1.37 1.19h-16.87zm18.25 17.3l-1.36-1.19h18.49l1.36 1.19h-18.49zm-16.72-20.18l.63-1.2h10.02l1.37 1.2h-12.02zm18.67 21.87h18.45v1.19h-17.08l-1.37-1.19zm-17.15-24.76l.64-1.19h5.4l1.35 1.19h-7.39z"/><path class="cls-13" d="M434.63 400.21l.63-1.19h5.19l1.36 1.19h-7.18zm-1.53 2.89l.63-1.19h9.84l1.37 1.19H433.1zm3.29 8.65l-1.37-1.19h18.49l1.37 1.19h-18.49zm-.24-14.42l.64-1.19h.39l1.35 1.19h-2.38zm-4.58 8.65l.63-1.19h14.68l1.37 1.19h-16.68zm1.5 2.89l-1.37-1.2h18.49l1.37 1.2h-18.49zm19.88 17.3l-1.37-1.2h6.59v1.2h-5.22zm-6.62-5.77l-1.37-1.19h13.21v1.19h-11.84zm3.31 2.88l-1.37-1.19h9.9v1.19h-8.53zm-9.94-8.65l-1.37-1.19h18.49l1.35 1.18v.01H439.7zm16.56 14.42l-1.36-1.19h3.27v1.19h-1.91zm-13.25-11.53l-1.37-1.2h16.53v1.2h-15.16z"/><path class="cls-12" d="M447.31 393.26h5.05l1.37 1.19h-7.05l.63-1.19zm-1.53 2.88h9.89l1.37 1.19h-11.89l.63-1.19zm3.06-5.77h.21l1.37 1.19h-2.21l.63-1.19zm-4.58 8.65h13.45l.04 1.19h-14.12l.63-1.19zm7.3 9.85l-1.37-1.2h7.78l.03 1.2h-6.44zm-3.31-2.89l-1.37-1.19h11l.04 1.19h-9.67zm-3.31-2.88l-1.37-1.19h14.23l.03 1.19h-12.89zm13.2 10.34l.03 1.18-1.35-1.18h1.32zm-3.26-1.69l-1.37-1.19h4.54l.04 1.19h-3.21z"/></g></g><path id="neck" fill="#936a58" d="M428.13 341.21l-27.59 8.62-28.6-9.62-1.92-23.62h61.04l-2.93 24.62z"/><path d="M503.38 369.38L500.91 339c-1.19-11.87-11.83-22.25-23.72-23.14l-37.14-2.7c-4.07-.45-20.52-.09-39.55.53-19-.62-35.48-1-39.55-.53l-37.14 2.7c-11.89.89-22.53 11.27-23.72 23.14l-2.47 30.36a20.14 20.14 0 005 15.74 18.65 18.65 0 001.69 1.64v66.36c0 12.81 9.32 23.23 20.78 23.23a19.8 19.8 0 0015.21-7.43v21.79a12.24 12.24 0 007.74 11.36v68h-5.93c-10.93 0-19.83 5.8-19.83 17.11 0 8.06 0 17 11.72 19.7v1.6a1.37 1.37 0 001.38 1.37h1.63a1.37 1.37 0 001.38-1.37v-1q1.72.15 3.72.15H344v.8a1.37 1.37 0 001.38 1.37h1.63a1.37 1.37 0 001.38-1.37v-.8H354v.8a1.37 1.37 0 001.38 1.37h1.63a1.37 1.37 0 001.38-1.37v-.8H364v.8a1.37 1.37 0 001.38 1.37h1.63a1.37 1.37 0 001.38-1.37v-.8H374v.8a1.37 1.37 0 001.38 1.37h1.63a1.37 1.37 0 001.38-1.37v-.8H384v.8a1.37 1.37 0 001.38 1.37h1.63a1.37 1.37 0 001.38-1.37v-.8H394v.8a1.37 1.37 0 001.38 1.37h1.63a1.37 1.37 0 001.38-1.37v-.81l.06-55.46V503h4v49.21l.06 54.67v1.6a1.37 1.37 0 001.38 1.37h1.63a1.37 1.37 0 001.38-1.37v-.8h5.61v.8a1.37 1.37 0 001.38 1.37h1.63a1.37 1.37 0 001.38-1.37v-.8h5.61v.8a1.37 1.37 0 001.38 1.37h1.63a1.37 1.37 0 001.38-1.37v-.8h5.61v.8a1.37 1.37 0 001.38 1.37h1.63a1.37 1.37 0 001.38-1.37v-.8h5.61v.8a1.37 1.37 0 001.38 1.37h1.63a1.37 1.37 0 001.38-1.37v-.8h5.61v.8a1.37 1.37 0 001.38 1.37h1.63a1.37 1.37 0 001.38-1.37v-.8h1.89c1.33 0 2.56 0 3.72-.15v1a1.37 1.37 0 001.38 1.37h1.63a1.37 1.37 0 001.38-1.37v-1.6c11.71-2.68 11.72-11.64 11.72-19.7 0-11.31-8.9-17.11-19.83-17.11h-5.93v-68a12.24 12.24 0 007.74-11.36v-21.84a19.8 19.8 0 0015.21 7.43c11.46 0 20.78-10.42 20.78-23.23v-66.36a18.65 18.65 0 001.69-1.64 20.14 20.14 0 005.1-15.74zM372.89 323.2c3.46 1.85 15.64 2.08 27.61 1.8 12 .28 24.15.05 27.61-1.8V335c0 4.81-22.42 12-27.23 12l-.38-.07-.38.07c-4.81 0-27.23-7.18-27.23-12zm-33 75.43v55c0 9.5-6.63 17.23-14.78 17.23s-14.78-7.73-14.78-17.23v-62.78a21.07 21.07 0 007.47 1.36h22.09zm52.91 203.42h-50.65c-14.21 0-14.21-5-14.21-14.89 0-8.22 6.37-11.5 14.21-11.5h11.67l38.93-2.7.07 15.37zm-38.74-76.4h38.67v41.7L354.08 570h-.26v-44.4zm-.26-5.74v-17h38.93v16.93h-38.91zm104.77 55.75h.26c7.84 0 14.21 3.28 14.21 11.5 0 9.91 0 14.89-14.21 14.89h-50.65v-13.7l.07-15.37 38.93 2.7h11.41zm-11.67-50h.26v44.4h-.26l-38.67-2.68v-41.7zm-38.67-5.74V503h38.93v17h-38.91zm46.84-73.78H455v44.58a6.6 6.6 0 01-6.58 6.58h-1.26l-43.68-.05s-.11-3.72-.16-8.75v-2.8c0-3.52-1.41-5.09-2.82-5-1.41-.08-2.82 1.49-2.82 5v2.79c-.05 5-.16 8.75-.16 8.75l-43.68.05h-1.26a6.6 6.6 0 01-6.58-6.58v-44.58h-.07v-.33l30.25.33h48.68l30.25-.33zm35.56 7.51c0 9.5-6.63 17.23-14.78 17.23s-14.78-7.73-14.78-17.23v-61.44h22.09a21.07 21.07 0 007.47-1.36zm6-77.21a13.55 13.55 0 01-2.76 4.66 13.85 13.85 0 01-3.24 2.63 14.72 14.72 0 01-7.47 2l-22.09.09v-20.15c0-5.56-6.08-5.93-6.08 0s.08 14.37.08 14.37v59.59H345.91V380s.08-8.45.08-14.37-6.08-5.54-6.08 0v20.11l-22.09-.09a14.72 14.72 0 01-7.47-2 13.85 13.85 0 01-3.24-2.63 13.55 13.55 0 01-2.76-4.66 14.79 14.79 0 01-.75-6.46l2.46-30.35c.9-8.95 9.23-17.08 18.2-17.75l11.12-.84 32.21-2.29c.68.55.49 17.49.49 17.49 0 8.43 23.34 15.29 31.77 15.29h1.3c8.43 0 31.77-6.86 31.77-15.29 0 0-.19-16.94.49-17.49l32.21 2.33 11.12.84c9 .67 17.3 8.8 18.2 17.75L497.4 370a14.79 14.79 0 01-.75 6.43z" id="border"/><g id="head"><path class="cls-16" d="M405.06 187.46c7.89 0 14.25 1.18 17 3.22 3.08 2.32 5.05 8.86 5.05 8.86a.5.5 0 01.47-.33 10.08 10.08 0 011.31.37c26.77 5.42 25.37 25 17.37 27-5.18 1.28-15.91 3.92-23.21 3.92-4.14 0-7.18-.85-7.48-3.28-.19-1.56-2.39-2.13-3.33-3.5a10.54 10.54 0 00-6.42-4.57 13.14 13.14 0 00-2.76-.3c-4.55 0-8.41 2.48-21.31 3.5-21.49 1.68-27.13 12.12-27.13 12.12-4.81-4.38-15.23-1.35-2.68-24.61 8.74-16.21 35-22.43 53.16-22.43m0-5c-16.36 0-46.89 5.28-57.56 25.06-5.81 10.76-7.6 17.43-6 22.3 1.43 4.31 5 6 7.39 7.09a10.42 10.42 0 012.31 1.29 5.16 5.16 0 003.42 1.39 5 5 0 00.85-.08 4.81 4.81 0 003.48-2.59c.48-.75 5.64-8.19 23.14-9.56a91.54 91.54 0 0016-2.6 21.91 21.91 0 014.89-.88 8.15 8.15 0 011.72.19 5.74 5.74 0 013.34 2.5 10.6 10.6 0 002.76 2.64c1.58 5.46 8.18 6.32 12.17 6.32 8 0 19.07-2.75 24.41-4.07s9-6.76 8.87-13.22c-.18-8.71-7-19.35-25.62-23.39-1.2-2.86-3-6.2-5.64-8.16-4.64-3.49-13.42-4.23-20-4.23z"/><path class="cls-16" d="M400.35 197.4s17.38 1 23.21 7.41c0 0 13.35 7.29 17.16 18.28 0 0 5.68 10.51 5.38 20.37-.13 4.43-.64 5.63-1.31 5.63s-1.82-1.64-2.76-1.64h-.11s-4.19-1.86-4.53-2.87.41-7.75-.71-10-5.53-9.72-9-12.41c-1.2-.92-4.08-1.22-7.59-1.22-6.82 0-16 1.14-19.7 1.14S387.46 221 380.64 221c-3.5 0-6.39.31-7.58 1.22-3.52 2.69-7.93 10.17-9.05 12.41s-.37 9-.71 10-4.52 2.87-4.52 2.87h-.12c-.93 0-2 1.64-2.75 1.64s-1.18-1.2-1.32-5.63c-.3-9.86 5.38-20.37 5.38-20.37 3.82-11 17.16-18.28 17.16-18.28 5.83-6.4 23.22-7.41 23.22-7.41m0-5.68h-.33a79.35 79.35 0 00-10.24 1.42c-7.51 1.55-12.81 3.89-16.16 7.12-3.17 1.89-14.77 9.4-18.85 20.53-1.14 2.22-6.16 12.62-5.85 22.82.08 2.62.34 13.36.71 14.73 1.06 3.95 3.91-3.6 6.28-3.6a7.21 7.21 0 004.68-1.9l.49-.22c5.69-2.52 7-4.5 7.6-6.26a13.35 13.35 0 00.37-4.67 32.53 32.53 0 01.15-4.79c1.37-2.68 4.79-8 7-10a21.13 21.13 0 014.46-.32c3.7 0 8.21.37 12.18.68 3.08.25 5.73.46 7.53.46s4.45-.21 7.52-.46c4-.31 8.48-.68 12.18-.68a21.19 21.19 0 014.47.32c2.18 1.94 5.6 7.28 7 10a32.57 32.57 0 01.14 4.79 13.86 13.86 0 00.37 4.67c.59 1.76 1.92 3.74 7.61 6.26l.49.22a7.21 7.21 0 004.68 1.9c2.37 0 5.94 8.69 7 4.74.37-1.37-.09-13.25 0-15.87.31-10.2-4.7-20.59-5.84-22.82-4.08-11.13-15.68-18.64-18.86-20.53-3.34-3.23-8.64-5.57-16.15-7.12a79.58 79.58 0 00-10.24-1.42h-.33z"/><path id="skin-2" data-name="skin" class="cls-2" d="M446.88 254.05c0-.91.08-1.81.08-2.73 0-30.51-21.06-55.25-47-55.25s-47 24.74-47 55.25c0 1.11 0 2.22.1 3.31-4.05 2.46-6.91 8.44-6.91 15.43 0 9.19 4.93 16.64 11 16.64a7.48 7.48 0 002.1-.32c.82 24.5 18.73 44.08 40.73 44.08S440 310.65 440.66 286a7.65 7.65 0 003.25.74c6.09 0 11-7.45 11-16.64.02-7.67-3.39-14.1-8.03-16.05z"/><path d="M442.84 226.13c-7.59-27-42.41-30.06-42.41-30.06h-.51s-34.82 3-42.41 30.06c-5.72 20.35-7 22.28-4.14 26.52a4.19 4.19 0 007.33-.82 41.43 41.43 0 003.3-17.23c-.6-12.46 9.05-12.41 9.05-12.41s21.26-4.58 27.11-9.93c5.86 5.35 27.12 9.93 27.12 9.93s9.65-.05 9 12.41a41.43 41.43 0 003.31 17.23 4.19 4.19 0 007.33.82c2.92-4.24 1.64-6.17-4.08-26.52z" fill="#302322"/><path d="M438.4 279.31a2.62 2.62 0 00-4.6-1.38c-4.43 5.28-6.05 11.82-5.88 21.48.25 13.32-23.87 21.83-27.94 22.42-4.09-.59-29.35-9.1-29.11-22.42.18-9.66-.44-16.2-4.87-21.48a2.62 2.62 0 00-4.6 1.38c-2.84 23.47 1.56 21.23 9.2 35.2 8 14.67 28.39 15.9 29.28 15.95.89 0 21.25-1.28 29.27-15.95 7.69-13.97 12.09-11.73 9.25-35.2z" opacity=".1" fill="#302322"/><path class="cls-16" d="M399.92 333.46c-22.68 0-41.28-19-43.53-43.79-7.52-.49-13.32-8.93-13.32-19.61 0-7 2.64-13.45 6.84-16.92v-1.82c0-32.12 22.45-58.25 50-58.25s50 26.13 50 58.25v1c4.85 3.18 8 10 8 17.76 0 11-6.16 19.64-14 19.64h-.46c-2.25 24.79-20.78 43.74-43.53 43.74zm-40.73-50.08a3 3 0 013 2.9c.77 23.09 17.34 41.18 37.73 41.18 20.58 0 37.15-18.26 37.74-41.58a3 3 0 014.27-2.64 4.73 4.73 0 002 .46c4.35 0 8-6.25 8-13.64 0-7-3.13-11.94-6.22-13.25a3 3 0 01-1.83-2.89v-.18c0-.8.07-1.6.07-2.42 0-28.81-19.76-52.25-44-52.25s-44 23.44-44 52.25c0 .92 0 1.89.09 3.16a3 3 0 01-1.43 2.71c-3.27 2-5.47 7.16-5.47 12.87 0 7.39 3.67 13.64 8 13.64a4.69 4.69 0 001.25-.19 2.74 2.74 0 01.8-.13z"/><path d="M428.85 199.58c-.76-.16-1.47-.72-1.78 0 0 0-2-6.54-5.05-8.86-8.95-6.74-57.57-4-70.12 19.21s-2.13 20.23 2.68 24.61c0 0 5.64-10.44 27.13-12.12 15.36-1.21 17.91-4.5 24.07-3.2a10.54 10.54 0 016.42 4.57c.94 1.37 3.14 1.94 3.33 3.5.82 6.71 22.56 1.37 30.69-.64s9.4-21.65-17.37-27.07z" fill="#1a1312"/></g></svg>