<svg id="player" xmlns="http://www.w3.org/2000/svg" viewBox="0 0 800 800"><defs><style>.cls-1{fill:#7d4921}.cls-2{fill:#f1f2f2}.cls-3{fill:#bf2127}.cls-4{fill:#fff}.cls-6{fill:#d5ba35}.cls-9{fill:#231f20}</style></defs><g id="skin"><path id="arm-left" class="cls-1" d="M306.43 383h36.78v72.38a18.39 18.39 0 01-18.39 18.39 18.39 18.39 0 01-18.39-18.39V383z"/><path id="arm-right" class="cls-1" d="M457.69 383h36.78v72.38a18.39 18.39 0 01-18.39 18.39 18.39 18.39 0 01-18.39-18.39V383z"/><path id="leg-left" class="cls-1" d="M350.38 492.97h45.67v45.67h-45.67z"/><path id="leg-right" class="cls-1" d="M405.28 492.97h45.67v45.67h-45.67z"/></g><g id="boots"><path id="left" class="cls-2" d="M395.83 570.99H373l-22.83 1.98h-12.5l-7.5 2.52-5.25 8.5v9.83l1.91 4.17 3.84 4.06 6.33 1.94h58.83v-33z"/><path id="right" class="cls-2" d="M405.11 571.22h22.83l22.83 1.97h12.5l7.5 2.53 5.25 8.5v9.83l-1.91 4.17-3.84 4.05-6.33 1.95h-58.83v-33z"/></g><g id="socks"><g id="socks-2" data-name="socks"><path id="left-2" data-name="left" class="cls-3" d="M350.38 522.95h45.67v48.04h-45.67z"/><path id="right-2" data-name="right" class="cls-3" d="M404.88 522.95h45.67v48.04h-45.67z"/></g></g><g id="shorts"><path id="shorts-2" data-name="shorts" class="cls-3" d="M342.17 443.49h116.49v47a9.95 9.95 0 01-9.95 9.95h-96.6a9.95 9.95 0 01-9.95-9.95v-47h.01z"/></g><g id="shirt"><path id="shirt-2" data-name="shirt" class="cls-3" d="M370 315.75l-48.29 2.99-11.36 6.25-6.83 10.1-3.31 40.73 5.17 7.67 7.66 4.67h29.5l.17 54h114.83v-53.5l29.34-.17 7.01-4 6.99-10.5-3.4-37.33-6.83-11.84-9.77-6.08-49.84-2.99-1 21.24-6.5 6.5-11.16 3.48-11.88 2.02-15.46-3.17-11-5.66-3.66-3.84-.38-20.57z"/><path class="cls-4" d="M342.17 442.16l92.05-105.52a10.22 10.22 0 0116.1 3.73l5.41 12.71a18.5 18.5 0 01-5.13 21.4L393 442.16l-27.85 1.33z"/><g id="crest-peru"><path d="M425.9 362a1.67 1.67 0 00-1.66 1.66v8.53a8 8 0 004 6.94l.89.51V362zm11.34 0H434v17.64l.89-.51a8 8 0 004-6.94v-8.53a1.67 1.67 0 00-1.65-1.66z" fill="#e41e25"/><path class="cls-4" d="M429.13 362v17.64l1.49.87a1.9 1.9 0 001.9 0l1.5-.87V362z"/><path class="cls-6" d="M437.24 362a1.67 1.67 0 011.67 1.66v8.53a8 8 0 01-4 6.94l-.89.51-1.5.87a1.88 1.88 0 01-.95.25 1.93 1.93 0 01-.95-.25l-1.49-.87-.89-.51a8 8 0 01-4-6.94v-8.53a1.67 1.67 0 011.66-1.66h11.34m0-1.69H425.9a3.35 3.35 0 00-3.35 3.35v8.53a9.66 9.66 0 004.84 8.41l.89.51 1.5.87a3.61 3.61 0 001.79.48 3.64 3.64 0 001.8-.48l1.5-.87.88-.51a9.67 9.67 0 003.55-3.6 9.77 9.77 0 001.3-4.86v-8.53a3.35 3.35 0 00-3.36-3.35z"/></g><path class="cls-6" d="M373.09 371.58l-5.51 4.42a4.13 4.13 0 01-5.15 0l-5.52-4.37a1.54 1.54 0 010-2.42l5.52-4.37a4.13 4.13 0 015.15 0l5.51 4.37a1.53 1.53 0 010 2.37z"/><path d="M358 397.13v-11.65l-1.77 2.08a1.42 1.42 0 01-1 .5 1.56 1.56 0 01-1.45-1.64 1.88 1.88 0 01.41-1.17l3.89-4.38a1.92 1.92 0 011.45-.67 2.17 2.17 0 012 2.28v14.65a1.77 1.77 0 11-3.51 0zm6.4.22a1.84 1.84 0 01-.64-1.39 1.65 1.65 0 011.55-1.72 1.37 1.37 0 01.81.31 6.07 6.07 0 003.59 1.25c2 0 3.1-1 3.1-2.39s-1-2.19-3.3-2.19h-.68a1.62 1.62 0 01-1.53-1.72 1.61 1.61 0 011.5-1.67h.71c1.82 0 3-.66 3-2.05s-1.33-2.22-3.05-2.22a5.26 5.26 0 00-3.29 1.17 1.39 1.39 0 01-.79.27 1.56 1.56 0 01-1.45-1.63 1.79 1.79 0 01.59-1.31 7.84 7.84 0 015.31-1.94c3.83 0 6.19 1.94 6.19 5a4.34 4.34 0 01-3.59 4.22 4.41 4.41 0 013.84 4.44c0 3.19-2.54 5.44-6.47 5.44a8.2 8.2 0 01-5.4-1.87z" fill="#2b2b2b"/></g><path id="neck" fill="#60381c" d="M428.13 341.21l-27.59 8.62-28.6-9.62-1.92-23.62h61.04l-2.93 24.62z"/><path d="M503.38 369.38L500.91 339c-1.19-11.87-11.83-22.25-23.72-23.14l-37.14-2.7c-4.07-.45-20.52-.09-39.55.53-19-.62-35.48-1-39.55-.53l-37.14 2.7c-11.89.89-22.53 11.27-23.72 23.14l-2.47 30.36a20.14 20.14 0 005 15.74 18.65 18.65 0 001.69 1.64v66.36c0 12.81 9.32 23.23 20.78 23.23a19.8 19.8 0 0015.21-7.43v21.79a12.24 12.24 0 007.74 11.36v68h-5.93c-10.93 0-19.83 5.8-19.83 17.11 0 8.06 0 17 11.72 19.7v1.6a1.37 1.37 0 001.38 1.37h1.63a1.37 1.37 0 001.38-1.37v-1q1.72.15 3.72.15H344v.8a1.37 1.37 0 001.38 1.37h1.63a1.37 1.37 0 001.38-1.37v-.8H354v.8a1.37 1.37 0 001.38 1.37h1.63a1.37 1.37 0 001.38-1.37v-.8H364v.8a1.37 1.37 0 001.38 1.37h1.63a1.37 1.37 0 001.38-1.37v-.8H374v.8a1.37 1.37 0 001.38 1.37h1.63a1.37 1.37 0 001.38-1.37v-.8H384v.8a1.37 1.37 0 001.38 1.37h1.63a1.37 1.37 0 001.38-1.37v-.8H394v.8a1.37 1.37 0 001.38 1.37h1.63a1.37 1.37 0 001.38-1.37v-.81l.06-55.46V503h4v49.21l.06 54.67v1.6a1.37 1.37 0 001.38 1.37h1.63a1.37 1.37 0 001.38-1.37v-.8h5.61v.8a1.37 1.37 0 001.38 1.37h1.63a1.37 1.37 0 001.38-1.37v-.8h5.61v.8a1.37 1.37 0 001.38 1.37h1.63a1.37 1.37 0 001.38-1.37v-.8h5.61v.8a1.37 1.37 0 001.38 1.37h1.63a1.37 1.37 0 001.38-1.37v-.8h5.61v.8a1.37 1.37 0 001.38 1.37h1.63a1.37 1.37 0 001.38-1.37v-.8h5.61v.8a1.37 1.37 0 001.38 1.37h1.63a1.37 1.37 0 001.38-1.37v-.8h1.89c1.33 0 2.56 0 3.72-.15v1a1.37 1.37 0 001.38 1.37h1.63a1.37 1.37 0 001.38-1.37v-1.6c11.71-2.68 11.72-11.64 11.72-19.7 0-11.31-8.9-17.11-19.83-17.11h-5.93v-68a12.24 12.24 0 007.74-11.36v-21.84a19.8 19.8 0 0015.21 7.43c11.46 0 20.78-10.42 20.78-23.23v-66.36a18.65 18.65 0 001.69-1.64 20.14 20.14 0 005.1-15.74zM372.89 323.2c3.46 1.85 15.64 2.08 27.61 1.8 12 .28 24.15.05 27.61-1.8V335c0 4.81-22.42 12-27.23 12l-.38-.07-.38.07c-4.81 0-27.23-7.18-27.23-12zm-33 75.43v55c0 9.5-6.63 17.23-14.78 17.23s-14.78-7.73-14.78-17.23v-62.78a21.07 21.07 0 007.47 1.36h22.09zm52.91 203.42h-50.65c-14.21 0-14.21-5-14.21-14.89 0-8.22 6.37-11.5 14.21-11.5h11.67l38.93-2.7.07 15.37zm-38.74-76.4h38.67v41.7L354.08 570h-.26v-44.4zm-.26-5.74v-17h38.93v16.93h-38.91zm104.77 55.75h.26c7.84 0 14.21 3.28 14.21 11.5 0 9.91 0 14.89-14.21 14.89h-50.65v-13.7l.07-15.37 38.93 2.7h11.41zm-11.67-50h.26v44.4h-.26l-38.67-2.68v-41.7zm-38.67-5.74V503h38.93v17h-38.91zm46.84-73.78H455v44.58a6.6 6.6 0 01-6.58 6.58h-1.26l-43.68-.05s-.11-3.72-.16-8.75v-2.8c0-3.52-1.41-5.09-2.82-5-1.41-.08-2.82 1.49-2.82 5v2.79c-.05 5-.16 8.75-.16 8.75l-43.68.05h-1.26a6.6 6.6 0 01-6.58-6.58v-44.58h-.07v-.33l30.25.33h48.68l30.25-.33zm35.56 7.51c0 9.5-6.63 17.23-14.78 17.23s-14.78-7.73-14.78-17.23v-61.44h22.09a21.07 21.07 0 007.47-1.36zm6-77.21a13.55 13.55 0 01-2.76 4.66 13.85 13.85 0 01-3.24 2.63 14.72 14.72 0 01-7.47 2l-22.09.09v-20.15c0-5.56-6.08-5.93-6.08 0s.08 14.37.08 14.37v59.59H345.91V380s.08-8.45.08-14.37-6.08-5.54-6.08 0v20.11l-22.09-.09a14.72 14.72 0 01-7.47-2 13.85 13.85 0 01-3.24-2.63 13.55 13.55 0 01-2.76-4.66 14.79 14.79 0 01-.75-6.46l2.46-30.35c.9-8.95 9.23-17.08 18.2-17.75l11.12-.84 32.21-2.29c.68.55.49 17.49.49 17.49 0 8.43 23.34 15.29 31.77 15.29h1.3c8.43 0 31.77-6.86 31.77-15.29 0 0-.19-16.94.49-17.49l32.21 2.33 11.12.84c9 .67 17.3 8.8 18.2 17.75L497.4 370a14.79 14.79 0 01-.75 6.43z" id="border"/><g id="head"><path class="cls-9" d="M400 188.46a41.42 41.42 0 019.89 2.51c4.39 1.88 15.41.79 17.22 5.1s9.59 5.83 11.43 13.31 6.78 14.22 5.49 23.22.67 17 0 21.88c0 0-10.19-16.51-11.17-22.89-.91-6 .28-16.52-5.87-16.52a6.71 6.71 0 00-1.42.16c-7.74 1.68-15.74 5.44-25.57 5.44s-17.83-3.76-25.57-5.44a6.71 6.71 0 00-1.42-.16c-6.15 0-5 10.56-5.87 16.52-1 6.38-11.17 22.89-11.17 22.89-.67-4.89 1.3-12.89 0-21.88s3.64-15.75 5.49-23.22 9.62-9 11.43-13.31 12.83-3.22 17.22-5.1a41.42 41.42 0 019.89-2.51m0-5a5.44 5.44 0 00-.57 0 46.65 46.65 0 00-11.29 2.88 27.37 27.37 0 01-5.32.92c-5.75.66-12.26 1.42-14.54 6.84a12.86 12.86 0 01-2.8 2.43c-3.1 2.31-7.36 5.47-8.88 11.62a52.91 52.91 0 01-2.23 6.46c-2.07 5.28-4.41 11.26-3.34 18.67a61.09 61.09 0 01.07 13.16 43.84 43.84 0 00-.08 8.69 5 5 0 003.92 4.21 4.6 4.6 0 001 .11 5 5 0 004.25-2.37c1.79-2.91 10.77-17.74 11.85-24.76.24-1.6.35-3.38.46-5.11.11-1.89.34-5.6.94-7.1 2.24.49 4.57 1.19 7 1.93 5.65 1.69 12.06 3.6 19.49 3.6s13.84-1.91 19.49-3.6c2.46-.74 4.79-1.44 7-1.93.6 1.5.83 5.21.94 7.1.11 1.73.22 3.51.46 5.11 1.08 7 10.06 21.85 11.85 24.76a5 5 0 004.25 2.37 4.6 4.6 0 001-.11 5 5 0 003.92-4.21 43.84 43.84 0 00-.08-8.69 61.09 61.09 0 01.07-13.16c1.07-7.41-1.27-13.39-3.34-18.67a52.91 52.91 0 01-2.23-6.46c-1.52-6.15-5.78-9.31-8.88-11.62a12.86 12.86 0 01-2.8-2.43c-2.28-5.42-8.79-6.18-14.54-6.84a27.37 27.37 0 01-5.32-.92 46.65 46.65 0 00-11.29-2.88 5.44 5.44 0 00-.57 0z"/><path id="skin-2" data-name="skin" class="cls-1" d="M446.88 254.05c0-.91.08-1.81.08-2.73 0-30.51-21.06-55.25-47-55.25s-47 24.74-47 55.25c0 1.11 0 2.22.1 3.31-4.05 2.46-6.91 8.44-6.91 15.43 0 9.19 4.93 16.64 11 16.64a7.48 7.48 0 002.1-.32c.82 24.5 18.73 44.08 40.73 44.08S440 310.65 440.66 286a7.65 7.65 0 003.25.74c6.09 0 11-7.45 11-16.64.02-7.67-3.39-14.1-8.03-16.05z"/><path class="cls-9" d="M399.92 333.46c-22.68 0-41.28-19-43.53-43.79-7.52-.49-13.32-8.93-13.32-19.61 0-7 2.64-13.45 6.84-16.92v-1.82c0-32.12 22.45-58.25 50-58.25s50 26.13 50 58.25v1c4.85 3.18 8 10 8 17.76 0 11-6.16 19.64-14 19.64h-.46c-2.25 24.79-20.78 43.74-43.53 43.74zm-40.73-50.08a3 3 0 013 2.9c.77 23.09 17.34 41.18 37.73 41.18 20.58 0 37.15-18.26 37.74-41.58a3 3 0 014.27-2.64 4.73 4.73 0 002 .46c4.35 0 8-6.25 8-13.64 0-7-3.13-11.94-6.22-13.25a3 3 0 01-1.83-2.89v-.18c0-.8.07-1.6.07-2.42 0-28.81-19.76-52.25-44-52.25s-44 23.44-44 52.25c0 .92 0 1.89.09 3.16a3 3 0 01-1.43 2.71c-3.27 2-5.47 7.16-5.47 12.87 0 7.39 3.67 13.64 8 13.64a4.69 4.69 0 001.25-.19 2.74 2.74 0 01.8-.13z"/><path d="M444 232.6c1.29-9-3.64-15.75-5.49-23.22s-9.62-9-11.43-13.31-12.83-3.22-17.22-5.1a41.42 41.42 0 00-9.89-2.51 41.42 41.42 0 00-9.89 2.51c-4.39 1.88-15.41.79-17.22 5.1s-9.59 5.83-11.43 13.31-6.75 14.22-5.43 23.22-.67 17 0 21.88c0 0 10.19-16.51 11.17-22.89s-.45-18 7.29-16.36 15.74 5.44 25.57 5.44 17.83-3.76 25.57-5.44 6.32 10 7.29 16.36S444 254.48 444 254.48c.7-4.89-1.27-12.89 0-21.88z" fill="#1a1412"/></g></svg>