<svg id="player" xmlns="http://www.w3.org/2000/svg" viewBox="0 0 800 800"><defs><style>.cls-1{fill:#f1bfa5}.cls-2{fill:#ecead6}.cls-4{fill:#fff}.cls-5{fill:#f4f4f5}.cls-6{fill:#e41e26}.cls-10{fill:#231f20}</style></defs><g id="skin"><path id="arm-left" class="cls-1" d="M306.43 383h36.78v72.38a18.39 18.39 0 01-18.39 18.39 18.39 18.39 0 01-18.39-18.39V383z"/><path id="arm-right" class="cls-1" d="M457.69 383h36.78v72.38a18.39 18.39 0 01-18.39 18.39 18.39 18.39 0 01-18.39-18.39V383z"/><path id="leg-left" class="cls-1" d="M350.38 492.97h45.67v45.67h-45.67z"/><path id="leg-right" class="cls-1" d="M405.28 492.97h45.67v45.67h-45.67z"/></g><g id="boots"><path id="left" class="cls-2" d="M395.83 570.99H373l-22.83 1.98h-12.5l-7.5 2.52-5.25 8.5v9.83l1.91 4.17 3.84 4.06 6.33 1.94h58.83v-33z"/><path id="right" class="cls-2" d="M405.11 571.22h22.83l22.83 1.97h12.5l7.5 2.53 5.25 8.5v9.83l-1.91 4.17-3.84 4.05-6.33 1.95h-58.83v-33z"/><path d="M326.38 589.43c-.64-.2 47.74-2.59 38.05 1-25.94 9.6-24.54 15.69-31.89 12.91s-9.34-8.94-6.16-13.91zm148.18 0c.64-.2-47.74-2.59-38.05 1 25.94 9.6 24.54 15.69 31.89 12.91s9.34-8.94 6.16-13.91z" fill="#0f182f"/></g><g id="socks"><g id="socks-2" data-name="socks"><path id="left-2" data-name="left" class="cls-4" d="M350.38 522.95h45.67v48.04h-45.67z"/><path id="right-2" data-name="right" class="cls-4" d="M404.88 522.95h45.67v48.04h-45.67z"/></g><path class="cls-5" d="M350.77 529.81h45.27v1.92h-45.27zm54.31 0h45.27v1.92h-45.27z"/></g><g id="shorts"><path id="shorts-2" data-name="shorts" class="cls-6" d="M342.17 443.49h116.49v47a9.95 9.95 0 01-9.95 9.95h-96.6a9.95 9.95 0 01-9.95-9.95v-47h.01z"/></g><g id="shirt"><path id="shirt-2" data-name="shirt" class="cls-4" d="M370 315.75l-48.29 2.99-11.36 6.25-6.83 10.1-3.31 40.73 5.17 7.67 7.66 4.67h29.5l.17 54h114.83v-53.5l29.34-.17 7.01-4 6.99-10.5-3.4-37.33-6.83-11.84-9.77-6.08-49.84-2.99-1 21.24-6.5 6.5-11.16 3.48-11.88 2.02-15.46-3.17-11-5.66-3.66-3.84-.38-20.57z"/><path class="cls-5" d="M341.91 367c-.05-6.75 4.55-15 13.69-24.6a126.79 126.79 0 0113.71-12.34l.6.8c-.27.2-27.13 20.6-27 36.14zm117.18 0c.05-6.75-4.55-15-13.69-24.6a126.79 126.79 0 00-13.71-12.34l-.6.8c.27.2 27.13 20.6 27 36.14z"/><path class="cls-5" d="M342.82 428.36l100.35-88.23s16.62 13.66 15.49 31.09-.73 68.39-.73 68.39l-115.76 3.88z"/><g id="crest-poland"><path class="cls-6" d="M440 382h-3.63l-.75.77a.39.39 0 01-.56 0l-.75-.77h-3.61a4.6 4.6 0 01-4.53-4.48l-.74-17.05a1.92 1.92 0 011.89-2h16.08a1.92 1.92 0 011.89 2l-.74 17.05A4.61 4.61 0 01440 382z"/><path class="cls-4" d="M442.73 363.85h-.93a.88.88 0 00-.8.8l-.07.38a.9.9 0 01-.81.81h-.27a.89.89 0 00-.81.81 1 1 0 01-.39.66H437v-2.95a.8.8 0 00-.69-.87h-.94c-.51 0-.68.86-.68.86a2.46 2.46 0 00-1.79 1.8c-.06.21.06.45.25.45h1.18l-.11.71h-1.6a1.52 1.52 0 00-.42.06 1 1 0 01-.48-.72.9.9 0 00-.81-.81h-.27a.89.89 0 01-.81-.81l-.07-.38a.89.89 0 00-.81-.8H428l1.54 8.29a2 2 0 001.76 1.76h2.47l-1.42 4.64h6.92l-1.42-4.64h1.61a2 2 0 001.76-1.76l1.53-8.29z"/><path d="M436.71 363.85H435a.45.45 0 01-.4-.41l-.17-.95c0-.12.08-.22.17-.16l.36.26a.35.35 0 00.52-.11l.3-.44a.09.09 0 01.17 0l.3.44a.35.35 0 00.52.11l.37-.26c.08-.06.19 0 .16.16l-.17.95a.45.45 0 01-.42.41zm-2.06.5s-.54 2.26-1.54 2.25h-.7s-.53-2.18 2.24-2.25z" fill="#f5cc42"/></g><g id="brand-nike"><path id="nike" class="cls-6" d="M376.31 365.17c0 1.19-1.57 2.17-3.49 2.17h-9.26c-1.91 0-3.49-1-3.49-2.17s1.58-2.17 3.49-2.17h9.26c1.92 0 3.49 1 3.49 2.17z"/></g><path class="cls-6" d="M360.66 316.59S353.19 346.14 380 347l-10.15-10.52 1.14-20.7zm78.68 0S446.81 346.14 420 347l10.15-10.52-1.15-20.73zm-71.89 72.07c-1.66 0-3.8-.49-4.44-1.58a1.46 1.46 0 01-.21-.72 1.66 1.66 0 011.69-1.58 1.5 1.5 0 01.74.18 4.66 4.66 0 002.22.48c2.5 0 4.26-2.11 4.26-4.82a1.34 1.34 0 000-.35 5.55 5.55 0 01-4.36 2.19c-3.06 0-5.79-1.91-5.79-5.54 0-3.31 2.63-5.84 6.5-5.84 5.18 0 7.35 4 7.35 8.78-.03 5.14-2.94 8.8-7.96 8.8zm.79-14.36c-2 0-3 1.3-3 2.5 0 1.78 1.53 2.55 3.17 2.55a4.26 4.26 0 003.31-1.61c-.19-1.63-1.11-3.44-3.48-3.44z"/><g id="asset-captain-band-c"><g id="asset-captain-band-c-2" data-name="asset-captain-band-c"><path d="M462.56 351.73a4.68 4.68 0 00-4.87 4.47v16.06h42v-20.53z" fill="#28367e"/><path class="cls-4" d="M483.86 357.84a1.15 1.15 0 01.25.69 1.16 1.16 0 01-1.2 1.13 1.27 1.27 0 01-.92-.4 3.38 3.38 0 00-2.42-1.13 3.87 3.87 0 000 7.73 3.26 3.26 0 002.42-1.12 1.32 1.32 0 01.95-.4 1.12 1.12 0 011.15 1.09 1 1 0 01-.25.69 5.27 5.27 0 01-4.27 2 6.09 6.09 0 110-12.18 5.36 5.36 0 014.29 1.9z"/></g></g></g><path id="neck" fill="#ddac97" d="M428.13 341.21l-27.59 8.62-28.6-9.62-1.92-23.62h61.04l-2.93 24.62z"/><path d="M503.38 369.38L500.91 339c-1.19-11.87-11.83-22.25-23.72-23.14l-37.14-2.7c-4.07-.45-20.52-.09-39.55.53-19-.62-35.48-1-39.55-.53l-37.14 2.7c-11.89.89-22.53 11.27-23.72 23.14l-2.47 30.36a20.14 20.14 0 005 15.74 18.65 18.65 0 001.69 1.64v66.36c0 12.81 9.32 23.23 20.78 23.23a19.8 19.8 0 0015.21-7.43v21.79a12.24 12.24 0 007.74 11.36v68h-5.93c-10.93 0-19.83 5.8-19.83 17.11 0 8.06 0 17 11.72 19.7v1.6a1.37 1.37 0 001.38 1.37h1.63a1.37 1.37 0 001.38-1.37v-1q1.72.15 3.72.15H344v.8a1.37 1.37 0 001.38 1.37h1.63a1.37 1.37 0 001.38-1.37v-.8H354v.8a1.37 1.37 0 001.38 1.37h1.63a1.37 1.37 0 001.38-1.37v-.8H364v.8a1.37 1.37 0 001.38 1.37h1.63a1.37 1.37 0 001.38-1.37v-.8H374v.8a1.37 1.37 0 001.38 1.37h1.63a1.37 1.37 0 001.38-1.37v-.8H384v.8a1.37 1.37 0 001.38 1.37h1.63a1.37 1.37 0 001.38-1.37v-.8H394v.8a1.37 1.37 0 001.38 1.37h1.63a1.37 1.37 0 001.38-1.37v-.81l.06-55.46V503h4v49.21l.06 54.67v1.6a1.37 1.37 0 001.38 1.37h1.63a1.37 1.37 0 001.38-1.37v-.8h5.61v.8a1.37 1.37 0 001.38 1.37h1.63a1.37 1.37 0 001.38-1.37v-.8h5.61v.8a1.37 1.37 0 001.38 1.37h1.63a1.37 1.37 0 001.38-1.37v-.8h5.61v.8a1.37 1.37 0 001.38 1.37h1.63a1.37 1.37 0 001.38-1.37v-.8h5.61v.8a1.37 1.37 0 001.38 1.37h1.63a1.37 1.37 0 001.38-1.37v-.8h5.61v.8a1.37 1.37 0 001.38 1.37h1.63a1.37 1.37 0 001.38-1.37v-.8h1.89c1.33 0 2.56 0 3.72-.15v1a1.37 1.37 0 001.38 1.37h1.63a1.37 1.37 0 001.38-1.37v-1.6c11.71-2.68 11.72-11.64 11.72-19.7 0-11.31-8.9-17.11-19.83-17.11h-5.93v-68a12.24 12.24 0 007.74-11.36v-21.84a19.8 19.8 0 0015.21 7.43c11.46 0 20.78-10.42 20.78-23.23v-66.36a18.65 18.65 0 001.69-1.64 20.14 20.14 0 005.1-15.74zM372.89 323.2c3.46 1.85 15.64 2.08 27.61 1.8 12 .28 24.15.05 27.61-1.8V335c0 4.81-22.42 12-27.23 12l-.38-.07-.38.07c-4.81 0-27.23-7.18-27.23-12zm-33 75.43v55c0 9.5-6.63 17.23-14.78 17.23s-14.78-7.73-14.78-17.23v-62.78a21.07 21.07 0 007.47 1.36h22.09zm52.91 203.42h-50.65c-14.21 0-14.21-5-14.21-14.89 0-8.22 6.37-11.5 14.21-11.5h11.67l38.93-2.7.07 15.37zm-38.74-76.4h38.67v41.7L354.08 570h-.26v-44.4zm-.26-5.74v-17h38.93v16.93h-38.91zm104.77 55.75h.26c7.84 0 14.21 3.28 14.21 11.5 0 9.91 0 14.89-14.21 14.89h-50.65v-13.7l.07-15.37 38.93 2.7h11.41zm-11.67-50h.26v44.4h-.26l-38.67-2.68v-41.7zm-38.67-5.74V503h38.93v17h-38.91zm46.84-73.78H455v44.58a6.6 6.6 0 01-6.58 6.58h-1.26l-43.68-.05s-.11-3.72-.16-8.75v-2.8c0-3.52-1.41-5.09-2.82-5-1.41-.08-2.82 1.49-2.82 5v2.79c-.05 5-.16 8.75-.16 8.75l-43.68.05h-1.26a6.6 6.6 0 01-6.58-6.58v-44.58h-.07v-.33l30.25.33h48.68l30.25-.33zm35.56 7.51c0 9.5-6.63 17.23-14.78 17.23s-14.78-7.73-14.78-17.23v-61.44h22.09a21.07 21.07 0 007.47-1.36zm6-77.21a13.55 13.55 0 01-2.76 4.66 13.85 13.85 0 01-3.24 2.63 14.72 14.72 0 01-7.47 2l-22.09.09v-20.15c0-5.56-6.08-5.93-6.08 0s.08 14.37.08 14.37v59.59H345.91V380s.08-8.45.08-14.37-6.08-5.54-6.08 0v20.11l-22.09-.09a14.72 14.72 0 01-7.47-2 13.85 13.85 0 01-3.24-2.63 13.55 13.55 0 01-2.76-4.66 14.79 14.79 0 01-.75-6.46l2.46-30.35c.9-8.95 9.23-17.08 18.2-17.75l11.12-.84 32.21-2.29c.68.55.49 17.49.49 17.49 0 8.43 23.34 15.29 31.77 15.29h1.3c8.43 0 31.77-6.86 31.77-15.29 0 0-.19-16.94.49-17.49l32.21 2.33 11.12.84c9 .67 17.3 8.8 18.2 17.75L497.4 370a14.79 14.79 0 01-.75 6.43z" id="border"/><g id="head"><path class="cls-10" d="M408.88 182.45c1.62 0 2.75.18 3.19.58 3.21 2.94 18.35 5.92 20.79 10s12.07 15.34 12.6 21.49 3.21 5.34 0 30.45l-12.6-13.62s-.75-15.23-7.43-15.5h-.49c-7.05 0-24.94 5.35-24.94 5.35s-17.89-5.35-24.94-5.35h-.49c-6.68.27-7.43 15.5-7.43 15.5L354.54 245c-3.21-25.11-.54-24.31 0-30.45s10.15-17.37 12.6-21.49c2.11-3.55 31.59-10.62 41.74-10.62m0-6c-6.35 0-17.62 2.24-25.33 4.15C364.8 185.26 363 188.23 362 190c-.53.88-1.71 2.5-3 4.22-5.44 7.48-10 14.13-10.47 19.81a18.35 18.35 0 01-.51 2.82c-1 4.1-2 8.74.53 28.91l1.63 12.75 8.73-9.44 12.6-13.62 1.48-1.6.11-2.18c.2-3.76 1.31-8.3 2.34-9.79 4.78.17 16.41 3.18 22.81 5.09l1.72.52 1.72-.52c6.4-1.91 18-4.92 22.81-5.09 1.05 1.5 2.15 6 2.34 9.79l.11 2.18 1.48 1.6 12.6 13.62 8.73 9.44 1.63-12.75c2.57-20.17 1.49-24.81.53-28.91a18.35 18.35 0 01-.51-2.82c-.49-5.68-5-12.33-10.47-19.81-1.24-1.72-2.42-3.34-3-4.22-2.34-3.95-7.32-5.94-15.23-8.76a50.25 50.25 0 01-6.75-2.72c-2.07-1.83-4.78-2.08-7.16-2.08z"/><path id="skin-2" data-name="skin" class="cls-1" d="M446.88 254.05c0-.91.08-1.81.08-2.73 0-30.51-21.06-55.25-47-55.25s-47 24.74-47 55.25c0 1.11 0 2.22.1 3.31-4.05 2.46-6.91 8.44-6.91 15.43 0 9.19 4.93 16.64 11 16.64a7.48 7.48 0 002.1-.32c.82 24.5 18.73 44.08 40.73 44.08S440 310.65 440.66 286a7.65 7.65 0 003.25.74c6.09 0 11-7.45 11-16.64.02-7.67-3.39-14.1-8.03-16.05z"/><path class="cls-10" d="M399.92 333.46c-22.68 0-41.28-19-43.53-43.79-7.52-.49-13.32-8.93-13.32-19.61 0-7 2.64-13.45 6.84-16.92v-1.82c0-32.12 22.45-58.25 50-58.25s50 26.13 50 58.25v1c4.85 3.18 8 10 8 17.76 0 11-6.16 19.64-14 19.64h-.46c-2.25 24.79-20.78 43.74-43.53 43.74zm-40.73-50.08a3 3 0 013 2.9c.77 23.09 17.34 41.18 37.73 41.18 20.58 0 37.15-18.26 37.74-41.58a3 3 0 014.27-2.64 4.73 4.73 0 002 .46c4.35 0 8-6.25 8-13.64 0-7-3.13-11.94-6.22-13.25a3 3 0 01-1.83-2.89v-.18c0-.8.07-1.6.07-2.42 0-28.81-19.76-52.25-44-52.25s-44 23.44-44 52.25c0 .92 0 1.89.09 3.16a3 3 0 01-1.43 2.71c-3.27 2-5.47 7.16-5.47 12.87 0 7.39 3.67 13.64 8 13.64a4.69 4.69 0 001.25-.19 2.74 2.74 0 01.8-.13z"/><path d="M445.46 214.56c-.53-6.15-10.15-17.37-12.6-21.49s-17.58-7.1-20.79-10-42.49 5.92-44.93 10-12.07 15.34-12.6 21.49-3.21 5.34 0 30.45l12.6-13.62s.75-15.23 7.43-15.5 25.43 5.34 25.43 5.34 18.75-5.61 25.43-5.34 7.43 15.5 7.43 15.5l12.6 13.61c3.21-25.1.54-24.3 0-30.44z" fill="#211b18"/></g></svg>