<svg id="player" xmlns="http://www.w3.org/2000/svg" viewBox="0 0 800 800"><defs><style>.cls-1{fill:#56382f}.cls-2{fill:#ded6b6}.cls-4{fill:#fff}.cls-5{fill:#f2f2f3}.cls-6{fill:#00a17f}.cls-8{fill:#007b3f}.cls-9{fill:#b02925}.cls-10{fill:#dec533}.cls-12{fill:#231f20}</style></defs><g id="skin"><path id="arm-left" class="cls-1" d="M306.43 383h36.78v72.38a18.39 18.39 0 01-18.39 18.39 18.39 18.39 0 01-18.39-18.39V383z"/><path id="arm-right" class="cls-1" d="M457.69 383h36.78v72.38a18.39 18.39 0 01-18.39 18.39 18.39 18.39 0 01-18.39-18.39V383z"/><path id="leg-left" class="cls-1" d="M350.38 492.97h45.67v45.67h-45.67z"/><path id="leg-right" class="cls-1" d="M405.28 492.97h45.67v45.67h-45.67z"/></g><g id="boots"><path id="left" class="cls-2" d="M395.83 570.99H373l-22.83 1.98h-12.5l-7.5 2.52-5.25 8.5v9.83l1.91 4.17 3.84 4.06 6.33 1.94h58.83v-33z"/><path id="right" class="cls-2" d="M405.11 571.22h22.83l22.83 1.97h12.5l7.5 2.53 5.25 8.5v9.83l-1.91 4.17-3.84 4.05-6.33 1.95h-58.83v-33z"/><path d="M395.68 583.49s-22.55 1.08-22.08 20.73L396 604zm9.56 0s22.55 1.08 22.08 20.73l-22.44-.22z" fill="#b72025"/></g><g id="socks"><g id="socks-2" data-name="socks"><path id="left-2" data-name="left" class="cls-4" d="M350.38 522.95h45.67v48.04h-45.67z"/><path id="right-2" data-name="right" class="cls-4" d="M404.88 522.95h45.67v48.04h-45.67z"/></g><path class="cls-5" d="M350.95 529.09h44.88v6.67h-44.88zm54.32 0h44.88v6.67h-44.88z"/></g><g id="shorts"><path id="shorts-2" data-name="shorts" class="cls-4" d="M342.17 443.49h116.49v47a9.95 9.95 0 01-9.95 9.95h-96.6a9.95 9.95 0 01-9.95-9.95v-47h.01z"/><path class="cls-6" d="M344.15 457.58s13.84 7.7 13.84 42.1c0 0-10.19 1.2-12.54-6.74s-1.3-35.36-1.3-35.36zm112.7 0s-13.85 7.7-13.85 42.1c0 0 10.19 1.2 12.54-6.74s1.31-35.36 1.31-35.36z"/></g><g id="shirt"><path id="shirt-2" data-name="shirt" class="cls-4" d="M370 315.75l-48.29 2.99-11.36 6.25-6.83 10.1-3.31 40.73 5.17 7.67 7.66 4.67h29.5l.17 54h114.83v-53.5l29.34-.17 7.01-4 6.99-10.5-3.4-37.33-6.83-11.84-9.77-6.08-49.84-2.99-1 21.24-6.5 6.5-11.16 3.48-11.88 2.02-15.46-3.17-11-5.66-3.66-3.84-.38-20.57z"/><path class="cls-6" d="M343.85 386.5l.66-5.18-29.36-6.21A9.16 9.16 0 01308 364.9l3.36-24.09a18.27 18.27 0 015.64-12.47 18.29 18.29 0 0110.63-4.92c3.63-.39 8.1-.87 11.12-1.22a6.48 6.48 0 005.75-6.45s-30.88-.29-35.28 8.7-5.37 20.87-5.37 20.87l-2.35 28.85S311 388 318 388s25.85-1.5 25.85-1.5zm113.3 0l-.66-5.18 29.36-6.21A9.16 9.16 0 00493 364.9l-3.36-24.09a18.27 18.27 0 00-5.64-12.47 18.29 18.29 0 00-10.63-4.92c-3.63-.39-8.1-.87-11.12-1.22a6.48 6.48 0 01-5.75-6.45s30.88-.29 35.28 8.7 5.37 20.87 5.37 20.87l2.35 28.85S490 388 483 388s-25.85-1.5-25.85-1.5zm-21.7-71.67a3.08 3.08 0 00-3.56 2.8l-1.38 17.49a3.1 3.1 0 01-.49 1.44l-2.86 4.44a3 3 0 01-1.4 1.17l-14.31 5.95a3.27 3.27 0 01-.53.17l-10.27 2.24a2.94 2.94 0 01-1.32 0l-10.28-2.24a3.16 3.16 0 01-.52-.17l-14.32-5.95a3.13 3.13 0 01-1.4-1.17l-2.81-4.44a3 3 0 01-.49-1.44l-1.39-17.49a3.08 3.08 0 00-3.55-2.8 3.08 3.08 0 00-2.6 2.81c-.46 6.45-1.18 23.64 4.05 26.62 6.31 3.58 23.37 14.15 33.29 12.06a3.49 3.49 0 011.44 0c9.92 2.09 27-8.48 33.28-12.06 5.24-3 4.52-20.17 4.05-26.62a3.06 3.06 0 00-2.63-2.81z"/><path class="cls-5" d="M356.18 372.45c-.6 17.25.57 57.57 23.9 63.58a2.84 2.84 0 003.09-4.34A165.77 165.77 0 01358 372.32a.91.91 0 00-1.82.13zm88.64 0c.6 17.25-.57 57.57-23.9 63.58a2.84 2.84 0 01-3.09-4.34A165.77 165.77 0 00443 372.32a.91.91 0 011.82.13zm-25.98-13.51c4.69 16.62 13.14 56.06-8.09 67.44a2.84 2.84 0 01-4-3.48 165.79 165.79 0 0010.34-63.66.91.91 0 011.75-.3z"/><path class="cls-5" d="M383.67 358.73c-5.42 16.39-15.62 55.42 5.09 67.73a2.84 2.84 0 004.18-3.3 165.72 165.72 0 01-7.51-64.05.91.91 0 00-1.76-.38z"/><path d="M462.4 351.87a4.71 4.71 0 00-4.71 4.71v15.82h42.82v-20.53z" fill="#faee4f"/><g id="crest-senegal"><path class="cls-8" d="M436.71 368.09l3 1a.59.59 0 01.38.67l-.46 2a1.17 1.17 0 01-1.1.91l-3.6.13 1.24-5.1z"/><path class="cls-9" d="M435.36 367l-2.14-1.72s-4.47.39-5.25 4.08a.77.77 0 00.11.61l2.25 3.51a15.53 15.53 0 015.03-6.48z"/><path class="cls-10" d="M430.33 373.49l2.9 4.53a.87.87 0 001.12.31 4.27 4.27 0 002.36-5.54c-.91-2.69-.52-3.94-.22-4.43a.4.4 0 00-.1-.52l-1-.83a15.53 15.53 0 00-5.06 6.48z"/><path class="cls-9" d="M444.25 368.08l-2 .72a8.77 8.77 0 01-8.25 11.83v2.11a10.87 10.87 0 0010.21-14.66z"/><path class="cls-10" d="M434 361a10.88 10.88 0 00-8.88 4.6l1.72 1.21a8.78 8.78 0 0115.39 2l2-.72A10.91 10.91 0 00434 361z"/><path class="cls-8" d="M425.77 374.8a8.76 8.76 0 011.11-8l-1.72-1.21a10.88 10.88 0 008.84 17.15v-2.11a8.79 8.79 0 01-8.23-5.83z"/></g><g id="brand-puma"><rect class="cls-6" x="364.03" y="365.37" width="6.25" height="16.01" rx="3.13" ry="3.13" transform="rotate(-63.52 367.184 373.384)" id="brand-puma-2" data-name="brand-puma"/></g><path class="cls-6" d="M394 399.33a2 2 0 01-2-1.93v-11.58l-2 2.18a1.53 1.53 0 01-1.08.44 1.63 1.63 0 01-1.13-2.79l4.25-4.3a2.36 2.36 0 011.65-.66 2.27 2.27 0 012.29 2.23v14.48a2 2 0 01-1.98 1.93zm12.32.17c-5.26 0-7.61-4.77-7.61-9.51s2.35-9.49 7.61-9.49 7.61 4.74 7.61 9.49-2.37 9.51-7.61 9.51zm0-15.52c-2.64 0-3.64 2.61-3.64 6s1 6 3.64 6 3.61-2.64 3.61-6-.99-5.98-3.61-5.98z" id="number-10"/></g><path id="neck" fill="#3a231e" d="M428.13 341.21l-27.59 8.62-28.6-9.62-1.92-23.62h61.04l-2.93 24.62z"/><path d="M503.38 369.38L500.91 339c-1.19-11.87-11.83-22.25-23.72-23.14l-37.14-2.7c-4.07-.45-20.52-.09-39.55.53-19-.62-35.48-1-39.55-.53l-37.14 2.7c-11.89.89-22.53 11.27-23.72 23.14l-2.47 30.36a20.14 20.14 0 005 15.74 18.65 18.65 0 001.69 1.64v66.36c0 12.81 9.32 23.23 20.78 23.23a19.8 19.8 0 0015.21-7.43v21.79a12.24 12.24 0 007.74 11.36v68h-5.93c-10.93 0-19.83 5.8-19.83 17.11 0 8.06 0 17 11.72 19.7v1.6a1.37 1.37 0 001.38 1.37h1.63a1.37 1.37 0 001.38-1.37v-1q1.72.15 3.72.15H344v.8a1.37 1.37 0 001.38 1.37h1.63a1.37 1.37 0 001.38-1.37v-.8H354v.8a1.37 1.37 0 001.38 1.37h1.63a1.37 1.37 0 001.38-1.37v-.8H364v.8a1.37 1.37 0 001.38 1.37h1.63a1.37 1.37 0 001.38-1.37v-.8H374v.8a1.37 1.37 0 001.38 1.37h1.63a1.37 1.37 0 001.38-1.37v-.8H384v.8a1.37 1.37 0 001.38 1.37h1.63a1.37 1.37 0 001.38-1.37v-.8H394v.8a1.37 1.37 0 001.38 1.37h1.63a1.37 1.37 0 001.38-1.37v-.81l.06-55.46V503h4v49.21l.06 54.67v1.6a1.37 1.37 0 001.38 1.37h1.63a1.37 1.37 0 001.38-1.37v-.8h5.61v.8a1.37 1.37 0 001.38 1.37h1.63a1.37 1.37 0 001.38-1.37v-.8h5.61v.8a1.37 1.37 0 001.38 1.37h1.63a1.37 1.37 0 001.38-1.37v-.8h5.61v.8a1.37 1.37 0 001.38 1.37h1.63a1.37 1.37 0 001.38-1.37v-.8h5.61v.8a1.37 1.37 0 001.38 1.37h1.63a1.37 1.37 0 001.38-1.37v-.8h5.61v.8a1.37 1.37 0 001.38 1.37h1.63a1.37 1.37 0 001.38-1.37v-.8h1.89c1.33 0 2.56 0 3.72-.15v1a1.37 1.37 0 001.38 1.37h1.63a1.37 1.37 0 001.38-1.37v-1.6c11.71-2.68 11.72-11.64 11.72-19.7 0-11.31-8.9-17.11-19.83-17.11h-5.93v-68a12.24 12.24 0 007.74-11.36v-21.84a19.8 19.8 0 0015.21 7.43c11.46 0 20.78-10.42 20.78-23.23v-66.36a18.65 18.65 0 001.69-1.64 20.14 20.14 0 005.1-15.74zM372.89 323.2c3.46 1.85 15.64 2.08 27.61 1.8 12 .28 24.15.05 27.61-1.8V335c0 4.81-22.42 12-27.23 12l-.38-.07-.38.07c-4.81 0-27.23-7.18-27.23-12zm-33 75.43v55c0 9.5-6.63 17.23-14.78 17.23s-14.78-7.73-14.78-17.23v-62.78a21.07 21.07 0 007.47 1.36h22.09zm52.91 203.42h-50.65c-14.21 0-14.21-5-14.21-14.89 0-8.22 6.37-11.5 14.21-11.5h11.67l38.93-2.7.07 15.37zm-38.74-76.4h38.67v41.7L354.08 570h-.26v-44.4zm-.26-5.74v-17h38.93v16.93h-38.91zm104.77 55.75h.26c7.84 0 14.21 3.28 14.21 11.5 0 9.91 0 14.89-14.21 14.89h-50.65v-13.7l.07-15.37 38.93 2.7h11.41zm-11.67-50h.26v44.4h-.26l-38.67-2.68v-41.7zm-38.67-5.74V503h38.93v17h-38.91zm46.84-73.78H455v44.58a6.6 6.6 0 01-6.58 6.58h-1.26l-43.68-.05s-.11-3.72-.16-8.75v-2.8c0-3.52-1.41-5.09-2.82-5-1.41-.08-2.82 1.49-2.82 5v2.79c-.05 5-.16 8.75-.16 8.75l-43.68.05h-1.26a6.6 6.6 0 01-6.58-6.58v-44.58h-.07v-.33l30.25.33h48.68l30.25-.33zm35.56 7.51c0 9.5-6.63 17.23-14.78 17.23s-14.78-7.73-14.78-17.23v-61.44h22.09a21.07 21.07 0 007.47-1.36zm6-77.21a13.55 13.55 0 01-2.76 4.66 13.85 13.85 0 01-3.24 2.63 14.72 14.72 0 01-7.47 2l-22.09.09v-20.15c0-5.56-6.08-5.93-6.08 0s.08 14.37.08 14.37v59.59H345.91V380s.08-8.45.08-14.37-6.08-5.54-6.08 0v20.11l-22.09-.09a14.72 14.72 0 01-7.47-2 13.85 13.85 0 01-3.24-2.63 13.55 13.55 0 01-2.76-4.66 14.79 14.79 0 01-.75-6.46l2.46-30.35c.9-8.95 9.23-17.08 18.2-17.75l11.12-.84 32.21-2.29c.68.55.49 17.49.49 17.49 0 8.43 23.34 15.29 31.77 15.29h1.3c8.43 0 31.77-6.86 31.77-15.29 0 0-.19-16.94.49-17.49l32.21 2.33 11.12.84c9 .67 17.3 8.8 18.2 17.75L497.4 370a14.79 14.79 0 01-.75 6.43z" id="border"/><g id="head"><path class="cls-12" d="M404.6 192a13.42 13.42 0 017.54 2.21 12.17 12.17 0 012.14-.17c2.55 0 6.75.67 9 4.7a8.79 8.79 0 013.25-.64c2.24 0 5.08 1 6.51 5.33a5.16 5.16 0 014.2 3.65c1.62 4.36 1.12 5.73-.07 8.33l-9.05 1.76s-7-6.09-25.17-6.09h-6.01c-18.2 0-25.1 6.09-25.1 6.09l-9.06-1.76c-.07-1.73-.77-2.06-.2-7.79.37-3.69 4.34-4.19 4.34-4.19 1.43-4.36 4.26-5.33 6.51-5.33a8.86 8.86 0 013.25.64c2.25-4 6.46-4.7 9-4.7a12.31 12.31 0 012.14.17 13.4 13.4 0 017.54-2.21 14.74 14.74 0 014.6.7 14.77 14.77 0 014.61-.7m0-5a20.82 20.82 0 00-4.61.51 20.82 20.82 0 00-4.61-.51 18.75 18.75 0 00-8.66 2.07h-1a15.45 15.45 0 00-11 4.12q-.62-.06-1.29-.06a11.15 11.15 0 00-10.2 6.26 9.51 9.51 0 00-5.62 7.76 25.12 25.12 0 00.09 7.94c.06.33.08.45.09.57a5 5 0 004 4.69l9.05 1.76a5.84 5.84 0 001.09.11 4.49 4.49 0 003.14-1.23c.54-.41 6.83-4.88 21.83-4.88h1.92a4.58 4.58 0 00.64 0h.89a4.63 4.63 0 00.65 0h1.91c15 0 21.38 4.49 21.91 4.89a4.5 4.5 0 003.13 1.22 5.84 5.84 0 001.09-.11l9.05-1.76a5 5 0 003.59-2.83c1.8-3.94 2.26-6.63.21-12.16a10.56 10.56 0 00-5.17-5.91 11.15 11.15 0 00-10.23-6.32q-.68 0-1.29.06a15.45 15.45 0 00-11-4.12h-1a18.68 18.68 0 00-8.57-2.07z"/><path id="skin-2" data-name="skin" class="cls-1" d="M446.88 254.05c0-.91.08-1.81.08-2.73 0-30.51-21.06-55.25-47-55.25s-47 24.74-47 55.25c0 1.11 0 2.22.1 3.31-4.05 2.46-6.91 8.44-6.91 15.43 0 9.19 4.93 16.64 11 16.64a7.48 7.48 0 002.1-.32c.82 24.5 18.73 44.08 40.73 44.08S440 310.65 440.66 286a7.65 7.65 0 003.25.74c6.09 0 11-7.45 11-16.64.02-7.67-3.39-14.1-8.03-16.05z"/><path d="M354.54 257.19s15.73-15.07 17.41-25.13-.56-15.34 3.68-16.9-3.93-18.18-13.14 2.15-8.19 30.6-7.95 39.88zm90.89 0s-15.72-15.07-17.4-25.13.62-15-3.61-16.58 3.85-18.5 13.06 1.83 8.2 30.6 7.95 39.88z" fill="#33211e"/><path class="cls-12" d="M399.92 333.46c-22.68 0-41.28-19-43.53-43.79-7.52-.49-13.32-8.93-13.32-19.61 0-7 2.64-13.45 6.84-16.92v-1.82c0-32.12 22.45-58.25 50-58.25s50 26.13 50 58.25v1c4.85 3.18 8 10 8 17.76 0 11-6.16 19.64-14 19.64h-.46c-2.25 24.79-20.78 43.74-43.53 43.74zm-40.73-50.08a3 3 0 013 2.9c.77 23.09 17.34 41.18 37.73 41.18 20.58 0 37.15-18.26 37.74-41.58a3 3 0 014.27-2.64 4.73 4.73 0 002 .46c4.35 0 8-6.25 8-13.64 0-7-3.13-11.94-6.22-13.25a3 3 0 01-1.83-2.89v-.18c0-.8.07-1.6.07-2.42 0-28.81-19.76-52.25-44-52.25s-44 23.44-44 52.25c0 .92 0 1.89.09 3.16a3 3 0 01-1.43 2.71c-3.27 2-5.47 7.16-5.47 12.87 0 7.39 3.67 13.64 8 13.64a4.69 4.69 0 001.25-.19 2.74 2.74 0 01.8-.13z"/><path d="M400 192.68s-6.37-2.34-12.14 1.51c0 0-7.77-1.51-11.15 4.53 0 0-7.17-3.19-9.76 4.69 0 0-4 .5-4.34 4.19-.57 5.73.13 6.06.2 7.79l10.55 2.13s6.06-7 26.17-6.42h.89a61.53 61.53 0 0113.91 1 43.75 43.75 0 00-5.16-19.37 15 15 0 00-9.17-.05zm37.25 14.38a5.16 5.16 0 00-4.2-3.65c-2.59-7.88-9.76-4.69-9.76-4.69-2.45-4.37-7.18-4.78-9.62-4.68 4.53 5.28 4.39 14.36 4 18.86 6.61 1.91 9 4.62 9 4.62l10.55-2.13c1.15-2.6 1.65-3.97.03-8.33z" fill="#1f1312"/><path d="M413.67 194a12.3 12.3 0 00-1.53.15 12.93 12.93 0 00-3-1.47 43.75 43.75 0 015.16 19.37c1.22.24 2.33.51 3.35.81.41-4.46.55-13.54-3.98-18.86z" fill="#846934"/></g></svg>