<svg id="player" xmlns="http://www.w3.org/2000/svg" viewBox="0 0 800 800"><defs><style>.cls-1{fill:#dda486}.cls-2{fill:#9b8075}.cls-3{fill:#fff}.cls-5{fill:#d7deea}.cls-6{fill:#f04e48}.cls-7{fill:#c5ccd7}.cls-9{fill:#231f20}.cls-11{fill:#2d2317;opacity:.1}</style></defs><g id="skin"><path id="arm-left" class="cls-1" d="M306.43 383h36.78v72.38a18.39 18.39 0 01-18.39 18.39 18.39 18.39 0 01-18.39-18.39V383z"/><path id="arm-right" class="cls-1" d="M457.69 383h36.78v72.38a18.39 18.39 0 01-18.39 18.39 18.39 18.39 0 01-18.39-18.39V383z"/><path id="leg-left" class="cls-1" d="M350.38 492.97h45.67v45.67h-45.67z"/><path id="leg-right" class="cls-1" d="M405.28 492.97h45.67v45.67h-45.67z"/></g><g id="boots"><path class="cls-2" d="M487.12 382.77s1.22 24.59-4.9 25.38-19.61-17-8.82-26 13.72.62 13.72.62z"/><path class="cls-2" d="M465.06 395.28s8.83 9.51 6.87 16.37-14.52 3.11-13.27-3.47.03-11.62 6.4-12.9zm27.69 14.8L477.44 413a2.39 2.39 0 00-1.82 1.56 2.41 2.41 0 002.47 3.2l14.66-1.26zm-34.17 12.52s24.13-1.8 25 0-23.89 11.66-25 7.95a16.92 16.92 0 010-7.95zm30.01 5.4s4.41 13-1.37 15.94-18.62-6.65-11.14-14 12.51-1.94 12.51-1.94zm-28.92 9.61s10.81-.27 11.17 2.57-8.77 9.11-12.26 7.53 1.09-10.1 1.09-10.1z"/><path id="left" class="cls-3" d="M395.83 570.99H373l-22.83 1.98h-12.5l-7.5 2.52-5.25 8.5v9.83l1.91 4.17 3.84 4.06 6.33 1.94h58.83v-33z"/><path id="right" class="cls-3" d="M405.11 571.22h22.83l22.83 1.97h12.5l7.5 2.53 5.25 8.5v9.83l-1.91 4.17-3.84 4.05-6.33 1.95h-58.83v-33z"/><path d="M466.88 574.58s-25.44 11.56-41.94 9.32-19.44-6.52-19.44-6.52l-.39-6.39s51.89-.43 61.77 3.59zm-132.82 0s25.44 11.56 41.94 9.32 19.43-6.52 19.43-6.52l.4-6.39s-51.89-.43-61.77 3.59z" fill="#feee33"/></g><g id="socks"><g id="socks-2" data-name="socks"><path id="left-2" data-name="left" class="cls-5" d="M350.38 522.95h45.67v48.04h-45.67z"/><path id="right-2" data-name="right" class="cls-5" d="M404.88 522.95h45.67v48.04h-45.67z"/></g><path class="cls-6" d="M351.83 527.3h44.74v1.75h-44.74zm0 3.5h44.74v1.75h-44.74zm53.05-3.5h44.74v1.75h-44.74zm0 3.5h44.74v1.75h-44.74z"/></g><g id="shorts"><path id="shorts-2" data-name="shorts" class="cls-3" d="M342.17 443.49h116.49v47a9.95 9.95 0 01-9.95 9.95h-96.6a9.95 9.95 0 01-9.95-9.95v-47h.01z"/><path class="cls-6" d="M347.89 443.49h1.97v56.08h-1.97zm3.94 0h1.97v56.08h-1.97zm95.34 0h1.97v56.08h-1.97zm3.94 0h1.97v56.08h-1.97z"/></g><g id="shirt"><path id="shirt-2" data-name="shirt" class="cls-5" d="M370 315.75l-48.29 2.99-11.36 6.25-6.83 10.1-3.31 40.73 5.17 7.67 7.66 4.67h29.5l.17 54h114.83v-53.5l29.34-.17 7.01-4 6.99-10.5-3.4-37.33-6.83-11.84-9.77-6.08-49.84-2.99-1 21.24-6.5 6.5-11.16 3.48-11.88 2.02-15.46-3.17-11-5.66-3.66-3.84-.38-20.57z"/><g id="crest-spain"><path class="cls-6" d="M310 328.28l-1.16-1.63c4.68-3.34 52.32-5.36 57.74-5.58l.08 2c-21 .85-53.45 2.93-56.66 5.21zm-5.29 5.72l-1.16-1.63c4.68-3.33 57.1-5.35 63.06-5.57l.08 2c-23.17.82-58.8 2.91-61.98 5.2zm187-5.72l1.16-1.63c-4.68-3.34-52.32-5.36-57.74-5.58l-.08 2c21.03.85 53.48 2.93 56.66 5.21zM497 334l1.17-1.63c-4.68-3.33-57.1-5.35-63.07-5.57l-.07 2c23.19.82 58.82 2.91 61.97 5.2z"/><g id="brand-adidas"><g id="adidas"><rect id="bottom" class="cls-6" x="356.21" y="370.81" width="15.19" height="2.14" rx=".62" ry=".62"/><path class="cls-6" d="M363.88 362.11a1.35 1.35 0 00-.49 1.82l3.12 5.41a1.32 1.32 0 001.15.67H370l-4.3-7.42a1.33 1.33 0 00-1.82-.48zm-2.67 2.69a1.33 1.33 0 00-.49 1.81l1.53 2.72a1.34 1.34 0 001.16.68h2.33l-2.69-4.72a1.35 1.35 0 00-1.84-.49zm-2.93 2.35a1.34 1.34 0 00-.5 1.8l.21.37a1.33 1.33 0 001.17.69h2.32l-1.36-2.37a1.33 1.33 0 00-1.84-.49z"/></g></g><path class="cls-6" d="M431 315.75l-.39 21.25-3.76 3.95-5.38 2.73-5.9 3.12-5.75 1.2-9.57 2.78-9.57-2.78-5.75-1.19-5.9-3.12-5.38-2.73-3.76-3.96-.39-21.23-4.75.87v18.05a12.88 12.88 0 004 9.37c5.08 4.8 15.18 11.58 31.48 11.27 16.3.31 26.39-6.47 31.47-11.27a12.88 12.88 0 004-9.37v-18.07zm-33.84 80.86a2.61 2.61 0 01.17-.81l5.56-12.55h-7.83a1.75 1.75 0 110-3.49h10.74a1.91 1.91 0 011.9 1.9 1.66 1.66 0 01-.17.75l-6.54 15a1.94 1.94 0 01-1.85 1.2 2 2 0 01-1.98-2zm36.96-30.91a23.23 23.23 0 013.81.32l3.74.75a1.46 1.46 0 011.32 1.56l-.58 3.44a13.77 13.77 0 00-.87 6.88c.36 2.75-1.41 5.4-4.46 6.69l-1.65.7a3.43 3.43 0 01-2.62 0l-1.65-.7c-3.06-1.29-4.83-3.94-4.46-6.69a13.77 13.77 0 00-.87-6.88l-.58-3.45a1.45 1.45 0 011.32-1.56l3.74-.75a23 23 0 013.81-.32m0-1.7a25.36 25.36 0 00-4.09.34H430l-3.74.75a3.52 3.52 0 00-2 1.15 2.93 2.93 0 00-.67 2.36l.59 3.45a1.89 1.89 0 00.09.34 12 12 0 01.76 6 7.3 7.3 0 001.22 5.06 9.51 9.51 0 004.27 3.43l1.65.7a5.17 5.17 0 003.94 0l1.65-.7a9.48 9.48 0 004.26-3.43 7.29 7.29 0 001.22-5.05 11.91 11.91 0 01.77-6 1.89 1.89 0 00.09-.34l.58-3.44a2.9 2.9 0 00-.67-2.36 3.46 3.46 0 00-2-1.15l-3.74-.75h-.05a25.36 25.36 0 00-4.09-.34z"/><circle class="cls-6" cx="434.12" cy="360.77" r="1.49"/><path class="cls-6" d="M435.63 372.76h-3a2.33 2.33 0 01-2.19-1.57l-.59-1.75a.36.36 0 01.46-.46l1 .42a.64.64 0 00.69-.12l.45-.42a.93.93 0 011.17.05l.09.11a.65.65 0 001 0l.09-.11a.92.92 0 011.16-.05l.45.42a.65.65 0 00.69.12l1-.42a.36.36 0 01.46.46l-.59 1.75a2.33 2.33 0 01-2.34 1.57zm2.79 5.98v-3.43a1.17 1.17 0 00-1.17-1.17h-3.14v4.6z"/><path class="cls-6" d="M434.12 374.14H431a1.17 1.17 0 00-1.17 1.17v3.43h4.31zm-4.31 4.6a5.21 5.21 0 002 3.79 3.72 3.72 0 002.32.81v-4.6z"/><path class="cls-6" d="M434.12 378.74v4.6a3.72 3.72 0 002.32-.81 5.2 5.2 0 002-3.79z"/><path class="cls-7" d="M343.94 425.75h21.87a3.09 3.09 0 013.09 3.09v2h-28v-2a3.09 3.09 0 013.04-3.09z" transform="rotate(45 354.875 428.294)"/><path class="cls-7" d="M344.51 396.19h21.87a3.09 3.09 0 013.09 3.09v2h-28v-2a3.09 3.09 0 013.09-3.09z" transform="rotate(45 355.441 398.729)"/><path class="cls-7" d="M345.08 366.62h21.87a3.09 3.09 0 013.09 3.09v2H342v-2a3.09 3.09 0 013.09-3.09z" transform="rotate(45 356.008 369.163)"/><path class="cls-7" d="M345.65 337.06h21.87a3.09 3.09 0 013.09 3.09v2h-28v-2a3.09 3.09 0 013.09-3.09z" transform="rotate(45 356.586 339.593)"/><path class="cls-7" d="M373.75 425.18h21.87a3.09 3.09 0 013.09 3.09v2h-28v-2a3.09 3.09 0 013.09-3.09z" transform="rotate(45 384.686 427.712)"/><path class="cls-7" d="M374.32 395.61h21.87a3.09 3.09 0 013.09 3.09v2h-28v-2a3.09 3.09 0 013.09-3.09z" transform="rotate(45 385.252 398.147)"/><path class="cls-7" d="M374.89 366h21.87a3.09 3.09 0 013.09 3.09v2h-28v-2a3.09 3.09 0 013.09-3.09z" transform="rotate(45 385.819 368.581)"/><path class="cls-7" d="M403.56 424.61h21.87a3.09 3.09 0 013.09 3.09v2h-28v-2a3.09 3.09 0 013.04-3.09z" transform="rotate(45 414.49 427.147)"/><path class="cls-7" d="M404.13 395H426a3.09 3.09 0 013.09 3.09v2H401v-2a3.09 3.09 0 013.13-3.09z" transform="rotate(45 415.068 397.577)"/><path class="cls-7" d="M404.7 365.47h21.87a3.09 3.09 0 013.09 3.09v2h-28v-2a3.09 3.09 0 013.04-3.09z" transform="rotate(45 415.635 368.012)"/><path class="cls-7" d="M433.37 424h21.87a3.09 3.09 0 013.09 3.09v2h-28v-2a3.09 3.09 0 013.04-3.09z" transform="rotate(45 444.3 426.565)"/><path class="cls-7" d="M433.94 394.47h21.87a3.09 3.09 0 013.09 3.09v2h-28v-2a3.09 3.09 0 013.04-3.09z" transform="rotate(45 444.867 397)"/><path class="cls-7" d="M434.51 364.9h21.87a3.09 3.09 0 013.09 3.09v2h-28v-2a3.09 3.09 0 013.09-3.09z" transform="rotate(45 445.434 367.435)"/><path class="cls-7" d="M435.08 335.33h21.87a3.09 3.09 0 013.09 3.09v2H432v-2a3.09 3.09 0 013.09-3.09z" transform="rotate(45 446.012 337.864)"/></g></g><path id="neck" fill="#c58e76" d="M428.13 341.21l-27.59 8.62-28.6-9.62-1.92-23.62h61.04l-2.93 24.62z"/><path d="M503.38 369.38L500.91 339c-1.19-11.87-11.83-22.25-23.72-23.14l-37.14-2.7c-4.07-.45-20.52-.09-39.55.53-19-.62-35.48-1-39.55-.53l-37.14 2.7c-11.89.89-22.53 11.27-23.72 23.14l-2.47 30.36a20.14 20.14 0 005 15.74 18.65 18.65 0 001.69 1.64v66.36c0 12.81 9.32 23.23 20.78 23.23a19.8 19.8 0 0015.21-7.43v21.79a12.24 12.24 0 007.74 11.36v68h-5.93c-10.93 0-19.83 5.8-19.83 17.11 0 8.06 0 17 11.72 19.7v1.6a1.37 1.37 0 001.38 1.37h1.63a1.37 1.37 0 001.38-1.37v-1q1.72.15 3.72.15H344v.8a1.37 1.37 0 001.38 1.37h1.63a1.37 1.37 0 001.38-1.37v-.8H354v.8a1.37 1.37 0 001.38 1.37h1.63a1.37 1.37 0 001.38-1.37v-.8H364v.8a1.37 1.37 0 001.38 1.37h1.63a1.37 1.37 0 001.38-1.37v-.8H374v.8a1.37 1.37 0 001.38 1.37h1.63a1.37 1.37 0 001.38-1.37v-.8H384v.8a1.37 1.37 0 001.38 1.37h1.63a1.37 1.37 0 001.38-1.37v-.8H394v.8a1.37 1.37 0 001.38 1.37h1.63a1.37 1.37 0 001.38-1.37v-.81l.06-55.46V503h4v49.21l.06 54.67v1.6a1.37 1.37 0 001.38 1.37h1.63a1.37 1.37 0 001.38-1.37v-.8h5.61v.8a1.37 1.37 0 001.38 1.37h1.63a1.37 1.37 0 001.38-1.37v-.8h5.61v.8a1.37 1.37 0 001.38 1.37h1.63a1.37 1.37 0 001.38-1.37v-.8h5.61v.8a1.37 1.37 0 001.38 1.37h1.63a1.37 1.37 0 001.38-1.37v-.8h5.61v.8a1.37 1.37 0 001.38 1.37h1.63a1.37 1.37 0 001.38-1.37v-.8h5.61v.8a1.37 1.37 0 001.38 1.37h1.63a1.37 1.37 0 001.38-1.37v-.8h1.89c1.33 0 2.56 0 3.72-.15v1a1.37 1.37 0 001.38 1.37h1.63a1.37 1.37 0 001.38-1.37v-1.6c11.71-2.68 11.72-11.64 11.72-19.7 0-11.31-8.9-17.11-19.83-17.11h-5.93v-68a12.24 12.24 0 007.74-11.36v-21.84a19.8 19.8 0 0015.21 7.43c11.46 0 20.78-10.42 20.78-23.23v-66.36a18.65 18.65 0 001.69-1.64 20.14 20.14 0 005.1-15.74zM372.89 323.2c3.46 1.85 15.64 2.08 27.61 1.8 12 .28 24.15.05 27.61-1.8V335c0 4.81-22.42 12-27.23 12l-.38-.07-.38.07c-4.81 0-27.23-7.18-27.23-12zm-33 75.43v55c0 9.5-6.63 17.23-14.78 17.23s-14.78-7.73-14.78-17.23v-62.78a21.07 21.07 0 007.47 1.36h22.09zm52.91 203.42h-50.65c-14.21 0-14.21-5-14.21-14.89 0-8.22 6.37-11.5 14.21-11.5h11.67l38.93-2.7.07 15.37zm-38.74-76.4h38.67v41.7L354.08 570h-.26v-44.4zm-.26-5.74v-17h38.93v16.93h-38.91zm104.77 55.75h.26c7.84 0 14.21 3.28 14.21 11.5 0 9.91 0 14.89-14.21 14.89h-50.65v-13.7l.07-15.37 38.93 2.7h11.41zm-11.67-50h.26v44.4h-.26l-38.67-2.68v-41.7zm-38.67-5.74V503h38.93v17h-38.91zm46.84-73.78H455v44.58a6.6 6.6 0 01-6.58 6.58h-1.26l-43.68-.05s-.11-3.72-.16-8.75v-2.8c0-3.52-1.41-5.09-2.82-5-1.41-.08-2.82 1.49-2.82 5v2.79c-.05 5-.16 8.75-.16 8.75l-43.68.05h-1.26a6.6 6.6 0 01-6.58-6.58v-44.58h-.07v-.33l30.25.33h48.68l30.25-.33zm35.56 7.51c0 9.5-6.63 17.23-14.78 17.23s-14.78-7.73-14.78-17.23v-61.44h22.09a21.07 21.07 0 007.47-1.36zm6-77.21a13.55 13.55 0 01-2.76 4.66 13.85 13.85 0 01-3.24 2.63 14.72 14.72 0 01-7.47 2l-22.09.09v-20.15c0-5.56-6.08-5.93-6.08 0s.08 14.37.08 14.37v59.59H345.91V380s.08-8.45.08-14.37-6.08-5.54-6.08 0v20.11l-22.09-.09a14.72 14.72 0 01-7.47-2 13.85 13.85 0 01-3.24-2.63 13.55 13.55 0 01-2.76-4.66 14.79 14.79 0 01-.75-6.46l2.46-30.35c.9-8.95 9.23-17.08 18.2-17.75l11.12-.84 32.21-2.29c.68.55.49 17.49.49 17.49 0 8.43 23.34 15.29 31.77 15.29h1.3c8.43 0 31.77-6.86 31.77-15.29 0 0-.19-16.94.49-17.49l32.21 2.33 11.12.84c9 .67 17.3 8.8 18.2 17.75L497.4 370a14.79 14.79 0 01-.75 6.43z" id="border"/><g id="head"><path class="cls-9" d="M408.42 192.68h2c1.65 0 16.34 8.12 20.95 12.72s9.38 5.93 16 25-2.72 31.91-2.72 31.91-1.72-4.1-7.65-10.84 7.62-28.3-15.3-36.37c-4.93-1.73-8.45-2.45-11.16-2.45-9.88 0-9 9.51-26.85 13.64a43 43 0 01-9.74 1.23c-14.18 0-17.18-9.37-19.38-9.78-2.64-.5-1.15-3.13 7.9-12 8.78-8.62 23.87-13.06 46-13.06m0-5c-23.35 0-39.53 4.74-49.47 14.5-8.81 8.65-11.54 12.22-10.3 16.28a5.92 5.92 0 003.74 3.87l.5.57c2.71 3.13 8.34 9.64 21.05 9.64a48.63 48.63 0 0010.87-1.36c10.81-2.51 15.72-6.92 19.31-10.14 2.84-2.56 3.87-3.37 6.41-3.37 2.25 0 5.36.71 9.5 2.17 11.51 4 11 11.6 10.49 20.34-.33 5.28-.67 10.74 2.72 14.61 5.16 5.88 6.79 9.48 6.8 9.48l8.65 1c.44-.61 10.74-15.17 3.4-36.48-5.87-17-10.7-21.21-15-24.92-.77-.67-1.5-1.31-2.19-2-3.14-3.15-9.24-6.91-12.59-8.86-9.06-5.29-10.93-5.32-11.83-5.33z"/><path class="cls-9" d="M400.35 197.4s17.38 1 23.21 7.41c0 0 13.35 7.29 17.16 18.28 0 0 5.68 10.51 5.38 20.37-.13 4.43-.64 5.63-1.31 5.63s-1.82-1.64-2.76-1.64h-.11s-4.19-1.86-4.53-2.87.41-7.75-.71-10-5.53-9.72-9-12.41c-1.2-.92-4.08-1.22-7.59-1.22-6.82 0-16 1.14-19.7 1.14S387.46 221 380.64 221c-3.5 0-6.39.31-7.58 1.22-3.52 2.69-7.93 10.17-9.05 12.41s-.37 9-.71 10-4.52 2.87-4.52 2.87h-.12c-.93 0-2 1.64-2.75 1.64s-1.18-1.2-1.32-5.63c-.3-9.86 5.38-20.37 5.38-20.37 3.82-11 17.16-18.28 17.16-18.28 5.83-6.4 23.22-7.41 23.22-7.41m0-5.68h-.33a79.35 79.35 0 00-10.24 1.42c-7.51 1.55-12.81 3.89-16.16 7.12-3.17 1.89-14.77 9.4-18.85 20.53-1.14 2.22-6.16 12.62-5.85 22.82.08 2.62.34 13.36.71 14.73 1.06 3.95 3.91-3.6 6.28-3.6a7.21 7.21 0 004.68-1.9l.49-.22c5.69-2.52 7-4.5 7.6-6.26a13.35 13.35 0 00.37-4.67 32.53 32.53 0 01.15-4.79c1.37-2.68 4.79-8 7-10a21.13 21.13 0 014.46-.32c3.7 0 8.21.37 12.18.68 3.08.25 5.73.46 7.53.46s4.45-.21 7.52-.46c4-.31 8.48-.68 12.18-.68a21.19 21.19 0 014.47.32c2.18 1.94 5.6 7.28 7 10a32.57 32.57 0 01.14 4.79 13.86 13.86 0 00.37 4.67c.59 1.76 1.92 3.74 7.61 6.26l.49.22a7.21 7.21 0 004.68 1.9c2.37 0 5.94 8.69 7 4.74.37-1.37-.09-13.25 0-15.87.31-10.2-4.7-20.59-5.84-22.82-4.08-11.13-15.68-18.64-18.86-20.53-3.34-3.23-8.64-5.57-16.15-7.12a79.58 79.58 0 00-10.24-1.42h-.33z"/><path id="skin-2" data-name="skin" class="cls-1" d="M446.88 254.05c0-.91.08-1.81.08-2.73 0-30.51-21.06-55.25-47-55.25s-47 24.74-47 55.25c0 1.11 0 2.22.1 3.31-4.05 2.46-6.91 8.44-6.91 15.43 0 9.19 4.93 16.64 11 16.64a7.48 7.48 0 002.1-.32c.82 24.5 18.73 44.08 40.73 44.08S440 310.65 440.66 286a7.65 7.65 0 003.25.74c6.09 0 11-7.45 11-16.64.02-7.67-3.39-14.1-8.03-16.05z"/><path d="M363.32 216.84a24.44 24.44 0 00-3.35 6.25s-5.68 10.51-5.38 20.37a41.64 41.64 0 001.12 9.18 2.46 2.46 0 004.7.2c1.21-3.45 2.7-7.66 2.89-8.25.34-1-.41-7.75.71-10s5.16-9.08 8.6-12a21.58 21.58 0 00-9.29-5.75zm77.4 6.25a24.29 24.29 0 00-3.36-6.27 21.34 21.34 0 00-9.32 5.71c3.44 2.93 7.56 9.91 8.64 12.07s.38 9 .71 10c.2.59 1.68 4.8 2.9 8.25a2.46 2.46 0 004.7-.2 42.37 42.37 0 001.11-9.18c.3-9.87-5.38-20.38-5.38-20.38z" opacity=".3" fill="#2d2317"/><path class="cls-11" d="M444.35 249.09l-5.62.56s-1.19 31.43-4.59 36.6-10.88 28-27.45 37.43c-2.69 1.53-1.11-8.38-6.31-8.71-5.19.33-3.69 10.24-6.38 8.71-16.57-9.43-24-32.27-27.45-37.43s-4.59-36.6-4.59-36.6l-5.62-.56c-5.63-.57 2.8 11.33 4.4 43.61s39.53 37.75 39.6 37.76c.07 0 38-5.51 39.6-37.76s10.06-44.18 4.41-43.61z"/><path class="cls-9" d="M399.92 333.46c-22.68 0-41.28-19-43.53-43.79-7.52-.49-13.32-8.93-13.32-19.61 0-7 2.64-13.45 6.84-16.92v-1.82c0-32.12 22.45-58.25 50-58.25s50 26.13 50 58.25v1c4.85 3.18 8 10 8 17.76 0 11-6.16 19.64-14 19.64h-.46c-2.25 24.79-20.78 43.74-43.53 43.74zm-40.73-50.08a3 3 0 013 2.9c.77 23.09 17.34 41.18 37.73 41.18 20.58 0 37.15-18.26 37.74-41.58a3 3 0 014.27-2.64 4.73 4.73 0 002 .46c4.35 0 8-6.25 8-13.64 0-7-3.13-11.94-6.22-13.25a3 3 0 01-1.83-2.89v-.18c0-.8.07-1.6.07-2.42 0-28.81-19.76-52.25-44-52.25s-44 23.44-44 52.25c0 .92 0 1.89.09 3.16a3 3 0 01-1.43 2.71c-3.27 2-5.47 7.16-5.47 12.87 0 7.39 3.67 13.64 8 13.64a4.69 4.69 0 001.25-.19 2.74 2.74 0 01.8-.13z"/><path d="M447.36 230.42c-6.58-19.08-11.35-20.4-16-25s-19.3-12.7-20.95-12.72c-23.2-.27-38.94 4.17-48 13.05s-10.54 11.52-7.9 12 5.69 17 28.39 11.69 23.12-16.73 41.42-8.26c21.8 10.08 25.34 15.92 23.04 9.24z" fill="#2d2317"/><path class="cls-11" d="M400 299.86s-11.93 2.39-12.53 7c0 0 .34 3.84 2.13 3.5s2.3-3.92 4.14-4.35 6.26-1.36 6.26-1.36 4.43.93 6.26 1.36 2.35 4 4.14 4.35 2.13-3.5 2.13-3.5c-.6-4.61-12.53-7-12.53-7z"/></g></svg>