<svg id="player" xmlns="http://www.w3.org/2000/svg" viewBox="0 0 800 800"><defs><style>.cls-1{fill:#dda486}.cls-2{fill:#9b8075}.cls-3{fill:#fff}.cls-4{fill:#feee33}.cls-5{fill:#2e3247}.cls-6{fill:#e92736}.cls-7{fill:#1a4275}.cls-8{fill:#bf233d}.cls-9{fill:none}.cls-11{fill:#231f20}.cls-13{fill:#2d2317;opacity:.1}</style></defs><g id="skin"><path id="arm-left" class="cls-1" d="M306.43 383h36.78v72.38a18.39 18.39 0 01-18.39 18.39 18.39 18.39 0 01-18.39-18.39V383z"/><path id="arm-right" class="cls-1" d="M457.69 383h36.78v72.38a18.39 18.39 0 01-18.39 18.39 18.39 18.39 0 01-18.39-18.39V383z"/><path id="leg-left" class="cls-1" d="M350.38 492.97h45.67v45.67h-45.67z"/><path id="leg-right" class="cls-1" d="M405.28 492.97h45.67v45.67h-45.67z"/></g><g id="boots"><path class="cls-2" d="M487.12 382.77s1.22 24.59-4.9 25.38-19.61-17-8.82-26 13.72.62 13.72.62z"/><path class="cls-2" d="M465.06 395.28s8.83 9.51 6.87 16.37-14.52 3.11-13.27-3.47.03-11.62 6.4-12.9zm27.69 14.8L477.44 413a2.39 2.39 0 00-1.82 1.56 2.41 2.41 0 002.47 3.2l14.66-1.26zm-34.17 12.52s24.13-1.8 25 0-23.89 11.66-25 7.95a16.92 16.92 0 010-7.95zm30.01 5.4s4.41 13-1.37 15.94-18.62-6.65-11.14-14 12.51-1.94 12.51-1.94zm-28.92 9.61s10.81-.27 11.17 2.57-8.77 9.11-12.26 7.53 1.09-10.1 1.09-10.1z"/><path id="left" class="cls-3" d="M395.83 570.99H373l-22.83 1.98h-12.5l-7.5 2.52-5.25 8.5v9.83l1.91 4.17 3.84 4.06 6.33 1.94h58.83v-33z"/><path id="right" class="cls-3" d="M405.11 571.22h22.83l22.83 1.97h12.5l7.5 2.53 5.25 8.5v9.83l-1.91 4.17-3.84 4.05-6.33 1.95h-58.83v-33z"/><path class="cls-4" d="M466.88 574.58s-25.44 11.56-41.94 9.32-19.44-6.52-19.44-6.52l-.39-6.39s51.89-.43 61.77 3.59zm-132.82 0s25.44 11.56 41.94 9.32 19.43-6.52 19.43-6.52l.4-6.39s-51.89-.43-61.77 3.59z"/></g><g id="socks"><g id="socks-2" data-name="socks"><path id="left-2" data-name="left" class="cls-5" d="M350.38 522.95h45.67v48.04h-45.67z"/><path id="right-2" data-name="right" class="cls-5" d="M404.88 522.95h45.67v48.04h-45.67z"/></g><path class="cls-4" d="M351.83 527.3h44.74v1.75h-44.74z"/><path class="cls-6" d="M351.83 530.8h44.74v1.75h-44.74z"/><path class="cls-4" d="M404.88 527.3h44.74v1.75h-44.74z"/><path class="cls-6" d="M404.88 530.8h44.74v1.75h-44.74z"/></g><g id="shorts"><path id="shorts-2" data-name="shorts" class="cls-7" d="M342.17 443.49h116.49v47a9.95 9.95 0 01-9.95 9.95h-96.6a9.95 9.95 0 01-9.95-9.95v-47h.01z"/><path class="cls-4" d="M347.89 443.49h1.97v56.08h-1.97z"/><path class="cls-6" d="M351.83 443.49h1.97v56.08h-1.97zm95.34 0h1.97v56.08h-1.97z"/><path class="cls-4" d="M451.11 443.49h1.97v56.08h-1.97z"/></g><g id="shirt"><path id="shirt-2" data-name="shirt" class="cls-6" d="M370 315.75l-48.29 2.99-11.36 6.25-6.83 10.1-3.31 40.73 5.17 7.67 7.66 4.67h29.5l.17 54h114.83v-53.5l29.34-.17 7.01-4 6.99-10.5-3.4-37.33-6.83-11.84-9.77-6.08-49.84-2.99-1 21.24-6.5 6.5-11.16 3.48-11.88 2.02-15.46-3.17-11-5.66-3.66-3.84-.38-20.57z"/><g id="crest-spain"><path class="cls-4" d="M310 328.28l-1.16-1.63c4.68-3.34 52.32-5.36 57.74-5.58l.08 2c-21 .85-53.45 2.93-56.66 5.21zm-5.29 5.72l-1.16-1.63c4.68-3.33 57.1-5.35 63.06-5.57l.08 2c-23.17.82-58.8 2.91-61.98 5.2zm187-5.72l1.16-1.63c-4.68-3.34-52.32-5.36-57.74-5.58l-.08 2c21.03.85 53.48 2.93 56.66 5.21zM497 334l1.17-1.63c-4.68-3.33-57.1-5.35-63.07-5.57l-.07 2c23.19.82 58.82 2.91 61.97 5.2z"/><g id="brand-adidas"><g id="adidas"><rect id="bottom" class="cls-4" x="392.95" y="370.81" width="15.19" height="2.14" rx=".62" ry=".62"/><path class="cls-4" d="M400.61 362.11a1.34 1.34 0 00-.48 1.82l3.11 5.41a1.33 1.33 0 001.16.67h2.33l-4.29-7.42a1.34 1.34 0 00-1.83-.48zM398 364.8a1.33 1.33 0 00-.49 1.81l1.53 2.72a1.32 1.32 0 001.16.68h2.32l-2.69-4.72a1.34 1.34 0 00-1.83-.49zm-3 2.35a1.34 1.34 0 00-.5 1.8l.21.37a1.32 1.32 0 001.17.69h2.31l-1.36-2.37a1.32 1.32 0 00-1.83-.49z"/></g></g><path class="cls-8" d="M431 315.75l-.39 21.25-3.76 3.95-5.38 2.73-5.9 3.12-5.75 1.2-9.57 2.78-9.57-2.78-5.75-1.19-5.9-3.12-5.38-2.73-3.76-3.96-.39-21.23-4.75.87v18.05a12.88 12.88 0 004 9.37c5.08 4.8 15.18 11.58 31.48 11.27 16.3.31 26.39-6.47 31.47-11.27a12.88 12.88 0 004-9.37v-18.07z"/><path class="cls-9" d="M355.51 359.78a1.59 1.59 0 01-.38.06 2.32 2.32 0 01.38.05zm12.77.22h.08a1.54 1.54 0 01-.43-.06.22.22 0 000 .08zm-6.12 4.22a.31.31 0 010-.1h-.46a2.22 2.22 0 01.46.1zm5.75 56.34a2.32 2.32 0 01.45-.06 2 2 0 01-.43-.06s-.01.08-.02.12zm-12.4-.28a2.32 2.32 0 01-.38.05 2.32 2.32 0 01.38.05zm0-69.14a.19.19 0 100 .11zm5.83 4.32v.11a2.47 2.47 0 01.38-.05 1.67 1.67 0 01-.38-.06z"/><path class="cls-9" d="M362.16 355.58a.62.62 0 010-.13 1.76 1.76 0 01-.45.07 2.22 2.22 0 01.45.06zm-.82 8.63a2.47 2.47 0 01.38 0h-.38zm6.57 64.99a2.32 2.32 0 01.45-.06 2 2 0 01-.43-.06s-.01.08-.02.12zm-6.57-56.35a2.47 2.47 0 01.38-.05h-.38zm.82.01v-.08h-.44a2.22 2.22 0 01.44.08zm-6.65 38.77a1.59 1.59 0 01-.38.06 2.32 2.32 0 01.38.05zm0-8.63a.19.19 0 100 .11zm12.42-68.98zm.18 34.66h.25a2 2 0 01-.43-.06.28.28 0 000 .09zm-5.95 21.43h-.23.23zm-6.65-21.68a2.32 2.32 0 01-.38.05 2.32 2.32 0 01.38 0zm0-34.57a2.32 2.32 0 01-.38.05 2.32 2.32 0 01.38 0zm8.39-13.32l1.53-.71h-.11l-1.45.71h.03zm4.2 22.15h-.17zm-5.94-4.4a.49.49 0 010-.12 2.32 2.32 0 01-.45.06 2.22 2.22 0 01.45.06zm1.2-17.5l-.06.03.06-.03zm4.91 30.56a1.33 1.33 0 01-.34-.05v.05zm-12.76 86.21a2.32 2.32 0 01-.38.05 2.47 2.47 0 01.38.05zm0-112.34a2.32 2.32 0 01-.38 0 2.32 2.32 0 01.38.05zm10.33-5.64h.16l1.28-.6a2 2 0 01.35-.11h-.4zm2.07 83.69a2.32 2.32 0 01.45-.06 2 2 0 01-.43-.06s-.01.08-.02.12zm-5.28-82.1l.19-.12a2 2 0 01-.26.09zm-1.29 25.65v.11a1.67 1.67 0 01.38-.06 1.65 1.65 0 01-.38-.05zm.82-17.17a.49.49 0 010-.12 2.32 2.32 0 01-.45.06 2.22 2.22 0 01.45.06zm-6.65 99.27a2.32 2.32 0 01-.38.05 2.32 2.32 0 01.38 0z"/><path class="cls-9" d="M362.16 346.93a.49.49 0 010-.12 1.74 1.74 0 01-.45.06 2.22 2.22 0 01.45.06zm5.75 64.99a1.76 1.76 0 01.45-.07 1.54 1.54 0 01-.43-.06s-.01.09-.02.13zm-6.57-82.38v.1a2.47 2.47 0 01.38-.05 2.47 2.47 0 01-.38-.05zm-.73 113.07l-.38.2h3.43l-.78-.38a1.26 1.26 0 01-.42-.33h-1.31a1.27 1.27 0 01-.54.51zm-5.1-100.11a2.32 2.32 0 01-.38.05 1.59 1.59 0 01.38.06zm12.85 43.43a2 2 0 01-.43-.06v.12a2.32 2.32 0 01.43-.06zm-.42-8.58a2 2 0 01.42-.06 2 2 0 01-.43-.06v.12zm.42 17.22a2 2 0 01-.43-.06v.12a2.32 2.32 0 01.43-.06zm-12.85-.22a.19.19 0 100 .11zm5.84 4.43h-.01.01zm.81-17.33h-.4a1.83 1.83 0 01.4.05zm-6.65 4.26a2.32 2.32 0 01-.38.05 2.32 2.32 0 01.38.05zm5.83-47.53v.11a1.67 1.67 0 01.38-.06 2.47 2.47 0 01-.38-.05zm.82 60.6zm-.48-17.33h-.33a2 2 0 01.33 0zm-6.17-4.38a2.32 2.32 0 01-.38.05 2.32 2.32 0 01.38.05zm12.4 60.76a2.3 2.3 0 01.45-.05 2 2 0 01-.43-.06s-.01.07-.02.11zm-6.4-47.72h-.17z"/><path class="cls-8" d="M362.88 442.43l.78.38h9.4l.78-.38a1.26 1.26 0 00.42-.33h-11.8a1.26 1.26 0 00.42.33zm-.05-.81a2.24 2.24 0 01-.53.23h12.13a1.1 1.1 0 00.12-.71h-10.92zm1.22-.73h10.44a1.23 1.23 0 00-.64-.71h-8.61zm3.2 3.68a2.54 2.54 0 002.22 0l3.07-1.51h-8.36zm.64-6.57h1.48a2.51 2.51 0 00-1-.22 2.3 2.3 0 00-.45.05.5.5 0 01-.03.17zm-2.23 1.93h7.68l-1.46-.72h-5.03l-1.19.72zm1.59-.93h4.12l-1.46-.71h-2.1a1.45 1.45 0 01-.56.71zm-3.16-6.78H374a1.39 1.39 0 00-.19-.15l-.93-.56h-7.63zm3.74 4.78h2.35l1.19-.71h-4.05a1.39 1.39 0 01.51.71zm-2.48-1.89h8l.44-.26a1.61 1.61 0 00.45-.45h-10.08zm-2.52-1.51l.91.55h10.69a1.73 1.73 0 00.14-.71h-12.13a1.88 1.88 0 01.39.16zm4.12 2.47h4.84l1.19-.71h-7.22l1.19.71zm-4.12-3.07a2.26 2.26 0 01-.48.21h12.2a1.74 1.74 0 00-.29-.72h-10.59zm5.07-3.66h1.3a2.07 2.07 0 00-.84-.2 2.32 2.32 0 00-.45.06.71.71 0 01-.01.14z"/><path class="cls-8" d="M367.93 437.72a2 2 0 00.43.06 2.14 2.14 0 001.11-.31l.3-.18h-1.87a2 2 0 01.03.43zm-2.23-6.46h6.79l-1.19-.71h-4.41l-1.19.71zm1.58-.96h3.6l-1.19-.71h-1.87a1.57 1.57 0 01-.54.71zm.65-1.22a2 2 0 00.43.06 2.24 2.24 0 001.11-.31l.34-.21h-1.91a1.78 1.78 0 01.03.46zm-5.1-4.08l.87.52h10.74a1.69 1.69 0 00.13-.71h-12.18a2.44 2.44 0 01.44.19zm0-.66a2.3 2.3 0 01-.43.18h12.14a1.55 1.55 0 00-.3-.71h-10.53zm5.07-3.67h1.25a2.2 2.2 0 00-.79-.17 2.32 2.32 0 00-.45.06.41.41 0 01-.01.11zm-.6.96h3.54l-1.19-.71h-1.82a1.49 1.49 0 01-.53.71zm-3.17 1.93H374l-.16-.13-1-.58h-7.55zm3.69 4.81h2.4l1.19-.71h-4.11a1.47 1.47 0 01.52.71zm-.91-.96h4.92l1.19-.71h-7.29l1.18.71zm-1.6-.96h8.13l.4-.24a1.32 1.32 0 00.46-.48h-10.18zm.43-3.85h6.71l-1.19-.72h-4.33l-1.19.72zm2.07-2.89h2.45l1.19-.71h-4.18a1.36 1.36 0 01.54.71zm-2.04-5.78h6.64l-1.19-.71h-4.26l-1.19.71zm-2.94 2.39l.83.5h10.78a1.75 1.75 0 00.13-.71h-12.23a2.58 2.58 0 01.49.21zm2.44 1.46h8.2l.37-.22a1.41 1.41 0 00.48-.49h-10.24zm-2.44-2.08a3 3 0 01-.37.16h12.08a1.72 1.72 0 00-.31-.72h-10.48zm1.34-.81H374l-.13-.1-1-.61h-7.47zm3.16-1.89h3.48l-1.19-.71h-1.79a1.47 1.47 0 01-.5.71zm-.45 5.75h4.99l1.19-.72h-7.37l1.19.72zm1.02-6.75h1.2a2.14 2.14 0 00-.74-.16 1.76 1.76 0 00-.45.07.28.28 0 01-.01.09zm.03 8.44a2 2 0 00.43.06 2.16 2.16 0 001.11-.32l.38-.22h-2a1.94 1.94 0 01.08.48z"/><path class="cls-8" d="M367.93 411.79a1.54 1.54 0 00.43.06 2.14 2.14 0 001.11-.31l.41-.25h-2a1.72 1.72 0 01.05.5zm-1.09-1.71h5.07l1.19-.71h-7.45l1.19.71zm1.07-6.74H369a2 2 0 00-.68-.13 2.32 2.32 0 00-.45.06zm-.1 7.66h2.49l1.19-.71h-4.25a1.52 1.52 0 01.57.71zm-2-5.73h6.56l-1.19-.72H367l-1.19.72zm-2.98 2.41l.79.47h10.83a1.69 1.69 0 00.12-.71h-12.3a2.1 2.1 0 01.56.24zm2.4 1.44h8.28l.33-.2a1.55 1.55 0 00.5-.52H364zm-2.4-2.06a1.79 1.79 0 01-.32.13h12a1.6 1.6 0 00-.33-.71h-10.39zm1.38-.83h9.73a.39.39 0 00-.1-.08l-1-.63h-7.44zm3.15-1.93h3.41l-1.19-.71h-1.74a1.5 1.5 0 01-.48.71zm-5.2-5.52a2.12 2.12 0 01.67.26l.76.45h10.87a1.73 1.73 0 00.1-.71zm5.64 3.6h2.54l1.19-.71h-4.32a1.46 1.46 0 01.59.71zm.13.77a2 2 0 00.43.06 2.14 2.14 0 001.11-.31l.45-.27h-2a1.83 1.83 0 01.01.52zm-1.13-1.73h5.15l1.18-.72h-7.52l1.19.72zm-1.61-.97h8.36l.29-.17a1.46 1.46 0 00.51-.54H364zm2.2-4.81h3.34l-1.19-.71h-1.69a1.51 1.51 0 01-.46.71zm-4.56 2.77l-.26.12h12a1.5 1.5 0 00-.34-.72h-10.4zm5.53-3.84a2.32 2.32 0 00-.45.06v.05H369a2 2 0 00-.63-.11zm-4.11 2.99h9.66l-.07-.06-1.09-.65h-7.31zm1.6-.96h6.48l-1.19-.71h-4.1l-1.19.71zm-1.57-7.7h9.6l-1.13-.67h-7.24zm1.61-.96h6.41l-1.19-.72h-4.03l-1.19.72zm-3.73 2.2a2.36 2.36 0 01.67.25l.72.43h10.92a1.7 1.7 0 00.09-.71h-12.4zm5.26-3.14h3.27l-1.19-.71h-1.64a1.55 1.55 0 01-.44.71zm-2.27 4.79h8.44l.25-.15a1.53 1.53 0 00.53-.57H364z"/><path class="cls-8" d="M367.93 394.51a2 2 0 00.43.06 2.14 2.14 0 001.11-.31l.49-.3h-2.08a1.71 1.71 0 01.05.55zm-.73-1.51a1.41 1.41 0 01.59.69h2.59l1.19-.71h-4.39zm-.44-.25h5.23l1.18-.71h-7.6l1.19.71zm-3.93-2.98l-.21.09h11.91a1.58 1.58 0 00-.35-.71h-10.31zm5.53-3.84a2.32 2.32 0 00-.45.06h1a2.18 2.18 0 00-.57-.08zm-1.16-1.56a1.52 1.52 0 01.58.68h2.64l1.19-.71h-4.47zm1.16-7.08a2 2 0 00-.42.06h.84a2 2 0 00-.42-.06zm-5.53 3.84l-.16.07h11.86a1.6 1.6 0 00-.37-.72h-10.25zm-.67.37a2.1 2.1 0 01.67.25l.68.41h11a1.9 1.9 0 00.08-.71h-12.4zm2.95 1.62h8.52l.21-.12a1.46 1.46 0 00.54-.59h-10.46zm1.61.96h5.3l1.19-.71h-7.68l1.19.71zm-.79-4.81h6.33l-1.19-.71h-3.95l-1.19.71zm-1.61.96h9.52l-1.17-.7h-7.16z"/><path class="cls-8" d="M367.93 385.87a2 2 0 00.43.06 2.14 2.14 0 001.11-.31l.53-.32h-2.13a1.81 1.81 0 01.06.57zm-.48-7.56h3.2l-1.18-.71h-1.6a1.66 1.66 0 01-.42.71zm-.77-2.89h5.38l1.19-.71h-7.76l1.19.71zm-3.85-2.93h-.1 11.79a1.66 1.66 0 00-.39-.71H364zm1.53-.92h9.46l-1.19-.71h-7.08l-1.19.71zm4-2.92h-.25.5-.25zm-6.2 4.21a2.1 2.1 0 01.67.25l.64.38h11a1.7 1.7 0 00.06-.71h-12.37zm3.81-2.25h6.25l-1.19-.72h-3.87l-1.19.72zm1.5-.97h3.14l-1.14-.68h-1.59a1.5 1.5 0 01-.41.68zm-2.4 4.82h8.6l.17-.11a1.43 1.43 0 00.56-.61h-10.51zm2.13 1.27a1.49 1.49 0 01.57.65h2.69l1.19-.71h-4.55zm.73 1.5a2 2 0 00.43.06 2.24 2.24 0 001.11-.31l.57-.35h-2.18a1.76 1.76 0 01.07.6zM365 365.79h8.67l.13-.08a1.37 1.37 0 00.56-.63h-10.51zm2.93 2.8a2 2 0 00.43.06 2.16 2.16 0 001.11-.32l.61-.36h-2.23a1.86 1.86 0 01.08.62zm-.73-1.5a1.37 1.37 0 01.56.63h2.74l1.18-.71h-4.62zm-.56-.34h5.46l1.19-.71h-7.84l1.19.71zm1.72-6.75h-.08.16-.08zm-2.35 1.94h6.17l-1.19-.71h-3.79l-1.19.71zm-1.61.96h9.38l-1.18-.71h-7.01l-1.19.71zm-1.57.95h-.05 11.73a1.58 1.58 0 00-.41-.72H364zm-.67.37a2.1 2.1 0 01.67.25l.6.36h11.06a1.7 1.7 0 00.06-.71h-12.38a.31.31 0 00-.01.1zm5.34-3.22h3.07l-1.1-.66a.61.61 0 00-.12-.05h-1.47a1.54 1.54 0 01-.38.71zm-3.06-6.76h9.31l-1.19-.71h-6.93l-1.19.71zm2.76-1.66l-1.15.7h6.09l-1.19-.72h-3.72zm.33-.27h3l-1.06-.64-.17-.07h-1.41a1.6 1.6 0 01-.36.71zm-.33 6.14a1.53 1.53 0 01.56.6h2.77l1.19-.71H367zm-.6-.36h5.54l1.19-.71h-7.92l1.19.71zm1.33 1.85a1.54 1.54 0 00.43.06 2.14 2.14 0 001.11-.31l.65-.39h-2.27a2 2 0 01.08.64zm-2.93-2.81h8.75l.09-.06a1.46 1.46 0 00.57-.66h-10.6zm-2.83-1.68a.62.62 0 000 .13 1.88 1.88 0 01.67.25l.56.33h11.1a1.7 1.7 0 00.05-.71h-12.38zm.66-.25h11.67a1.51 1.51 0 00-.42-.71H364zm5.1-3.9a1.33 1.33 0 00.34.05h.18a2.11 2.11 0 001-.3l.69-.41h-2.32a1.85 1.85 0 01.11.66zm-3.45-5.73h9.23l-1.19-.71h-6.85l-1.19.71zm2.72 4.24a1.37 1.37 0 01.54.58h2.83l1.19-.72H367zm-5.03-3a.49.49 0 000 .12 2.12 2.12 0 01.67.26l.52.31h11.16a1.89 1.89 0 000-.71h-12.21zm.7-.27h11.62a1.58 1.58 0 00-.44-.72h-10zm2.13 1.92h8.83a1.47 1.47 0 00.58-.68h-10.64zm2.2-4.52l-1.11.67h6l-1.19-.71h-3.66zm.34-.29h2.95l-1-.62-.23-.09h-1.36a1.65 1.65 0 01-.36.71zm-.98 5.78h5.62l1.19-.72h-7.99l1.18.72zm.64-14.13l-1.08.65h5.94l-1.19-.72h-3.59zm-4.29 2.57h11.58a1.61 1.61 0 00-.47-.71h-9.92zm4.29 3.3a1.47 1.47 0 01.53.55h2.88l1.19-.71h-4.86zm.73 1.49h.69a2.24 2.24 0 00.85-.28l.72-.44h-2.36a1.81 1.81 0 01.1.72zm-3.41-5.75h9.15l-1.19-.71h-6.77l-1.19.71zm2 3.85h5.7l1.19-.71h-8.07l1.18.71zm-4.35-2.59a.49.49 0 000 .12 2.36 2.36 0 01.67.25l.48.29h11.21a1.7 1.7 0 000-.71h-12.16zm2.75 1.63h8.92a1.46 1.46 0 00.59-.71h-10.7zm2.64-4.8h2.9l-1-.59c-.09-.05-.19-.08-.28-.12h-1.28a1.67 1.67 0 01-.34.71zm-5.39-5.47a.49.49 0 000 .12 2.1 2.1 0 01.67.25l.44.27h11.26a1.88 1.88 0 000-.71h-12.12zm2.71 1.6h9a1.49 1.49 0 00.58-.71h-10.77zm2.7-4.81h2.84l-.95-.57a2.33 2.33 0 00-.33-.14h-1.24a1.7 1.7 0 01-.32.71zm-4.58 2.89h11.53a1.55 1.55 0 00-.49-.72h-9.85zm3.49 2.89h5.77l1.19-.72h-8.15l1.19.72zm-1.93-3.86h9.07l-1.19-.71h-6.69l-1.19.71zm2.64 4.28a1.54 1.54 0 01.51.54h2.94l1.19-.72h-4.94zm.73 1.48h.86a2.24 2.24 0 00.68-.25l.76-.46h-2.41a1.92 1.92 0 01.11.71zm-.73-7.34l-1 .62h5.8l-1.19-.71h-3.52zm-.75-3.23h6.82l.57-.27a1.33 1.33 0 00.54-.44h-9.12zm.75.45a1.49 1.49 0 01.49.51h3.51l1.53-.71h-5.87zm-3.9-3.06l-.47.23-.19.12c.06 0 .13.05.2.09l.41.24h11.15a1.3 1.3 0 00-.56-.49l-.48-.22h-10zm4.63 4.54H369a3 3 0 00.48-.16l1.19-.56h-2.85a1.76 1.76 0 01.11.72zm-3.09-2.89h9.66a1 1 0 000-.72h-10.85zm2.41-3.47l-1.28.6h4.78l-1.28-.6a2 2 0 00-.35-.11h-1.52a2 2 0 00-.35.11zm-3.35 1.54h8.92l-1.53-.71h-5.86l-1.53.71z"/><path class="cls-7" d="M363.74 434.15l-.91-.55a1.88 1.88 0 00-.39-.16h-1.11a1.64 1.64 0 01-.22.71zm3.21 1.92l-1.19-.71h-6.29l-1.19.71h8.67zm-6.34-1.39l-.72.43h5.46l-1.19-.71h-3.22a1.29 1.29 0 01-.33.28zm.65 7.17h1a2.24 2.24 0 00.53-.23l.8-.48h-2.32a1.32 1.32 0 01-.01.71zm5.99-2.85a1.45 1.45 0 00.56-.71h-10.88l1.36.71zm.58-2a1.39 1.39 0 00-.51-.71h-9.46l-1.18.71zm-2.17 2.93l1.19-.72h-8.08l1.35.72h5.54zm-10.15-2.37v.1a2.14 2.14 0 01.73.23l.22.11h11.43a.5.5 0 000-.17v-.11a2 2 0 000-.43h-11.65a2.2 2.2 0 01-.73.27zm5.73 3.33h2.81l1.19-.71h-4.63a1.39 1.39 0 01.63.71zm1.11-7.7a2.26 2.26 0 00.48-.21l.84-.51h-2.53a1.64 1.64 0 01.19.72zm4.93-2.89a1.57 1.57 0 00.54-.71h-11.08l1.19.71zm-11.77-1.38v.1a2.2 2.2 0 01.73.26l.09.06h11.57a.71.71 0 000-.14v-.12a1.78 1.78 0 000-.46h-11.66a2.2 2.2 0 01-.73.3zm5.1-2.92l-.68.41h5.38l-1.19-.72H361a1.3 1.3 0 01-.39.31zm6.3 1.41l-1.18-.71h-6.22l-1.19.71h8.59zm.91.96a1.47 1.47 0 00-.52-.71h-9.4l-1.19.71zm-4.12-2.89l-.87-.52a2.44 2.44 0 00-.44-.19h-1.06a1.58 1.58 0 01-.2.71zm2 5.78l1.19-.71h-8.54l1.19.71h6.16zm-4.7.96h3.12l1.19-.71H360l.65.39a1.59 1.59 0 01.35.32zm2.66-15.4l-.83-.5a2.58 2.58 0 00-.49-.21h-1a1.92 1.92 0 01-.19.71zm-3.05.58l-.64.38h5.3l-1.19-.71H361a1.43 1.43 0 01-.39.33zm5.13 5.2l1.19-.72h-8.62l1.19.72h6.24zm-10.23-2.32v.1a2.2 2.2 0 01.73.26h11.66a.41.41 0 000-.11v-.12a1.94 1.94 0 000-.48h-11.56l-.1.06a2.2 2.2 0 01-.73.29zm5.49 3.28h3.18l1.19-.71h-5.4l.69.41a1.41 1.41 0 01.34.3zm6.3-1.93a1.49 1.49 0 00.53-.71H356.7l1.19.71zm-4.9 2.89a2.3 2.3 0 00.43-.18l.88-.53h-2.58a1.76 1.76 0 01.2.71zm5.41-4.81a1.36 1.36 0 00-.54-.71h-9.33l-1.19.71zm-.93-.96l-1.19-.72h-6.14l-1.19.72h8.52zm-.04-8.67l-1.19-.71h-6.06l-1.19.71h8.44zm.97.92a1.52 1.52 0 00-.57-.71H358l-1.19.71zm-7.2-2.25l-.61.37h5.23l-1.23-.72h-3a1.27 1.27 0 01-.39.35zm.33 6.14h3.23l1.19-.71h-5.48l.73.44a1.76 1.76 0 01.33.27zm2.68-6.74l-.79-.47a2.1 2.1 0 00-.56-.24h-.93a1.69 1.69 0 01-.18.71zm2.15 5.78l1.19-.71h-8.69l1.19.71h6.31zm-3.31 1.93a3 3 0 00.37-.16l.92-.56h-2.64a1.64 1.64 0 01.22.72zm-6.95-4.23v.11a2.2 2.2 0 01.73.26h11.66a.28.28 0 000-.09v-.13a1.72 1.72 0 000-.5h-11.52l-.14.09a2.18 2.18 0 01-.73.26zm11.82 1.37a1.47 1.47 0 00.5-.71h-11.16l1.18.71zm.47-10.62a1.46 1.46 0 00-.59-.71H358l-1.19.71zm-1.99 2.89l1.19-.72h-8.77l1.19.72h6.39zm1.55-.97a1.5 1.5 0 00.48-.71h-11.21l1.19.71zm-4.85 2.89a1.79 1.79 0 00.32-.13l1-.58h-2.7a1.67 1.67 0 01.24.71zm-1.59-.96h3.29l1.19-.71h-5.56l.77.46a1.26 1.26 0 01.31.25zm.25-6.74h2.42l-.76-.45a2.12 2.12 0 00-.67-.26h-.82a1.76 1.76 0 01-.17.71zm5.63 1.93l-1.19-.72h-5.98l-1.19.72h8.36zm-6.19-1.31l-.57.34h5.15l-1.19-.71h-3a1.41 1.41 0 01-.39.37zm-5.1 2.89v.11a2 2 0 01.69.24h11.71v-.19a1.83 1.83 0 000-.52h-11.5l-.17.1a2 2 0 01-.73.26zm5.67-12.18h2.37l-.72-.43a2.36 2.36 0 00-.67-.25h-.82a1.78 1.78 0 01-.16.68zm-.57.65l-.53.32h5.07l-1.19-.72H361a1.3 1.3 0 01-.39.4zm6.78 4.17a1.51 1.51 0 00.46-.71h-11.26l1.19.71zm-1.54.96l1.19-.71h-8.85l1.19.71h6.47zm1.94-2.89a1.41 1.41 0 00-.59-.69h-9.12l-1.19.71zm-5.22 4.82l.26-.12 1-.6h-2.75a1.66 1.66 0 01.24.72zm4.19-5.78l-1.19-.71h-5.9l-1.19.71h8.28zm-5.87 4.81h3.36l1.19-.71h-5.64l.81.49a1.51 1.51 0 01.28.22zm-5.38-3.21v.11a2.06 2.06 0 01.63.22h11.77v-.17a1.71 1.71 0 00-.05-.55h-11.41l-.21.13a2.2 2.2 0 01-.73.26zm11.21-10.27l-1.19-.71h-5.83l-1.19.71h8.21zm-5.86 4.82h3.42l1.19-.71h-5.71l.85.51a1.57 1.57 0 01.25.2zm6.92-3.85a1.52 1.52 0 00-.58-.68h-9.06l-1.19.71zm-7.17-2.22l-.49.29h5l-1.19-.71H361a1.56 1.56 0 01-.39.42zm2.01 7.03l.21-.09 1-.62h-2.81a1.65 1.65 0 01.26.71zm-1.43-7.7h2.32l-.68-.41a2.1 2.1 0 00-.67-.25 1.83 1.83 0 00-.4-.05h-.08a2 2 0 00-.34 0 1.92 1.92 0 01-.15.71zm6.23 4.84a1.55 1.55 0 00.44-.71h-11.31l1.19.71zm-1.53.94l1.19-.72h-8.93l1.19.72h6.55zm-10.38-2.23v.1a2.49 2.49 0 01.58.2h11.82v-.12a1.81 1.81 0 00-.06-.57h-11.36l-.25.15a2.2 2.2 0 01-.73.24zm5.83-12.86a2 2 0 01-.14.64h2.27l-.64-.38a2.1 2.1 0 00-.67-.25 2.22 2.22 0 00-.44-.06 2.47 2.47 0 00-.38.05zm1.33 8.35l.16-.07 1.08-.65h-2.86a1.85 1.85 0 01.27.72zm-2.06-7.01l-.45.27h4.91l-1.18-.72h-2.84a1.35 1.35 0 01-.44.45zm6.07 1.23l-1.19-.71h-5.75l-1.19.71h8.13zm1.09.96a1.49 1.49 0 00-.57-.65l-.1-.06h-9l-1.19.71zm-.32 1.93a1.66 1.66 0 00.42-.71h-11.36l1.19.71zm-11.94-1.24v.1a2.07 2.07 0 01.53.18h11.87v-.12a1.76 1.76 0 00-.07-.6h-11.31l-.29.18a2.2 2.2 0 01-.73.26zm5.32 3.16h3.49l1.19-.71h-5.79l.89.53a1.92 1.92 0 01.22.18zm5.1-.96l1.19-.71h-9l1.19.71h6.62zm-4.08-6.49h-.26.13zm-1.05-1.21h3.56l1.19-.71h-5.87l.93.55zm-.19-6.02l-.41.24h4.8l-1.19-.71h-2.78a1.47 1.47 0 01-.42.47zm2.12 6.98h.1l1.12-.67H361a1.65 1.65 0 01.29.71zm5.03-4.81a1.37 1.37 0 00-.56-.63l-.14-.08h-8.88l-1.19.71zm-1.79 2.89l1.19-.72h-9.08l1.19.72h6.7zm-10.46-2.18v.1a2 2 0 01.47.15h11.94a.28.28 0 010-.09 1.86 1.86 0 00-.08-.62h-11.27l-.33.2a2.45 2.45 0 01-.73.26zm11.96 1.21a1.5 1.5 0 00.41-.71h-11.41l1.19.71zm-.83-2.89l-1.19-.71h-5.67l-1.19.71h8.05zm-5.3-2.54a1.69 1.69 0 01-.14.62h2.23l-.6-.36a2.1 2.1 0 00-.67-.25 2.22 2.22 0 00-.44-.06 2.47 2.47 0 00-.38.05zm1.44-.34h.05l1.15-.7h-3a1.58 1.58 0 01.3.72zm-2.01-.97h3.63l1.19-.71h-5.95l1 .58zm5.83-4.81l-1.19-.71h-5.59l-1.19.71h7.97zm-5.26-2.52a1.74 1.74 0 01-.13.59h2.18l-.56-.33a1.88 1.88 0 00-.67-.25 2.22 2.22 0 00-.44-.06 2.47 2.47 0 00-.38.05zm.66 8.55h-.6.3c.1 0 .22.01.3 0zm-1.39-7.22l-.37.23H365l-1.19-.72h-2.72a1.33 1.33 0 01-.48.49zm7.15 2.15a1.53 1.53 0 00-.56-.6l-.18-.11h-8.81l-1.18.71zm-.26 1.95a1.54 1.54 0 00.38-.71h-11.45l1.19.71zm-1.49.94l1.19-.71h-9.16l1.19.71h6.78zm-10.5-2.16v.11a2.25 2.25 0 01.42.13h12a.22.22 0 010-.08 2 2 0 00-.08-.64h-11.24l-.37.23a2.18 2.18 0 01-.73.25zm5.23-5.54h3.7l1.19-.71h-6l1 .6a.69.69 0 01.11.11zm.98 1.28a1.76 1.76 0 00.45-.07h-.83a1.67 1.67 0 00.38.07zm1.11-.32l1.19-.71h-3a1.68 1.68 0 01.31.71zm3.22-1.92l1.15-.7H358l1.19.72zm-5.44-5.02l-.33.2H365l-1.19-.71h-2.71a1.49 1.49 0 01-.49.51zm5.95 1.17l-1.18-.72h-5.52l-1.19.72h7.89zm-5.22-2.5a1.87 1.87 0 01-.12.57h2.13l-.52-.31a2.12 2.12 0 00-.67-.26 2.22 2.22 0 00-.44-.06 1.67 1.67 0 00-.38.06zm6.19 5.38a1.6 1.6 0 00.36-.71h-11.5l1.19.71zm-12.02-1.17v.11a2.24 2.24 0 01.37.1h12v-.05a1.85 1.85 0 00-.09-.66h-11.14l-.41.24a2 2 0 01-.73.26zm12.23-.75a1.37 1.37 0 00-.54-.58l-.22-.14h-8.73l-1.19.72zm-6.02-3.52a1.74 1.74 0 00.45-.06h.14-1a1.65 1.65 0 00.41.06zm4.8-6.11l-1.18-.71h-5.44l-1.19.71h7.81zm-11.01 1.74v.11a1.57 1.57 0 01.31.08h12.1a1.81 1.81 0 00-.1-.69h-11.13l-.45.27a2.2 2.2 0 01-.73.23zm12.22-.78a1.47 1.47 0 00-.53-.55l-.26-.16h-8.65l-1.19.71zm-7.12-2.1l-.29.18h4.6l-1.19-.72h-2.61a1.39 1.39 0 01-.51.54zm.73-1.33a2 2 0 01-.11.54h2.08l-.48-.29a2.36 2.36 0 00-.67-.25 2.22 2.22 0 00-.44-.06 1.67 1.67 0 00-.38.06zm1.53 8.25l1.19-.72H361a1.63 1.63 0 01.33.72zm4.67-2.89a1.65 1.65 0 00.36-.71h-11.55l1.19.71zm-6.82 1.92h3.76l1.19-.71h-6.1l1 .63zm5.37-.96l1.11-.67h.05H358l1.19.71zm.4-12.51l-1.19-.72h-5.36l-1.19.72h7.74zm-3.58 5.77l1.19-.71H361a1.67 1.67 0 01.34.71zm-1.19.36a2.32 2.32 0 00.45-.06l.2-.05h-1v.06a2.47 2.47 0 00.35.05zm-6.21-4.37v.1l.26.06h12.16a1.92 1.92 0 00-.11-.71h-11.09l-.49.29a2.2 2.2 0 01-.73.26zm5.18 3.05h3.83l1.19-.71h-6.18l1.08.64zm7.02-3.85a1.54 1.54 0 00-.51-.54l-.3-.18h-8.57l-1.19.72zm-.15 1.94a1.67 1.67 0 00.34-.71h-11.58l1.18.71zm-6.95-4l-.26.15h4.53l-1.19-.71h-2.56a1.47 1.47 0 01-.52.56zm.73-1.36a1.91 1.91 0 01-.1.53h2l-.44-.27a2.1 2.1 0 00-.67-.25 2.22 2.22 0 00-.44-.06 2.47 2.47 0 00-.35.05zm4.78 6.36l1.08-.65.08-.07h-9.36l1.19.72zm1.57-11.61a1.49 1.49 0 00-.49-.51l-.34-.2h-8.49l-1.19.71zm-5.97 5.2a2.32 2.32 0 00.45-.06l.25-.07h-1.09v.08a2.47 2.47 0 00.39.05zm-6.21-4.37v.1h12.42a1.76 1.76 0 00-.12-.72h-11.05l-.52.32a2.2 2.2 0 01-.73.3zm7.49 3.99l1.19-.72H361a1.52 1.52 0 01.35.72zm-1.69-7.95a2.1 2.1 0 01-.06.24h2l-.41-.24c-.07 0-.14-.05-.2-.09h-.07a2.42 2.42 0 01-1.26.09zm-.7 1.08l-.22.13h4.45l-1.19-.72h-2.5a1.46 1.46 0 01-.54.59zm5.84 1.09l-1.19-.71h-5.28l-1.19.71h7.66zm-5.79 4.81h3.9l1.19-.71h-6.26l1.12.67zm6.92-1.92a1.7 1.7 0 00.32-.71h-11.62l1.19.71zm-1.42.96l1-.62.11-.09h-9.43l1.19.71zm-8.73-9.63h10.49a1.22 1.22 0 00-.72-1l-4.37-2.14a2.52 2.52 0 00-2.21 0l-4.38 2.14a1.27 1.27 0 00-.27.18 1.53 1.53 0 01.27.11zm3.2 1.93h5.21l1.36-.67h.07-7.82l1.16.69zm-2.79-1.68l1.19.72h8.56a1.29 1.29 0 00.33-.72z"/><path class="cls-7" d="M361.31 321.26a2.42 2.42 0 001.25-.12 2 2 0 00.26-.09l.47-.23h.06-2a1.85 1.85 0 01-.04.44zm2.56-.72l1.45-.71h-4.39a1.52 1.52 0 01.37.71z"/><path class="cls-4" d="M359.89 435.11l.72-.43a1.29 1.29 0 00.33-.28h-11.62a1.29 1.29 0 00.33.28l.72.43zm1.22-.96a1.64 1.64 0 00.22-.71h-12.4a1.64 1.64 0 00.22.71zm-4.87 3.15H354a2.14 2.14 0 001.11.31 2.32 2.32 0 00.38-.05 2.2 2.2 0 00.75-.26zm2.04-1.23l1.19-.71h-8.68l1.19.71h6.3zm-1.6.97l1.19-.72h-5.48l1.19.72h3.1zm1.25-6.74l-1.19-.71h-3.22l-1.19.71h5.6zm1.61.96l-1.19-.71h-6.44l-1.19.71h8.82zm1.79 1.93a1.64 1.64 0 00-.19-.72h-12a1.64 1.64 0 00-.19.72zm-5-3.85l-.09-.06a2.2 2.2 0 00-.73-.26 2.32 2.32 0 00-.38 0 2.14 2.14 0 00-1.11.31l-.09.06zm4.67 2.88a1.59 1.59 0 00-.36-.32l-.65-.39h-9.65l-.66.39a1.59 1.59 0 00-.36.32zm-.39 10.39a1.27 1.27 0 00.54-.51h-12a1.27 1.27 0 00.54.51l.38.2h10.2zm-6.61 2.3a2.42 2.42 0 002.22 0l3.51-1.85h-9.24zm7.26-3.06a1.32 1.32 0 00.05-.71H349a1.32 1.32 0 00.05.71zm-2.97-2.89l-1.36-.71h-3.6l-1.36.71h6.32zm1.83.97l-1.35-.72h-7.27l-1.36.72h9.98z"/><path class="cls-4" d="M356.46 438l-.22-.11a2.14 2.14 0 00-.73-.23 2.47 2.47 0 00-.38-.05 2.32 2.32 0 00-1.11.28l-.22.11zm4.78 2.89a1.39 1.39 0 00-.63-.71h-11a1.39 1.39 0 00-.63.71zm-5-12.23h.06-2.3.06a2.14 2.14 0 001.11.31 2.32 2.32 0 00.38-.05 2.2 2.2 0 00.69-.26zm3.69-2.21l.68-.41a1.3 1.3 0 00.35-.31H349.3a1.3 1.3 0 00.35.31l.68.41zm-1.61.96l1.19-.71h-8.76l1.19.71h6.38zm2.81-1.93a1.58 1.58 0 00.2-.71h-12.4a1.58 1.58 0 00.2.71zm-4.42 2.89l1.19-.71h-5.54l1.19.71h3.16zm4.62-3.85a1.76 1.76 0 00-.2-.71h-12a1.76 1.76 0 00-.2.71zm-3.44-2.89l-1.19-.71h-3.14l-1.19.71h5.52zm1.61.97l-1.19-.72h-6.36l-1.19.72h8.74zm1.5.96a1.41 1.41 0 00-.34-.3l-.69-.41h-9.58l-.69.41a1.41 1.41 0 00-.34.3zm-4.71-2.89h-.05a2.2 2.2 0 00-.73-.26 2.32 2.32 0 00-.38-.05 2.14 2.14 0 00-1.11.31zm.46-.96l1.19-.71h-5.62l1.19.71h3.24zm1.61-.96l1.19-.72h-8.84l1.19.72h6.46zm2.79-1.93a1.92 1.92 0 00.19-.71h-12.41a1.73 1.73 0 00.18.71zm-4.91 3.18l.1-.06h-2.42l.1.06a2.14 2.14 0 001.11.31 2.32 2.32 0 00.38-.05 2.2 2.2 0 00.73-.26zm3.76-2.22l.64-.38a1.43 1.43 0 00.36-.33h-11.71a1.43 1.43 0 00.36.33l.64.38zm-3.75-5.78a2.2 2.2 0 00-.73-.26 2.32 2.32 0 00-.38-.05 2.14 2.14 0 00-1.14.31h2.23zm1.6.97l-1.18-.71h-3.07l-1.19.71h5.44zm3.09 1.92a1.76 1.76 0 00-.33-.27l-.73-.44h-9.5l-.73.44a1.76 1.76 0 00-.33.27zm.39.97a1.64 1.64 0 00-.22-.72h-12a1.64 1.64 0 00-.22.72zm-1.87-1.93l-1.19-.71h-6.28l-1.19.71h8.66z"/><path class="cls-4" d="M356.24 411.38l.14-.09h-2.5l.14.09a2.24 2.24 0 001.11.31 1.59 1.59 0 00.38-.06 2.18 2.18 0 00.73-.25zm.55-.34l1.19-.71h-5.7l1.19.71h3.32zm1.61-.96l1.19-.71h-8.92l1.19.71h6.54zm2.76-1.93a1.69 1.69 0 00.18-.71h-12.42a1.69 1.69 0 00.18.71zm-1.16.97l.61-.37a1.27 1.27 0 00.38-.35h-11.72a1.4 1.4 0 00.38.35l.61.37zm.92-2.89a1.26 1.26 0 00-.31-.25l-.77-.46h-9.42l-.77.46a1.05 1.05 0 00-.3.25zm-3.11-1.93l-1.18-.71h-3l-1.19.71h5.37zm-1.61-.96a2 2 0 00-.69-.24 1.58 1.58 0 00-.38-.05 2.18 2.18 0 00-1.07.29zm3.22 1.93l-1.19-.72h-6.2l-1.19.72h8.58zm1.91 1.92a1.67 1.67 0 00-.24-.71h-11.92a1.67 1.67 0 00-.24.71zm-5.09-4.46l.17-.1h-2.56l.17.1a2.16 2.16 0 001.11.32 1.59 1.59 0 00.38-.06 2 2 0 00.73-.26zm4.93-3.24a1.76 1.76 0 00.17-.71h-12.42a1.76 1.76 0 00.17.71zm-4.34 2.89l1.19-.71h-5.78l1.19.71h3.4zm3.17-1.93l.57-.34a1.41 1.41 0 00.4-.37h-11.72a1.41 1.41 0 00.4.37l.57.34zm-1.56.97l1.19-.72h-9l1.19.72h6.62zm-2.3-6.74a2.06 2.06 0 00-.63-.22 1.59 1.59 0 00-.38-.06 2.05 2.05 0 00-1 .28zm3.24 1.92l-1.19-.71h-6.12l-1.19.71h8.5zm1.51.96a1.51 1.51 0 00-.28-.22l-.81-.49h-9.34l-.81.49a1.93 1.93 0 00-.28.22zm-3.11-1.92l-1.19-.71h-2.92l-1.19.71h5.3zm3.54 2.89a1.66 1.66 0 00-.24-.72h-11.9a1.66 1.66 0 00-.24.72zm-4.45-4.82l1.19-.71h-5.86l1.19.71h3.48zm1.61-.96l1.19-.71h-9.07l1.18.71h6.7z"/><path class="cls-4" d="M356.24 394.09l.21-.13h-2.64l.21.13a2.14 2.14 0 001.11.31 1.58 1.58 0 00.38 0 2.2 2.2 0 00.73-.31zm3.84-2.3l.53-.32a1.3 1.3 0 00.41-.4h-11.78a1.3 1.3 0 00.41.4l.53.32zm1.1-.97a1.78 1.78 0 00.16-.68h-12.42a1.71 1.71 0 00.16.71zm-3.44-3.85l-1.19-.71h-2.84l-1.19.71h5.22zm1.6.97l-1.19-.72h-6.04l-1.19.72h8.42zm-3.25-1.94a2.49 2.49 0 00-.58-.2 2.32 2.32 0 00-.38-.05 2.21 2.21 0 00-1 .25zm5.23 3.86a1.65 1.65 0 00-.26-.71H349.2a1.65 1.65 0 00-.26.71zm-.46-.96a1.57 1.57 0 00-.25-.2l-.85-.51h-9.26l-.85.51a1.57 1.57 0 00-.25.2z"/><path class="cls-4" d="M356.24 385.45l.25-.15h-2.72l.25.15a2.14 2.14 0 001.11.31 2.32 2.32 0 00.38-.05 2.2 2.2 0 00.73-.26zm.67-.4l1.19-.72h-5.94l1.19.72h3.56zm3.21-1.93l.49-.29a1.56 1.56 0 00.43-.42h-11.82a1.56 1.56 0 00.43.42l.49.29zm-1.61.96l1.19-.71h-9.14l1.19.71h6.76zm2.68-1.92a1.92 1.92 0 00.15-.67h-12.43a1.93 1.93 0 00.16.71zm.13-.96a1.85 1.85 0 00-.27-.72h-11.84a1.85 1.85 0 00-.27.72zm-5.32-3.85a2.07 2.07 0 00-.53-.18 2.32 2.32 0 00-.38-.05 2.11 2.11 0 00-.91.23zm1.7.96l-1.19-.71h-2.76l-1.19.71h5.14zm3.13 1.92a1.92 1.92 0 00-.22-.18l-.89-.53h-9.18l-.89.53a1.92 1.92 0 00-.22.18zm-1.52-.96l-1.19-.71h-5.98l-1.19.71h8.36zm-2.36-2.89l1.19-.71h-6.02l1.19.71h3.64zm4.25-2.89a2 2 0 00.14-.64v-.07h-12.42a1.7 1.7 0 00.14.71zm-2.65 1.93l1.19-.71h-9.22l1.19.71h6.84z"/><path class="cls-4" d="M356.24 376.81l.29-.18h-2.8l.29.18a2.14 2.14 0 001.11.31 2.32 2.32 0 00.38-.05 2.2 2.2 0 00.73-.26zm3.92-2.35l.45-.27a1.35 1.35 0 00.44-.45h-11.84a1.35 1.35 0 00.44.45l.45.27zm1.16-1.93a1.65 1.65 0 00-.29-.71h-11.8a1.65 1.65 0 00-.29.71zm-2.05-1.92l-1.19-.72h-5.9l-1.19.72h8.28zm-3.27-1.93a2 2 0 00-.47-.15 2.32 2.32 0 00-.38 0 2.12 2.12 0 00-.85.2zm1.66.96l-1.19-.71h-2.68l-1.19.71h5.06zm3.14 1.93l-.19-.16-.93-.55h-9.1l-.93.55-.19.16zm-.6-5.78l.41-.24a1.47 1.47 0 00.46-.47h-11.88a1.47 1.47 0 00.46.47l.41.24zm1-.96a1.69 1.69 0 00.14-.62v-.09h-12.42a1.61 1.61 0 00.14.71zm-4.21 2.89l1.19-.72h-6.1l1.19.72h3.72zm1.6-.97l1.19-.71h-9.3l1.19.71h6.92zm-2.35 1.42l.33-.2h-2.88l.33.2a2.14 2.14 0 001.11.31 2.32 2.32 0 00.38-.05 2.45 2.45 0 00.73-.26zm5.07-4.3a1.58 1.58 0 00-.3-.72h-11.76a1.58 1.58 0 00-.3.72zm-2.08-1.93l-1.19-.71h-5.82l-1.19.71h8.2zm-1.61-.96l-1.19-.71h-2.6l-1.19.71h4.98zm-1.69-.98a2.25 2.25 0 00-.42-.13 2.32 2.32 0 00-.38-.05 2.07 2.07 0 00-.8.18zm4.84 2.9l-.16-.13-1-.58h-9l-1 .58-.16.13zm.44-6.74a1.74 1.74 0 00.13-.59v-.11h-12.42a1.69 1.69 0 00.13.71zm-.97.97l.37-.23a1.33 1.33 0 00.48-.49h-11.92a1.41 1.41 0 00.48.49l.37.23zm-1.61.96l1.19-.71h-9.38l1.19.71h7zm-1.6.96l1.18-.71h-6.16l1.19.71h3.79z"/><path class="cls-4" d="M356.24 359.53l.37-.23h-3l.37.23a2.24 2.24 0 001.11.31 1.59 1.59 0 00.38-.06 2.18 2.18 0 00.77-.25zm5.07-4.33a1.68 1.68 0 00-.31-.71h-11.74a1.68 1.68 0 00-.31.71zm-5.43-3.85a2.24 2.24 0 00-.37-.1 1.58 1.58 0 00-.38-.05 2.12 2.12 0 00-.74.15zm3.31 1.93l-1.19-.72h-5.74l-1.19.72h8.12zm-1.61-.97l-1.19-.71h-2.52l-1.19.71h4.9zm3.16 1.93a.69.69 0 00-.13-.11l-1-.6h-9l-1 .6a.69.69 0 00-.13.11zm-2.07-4.81l1.19-.72h-9.46l1.19.72h7.08zm2.55-1.93a1.87 1.87 0 00.12-.57v-.14h-12.42a1.74 1.74 0 00.12.71zm-4.16 2.89l1.19-.71h-6.24l1.19.71h3.86zm-.82.49l.41-.24h-3l.41.24a2.16 2.16 0 001.11.32 1.59 1.59 0 00.38-.06 2 2 0 00.69-.26zm4.04-2.42l.33-.2a1.49 1.49 0 00.49-.51h-11.94a1.49 1.49 0 00.49.51l.33.2zm-2.74-4.81l-1.19-.71h-2.44l-1.19.71h4.82zm3.77 2.89a1.63 1.63 0 00-.33-.72h-11.7a1.63 1.63 0 00-.33.72zm-5.49-3.85a1.57 1.57 0 00-.31-.08 1.59 1.59 0 00-.38-.06 2.12 2.12 0 00-.69.14zm3.33 1.92l-1.19-.71h-5.66l-1.19.71h8.04zm1.57.96l-.11-.08-1-.63h-8.88l-1 .63-.11.08zm-3.62-3.85l1.19-.71h-6.32l1.19.71h3.94zm-.86.52l.45-.27h-3.12l.45.27a2.14 2.14 0 001.11.31 2.32 2.32 0 00.38-.05 2.2 2.2 0 00.73-.26zm4.99-3.41a2 2 0 00.11-.54v-.17h-12.4a1.68 1.68 0 00.1.71zm-.91.97l.29-.18a1.39 1.39 0 00.51-.54h-12a1.39 1.39 0 00.51.54l.29.18zm-1.61.96l1.19-.71h-9.54l1.19.71h7.16zm.4-4.81l-1.19-.72h-5.58l-1.19.72h7.96zm-3.34-1.95l-.26-.06a2.32 2.32 0 00-.38 0 2 2 0 00-.64.11zm4.92 2.91l-.08-.07-1.08-.64h-8.8l-1.08.64-.08.07zm-3.19-1.93l-1.18-.71h-2.38l-1.18.71h4.74zm3.81 2.89a1.67 1.67 0 00-.34-.71h-11.68a1.67 1.67 0 00-.34.71zm-5.07-4.27l.49-.29h-3.19l.48.29a2.14 2.14 0 001.11.31 2.32 2.32 0 00.38-.05 2.2 2.2 0 00.73-.26zm2.51-1.5l1.19-.72h-9.62l1.19.72h7.24zm1.6-.97l.26-.15a1.47 1.47 0 00.52-.56h-12a1.47 1.47 0 00.52.56l.26.15zm.89-.96a1.91 1.91 0 00.1-.53v-.18h-12.4a1.72 1.72 0 00.09.71zm-4.1 2.89l1.19-.71h-6.4l1.19.71h4.02zm4.16-3.85a1.52 1.52 0 00-.35-.72h-11.64a1.62 1.62 0 00-.35.72zm-5.59-3.85h-.2a2.32 2.32 0 00-.38-.05 1.9 1.9 0 00-.58.09zm3.36 1.92l-1.19-.71h-5.5l-1.19.71h7.88zm-1.6-.96l-1.19-.71h-2.3l-1.18.71h4.67zm3.19 1.92h-.05l-1.12-.67h-8.72l-1.12.67zm-3.48-3.85l1.19-.71h-6.48l1.19.71h4.1zm1.61-.96l1.19-.71h-9.7l1.19.71h7.32zm1.6-.96l.22-.13a1.46 1.46 0 00.54-.59h-12a1.46 1.46 0 00.54.59l.22.13z"/><path class="cls-4" d="M356.24 325l.52-.32h-3.26l.52.32a2.14 2.14 0 001.11.31 2.32 2.32 0 00.38 0 2.2 2.2 0 00.73-.31zm5.01-3.5a2.1 2.1 0 00.06-.24 1.85 1.85 0 000-.47h-12.4a1.9 1.9 0 00.08.71zm-3.82-3.85l-1.19-.71a1.53 1.53 0 00-.27-.11 2.11 2.11 0 00-2 .11l-1.19.71zm1.6.97l-1.19-.72h-5.42l-1.19.72h7.8zm1.6.96l-1.16-.69h-8.64l-1.16.69zm.67.96a1.52 1.52 0 00-.37-.71h-11.6a1.52 1.52 0 00-.37.71zm35.86 76.07a2.61 2.61 0 01.17-.81l5.56-12.55h-7.83a1.75 1.75 0 110-3.49h10.74a1.91 1.91 0 011.9 1.9 1.66 1.66 0 01-.17.75l-6.54 15a1.94 1.94 0 01-1.85 1.2 2 2 0 01-1.98-2z"/><path class="cls-5" d="M437.28 386l-1.77.75a3.65 3.65 0 01-2.79 0L431 386c-3.27-1.38-5.15-4.21-4.77-7.15a14.68 14.68 0 00-.92-7.34l-.62-3.68a1.57 1.57 0 011.41-1.67l4-.8a24.71 24.71 0 018.14 0l4 .8a1.57 1.57 0 011.41 1.67l-.62 3.67a14.69 14.69 0 00-.93 7.34c.33 2.93-1.56 5.76-4.82 7.16z"/><path class="cls-4" d="M434.12 365.7a23.23 23.23 0 013.81.32l3.74.75a1.46 1.46 0 011.32 1.56l-.58 3.44a13.77 13.77 0 00-.87 6.88c.36 2.75-1.41 5.4-4.46 6.69l-1.65.7a3.43 3.43 0 01-2.62 0l-1.65-.7c-3.06-1.29-4.83-3.94-4.46-6.69a13.77 13.77 0 00-.87-6.88l-.58-3.45a1.45 1.45 0 011.32-1.56l3.74-.75a23 23 0 013.81-.32m0-1.7a25.36 25.36 0 00-4.09.34H430l-3.74.75a3.52 3.52 0 00-2 1.15 2.93 2.93 0 00-.67 2.36l.59 3.45a1.89 1.89 0 00.09.34 12 12 0 01.76 6 7.3 7.3 0 001.22 5.06 9.51 9.51 0 004.27 3.43l1.65.7a5.17 5.17 0 003.94 0l1.65-.7a9.48 9.48 0 004.26-3.43 7.29 7.29 0 001.22-5.05 11.91 11.91 0 01.77-6 1.89 1.89 0 00.09-.34l.58-3.44a2.9 2.9 0 00-.67-2.36 3.46 3.46 0 00-2-1.15l-3.74-.75h-.05a25.36 25.36 0 00-4.09-.34z"/><circle class="cls-4" cx="434.12" cy="360.77" r="1.49"/><path class="cls-4" d="M435.63 372.76h-3a2.33 2.33 0 01-2.19-1.57l-.59-1.75a.36.36 0 01.46-.46l1 .42a.64.64 0 00.69-.12l.45-.42a.93.93 0 011.17.05l.09.11a.65.65 0 001 0l.09-.11a.92.92 0 011.16-.05l.45.42a.65.65 0 00.69.12l1-.42a.36.36 0 01.46.46l-.59 1.75a2.33 2.33 0 01-2.34 1.57z"/><path class="cls-7" d="M438.42 378.74v-3.43a1.17 1.17 0 00-1.17-1.17h-3.14v4.6z"/><path class="cls-6" d="M434.12 374.14H431a1.17 1.17 0 00-1.17 1.17v3.43h4.31z"/><path class="cls-4" d="M429.81 378.74a5.21 5.21 0 002 3.79 3.72 3.72 0 002.32.81v-4.6z"/><path class="cls-6" d="M434.12 378.74v4.6a3.72 3.72 0 002.32-.81 5.2 5.2 0 002-3.79z"/></g></g><path id="neck" fill="#c58e76" d="M428.13 341.21l-27.59 8.62-28.6-9.62-1.92-23.62h61.04l-2.93 24.62z"/><path d="M503.38 369.38L500.91 339c-1.19-11.87-11.83-22.25-23.72-23.14l-37.14-2.7c-4.07-.45-20.52-.09-39.55.53-19-.62-35.48-1-39.55-.53l-37.14 2.7c-11.89.89-22.53 11.27-23.72 23.14l-2.47 30.36a20.14 20.14 0 005 15.74 18.65 18.65 0 001.69 1.64v66.36c0 12.81 9.32 23.23 20.78 23.23a19.8 19.8 0 0015.21-7.43v21.79a12.24 12.24 0 007.74 11.36v68h-5.93c-10.93 0-19.83 5.8-19.83 17.11 0 8.06 0 17 11.72 19.7v1.6a1.37 1.37 0 001.38 1.37h1.63a1.37 1.37 0 001.38-1.37v-1q1.72.15 3.72.15H344v.8a1.37 1.37 0 001.38 1.37h1.63a1.37 1.37 0 001.38-1.37v-.8H354v.8a1.37 1.37 0 001.38 1.37h1.63a1.37 1.37 0 001.38-1.37v-.8H364v.8a1.37 1.37 0 001.38 1.37h1.63a1.37 1.37 0 001.38-1.37v-.8H374v.8a1.37 1.37 0 001.38 1.37h1.63a1.37 1.37 0 001.38-1.37v-.8H384v.8a1.37 1.37 0 001.38 1.37h1.63a1.37 1.37 0 001.38-1.37v-.8H394v.8a1.37 1.37 0 001.38 1.37h1.63a1.37 1.37 0 001.38-1.37v-.81l.06-55.46V503h4v49.21l.06 54.67v1.6a1.37 1.37 0 001.38 1.37h1.63a1.37 1.37 0 001.38-1.37v-.8h5.61v.8a1.37 1.37 0 001.38 1.37h1.63a1.37 1.37 0 001.38-1.37v-.8h5.61v.8a1.37 1.37 0 001.38 1.37h1.63a1.37 1.37 0 001.38-1.37v-.8h5.61v.8a1.37 1.37 0 001.38 1.37h1.63a1.37 1.37 0 001.38-1.37v-.8h5.61v.8a1.37 1.37 0 001.38 1.37h1.63a1.37 1.37 0 001.38-1.37v-.8h5.61v.8a1.37 1.37 0 001.38 1.37h1.63a1.37 1.37 0 001.38-1.37v-.8h1.89c1.33 0 2.56 0 3.72-.15v1a1.37 1.37 0 001.38 1.37h1.63a1.37 1.37 0 001.38-1.37v-1.6c11.71-2.68 11.72-11.64 11.72-19.7 0-11.31-8.9-17.11-19.83-17.11h-5.93v-68a12.24 12.24 0 007.74-11.36v-21.84a19.8 19.8 0 0015.21 7.43c11.46 0 20.78-10.42 20.78-23.23v-66.36a18.65 18.65 0 001.69-1.64 20.14 20.14 0 005.1-15.74zM372.89 323.2c3.46 1.85 15.64 2.08 27.61 1.8 12 .28 24.15.05 27.61-1.8V335c0 4.81-22.42 12-27.23 12l-.38-.07-.38.07c-4.81 0-27.23-7.18-27.23-12zm-33 75.43v55c0 9.5-6.63 17.23-14.78 17.23s-14.78-7.73-14.78-17.23v-62.78a21.07 21.07 0 007.47 1.36h22.09zm52.91 203.42h-50.65c-14.21 0-14.21-5-14.21-14.89 0-8.22 6.37-11.5 14.21-11.5h11.67l38.93-2.7.07 15.37zm-38.74-76.4h38.67v41.7L354.08 570h-.26v-44.4zm-.26-5.74v-17h38.93v16.93h-38.91zm104.77 55.75h.26c7.84 0 14.21 3.28 14.21 11.5 0 9.91 0 14.89-14.21 14.89h-50.65v-13.7l.07-15.37 38.93 2.7h11.41zm-11.67-50h.26v44.4h-.26l-38.67-2.68v-41.7zm-38.67-5.74V503h38.93v17h-38.91zm46.84-73.78H455v44.58a6.6 6.6 0 01-6.58 6.58h-1.26l-43.68-.05s-.11-3.72-.16-8.75v-2.8c0-3.52-1.41-5.09-2.82-5-1.41-.08-2.82 1.49-2.82 5v2.79c-.05 5-.16 8.75-.16 8.75l-43.68.05h-1.26a6.6 6.6 0 01-6.58-6.58v-44.58h-.07v-.33l30.25.33h48.68l30.25-.33zm35.56 7.51c0 9.5-6.63 17.23-14.78 17.23s-14.78-7.73-14.78-17.23v-61.44h22.09a21.07 21.07 0 007.47-1.36zm6-77.21a13.55 13.55 0 01-2.76 4.66 13.85 13.85 0 01-3.24 2.63 14.72 14.72 0 01-7.47 2l-22.09.09v-20.15c0-5.56-6.08-5.93-6.08 0s.08 14.37.08 14.37v59.59H345.91V380s.08-8.45.08-14.37-6.08-5.54-6.08 0v20.11l-22.09-.09a14.72 14.72 0 01-7.47-2 13.85 13.85 0 01-3.24-2.63 13.55 13.55 0 01-2.76-4.66 14.79 14.79 0 01-.75-6.46l2.46-30.35c.9-8.95 9.23-17.08 18.2-17.75l11.12-.84 32.21-2.29c.68.55.49 17.49.49 17.49 0 8.43 23.34 15.29 31.77 15.29h1.3c8.43 0 31.77-6.86 31.77-15.29 0 0-.19-16.94.49-17.49l32.21 2.33 11.12.84c9 .67 17.3 8.8 18.2 17.75L497.4 370a14.79 14.79 0 01-.75 6.43z" id="border"/><g id="head"><path class="cls-11" d="M408.42 192.68h2c1.65 0 16.34 8.12 20.95 12.72s9.38 5.93 16 25-2.72 31.91-2.72 31.91-1.72-4.1-7.65-10.84 7.62-28.3-15.3-36.37c-4.93-1.73-8.45-2.45-11.16-2.45-9.88 0-9 9.51-26.85 13.64a43 43 0 01-9.74 1.23c-14.18 0-17.18-9.37-19.38-9.78-2.64-.5-1.15-3.13 7.9-12 8.78-8.62 23.87-13.06 46-13.06m0-5c-23.35 0-39.53 4.74-49.47 14.5-8.81 8.65-11.54 12.22-10.3 16.28a5.92 5.92 0 003.74 3.87l.5.57c2.71 3.13 8.34 9.64 21.05 9.64a48.63 48.63 0 0010.87-1.36c10.81-2.51 15.72-6.92 19.31-10.14 2.84-2.56 3.87-3.37 6.41-3.37 2.25 0 5.36.71 9.5 2.17 11.51 4 11 11.6 10.49 20.34-.33 5.28-.67 10.74 2.72 14.61 5.16 5.88 6.79 9.48 6.8 9.48l8.65 1c.44-.61 10.74-15.17 3.4-36.48-5.87-17-10.7-21.21-15-24.92-.77-.67-1.5-1.31-2.19-2-3.14-3.15-9.24-6.91-12.59-8.86-9.06-5.29-10.93-5.32-11.83-5.33z"/><path class="cls-11" d="M400.35 197.4s17.38 1 23.21 7.41c0 0 13.35 7.29 17.16 18.28 0 0 5.68 10.51 5.38 20.37-.13 4.43-.64 5.63-1.31 5.63s-1.82-1.64-2.76-1.64h-.11s-4.19-1.86-4.53-2.87.41-7.75-.71-10-5.53-9.72-9-12.41c-1.2-.92-4.08-1.22-7.59-1.22-6.82 0-16 1.14-19.7 1.14S387.46 221 380.64 221c-3.5 0-6.39.31-7.58 1.22-3.52 2.69-7.93 10.17-9.05 12.41s-.37 9-.71 10-4.52 2.87-4.52 2.87h-.12c-.93 0-2 1.64-2.75 1.64s-1.18-1.2-1.32-5.63c-.3-9.86 5.38-20.37 5.38-20.37 3.82-11 17.16-18.28 17.16-18.28 5.83-6.4 23.22-7.41 23.22-7.41m0-5.68h-.33a79.35 79.35 0 00-10.24 1.42c-7.51 1.55-12.81 3.89-16.16 7.12-3.17 1.89-14.77 9.4-18.85 20.53-1.14 2.22-6.16 12.62-5.85 22.82.08 2.62.34 13.36.71 14.73 1.06 3.95 3.91-3.6 6.28-3.6a7.21 7.21 0 004.68-1.9l.49-.22c5.69-2.52 7-4.5 7.6-6.26a13.35 13.35 0 00.37-4.67 32.53 32.53 0 01.15-4.79c1.37-2.68 4.79-8 7-10a21.13 21.13 0 014.46-.32c3.7 0 8.21.37 12.18.68 3.08.25 5.73.46 7.53.46s4.45-.21 7.52-.46c4-.31 8.48-.68 12.18-.68a21.19 21.19 0 014.47.32c2.18 1.94 5.6 7.28 7 10a32.57 32.57 0 01.14 4.79 13.86 13.86 0 00.37 4.67c.59 1.76 1.92 3.74 7.61 6.26l.49.22a7.21 7.21 0 004.68 1.9c2.37 0 5.94 8.69 7 4.74.37-1.37-.09-13.25 0-15.87.31-10.2-4.7-20.59-5.84-22.82-4.08-11.13-15.68-18.64-18.86-20.53-3.34-3.23-8.64-5.57-16.15-7.12a79.58 79.58 0 00-10.24-1.42h-.33z"/><path id="skin-2" data-name="skin" class="cls-1" d="M446.88 254.05c0-.91.08-1.81.08-2.73 0-30.51-21.06-55.25-47-55.25s-47 24.74-47 55.25c0 1.11 0 2.22.1 3.31-4.05 2.46-6.91 8.44-6.91 15.43 0 9.19 4.93 16.64 11 16.64a7.48 7.48 0 002.1-.32c.82 24.5 18.73 44.08 40.73 44.08S440 310.65 440.66 286a7.65 7.65 0 003.25.74c6.09 0 11-7.45 11-16.64.02-7.67-3.39-14.1-8.03-16.05z"/><path d="M363.32 216.84a24.44 24.44 0 00-3.35 6.25s-5.68 10.51-5.38 20.37a41.64 41.64 0 001.12 9.18 2.46 2.46 0 004.7.2c1.21-3.45 2.7-7.66 2.89-8.25.34-1-.41-7.75.71-10s5.16-9.08 8.6-12a21.58 21.58 0 00-9.29-5.75zm77.4 6.25a24.29 24.29 0 00-3.36-6.27 21.34 21.34 0 00-9.32 5.71c3.44 2.93 7.56 9.91 8.64 12.07s.38 9 .71 10c.2.59 1.68 4.8 2.9 8.25a2.46 2.46 0 004.7-.2 42.37 42.37 0 001.11-9.18c.3-9.87-5.38-20.38-5.38-20.38z" opacity=".3" fill="#2d2317"/><path class="cls-13" d="M444.35 249.09l-5.62.56s-1.19 31.43-4.59 36.6-10.88 28-27.45 37.43c-2.69 1.53-1.11-8.38-6.31-8.71-5.19.33-3.69 10.24-6.38 8.71-16.57-9.43-24-32.27-27.45-37.43s-4.59-36.6-4.59-36.6l-5.62-.56c-5.63-.57 2.8 11.33 4.4 43.61s39.53 37.75 39.6 37.76c.07 0 38-5.51 39.6-37.76s10.06-44.18 4.41-43.61z"/><path class="cls-11" d="M399.92 333.46c-22.68 0-41.28-19-43.53-43.79-7.52-.49-13.32-8.93-13.32-19.61 0-7 2.64-13.45 6.84-16.92v-1.82c0-32.12 22.45-58.25 50-58.25s50 26.13 50 58.25v1c4.85 3.18 8 10 8 17.76 0 11-6.16 19.64-14 19.64h-.46c-2.25 24.79-20.78 43.74-43.53 43.74zm-40.73-50.08a3 3 0 013 2.9c.77 23.09 17.34 41.18 37.73 41.18 20.58 0 37.15-18.26 37.74-41.58a3 3 0 014.27-2.64 4.73 4.73 0 002 .46c4.35 0 8-6.25 8-13.64 0-7-3.13-11.94-6.22-13.25a3 3 0 01-1.83-2.89v-.18c0-.8.07-1.6.07-2.42 0-28.81-19.76-52.25-44-52.25s-44 23.44-44 52.25c0 .92 0 1.89.09 3.16a3 3 0 01-1.43 2.71c-3.27 2-5.47 7.16-5.47 12.87 0 7.39 3.67 13.64 8 13.64a4.69 4.69 0 001.25-.19 2.74 2.74 0 01.8-.13z"/><path d="M447.36 230.42c-6.58-19.08-11.35-20.4-16-25s-19.3-12.7-20.95-12.72c-23.2-.27-38.94 4.17-48 13.05s-10.54 11.52-7.9 12 5.69 17 28.39 11.69 23.12-16.73 41.42-8.26c21.8 10.08 25.34 15.92 23.04 9.24z" fill="#2d2317"/><path class="cls-13" d="M400 299.86s-11.93 2.39-12.53 7c0 0 .34 3.84 2.13 3.5s2.3-3.92 4.14-4.35 6.26-1.36 6.26-1.36 4.43.93 6.26 1.36 2.35 4 4.14 4.35 2.13-3.5 2.13-3.5c-.6-4.61-12.53-7-12.53-7z"/></g></svg>