<svg id="player" xmlns="http://www.w3.org/2000/svg" viewBox="0 0 800 800"><defs><clipPath id="clip-path"><path d="M447.22 321c4.66-4 11.62-.45 11.55 6l-.68 70.29.07 22.53h-70.34V372.4z" fill="none"/></clipPath><style>.cls-2{fill:#c09d84}.cls-3{fill:#6cceeb}.cls-4{fill:#2d2d2d}.cls-5{fill:#b6d881}.cls-6{fill:#fff}.cls-7{fill:#e2e2e2}.cls-9{fill:#bababa}.cls-10{fill:#e5e18c}.cls-11{fill:#cd2027}.cls-12{fill:#231f20}.cls-13{fill:#e41e26}</style></defs><g id="skin"><path id="arm-left" class="cls-2" d="M306.19 383H343v72.38a18.39 18.39 0 01-18.39 18.39 18.39 18.39 0 01-18.39-18.39V383h-.03z"/><path id="arm-right" class="cls-2" d="M457.45 383h36.78v72.38a18.39 18.39 0 01-18.39 18.39 18.39 18.39 0 01-18.39-18.39V383z"/><path id="leg-left" class="cls-2" d="M350.14 492.97h45.67v45.67h-45.67z"/><path id="leg-right" class="cls-2" d="M405.04 492.97h45.67v45.67h-45.67z"/></g><g id="boots"><path id="left" class="cls-3" d="M395.59 570.99h-22.83l-22.84 1.98h-12.5l-7.5 2.52-5.24 8.5v9.83l1.91 4.17 3.83 4.06 6.34 1.94h58.83v-33z"/><path id="right" class="cls-3" d="M404.87 571.22h22.83l22.83 1.97h12.5l7.5 2.53 5.25 8.5v9.83l-1.91 4.17-3.84 4.05-6.33 1.95h-58.83v-33z"/><path class="cls-4" d="M349.71 574.71s3.26 12.15 45.61 8.57l.27-10.54-16.24-1z"/><path class="cls-5" d="M332.82 604s10.69-10.4 17.32-10.57 31.71-1 32.36 1.79a64.66 64.66 0 01.81 9z"/><path class="cls-4" d="M450.75 574.71s-3.26 12.15-45.61 8.57l-.27-10.54 16.23-1z"/><path class="cls-5" d="M467.64 604s-10.69-10.4-17.32-10.57-31.71-1-32.36 1.79a64.66 64.66 0 00-.81 9z"/></g><g id="socks"><g id="socks-2" data-name="socks"><path id="left-2" data-name="left" class="cls-6" d="M350.14 522.95h45.67v48.04h-45.67z"/><path id="right-2" data-name="right" class="cls-6" d="M404.64 522.95h45.67v48.04h-45.67z"/></g><path class="cls-7" transform="rotate(90 373.04 528.71)" d="M372.02 507.03h2.04v43.35h-2.04z"/><path class="cls-7" transform="rotate(90 373.04 532.79)" d="M372.02 511.12h2.04v43.35h-2.04z"/><path class="cls-7" transform="rotate(90 427.47 528.71)" d="M426.45 507.03h2.04v43.35h-2.04z"/><path class="cls-7" transform="rotate(90 427.475 532.795)" d="M426.45 511.12h2.04v43.35h-2.04z"/></g><g id="shorts"><path id="shorts-2" data-name="shorts" class="cls-6" d="M341.93 443.49h116.49v47a9.95 9.95 0 01-9.95 9.95h-96.6a9.95 9.95 0 01-9.95-9.95v-47h.01z"/><path class="cls-7" d="M347.71 444.01h2.04v52.65h-2.04zm102.99 0h2.04v52.65h-2.04z"/></g><g id="shirt"><path id="shirt-2" data-name="shirt" class="cls-7" d="M369.76 315.75l-48.29 2.99-11.36 6.25-6.83 10.1-3.31 40.73 5.16 7.67 7.67 4.67h29.5l.17 54H457.3v-53.5l29.33-.17 7.02-4 6.98-10.5-3.39-37.33-6.83-11.84-9.78-6.08-49.83-2.99-1 21.24-6.5 6.5-11.17 3.48-11.87 2.02-15.46-3.17-11-5.66-3.67-3.84-.37-20.57z"/><g clip-path="url(#clip-path)"><path class="cls-9" d="M391.82 369.29l-2.49 2.16h33.57l2.49-2.16h-33.57zm18.04-15.71l-2.48 2.16h33.57l2.49-2.16h-33.58zm21.58-18.78h27.49v-2.17h-25l-2.49 2.17zm12.03-10.47h15.46v-2.17h-12.97l-2.49 2.17zm6.02-5.24h9.44v-2.16h-6.96l-2.48 2.16zm-50.74 73.76h-.3l.1.17.2-.17zm56.75-78.99h3.43v-2.17h-.94l-2.49 2.17zm-18.04 15.7h21.47v-2.16h-18.99l-2.48 2.16zm-40.39 60.67l1.14 2.16h1.06l2.47-2.16h-4.67zm6.78-31.42l-2.49 2.17h33.58l2.48-2.17h-33.57zm-6.02 5.24l-2.48 2.16h33.57l2.49-2.16h-33.58zm18.05-15.71l-2.49 2.17h33.58l2.48-2.17h-33.57zm-27.13 26.18l1.15 2.17h26.99l2.49-2.17h-30.63zm33.15-31.41l-2.49 2.16h33.57l2.49-2.16H421.9zm-30.38 36.65l1.15 2.16h18.2l2.49-2.16h-21.84zm33.91-39.72h33.5v-2.17h-31.02l-2.48 2.17zm-31.13 44.95l1.14 2.17h9.8l2.47-2.17H394.3zm21.88 10.47l1.14 2.17h9.44l2.46-2.17h-13.04zm-2.77-5.23l1.14 2.16h17.87l2.48-2.16h-21.49z"/><path class="cls-9" d="M419.38 374.52l-2.49 2.17h33.57l2.49-2.17h-33.57zm-.43 26.18l1.15 2.16h.71l2.46-2.16h-4.32zm-8.32-15.71l1.15 2.17h26.65l2.49-2.17h-30.29zm2.73-5.23l-2.49 2.16h33.58l2.48-2.16h-33.57zm36.09-31.42l-2.48 2.17h11.96v-2.17h-9.48zm-12.03 10.47l-2.48 2.17h23.99v-2.17h-21.51zm6.02-5.23l-2.49 2.16h17.98v-2.16h-15.49zm-18.05 15.71l-2.49 2.16h33.58l2.45-2.14v-.02h-33.54zm30.08-26.18l-2.49 2.16h5.95v-2.16h-3.46zm-24.06 20.94l-2.49 2.16h30.01v-2.16h-27.52zm7.8 44.05h9.17l2.48-2.16h-12.8l1.15 2.16zm-2.77-5.24h17.95l2.49-2.16h-21.59l1.15 2.16zm5.54 10.47h.38l2.49-2.16h-4.02l1.15 2.16zm-8.32-15.7h24.43l.07-2.17h-25.64l1.14 2.17z"/><path class="cls-9" d="M446.93 379.76l-2.48 2.16h14.11l.06-2.16h-11.69zm-6.01 5.23l-2.49 2.17h19.97l.07-2.17h-17.55zm-6.02 5.24l-2.48 2.16h25.83l.06-2.16H434.9zm23.97-18.78l.06-2.14-2.45 2.14h2.39zm-5.92 3.07l-2.49 2.17h8.25l.07-2.17h-5.83z"/></g><path class="cls-6" d="M435 316l-5.17 1.27v20.91l-6 4.58-10.05 4.24-13.78 2.83-13.78-2.83-10.05-4.19-6-4.58v-20.91L365 316s-1.93 20.44 1.21 25.22 21.64 13 33.76 13 30.63-8.2 33.76-13S435 316 435 316z"/><path class="cls-10" d="M442.2 370a2.51 2.51 0 012.51 2.52v7.19a7.85 7.85 0 01-4 6.86l-2.62 1.43a1.62 1.62 0 01-1.56 0l-2.53-1.48a7.84 7.84 0 01-4.05-6.86v-7.19a2.52 2.52 0 012.52-2.52h9.78m0-1h-9.78a3.53 3.53 0 00-3.52 3.52v7.19a8.84 8.84 0 004.56 7.73l2.59 1.44a2.64 2.64 0 002.52 0l2.59-1.44a8.83 8.83 0 004.55-7.73v-7.19a3.52 3.52 0 00-3.56-3.47z"/><g id="crest-japan"><path class="cls-6" d="M439.89 385.12l-2.58 1.43-2.58-1.43a6.23 6.23 0 01-3.22-5.46v-7.19a.91.91 0 01.91-.91h9.78a.91.91 0 01.91.91v7.19a6.23 6.23 0 01-3.22 5.46z"/><path d="M442.2 371.56a.91.91 0 01.91.91v7.19a6.23 6.23 0 01-3.22 5.46l-2.58 1.43-2.58-1.43a6.23 6.23 0 01-3.22-5.46v-7.19a.91.91 0 01.91-.91h9.78m0-1.61h-9.78a2.52 2.52 0 00-2.52 2.52v7.19a7.84 7.84 0 004.05 6.86l2.58 1.43a1.62 1.62 0 001.56 0l2.58-1.43a7.85 7.85 0 004-6.86v-7.19a2.51 2.51 0 00-2.47-2.47z"/><path class="cls-11" d="M438.69 384.91l-1.38.82-1.38-.82a1.13 1.13 0 01-.55-1v-11a.78.78 0 01.75-.79h2.36a.78.78 0 01.75.79v11a1.13 1.13 0 01-.55 1z"/><path class="cls-12" d="M441.9 375.27a.46.46 0 00-.45-.36H439a.67.67 0 00-.57.32l-1.6 2.67-1.11-.7a.47.47 0 01-.23-.41.4.4 0 01.21-.35l1.36-.71a.17.17 0 000-.31l-1.48-.26-.72-.53a.56.56 0 00-.68 0l-.94.77a.8.8 0 00-.29.57l-.15 3.37a.79.79 0 00.4.71l2.55 1.44a.77.77 0 00.75 0l2.89-1.56a.87.87 0 00.35-.36l.55-1a.06.06 0 00-.06-.1h-2.33a.07.07 0 01-.06-.11l.19-.27h.06l2.48-.05.44-.8-2.27.05a.07.07 0 01-.06-.11l.19-.26 2.27-.05h.06l.36-.66a.08.08 0 00-.07-.11h-2a.07.07 0 01-.06-.11l.19-.26a.05.05 0 01.05 0h2.06a.12.12 0 00.11-.08 1.09 1.09 0 00.06-.38z"/></g><g id="brand-adidas"><g id="adidas"><rect id="bottom" class="cls-13" x="355.79" y="375.89" width="12.17" height="1.72" rx=".62" ry=".62"/><path class="cls-13" d="M361.93 368.93a1.06 1.06 0 00-.38 1.45l2.49 4.34a1.06 1.06 0 00.93.53h1.86l-3.43-5.94a1.08 1.08 0 00-1.47-.38zm-2.13 2.15a1.07 1.07 0 00-.4 1.45l1.23 2.18a1.06 1.06 0 00.93.54h1.86l-2.15-3.78a1.08 1.08 0 00-1.47-.39zm-2.35 1.92a1.08 1.08 0 00-.4 1.45l.17.29a1.08 1.08 0 00.94.55H360l-1.09-1.9a1.07 1.07 0 00-1.46-.39z"/></g></g><path class="cls-6" d="M432.96 359.07h9.34v6.69h-9.34z"/><path class="cls-10" d="M441.42 359.07a.87.87 0 01.88.88v4.92a.88.88 0 01-.88.89h-7.57a.89.89 0 01-.89-.89V360a.88.88 0 01.89-.88h7.57m0-.81h-7.57a1.7 1.7 0 00-1.7 1.69v4.92a1.7 1.7 0 001.7 1.69h7.57a1.69 1.69 0 001.69-1.69V360a1.69 1.69 0 00-1.69-1.69z"/><circle class="cls-11" cx="437.63" cy="362.41" r="2.44"/><path class="cls-13" d="M393.28 403.33a2 2 0 01-2-2v-12l-2.15 2.21a1.56 1.56 0 01-1.13.46 1.72 1.72 0 01-1.7-1.69 1.74 1.74 0 01.52-1.21l4.42-4.47a2.45 2.45 0 011.72-.69 2.36 2.36 0 012.37 2.33v15.1a2 2 0 01-2.05 1.96zm12.85.17c-5.48 0-7.91-5-7.91-9.89s2.43-9.86 7.91-9.86 7.91 4.93 7.91 9.86-2.46 9.89-7.91 9.89zm0-16.14c-2.75 0-3.79 2.73-3.79 6.25s1 6.28 3.79 6.28 3.75-2.75 3.75-6.28-1.03-6.25-3.75-6.25z"/></g><path id="neck" fill="#a8866f" d="M427.89 341.21l-27.59 8.62-28.6-9.62-1.92-23.62h61.04l-2.93 24.62z"/><path d="M503.13 369.38L500.67 339c-1.19-11.87-11.83-22.25-23.72-23.14l-37.14-2.7c-4.07-.45-20.52-.09-39.55.53-19-.62-35.48-1-39.55-.53l-37.14 2.7c-11.89.89-22.53 11.27-23.72 23.14l-2.47 30.36a20.14 20.14 0 005 15.74 18.65 18.65 0 001.69 1.64v66.36c0 12.81 9.32 23.23 20.78 23.23a19.8 19.8 0 0015.21-7.43v21.79a12.24 12.24 0 007.74 11.36v68h-5.93c-10.93 0-19.83 5.8-19.83 17.11 0 8.06 0 17 11.72 19.7v1.6a1.37 1.37 0 001.38 1.37h1.63a1.37 1.37 0 001.37-1.37v-1c1.16.1 2.4.15 3.73.15h1.89v.8a1.37 1.37 0 001.38 1.37h1.63a1.37 1.37 0 001.37-1.37v-.8h5.62v.8a1.37 1.37 0 001.38 1.37h1.63a1.37 1.37 0 001.37-1.37v-.8h5.62v.8a1.37 1.37 0 001.38 1.37h1.63a1.37 1.37 0 001.37-1.37v-.8h5.62v.8a1.37 1.37 0 001.38 1.37h1.63a1.37 1.37 0 001.37-1.37v-.8h5.62v.8a1.37 1.37 0 001.38 1.37h1.63a1.37 1.37 0 001.37-1.37v-.8h5.62v.8a1.37 1.37 0 001.38 1.37h1.63a1.37 1.37 0 001.37-1.37v-.81l.06-55.46V503h4v49.21l.06 54.67v1.6a1.37 1.37 0 001.38 1.37h1.63a1.37 1.37 0 001.38-1.37v-.8h5.61v.8a1.37 1.37 0 001.38 1.37h1.63a1.37 1.37 0 001.38-1.37v-.8h5.61v.8a1.37 1.37 0 001.38 1.37h1.63a1.37 1.37 0 001.38-1.37v-.8h5.61v.8a1.37 1.37 0 001.38 1.37h1.63a1.37 1.37 0 001.38-1.37v-.8h5.61v.8a1.37 1.37 0 001.38 1.37h1.63a1.37 1.37 0 001.38-1.37v-.8h5.61v.8a1.37 1.37 0 001.38 1.37h1.63a1.37 1.37 0 001.38-1.37v-.8h1.89c1.33 0 2.56 0 3.72-.15v1a1.37 1.37 0 001.38 1.37h1.63a1.37 1.37 0 001.38-1.37v-1.6c11.71-2.68 11.72-11.64 11.72-19.7 0-11.31-8.9-17.11-19.83-17.11h-5.93v-68a12.24 12.24 0 007.74-11.36v-21.84a19.8 19.8 0 0015.21 7.43c11.46 0 20.78-10.42 20.78-23.23v-66.36a18.65 18.65 0 001.69-1.64 20.1 20.1 0 005.1-15.74zM372.65 323.2c3.46 1.85 15.64 2.08 27.61 1.8 12 .28 24.15.05 27.61-1.8V335c0 4.81-22.42 12-27.23 12l-.38-.07-.38.07c-4.81 0-27.23-7.18-27.23-12zm-33 75.43v55c0 9.5-6.63 17.23-14.78 17.23s-14.78-7.73-14.78-17.23v-62.78a21.07 21.07 0 007.47 1.36h22.09zm52.9 203.42h-50.64c-14.21 0-14.21-5-14.21-14.89 0-8.22 6.37-11.5 14.21-11.5h11.67l38.93-2.7.06 15.37zm-38.73-76.4h38.67v41.7L353.84 570h-.26v-44.4zm-.26-5.74v-17h38.93v16.93h-38.91zm104.77 55.75h.26c7.84 0 14.21 3.28 14.21 11.5 0 9.91 0 14.89-14.21 14.89h-50.65v-13.7L408 573l38.93 2.7h11.41zm-11.67-50h.26v44.4h-.26L408 567.35v-41.7zM408 519.91V503h38.93v17H408zm46.84-73.78h-.08v44.58a6.6 6.6 0 01-6.58 6.58h-1.26l-43.68-.05s-.12-3.72-.16-8.75v-2.79c0-3.52-1.41-5.09-2.82-5-1.41-.08-2.82 1.49-2.82 5v2.79c-.05 5-.16 8.75-.16 8.75l-43.68.05h-1.26a6.6 6.6 0 01-6.58-6.58v-44.58h-.07v-.33l30.25.33h48.66l30.25-.33zm35.56 7.51c0 9.5-6.63 17.23-14.78 17.23s-14.78-7.73-14.78-17.23v-61.43h22.09a21.07 21.07 0 007.47-1.36zm6-77.21a13.55 13.55 0 01-2.76 4.66 13.85 13.85 0 01-3.24 2.63 14.72 14.72 0 01-7.47 2l-22.09.09v-20.14c0-5.56-6.08-5.93-6.08 0s.08 14.37.08 14.37v59.59H345.67V380s.08-8.45.08-14.37-6.08-5.54-6.08 0v20.11l-22.09-.09a14.72 14.72 0 01-7.47-2 13.61 13.61 0 01-6-7.29 14.94 14.94 0 01-.76-6.46l2.47-30.35c.89-8.95 9.23-17.08 18.2-17.75l11.12-.84 32.21-2.29c.68.55.49 17.49.49 17.49 0 8.43 23.34 15.29 31.77 15.29h1.3c8.43 0 31.77-6.86 31.77-15.29 0 0-.19-16.94.49-17.49l32.21 2.33 11.12.84c9 .67 17.3 8.8 18.2 17.75l2.46 30.41a14.79 14.79 0 01-.75 6.43z" id="border"/><g id="head"><path id="skin-2" data-name="skin" class="cls-2" d="M446.64 254.05c0-.91.08-1.81.08-2.73 0-30.51-21.06-55.25-47-55.25s-47 24.74-47 55.25c0 1.11 0 2.22.1 3.31-4.05 2.46-6.91 8.44-6.91 15.43 0 9.19 4.93 16.64 11 16.64a7.49 7.49 0 002.11-.32c.82 24.5 18.73 44.08 40.73 44.08s40.12-19.81 40.74-44.5a7.65 7.65 0 003.25.74c6.08 0 11-7.45 11-16.64-.06-7.63-3.46-14.06-8.1-16.01z"/><path class="cls-12" d="M399.68 333.46c-22.68 0-41.28-19-43.53-43.79-7.52-.49-13.32-8.93-13.32-19.61 0-7 2.64-13.45 6.84-16.92v-1.82c0-32.12 22.45-58.25 50-58.25s50 26.13 50 58.25v1c4.85 3.18 8 10 8 17.76 0 11-6.16 19.64-14 19.64h-.46c-2.21 24.79-20.78 43.74-43.53 43.74zM359 283.38a3 3 0 011.75.57 3 3 0 011.25 2.33c.77 23.09 17.34 41.18 37.73 41.18 20.57 0 37.15-18.26 37.74-41.58a3 3 0 014.27-2.64 4.73 4.73 0 002 .46c4.35 0 8-6.25 8-13.64 0-7-3.13-11.94-6.22-13.25a3 3 0 01-1.83-2.89v-.18c0-.8.07-1.6.07-2.42 0-28.81-19.76-52.25-44-52.25s-44 23.44-44 52.25c0 .92 0 1.89.09 3.16a3 3 0 01-1.43 2.71c-3.27 2-5.47 7.16-5.47 12.87 0 7.39 3.67 13.64 8 13.64a4.7 4.7 0 001.26-.19 2.74 2.74 0 01.79-.13z"/><path class="cls-12" d="M449.24 231.22c.24-7-9.73-26.54-10.88-30.86s-14.42-6.86-17-8.31c-8.18-4.56-21.33-6.3-21.33-6.3s-13.15 1.74-21.33 6.3c-2.61 1.45-15.88 4-17 8.31s-11.12 23.87-10.88 30.86-3 22.91 3.62 26c0 0 7.19.41 7.66-1.71.36-1.61.62-10.36.51-16.19a15.24 15.24 0 011.1-6c1.91-4.79 5.58-14.06 6.22-16.31.88-3.06 30.13 1.89 30.13 1.89s29.25-5 30.13-1.89c.64 2.25 4.31 11.52 6.22 16.31a15.24 15.24 0 011.1 6c-.11 5.83.15 14.58.51 16.19.47 2.12 7.66 1.71 7.66 1.71 6.54-3.09 3.32-19 3.56-26z"/></g></svg>