<svg id="player" xmlns="http://www.w3.org/2000/svg" viewBox="0 0 800 800"><defs><style>.cls-1{fill:#e0b392}.cls-2{fill:#1e439a}.cls-3{fill:#fff}.cls-4{fill:#cc3139}.cls-5{fill:#2a2727}.cls-6{fill:#bd2a38}.cls-8{fill:#231f20}.cls-9{fill:#22140c}</style></defs><g id="skin"><path id="arm-left" class="cls-1" d="M306.43 383h36.78v72.38a18.39 18.39 0 01-18.39 18.39 18.39 18.39 0 01-18.39-18.39V383z"/><path id="arm-right" class="cls-1" d="M457.69 383h36.78v72.38a18.39 18.39 0 01-18.39 18.39 18.39 18.39 0 01-18.39-18.39V383z"/><path id="leg-left" class="cls-1" d="M350.38 492.97h45.67v45.67h-45.67z"/><path id="leg-right" class="cls-1" d="M405.28 492.97h45.67v45.67h-45.67z"/></g><g id="boots"><path id="left" class="cls-2" d="M395.83 570.99H373l-22.83 1.98h-12.5l-7.5 2.52-5.25 8.5v9.83l1.91 4.17 3.84 4.06 6.33 1.94h58.83v-33z"/><path id="right" class="cls-2" d="M405.11 571.22h22.83l22.83 1.97h12.5l7.5 2.53 5.25 8.5v9.83l-1.91 4.17-3.84 4.05-6.33 1.95h-58.83v-33z"/><path class="cls-3" d="M350 573s-3.78 14.53 45.67 14.53l.21-16.5zm101.33 0s3.78 14.53-45.66 14.53l-.22-16.5z"/></g><g id="socks"><g id="socks-2" data-name="socks"><path id="left-2" data-name="left" class="cls-4" d="M350.38 522.95h45.67v48.04h-45.67z"/><path id="right-2" data-name="right" class="cls-4" d="M404.88 522.95h45.67v48.04h-45.67z"/></g><path class="cls-5" d="M351.46 540.8h44.52v9.39h-44.52zm53.99 0h44.52v9.39h-44.52z"/></g><g id="shorts"><path id="shorts-2" data-name="shorts" class="cls-5" d="M342.17 443.49h116.49v47a9.95 9.95 0 01-9.95 9.95h-96.6a9.95 9.95 0 01-9.95-9.95v-47h.01z"/></g><g id="shirt"><path id="shirt-2" data-name="shirt" class="cls-4" d="M370 315.75l-48.29 2.99-11.36 6.25-6.83 10.1-3.31 40.73 5.17 7.67 7.66 4.67h29.5l.17 54h114.83v-53.5l29.34-.17 7.01-4 6.99-10.5-3.4-37.33-6.83-11.84-9.77-6.08-49.84-2.99-1 21.24-6.5 6.5-11.16 3.48-11.88 2.02-15.46-3.17-11-5.66-3.66-3.84-.38-20.57z"/><path class="cls-6" d="M369.89 321.25c-32 12.45-27.15 43.71-27.15 43.71l-.2 23.2s1.76 1.2-19.48.83-22.85-13.17-22.85-13.17 1.84-22.72 2-35.77 17.91-21.31 17.91-21.31l48.57-3.36zm61.17 0c32 12.45 27.15 43.71 27.15 43.71l.2 23.2s-1.75 1.2 19.48.83 22.85-13.17 22.85-13.17-1.84-22.72-2-35.77-17.91-21.31-17.91-21.31l-48.57-3.36z"/><path class="cls-6" d="M361.16 316.22s-7.47 29.54 19.34 30.38l-10.15-10.53 1.14-20.69zm78.68 0s7.47 29.54-19.34 30.38l10.15-10.53-1.14-20.69z"/><g id="brand-nike"><path id="nike" class="cls-3" d="M373.82 364.69c0 1.2-1.57 2.17-3.49 2.17h-9.25c-1.92 0-3.5-1-3.5-2.17s1.58-2.16 3.5-2.16h9.25c1.92 0 3.49.97 3.49 2.16z"/></g><path class="cls-5" d="M438.72 382.58l-4.53 2.27a2.16 2.16 0 01-1.95 0l-4.53-2.27a6.3 6.3 0 01-3.48-5.33l-.64-12.63a1.75 1.75 0 011.16-1.74l7.14-2.6a3.89 3.89 0 012.65 0l7.14 2.6a1.76 1.76 0 011.15 1.74l-.63 12.63a6.32 6.32 0 01-3.48 5.33z"/><path class="cls-3" d="M433.21 360a3.81 3.81 0 011.33.24l7.14 2.6a1.76 1.76 0 011.15 1.74l-.63 12.63a6.32 6.32 0 01-3.48 5.33l-4.53 2.27a2.11 2.11 0 01-1 .23 2.07 2.07 0 01-1-.23l-4.53-2.27a6.3 6.3 0 01-3.48-5.33l-.64-12.63a1.75 1.75 0 011.16-1.74l7.14-2.6a3.72 3.72 0 011.32-.24m0-1.63a5.47 5.47 0 00-1.88.33l-7.14 2.61a3.37 3.37 0 00-2.14 3.39l.63 12.63A8 8 0 00427 384l4.53 2.27a3.77 3.77 0 003.42 0l4.53-2.27a8 8 0 004.38-6.71l.63-12.63a3.37 3.37 0 00-2.22-3.35l-7.14-2.61a5.53 5.53 0 00-1.89-.33z"/><path class="cls-3" d="M437.65 366.68a1.87 1.87 0 00-1.82 1.5h-5.23a1.88 1.88 0 00-1.83-1.5 1.86 1.86 0 00-1.86 1.86 1.88 1.88 0 001.5 1.83v3.91a1.57 1.57 0 001 1.48l1.52.54v.6a1.56 1.56 0 001.55 1.55h1.36a1.55 1.55 0 001.55-1.55v-.6l1.53-.54a1.58 1.58 0 001-1.48v-3.91a1.86 1.86 0 00-.36-3.69zm-5.74 8.07h2.73a1.43 1.43 0 01-.3.87 1.47 1.47 0 01-1.16.42 1.06 1.06 0 01-1.27-1.29zm2.81 2.15a.83.83 0 01-.79.83.95.95 0 01-1.42 0 .83.83 0 01-.79-.83v-.62a2.16 2.16 0 001.48.48 2.2 2.2 0 001.54-.51v.65zm4.07-8.28a1.16 1.16 0 01-1.16 1.06.34.34 0 00-.34.34v4.26a.84.84 0 01-.56.8l-1.29.45v-.89a1.56 1.56 0 001-1.44v-1.43a.59.59 0 00-.21-.45l.43-.32a.37.37 0 00.07-.51.35.35 0 00-.5-.07l-1.68 1.27a.36.36 0 00-.08.5.36.36 0 00.29.15.37.37 0 00.22-.08l.74-.56v1.5a.83.83 0 01-.77.83h-3.4a.83.83 0 01-.77-.83v-1.65l.95.71a.34.34 0 00.21.08.36.36 0 00.22-.65l-1.68-1.27a.37.37 0 00-.51.07.37.37 0 00.07.51l.35.26a.56.56 0 00-.33.51v1.43a1.56 1.56 0 001 1.44v.89l-1.28-.45a.85.85 0 01-.57-.8V370a.34.34 0 00-.34-.34 1.14 1.14 0 111.12-1.12.34.34 0 00.34.34h5.93a.34.34 0 00.33-.34 1.15 1.15 0 011.12-1.16 1.13 1.13 0 011.08 1.24zm-76.73 23.06a3.13 3.13 0 01.18-.89l6.07-13.7h-8.54a1.91 1.91 0 110-3.81h11.72a2.07 2.07 0 012.07 2.07 1.8 1.8 0 01-.18.82l-7.14 16.36a2.13 2.13 0 01-2 1.31 2.16 2.16 0 01-2.18-2.16z"/></g><path id="neck" fill="#b18b70" d="M428.13 341.21l-27.59 8.62-28.6-9.62-1.92-23.62h61.04l-2.93 24.62z"/><path d="M503.38 369.38L500.91 339c-1.19-11.87-11.83-22.25-23.72-23.14l-37.14-2.7c-4.07-.45-20.52-.09-39.55.53-19-.62-35.48-1-39.55-.53l-37.14 2.7c-11.89.89-22.53 11.27-23.72 23.14l-2.47 30.36a20.14 20.14 0 005 15.74 18.65 18.65 0 001.69 1.64v66.36c0 12.81 9.32 23.23 20.78 23.23a19.8 19.8 0 0015.21-7.43v21.79a12.24 12.24 0 007.74 11.36v68h-5.93c-10.93 0-19.83 5.8-19.83 17.11 0 8.06 0 17 11.72 19.7v1.6a1.37 1.37 0 001.38 1.37h1.63a1.37 1.37 0 001.38-1.37v-1q1.72.15 3.72.15H344v.8a1.37 1.37 0 001.38 1.37h1.63a1.37 1.37 0 001.38-1.37v-.8H354v.8a1.37 1.37 0 001.38 1.37h1.63a1.37 1.37 0 001.38-1.37v-.8H364v.8a1.37 1.37 0 001.38 1.37h1.63a1.37 1.37 0 001.38-1.37v-.8H374v.8a1.37 1.37 0 001.38 1.37h1.63a1.37 1.37 0 001.38-1.37v-.8H384v.8a1.37 1.37 0 001.38 1.37h1.63a1.37 1.37 0 001.38-1.37v-.8H394v.8a1.37 1.37 0 001.38 1.37h1.63a1.37 1.37 0 001.38-1.37v-.81l.06-55.46V503h4v49.21l.06 54.67v1.6a1.37 1.37 0 001.38 1.37h1.63a1.37 1.37 0 001.38-1.37v-.8h5.61v.8a1.37 1.37 0 001.38 1.37h1.63a1.37 1.37 0 001.38-1.37v-.8h5.61v.8a1.37 1.37 0 001.38 1.37h1.63a1.37 1.37 0 001.38-1.37v-.8h5.61v.8a1.37 1.37 0 001.38 1.37h1.63a1.37 1.37 0 001.38-1.37v-.8h5.61v.8a1.37 1.37 0 001.38 1.37h1.63a1.37 1.37 0 001.38-1.37v-.8h5.61v.8a1.37 1.37 0 001.38 1.37h1.63a1.37 1.37 0 001.38-1.37v-.8h1.89c1.33 0 2.56 0 3.72-.15v1a1.37 1.37 0 001.38 1.37h1.63a1.37 1.37 0 001.38-1.37v-1.6c11.71-2.68 11.72-11.64 11.72-19.7 0-11.31-8.9-17.11-19.83-17.11h-5.93v-68a12.24 12.24 0 007.74-11.36v-21.84a19.8 19.8 0 0015.21 7.43c11.46 0 20.78-10.42 20.78-23.23v-66.36a18.65 18.65 0 001.69-1.64 20.14 20.14 0 005.1-15.74zM372.89 323.2c3.46 1.85 15.64 2.08 27.61 1.8 12 .28 24.15.05 27.61-1.8V335c0 4.81-22.42 12-27.23 12l-.38-.07-.38.07c-4.81 0-27.23-7.18-27.23-12zm-33 75.43v55c0 9.5-6.63 17.23-14.78 17.23s-14.78-7.73-14.78-17.23v-62.78a21.07 21.07 0 007.47 1.36h22.09zm52.91 203.42h-50.65c-14.21 0-14.21-5-14.21-14.89 0-8.22 6.37-11.5 14.21-11.5h11.67l38.93-2.7.07 15.37zm-38.74-76.4h38.67v41.7L354.08 570h-.26v-44.4zm-.26-5.74v-17h38.93v16.93h-38.91zm104.77 55.75h.26c7.84 0 14.21 3.28 14.21 11.5 0 9.91 0 14.89-14.21 14.89h-50.65v-13.7l.07-15.37 38.93 2.7h11.41zm-11.67-50h.26v44.4h-.26l-38.67-2.68v-41.7zm-38.67-5.74V503h38.93v17h-38.91zm46.84-73.78H455v44.58a6.6 6.6 0 01-6.58 6.58h-1.26l-43.68-.05s-.11-3.72-.16-8.75v-2.8c0-3.52-1.41-5.09-2.82-5-1.41-.08-2.82 1.49-2.82 5v2.79c-.05 5-.16 8.75-.16 8.75l-43.68.05h-1.26a6.6 6.6 0 01-6.58-6.58v-44.58h-.07v-.33l30.25.33h48.68l30.25-.33zm35.56 7.51c0 9.5-6.63 17.23-14.78 17.23s-14.78-7.73-14.78-17.23v-61.44h22.09a21.07 21.07 0 007.47-1.36zm6-77.21a13.55 13.55 0 01-2.76 4.66 13.85 13.85 0 01-3.24 2.63 14.72 14.72 0 01-7.47 2l-22.09.09v-20.15c0-5.56-6.08-5.93-6.08 0s.08 14.37.08 14.37v59.59H345.91V380s.08-8.45.08-14.37-6.08-5.54-6.08 0v20.11l-22.09-.09a14.72 14.72 0 01-7.47-2 13.85 13.85 0 01-3.24-2.63 13.55 13.55 0 01-2.76-4.66 14.79 14.79 0 01-.75-6.46l2.46-30.35c.9-8.95 9.23-17.08 18.2-17.75l11.12-.84 32.21-2.29c.68.55.49 17.49.49 17.49 0 8.43 23.34 15.29 31.77 15.29h1.3c8.43 0 31.77-6.86 31.77-15.29 0 0-.19-16.94.49-17.49l32.21 2.33 11.12.84c9 .67 17.3 8.8 18.2 17.75L497.4 370a14.79 14.79 0 01-.75 6.43z" id="border"/><g id="head"><path class="cls-8" d="M392.65 184c7 0 29.06 7.51 36 13.09 6.71 5.41 24.5 16.41 23.25 33.66-.89 12.28-2.53 18.3-4.8 19.48-.41 3.29-1.23 4.3-2.79 4.3S431 227.79 431.2 221c.21-5.72-15.91-6.18-26.26-6.18h-10.19c-10.35 0-26.47.46-26.26 6.18.25 6.84-13 33.53-13 33.53-2 0-2.78-1.66-3-7.59-6.12-13.74-3.69-12.65-.1-32.06 4.79-25.91 24.83-25.25 31.58-26.17h1a22.86 22.86 0 013.59.21c-.73-4.17 1.7-4.89 4.16-4.89m0-6c-3.57 0-6.32 1.12-8.18 3.33a8.84 8.84 0 00-1 1.39 4.53 4.53 0 00-.47.05c-.51.07-1.18.13-2 .21-8.08.77-29.54 2.84-34.71 30.81-.79 4.25-1.53 7.52-2.12 10.16-2.24 10-2.67 13.27 2.19 24.4a21.11 21.11 0 001.26 6.9 8.06 8.06 0 007.71 5.28h.11a6 6 0 005.3-3.33c3.89-7.81 12.52-25.9 13.55-34.53 1.79-.72 6.78-1.85 20.37-1.85h10.19c13.59 0 18.58 1.13 20.37 1.85 1 8.63 9.66 26.72 13.55 34.53a6 6 0 005.3 3.33h.11a8 8 0 006.79-3.55 10.81 10.81 0 001.55-3.72c2.86-3.52 4.37-10.17 5.24-22.07 1.33-18.44-14.36-30.32-22.78-36.7-1.05-.8-2-1.48-2.69-2.07C424.5 186 401 178 392.65 178z"/><path id="skin-2" data-name="skin" class="cls-1" d="M446.36 254.05c0-.91.08-1.81.08-2.73 0-30.51-21.06-55.25-47-55.25s-47 24.74-47 55.25c0 1.11 0 2.22.09 3.31-4 2.46-6.9 8.44-6.9 15.43 0 9.19 4.93 16.64 11 16.64a7.42 7.42 0 002.1-.32c.82 24.5 18.74 44.08 40.74 44.08s40.11-19.81 40.74-44.5a7.65 7.65 0 003.25.74c6.08 0 11-7.45 11-16.64-.05-7.63-3.46-14.06-8.1-16.01z"/><path class="cls-8" d="M399.41 333.46c-22.68 0-41.28-19-43.54-43.79-7.52-.49-13.31-8.93-13.31-19.61 0-7 2.64-13.45 6.84-16.92v-1.82c0-32.12 22.45-58.25 50-58.25s50 26.13 50 58.25v1c4.85 3.18 8 10 8 17.76 0 11-6.15 19.64-14 19.64h-.46c-2.25 24.79-20.78 43.74-43.53 43.74zm-40.74-50.08a3 3 0 013 2.9c.77 23.09 17.35 41.18 37.74 41.18 20.57 0 37.15-18.26 37.74-41.58a3 3 0 014.27-2.64 4.73 4.73 0 002 .46c4.34 0 8-6.25 8-13.64 0-7-3.12-11.94-6.21-13.25a3 3 0 01-1.83-2.89v-.18c0-.8.07-1.6.07-2.42 0-28.81-19.75-52.25-44-52.25s-44 23.44-44 52.25c0 .92 0 1.89.09 3.16a3 3 0 01-1.44 2.71c-3.26 2-5.46 7.16-5.46 12.87 0 7.39 3.67 13.64 8 13.64a4.7 4.7 0 001.26-.19 2.72 2.72 0 01.77-.13z"/><path class="cls-9" d="M433 210.74c-2.79-6-20-12.58-20-12.58l-13-1.1h-.29l-12.92 1.1s-17.25 6.63-20 12.58-14.5 20.46-14.46 30.84c0 5.26.43 8 1.17 9.44a2.1 2.1 0 003.75-.09c2.71-5.6 11.5-24.2 11.29-30-.25-6.76 22.35-6.18 31.21-6.17h.25c8.86 0 31.46-.59 31.21 6.17s12.11 31.65 12.11 31.65c2.53 0 4.06-.65 4.1-11S435.75 216.7 433 210.74z"/><path class="cls-9" d="M428.61 197c-6.9-5.58-29-13.09-36-13.09-2.46 0-4.89.72-4.16 4.89a26.19 26.19 0 00-4.63-.18c-6.75.92-26.79.26-31.58 26.17-3.79 20.5-6.29 18.12 1.21 34.5l7.25-14.63 6.12-19 10.63-7 12.25 1s4.41-1 6.34-4.19c.53 1.36.88 2.19.88 2.19 15.48-3.5 13.65 2.13 13.65 2.13l13.13-.5L430 216l4.5 7.35s3.5 8.12 5.75 12-.15 10.46 3.75 14 6.62-1.38 7.87-18.63-16.55-28.27-23.26-33.72z"/></g></svg>