<svg id="player" xmlns="http://www.w3.org/2000/svg" viewBox="0 0 800 800"><defs><style>.cls-1{fill:#6e402b}.cls-2{fill:#f58538}.cls-3{fill:#182742}.cls-4{fill:#e62f30}.cls-6{fill:#fff}.cls-10{fill:#231f20}</style></defs><g id="skin"><path id="arm-left" class="cls-1" d="M306.43 383h36.78v72.38a18.39 18.39 0 01-18.39 18.39 18.39 18.39 0 01-18.39-18.39V383z"/><path id="arm-right" class="cls-1" d="M457.69 383h36.78v72.38a18.39 18.39 0 01-18.39 18.39 18.39 18.39 0 01-18.39-18.39V383z"/><path id="leg-left" class="cls-1" d="M350.38 492.97h45.67v45.67h-45.67z"/><path id="leg-right" class="cls-1" d="M405.28 492.97h45.67v45.67h-45.67z"/></g><g id="boots"><path id="left" class="cls-2" d="M395.83 570.99H373l-22.83 1.98h-12.5l-7.5 2.52-5.25 8.5v9.83l1.91 4.17 3.84 4.06 6.33 1.94h58.83v-33z"/><path id="right" class="cls-2" d="M405.11 571.22h22.83l22.83 1.97h12.5l7.5 2.53 5.25 8.5v9.83l-1.91 4.17-3.84 4.05-6.33 1.95h-58.83v-33z"/><path class="cls-3" d="M346 604.22s19-17.75 27.13-16.73 19.38 8.75 7.53 16.73zm108.92 0s-18.92-17.75-27.13-16.73-19.38 8.75-7.54 16.73z"/></g><g id="socks"><g id="socks-2" data-name="socks"><path id="left-2" data-name="left" class="cls-4" d="M350.38 522.95h45.67v48.04h-45.67z"/><path id="right-2" data-name="right" class="cls-4" d="M404.88 522.95h45.67v48.04h-45.67z"/></g><path d="M351.46 540.8h44.52v9.39h-44.52zm53.99 0h44.52v9.39h-44.52z" fill="#bd262d"/></g><g id="shorts"><path id="shorts-2" data-name="shorts" class="cls-6" d="M342.17 443.49h116.49v47a9.95 9.95 0 01-9.95 9.95h-96.6a9.95 9.95 0 01-9.95-9.95v-47h.01z"/></g><g id="shirt"><path id="shirt-2" data-name="shirt" class="cls-3" d="M370 315.75l-48.29 2.99-11.36 6.25-6.83 10.1-3.31 40.73 5.17 7.67 7.66 4.67h29.5l.17 54h114.83v-53.5l29.34-.17 7.01-4 6.99-10.5-3.4-37.33-6.83-11.84-9.77-6.08-49.84-2.99-1 21.24-6.5 6.5-11.16 3.48-11.88 2.02-15.46-3.17-11-5.66-3.66-3.84-.38-20.57z"/><path d="M369.89 321.25c-32 12.45-27.15 43.71-27.15 43.71l-.2 23.2s1.76 1.2-19.48.83-22.85-13.17-22.85-13.17 1.84-22.72 2-35.77 17.91-21.31 17.91-21.31l48.57-3.36zm61.17 0c32 12.45 27.15 43.71 27.15 43.71l.2 23.2s-1.75 1.2 19.48.83 22.85-13.17 22.85-13.17-1.84-22.72-2-35.77-17.91-21.31-17.91-21.31l-48.57-3.36z" fill="#1f407b"/><path d="M361.16 316.22s-7.47 29.54 19.34 30.38l-10.15-10.53 1.14-20.69zm78.68 0s7.47 29.54-19.34 30.38l10.15-10.53-1.14-20.69z" fill="#1d2f49"/><g id="brand-nike"><path id="nike" class="cls-6" d="M373.82 364.69c0 1.2-1.57 2.17-3.49 2.17h-9.25c-1.92 0-3.5-1-3.5-2.17s1.58-2.16 3.5-2.16h9.25c1.92 0 3.49.97 3.49 2.16z"/></g><g id="crest-france-06"><g id="france-crest-2006"><rect class="cls-6" x="428.11" y="383.59" width="10.92" height="2.3" rx="1.15" ry="1.15"/><circle class="cls-6" cx="433.57" cy="358.13" r="1.62"/><path class="cls-6" d="M430.87 363.44a16.66 16.66 0 00-2.12 7.7c0 3-.64 3.13 3.84 9.6 1.49 2.15 2.25.5 2.25.5l.48-5.37 4 1.23a1.1 1.1 0 001.38-.79 41.1 41.1 0 00.93-5.26 4.8 4.8 0 00-7-4.74s.82-3.68-1.55-4a2.26 2.26 0 00-2.21 1.13z"/></g></g><path class="cls-6" d="M396.77 381.22a4.84 4.84 0 01-3.4-4.69c0-3.73 3.43-5.25 6.63-5.25s6.63 1.52 6.63 5.25a4.87 4.87 0 01-3.43 4.69 5.58 5.58 0 013.72 5.1c0 3.7-3.31 5.52-6.92 5.52s-6.92-1.79-6.92-5.52a5.57 5.57 0 013.69-5.1zm3.23 1.88c-1.09.15-3.2 1-3.2 2.71 0 1.47 1.39 2.39 3.2 2.39s3.2-.92 3.2-2.39c0-1.73-2.14-2.56-3.2-2.71zm0-8.18c-1.7 0-2.92.86-2.92 2.27s1.86 2.23 2.92 2.41c1.06-.18 2.89-.86 2.89-2.41s-1.21-2.27-2.89-2.27z"/></g><path id="neck" fill="#593325" d="M428.13 341.21l-27.59 8.62-28.6-9.62-1.92-23.62h61.04l-2.93 24.62z"/><path d="M503.38 369.38L500.91 339c-1.19-11.87-11.83-22.25-23.72-23.14l-37.14-2.7c-4.07-.45-20.52-.09-39.55.53-19-.62-35.48-1-39.55-.53l-37.14 2.7c-11.89.89-22.53 11.27-23.72 23.14l-2.47 30.36a20.14 20.14 0 005 15.74 18.65 18.65 0 001.69 1.64v66.36c0 12.81 9.32 23.23 20.78 23.23a19.8 19.8 0 0015.21-7.43v21.79a12.24 12.24 0 007.74 11.36v68h-5.93c-10.93 0-19.83 5.8-19.83 17.11 0 8.06 0 17 11.72 19.7v1.6a1.37 1.37 0 001.38 1.37h1.63a1.37 1.37 0 001.38-1.37v-1q1.72.15 3.72.15H344v.8a1.37 1.37 0 001.38 1.37h1.63a1.37 1.37 0 001.38-1.37v-.8H354v.8a1.37 1.37 0 001.38 1.37h1.63a1.37 1.37 0 001.38-1.37v-.8H364v.8a1.37 1.37 0 001.38 1.37h1.63a1.37 1.37 0 001.38-1.37v-.8H374v.8a1.37 1.37 0 001.38 1.37h1.63a1.37 1.37 0 001.38-1.37v-.8H384v.8a1.37 1.37 0 001.38 1.37h1.63a1.37 1.37 0 001.38-1.37v-.8H394v.8a1.37 1.37 0 001.38 1.37h1.63a1.37 1.37 0 001.38-1.37v-.81l.06-55.46V503h4v49.21l.06 54.67v1.6a1.37 1.37 0 001.38 1.37h1.63a1.37 1.37 0 001.38-1.37v-.8h5.61v.8a1.37 1.37 0 001.38 1.37h1.63a1.37 1.37 0 001.38-1.37v-.8h5.61v.8a1.37 1.37 0 001.38 1.37h1.63a1.37 1.37 0 001.38-1.37v-.8h5.61v.8a1.37 1.37 0 001.38 1.37h1.63a1.37 1.37 0 001.38-1.37v-.8h5.61v.8a1.37 1.37 0 001.38 1.37h1.63a1.37 1.37 0 001.38-1.37v-.8h5.61v.8a1.37 1.37 0 001.38 1.37h1.63a1.37 1.37 0 001.38-1.37v-.8h1.89c1.33 0 2.56 0 3.72-.15v1a1.37 1.37 0 001.38 1.37h1.63a1.37 1.37 0 001.38-1.37v-1.6c11.71-2.68 11.72-11.64 11.72-19.7 0-11.31-8.9-17.11-19.83-17.11h-5.93v-68a12.24 12.24 0 007.74-11.36v-21.84a19.8 19.8 0 0015.21 7.43c11.46 0 20.78-10.42 20.78-23.23v-66.36a18.65 18.65 0 001.69-1.64 20.14 20.14 0 005.1-15.74zM372.89 323.2c3.46 1.85 15.64 2.08 27.61 1.8 12 .28 24.15.05 27.61-1.8V335c0 4.81-22.42 12-27.23 12l-.38-.07-.38.07c-4.81 0-27.23-7.18-27.23-12zm-33 75.43v55c0 9.5-6.63 17.23-14.78 17.23s-14.78-7.73-14.78-17.23v-62.78a21.07 21.07 0 007.47 1.36h22.09zm52.91 203.42h-50.65c-14.21 0-14.21-5-14.21-14.89 0-8.22 6.37-11.5 14.21-11.5h11.67l38.93-2.7.07 15.37zm-38.74-76.4h38.67v41.7L354.08 570h-.26v-44.4zm-.26-5.74v-17h38.93v16.93h-38.91zm104.77 55.75h.26c7.84 0 14.21 3.28 14.21 11.5 0 9.91 0 14.89-14.21 14.89h-50.65v-13.7l.07-15.37 38.93 2.7h11.41zm-11.67-50h.26v44.4h-.26l-38.67-2.68v-41.7zm-38.67-5.74V503h38.93v17h-38.91zm46.84-73.78H455v44.58a6.6 6.6 0 01-6.58 6.58h-1.26l-43.68-.05s-.11-3.72-.16-8.75v-2.8c0-3.52-1.41-5.09-2.82-5-1.41-.08-2.82 1.49-2.82 5v2.79c-.05 5-.16 8.75-.16 8.75l-43.68.05h-1.26a6.6 6.6 0 01-6.58-6.58v-44.58h-.07v-.33l30.25.33h48.68l30.25-.33zm35.56 7.51c0 9.5-6.63 17.23-14.78 17.23s-14.78-7.73-14.78-17.23v-61.44h22.09a21.07 21.07 0 007.47-1.36zm6-77.21a13.55 13.55 0 01-2.76 4.66 13.85 13.85 0 01-3.24 2.63 14.72 14.72 0 01-7.47 2l-22.09.09v-20.15c0-5.56-6.08-5.93-6.08 0s.08 14.37.08 14.37v59.59H345.91V380s.08-8.45.08-14.37-6.08-5.54-6.08 0v20.11l-22.09-.09a14.72 14.72 0 01-7.47-2 13.85 13.85 0 01-3.24-2.63 13.55 13.55 0 01-2.76-4.66 14.79 14.79 0 01-.75-6.46l2.46-30.35c.9-8.95 9.23-17.08 18.2-17.75l11.12-.84 32.21-2.29c.68.55.49 17.49.49 17.49 0 8.43 23.34 15.29 31.77 15.29h1.3c8.43 0 31.77-6.86 31.77-15.29 0 0-.19-16.94.49-17.49l32.21 2.33 11.12.84c9 .67 17.3 8.8 18.2 17.75L497.4 370a14.79 14.79 0 01-.75 6.43z" id="border"/><g id="head"><path class="cls-10" d="M404.46 187.93a3.26 3.26 0 012.67 1.35 4.68 4.68 0 012.28-.55c3.44 0 7.12 3 7.12 3a6.58 6.58 0 013.06-.78c3.54 0 6 3.09 6 3.09a8.19 8.19 0 013.28-.74c4.46 0 6.31 4.57 6.31 4.57 13.82 1.15 7.67 8.63 7.67 8.63 5.18.39 0 18.74 0 18.74a27.66 27.66 0 01-2.9.16c-8.94 0-10.52-5.28-10.52-5.28-7.68 1.6-20.76 1.79-26.72 1.79h-4.32c-6 0-19-.19-26.72-1.79 0 0-1.58 5.28-10.52 5.28a27.66 27.66 0 01-2.9-.16s-5.18-18.35 0-18.74c0 0-6.15-7.48 7.67-8.63 0 0 1.85-4.57 6.31-4.57a8.19 8.19 0 013.28.74s2.41-3.09 6-3.09a6.58 6.58 0 013.06.78s3.68-3 7.12-3a4.68 4.68 0 012.28.55 3.24 3.24 0 012.67-1.35 6.47 6.47 0 013.95 1.73 6.47 6.47 0 013.95-1.73m0-5a9.64 9.64 0 00-4 .89 9.64 9.64 0 00-4-.89 8.28 8.28 0 00-3.7.87 10.24 10.24 0 00-1.25-.07 15.88 15.88 0 00-7.89 2.5 11 11 0 00-2.29-.24 12.25 12.25 0 00-7.26 2.51 12 12 0 00-2-.16 11.6 11.6 0 00-9.33 4.88c-3.42.53-8.45 2-10.35 6.49a8.75 8.75 0 00-.36 5.66c-1.46 2.77-1.62 6.9-.56 13.18.72 4.22 1.76 7.93 1.8 8.08l4.27 3.62a31.88 31.88 0 003.45.19c6.42 0 10.5-2.29 12.86-4.8 7.85 1.13 18.34 1.31 24.38 1.31h4.32c6 0 16.53-.18 24.38-1.31 2.36 2.51 6.44 4.8 12.86 4.8a31.88 31.88 0 003.45-.19l4.27-3.62c0-.15 1.08-3.86 1.8-8.08 1.06-6.28.9-10.41-.56-13.18a8.75 8.75 0 00-.36-5.66c-1.9-4.5-6.93-6-10.35-6.49a11.6 11.6 0 00-9.33-4.88 12 12 0 00-2 .16 12.25 12.25 0 00-7.26-2.51 11 11 0 00-2.29.24 15.88 15.88 0 00-7.89-2.5 10.24 10.24 0 00-1.25.07 8.28 8.28 0 00-3.7-.87z"/><path id="skin-2" data-name="skin" class="cls-1" d="M446.88 254.05c0-.91.08-1.81.08-2.73 0-30.51-21.06-55.25-47-55.25s-47 24.74-47 55.25c0 1.11 0 2.22.1 3.31-4.05 2.46-6.91 8.44-6.91 15.43 0 9.19 4.93 16.64 11 16.64a7.48 7.48 0 002.1-.32c.82 24.5 18.73 44.08 40.73 44.08S440 310.65 440.66 286a7.65 7.65 0 003.25.74c6.09 0 11-7.45 11-16.64.02-7.67-3.39-14.1-8.03-16.05z"/><path d="M443.86 230.34c-6.47-30.16-40.17-33.94-43.63-34.24h-.31c-3.46.3-37.16 4.08-43.64 34.24 0 0-5 17 0 24.14 0 0 12.36-14.94 12.63-23.61s-1.67-13.93 4.29-12.88 13 3.91 26.77 3.94h.21C414 221.9 421 219 427 218s4 4.2 4.29 12.88 12.62 23.61 12.62 23.61c4.95-7.15-.05-24.15-.05-24.15z" opacity=".5" fill="#261915"/><path class="cls-10" d="M399.92 333.46c-22.68 0-41.28-19-43.53-43.79-7.52-.49-13.32-8.93-13.32-19.61 0-7 2.64-13.45 6.84-16.92v-1.82c0-32.12 22.45-58.25 50-58.25s50 26.13 50 58.25v1c4.85 3.18 8 10 8 17.76 0 11-6.16 19.64-14 19.64h-.46c-2.25 24.79-20.78 43.74-43.53 43.74zm-40.73-50.08a3 3 0 013 2.9c.77 23.09 17.34 41.18 37.73 41.18 20.58 0 37.15-18.26 37.74-41.58a3 3 0 014.27-2.64 4.73 4.73 0 002 .46c4.35 0 8-6.25 8-13.64 0-7-3.13-11.94-6.22-13.25a3 3 0 01-1.83-2.89v-.18c0-.8.07-1.6.07-2.42 0-28.81-19.76-52.25-44-52.25s-44 23.44-44 52.25c0 .92 0 1.89.09 3.16a3 3 0 01-1.43 2.71c-3.27 2-5.47 7.16-5.47 12.87 0 7.39 3.67 13.64 8 13.64a4.69 4.69 0 001.25-.19 2.74 2.74 0 01.8-.13z"/><path d="M442.8 206.54s6.15-7.48-7.67-8.63c0 0-2.74-6.77-9.59-3.83 0 0-3.88-5-9-2.31 0 0-5.57-4.6-9.4-2.49 0 0-2.07-3.27-6.62.38-4.55-3.65-6.62-.38-6.62-.38-3.83-2.11-9.4 2.49-9.4 2.49-5.13-2.66-9 2.31-9 2.31-6.85-2.94-9.59 3.83-9.59 3.83-13.82 1.15-7.67 8.63-7.67 8.63-5.18.39 0 18.74 0 18.74 11.51 1.27 13.42-5.12 13.42-5.12 8.83 1.84 24.83 1.82 28.88 1.78s20.05.06 28.88-1.78c0 0 1.91 6.39 13.42 5.12-.04 0 5.16-18.35-.04-18.74z" fill="#261915"/></g></svg>