<svg id="player" xmlns="http://www.w3.org/2000/svg" viewBox="0 0 800 800"><defs><style>.cls-1{fill:#dca689}.cls-2{fill:#6cceeb}.cls-4{fill:#1f7070}.cls-5{fill:#fff}.cls-6{fill:#198e8b}.cls-8{fill:#231f20}.cls-10{fill:#8c715d}</style></defs><g id="skin"><path id="arm-left" class="cls-1" d="M306.43 383h36.78v72.38a18.39 18.39 0 01-18.39 18.39 18.39 18.39 0 01-18.39-18.39V383z"/><path id="arm-right" class="cls-1" d="M457.69 383h36.78v72.38a18.39 18.39 0 01-18.39 18.39 18.39 18.39 0 01-18.39-18.39V383z"/><path id="leg-left" class="cls-1" d="M350.38 492.97h45.67v45.67h-45.67z"/><path id="leg-right" class="cls-1" d="M405.28 492.97h45.67v45.67h-45.67z"/></g><g id="boots"><path id="left" class="cls-2" d="M395.83 570.99H373l-22.83 1.98h-12.5l-7.5 2.52-5.25 8.5v9.83l1.91 4.17 3.84 4.06 6.33 1.94h58.83v-33z"/><path id="right" class="cls-2" d="M405.11 571.22h22.83l22.83 1.97h12.5l7.5 2.53 5.25 8.5v9.83l-1.91 4.17-3.84 4.05-6.33 1.95h-58.83v-33z"/><path d="M372.59 571s-15.88 11-18.45 19.17c-2.35 7.5-.8 12.48 5 13.78s15.71.09 15.71.09 15.44-17.36 9.65-33zm55.76 0s15.88 11 18.45 19.17c2.35 7.5.8 12.48-5 13.78s-15.71.09-15.71.09-15.44-17.36-9.65-33z" fill="#cae3b1"/></g><g id="socks"><g id="socks-2" data-name="socks"><path id="left-2" data-name="left" class="cls-4" d="M350.38 522.95h45.67v48.04h-45.67z"/><path id="right-2" data-name="right" class="cls-4" d="M404.88 522.95h45.67v48.04h-45.67z"/></g><path class="cls-5" d="M351.83 527.3h44.74v1.75h-44.74zm0 3.5h44.74v1.75h-44.74zm53.05-3.5h44.74v1.75h-44.74zm0 3.5h44.74v1.75h-44.74z"/></g><g id="shorts"><path id="shorts-2" data-name="shorts" class="cls-5" d="M342.17 443.49h116.49v47a9.95 9.95 0 01-9.95 9.95h-96.6a9.95 9.95 0 01-9.95-9.95v-47h.01z"/><path class="cls-4" d="M347.89 443.49h1.97v56.08h-1.97zm3.94 0h1.97v56.08h-1.97zm95.34 0h1.97v56.08h-1.97zm3.94 0h1.97v56.08h-1.97z"/></g><g id="shirt"><path id="shirt-2" data-name="shirt" class="cls-4" d="M370 315.75l-48.29 2.99-11.36 6.25-6.83 10.1-3.31 40.73 5.17 7.67 7.66 4.67h29.5l.17 54h114.83v-53.5l29.34-.17 7.01-4 6.99-10.5-3.4-37.33-6.83-11.84-9.77-6.08-49.84-2.99-1 21.24-6.5 6.5-11.16 3.48-11.88 2.02-15.46-3.17-11-5.66-3.66-3.84-.38-20.57z"/><path class="cls-6" d="M369.31 439.61a1.93 1.93 0 01-1.47-.7l-9.19-10.57-9.18 10.57a1.9 1.9 0 01-3 0 2.67 2.67 0 010-3.39l10.66-12.26a1.9 1.9 0 012.94 0l10.66 12.26a2.67 2.67 0 010 3.39 1.94 1.94 0 01-1.42.7z"/><path class="cls-6" d="M390.23 439.61a1.94 1.94 0 01-1.47-.7l-9.18-10.57-9.19 10.57a1.89 1.89 0 01-2.94 0 2.64 2.64 0 010-3.39l10.65-12.26a1.91 1.91 0 012.95 0l10.65 12.26a2.64 2.64 0 010 3.39 1.93 1.93 0 01-1.47.7z"/><path class="cls-6" d="M411.16 439.61a2 2 0 01-1.48-.7l-9.18-10.57-9.18 10.57a1.9 1.9 0 01-2.95 0 2.67 2.67 0 010-3.39L399 423.26a1.9 1.9 0 012.94 0l10.66 12.26a2.67 2.67 0 010 3.39 1.94 1.94 0 01-1.44.7z"/><path class="cls-6" d="M432.08 439.61a1.93 1.93 0 01-1.47-.7l-9.19-10.57-9.18 10.57a1.89 1.89 0 01-2.94 0 2.64 2.64 0 010-3.39l10.7-12.26a1.91 1.91 0 012.95 0l10.65 12.26a2.64 2.64 0 010 3.39 1.93 1.93 0 01-1.52.7z"/><path class="cls-6" d="M453 439.61a1.94 1.94 0 01-1.47-.7l-9.18-10.57-9.19 10.57a1.89 1.89 0 01-2.94 0 2.67 2.67 0 010-3.39l10.65-12.26a1.91 1.91 0 012.95 0l10.66 12.26a2.67 2.67 0 010 3.39 2 2 0 01-1.48.7zm-83.69-21.11a1.93 1.93 0 01-1.47-.7l-9.19-10.56-9.18 10.56a1.9 1.9 0 01-3 0 2.67 2.67 0 010-3.39l10.66-12.26a1.9 1.9 0 012.94 0l10.66 12.26a2.67 2.67 0 010 3.39 1.94 1.94 0 01-1.42.7z"/><path class="cls-6" d="M390.23 418.5a1.94 1.94 0 01-1.47-.7l-9.18-10.56-9.19 10.56a1.89 1.89 0 01-2.94 0 2.64 2.64 0 010-3.39l10.65-12.26a1.91 1.91 0 012.95 0l10.65 12.26a2.64 2.64 0 010 3.39 1.93 1.93 0 01-1.47.7z"/><path class="cls-6" d="M411.16 418.5a2 2 0 01-1.48-.7l-9.18-10.56-9.18 10.56a1.9 1.9 0 01-2.95 0 2.67 2.67 0 010-3.39L399 402.15a1.9 1.9 0 012.94 0l10.66 12.26a2.67 2.67 0 010 3.39 1.94 1.94 0 01-1.44.7z"/><path class="cls-6" d="M432.08 418.5a1.93 1.93 0 01-1.47-.7l-9.19-10.56-9.18 10.56a1.89 1.89 0 01-2.94 0 2.64 2.64 0 010-3.39l10.7-12.26a1.91 1.91 0 012.95 0l10.65 12.26a2.64 2.64 0 010 3.39 1.93 1.93 0 01-1.52.7z"/><path class="cls-6" d="M453 418.5a1.94 1.94 0 01-1.47-.7l-9.18-10.56-9.19 10.56a1.89 1.89 0 01-2.94 0 2.67 2.67 0 010-3.39l10.65-12.26a1.91 1.91 0 012.95 0l10.66 12.26a2.67 2.67 0 010 3.39 2 2 0 01-1.48.7zm-83.69-21.1a1.94 1.94 0 01-1.47-.71l-9.19-10.56-9.18 10.56a1.9 1.9 0 01-3 0 2.65 2.65 0 010-3.38l10.66-12.26a1.89 1.89 0 012.94 0l10.66 12.26a2.65 2.65 0 010 3.38 2 2 0 01-1.42.71z"/><path class="cls-6" d="M390.23 397.4a2 2 0 01-1.47-.71l-9.18-10.56-9.19 10.56a1.89 1.89 0 01-2.94 0 2.63 2.63 0 010-3.38l10.65-12.26a1.9 1.9 0 012.95 0l10.65 12.26a2.63 2.63 0 010 3.38 1.94 1.94 0 01-1.47.71z"/><path class="cls-6" d="M411.16 397.4a2 2 0 01-1.48-.71l-9.18-10.56-9.18 10.56a1.9 1.9 0 01-2.95 0 2.65 2.65 0 010-3.38L399 381.05a1.89 1.89 0 012.94 0l10.66 12.26a2.65 2.65 0 010 3.38 2 2 0 01-1.44.71z"/><path class="cls-6" d="M432.08 397.4a1.94 1.94 0 01-1.47-.71l-9.19-10.56-9.18 10.56a1.89 1.89 0 01-2.94 0 2.63 2.63 0 010-3.38l10.7-12.26a1.9 1.9 0 012.95 0l10.65 12.26a2.63 2.63 0 010 3.38 1.94 1.94 0 01-1.52.71z"/><path class="cls-6" d="M453 397.4a2 2 0 01-1.47-.71l-9.18-10.56-9.19 10.56a1.89 1.89 0 01-2.94 0 2.65 2.65 0 010-3.38l10.65-12.26a1.9 1.9 0 012.95 0l10.66 12.26a2.65 2.65 0 010 3.38 2 2 0 01-1.48.71zm-83.69-21.11a2 2 0 01-1.47-.7L358.65 365l-9.18 10.57a1.91 1.91 0 01-3 0 2.67 2.67 0 010-3.39l10.66-12.26a1.89 1.89 0 012.94 0l10.66 12.26a2.67 2.67 0 010 3.39 2 2 0 01-1.42.72z"/><path class="cls-6" d="M348.21 376.29a2 2 0 01-1.47-.7L337.56 365l-9.19 10.57a1.9 1.9 0 01-2.94 0 2.67 2.67 0 010-3.39l10.66-12.26a1.89 1.89 0 012.94 0l10.66 12.26a2.67 2.67 0 010 3.39 2 2 0 01-1.48.72z"/><path class="cls-6" d="M327 376.29a2.13 2.13 0 01-1.56-.7L315.67 365l-9.75 10.57a2.1 2.1 0 01-3.13 0 2.55 2.55 0 010-3.39l11.32-12.26a2.09 2.09 0 013.13 0l11.31 12.26a2.53 2.53 0 010 3.39 2.13 2.13 0 01-1.55.72zm84.16 0a2 2 0 01-1.48-.7L400.5 365l-9.18 10.57a1.91 1.91 0 01-2.95 0 2.67 2.67 0 010-3.39L399 359.94a1.89 1.89 0 012.94 0l10.66 12.26a2.67 2.67 0 010 3.39 2 2 0 01-1.44.7z"/><path class="cls-6" d="M432.08 376.29a2 2 0 01-1.47-.7L421.42 365l-9.18 10.57a1.9 1.9 0 01-2.94 0 2.64 2.64 0 010-3.39l10.7-12.24a1.9 1.9 0 012.95 0l10.65 12.26a2.64 2.64 0 010 3.39 2 2 0 01-1.52.7z"/><path class="cls-6" d="M453 376.29a2 2 0 01-1.47-.7L442.35 365l-9.19 10.57a1.9 1.9 0 01-2.94 0 2.67 2.67 0 010-3.39l10.65-12.26a1.9 1.9 0 012.95 0l10.66 12.26a2.67 2.67 0 010 3.39 2 2 0 01-1.48.72zm-83.69-21.11a1.93 1.93 0 01-1.47-.7l-9.19-10.57-9.18 10.57a1.91 1.91 0 01-3 0 2.67 2.67 0 010-3.39l10.66-12.26a1.89 1.89 0 012.94 0l10.66 12.26a2.67 2.67 0 010 3.39 1.94 1.94 0 01-1.42.7z"/><path class="cls-6" d="M348.21 355.18a1.94 1.94 0 01-1.47-.7l-9.18-10.57-9.19 10.57a1.9 1.9 0 01-2.94 0 2.67 2.67 0 010-3.39l10.66-12.26a1.89 1.89 0 012.94 0l10.66 12.26a2.67 2.67 0 010 3.39 2 2 0 01-1.48.7z"/><path class="cls-6" d="M327 355.18a2.05 2.05 0 01-1.54-.7l-9.6-10.57-9.6 10.57a2 2 0 01-3.07 0 2.57 2.57 0 010-3.39l11.13-12.26a2 2 0 013.08 0l11.13 12.26a2.55 2.55 0 010 3.39 2 2 0 01-1.53.7zm63.23 0a1.94 1.94 0 01-1.47-.7l-9.18-10.57-9.19 10.57a1.9 1.9 0 01-2.94 0 2.64 2.64 0 010-3.39l10.65-12.26a1.9 1.9 0 012.95 0l10.65 12.26a2.64 2.64 0 010 3.39 1.93 1.93 0 01-1.47.7zm41.85 0a1.93 1.93 0 01-1.47-.7l-9.19-10.57-9.18 10.57a1.9 1.9 0 01-2.94 0 2.64 2.64 0 010-3.39l10.7-12.26a1.9 1.9 0 012.95 0l10.65 12.26a2.64 2.64 0 010 3.39 1.93 1.93 0 01-1.52.7z"/><path class="cls-6" d="M453 355.18a1.94 1.94 0 01-1.47-.7l-9.18-10.57-9.19 10.57a1.9 1.9 0 01-2.94 0 2.67 2.67 0 010-3.39l10.65-12.26a1.9 1.9 0 012.95 0l10.66 12.26a2.67 2.67 0 010 3.39 2 2 0 01-1.48.7zm21.61 21.11a2 2 0 01-1.47-.7L464 365l-9.19 10.57a1.9 1.9 0 01-2.94 0 2.67 2.67 0 010-3.39l10.66-12.26a1.89 1.89 0 012.94 0l10.66 12.26a2.67 2.67 0 010 3.39 2 2 0 01-1.52.72z"/><path class="cls-6" d="M474.61 355.18a1.94 1.94 0 01-1.47-.7L464 343.91l-9.19 10.57a1.9 1.9 0 01-2.94 0 2.67 2.67 0 010-3.39l10.66-12.26a1.89 1.89 0 012.94 0l10.66 12.26a2.67 2.67 0 010 3.39 2 2 0 01-1.52.7zm23.97 21.11a2.28 2.28 0 01-1.62-.7L486.85 365l-10.11 10.57a2.23 2.23 0 01-3.24 0 2.49 2.49 0 010-3.39l11.73-12.26a2.21 2.21 0 013.24 0l11.73 12.28a2.47 2.47 0 010 3.39 2.24 2.24 0 01-1.62.7z"/><path class="cls-6" d="M498.58 355.18a2.24 2.24 0 01-1.62-.7l-10.11-10.57-10.11 10.57a2.23 2.23 0 01-3.24 0 2.49 2.49 0 010-3.39l11.73-12.26a2.21 2.21 0 013.24 0l11.73 12.26a2.47 2.47 0 010 3.39 2.21 2.21 0 01-1.62.7zm-129.27-21.11a1.93 1.93 0 01-1.47-.7l-9.19-10.57-9.18 10.57a1.9 1.9 0 01-3 0 2.67 2.67 0 010-3.39l10.66-12.26a1.9 1.9 0 012.94 0L370.78 330a2.67 2.67 0 010 3.39 1.94 1.94 0 01-1.47.68z"/><path class="cls-6" d="M348.44 334.07a2 2 0 01-1.48-.7l-9.18-10.57-9.18 10.57a1.9 1.9 0 01-3 0 2.67 2.67 0 010-3.39l10.66-12.26a1.9 1.9 0 012.94 0L349.91 330a2.67 2.67 0 010 3.39 1.94 1.94 0 01-1.47.68z"/><path class="cls-6" d="M327.57 334.07a2 2 0 01-1.48-.7l-9.18-10.57-9.18 10.57a1.9 1.9 0 01-3 0 2.67 2.67 0 010-3.39l10.66-10.26a1.9 1.9 0 012.94 0L329 330a2.67 2.67 0 010 3.39 1.94 1.94 0 01-1.43.68zm125.43 0a1.94 1.94 0 01-1.47-.7l-9.18-10.57-9.19 10.57a1.89 1.89 0 01-2.94 0 2.67 2.67 0 010-3.39l10.65-12.26a1.91 1.91 0 012.95 0L454.48 330a2.67 2.67 0 010 3.39 2 2 0 01-1.48.68z"/><path class="cls-6" d="M474.61 334.07a1.94 1.94 0 01-1.47-.7L464 322.8l-9.19 10.57a1.89 1.89 0 01-2.94 0 2.67 2.67 0 010-3.39l10.66-12.26a1.9 1.9 0 012.94 0L476.09 330a2.67 2.67 0 010 3.39 2 2 0 01-1.48.68z"/><path class="cls-6" d="M496.22 334.07a1.94 1.94 0 01-1.47-.7l-9.18-10.57-9.18 10.57a1.9 1.9 0 01-2.95 0 2.67 2.67 0 010-3.39l10.66-10.26a1.9 1.9 0 012.94 0L497.7 330a2.67 2.67 0 010 3.39 2 2 0 01-1.48.68zm-105.99 42.22a2 2 0 01-1.47-.7L379.58 365l-9.19 10.57a1.9 1.9 0 01-2.94 0 2.64 2.64 0 010-3.39l10.65-12.26a1.9 1.9 0 012.95 0l10.65 12.28a2.64 2.64 0 010 3.39 2 2 0 01-1.47.7z"/><g id="brand-adidas"><g id="adidas"><rect id="bottom" class="cls-5" x="363.05" y="371.73" width="15.19" height="2.14" rx=".62" ry=".62"/><path class="cls-5" d="M370.72 363a1.32 1.32 0 00-.48 1.81l3.11 5.42a1.35 1.35 0 001.16.67h2.33l-4.29-7.42a1.33 1.33 0 00-1.83-.48zm-2.67 2.72a1.32 1.32 0 00-.49 1.8l1.53 2.73a1.34 1.34 0 001.17.68h2.32l-2.69-4.72a1.33 1.33 0 00-1.84-.49zm-2.93 2.34a1.35 1.35 0 00-.5 1.81l.21.37a1.35 1.35 0 001.17.69h2.32l-1.32-2.38a1.35 1.35 0 00-1.88-.49z"/></g></g><path class="cls-5" d="M310 328.28l-1.16-1.63c4.68-3.34 52.32-5.36 57.74-5.58l.08 2c-21 .85-53.45 2.93-56.66 5.21zm-5.29 5.72l-1.16-1.63c4.68-3.33 57.1-5.35 63.06-5.57l.08 2c-23.17.82-58.8 2.91-61.98 5.2zm187-5.72l1.16-1.63c-4.68-3.34-52.32-5.36-57.74-5.58l-.08 2c21.03.85 53.48 2.93 56.66 5.21zM497 334l1.17-1.63c-4.68-3.33-57.1-5.35-63.07-5.57l-.07 2c23.19.82 58.82 2.91 61.97 5.2z"/><path class="cls-5" d="M433.24 315.75l-.42 21.25-4 3.95-5.82 2.71-6.32 3.12-6.16 1.22-10.27 2.78L390 348l-6.17-1.19-6.32-3.12-5.78-2.73-4-3.95-.42-21.23-5.09.87v18.05a12.46 12.46 0 004.3 9.37c5.45 4.8 16.28 11.58 33.76 11.27 17.48.31 28.31-6.47 33.76-11.27a12.47 12.47 0 004.31-9.37v-18.08z"/><g id="crest-germany-06"><g id="crest-germany-06-2" data-name="crest-germany-06"><path class="cls-5" d="M425 375.14a20.44 20.44 0 01-.45-3.12 9.8 9.8 0 0119.59 0 18.34 18.34 0 01-.61 3.49l.61.27a10.49 10.49 0 10-20.27-3.78 10.6 10.6 0 00.55 3.35l.6-.23zm18.83.97l-.61-.26-.27.55a9.46 9.46 0 01-5 4.47l.15.38.25.66a10.55 10.55 0 005.87-5.63zm-17.97.45a8.94 8.94 0 01-.51-1.08l-.59.23-.48.19a10.66 10.66 0 005.64 5.87v-.06l.28-.64.15-.35a9.48 9.48 0 01-4.49-4.16zm11.81 5.63l-.36-1a7.93 7.93 0 01-6.27-.14l-.4.94a8.88 8.88 0 007.03.2z"/><path class="cls-5" d="M434.37 364.76a7.43 7.43 0 107.42 7.42 7.43 7.43 0 00-7.42-7.42zm4.43 11.86a5.9 5.9 0 01-1.18.93 6.21 6.21 0 01-3.25.91 6.3 6.3 0 01-3.11-.82l-.31-.19c-.2-.13-.39-.27-.58-.42l-.44-.41-.21-.22a6.48 6.48 0 01-.56-.71l-.16-.25a6.28 6.28 0 01-.46-5.59l.1-.24a5.28 5.28 0 01.27-.53l.25-.41a7.59 7.59 0 01.56-.71l.32-.32.21-.19.36-.3c.13-.1.27-.19.41-.28a7.22 7.22 0 01.78-.41l.24-.1a6.24 6.24 0 016.55 1.18 6.35 6.35 0 01.62.65 5.75 5.75 0 01.46.64l.15.25a6.28 6.28 0 01-.09 6.36 5.9 5.9 0 01-.93 1.18z"/><path class="cls-5" d="M436.38 369.93h-1.28v-1.47a.43.43 0 00-.43-.43h-.59c-.32 0-.43.43-.43.43a1.38 1.38 0 00-1.12.89.16.16 0 00.15.23h.74l-.07.35h-1a1.13 1.13 0 00-1.1.88l-1 4.12h.58a.51.51 0 00.51-.4l.05-.19a.51.51 0 01.5-.4h.17a.52.52 0 00.51-.4.52.52 0 01.51-.4l.94.93a.39.39 0 00.56 0l.93-.93h.05a.5.5 0 01.5.4.53.53 0 00.51.4h.17a.53.53 0 01.51.4v.19a.52.52 0 00.51.4h.58l-1-4.12a1.14 1.14 0 00-.96-.88z"/><circle class="cls-5" cx="437.28" cy="357.72" r="1.75"/><circle class="cls-5" cx="443.11" cy="359.41" r="1.75"/><circle class="cls-5" cx="425.63" cy="359.41" r="1.75"/><circle class="cls-5" cx="431.45" cy="357.72" r="1.75"/></g></g><path class="cls-5" d="M395.2 392.75a1.74 1.74 0 011.73-1.74 1.53 1.53 0 01.8.2 5.05 5.05 0 002.65.63c3 0 4.75-2.59 4.75-5.47V386a6.28 6.28 0 01-4.89 2.45c-3.42 0-6.5-2.11-6.5-6.15 0-3.7 3-6.52 7.29-6.52 5.75 0 8.17 4.44 8.17 9.82 0 5.73-3.21 9.8-8.82 9.8a8.48 8.48 0 01-4.22-1.08 1.72 1.72 0 01-.96-1.57zm6-13.5a3.07 3.07 0 00-3.33 2.85c0 2 1.68 2.9 3.5 2.9a4.78 4.78 0 003.71-1.76c-.15-1.82-1.17-3.99-3.88-3.99z"/></g><path id="neck" fill="#ba8772" d="M428.13 341.21l-27.59 8.62-28.6-9.62-1.92-23.62h61.04l-2.93 24.62z"/><path d="M503.38 369.38L500.91 339c-1.19-11.87-11.83-22.25-23.72-23.14l-37.14-2.7c-4.07-.45-20.52-.09-39.55.53-19-.62-35.48-1-39.55-.53l-37.14 2.7c-11.89.89-22.53 11.27-23.72 23.14l-2.47 30.36a20.14 20.14 0 005 15.74 18.65 18.65 0 001.69 1.64v66.36c0 12.81 9.32 23.23 20.78 23.23a19.8 19.8 0 0015.21-7.43v21.79a12.24 12.24 0 007.74 11.36v68h-5.93c-10.93 0-19.83 5.8-19.83 17.11 0 8.06 0 17 11.72 19.7v1.6a1.37 1.37 0 001.38 1.37h1.63a1.37 1.37 0 001.38-1.37v-1q1.72.15 3.72.15H344v.8a1.37 1.37 0 001.38 1.37h1.63a1.37 1.37 0 001.38-1.37v-.8H354v.8a1.37 1.37 0 001.38 1.37h1.63a1.37 1.37 0 001.38-1.37v-.8H364v.8a1.37 1.37 0 001.38 1.37h1.63a1.37 1.37 0 001.38-1.37v-.8H374v.8a1.37 1.37 0 001.38 1.37h1.63a1.37 1.37 0 001.38-1.37v-.8H384v.8a1.37 1.37 0 001.38 1.37h1.63a1.37 1.37 0 001.38-1.37v-.8H394v.8a1.37 1.37 0 001.38 1.37h1.63a1.37 1.37 0 001.38-1.37v-.81l.06-55.46V503h4v49.21l.06 54.67v1.6a1.37 1.37 0 001.38 1.37h1.63a1.37 1.37 0 001.38-1.37v-.8h5.61v.8a1.37 1.37 0 001.38 1.37h1.63a1.37 1.37 0 001.38-1.37v-.8h5.61v.8a1.37 1.37 0 001.38 1.37h1.63a1.37 1.37 0 001.38-1.37v-.8h5.61v.8a1.37 1.37 0 001.38 1.37h1.63a1.37 1.37 0 001.38-1.37v-.8h5.61v.8a1.37 1.37 0 001.38 1.37h1.63a1.37 1.37 0 001.38-1.37v-.8h5.61v.8a1.37 1.37 0 001.38 1.37h1.63a1.37 1.37 0 001.38-1.37v-.8h1.89c1.33 0 2.56 0 3.72-.15v1a1.37 1.37 0 001.38 1.37h1.63a1.37 1.37 0 001.38-1.37v-1.6c11.71-2.68 11.72-11.64 11.72-19.7 0-11.31-8.9-17.11-19.83-17.11h-5.93v-68a12.24 12.24 0 007.74-11.36v-21.84a19.8 19.8 0 0015.21 7.43c11.46 0 20.78-10.42 20.78-23.23v-66.36a18.65 18.65 0 001.69-1.64 20.14 20.14 0 005.1-15.74zM372.89 323.2c3.46 1.85 15.64 2.08 27.61 1.8 12 .28 24.15.05 27.61-1.8V335c0 4.81-22.42 12-27.23 12l-.38-.07-.38.07c-4.81 0-27.23-7.18-27.23-12zm-33 75.43v55c0 9.5-6.63 17.23-14.78 17.23s-14.78-7.73-14.78-17.23v-62.78a21.07 21.07 0 007.47 1.36h22.09zm52.91 203.42h-50.65c-14.21 0-14.21-5-14.21-14.89 0-8.22 6.37-11.5 14.21-11.5h11.67l38.93-2.7.07 15.37zm-38.74-76.4h38.67v41.7L354.08 570h-.26v-44.4zm-.26-5.74v-17h38.93v16.93h-38.91zm104.77 55.75h.26c7.84 0 14.21 3.28 14.21 11.5 0 9.91 0 14.89-14.21 14.89h-50.65v-13.7l.07-15.37 38.93 2.7h11.41zm-11.67-50h.26v44.4h-.26l-38.67-2.68v-41.7zm-38.67-5.74V503h38.93v17h-38.91zm46.84-73.78H455v44.58a6.6 6.6 0 01-6.58 6.58h-1.26l-43.68-.05s-.11-3.72-.16-8.75v-2.8c0-3.52-1.41-5.09-2.82-5-1.41-.08-2.82 1.49-2.82 5v2.79c-.05 5-.16 8.75-.16 8.75l-43.68.05h-1.26a6.6 6.6 0 01-6.58-6.58v-44.58h-.07v-.33l30.25.33h48.68l30.25-.33zm35.56 7.51c0 9.5-6.63 17.23-14.78 17.23s-14.78-7.73-14.78-17.23v-61.44h22.09a21.07 21.07 0 007.47-1.36zm6-77.21a13.55 13.55 0 01-2.76 4.66 13.85 13.85 0 01-3.24 2.63 14.72 14.72 0 01-7.47 2l-22.09.09v-20.15c0-5.56-6.08-5.93-6.08 0s.08 14.37.08 14.37v59.59H345.91V380s.08-8.45.08-14.37-6.08-5.54-6.08 0v20.11l-22.09-.09a14.72 14.72 0 01-7.47-2 13.85 13.85 0 01-3.24-2.63 13.55 13.55 0 01-2.76-4.66 14.79 14.79 0 01-.75-6.46l2.46-30.35c.9-8.95 9.23-17.08 18.2-17.75l11.12-.84 32.21-2.29c.68.55.49 17.49.49 17.49 0 8.43 23.34 15.29 31.77 15.29h1.3c8.43 0 31.77-6.86 31.77-15.29 0 0-.19-16.94.49-17.49l32.21 2.33 11.12.84c9 .67 17.3 8.8 18.2 17.75L497.4 370a14.79 14.79 0 01-.75 6.43z" id="border"/><g id="head"><path class="cls-8" d="M409.54 189.12a41 41 0 014.39.23 5.19 5.19 0 013.6 2.16l5.42 7.56c13.86 4.22 20 13.68 25.95 25s-4.9 30.41-4.9 30.41L437.89 243s.67-7.18-2-19.73c-1.79-8.37-6.34-9.76-9.17-9.76a7.93 7.93 0 00-2.41.35l-3.89-5.83-20.42 5.63v-12.83 12.83l-20.4-5.6-3.89 5.83a7.9 7.9 0 00-2.4-.35c-2.84 0-7.38 1.39-9.18 9.76-2.69 12.55-2 19.73-2 19.73L356 254.48s-10.88-19.11-4.94-30.42 9.78-23.77 23.65-28c0 0 19.87-6.95 34.86-6.95m0-5c-15.27 0-34.68 6.6-36.41 7.2-13.67 4.2-19.08 15.3-23.86 25.09-.86 1.76-1.75 3.59-2.67 5.33-7 13.34 3.78 33 5 35.22a5 5 0 004.34 2.52h.08a5 5 0 004.34-2.66l6.07-11.45a4.9 4.9 0 00.56-2.81c0-.05-.53-6.72 1.93-18.21.83-3.86 2.27-5.81 4.29-5.81a3.47 3.47 0 01.8.09 4.58 4.58 0 001.72.34 4.9 4.9 0 004-2.31l1.89-2.82 16.91 4.64a5 5 0 001.33.18h.11a4.94 4.94 0 001.32-.18l16.92-4.64 1.88 2.82a4.9 4.9 0 004 2.31 4.67 4.67 0 001.73-.34 3.47 3.47 0 01.8-.09c2 0 3.46 2 4.28 5.81 2.46 11.49 1.93 18.16 1.93 18.23a5.09 5.09 0 00.56 2.79l6.07 11.45a5 5 0 004.34 2.66h.17a5 5 0 004.3-2.47c1.26-2.2 12-21.88 5-35.22-5.93-11.29-12.5-21.83-27.28-26.92l-4.45-6.22a10.15 10.15 0 00-7.11-4.21 42.6 42.6 0 00-4.95-.27z"/><path id="skin-2" data-name="skin" class="cls-1" d="M446.88 254.05c0-.91.08-1.81.08-2.73 0-30.51-21.06-55.25-47-55.25s-47 24.74-47 55.25c0 1.11 0 2.22.1 3.31-4.05 2.46-6.91 8.44-6.91 15.43 0 9.19 4.93 16.64 11 16.64a7.48 7.48 0 002.1-.32c.82 24.5 18.73 44.08 40.73 44.08S440 310.65 440.66 286a7.65 7.65 0 003.25.74c6.09 0 11-7.45 11-16.64.02-7.67-3.39-14.1-8.03-16.05z"/><g opacity=".1"><path class="cls-10" d="M388.51 310.17c1.42.1 6.76-3.87 11.47-4.39 4.71.52 10 4.49 11.47 4.39s1.15-2.63 1.15-2.63c-1.09-5-9.68-5-12.62-4.82-2.93-.16-11.53-.2-12.62 4.82 0 0-.36 2.52 1.15 2.63z"/><path class="cls-10" d="M445 247.44c-3.42-8.18-5.53-1.06-5.53-1.06s-1.78 39.55-9.46 52.33-19.39 22.44-30 22.36c-10.61.08-22.32-9.58-30-22.36s-9.45-52.33-9.45-52.33-2.11-7.12-5.54 1.06 3.35 36.07 7.18 56.67 37.75 26.35 37.75 26.35h.05s33.94-5.74 37.76-26.35 10.64-48.5 7.24-56.67z"/></g><path class="cls-8" d="M399.92 333.46c-22.68 0-41.28-19-43.53-43.79-7.52-.49-13.32-8.93-13.32-19.61 0-7 2.64-13.45 6.84-16.92v-1.82c0-32.12 22.45-58.25 50-58.25s50 26.13 50 58.25v1c4.85 3.18 8 10 8 17.76 0 11-6.16 19.64-14 19.64h-.46c-2.25 24.79-20.78 43.74-43.53 43.74zm-40.73-50.08a3 3 0 013 2.9c.77 23.09 17.34 41.18 37.73 41.18 20.58 0 37.15-18.26 37.74-41.58a3 3 0 014.27-2.64 4.73 4.73 0 002 .46c4.35 0 8-6.25 8-13.64 0-7-3.13-11.94-6.22-13.25a3 3 0 01-1.83-2.89v-.18c0-.8.07-1.6.07-2.42 0-28.81-19.76-52.25-44-52.25s-44 23.44-44 52.25c0 .92 0 1.89.09 3.16a3 3 0 01-1.43 2.71c-3.27 2-5.47 7.16-5.47 12.87 0 7.39 3.67 13.64 8 13.64a4.69 4.69 0 001.25-.19 2.74 2.74 0 01.8-.13z"/><path class="cls-10" d="M448.9 224.06c-5.94-11.31-12.09-20.77-25.95-25l-5.42-7.56a5.19 5.19 0 00-3.6-2.16c-15.14-1.71-39.25 6.72-39.25 6.72-13.87 4.22-17.71 16.68-23.65 28-3.08 5.86-1.64 13.81.46 20.12-2.22 11.6 4.48 10.3 4.48 10.3s6-3.7 7.08-8.58 6.56-13.13 4.09-19.49 4.44-8.44 5.44-8.12a248.7 248.7 0 0027.1 2.6h.57a249.24 249.24 0 0027.11-2.6c1-.32 7.92 1.76 5.44 8.12s3 14.62 4.08 19.49 7.08 8.58 7.08 8.58 6.71 1.3 4.48-10.3c2.1-6.31 3.56-14.26.46-20.12z"/></g></svg>